<?xml version="1.0" encoding="UTF-8"?>
<svg width="68px" height="100px" viewBox="0 0 68 100" version="1.1" xmlns="http://www.w3.org/2000/svg" xmlns:xlink="http://www.w3.org/1999/xlink">
    <title>role-cs</title>
    <g id="Page-1" stroke="none" stroke-width="1" fill="none" fill-rule="evenodd">
        <g id="role-cs" fill-rule="nonzero">
            <path d="M49.0617515,35.2934131 C48.8117872,35.2934131 48.5634892,35.1785381 48.4018456,34.9639921 C48.146882,34.6278138 48.1768777,34.1531098 48.4735021,33.8524076 L50.3965612,31.9029114 L47.6519525,33.509472 C47.2820053,33.729086 46.8037402,33.624347 46.5554422,33.264518 C46.3071443,32.9080676 46.3671358,32.4181596 46.6954223,32.1343508 L47.9569091,31.0447277 L47.6519525,31.2221082 C47.2853382,31.4417221 46.8104059,31.3386725 46.5587751,30.9839115 C46.3104772,30.6308398 46.3638029,30.1443104 46.6837573,29.8571229 L48.7218,28.0343271 C48.3885142,28.1593381 48.0102348,28.0579778 47.7836004,27.7707903 C47.5253039,27.4464374 47.5403018,26.9784908 47.8185955,26.6727206 L50.9914763,23.1639652 L47.6519525,25.1168401 C47.288671,25.3313861 46.818738,25.2334045 46.5654408,24.8870901 C46.31381,24.5424652 46.3588036,24.0593145 46.6687594,23.767059 L48.8367836,21.7246492 L47.6102918,22.4426179 C47.2570089,22.6537851 46.8004073,22.5676289 46.5421108,22.2382079 C46.2854807,21.913855 46.3004786,21.444219 46.5804387,21.1384488 L49.5150202,17.9253277 L47.0387067,19.3747798 C46.6854237,19.5842577 46.2288222,19.4981015 45.9705257,19.1703699 C45.7138956,18.8443276 45.7288934,18.3746916 46.0105199,18.0706108 L48.3385213,15.5281569 L45.9971885,16.8982101 C45.6555706,17.0992413 45.2156333,17.0282891 44.9540039,16.7225189 C44.6923746,16.4201274 44.6773767,15.9724528 44.9190089,15.6514785 L47.6602847,12.0329163 L44.0341351,14.154725 C43.6808522,14.3642029 43.2242506,14.2780466 42.9659541,13.950315 C42.709324,13.6242728 42.7259883,13.1546368 43.0059484,12.8488666 L44.8506853,10.8385542 L42.1194082,12.4349787 C41.7711245,12.641078 41.3245215,12.5599898 41.0628921,12.2474622 C40.8045956,11.931556 40.8045956,11.4737453 41.066225,11.1595284 L43.3192371,8.45151941 L39.2564831,10.8284182 C38.906533,11.0378961 38.4565971,10.9534292 38.1949678,10.6341443 C37.9366713,10.3148594 37.9450034,9.85198072 38.2132985,9.5411425 L40.5129706,6.88381361 L35.3737034,9.8908355 C35.0104219,10.1087601 34.5321568,10.0073998 34.2821924,9.65263882 C34.032228,9.30125649 34.0855538,8.8147271 34.4055082,8.52753962 L35.6070035,7.44805255 L30.6627085,10.3418888 C30.264432,10.5767068 29.7528383,10.4381811 29.5245375,10.0327399 C29.2929039,9.62898809 29.4295511,9.11205062 29.829494,8.87892195 L41.9344345,1.79383781 C42.3010489,1.57760252 42.7759812,1.67896281 43.0259455,2.03203448 C43.2759099,2.38341682 43.2225842,2.8699462 42.9026298,3.15713368 L41.699468,4.23831009 L44.0507994,2.86318885 C44.4024159,2.65371092 44.8523518,2.73817782 45.1123147,3.05746273 C45.3722776,3.37674764 45.3622791,3.83962629 45.093984,4.15046451 L42.7943119,6.8077934 L46.6104344,4.57448838 C46.9587181,4.36669979 47.405321,4.44947736 47.6669504,4.76200491 C47.9252469,5.07791114 47.9252469,5.53572178 47.6636175,5.84993867 L45.4106055,8.55794771 L48.8201193,6.56283937 C49.1734023,6.3516721 49.6300038,6.43951768 49.8883003,6.76724928 C50.1449304,7.09329154 50.1299325,7.56292754 49.848306,7.86869775 L48.0019026,9.88238881 L50.458219,8.44476205 C50.7981706,8.24035214 51.2381078,8.31299368 51.5014036,8.62045322 C51.763033,8.92284475 51.7780308,9.37051935 51.5363986,9.6914936 L48.7951229,13.3083666 L52.2996231,11.2575101 C52.6529061,11.0463428 53.1095076,11.1341884 53.3678041,11.46192 C53.6244342,11.7879622 53.6094363,12.2575982 53.3278098,12.5616791 L50.9998085,15.1058223 L53.452792,13.6698849 C53.8077414,13.460407 54.2626765,13.5448739 54.520973,13.8742948 C54.7776031,14.1986477 54.7626052,14.6682838 54.4826452,14.974054 L51.5480636,18.1854858 L54.3793266,16.5299344 C54.7426081,16.3136991 55.2125411,16.4116807 55.4658383,16.7596844 C55.7174691,17.1043093 55.6724755,17.5874601 55.3625197,17.8797156 L53.1911627,19.925504 L54.8525924,18.9541346 C55.2075418,18.7429673 55.6608105,18.8308129 55.919107,19.1568552 C56.1774035,19.4812081 56.1624056,19.9491548 55.884112,20.254925 L52.7128975,23.7619909 L55.0525639,22.3919377 C55.4208447,22.1740131 55.8941106,22.2787521 56.1457413,22.6301344 C56.3940393,22.9832061 56.3407135,23.4697354 56.0207592,23.7569229 L54.0310429,25.5374853 L55.0525639,24.9394596 C55.4208447,24.7181563 55.9007763,24.8245846 56.1490742,25.1844137 C56.3973721,25.540864 56.3373807,26.0307721 56.0090942,26.3145809 L54.7476074,27.404204 L55.0525639,27.2268235 C55.4125126,27.0139669 55.8741134,27.1068805 56.129077,27.4430587 C56.3840407,27.779237 56.354045,28.2539411 56.0574206,28.5546432 L54.1326951,30.5058288 L55.0525639,29.9686193 C55.3758511,29.7777241 55.7841262,29.8300935 56.0524213,30.0953196 C56.31905,30.3588564 56.3790414,30.7710549 56.2007335,31.1055438 L55.4625054,32.4772864 C55.7208019,32.5043158 55.965767,32.6512882 56.105747,32.8962423 C56.3357142,33.2999941 56.1990671,33.8169315 55.7991241,34.0517495 L53.8660664,35.1819168 C53.5427792,35.3694333 53.1345041,35.3187531 52.866209,35.0535271 C52.5995804,34.7899903 52.5395889,34.3777918 52.7178968,34.0433028 L53.312812,32.9384757 L49.4816916,35.1802274 C49.3517102,35.257937 49.2083973,35.2934131 49.0650844,35.2934131 L49.0617515,35.2934131 Z" id="Path" fill="#293D56"></path>
            <path d="M14.5497227,45.3714119 C14.2881952,45.3714119 14.0317624,45.2517885 13.867034,45.0293901 C13.6106013,44.6839986 13.6564535,44.2038202 13.9723243,43.9123435 L14.0979934,43.7960898 L12.1976736,44.8844942 C11.8155717,45.1068926 11.3247831,44.9956934 11.073445,44.6334535 C10.8238052,44.2712137 10.8951308,43.7792414 11.2381734,43.5029282 L11.8155717,43.0379133 C11.5353637,43.0800342 11.2551557,42.9267141 11.0802379,42.6840976 C10.8272016,42.330282 10.8883379,41.8416794 11.2194928,41.5586268 L12.7716754,40.2343453 L12.1976736,40.5612036 C11.8223646,40.7802323 11.3417654,40.6774573 11.0853326,40.3253265 C10.8305981,39.9748805 10.8832432,39.4913324 11.2076052,39.2032253 L13.4679499,37.2016395 L12.1976736,37.9294889 C11.8257611,38.1485177 11.3400672,38.0457426 11.0853326,37.6936118 C10.8305981,37.3431658 10.8832432,36.8579329 11.2093035,36.5698258 L13.3915295,34.6423728 L12.1976736,35.3264165 C11.8189682,35.5488149 11.3332743,35.4393005 11.0802379,35.0821152 C10.8272016,34.7266147 10.8900361,34.2380121 11.2228893,33.9549595 L12.4948639,32.8817187 L12.1976736,33.0518871 C11.8291576,33.2675462 11.3485584,33.1698257 11.0904273,32.8227494 C10.8339945,32.4790427 10.8798468,31.9988643 11.1957176,31.7057027 L14.1166739,29.0082794 L12.1993718,30.105108 C11.8291576,30.3224519 11.3468601,30.2230466 11.0887291,29.8726006 C10.8339945,29.5255243 10.8832432,29.0419762 11.2042088,28.7521843 L13.7787261,26.4321644 L12.1993718,27.3352368 C11.8274593,27.5542655 11.3434637,27.4514905 11.0887291,27.1010445 C10.8339945,26.7522833 10.8849415,26.2670504 11.2076052,25.9789433 L14.2134731,23.2983684 L12.1993718,24.4524814 C11.8223646,24.6698254 11.3349725,24.5653655 11.0836344,24.209865 C10.8305981,23.8560493 10.8900361,23.3691316 11.2211911,23.0843942 L16.5485399,18.530281 L12.3454196,20.9362276 C11.9514301,21.1670502 11.4470557,21.0406875 11.2025105,20.6565447 C10.9579654,20.272402 11.0649539,19.766951 11.441961,19.5108559 L20.4663574,13.3965841 L12.9499896,17.7013414 C12.5610949,17.9271095 12.0584187,17.8058013 11.810477,17.4283979 C11.5659318,17.0493097 11.662731,16.5489132 12.0329452,16.2860787 L20.3916353,10.3756722 L14.4291483,13.789151 C14.0572359,14.0081797 13.5732402,13.9054047 13.3151092,13.551589 C13.0620728,13.1994582 13.1164162,12.7142253 13.4424764,12.4278031 L19.7666865,6.89985438 L19.7140413,6.93018144 C19.306466,7.16268888 18.7868075,7.02621712 18.55415,6.62185635 C18.3180959,6.21918042 18.4573508,5.70362044 18.8649261,5.471113 L26.2929859,1.21690074 C26.6682949,0.999556822 27.1505923,1.10401669 27.4070251,1.45446269 C27.6600614,1.80659352 27.605718,2.29182645 27.2796578,2.57824866 L20.9554478,8.10619734 L34.9115053,0.115017639 C35.2987018,-0.112435294 35.8030762,0.00718810063 36.0510179,0.387961158 C36.295563,0.76704938 36.1987639,1.26744583 35.8285497,1.53028033 L27.4613685,7.44742626 L39.0619804,0.804115784 C39.4593663,0.576662851 39.9620425,0.699655918 40.2048894,1.08379865 C40.4494346,1.46794138 40.3424461,1.97339234 39.9654389,2.2294875 L24.4996546,12.7091708 C24.5438086,12.747922 24.5862644,12.7950974 24.620229,12.8456425 C24.8732653,13.1994582 24.8138273,13.686376 24.4826723,13.9711133 L19.1570218,18.5235417 L20.389937,17.81928 C20.765246,17.6036209 21.2475434,17.7047111 21.5005797,18.0534723 C21.7553143,18.4022334 21.7043674,18.8874664 21.3817036,19.1755734 L18.3792322,21.8527787 L19.7751776,21.0524813 C20.1487883,20.8368222 20.6276893,20.9379124 20.8858203,21.2849888 C21.1405549,21.6320651 21.0913062,22.1156132 20.7703407,22.4054051 L18.1924269,24.7287946 L19.7395148,23.8442555 C20.1080308,23.6285964 20.5869318,23.7280017 20.846761,24.0733932 C21.1031938,24.4170999 21.0573416,24.8972783 20.7414707,25.1904398 L17.8239109,27.8844935 L19.7446095,26.7859801 C20.1199184,26.5669513 20.6073105,26.6697263 20.8620451,27.0302814 C21.1150814,27.3857819 21.0522469,27.8743845 20.7193937,28.157437 L19.4423245,29.2340475 L19.7497042,29.0588245 C20.1233149,28.8431655 20.6073105,28.9442557 20.8620451,29.2947017 C21.1167797,29.6451477 21.0641345,30.1303806 20.7380743,30.4184876 L18.55415,32.3459406 L19.7564971,31.6585273 C20.1301078,31.4428682 20.6141035,31.5422736 20.868838,31.8944044 C21.1235726,32.2448504 21.0709274,32.7283985 20.7465654,33.0165056 L18.4845225,35.0197762 L19.76329,34.2868723 C20.1436936,34.0678436 20.6259911,34.1756731 20.8807256,34.5294888 C21.1320637,34.8833045 21.0726257,35.3719071 20.7414707,35.6549596 L19.1960811,36.9741866 L19.7683847,36.6473283 C20.1487883,36.4249299 20.6412751,36.5378139 20.8926132,36.898369 C21.1422531,37.2606088 21.0709274,37.7525811 20.7278849,38.0288943 L20.1521848,38.4922243 C20.4222034,38.4635821 20.7041097,38.5966842 20.8807256,38.8325613 C21.1371584,39.1779528 21.0913062,39.6581312 20.7754353,39.9496079 L20.2303034,40.4533741 C20.4035229,40.4601134 20.5733459,40.5173978 20.7176955,40.6269122 C20.9894124,40.8324623 21.1099867,41.1812234 21.023377,41.5097666 L20.5631565,43.2502027 C20.7176955,43.319281 20.8518557,43.4355347 20.9435602,43.5939094 C21.1796142,43.9965853 21.0403593,44.5121453 20.632784,44.7446527 L19.7768759,45.2349402 C19.4796855,45.4051086 19.1094713,45.3815209 18.8360562,45.1759709 C18.5643394,44.9704208 18.443765,44.6216597 18.5303747,44.2931165 L18.8615297,43.0362285 L14.9691856,45.2652672 C14.8367236,45.3427697 14.6906758,45.3781513 14.544628,45.3781513 L14.5497227,45.3714119 Z" id="Path" fill="#293D56"></path>
            <path d="M27.9064634,99.9964767 C27.6220669,99.9964767 27.3444018,99.8517388 27.1862168,99.5891909 C26.9489393,99.198735 27.0701023,98.6871031 27.4571507,98.4430682 L28.030992,98.0812233 L24.9110455,99.8820328 C24.5139002,100.11597 24.0107374,99.9830127 23.7717771,99.5908739 C23.5328168,99.202101 23.6506141,98.6921521 24.0359796,98.4447512 L34.8043385,91.5360382 L20.3489232,99.8820328 C19.9517779,100.11597 19.448615,99.9830127 19.2096547,99.5908739 C18.9706944,99.202101 19.0884918,98.6921521 19.4721745,98.4447512 L34.9473781,88.5133711 L15.2567129,99.8820328 C14.8595676,100.110921 14.3564047,99.9830127 14.1191272,99.5942399 C13.8801669,99.205467 13.9945986,98.6972011 14.3765985,98.4481172 L38.742135,82.5824808 L8.78122532,99.8803498 C8.38408003,100.109238 7.87923433,99.9830127 7.64195685,99.5908739 C7.40299655,99.202101 7.52079388,98.6921521 7.90447661,98.4447512 L36.128717,80.2532094 L4.64149056,98.4329702 C4.24602809,98.6669071 3.73949957,98.5339502 3.50053927,98.1401283 C3.26326179,97.7479894 3.38442476,97.2380405 3.76979031,96.9923226 L29.5589916,80.6924723 L2.80553502,96.1390419 C2.40502409,96.3712958 1.89681275,96.2383388 1.66121809,95.8428339 C1.42562343,95.447329 1.55183485,94.9356972 1.94224886,94.6933453 L16.8150033,85.5075339 L2.16101534,93.9679725 C1.76387005,94.2019094 1.25902435,94.0689524 1.02006405,93.6751306 C0.782786567,93.2846747 0.903949536,92.7747258 1.28931509,92.5273249 L30.494639,74.0244282 L2.10884795,90.4134775 C1.71170266,90.6457314 1.20685696,90.5161405 0.967896658,90.1189526 C0.730619178,89.7284967 0.851782146,89.2168648 1.23883052,88.9728299 L27.9266572,72.1663968 L2.10716513,87.0744065 C1.7066542,87.3049774 1.2018085,87.1720204 0.96453102,86.7798816 C0.72725354,86.3860597 0.851782146,85.8761108 1.24051334,85.6320759 L23.2315922,71.9038488 L2.10548231,84.1022293 C1.70833702,84.3361663 1.20349132,84.2048923 0.96453102,83.8077044 C0.725570721,83.4155655 0.848416508,82.9056167 1.23546488,82.6615817 L25.8466929,67.1763032 L2.10548231,80.8860173 C1.70833702,81.1182712 1.20517414,80.9869972 0.96453102,80.5948583 C0.72725354,80.2044024 0.846733689,79.6944536 1.23041642,79.4470527 L28.6603663,61.9320767 L2.10548231,77.2658853 C1.70833702,77.4981392 1.20012568,77.3651823 0.962848201,76.9713604 C0.725570721,76.5775385 0.850099327,76.0675896 1.23883052,75.8235547 L16.0291268,66.5704234 L2.10548231,74.6101121 C1.71001984,74.842366 1.20853978,74.711092 0.967896658,74.3240021 C0.728936359,73.9369123 0.841685232,73.4286464 1.22200233,73.1778795 L25.2964111,57.364416 L2.10548231,70.7543602 C1.71001984,70.9832481 1.20685696,70.8570231 0.966213839,70.4648843 C0.72725354,70.0761114 0.84505087,69.5678455 1.22705079,69.3187616 L16.5356553,59.4176754 L2.10548231,67.748523 C1.71001984,67.977411 1.20349132,67.849503 0.966213839,67.4573641 C0.72725354,67.0685912 0.84505087,66.5586424 1.2287336,66.3112415 L10.1863792,60.5587491 L2.10379949,65.2240238 C1.70833702,65.4545947 1.20685696,65.3250037 0.966213839,64.9379139 C0.72725354,64.550824 0.840336134,64.0425581 1.22031951,63.7917912 L10.7703174,57.525984 L2.10379949,62.5312245 C1.71675112,62.7567465 1.21863669,62.6372535 0.974627934,62.2585786 C0.732301997,61.8799037 0.82822268,61.3800529 1.19339441,61.117505 L14.7131623,51.4638197 L2.10379949,58.7444756 C1.72011676,58.9666316 1.22705079,58.8505046 0.98135921,58.4819277 C0.735667635,58.1133508 0.819808585,57.6135 1.1748834,57.345903 L11.5225375,49.5132233 L2.10211667,54.9509947 C1.72011676,55.1714677 1.23209924,55.0587067 0.984724848,54.6968618 C0.739033273,54.3316509 0.813077309,53.8368491 1.15973802,53.5642031 L7.56454717,48.4899596 L2.10379949,51.6422177 C1.72684803,51.8643736 1.23883052,51.7532957 0.989773305,51.3914508 C0.742398911,51.0296059 0.813077309,50.536487 1.15468957,50.2604751 L3.84215153,48.0826737 L2.12399332,49.0739604 C1.77060133,49.2826524 1.31455737,49.1968194 1.05035479,48.8787325 C0.789517843,48.5589626 0.799614757,48.0961377 1.07391426,47.7881488 L3.30533226,45.2754305 C3.00242484,45.2905775 2.66754386,45.1525716 2.49926196,44.8580466 C2.26535011,44.4558098 2.40334127,43.9408119 2.80721784,43.708558 L6.8055958,41.3994826 C7.15898779,41.1924737 7.61671456,41.2766237 7.87923433,41.5947106 C8.14007128,41.9144805 8.12997436,42.3773054 7.85567486,42.6852943 L5.78412466,45.0196146 L12.2411012,41.2917707 C12.6214183,41.0679317 13.1060702,41.1806927 13.3551274,41.5425376 C13.6025018,41.9043825 13.5318234,42.3975014 13.1902111,42.6735133 L10.5061148,44.8479486 L16.6669152,41.2917707 C17.0472323,41.0679317 17.5352498,41.1823757 17.784307,41.5459036 C18.0299986,41.9111145 17.9559546,42.4059164 17.6092938,42.6785623 L11.2061675,47.7528058 L22.3935483,41.2917707 C22.7738654,41.0645657 23.270297,41.1840587 23.5159886,41.5543186 C23.7616801,41.9245785 23.6775392,42.4227463 23.3224644,42.6903433 L12.9731275,50.524706 L28.9649565,41.2917707 C29.3503221,41.0628827 29.8484365,41.1857417 30.0941281,41.5644166 C30.336454,41.9430915 30.2405333,42.4429423 29.8753616,42.7054903 L16.3539109,52.3591755 L35.524585,41.2917707 C35.9200475,41.0611997 36.4215275,41.1907907 36.6621707,41.5778806 C36.901131,41.9649705 36.7883821,42.4732363 36.408065,42.7240033 L26.8580671,48.9881275 L40.1876765,41.2934537 C40.583139,41.0628827 41.0879847,41.1924737 41.326945,41.5846126 C41.5659053,41.9733855 41.4481079,42.4833343 41.0644252,42.7307353 L32.103414,48.4849106 L44.5579575,41.2951367 C44.9534199,41.0645657 45.4565828,41.1924737 45.6972259,41.5846126 C45.9361862,41.9733855 45.8183889,42.4816513 45.436389,42.7307353 L30.1378814,52.6250894 L49.759551,41.2968197 C50.1566963,41.0662487 50.6548107,41.1958397 50.8971367,41.5829296 C51.136097,41.9700195 51.0233481,42.4782853 50.643031,42.7290523 L26.5652566,58.5458817 L56.4386597,41.2968197 C56.835805,41.0662487 57.3440163,41.1992057 57.5812938,41.5913446 C57.8185713,41.9851665 57.6940426,42.4951153 57.3069943,42.7391503 L42.5335262,51.9805006 L60.470694,41.6233216 C60.8695221,41.3944336 61.372685,41.5240246 61.6116453,41.9144805 C61.8489228,42.3049364 61.7294426,42.8148852 61.3457599,43.0622862 L33.9023475,60.5856771 L63.4105788,43.54699 C63.8077241,43.3181021 64.3142526,43.4460101 64.5515301,43.8415149 C64.7904904,44.2336538 64.6676446,44.7436027 64.2805962,44.9876376 L39.681148,60.4645011 L64.7904904,45.9671433 C65.1893185,45.7348894 65.6941642,45.8678464 65.9331245,46.2616682 C66.170402,46.6554901 66.0458734,47.165439 65.6571422,47.4094739 L43.6744775,61.1309689 L65.1119088,48.7541905 C65.5090541,48.5236196 66.0155826,48.6532105 66.2528601,49.0487154 C66.4901376,49.4391713 66.3689746,49.9508032 65.9819263,50.1948381 L39.2940996,67.0012713 L65.1135917,52.0932616 C65.5107369,51.8626906 66.0172655,51.9922816 66.2545429,52.3861035 C66.4918204,52.7765594 66.3706575,53.2865082 65.9852919,53.5339091 L36.761457,72.0485868 L65.1152745,55.6780505 C65.5141026,55.4457966 66.0223139,55.5787536 66.2595914,55.9742584 C66.4951861,56.3697633 66.3689746,56.8813952 65.9785606,57.1237471 L51.0839296,66.3230225 L65.1152745,58.2227458 C65.5124198,57.9921749 66.0189483,58.1217658 66.2562258,58.5155877 C66.4935032,58.9094096 66.3723403,59.4176754 65.9869747,59.6633934 L40.2146016,75.9531457 L65.1169573,61.5752808 C65.5124198,61.3447099 66.0172655,61.4743009 66.2562258,61.8647567 C66.4951861,62.2552126 66.3773887,62.7634785 65.993706,63.0108794 L37.7677828,81.2057872 L65.1186401,65.4125197 C65.5141026,65.1819488 66.0189483,65.3115397 66.2562258,65.7003126 C66.4951861,66.0890855 66.3807544,66.5973514 65.9987545,66.8464353 L41.6315352,82.7154377 L65.1203229,69.1521446 C65.5174682,68.9215737 66.0223139,69.0511647 66.2595914,69.4433036 C66.4985517,69.8320764 66.3807544,70.3420253 65.9970716,70.5894262 L50.5151368,80.5258554 L65.1220058,72.0923448 C65.519151,71.8634569 66.0239967,71.9930478 66.2612742,72.3835037 C66.5002345,72.7722766 66.3824372,73.2822254 65.9970716,73.5296264 L55.2303956,80.4366564 L65.1236886,74.724556 C65.5208339,74.4956681 66.0273624,74.6235761 66.2646399,75.0190809 C66.5019173,75.4095368 66.3807544,75.9211687 65.993706,76.1652036 L65.2347546,76.6431755 C65.5999264,76.4967545 66.0374593,76.6263455 66.2562258,76.9764094 C66.4985517,77.3601333 66.3925341,77.8633501 66.0189483,78.120849 L52.4436473,87.4076404 L65.1236886,80.0865925 C65.5141026,79.8577045 66.0105342,79.9822465 66.2545429,80.3626044 C66.4968689,80.7429623 66.3958997,81.2444961 66.0273624,81.5036781 L55.5888361,88.819677 L65.1236886,83.3145855 C65.5107369,83.0856976 66.0105342,83.2102396 66.2528601,83.5889145 C66.4968689,83.9675894 66.3975826,84.4691232 66.030728,84.7299881 L59.5653374,89.3043808 L65.1236886,86.0965837 C65.5023228,85.8744278 65.9836091,85.9855058 66.2326663,86.3423017 C66.4834063,86.7007806 66.4177764,87.1905334 66.0845782,87.4699114 L58.7609499,93.6128596 L65.1220058,89.9388716 C65.50064,89.7183987 65.9869747,89.8277937 66.2360319,90.1896386 C66.4834063,90.5514835 66.4127279,91.0429193 66.0727985,91.3206142 L63.8666228,93.1079597 L65.0833009,92.4061489 C65.4400585,92.195774 65.8994681,92.28329 66.1636707,92.6097919 C66.421142,92.9346108 66.4043138,93.4024846 66.1216002,93.7071076 L64.078658,95.9017389 C64.3394949,95.9286669 64.5851865,96.0750879 64.7265433,96.3191228 C64.9604551,96.7213597 64.822464,97.2363575 64.4185874,97.4686115 L60.4218923,99.7760038 C60.0651346,99.9846957 59.605725,99.8988628 59.3415225,99.5723609 C59.0840511,99.247542 59.1008793,98.7796681 59.3835929,98.4750452 L61.0630463,96.6708697 L55.4945982,99.8853988 C55.1159639,100.107555 54.6296292,99.9947937 54.380572,99.6346318 C54.1331976,99.2727869 54.203876,98.7813511 54.5438055,98.5036562 L56.7499812,96.7163107 L51.2589428,99.8853988 C50.8819913,100.105872 50.4007051,99.9964767 50.149965,99.6396808 C49.899225,99.2812019 49.9648549,98.7914491 50.2980531,98.5120712 L57.6233642,92.3691229 L44.6050764,99.8853988 C44.2197108,100.112604 43.7182308,99.9897447 43.4759048,99.6110698 C43.2318961,99.232395 43.3311824,98.7308611 43.6980369,98.4699962 L50.1651104,93.8939205 L39.7888484,99.8853988 C39.4034828,100.112604 38.9036856,99.9897447 38.657994,99.6093868 C38.4156681,99.229029 38.5166372,98.7274951 38.8851746,98.4683132 L49.3237009,91.1539973 L34.2018893,99.8853988 C33.8114753,100.114287 33.311678,99.9897447 33.0693521,99.6060209 C32.8270261,99.222297 32.9330437,98.7190801 33.3066296,98.4615812 L46.8836133,89.1731069 L28.3322166,99.8837158 C28.1992739,99.9611337 28.0545514,99.9964767 27.9115118,99.9964767 L27.9064634,99.9964767 Z" id="Path" fill="#F5EC83"></path>
            <path d="M25.0786921,84.8739496 C24.7970153,84.8739496 24.523772,84.7320823 24.3635368,84.477414 C24.1223405,84.0911952 24.2302885,83.5869183 24.6081064,83.3305635 L26.3926213,82.1297435 L22.4390268,84.4116387 C22.044342,84.6393223 21.5417093,84.5128314 21.3021997,84.1282992 C21.0610035,83.7420804 21.1689514,83.2361169 21.5467693,82.9814487 L26.0266102,79.970966 L20.939562,82.9072407 C20.5533106,83.1332377 20.0540513,83.0101199 19.807795,82.6340204 C19.5632253,82.2545478 19.6610532,81.7519574 20.028751,81.490543 L32.0615766,72.9330142 L20.5937911,79.5527029 C20.2058531,79.782073 19.7082804,79.6572687 19.4620241,79.2794826 C19.2174545,78.8983235 19.316969,78.3974197 19.6846668,78.1360052 L31.8423073,69.5042685 L20.5937911,75.9974663 C20.2109132,76.2251498 19.7116538,76.1037186 19.4653975,75.7276191 C19.2191412,75.3515196 19.311909,74.8506158 19.6745467,74.5858282 L31.5049698,65.9608377 L20.5937911,72.2583963 C20.2024797,72.4877664 19.7032204,72.3629621 19.4603374,71.9801164 C19.2174545,71.5972707 19.3203424,71.0946803 19.6914136,70.8349524 L23.7091022,68.0504668 L20.5937911,69.8466371 C20.2159732,70.069261 19.7285207,69.9562625 19.478891,69.598715 C19.230948,69.2377944 19.2984155,68.7470098 19.6357529,68.4670434 L26.3437074,62.931803 L20.5954778,66.2492368 C20.2294667,66.4651146 19.7521343,66.367295 19.4957579,66.0198667 C19.2410681,65.6758116 19.284922,65.1951463 19.6003325,64.9016875 L23.1575555,61.5893133 L20.5954778,63.0667266 C20.2598271,63.2623658 19.834782,63.2016502 19.5665987,62.9216838 C19.2984155,62.6417173 19.2528749,62.2150215 19.4620241,61.8878318 L20.9294419,59.5637729 C20.5617441,59.6868907 20.1316389,59.5435344 19.9275497,59.1859869 C19.6931002,58.7829026 19.8314086,58.2668199 20.2362135,58.0340767 L23.0276806,56.4217398 C23.3616446,56.2261006 23.7866898,56.2868162 24.0565597,56.5667826 C24.324743,56.8467491 24.3702835,57.2734449 24.1611343,57.6006347 L22.7105834,59.8977088 L28.7404897,56.4183667 C29.1081875,56.2041755 29.5838333,56.3003085 29.8402097,56.6477368 C30.0948994,56.991792 30.0493589,57.4724572 29.7356351,57.7659161 L26.1800987,61.0766037 L34.2492097,56.4183667 C34.6253409,56.1957428 35.1127935,56.3087413 35.3641099,56.6662888 C35.6120529,57.0272094 35.5445854,57.517994 35.207248,57.7979604 L28.4992935,63.3348873 L40.4815185,56.4166801 C40.8728299,56.1889966 41.3720893,56.3121144 41.6149722,56.6949601 C41.8578551,57.0778057 41.7549672,57.5803961 41.3838961,57.840124 L37.3695808,60.6229231 L44.3625854,56.5853346 C44.7488368,56.3610242 45.2447228,56.4807689 45.4909791,56.8551818 C45.7372354,57.2312813 45.6444676,57.7321852 45.2818299,57.9969727 L33.4547801,66.6202767 L46.5552786,59.0578094 C46.94153,58.8284393 47.4407894,58.9532437 47.6870457,59.3310297 C47.9316153,59.7121889 47.8321008,60.2130927 47.464403,60.4745071 L35.3067625,69.1079304 L46.6328662,62.5691959 C47.0174309,62.3398258 47.518377,62.4646301 47.7646333,62.8424162 C48.0092029,63.2218888 47.9113751,63.7244791 47.5436773,63.9858936 L35.5057916,72.5467954 L46.6328662,66.1244325 C47.027551,65.8933759 47.5301838,66.0215533 47.7696933,66.4077721 C48.0108896,66.7939908 47.9029416,67.2999543 47.5251237,67.5546226 L43.0503429,70.5600456 L46.6328662,68.4923415 C47.027551,68.2595983 47.5284971,68.3894623 47.7696933,68.7756811 C48.0108896,69.1618999 47.9029416,69.6661768 47.5251237,69.9225316 L45.7456688,71.1199785 L46.6311796,70.6089554 C47.0123708,70.3846449 47.5015101,70.49933 47.7494531,70.8636236 C47.9973961,71.2279173 47.9231819,71.7254481 47.5757243,71.9986684 L40.5591061,77.5608934 L46.6311796,74.0579397 C47.0056241,73.8403754 47.4863299,73.9432546 47.7376463,74.297429 C47.9906493,74.6499169 47.933302,75.1373284 47.6077714,75.4223545 L43.5209286,79.0028893 L46.6311796,77.2084055 C47.0039374,76.9925278 47.4846432,77.095407 47.7359596,77.4462083 C47.9889627,77.7970097 47.9349887,78.2827346 47.6128314,78.5694472 L46.8487622,79.2457517 C47.1489925,79.1698572 47.4846432,79.2693634 47.6971658,79.518972 C47.960289,79.8326694 47.9636624,80.2863499 47.7039125,80.6017338 L46.860569,81.6220935 C47.0393578,81.6878687 47.1979064,81.8143596 47.3007943,81.9931334 C47.5352438,82.3962176 47.3969355,82.9123003 46.9921306,83.1450435 L44.2023502,84.7556939 C43.8498326,84.9597658 43.3994871,84.8804982 43.1363639,84.5718605 C42.8732408,84.2581631 42.8715541,83.8044826 43.1296172,83.4890987 L43.4231007,83.1349242 L40.60802,84.759067 C40.2403222,84.9783178 39.756243,84.8754386 39.50324,84.5212641 C39.2502369,84.1704628 39.3042109,83.6847379 39.6263681,83.3980252 L40.2689959,82.8296596 L36.9259821,84.759067 C36.554911,84.9783178 36.0725185,84.8754386 35.8195154,84.5195776 C35.5665123,84.1670897 35.6238597,83.6796782 35.9493903,83.3946522 L40.0379198,79.8141174 L31.4712361,84.759067 C31.0883581,84.9816909 30.5992189,84.8670058 30.3529626,84.5043987 C30.1050196,84.1384185 30.1792338,83.6425743 30.5266913,83.369354 L37.5399362,77.8088155 L25.4986772,84.759067 C25.3654289,84.836648 25.2203738,84.8720655 25.0770054,84.8720655 L25.0786921,84.8739496 Z" id="Path" fill="#6FD5D2"></path>
            <path d="M30.3548108,78.1501763 C30.0925464,78.1501763 29.8336661,78.0283795 29.6712314,77.801702 C29.4174272,77.4515362 29.468188,76.9660405 29.7879813,76.676773 L33.784552,73.0770001 L27.3649969,76.7816536 C26.9859826,77.0049478 26.4919104,76.8933007 26.2448742,76.5296018 C25.9961461,76.1642113 26.0672113,75.6685659 26.412385,75.3911398 L31.2752741,71.4733418 L27.3193122,73.7570324 C26.9436819,73.9752517 26.4563778,73.8686795 26.2042656,73.5100555 C25.9538454,73.1514315 26.0164504,72.6608609 26.351472,72.3783599 L29.9216516,69.36558 L27.3193122,70.8677409 C26.9622942,71.0775021 26.5071386,70.992921 26.2431822,70.6732043 C25.9809178,70.3551793 25.9876859,69.8916747 26.2584105,69.5804161 L28.3802139,67.1444795 L27.3193122,67.7568469 C26.9825985,67.9564584 26.5545154,67.8921767 26.2820989,67.6062925 C26.0130664,67.3220999 25.9741497,66.8907362 26.1873453,66.5625614 L26.6848016,65.8013312 C26.5088306,65.7336663 26.3548561,65.6084862 26.2533344,65.4325575 C26.0181425,65.0282597 26.1568888,64.5106231 26.5629755,64.2771792 L28.5291123,63.1421004 C28.867518,62.9458722 29.2956011,63.0084622 29.5663256,63.2926548 C29.8353581,63.5768474 29.8742748,64.0082112 29.6610792,64.336386 L29.5409452,64.5207729 L31.9300891,63.1421004 C32.285415,62.9323392 32.7422626,63.0169204 33.006219,63.336637 C33.2684834,63.6546621 33.2617153,64.1181667 32.9909908,64.4294252 L30.8674953,66.8653618 L37.320891,63.1404088 C37.6931372,62.9188062 38.1821334,63.0253785 38.4359376,63.3873857 C38.6863578,63.7460097 38.6237527,64.2365803 38.2887311,64.5190812 L34.7168596,67.5335527 L39.8809297,64.5529137 C40.2616361,64.3296195 40.7540163,64.4412666 41.0010524,64.8049655 C41.2497805,65.170356 41.1787153,65.6660014 40.8335416,65.9434275 L35.9706525,69.8612255 L39.9063101,67.5893763 C40.2785563,67.3728486 40.7590923,67.4726543 41.0128966,67.8245118 C41.2667008,68.1746777 41.21594,68.6601734 40.8961466,68.9494409 L36.8961919,72.5509054 L39.9063101,70.8153006 C40.25656,70.607231 40.7100235,70.6867373 40.975672,70.9996875 C41.2396284,71.3126377 41.2430124,71.7676842 40.9824401,72.0857092 L39.2091945,74.2357616 L39.9063101,73.834847 C40.3107049,73.5980198 40.8284655,73.7384245 41.0619654,74.1444139 C41.2971573,74.5487117 41.158411,75.0663483 40.7523242,75.2997922 L36.0078771,78.0368376 C35.6559352,78.2432155 35.2007796,78.1637093 34.9385153,77.8524507 C34.6745589,77.5395005 34.6711748,77.0844541 34.9317471,76.766429 L36.7033007,74.6163767 L30.7761258,78.0368376 C30.6441476,78.1146522 30.4986332,78.1501763 30.3531188,78.1501763 L30.3548108,78.1501763 Z" id="Path" fill="#C384F8"></path>
            <g id="Group" transform="translate(0.000000, -0.000000)" fill="#262626">
                <path d="M57.0798875,40.6320692 C45.1224681,40.6236169 33.1684156,40.6591165 21.2109963,40.5999505 C22.1688692,31.0522551 17.7347086,17.9546021 27.269669,11.7557 C35.7154486,6.6116424 46.4439624,14.5753806 45.7049357,24.0165773 C45.4759889,25.6427959 45.7806901,27.2487291 47.2065573,28.25286 C45.3598321,29.8232936 44.5989207,34.6343313 47.6004804,35.4271552 C51.4605906,35.8599119 57.9283373,36.2318122 56.5647572,30.4436909 C59.8474501,-12.767745 1.80102228,-10.5126768 10.3511747,40.6286883 C1.05021149,39.4690354 -0.742643871,48.5789028 0.238797138,55.9154818 C0.257314893,68.0546462 0.208495357,80.1955011 0.238797138,92.3329751 C0.365054557,97.1254178 4.1292091,99.9265034 8.65090815,99.9501698 C24.8068076,100.033002 40.9643904,99.9501698 57.1202899,99.9501698 C68.0322978,100.868087 66.9094485,88.8945876 66.6838685,81.3450112 C64.5829451,70.7678281 73.4226479,38.5426656 57.0832543,40.6337596 L57.0798875,40.6320692 Z M13.0716013,19.3018955 C21.8338662,-12.7170314 60.5191396,2.92982926 54.1204136,33.2498479 C54.0126739,34.4568334 53.5699312,34.0815522 52.4336144,34.0815522 C47.9321166,35.2395146 46.5752702,30.9947796 49.5919808,28.2427172 C50.3781436,27.196325 48.0533237,26.5607135 48.1475959,25.3199188 C49.5330606,15.3496094 40.3112187,6.58459511 30.4412554,9.1084459 C15.539513,12.2476227 19.0023331,29.2012058 18.7700195,40.601641 C16.7785191,40.5965696 14.7853353,40.6117837 12.793835,40.620236 C12.9604947,33.5220113 12.4217964,26.3680015 13.0716013,19.3018955 Z M64.2058562,92.2450714 C64.1048503,95.4231287 62.0998825,97.9689554 58.8121393,98.1092632 C41.9929675,98.0889778 25.1653786,98.1396914 8.35125721,98.1092632 C3.94739841,97.8844326 2.71175913,94.0555498 2.71175913,90.3838794 C3.28075924,75.4977239 1.58217608,60.1399313 3.34977996,45.4617019 C7.96911809,38.8739949 40.0974228,44.0163621 49.9135163,42.4712853 C55.3880381,42.5186181 64.1789213,40.9735413 64.2075397,48.9203749 C64.2277409,63.3551786 64.348948,77.8119582 64.2075397,92.2433809 L64.2058562,92.2450714 Z" id="Shape"></path>
                <path d="M48.1509628,62.6756153 C57.0529526,63.2943221 57.1152396,60.2565727 48.1509628,60.9986829 C48.5600368,57.8966962 46.11906,55.6788179 43.0939322,55.9712668 C42.7420949,53.966386 43.8228584,50.8136856 42.6309884,49.3734171 C39.2169877,49.0995632 41.110849,53.8294591 40.6546389,55.9357672 C38.6665054,55.9374577 36.6766885,55.9814095 34.6952887,55.9881714 C35.6952474,46.5435938 31.3014892,46.7058775 32.2189598,55.9847905 C30.2375601,55.9780286 28.2561603,55.9780286 26.2747605,55.9847905 C27.2562015,46.4996419 22.907896,46.7718053 23.8051654,56.0050759 C21.0628542,56.0118378 18.4434336,58.0403849 18.7262502,61.0020638 C9.89664803,60.3765951 9.95388472,63.4397014 18.7649692,62.6739248 L18.7649692,69.4864624 C10.0027043,68.8745174 9.91179892,71.8361963 18.7649692,71.0923956 C18.7531852,73.3880349 18.8087384,75.512938 18.6925816,77.8423864 C9.89159773,77.1628231 9.85961252,80.4254031 18.6976319,79.6393411 C18.5797916,82.6703287 20.7430021,84.9727297 23.8169494,84.5957581 C24.3455471,86.4772356 22.5594255,90.9434203 24.8943461,91.3271538 C27.5811039,90.7777556 25.7697308,86.634448 26.2663433,84.5856153 L32.239161,84.5856153 C32.7694422,86.3352373 30.8873649,91.6043886 33.5455044,90.9045398 C35.8703244,90.2909043 34.202043,86.4924497 34.6767709,84.5856153 L40.6495886,84.5856153 C41.1781863,86.4637119 39.3937481,90.9400394 41.7236184,91.3170111 C44.4120597,90.7709938 42.6006866,86.6327575 43.0972991,84.5856153 C45.970918,84.6380195 48.4724983,82.3795703 48.1560131,79.4026773 C56.7970709,79.8895286 56.9098608,77.433296 48.1627468,78.0790502 C48.1358119,75.6464841 48.1560131,73.2139179 48.1492793,70.7813517 C56.6371448,71.0923956 56.6960649,69.2802268 48.1492793,69.7958159 C48.1492793,67.4224157 48.1492793,65.0490155 48.1492793,62.6756153 L48.1509628,62.6756153 Z M45.698202,79.1812275 C45.698202,80.7212329 45.7790067,82.8985402 43.7370034,83.0388481 C36.8416648,82.0093604 27.1770802,85.251655 21.5072803,81.5022236 C20.9113453,74.1081691 21.0645377,66.2272633 21.4348928,58.8213756 C23.5880026,56.0659323 29.3032551,58.173931 32.6263504,57.5383195 C52.2635878,56.02029 44.0602224,61.1778713 45.698202,79.1795371 L45.698202,79.1812275 Z" id="Shape"></path>
                <path d="M41.4105,64.988159 C40.3347868,61.206609 34.2929484,63.7710307 31.2863384,63.0542774 C23.0728723,61.514272 25.9431244,70.5937111 25.5037485,75.6887455 C26.8942636,79.431415 33.1061286,76.7638755 36.3029665,77.5245807 C43.9827845,78.6419721 40.849917,69.6893172 41.4105,64.9864686 L41.4105,64.988159 Z M38.489745,76.5796158 C25.0677396,77.318345 27.6854767,76.2398341 28.2931958,64.0009328 C41.9660326,63.4430823 39.1344996,63.7659594 38.6513545,76.5525685 L38.489745,76.5796158 Z" id="Shape"></path>
            </g>
        </g>
    </g>
</svg>