<?xml version="1.0" encoding="UTF-8"?>
<svg width="60px" height="60px" viewBox="0 0 60 60" version="1.1" xmlns="http://www.w3.org/2000/svg" xmlns:xlink="http://www.w3.org/1999/xlink">
    <title>role-skills-1</title>
    <g id="Page-1" stroke="none" stroke-width="1" fill="none" fill-rule="evenodd">
        <g id="role-skills-1" transform="translate(0.000000, 0.000000)" fill-rule="nonzero">
            <path d="M3.85705309,50.2285192 C3.65310285,50.2285192 3.46912513,50.1060418 3.39129359,49.9175263 C3.31346206,49.7290108 3.35718975,49.5121554 3.50199499,49.3685334 L4.54604685,48.333534 L1.67138381,49.9921482 C1.44324669,50.1228559 1.15293113,50.0557727 1.00526456,49.8382282 C0.857597985,49.6206837 0.902425089,49.3261097 1.10811884,49.1623382 L3.98077022,46.89922 L1.23485346,48.4834028 C1.00347896,48.6235283 0.70271238,48.5555389 0.554106704,48.3295175 C0.405501028,48.1034961 0.462295003,47.800416 0.682652614,47.6435344 L4.81158606,44.5677053 L1.23485346,46.6377041 C1.00217866,46.77187 0.705142777,46.6995285 0.560215948,46.4733996 C0.41528912,46.2472707 0.473625277,45.9471699 0.692710918,45.7918008 L4.81661521,42.8748929 L1.23485346,44.9398626 C1.00205223,45.071941 0.706590044,44.9985383 0.562665333,44.7728687 C0.418740622,44.547199 0.476786755,44.2483404 0.694722578,44.0929534 L6.56273663,39.9861483 L1.23183597,43.0619774 C1.0004478,43.1715986 0.723636884,43.0898774 0.588885957,42.8721631 C0.454135031,42.6544489 0.504464612,42.3702491 0.705786712,42.2120507 L4.50380198,39.6874167 L1.23485346,41.570331 C1.00126171,41.6983848 0.708338186,41.6220772 0.566912752,41.3963302 C0.425487319,41.1705831 0.484625688,40.8737167 0.70176339,40.7193986 L8.72326015,35.2718216 L1.23485346,39.5968919 C1.00084704,39.7265031 0.70632835,39.6502485 0.564624071,39.4233609 C0.422919792,39.1964733 0.483624871,38.898361 0.702769221,38.7449537 L10.4200959,32.2161091 L1.23485346,37.5228698 C0.999946676,37.6564881 0.701437075,37.5805681 0.558910541,37.350957 C0.416384007,37.121346 0.4808032,36.820145 0.704780881,36.6689199 L12.5735786,28.7470003 L1.23485346,35.2899265 C0.999335559,35.4143629 0.707641109,35.3335784 0.569693352,35.1057111 C0.431745595,34.8778438 0.495396787,34.5819379 0.714839185,34.4309474 L6.92181806,30.4921159 L1.23485346,33.7741402 C1.00003514,33.9001759 0.707668674,33.8211494 0.568322183,33.5939773 C0.428975691,33.3668051 0.491037748,33.0703736 0.709810033,32.9181786 L13.5934905,24.5526879 L1.23485346,31.6880482 C0.999005387,31.8158619 0.704355623,31.7360666 0.565235358,31.5067061 C0.426115094,31.2773457 0.491502162,30.9791674 0.713833354,30.8290691 L12.0475293,23.6233007 L1.23485346,29.8664895 C0.998042845,30.0018239 0.696518131,29.9237234 0.555185617,29.6904429 C0.413853104,29.4571624 0.484234856,29.1537431 0.713833354,29.0065045 L15.0288104,19.8826178 L1.23485346,27.8467822 C0.997097428,27.9903802 0.687948943,27.91405 0.544350973,27.6762939 C0.400753003,27.4385379 0.477083173,27.1293894 0.714839185,26.9857914 L15.6866234,17.5169049 L1.23485346,25.8612732 C0.999005387,25.9890869 0.704355623,25.9092916 0.565235358,25.6799311 C0.426115094,25.4505707 0.491502162,25.1523924 0.713833354,25.0022941 L17.046506,14.6150844 L1.23485346,23.7440003 C0.996482975,23.8798348 0.693229982,23.7995574 0.553287167,23.5635754 C0.413344352,23.3275934 0.488357276,23.0229954 0.721879997,22.8789863 L3.81480821,20.9890311 L1.23485346,22.4736367 C0.998713394,22.6080541 0.698504552,22.5305984 0.556872658,22.2987136 C0.415240765,22.0668287 0.483406576,21.7643752 0.710815863,21.6156634 L17.005267,11.1047366 L1.23485346,20.2064951 C0.999593489,20.33419 0.705536135,20.2552276 0.565888715,20.0268598 C0.426241294,19.7984921 0.489947034,19.5007566 0.710815863,19.3495277 L13.9022804,10.8090225 L1.23485346,18.1224147 C1.00147626,18.2374109 0.718917436,18.1554254 0.583335719,17.9333744 C0.447754003,17.7113235 0.503913721,17.4225204 0.712827524,17.2674589 L8.70414937,12.1648818 L1.23485346,16.4708413 C1.00084704,16.6004526 0.70632835,16.5241979 0.564624071,16.2973103 C0.422919792,16.0704227 0.483624871,15.7723104 0.702769221,15.6189031 L11.7045412,8.20895113 L1.23485346,14.249968 C0.999593489,14.3776629 0.705536135,14.2987004 0.565888715,14.0703327 C0.426241294,13.8419649 0.489947034,13.5442295 0.710815863,13.3930006 L4.51184862,10.9357571 L1.23485346,12.8297356 C1.00003514,12.9557713 0.707668674,12.8767448 0.568322183,12.6495727 C0.428975691,12.4224005 0.491037748,12.125969 0.709810033,11.973774 L2.92263673,10.5364425 L1.23485346,11.5100862 C1.00052787,11.6436294 0.702576219,11.5685535 0.559510105,11.3399177 C0.416443991,11.1112818 0.479204069,10.810495 0.70176339,10.6581479 L4.62450162,8.00175009 L1.23485346,9.96110754 C1.00120536,10.0970725 0.701871183,10.0240089 0.557140869,9.79568665 C0.412410556,9.56736444 0.474066584,9.26547411 0.696734239,9.11218676 L3.69310275,7.03615299 L1.23485346,8.45437373 C1.00579471,8.5832831 0.716102183,8.51406473 0.570060833,8.29552993 C0.424019483,8.07699513 0.470891378,7.78285916 0.677623463,7.6205404 L4.40724227,4.75593566 L1.23485346,6.58654684 C1.00625706,6.71632835 0.716276012,6.64816965 0.569430478,6.43014226 C0.422584943,6.21211487 0.468418797,5.91777854 0.674605972,5.75472517 L2.19944473,4.56683956 L1.23485346,5.12306373 C1.0181159,5.24678312 0.743435884,5.19284759 0.589573783,4.99635812 C0.435711682,4.79986865 0.449215476,4.5202693 0.621296965,4.33952191 L2.18737477,2.7100768 L1.23485346,3.25825432 C1.04109476,3.36933449 0.797291472,3.33932388 0.636255129,3.18457075 C0.475218785,3.02981762 0.435533947,2.78740105 0.538818879,2.58937716 L1.01759411,1.67708907 C0.794122676,1.66811876 0.603425286,1.51265018 0.549620405,1.29556728 C0.495815525,1.07848439 0.591832533,0.851952472 0.785247307,0.739655216 L1.9530163,0.0677605662 C2.14682332,-0.0441987919 2.39129699,-0.0146046162 2.55279157,0.140364926 C2.71428614,0.295334468 2.75393227,0.538380506 2.65005671,0.736637725 L2.23766628,1.52118537 L4.75525956,0.0677605662 C4.97207544,-0.0574765916 5.24799419,-0.00414335036 5.40252086,0.192871829 C5.55704752,0.389887009 5.54310839,0.670567058 5.36982188,0.851302381 L3.80273825,2.48175332 L7.9849807,0.0677605662 C8.21375178,-0.0647180615 8.50603658,0.00253753869 8.65389848,0.221680537 C8.80176038,0.440823534 8.7547162,0.737033867 8.54623401,0.899582236 L7.02038943,2.08545618 L10.5206789,0.0677605662 C10.7497377,-0.0611488044 11.0394302,0.00806956572 11.1854715,0.226604366 C11.3315129,0.445139167 11.284641,0.739275137 11.0779089,0.901593897 L7.34929594,3.76318114 L13.756435,0.0677605662 C13.9893652,-0.0623965542 14.2833987,0.0120150874 14.4263755,0.23730377 C14.5693523,0.462592452 14.5114966,0.760326331 14.2945543,0.915675521 L11.3022091,2.98466848 L16.3625414,0.0677605662 C16.5964233,-0.0637683979 16.8923717,0.0114834489 17.0350203,0.238754145 C17.177669,0.466024841 17.1167685,0.765256285 16.8966373,0.918693012 L12.9678641,3.57509087 L19.0460967,0.0677605662 C19.2812331,-0.06173568 19.5766224,0.0162640558 19.7171746,0.244963625 C19.8577267,0.473663194 19.7938892,0.772433357 19.5721459,0.923722164 L17.3482551,2.36407117 L21.3343606,0.0677605662 C21.5696206,-0.059934314 21.863678,0.0190281206 22.0033254,0.247395879 C22.1429728,0.475763638 22.0792671,0.773499044 21.8583982,0.924727994 L18.0623946,3.3769423 L23.7986449,0.0677605662 C24.0326513,-0.0618506508 24.32717,0.0144040416 24.4688743,0.241291611 C24.6105786,0.468179181 24.5498735,0.766291457 24.3307291,0.919698843 L13.3249338,8.32864494 L27.6409167,0.0677605662 C27.8766442,-0.0618832015 28.1726532,0.0169433248 28.3126862,0.246651221 C28.4527191,0.476359116 28.3871792,0.775590638 28.1639485,0.925733825 L20.1766499,6.02529352 L30.5004923,0.0677605662 C30.7357523,-0.059934314 31.0298096,0.0190281206 31.169457,0.247395879 C31.3091045,0.475763638 31.2453987,0.773499044 31.0245299,0.924727994 L17.8310536,9.46322154 L34.1114231,0.0677605662 C34.3466831,-0.059934314 34.6407404,0.0190281206 34.7803879,0.247395879 C34.9200353,0.475763638 34.8563295,0.773499044 34.6354607,0.924727994 L18.3540854,11.4336431 L36.8352116,0.758765992 C37.0728737,0.627368425 37.3719268,0.708382297 37.5107668,0.941774783 C37.6496068,1.17516727 37.5780808,1.4766304 37.3491909,1.62277423 L34.2462044,3.52178187 L36.880474,2.00096643 C37.1172846,1.86563201 37.4188093,1.9437325 37.5601418,2.177013 C37.7014743,2.4102935 37.6310926,2.71371276 37.4014941,2.86095135 L21.0748564,13.2441377 L36.7959842,4.16853076 C37.0323251,4.03856279 37.3291132,4.11817686 37.468676,4.34898176 C37.6082387,4.57978667 37.5408782,4.87959358 37.3159985,5.02851568 L22.3442143,14.4974023 L34.4021081,7.53605065 C34.6389187,7.40071623 34.9404434,7.47881672 35.0817759,7.71209722 C35.2231084,7.94537772 35.1527267,8.24879699 34.9231282,8.39603557 L20.6161978,17.5148932 L31.9679987,10.9609029 C32.2042322,10.8288561 32.5026015,10.9074325 32.6431534,11.1387067 C32.7837053,11.369981 32.7160336,11.6710109 32.4900247,11.819882 L21.1432529,19.0326911 L29.7712653,14.0488019 C30.0064017,13.9193057 30.3017911,13.9973054 30.4423432,14.226005 C30.5828953,14.4547046 30.5190579,14.7534747 30.2973146,14.9047635 L17.4226865,23.2642193 L27.2576954,17.5863072 C27.4935434,17.4584934 27.7881932,17.5382888 27.9273135,17.7676492 C28.0664337,17.9970096 28.0010467,18.2951879 27.7787155,18.4452862 L21.5556433,22.3971936 L25.4301017,20.1602269 C25.6650085,20.0266086 25.9635181,20.1025287 26.1060446,20.3321397 C26.2485711,20.5617508 26.1841519,20.8629517 25.9601743,21.0141769 L14.100429,28.9350906 L22.7374939,23.9481839 C22.9715003,23.8185727 23.266019,23.8948274 23.4077233,24.1217149 C23.5494276,24.3486025 23.4887225,24.6467148 23.2695782,24.8001222 L13.5532573,31.3279609 L20.2349881,27.4706017 C20.4685798,27.3425479 20.7615034,27.4188555 20.9029288,27.6446025 C21.0443542,27.8703495 20.9852159,28.167216 20.7680782,28.3215341 L12.7445697,33.7630761 L17.8592169,30.8099583 C18.0937806,30.6804656 18.3886798,30.7576065 18.5297911,30.9853697 C18.6709023,31.2131329 18.6086714,31.5115347 18.3882836,31.6639082 L14.5852392,34.190554 L16.0617981,33.3396215 C16.2939608,33.2121071 16.5852327,33.2865223 16.7277817,33.5097693 C16.8703306,33.7330164 16.8152882,34.0285621 16.601929,34.1855248 L10.7349208,38.2893125 L13.7986799,36.5220687 C14.0313547,36.3879028 14.3283906,36.4602443 14.4733174,36.6863732 C14.6182443,36.9125021 14.5599081,37.2126029 14.3408225,37.367972 L10.2169182,40.2848799 L11.7558385,39.3957259 C11.9865921,39.2614585 12.2820452,39.3308939 12.4288373,39.5538895 C12.5756294,39.7768851 12.5225979,40.0757186 12.3080394,40.2345884 L8.17608846,43.3184641 L9.52490691,42.5389456 C9.75304404,42.408238 10.0433596,42.4753211 10.1910262,42.6928656 C10.3386927,42.9104102 10.2938656,43.2049841 10.0881719,43.3687556 L7.21753217,45.6318738 L7.40361078,45.5252558 C7.62199967,45.4038855 7.89637559,45.4612437 8.04785564,45.6599351 C8.1993357,45.8586264 8.18198219,46.1383959 8.00710897,46.3168443 L6.07088561,48.2369743 C6.11932296,48.2759282 6.15993774,48.3237103 6.19057942,48.3777906 C6.32944905,48.618325 6.24704078,48.9258925 6.00651247,49.0647727 L4.10851067,50.1581102 C4.03254648,50.2037614 3.94567815,50.2285192 3.85705309,50.2285192 Z" id="Path" fill="#F3F6FB"></path>
            <path d="M6.773961,54.2518396 C6.55749102,54.2518396 6.36530761,54.1133216 6.29685379,53.9079602 C6.22839997,53.7025987 6.29903592,53.4764743 6.47221191,53.3465923 L11.9117422,49.222688 L5.25817472,53.0619424 C5.02361106,53.1914351 4.72871181,53.1142941 4.58760056,52.8865309 C4.44648931,52.6587677 4.50872021,52.360366 4.72910797,52.2079924 L5.81741637,51.4878179 L5.25817472,51.8096836 C5.0233676,51.9457715 4.72293768,51.8710113 4.57929485,51.6407483 C4.43565203,51.4104853 4.50061462,51.1077857 4.72609048,50.9567395 L8.74237093,48.2601084 L5.25817472,50.2717691 C5.02244725,50.4014128 4.72643819,50.3225863 4.58640524,50.0928784 C4.4463723,49.8631705 4.5119122,49.563939 4.73514295,49.4137958 L5.13747508,49.1552974 C4.90056825,49.2143134 4.65549661,49.0946536 4.55633914,48.8715493 C4.45718167,48.648445 4.53258528,48.3863517 4.73514295,48.2500501 L9.66371149,44.9992066 L5.25817472,47.5359106 C5.0237329,47.6673337 4.72739066,47.5911968 4.58533228,47.3630424 C4.4432739,47.1348881 4.50571151,46.83536 4.72709631,46.6829665 L12.9336658,41.1891213 L5.25817472,45.6208097 C5.02326793,45.754428 4.72475833,45.678508 4.5822318,45.4488969 C4.43970527,45.2192858 4.50412446,44.9180849 4.72810214,44.7668597 L14.2744377,38.417053 L5.25817472,43.6202132 C5.02171753,43.7483027 4.72633358,43.6677084 4.58769746,43.4372764 C4.44906135,43.2068443 4.51623523,42.9081224 4.7401721,42.7592224 L5.3507111,42.3760011 L5.25817472,42.4293101 C5.02125194,42.5742968 4.71165311,42.499768 4.56666637,42.2628452 C4.42167964,42.0259224 4.49620852,41.7163236 4.73313129,41.5713368 L14.0873532,35.5041684 L5.25817472,40.6027222 C5.02265682,40.7271586 4.73096237,40.6463741 4.59301461,40.4185068 C4.45506685,40.1906395 4.51871805,39.8947336 4.73816044,39.7437432 L11.5355617,35.4317486 L5.25817472,39.0527377 C5.02207168,39.1772641 4.72981346,39.0956412 4.59240065,38.8667981 C4.45498784,38.637955 4.52029736,38.3416244 4.74117793,38.191747 L8.06041797,36.122754 L5.25817472,37.7421408 C5.02203465,37.8765583 4.72182581,37.7991026 4.58019392,37.5672177 C4.43856202,37.3353329 4.50672783,37.0328793 4.73413712,36.8841676 L18.0965929,28.2621901 L5.25817472,35.6741537 C5.02146693,35.7989029 4.72852466,35.716469 4.59161115,35.4865829 C4.45469763,35.2566968 4.52175558,34.9598572 4.74419543,34.8111513 L5.39295598,34.4088192 L5.25817472,34.4862681 C5.0222011,34.6123847 4.72879395,34.5316597 4.59054435,34.3025834 C4.45229475,34.073507 4.51761044,33.7762897 4.73916627,33.6262832 L15.9813317,26.5442319 L5.25817472,32.7361234 C5.02265682,32.8605597 4.73096237,32.7797752 4.59301461,32.5519079 C4.45506685,32.3240406 4.51871805,32.0281347 4.73816044,31.8771443 L19.4604988,22.5400215 L5.25817472,30.7455852 C5.01980423,30.8814197 4.71655124,30.8011422 4.57660843,30.5651602 C4.43666561,30.3291782 4.51167853,30.0245802 4.74520126,29.8805711 L6.4289612,28.8516067 L5.25817472,29.5275247 C5.01958543,29.6697339 4.71088725,29.5916024 4.56867804,29.3530131 C4.42646882,29.1144238 4.50460031,28.8057256 4.74318959,28.6635164 L12.2698178,24.0065221 L5.25817472,28.0580066 C5.02062426,28.1949824 4.71713054,28.1164132 4.575888,27.8813747 C4.43464545,27.6463361 4.50772205,27.3414732 4.7401721,27.19601 L17.9014618,18.9290906 L5.25817472,26.2273954 C5.02108255,26.3559578 4.72478593,26.2746074 4.58657981,26.0430042 C4.44837369,25.811401 4.51746735,25.5120089 4.74318959,25.364393 L10.0227929,22.1065086 L5.25817472,24.8564487 C5.02183389,24.9864166 4.7250457,24.9068026 4.58548297,24.6759977 C4.44592024,24.4451928 4.51328076,24.1453858 4.73816044,23.9964638 L15.1354284,17.4223568 L5.25817472,23.1223972 C5.02291475,23.2500921 4.72885739,23.1711297 4.58920997,22.9427619 C4.44956255,22.7143941 4.51326829,22.4166587 4.73413712,22.2654298 L15.8395096,15.0968771 L5.25817472,21.2052846 C5.0241683,21.3348958 4.72964961,21.2586412 4.58794533,21.0317536 C4.44624105,20.804866 4.50694613,20.5067537 4.72609048,20.3533464 L16.7608502,12.2503773 L5.25817472,18.8908691 C5.02303833,19.0203653 4.72764897,18.9423656 4.58709682,18.713666 C4.44654468,18.4849664 4.51038215,18.1861963 4.73212546,18.0349075 L10.8676904,14.0256678 L5.25817472,17.261424 C5.02498179,17.3881053 4.73348722,17.3117914 4.59228621,17.087093 C4.45108521,16.8623946 4.5087778,16.5666507 4.72407882,16.4114973 L11.6401681,11.6981765 L5.25817472,15.3815271 C5.02348524,15.5092337 4.72990264,15.4311325 4.58969226,15.203692 C4.44948188,14.9762515 4.51159363,14.6788752 4.73111963,14.5265713 L6.07692059,13.6414407 L5.25817472,14.1131751 C5.02812177,14.244982 4.7352559,14.1755493 4.5888597,13.9544937 C4.4424635,13.7334381 4.49264263,13.4366979 4.70396221,13.2763243 L10.2360289,9.11721591 L5.25817472,11.9928848 C5.02654481,12.1280108 4.7296361,12.0576264 4.58331107,11.8329033 C4.43698604,11.6081803 4.49264263,11.3081766 4.70999719,11.1510048 L6.72869864,9.67947505 L5.25817472,10.5283958 C5.03241429,10.6577844 4.74523556,10.593594 4.59605008,10.3803972 C4.4468646,10.1672005 4.48494354,9.87540939 4.68384561,9.7076383 L6.90270728,7.84986971 L5.25817472,8.7983677 C5.03302948,8.92884336 4.74553451,8.866022 4.59533254,8.65352813 C4.44512839,8.44042933 4.4826798,8.14787762 4.68183395,7.97962182 L5.08416607,7.63462202 C4.90146242,7.66366623 4.71756386,7.5900583 4.60535859,7.44297273 C4.49315331,7.29588716 4.4707594,7.09907425 4.54705268,6.9305408 L5.12540511,5.70041033 C4.88738579,5.73187051 4.66032166,5.59070016 4.58322492,5.36332594 C4.50612817,5.13595173 4.6005017,4.88579013 4.80856857,4.76599397 L5.98237254,4.09108182 C6.17243873,3.98359134 6.41015082,4.01102904 6.57073146,4.15899263 C6.73131209,4.30695621 6.77806687,4.54163441 6.68645376,4.73984238 L6.13928207,5.90157639 L9.28451347,4.09108182 C9.50971038,3.96275434 9.79555413,4.02659725 9.94475088,4.23854517 C10.0939476,4.45049309 10.0576253,4.74111872 9.86085424,4.9098277 L9.59229754,5.13815118 L11.4027921,4.09108182 C11.6285525,3.96169326 11.9157313,4.02588367 12.0649167,4.23908044 C12.2141022,4.45227721 12.1760233,4.74406827 11.9771212,4.91183936 L9.76228286,6.76759629 L14.4021781,4.09108182 C14.633808,3.95595582 14.9307167,4.02634023 15.0770418,4.25106325 C15.2233668,4.47578628 15.1676308,4.77579002 14.9503556,4.9329618 L12.9306484,6.40449155 L16.939888,4.09108182 C17.1697437,3.96208441 17.4601992,4.03243724 17.6055517,4.25231591 C17.7509041,4.47219459 17.7018347,4.76699298 17.4930947,4.92793265 L11.9610279,9.08603517 L20.6111686,4.09108182 C20.8458581,3.96337521 21.1394407,4.04147642 21.2796511,4.26891692 C21.4198615,4.49635741 21.3577497,4.79373373 21.1382237,4.94603759 L19.7934286,5.83016244 L22.8109195,4.09108182 C23.0441125,3.96440052 23.335607,4.04071439 23.476808,4.26541279 C23.618009,4.49011118 23.5603165,4.78585509 23.3450154,4.94100844 L16.4269145,9.65634096 L26.0657864,4.09108182 C26.3009228,3.96158558 26.5963122,4.03958531 26.7368643,4.26828488 C26.8774165,4.49698445 26.813579,4.79575462 26.5918357,4.94704342 L20.4663291,8.95024807 L28.8861346,4.09108182 C29.1204602,3.95753864 29.4184119,4.03261452 29.561478,4.26125036 C29.7045441,4.48988621 29.641784,4.79067309 29.4192247,4.9430201 L17.3834592,13.0429716 L32.8953743,4.09108182 C33.1306342,3.96338694 33.4246916,4.04234938 33.564339,4.27071714 C33.7039864,4.4990849 33.6402807,4.7968203 33.4194119,4.94804925 L22.3140394,12.1145902 L36.216626,4.09108182 C36.4529668,3.96111386 36.749755,4.04072793 36.8893177,4.27153283 C37.0288804,4.50233774 36.9615199,4.80214465 36.7366402,4.95106674 L26.3373606,11.5251737 L39.2200353,4.09108182 C39.4576199,3.95723496 39.75859,4.03711814 39.8985281,4.27116677 C40.0384663,4.5052154 39.9663827,4.80814813 39.7360262,4.95408423 L34.4886095,8.18984036 L40.7619732,4.56885122 C40.915954,4.4761393 41.1076994,4.47261775 41.2649807,4.55961312 C41.4222621,4.64660849 41.5211845,4.81090411 41.524485,4.99061141 C41.5277854,5.17031871 41.4349625,5.33813588 41.2809816,5.4308478 L28.1106395,13.7038021 L40.9068127,6.31597848 C41.1439049,6.18741608 41.4402015,6.26876644 41.5784076,6.50036966 C41.7166138,6.73197289 41.6475201,7.03136499 41.4217978,7.17898089 L33.8780705,11.8389927 L40.9068127,7.78147325 C41.1440235,7.65469302 41.4389985,7.73699323 41.5763094,7.96826777 C41.7136202,8.1995423 41.6446573,8.49791741 41.4197862,8.64548149 L39.7561428,9.66237594 L40.0045829,9.52256552 C40.2413935,9.3872311 40.5429183,9.46533159 40.6842508,9.6986121 C40.8255833,9.9318926 40.7552015,10.2353119 40.525603,10.3825504 L25.7972297,19.7176616 L38.0683596,12.631587 C38.3047004,12.5016191 38.6014886,12.5812331 38.7410513,12.812038 C38.8806141,13.0428429 38.8132535,13.3426499 38.5883739,13.4915719 L27.3532492,20.5706057 L36.370518,15.3654338 C36.6076102,15.2368714 36.9039068,15.3182218 37.0421129,15.549825 C37.180319,15.7814282 37.1112254,16.0808203 36.8855031,16.2284362 L35.3767577,17.1568176 C35.6132839,17.1111337 35.848987,17.2395902 35.9387925,17.4631223 C36.0285979,17.6866545 35.9472808,17.9424759 35.7448916,18.073129 L22.3844475,26.692089 L33.2142225,20.4398478 C33.4517729,20.302872 33.7552667,20.3814411 33.8965092,20.6164797 C34.0377518,20.8515182 33.9646751,21.1563811 33.7322251,21.3018443 L30.4129851,23.3708373 L31.9358122,22.4917416 C32.17133,22.3673053 32.4630245,22.4480898 32.6009723,22.675957 C32.73892,22.9038243 32.6752688,23.1997302 32.4558264,23.3507207 L25.6554077,27.6647269 L30.4331017,24.9067402 C30.6691734,24.7694577 30.9716608,24.8456536 31.1145257,25.0783895 C31.2573906,25.3111254 31.188419,25.6153414 30.9591509,25.7637076 L21.604929,31.8318819 L28.6668636,27.7552516 C28.9033208,27.6271622 29.1987048,27.7077564 29.3373409,27.9381885 C29.475977,28.1686205 29.4088031,28.4673425 29.1848662,28.6162424 L27.6972432,29.5496529 C27.9291335,29.5192628 28.1513691,29.6527366 28.2334875,29.8717188 C28.3156058,30.0907011 28.2359315,30.337391 28.0412372,30.4669702 L18.4858492,36.8218061 L25.5668946,32.7331059 C25.8013364,32.6016828 26.0976787,32.6778197 26.239737,32.905974 C26.3817954,33.1341284 26.3193578,33.4336565 26.097973,33.58605 L17.8964326,39.0758718 L23.709126,35.7204219 C23.9446977,35.5840049 24.2460503,35.6597889 24.3890673,35.8914131 C24.5316981,36.1229656 24.4644164,36.4259559 24.2371869,36.5753777 L19.3086184,39.8272271 L22.1862989,38.1666012 C22.4215589,38.0389063 22.7156162,38.1178688 22.8552637,38.3462365 C22.9949111,38.5746043 22.9312053,38.8723397 22.7103365,39.0235687 L21.320279,39.9197635 C21.5390084,39.9257177 21.7287876,40.0724153 21.7896575,40.2825887 C21.8505274,40.4927621 21.7685177,40.7181744 21.586824,40.8400982 L17.5755727,43.5337118 L19.5610818,42.3880711 C19.7956454,42.2585784 20.0905447,42.3357193 20.2316559,42.5634825 C20.3727672,42.7912457 20.3105363,43.0896474 20.0901485,43.242021 L18.5230649,44.2800379 C18.7154832,44.2548351 18.9058098,44.339511 19.0159218,44.4993089 C19.1626841,44.7206612 19.1120303,45.0179768 18.9002513,45.1782443 L13.4566976,49.3081836 L16.2669875,47.6847735 C16.4931712,47.5524117 16.7830859,47.6159265 16.9332122,47.8307307 C17.0833385,48.0455348 17.0433491,48.339619 16.8413166,48.5065369 L14.5902684,50.3814046 C14.7993951,50.2612789 15.0643569,50.3065206 15.2217745,50.4892332 C15.3791922,50.6719457 15.3847436,50.9406848 15.2350056,51.1297423 L13.7262601,53.0307616 L13.7343068,53.0448432 C13.8724925,53.2851531 13.7901654,53.5919677 13.5502398,53.7308195 L12.7656922,54.1834432 C12.5567622,54.3037022 12.2918833,54.2587911 12.1342714,54.0763836 C11.9766596,53.8939762 11.9706514,53.625384 12.1199491,53.4361112 L12.8049196,52.5731088 L10.0147463,54.1824373 C9.78898585,54.3118259 9.50180712,54.2476355 9.35262164,54.0344387 C9.20343615,53.8212419 9.2415151,53.5294509 9.44041716,53.3616798 L11.6914654,51.4868121 L7.02541858,54.1814315 C6.94939528,54.2269454 6.8625653,54.2512578 6.773961,54.2518396 Z" id="Path" fill="#D3AEF5"></path>
            <path d="M18.3249163,58.2842133 C18.1032562,58.2827292 17.9087061,58.1362938 17.8459465,57.9236987 C17.783187,57.7111036 17.8670193,57.4824877 18.0523363,57.3608611 L30.5809587,49.1130525 L16.3987513,57.2995055 C16.1634913,57.4272003 15.869434,57.3482379 15.7297865,57.1198702 C15.5901391,56.8915024 15.6538449,56.593767 15.8747137,56.442538 L28.2373741,48.4431695 L15.1163176,56.0170718 C14.8802459,56.1543543 14.5777585,56.0781584 14.4348936,55.8454225 C14.2920287,55.6126866 14.3610003,55.3084706 14.5902684,55.1601044 L29.4584521,45.458871 L13.6669161,54.5737053 C13.430459,54.7017948 13.135075,54.6212006 12.9964389,54.3907685 C12.8578028,54.1603364 12.9249767,53.8616145 13.1489135,53.7127146 L20.5467955,49.0858951 L12.701319,53.6121315 C12.464739,53.738492 12.1706277,53.6569608 12.0328713,53.4268299 C11.895115,53.1966989 11.9621947,52.8989588 12.1853281,52.750135 L17.3150627,49.5717112 L11.8282583,52.7400767 C11.5906737,52.8739235 11.2897037,52.7940403 11.1497655,52.5599917 C11.0098273,52.3259431 11.0819109,52.0230104 11.3122674,51.8770742 L17.591666,47.9845109 L10.9220052,51.8348294 C10.6850228,51.9653506 10.3872484,51.8850002 10.2480922,51.6529829 C10.108936,51.4209657 10.1782708,51.1204353 10.4050084,50.9728328 L18.2706015,46.0885208 L9.97551889,50.8843197 C9.7386333,51.0170491 9.43916016,50.9377684 9.29897686,50.7052163 C9.15879356,50.4726642 9.22852622,50.1708249 9.45651045,50.023329 L21.9288064,42.1909283 L9.28149597,49.4932564 C9.04383387,49.624654 8.74478079,49.5436401 8.60594079,49.3102476 C8.46710079,49.0768551 8.5386268,48.775392 8.76751668,48.6292482 L12.3191035,46.4526314 L9.28149597,48.2057936 C9.04526034,48.3288186 8.75407337,48.2463242 8.61746916,48.0176722 C8.48086496,47.7890203 8.54622226,47.4935146 8.76651085,47.343797 L17.0746693,42.1979691 L9.28149597,46.698054 C9.04428521,46.8248342 8.74931018,46.742534 8.61199934,46.5112594 C8.4746885,46.2799849 8.5436514,45.9816098 8.76852251,45.8340457 L10.478434,44.7879822 L9.27948431,45.4789876 C9.04314348,45.6089556 8.7463553,45.5293415 8.60679257,45.2985366 C8.46722984,45.0677317 8.53459036,44.7679248 8.75947004,44.6190027 L23.7574059,35.1370403 L9.28149597,43.4944844 C9.04597808,43.6189207 8.75428363,43.5381362 8.61633587,43.310269 C8.47838811,43.0824017 8.5420393,42.7864958 8.7614817,42.6355053 L24.4081781,32.7150009 L9.28149597,41.4476197 C9.04428521,41.5743999 8.74931018,41.4920997 8.61199934,41.2608252 C8.4746885,41.0295507 8.5436514,40.7311755 8.76852251,40.5836115 L10.8365096,39.3182769 L9.28149597,40.2164834 C9.04394552,40.3534592 8.7404518,40.2748901 8.59920925,40.0398515 C8.45796671,39.8048129 8.53104331,39.4999501 8.76349336,39.3544868 L21.865439,31.1298123 L9.28149597,38.3949247 C9.04539294,38.519451 8.75313471,38.4378282 8.6157219,38.2089851 C8.47830909,37.9801419 8.54361862,37.6838113 8.76449919,37.533934 L19.87993,30.5997398 L9.28149597,36.7182056 C9.04526034,36.8412306 8.75407337,36.7587362 8.61746916,36.5300842 C8.48086496,36.3014323 8.54622226,36.0059266 8.76651085,35.856209 L16.7638677,30.9085297 L9.28149597,35.227565 C9.04318444,35.3703297 8.73426112,35.2928737 8.5914964,35.0545622 C8.44873169,34.8162507 8.52618767,34.5073274 8.76449919,34.3645626 L19.2030062,27.8668988 L9.28149597,33.6001316 C9.04468536,33.735466 8.74316065,33.6573655 8.60182813,33.424085 C8.46049562,33.1908045 8.53087737,32.8873853 8.76047587,32.7401467 L25.7338624,21.9073542 L9.28149597,31.4064157 C9.04262894,31.5483471 8.73393077,31.4697653 8.59199931,31.2308983 C8.45006785,30.9920312 8.52864965,30.6833331 8.76751668,30.5414016 L11.8986665,28.6232832 L9.28350764,30.1320287 C9.04778017,30.2616724 8.75177111,30.1828459 8.61173816,29.953138 C8.47170521,29.7234301 8.53724512,29.4241986 8.76047587,29.2740554 L23.8388781,19.5879095 L9.28149597,27.9926276 C9.04503879,28.1207171 8.74965484,28.0401228 8.61101872,27.8096908 C8.4723826,27.5792587 8.53955649,27.2805368 8.76349336,27.1316368 L15.155545,23.1314497 L9.28149597,26.5210978 C9.04552236,26.6472144 8.75211521,26.5664895 8.61386561,26.3374131 C8.47561601,26.1083367 8.5409317,25.8111194 8.76248753,25.6611129 L14.6626882,21.9395408 L9.28149597,25.0495681 C9.04576851,25.1792119 8.74975945,25.1003853 8.6097265,24.8706774 C8.46969355,24.6409695 8.53523346,24.341738 8.75846421,24.1915948 L16.4088096,19.2630263 L9.28149597,23.3738548 C9.04635959,23.503351 8.75097023,23.4253513 8.61041808,23.1966517 C8.46986594,22.9679522 8.53370341,22.669182 8.75544672,22.5178932 L15.4502533,18.1465546 L9.28149597,21.707194 C9.04748955,21.8368052 8.75297087,21.7605505 8.61126659,21.5336629 C8.46956231,21.3067753 8.53026739,21.0086631 8.74941174,20.8552557 L15.4623233,16.3420951 L9.28149597,19.9097752 C9.04714754,20.0454132 8.7474773,19.9711626 8.60356634,19.7418015 C8.45937214,19.5123031 8.52298287,19.2098185 8.74740008,19.0578369 L13.4255169,15.8854481 L9.28149597,18.2732893 C9.04762983,18.4084522 8.74875996,18.334734 8.60457217,18.1063214 C8.45998032,17.8773354 8.52267614,17.5749726 8.74639425,17.4223568 L11.486276,15.5484949 L9.28149597,16.8228819 C9.05130284,16.9528653 8.75977083,16.8824429 8.61429592,16.6617132 C8.468821,16.4409835 8.51906973,16.1453058 8.72929513,15.9850253 L12.4035933,13.2441377 L9.2855193,15.0455798 C9.06371257,15.1740123 8.7808034,15.1150909 8.6287121,14.9087869 C8.47646502,14.7018556 8.50465568,14.4134434 8.69409107,14.2399097 L11.9167714,11.2817627 L9.28149597,12.8025782 C9.05616937,12.9330988 8.76847806,12.8700341 8.61841291,12.6572239 C8.46834776,12.4444138 8.50554617,12.1522499 8.70414937,11.9838323 L9.11151065,11.6378267 C8.92706441,11.6680752 8.74105783,11.5935378 8.62854058,11.4442888 C8.51602333,11.2950399 8.49555845,11.0957023 8.57540309,10.9267046 L9.14369722,9.71970827 C8.94343005,9.74437845 8.74780798,9.64696341 8.64681705,9.47227401 C8.58021279,9.35664308 8.56229381,9.21928219 8.59700536,9.09043443 C8.63171691,8.96158666 8.71621296,8.85181636 8.83188982,8.7852919 L10.0056938,8.11440308 C10.1959622,8.00643459 10.4342026,8.03385181 10.5949713,8.18221841 C10.7557401,8.33058501 10.8021543,8.56586338 10.709775,8.76416947 L10.1726616,9.90578687 L13.2716248,8.11440308 C13.4965441,7.9865609 13.7817607,8.05021858 13.9309764,8.26156421 C14.0801921,8.47290985 14.0447192,8.76298301 13.8489714,8.93214313 L13.5773972,9.1634841 L15.3949326,8.11440308 C15.6165526,7.98922836 15.8967534,8.04936371 16.0474938,8.25445265 C16.1982341,8.4595416 16.1719845,8.74491799 15.9863609,8.91906734 L12.7616689,11.8711793 L19.2734143,8.11440308 C19.5036074,7.98441972 19.7951395,8.05484217 19.9406144,8.27557187 C20.0860893,8.49630156 20.0358406,8.79197926 19.8256152,8.95225974 L16.1472937,11.6991823 L22.3593017,8.11440308 C22.5927642,7.98456667 22.8869978,8.0599109 23.0293249,8.28597557 C23.171652,8.51204024 23.1124027,8.80993222 22.8944035,8.9643297 L20.16458,10.8351741 L24.8748833,8.11440308 C25.1087652,7.98287412 25.4047137,8.05812597 25.5473623,8.28539666 C25.6900109,8.51266736 25.6291105,8.8118988 25.4089792,8.96533553 L20.7358916,12.1377243 L27.7062957,8.11440308 C27.9403021,7.98479187 28.2348208,8.06104656 28.3765251,8.28793413 C28.5182293,8.5148217 28.4575243,8.81293397 28.2383799,8.96634136 L21.5244626,13.4805078 L30.8193405,8.11440308 C31.0548499,7.98051503 31.3540923,8.0572335 31.4961345,8.28791662 C31.6381768,8.51859974 31.5719702,8.820342 31.3463956,8.97036468 L24.6485715,13.3447207 L33.7070793,8.11440308 C33.9423393,7.9867082 34.2363967,8.06567064 34.3760441,8.2940384 C34.5156915,8.52240616 34.4519858,8.82014156 34.2311169,8.97137051 L26.5807716,13.8999391 L36.607894,8.11440308 C36.8442348,7.98443512 37.141023,8.06404918 37.2805857,8.29485409 C37.4201484,8.52565899 37.3527879,8.82546591 37.1279082,8.974388 L31.2287134,12.690931 L39.1596855,8.11440308 C39.3965711,7.98167375 39.6960442,8.06095436 39.8362275,8.29350651 C39.9764108,8.52605865 39.9066781,8.8278979 39.6786939,8.97539383 L33.2866423,12.975581 L41.7074537,8.11440308 C41.9431811,7.98475932 42.2391902,8.06358584 42.3792231,8.29329374 C42.5192561,8.52300163 42.4537162,8.82223316 42.2304854,8.97237634 L27.1631473,18.6514815 L44.7309796,8.50567108 C44.8854995,8.41367784 45.0773595,8.41110797 45.2342879,8.49892949 C45.3912164,8.58675102 45.489372,8.75162177 45.4917805,8.93143653 C45.494189,9.11125129 45.4004846,9.27869191 45.2459647,9.37068515 L42.102745,11.2958444 L44.9281223,9.66539343 C45.1639704,9.53757971 45.4586202,9.61737503 45.5977404,9.84673547 C45.7368607,10.0760959 45.6714736,10.3742742 45.4491424,10.5243725 L28.4757559,21.3521359 L44.9281223,11.8530744 C45.0822829,11.7607218 45.2740026,11.7576281 45.4310625,11.8449588 C45.5881225,11.9322894 45.6866615,12.0967768 45.6895609,12.27646 C45.6924603,12.4561432 45.5992796,12.6237242 45.4451191,12.7160768 L35.0066121,19.2137406 L44.9281223,13.4805078 C45.1652145,13.3519454 45.4615111,13.4332958 45.5997172,13.664899 C45.7379234,13.8965022 45.6688297,14.1958943 45.4431074,14.3435102 L37.4648614,19.2791196 L44.9281223,14.9711483 C45.1642254,14.846622 45.4564836,14.9282449 45.5938964,15.157088 C45.7313092,15.3859311 45.6659997,15.6822617 45.4451191,15.8321391 L34.3146008,22.7723683 L44.9281223,16.6539025 C45.1645795,16.525813 45.4599635,16.6064072 45.5985996,16.8368393 C45.7372357,17.0672714 45.6700618,17.3659933 45.4461249,17.5148932 L32.3441793,25.7395677 L44.9281223,18.4744553 C45.1664928,18.3386208 45.4697458,18.4188983 45.6096886,18.6548803 C45.7496314,18.8908623 45.6746185,19.1954602 45.4410958,19.3394694 L43.3731087,20.6048039 L44.9281223,19.7065975 C45.1636402,19.5821611 45.4553347,19.6629456 45.5932824,19.8908129 C45.7312302,20.1186802 45.667579,20.4145861 45.4481366,20.5655765 L29.8014402,30.4870868 L44.9281223,21.7534621 C45.0819235,21.6605705 45.2735987,21.6567871 45.4309458,21.7435371 C45.5882929,21.830287 45.6874071,21.9943909 45.6910513,22.1740324 C45.6944989,22.353674 45.6019378,22.5215613 45.4481366,22.6144529 L30.4502008,32.0954094 L44.9281223,23.7379654 C45.1653331,23.6111851 45.4603081,23.6934853 45.597619,23.9247599 C45.7349298,24.1560344 45.6659669,24.4544095 45.4410958,24.6019736 L43.7311843,25.6480371 L44.930134,24.9570317 C45.1663696,24.8340067 45.4575566,24.9165011 45.5941608,25.1451531 C45.730765,25.373805 45.6654077,25.6693107 45.4451191,25.8190283 L37.1369607,30.9638503 L44.930134,26.4647713 C45.1677961,26.3333738 45.4668492,26.4143876 45.6056892,26.6477801 C45.7445292,26.8811726 45.6730032,27.1826357 45.4441133,27.3287796 L41.8905148,29.5043906 L44.9271165,27.7522341 C45.1635737,27.6241447 45.4589576,27.7047389 45.5975937,27.935171 C45.7362299,28.1656031 45.669056,28.464325 45.4451191,28.6132249 L32.9667882,36.4496489 L44.9281223,29.5436179 C45.165707,29.4097711 45.466677,29.4896543 45.6066152,29.7237029 C45.7465533,29.9577515 45.6744697,30.2606842 45.4441133,30.4066203 L37.5825435,35.2879149 L44.9251048,31.0473343 C45.1626895,30.9134874 45.4636595,30.9933706 45.6035977,31.2274192 C45.7435358,31.4614678 45.6714523,31.7644006 45.4410958,31.9103367 L39.1787962,35.7918359 L44.9251048,32.4725958 C45.1626895,32.3387489 45.4636595,32.4186321 45.6035977,32.6526808 C45.7435358,32.8867294 45.6714523,33.1896621 45.4410958,33.3355982 L40.2922504,36.5291095 L44.9281223,33.852595 C45.1651047,33.7220737 45.4628792,33.8024242 45.6020354,34.0344415 C45.7411916,34.2664587 45.6718567,34.5669891 45.4451191,34.7145916 L38.0683596,39.3283352 L44.9321456,35.3653638 C45.1682174,35.2280813 45.4707048,35.3042773 45.6135697,35.5370131 C45.7564345,35.769749 45.6874629,36.073965 45.4581949,36.2223312 L30.584982,45.9235646 L44.9281223,37.6435695 C45.1642624,37.509152 45.4644712,37.5866077 45.6061031,37.8184925 C45.747735,38.0503774 45.6795692,38.3528309 45.4521599,38.5015427 L33.0905054,46.4999054 L44.9281223,39.6652884 C45.1631403,39.5338354 45.459998,39.6108261 45.6015043,39.8399315 C45.7430106,40.0690369 45.6789464,40.36895 45.4561832,40.5202442 L32.9245434,48.7680527 L44.9281223,41.8378819 C45.1623864,41.7117213 45.4543814,41.7898633 45.5943213,42.0161661 C45.7342611,42.2424689 45.6737153,42.5386132 45.4561832,42.6918318 L35.9269468,48.9873237 L44.9281223,43.7912043 C45.1643558,43.6591576 45.4627251,43.737734 45.603277,43.9690082 C45.7438289,44.2002825 45.6761572,44.5013124 45.4501483,44.6501834 L43.0180506,46.2051971 L44.9291282,45.0987838 C45.1647417,44.9671374 45.4622619,45.0449446 45.603262,45.2750826 C45.744262,45.5052206 45.6784629,45.8056249 45.4541716,45.9557512 L42.9395958,47.5841905 L44.9261107,46.4375439 C45.1615322,46.3010459 45.4628225,46.3765698 45.6060222,46.607976 C45.7492218,46.8393823 45.6823777,47.1427164 45.4551774,47.2924997 L42.4145524,49.3112011 L44.9291282,47.8617996 C45.1601564,47.7314142 45.4527328,47.802899 45.5976071,48.0251283 C45.7424814,48.2473575 45.6898285,48.5439021 45.4773057,48.7026738 L40.0267112,52.6928026 L44.9291282,49.8623961 C45.1591811,49.7305892 45.452047,49.8000219 45.5984432,50.0210775 C45.7448394,50.2421331 45.694475,50.5388733 45.4833407,50.6992469 L42.1811997,53.1806303 L44.9291282,51.5954418 C45.1537724,51.4680578 45.4383859,51.5315234 45.5876285,51.7422801 C45.7368712,51.9530367 45.7022301,52.2425754 45.5074806,52.412176 L42.9406016,54.6139385 L44.9281223,53.467292 C45.139376,53.3457798 45.4073518,53.3932203 45.5640503,53.5798722 C45.7207487,53.766524 45.7210701,54.0386666 45.5648129,54.225688 L44.1506155,55.9124655 L44.9281223,55.464871 C45.1296317,55.3484308 45.3847113,55.3854618 45.5447917,55.5543957 C45.704872,55.7233295 45.7281315,55.9800314 45.6010228,56.1749872 L45.2992737,56.6286166 C45.4076145,56.6692213 45.4983464,56.7464323 45.5557604,56.8468818 C45.6939462,57.0871917 45.6116191,57.3940063 45.3716935,57.5328581 L44.2039245,58.2067644 C44.0024151,58.3232046 43.7473355,58.2861736 43.5872552,58.1172397 C43.4271748,57.9483059 43.4039153,57.691604 43.531024,57.4966482 L43.6014321,57.3890244 L42.1922639,58.2047528 C41.9810102,58.3262649 41.7130343,58.2788244 41.5563359,58.0921725 C41.3996375,57.9055207 41.3993161,57.6333781 41.5555733,57.4463567 L42.9707765,55.7595793 L38.7261726,58.2047528 C38.5015283,58.3321367 38.2169149,58.2686711 38.0676722,58.0579145 C37.9184296,57.8471578 37.9530707,57.5576191 38.1478202,57.3880185 L40.7126875,55.192291 L35.493434,58.2097819 C35.263381,58.3415888 34.9705152,58.2721561 34.824119,58.0511005 C34.6777228,57.8300449 34.7280871,57.5333047 34.9392215,57.3729311 L38.2403566,54.8915477 L32.4900247,58.2107877 C32.2592109,58.338363 31.9690523,58.2659728 31.8252142,58.0449274 C31.6813761,57.8238821 31.7327199,57.5292702 31.942853,57.3699136 L37.3944533,53.3767672 L29.0219217,58.2097819 C28.7873581,58.3392746 28.4924588,58.2621337 28.3513476,58.0343705 C28.2102363,57.8066073 28.2724672,57.5082055 28.492855,57.355832 L31.5224159,55.3441713 L26.5556258,58.2107877 C26.3200122,58.3424341 26.022492,58.2646269 25.881492,58.0344889 C25.7404919,57.8043509 25.806291,57.5039466 26.0305824,57.3538203 L28.5451582,55.7233694 L24.2331636,58.2117936 C23.9977762,58.3378093 23.7049439,58.2579208 23.5661622,58.0298268 C23.4273806,57.8017329 23.4910289,57.5049471 23.7111377,57.3538203 L26.1442412,55.7988066 L21.9609929,58.2127994 C21.7264293,58.3422921 21.43153,58.2651512 21.2904188,58.037388 C21.1493075,57.8096248 21.2115384,57.511223 21.4319262,57.3588495 L30.9631742,51.0623517 L18.5753681,58.2138052 C18.4995047,58.2588354 18.4131307,58.2831173 18.3249163,58.2842133 Z" id="Path" fill="#F3F6FB"></path>
            <path d="M56.4398503,59.2699663 C56.2400431,59.2699663 56.0590762,59.1520016 55.9788181,58.9690219 C55.89856,58.7860421 55.9342353,58.5729061 56.0697047,58.4260354 L56.6611329,57.7833099 L54.9512214,58.7700294 C54.7353017,58.8950502 54.4603659,58.8428649 54.305273,58.6474226 C54.1501801,58.4519803 54.1618265,58.1723782 54.3326358,57.9905109 L56.0143841,56.2001329 L53.6295604,57.5761088 C53.4051887,57.7030597 53.121156,57.6397923 52.971879,57.4296124 C52.8226021,57.2194325 52.8564274,56.9304115 53.0502021,56.7603804 L53.5732339,56.3097684 L52.8027679,56.7533396 C52.5815932,56.8720234 52.3067714,56.8094536 52.1587753,56.6067192 C52.0107793,56.4039849 52.0349279,56.1231667 52.215363,55.9486754 L53.0823887,55.1731802 L51.8965147,55.8571448 C51.675225,55.9773678 51.3991291,55.9153763 51.2504764,55.7120905 C51.1018237,55.5088048 51.1264519,55.2269088 51.308104,55.0524805 L52.2435262,54.2075831 L50.9721567,54.9408334 C50.7558672,55.0644491 50.4816739,55.0110887 50.3275272,54.8153828 C50.1733805,54.619677 50.1857417,54.3406134 50.3565885,54.1593032 L52.1017041,52.3256746 L49.7249271,53.6885746 C49.5010935,53.814728 49.2181611,53.7518741 49.0687955,53.5428141 C48.91943,53.333754 48.9516682,53.0457227 49.1435572,52.8748579 L49.7571137,52.340762 L48.8790238,52.8436772 C48.6659094,52.9645743 48.3966858,52.9142947 48.2415717,52.7246279 C48.0864576,52.5349611 48.0906025,52.2611141 48.2513857,52.0762286 L50.1986732,49.8754719 L47.4758905,51.4475847 C47.254488,51.5693987 46.9770743,51.5080043 46.8277467,51.3041441 C46.6784191,51.1002839 46.7035551,50.8172718 46.8864739,50.6429204 L47.8792285,49.7376732 L46.5354392,50.5131683 C46.3191497,50.6367841 46.0449564,50.5834236 45.8908097,50.3877178 C45.736663,50.1920119 45.7490242,49.9129483 45.919871,49.7316382 L47.6669983,47.8990153 L45.4893756,49.1552974 C45.2673245,49.2835181 44.9843626,49.2241524 44.8325684,49.0174987 C44.6805725,48.8103201 44.7091994,48.5218821 44.8989532,48.3486215 L48.1598551,45.3703579 C48.1324231,45.1682596 48.2297639,44.9696048 48.4062836,44.8674428 L49.2773326,44.3645276 C49.4988452,44.2410653 49.7776254,44.3018418 49.9276481,44.506302 C50.0776708,44.7107622 50.0519955,44.9949328 49.867755,45.1691919 L48.9886593,45.9738561 L50.1956557,45.2788274 C50.4119452,45.1552116 50.6861385,45.2085721 50.8402852,45.4042779 C50.9944319,45.5999838 50.9820706,45.8790474 50.8112238,46.0603575 L49.0640966,47.8919745 L51.438862,46.5220336 C51.6602644,46.4002197 51.9376782,46.4616141 52.0870058,46.6654743 C52.2363333,46.8693344 52.2111973,47.1523465 52.0282785,47.3266979 L51.0365298,48.2319452 L52.37529,47.4594675 C52.5884044,47.3385703 52.857628,47.38885 53.0127421,47.5785168 C53.1678562,47.7681836 53.1637113,48.0420306 53.0029281,48.226916 L51.0556406,50.4286786 L53.7713825,48.8585775 C53.9956059,48.7300338 54.2807574,48.7923741 54.4308837,49.0027587 C54.58101,49.2131434 54.547228,49.5030683 54.3527524,49.6733 L53.7412075,50.2053843 L54.6142683,49.7024691 C54.8308586,49.577297 55.1065221,49.6303459 55.2611872,49.8269626 C55.4158523,50.0235794 55.4024932,50.3039828 55.2298364,50.4850051 L53.4857266,52.3196396 L55.860492,50.9486929 C56.0817817,50.8284699 56.3578777,50.8904614 56.5065304,51.0937471 C56.655183,51.2970329 56.6305549,51.5789289 56.4489027,51.7533571 L55.5124747,52.5992604 L56.7818326,51.8670159 C57.0028899,51.7498243 57.2764774,51.8129553 57.4238334,52.0151591 C57.5711894,52.217363 57.5474949,52.4971382 57.3682317,52.6716802 L56.5002001,53.4501929 L57.6820507,52.7732691 C57.9064224,52.6463182 58.1904551,52.7095856 58.3397321,52.9197654 C58.489009,53.1299453 58.4551837,53.4189664 58.261409,53.5889974 L57.7413947,54.0386036 L58.4605634,53.6242015 C58.6764086,53.5006619 58.9501392,53.5534407 59.1045783,53.748376 C59.2590174,53.9433113 59.2477814,54.2218572 59.0781432,54.40372 L57.4014241,56.1930921 L59.0047176,55.2677282 C59.2199748,55.1427966 59.494237,55.1941035 59.6497753,55.3884006 C59.8053137,55.5826977 59.7953414,55.8615394 59.6263207,56.0442292 L58.8216565,56.9233249 C59.0385305,56.9454497 59.216456,57.10478 59.2622898,57.3179069 C59.3081235,57.5310339 59.2114278,57.7494225 59.0228225,57.8587471 L56.696337,59.2015306 C56.6187257,59.2474053 56.5299985,59.2710659 56.4398503,59.2699663 Z" id="Path" fill="#C384F8"></path>
            <path d="M34.8577492,53.1655469 C34.6383957,53.1664113 34.4437829,53.0250083 34.376837,52.8161185 C34.309891,52.6072287 34.386057,52.3790452 34.5650526,52.252249 L42.7796688,46.3832291 L31.2186551,53.057919 C30.9849324,53.1842977 30.6932253,53.1070605 30.5526665,52.8815807 C30.4121077,52.656101 30.4711992,52.3601841 30.6875767,52.2059808 L39.8788541,46.0342059 L28.5330882,52.5811555 C28.2969481,52.7155729 27.9967393,52.6381172 27.8551074,52.4062324 C27.7134755,52.1743475 27.7816413,51.871894 28.0090506,51.7231822 L35.2218598,47.077252 L26.6592263,52.020908 C26.4227691,52.1489975 26.1273852,52.0684032 25.9887491,51.8379711 C25.850113,51.6075391 25.9172868,51.3088172 26.1412237,51.1599172 L27.6187884,50.2375708 L25.3948976,51.5200045 C25.1565861,51.6627692 24.8476627,51.5853132 24.704898,51.3470017 C24.5621333,51.1086901 24.6395893,50.7997668 24.8779008,50.6570021 L25.9551451,49.9881249 L24.2452336,50.9748445 C24.0077553,51.1189979 23.6983816,51.0433432 23.5542281,50.805865 C23.4100747,50.5683867 23.4857294,50.259013 23.7232076,50.1148595 L33.9313795,43.5990908 L22.6902199,50.0907196 C22.4546063,50.222366 22.1570861,50.1445588 22.0160861,49.9144208 C21.875086,49.6842828 21.9408851,49.3838785 22.1651765,49.2337522 L36.9850803,39.5858278 L20.9390693,48.8505308 C20.7022587,48.9858652 20.400734,48.9077648 20.2594015,48.6744843 C20.118069,48.4412038 20.1884507,48.1377845 20.4180492,47.9905459 L32.7636105,40.1340053 L19.6304841,47.7149484 C19.3929336,47.8519242 19.0894399,47.7733551 18.9481974,47.5383165 C18.8069548,47.3032779 18.8800314,46.9984151 19.1124815,46.8529518 L29.2834376,40.461906 L18.5733564,46.6447449 C18.3375084,46.7725587 18.0428586,46.6927633 17.9037383,46.4634029 C17.7646181,46.2340425 17.8300051,45.9358642 18.0523363,45.7857659 L31.8251708,37.017943 L17.4578906,45.3120198 C17.221917,45.4381363 16.9285098,45.3574114 16.7902602,45.128335 C16.6520106,44.8992587 16.7173263,44.6020413 16.9388822,44.4520349 L28.9293853,36.8912084 L16.5516375,44.0326036 C16.3147519,44.1653329 16.0152788,44.0860523 15.8750955,43.8535002 C15.7349122,43.6209481 15.8046448,43.3191088 16.032629,43.1716129 L26.667273,36.5039637 L15.7972648,42.7833624 C15.5603792,42.9160917 15.260906,42.8368111 15.1207227,42.6042589 C14.9805394,42.3717068 15.0502721,42.0698676 15.2782563,41.9223716 L25.2631338,35.6741537 L15.1565508,41.5079695 C14.9179616,41.6504565 14.6090382,41.5725502 14.4665513,41.3339609 C14.3240643,41.0953716 14.4019706,40.7864483 14.6405599,40.6439613 L19.5691284,37.6013246 L14.6898456,40.4176495 C14.4528632,40.5481707 14.1550887,40.4678203 14.0159325,40.235803 C13.8767763,40.0037858 13.9461112,39.7032554 14.1728488,39.5556529 L23.1247386,33.9612247 L14.2301811,39.1030292 C13.9937239,39.2311187 13.69834,39.1505245 13.5597039,38.9200924 C13.4210678,38.6896603 13.4882416,38.3909384 13.7121785,38.2420385 L23.1740243,32.3076396 L13.839919,37.6968785 C13.6024407,37.8410319 13.293067,37.7653773 13.1489135,37.527899 C13.0047601,37.2904207 13.0804147,36.981047 13.317893,36.8368935 L26.2438184,28.589085 L13.5130241,35.9366754 C13.2754395,36.0705223 12.9744694,35.9906391 12.8345313,35.7565905 C12.6945931,35.5225418 12.7666767,35.2196091 12.9970332,35.073673 L17.2215205,32.4514734 L13.371202,34.6743584 C13.1342793,34.8193451 12.8246804,34.7448162 12.6796937,34.5078935 C12.534707,34.2709707 12.6092358,33.9613719 12.8461586,33.8163851 L25.5960637,25.5826582 L13.3138697,32.6737619 C13.1600685,32.7666535 12.9683933,32.7704369 12.8110462,32.683687 C12.6536991,32.596937 12.554585,32.4328331 12.5509407,32.2531916 C12.5474932,32.0735501 12.6400542,31.9056627 12.7938554,31.8127711 L19.6204258,27.5027882 L13.4074119,31.0895791 C13.1710711,31.2195471 12.8742829,31.139933 12.7347202,30.9091281 C12.5951574,30.6783232 12.662518,30.3785163 12.8873977,30.2295942 L18.2887064,26.8228469 L13.6266829,29.5114314 C13.3908712,29.6583624 13.0805969,29.5863103 12.9336658,29.3504985 C12.7867348,29.1146868 12.8587869,28.8044124 13.0945987,28.6574814 L24.4363413,21.0694975 L14.2774551,26.9365058 C14.0439926,27.0663422 13.7497591,26.9909979 13.607432,26.7649333 C13.4651049,26.5388686 13.5243542,26.2409766 13.7423534,26.0865791 L23.0633829,19.7267141 L15.4070026,24.143315 C15.1731474,24.2681085 14.8825789,24.1899698 14.7428574,23.9647154 C14.6031359,23.7394609 14.6622337,23.4444301 14.8779358,23.2903709 L18.2313741,21.0614509 L16.6813896,21.955634 C16.4537093,22.0873225 16.1630127,22.0213314 16.0145078,21.8042451 C15.8660028,21.5871588 15.9098545,21.2923092 16.1151071,21.1278357 L20.5940695,17.5440623 C20.3835656,17.5841393 20.1707869,17.4864307 20.0639969,17.3006513 C19.9258112,17.0603415 20.0081383,16.7535269 20.2480639,16.6146751 L25.6966467,13.4714553 C25.9241691,13.3422656 26.2127411,13.4091097 26.3602883,13.6251797 C26.5078355,13.8412498 26.4650634,14.1343581 26.2619233,14.2992537 L21.924783,17.7703741 L31.6058998,12.180975 C31.839755,12.0561815 32.1303235,12.1343202 32.270045,12.3595747 C32.4097665,12.5848291 32.3506687,12.8798599 32.1349666,13.0339192 L28.7674467,15.2718916 L34.1275164,12.1779576 C34.3612781,12.0443331 34.6588118,12.1185279 34.802462,12.346266 C34.9461122,12.5740041 34.8849087,12.8744793 34.663624,13.0278842 L25.3456119,19.3797026 L37.1138266,12.584313 C37.3482684,12.4528899 37.6446107,12.5290268 37.786669,12.7571812 C37.9287274,12.9853355 37.8662898,13.2848636 37.644905,13.4372571 L26.3001449,21.031276 L39.6776881,13.3115283 C39.9140289,13.1815604 40.2108171,13.2611744 40.3503798,13.4919793 C40.4899426,13.7227842 40.422582,14.0225911 40.1977024,14.1715132 L34.8004169,17.581278 L41.1502237,13.9150265 C41.3879797,13.7714285 41.6971282,13.8477587 41.8407262,14.0855147 C41.9843242,14.3232708 41.907994,14.6324193 41.6702379,14.7760173 L34.8497026,19.0779535 L42.5724677,14.6191077 C42.8086078,14.4846903 43.1088166,14.562146 43.2504485,14.7940308 C43.3920804,15.0259157 43.3239146,15.3283692 43.0965053,15.477081 L30.3445886,23.7148313 L44.2682976,15.6762354 C44.4224582,15.5838828 44.6141779,15.5807892 44.7712378,15.6681198 C44.9282978,15.7554505 45.0268368,15.9199378 45.0297362,16.099621 C45.0326356,16.2793043 44.939455,16.4468852 44.7852944,16.5392378 L40.5537663,19.1634491 L45.2932387,16.4275906 C45.4468602,16.3343397 45.6385612,16.3301283 45.7961296,16.416543 C45.9536981,16.5029577 46.0531956,16.6668699 46.0571426,16.8465355 C46.0610895,17.0262011 45.9688862,17.1943246 45.8152647,17.2875756 L32.8933626,25.5353841 L46.6460805,17.5953596 C46.883631,17.4583838 47.1871247,17.536953 47.3283672,17.7719915 C47.4696098,18.0070301 47.3965332,18.311893 47.1640831,18.4573562 L37.7002257,24.3917551 L47.6730333,18.6343823 C47.9094904,18.5062929 48.2048744,18.5868871 48.3435105,18.8173192 C48.4821466,19.0477512 48.4149727,19.3464732 48.1910359,19.4953731 L39.2391461,25.0877896 L48.5853213,19.69151 C48.8239106,19.549023 49.132834,19.6269294 49.2753209,19.8655186 C49.4178079,20.1041079 49.3399016,20.4130313 49.1013123,20.5555182 L44.1727438,23.5971491 L49.2954376,20.640008 C49.5323231,20.5072787 49.8317963,20.5865593 49.9719796,20.8191114 C50.1121629,21.0516636 50.0424302,21.3535028 49.814446,21.5009987 L39.8185043,27.7542458 L50.0779735,21.8329227 C50.3160073,21.6896025 50.6251558,21.766383 50.768476,22.0044168 C50.9117963,22.2424506 50.8350158,22.5515991 50.596982,22.6949193 L39.9703847,29.3555277 L50.7870839,23.1103272 C51.0234247,22.9803593 51.3202129,23.0599733 51.4597757,23.2907783 C51.5993384,23.5215832 51.5319779,23.8213901 51.3070982,23.9703122 L39.316595,31.5311386 L51.4459028,24.528548 C51.6821363,24.3965012 51.9805056,24.4750776 52.1210575,24.7063519 C52.2616094,24.9376261 52.1939376,25.238656 51.9679287,25.3875271 L38.1860417,34.1654082 L52.037331,26.1680514 C52.2742166,26.0353221 52.5736897,26.1146027 52.713873,26.3471548 C52.8540563,26.579707 52.7843237,26.8815462 52.5563394,27.0290422 L42.3934299,33.414053 L52.4517331,27.6094062 C52.6892114,27.4652528 52.998585,27.5409075 53.1427385,27.7783857 C53.286892,28.015864 53.2112373,28.3252377 52.973759,28.4693912 L40.6161278,36.3279434 L52.7585113,29.3183119 C52.9933296,29.1922763 53.2856961,29.2713027 53.4250426,29.4984749 C53.5643891,29.725647 53.502327,30.0220785 53.2835547,30.1742735 L38.4646567,39.8232038 L52.9486133,31.4587189 C53.1853974,31.3199562 53.4897075,31.3966511 53.6324408,31.6310631 C53.7751741,31.8654752 53.7036184,32.1710345 53.471645,32.3176979 L43.2715198,38.8314551 L52.9445899,33.2470852 C53.1815723,33.1165639 53.4793468,33.1969144 53.618503,33.4289316 C53.7576592,33.6609489 53.6883243,33.9614792 53.4615867,34.1090817 L52.3793133,34.7799706 L52.8440069,34.5134255 C53.0801099,34.3888992 53.3723682,34.4705221 53.509781,34.6993652 C53.6471938,34.9282083 53.5818843,35.2245389 53.3610037,35.3744163 L51.8784098,36.2997802 L52.6428408,35.8592265 C52.8777904,35.7347668 53.1690235,35.8146894 53.3075366,36.0416379 C53.4460498,36.2685864 53.3839804,36.5641397 53.1658726,36.7161939 L45.9590984,41.3581008 L52.1952463,37.7562225 C52.3476101,37.6609951 52.5392033,37.6542865 52.6978545,37.7386237 C52.8565057,37.8229609 52.9581121,37.9855312 52.9643995,38.1650958 C52.970687,38.3446604 52.8807002,38.5139392 52.7283364,38.6091666 L43.5330357,44.7859705 L51.2638475,40.3220956 C51.4963998,40.1856184 51.7952051,40.2568294 51.9412067,40.4835233 C52.0872084,40.7102172 52.0284473,41.011718 51.8080017,41.1669931 L43.5943913,47.0400363 L49.3628282,43.7097321 C49.595922,43.5735774 49.8949327,43.6457313 50.0402793,43.8732069 C50.185626,44.1006825 50.1254601,44.4023341 49.9039649,44.5566412 L47.2998702,46.3862466 C47.4800424,46.3950034 47.6455419,46.48819 47.7464589,46.6377041 C47.8854975,46.8779753 47.8035612,47.1854616 47.5633977,47.3246862 L38.6376595,52.4785608 C38.4045657,52.6147154 38.1055551,52.5425616 37.9602084,52.3150859 C37.8148617,52.0876103 37.8750277,51.7859588 38.0965228,51.6316516 L40.1474108,50.189291 L35.1092068,53.0971464 C35.0329844,53.1419559 34.9461672,53.1655469 34.8577492,53.1655469 Z" id="Path" fill="#3FA2FF"></path>
            <path d="M34.0299509,49.1926828 C33.8105381,49.1919954 33.6167855,49.0492914 33.551209,48.8399067 C33.4856325,48.6305219 33.5633696,48.4027909 33.7432892,48.2772075 L37.7887388,45.4608827 L31.5706957,49.0516969 C31.3378945,49.1837753 31.0424323,49.1103727 30.8985076,48.884703 C30.7545829,48.6590333 30.812629,48.3601747 31.0305649,48.2047878 L39.1244814,42.5278815 L28.8016449,48.4884319 C28.5667381,48.6220502 28.2682285,48.5461302 28.125702,48.3165191 C27.9831754,48.0869081 28.0475946,47.7857071 28.2715723,47.634482 L35.1685508,43.0670065 L26.9559463,47.8074848 C26.7202188,47.9371286 26.4242097,47.858302 26.2841768,47.6285941 C26.1441438,47.3988862 26.2096837,47.0996547 26.4329145,46.9495115 L30.8324163,44.1231283 L25.6131628,47.1406193 C25.375129,47.2842173 25.0657553,47.2076619 24.9221574,46.9696281 C24.7785594,46.7315944 24.8551147,46.4222207 25.0931485,46.2786227 L25.6312677,45.9416696 L24.604315,46.5341036 C24.3673326,46.6646249 24.0695582,46.5842744 23.930402,46.3522572 C23.7912458,46.1202399 23.8605806,45.8197096 24.0873182,45.672107 L25.3114137,44.9056643 L23.6517937,45.8632148 C23.4149831,45.9985492 23.1134584,45.9204487 22.9721258,45.6871682 C22.8307933,45.4538877 22.9011751,45.1504685 23.1307736,45.0032299 L29.2371694,41.1116724 L22.5785727,44.9569617 C22.3435548,45.0884147 22.0466971,45.011424 21.9051908,44.7823185 C21.7636845,44.5532131 21.8277487,44.2533 22.0505118,44.1020059 L33.7432892,36.401369 L21.2549,43.6101549 C21.017144,43.7537528 20.7079955,43.6774226 20.5643976,43.4396666 C20.4207996,43.2019106 20.4971298,42.8927621 20.7348858,42.7491641 L25.9511218,39.4580873 L20.4663291,42.6224295 C20.2316396,42.7501361 19.938057,42.6720349 19.7978466,42.4445944 C19.6576362,42.2171539 19.719748,41.9197776 19.939274,41.7674738 L32.2446021,33.6775805 L19.4494346,41.0654042 C19.2124522,41.1959255 18.9146778,41.115575 18.7755216,40.8835577 C18.6363654,40.6515405 18.7057002,40.3510101 18.9324378,40.2034076 L18.9947993,40.1641802 L18.9746827,40.1762502 C18.7374822,40.3209592 18.4278834,40.2459799 18.2831744,40.0087794 C18.1384654,39.7715789 18.2134446,39.4619801 18.4506451,39.3172711 L27.3110044,33.6313123 L18.3762137,38.7922277 C18.1393281,38.924957 17.839855,38.8456764 17.6996716,38.6131243 C17.5594883,38.3805721 17.629221,38.0787329 17.8572052,37.9312369 L22.8863568,34.7578423 L17.9738816,37.5932779 C17.7393179,37.7227706 17.4444186,37.6456297 17.3033074,37.4178665 C17.1621961,37.1901033 17.224427,36.8917016 17.4448148,36.739328 L29.58921,28.6755864 L17.5353395,35.630903 C17.2999521,35.7569187 17.0071198,35.6770302 16.8683382,35.4489363 C16.7295565,35.2208424 16.7932048,34.9240565 17.0133136,34.7729297 L23.2605257,30.7757601 L17.3643484,34.178484 C17.1297847,34.3079767 16.8348855,34.2308358 16.6937742,34.0030726 C16.552663,33.7753094 16.6148939,33.4769076 16.8352816,33.3245341 L26.7930018,26.7021473 L17.3552959,32.1537476 C17.1211706,32.2924905 16.8191547,32.2198211 16.6737684,31.9897623 C16.5283821,31.7597034 16.5923786,31.4557316 16.8181825,31.303821 L27.1862814,24.1765074 L17.7023074,29.6522476 C17.4655233,29.7910103 17.1612132,29.7143153 17.0184799,29.4799033 C16.8757465,29.2454913 16.9473023,28.9399319 17.1792756,28.7932685 L18.4033711,28.007715 L18.101622,28.1827295 C17.8668149,28.3188174 17.566385,28.2440572 17.4227421,28.0137942 C17.2790993,27.7835312 17.3440619,27.4808316 17.5695378,27.3297854 L21.8332525,24.4641748 L18.9103096,26.1519581 C18.6758678,26.2833812 18.3795255,26.2072443 18.2374671,25.97909 C18.0954088,25.7509356 18.1578464,25.4514075 18.3792312,25.299014 L19.7511837,24.3816968 C19.5280856,24.4076626 19.3148155,24.2825466 19.2286283,24.0751368 C19.1424412,23.8677271 19.2042336,23.6283115 19.3800323,23.4885194 L22.719389,20.8401682 C22.5179862,20.7940237 22.3653004,20.6293891 22.3344329,20.4250864 C22.3035655,20.2207836 22.400798,20.0183896 22.5795786,19.9148043 L27.4186282,17.1216136 C27.6462947,16.9940745 27.9336893,17.0618579 28.0803704,17.2776887 C28.2270515,17.4935194 28.1842828,17.7856856 27.9818932,17.9504177 L25.3667344,20.0274573 L32.0162786,16.1892088 C32.2516456,16.0493996 32.5556064,16.12353 32.7001814,16.3560001 C32.8447564,16.5884701 32.7768336,16.893878 32.547357,17.0431588 L31.6883779,17.6164821 L34.1224873,16.2083196 C34.3572944,16.0722317 34.6577243,16.1469919 34.8013671,16.3772549 C34.9450099,16.6075179 34.8800473,16.9102176 34.6545715,17.0612637 L30.4009151,19.9188277 L36.2870341,16.5211329 C36.5231742,16.3867154 36.823383,16.4641711 36.9650149,16.6960559 C37.1066468,16.9279408 37.038481,17.2303943 36.8110717,17.3791061 L35.5769179,18.1727062 L37.7595697,16.9124008 C37.9926306,16.7840347 38.2853486,16.8594143 38.4274201,17.084383 C38.5694916,17.3093518 38.5117489,17.6060531 38.2956772,17.7613216 L27.9205375,24.8916527 L40.0910843,17.8629105 C40.325648,17.7334178 40.6205473,17.8105587 40.7616585,18.0383219 C40.9027697,18.2660851 40.8405389,18.5644869 40.6201511,18.7168604 L30.6574018,25.3402531 L41.8382116,18.8858399 C42.0739391,18.7561962 42.3699481,18.8350227 42.5099811,19.0647306 C42.650014,19.2944385 42.5844741,19.59367 42.3612434,19.7438132 L36.1250954,23.7349479 L43.0079923,19.7609123 C43.242899,19.627294 43.5414086,19.703214 43.6839352,19.9328251 C43.8264617,20.1624361 43.7620425,20.4636371 43.5380648,20.6148622 L31.3976929,28.6796097 L44.4885745,21.1207949 C44.7263305,20.9771969 45.035479,21.0535271 45.179077,21.2912831 C45.322675,21.5290392 45.2463448,21.8381877 45.0085888,21.9817856 L39.9794372,25.1571919 L45.3284428,22.0692929 C45.5645829,21.9348754 45.8647917,22.0123311 46.0064236,22.244216 C46.1480555,22.4761008 46.0798897,22.7785544 45.8524804,22.9272661 L37.0011736,28.6092016 L46.2336901,23.2783009 C46.4702701,23.1519404 46.7643815,23.2334716 46.9021378,23.4636026 C47.0398941,23.6937335 46.9728144,23.9914736 46.749681,24.1402975 L46.6651913,24.1936065 L46.7657743,24.1322508 C47.0012837,23.9983628 47.3005261,24.0750813 47.4425683,24.3057644 C47.5846106,24.5364475 47.518404,24.8381898 47.2928294,24.9882124 L34.9985655,33.0720707 L47.6076543,25.7928767 C47.8436279,25.6667601 48.1370351,25.7474851 48.2752846,25.9765614 C48.4135342,26.2056378 48.3482186,26.5028551 48.1266627,26.6528616 L42.9013742,29.9509792 L48.0713421,26.9666807 C48.30636,26.8352277 48.6032177,26.9122184 48.744724,27.1413238 C48.8862303,27.3704292 48.8221661,27.6703423 48.599403,27.8216364 L36.8965673,35.5273025 L48.5772747,28.7882394 C48.8140853,28.652905 49.11561,28.7310054 49.2569425,28.9642859 C49.3982751,29.1975664 49.3278933,29.5009857 49.0982948,29.6482243 L43.0039689,33.532741 L48.8176682,30.1762852 C49.0557019,30.032965 49.3648504,30.1097455 49.5081707,30.3477793 C49.6514909,30.5858131 49.5747104,30.8949616 49.3366766,31.0382818 L48.1005111,31.8117653 L48.9212687,31.339025 C49.1581543,31.2062957 49.4576274,31.2855763 49.5978107,31.5181285 C49.737994,31.7506806 49.6682613,32.0525199 49.4402771,32.2000158 L48.8951171,32.5419981 L48.9433969,32.5138349 C49.1796304,32.3817881 49.4779997,32.4603645 49.6185516,32.6916387 C49.7591036,32.922913 49.6917511,33.2239429 49.4654229,33.3728139 L45.0719561,36.1891388 L48.8508606,34.0074929 C49.0854242,33.8780002 49.3803235,33.9551411 49.5214347,34.1829043 C49.662546,34.4106675 49.6003151,34.7090693 49.3799273,34.8614428 L42.494013,39.4248949 L48.5199424,35.9457279 C48.7521051,35.8182135 49.043377,35.8926286 49.1859259,36.1158757 C49.3284749,36.3391227 49.2734325,36.6346685 49.0600733,36.7916312 L40.9631392,42.4705491 L47.6237476,38.6262657 C47.8560446,38.5003788 48.1461456,38.5757125 48.2878418,38.7987185 C48.4295379,39.0217244 48.3745074,39.3163519 48.1618668,39.4731748 L44.1204406,42.2894997 L46.3332673,41.0120952 C46.563666,40.8791266 46.8577644,40.948579 47.0043377,41.170571 C47.1509111,41.3925631 47.099257,41.6903035 46.8864739,41.8499518 L44.1626855,43.8907815 C44.378424,43.9153799 44.5540141,44.0756617 44.5981357,44.2882681 C44.6422572,44.5008745 44.5449458,44.7177907 44.3568107,44.8262037 L38.0532721,48.4652978 C37.8228734,48.5982664 37.528775,48.528814 37.3822017,48.306822 C37.2356283,48.0848299 37.2872824,47.7870895 37.5000655,47.6274412 L39.5590001,46.0844975 L34.2834201,49.1301517 C34.2060523,49.173295 34.1185044,49.1948345 34.0299509,49.1926828 Z" id="Path" fill="#D4E8FA"></path>
            <path d="M16.6512147,57.8677996 C16.5017125,57.8676611 16.3600221,57.8010153 16.264581,57.6859418 C16.16914,57.5708683 16.1298435,57.4192977 16.157352,57.2723481 L16.3182849,56.4194039 L15.8153697,56.7100889 C15.6151694,56.8230553 15.3638546,56.7858999 15.2049074,56.6198356 C15.0459602,56.4537714 15.0198416,56.201071 15.1414634,56.0060077 L15.481434,55.4739234 L14.9071049,55.8048416 C14.7024497,55.9229702 14.4431562,55.8826871 14.2839865,55.7080358 C14.1248167,55.5333844 14.1087053,55.2714755 14.2452686,55.0786321 L15.2772505,53.6242015 L13.6598753,54.5566062 C13.4462781,54.6908896 13.1662435,54.6461265 13.0051502,54.4519493 C12.844057,54.2577721 12.8517706,53.9742873 13.0231847,53.7891577 L14.1829071,52.4614617 L12.5202696,53.4220296 C12.2980864,53.5594593 12.0076753,53.5038829 11.8519331,53.2941291 C11.6961909,53.0843753 11.7269874,52.7903023 11.9228064,52.6173654 L12.1239724,52.4161993 L11.7417569,52.6364761 C11.5680423,52.7308144 11.3551727,52.7146368 11.1977098,52.5951298 C11.0402469,52.4756228 10.9673979,52.2749534 11.0115241,52.0822636 L11.3434481,50.8249757 L10.4452416,51.3429783 C10.3291468,51.4119014 10.1897158,51.4297398 10.0600086,51.392264 C9.9314676,51.3554332 9.82288552,51.2689295 9.75825954,51.1518706 L9.37604402,50.4588535 C9.13370355,50.5152034 8.88658316,50.385879 8.79474333,50.1546439 C8.70290349,49.9234088 8.79395177,49.6597736 9.00891596,49.5344954 L9.32675834,49.3514343 C9.44320399,49.2824595 9.58296199,49.2646258 9.71299718,49.3021486 C9.84153822,49.3389794 9.9501203,49.4254832 10.0147463,49.5425421 L10.3869035,50.2164484 L11.8865965,49.3514343 C12.0623265,49.2503619 12.2815596,49.2646804 12.4426504,49.3877512 C12.6037413,49.5108219 12.67519,49.7185796 12.6238701,49.9146993 L12.2919461,51.1719872 L15.3094371,49.4288833 C15.5316202,49.2914536 15.8220313,49.34703 15.9777735,49.5567838 C16.1335157,49.7665375 16.1027193,50.0606106 15.9069003,50.2335475 L15.7057342,50.4286786 L16.3092324,50.0816671 C16.522272,49.9580294 16.7935091,50.0068876 16.950016,50.1970922 C17.1065229,50.3872967 17.1022358,50.6628658 16.939888,50.8481098 L15.7771481,52.1697709 L16.7648735,51.6004709 C16.9695287,51.4823424 17.2288222,51.5226254 17.387992,51.6972768 C17.5471618,51.8719281 17.5632731,52.133837 17.4267099,52.3266804 L16.3957338,53.7790994 L16.7648735,53.5658633 C16.9651288,53.4519244 17.2171981,53.4886372 17.3766339,53.6549637 C17.5360697,53.8212901 17.5620907,54.0746864 17.4397857,54.2699446 L17.0183428,54.9287634 C17.1677047,54.9294427 17.3090368,54.9964779 17.4040632,55.1117143 C17.4990895,55.2269508 17.5379769,55.378464 17.5101938,55.5252208 L17.283882,56.7241705 C17.4330987,56.8178428 17.5224174,56.9827689 17.5194081,57.1589239 C17.5162437,57.335079 17.4212015,57.4967744 17.2687945,57.5851613 L16.9036781,57.7963856 C16.8273248,57.8421092 16.7402056,57.8667525 16.6512147,57.8677996 L16.6512147,57.8677996 Z" id="Path" fill="#D4E8FA"></path>
            <path d="M1.96508627,50.0685913 C2.72448815,50.0756321 3.48288421,50.0685913 4.2422861,50.0685913 C3.00712647,56.1246957 8.7514234,53.9661838 12.5625145,54.2659212 C13.827849,55.4890109 15.0348454,56.8348119 16.3484598,57.99554 C25.3003496,58.4552045 35.0619328,58.0699715 44.2431519,58.108193 C47.3159635,57.3467795 45.4501483,53.0337791 45.937976,50.7294219 C49.6836881,53.3526273 52.861106,61.0281184 58.1749076,58.7448836 C59.0868968,58.2495988 59.7312667,57.3742533 59.9332261,56.3562927 C60.1351854,55.3383321 59.8737971,54.2832878 59.2199653,53.4773503 C56.3030574,50.3592763 53.1165869,47.46852 50.1443583,44.3926909 C56.6098356,35.9044888 54.4694287,22.5450506 45.9399876,16.3018618 C45.7257458,12.6335987 47.7957446,6.91243586 41.9267247,8.1646946 C42.4658497,4.6211544 41.332279,3.55296261 37.9034034,4.00256876 C38.2826014,1.43367813 37.7806921,-0.414032155 34.8698192,0.158285294 C24.2200878,0.158285294 13.5706917,0.158285294 2.92163089,0.158285294 C-2.07633994,0.0677605662 1.03771072,7.52196903 0.223993991,10.7225211 C0.223993991,22.5403567 0.223993991,34.3578571 0.223993991,46.1750222 C0.293396283,47.6918143 -0.347317628,50.2013609 1.96508627,50.0685913 Z M13.715196,53.5236185 C12.6500217,52.4393334 11.5244976,51.33292 10.4080259,50.2315358 C16.1010255,49.7819297 16.7719143,50.414597 16.3132557,56.1216782 L13.715196,53.5236185 Z M57.3682317,53.5789391 C59.2410877,54.9106585 58.7633183,58.558805 56.1049088,58.2892425 C52.1741239,56.0130485 49.4302188,51.7724679 45.9580926,48.7831402 C47.1868006,47.8165305 48.3050189,46.7172021 49.2924201,45.5051392 L57.3682317,53.5789391 Z M52.5201295,32.7190242 C50.1222301,65.9114246 1.96910959,52.1074094 16.4108212,22.6697736 C25.7107283,5.57971069 53.0351147,13.5257702 52.5201295,32.7190242 Z M43.4998433,8.8647525 C45.5829179,9.70462081 44.0379625,13.4100997 44.4775103,15.2789324 C27.0042261,3.37090732 3.73031847,25.2688391 15.2138832,43.3184641 C20.9913725,53.2329335 35.0659561,56.3178151 44.4835453,49.8563611 C44.2984725,52.2351498 44.8567084,55.4890109 44.2682976,57.4604383 C35.4743232,57.4855841 26.601894,57.4604383 17.781768,57.4463567 C18.2846831,49.4852098 17.7143773,48.7509536 9.69589806,49.2860554 C9.8497901,35.850174 9.59531503,22.2473248 9.76731202,8.87078748 C19.9825247,8.81949013 30.2862504,8.9542714 40.5366672,8.82854261 C40.7559382,9.10916926 41.379553,9.05183694 41.7104711,8.80540851 C42.3075681,8.79188786 42.9049542,8.81169999 43.4998433,8.8647525 Z M38.9042046,4.98023582 C40.9500634,4.54672296 40.41295,6.83699858 40.4562007,8.16871792 L11.1865386,8.16871792 C7.65305669,7.63864534 8.19519923,11.1419523 8.27164234,13.5559451 C8.30785223,25.6631246 8.21531584,37.812549 8.27667149,49.8945827 C9.04311419,51.2021621 10.6202561,52.1074094 11.5898765,53.2922775 C8.13786691,53.076024 4.78442864,54.7125099 5.6293261,49.6712884 C5.68464677,49.5878044 5.70677504,49.5113613 5.6293261,49.4701223 C5.94012767,34.8020988 5.47945739,20.1250229 5.71079836,5.45901105 C15.647396,4.06090692 28.1307561,5.46001688 38.9042046,4.98023582 Z M3.6850561,0.78290592 L34.8959708,0.78290592 C36.9388121,0.396667079 36.364483,2.73723422 36.4348911,4.00659208 C26.4067629,4.04682529 16.3725997,3.94523643 6.34849478,4.00659208 C3.87012888,4.10717511 4.2422861,6.14599316 4.2422861,7.91323702 L4.2422861,49.4439707 C-0.485116381,50.5503841 2.440844,41.6528091 1.68144212,38.7821694 C1.58085909,26.1489406 1.87456154,13.3557849 1.58085909,0.780894259 C1.94597549,0.544524135 3.25657239,0.78290592 3.6850561,0.78290592 Z" id="Shape" fill="#262626"></path>
            <path d="M37.7384472,17.8216714 C50.4119092,21.6589141 52.2555962,40.4790051 40.3666818,46.4948762 C28.9454786,52.9482835 14.669729,41.0583634 18.2716073,28.6413881 C20.0089098,21.8759342 26.072761,17.1201423 33.057313,17.0451704 C36.8462757,13.9804055 19.9754839,17.7663508 17.8592169,25.80897 C11.4349787,38.6041374 25.2550872,53.3767672 38.4998608,48.3184466 C53.3680445,43.834455 53.5289773,21.4386373 38.6004438,16.9144125 C38.0412022,16.7233047 36.8885206,17.5309865 37.7384472,17.8216714 Z" id="Path" fill="#262626"></path>
        </g>
    </g>
</svg>