<?xml version="1.0" encoding="UTF-8"?>
<svg width="51px" height="60px" viewBox="0 0 51 60" version="1.1" xmlns="http://www.w3.org/2000/svg" xmlns:xlink="http://www.w3.org/1999/xlink">
    <title>role-skills-chart</title>
    <g id="Page-1" stroke="none" stroke-width="1" fill="none" fill-rule="evenodd">
        <g id="role-skills-chart" fill-rule="nonzero">
            <path d="M3.90605545,59.9070425 C3.69701912,59.9068024 3.50945165,59.7785882 3.43332969,59.5839046 C3.35720774,59.389221 3.40806027,59.1677838 3.56149318,59.0258169 L6.15028403,56.636242 L2.31232791,58.8509947 C2.08534941,58.9835432 1.79474959,58.9211407 1.64219791,58.7070933 C1.48964623,58.4930459 1.52548552,58.1979902 1.72484416,58.026688 L5.52214397,54.7294608 L2.03078293,56.7439812 C1.79831068,56.8771743 1.50236497,56.8070114 1.35442923,56.5836311 C1.20649349,56.3602508 1.25738746,56.06039 1.47074219,55.8983299 L2.81341699,54.8900533 L2.03078293,55.3423548 C1.80324299,55.4760168 1.51125856,55.4132821 1.35870131,55.1979539 C1.20614406,54.9826257 1.24378058,54.6863589 1.44533199,54.5160152 L5.37069919,51.1496723 L2.03078293,53.0767816 C1.80264835,53.2075309 1.51244958,53.1426654 1.36169523,52.9272266 C1.21094087,52.7117878 1.24942027,52.4169282 1.45041403,52.2473928 L5.036301,49.244924 L2.03078293,50.9809486 C1.80222061,51.1147023 1.50925709,51.0505196 1.35755206,50.8334565 C1.20584704,50.6163935 1.2462569,50.3192166 1.45041403,50.1505434 L5.00784158,47.1805996 L2.03078293,48.8983289 C1.79696008,49.0313328 1.49999372,48.9590877 1.35339912,48.7335368 C1.20680452,48.5079859 1.26136711,48.2072679 1.47785704,48.0475955 L1.89153505,47.7426731 C1.66343133,47.7955694 1.42871027,47.6857638 1.32312532,47.4767634 C1.21754037,47.2677631 1.26842453,47.0136724 1.4463484,46.8614475 L4.81777331,43.9799312 L2.03078293,45.5848392 C1.8064337,45.7190958 1.51682632,45.6612236 1.36130313,45.4510571 C1.20577994,45.2408907 1.23509468,44.9470161 1.42906947,44.7717129 L3.54218143,42.7917504 L2.03078293,43.6638283 C1.82842172,43.7789655 1.57370159,43.7418666 1.41258913,43.573791 C1.25147668,43.4057154 1.22518202,43.1496543 1.34877325,42.9523428 L2.20967071,41.6117008 C1.98478487,41.674044 1.74603703,41.5777948 1.627269,41.3769106 C1.48763008,41.1340736 1.57082294,40.8240325 1.81327164,40.6837205 L3.49644308,39.7110181 C3.69881156,39.5915045 3.95705143,39.6286978 4.11746829,39.800462 C4.27952352,39.9698265 4.30471701,40.2280597 4.17845276,40.4255529 L3.33381782,41.7438339 L6.85363828,39.7110181 C7.0779875,39.5767615 7.36759488,39.6346337 7.52311807,39.8448002 C7.67864127,40.0549667 7.64932652,40.3488413 7.45535174,40.5241444 L5.34325618,42.504107 L9.05822695,40.3584699 C9.28564045,40.2271218 9.57567502,40.2906784 9.72732021,40.5050915 C9.87896539,40.7195046 9.84226803,41.0141448 9.64266148,41.1848095 L6.27022016,44.0744571 L9.59285749,42.150397 C9.82668034,42.017393 10.1236467,42.0896382 10.2702413,42.3151891 C10.4168359,42.54074 10.3622733,42.841458 10.1457834,43.0011304 L9.73210537,43.3060528 C9.96150489,43.2523498 10.197736,43.3633559 10.3028096,43.5742295 C10.4078833,43.7851031 10.354245,44.0405448 10.1732264,44.191344 L6.61579883,47.159255 L9.58980827,45.4425421 C9.81837058,45.3087884 10.1113341,45.3729711 10.2630391,45.5900342 C10.4147442,45.8070973 10.3743343,46.1042741 10.1701772,46.2729473 L6.58225737,49.2764326 L9.59285749,47.5373587 C9.81989001,47.405934 10.1096473,47.4689055 10.2616539,47.6827051 C10.4137728,47.8968433 10.3776416,48.1916215 10.1783084,48.3626819 L6.25294122,51.7300412 L9.59285749,49.7988662 C9.82532973,49.6656732 10.1212754,49.7358361 10.2692112,49.9592164 C10.4171469,50.1825966 10.366253,50.4824574 10.1528982,50.6445176 L8.81022343,51.6538106 L9.59285749,51.2015091 C9.81983598,51.0689607 10.1104358,51.1313631 10.2629875,51.3454105 C10.4155392,51.559458 10.3796999,51.8545137 10.1803412,52.0258159 L6.38304143,55.323043 L9.59285749,53.4711479 C9.81701529,53.3409672 10.1032282,53.4003566 10.2570847,53.6089757 C10.4109413,53.8175947 10.3831284,54.1085782 10.1925381,54.2842742 L7.60273088,56.6748655 L9.59285749,55.5263246 C9.80785943,55.4027108 10.0806847,55.4523357 10.238387,55.6437415 C10.3960893,55.8351473 10.392606,56.1124272 10.2301452,56.299811 L9.24219677,57.4351386 L9.56948011,57.2460867 C9.72680501,57.1538556 9.92148729,57.1529922 10.0796241,57.2438243 C10.2377608,57.3346563 10.3351051,57.5032565 10.3347042,57.685623 C10.3343033,57.8679895 10.2362187,58.0361601 10.077684,58.1262959 L7.11587151,59.835894 C6.90114853,59.9582286 6.629549,59.9083665 6.47228164,59.7177394 C6.31501427,59.5271123 6.31767382,59.2509865 6.47858377,59.063424 L7.46653222,57.9280964 L4.16015742,59.835894 C4.08319867,59.8815696 3.99554315,59.9061132 3.90605545,59.9070425 L3.90605545,59.9070425 Z" id="Path" fill="#F5EC83"></path>
            <path d="M17.6702508,59.9070436 C17.4628103,59.9074632 17.275936,59.7817634 17.198124,59.5894692 C17.120312,59.3971751 17.167183,59.1768899 17.3165409,59.0329318 L19.7559198,56.6728327 L15.6526812,59.0420794 C15.4227661,59.1726278 15.1311595,59.1050807 14.9820606,58.8867384 C14.8329618,58.6683961 14.8761837,58.3722055 15.08146,58.2055757 L17.4801826,56.2896469 L15.2440853,57.5784521 C15.017229,57.7088038 14.7284756,57.6456139 14.5767987,57.4324251 C14.4251219,57.2192363 14.4600946,56.9257258 14.6576179,56.7541453 L18.6897079,53.2648171 L15.2440853,55.2539273 C15.0150732,55.3865595 14.7226065,55.3212381 14.5717876,55.1037721 C14.4209687,54.8863061 14.4622865,54.5894956 14.6667656,54.4214892 L18.0209116,51.6578762 L15.2440853,53.259735 C15.0144702,53.393856 14.7202839,53.3282922 14.5693518,53.1093607 C14.4184198,52.8904292 14.4617788,52.5921605 14.6687984,52.4252642 L17.8196628,49.8659492 L15.2440853,51.3488882 C15.0117559,51.484043 14.71436,51.4149202 14.5654531,51.1911559 C14.4165462,50.9673916 14.4676255,50.6663714 14.6820117,50.5042533 L16.3824621,49.2144317 L15.2481509,49.8689984 C15.0170064,49.9984361 14.7252035,49.9286006 14.5777015,49.7085436 C14.4301995,49.4884866 14.4764837,49.1920347 14.6840445,49.0274127 L16.7371884,47.4418164 L15.2481509,48.3016975 C15.0182281,48.4366517 14.7231029,48.3709906 14.5720873,48.1512829 C14.4210717,47.9315753 14.4655079,47.6325173 14.6738804,47.4662102 L17.7231041,44.9973555 L15.2440853,46.4264249 C15.0143186,46.5587164 14.7214588,46.4921454 14.5714584,46.2735279 C14.4214581,46.0549103 14.4647247,45.7577125 14.6708312,45.5909377 L17.618414,43.2227073 L15.2440853,44.5897759 C15.0137158,44.7193593 14.7224743,44.6507233 14.5742108,44.4319086 C14.4259473,44.2130939 14.4701645,43.9171592 14.6759133,43.7512394 L17.1579813,41.7987199 L15.2440853,42.9035552 C15.0130849,43.0347016 14.7200543,42.9658261 14.5716645,42.7455059 C14.4232747,42.5251857 14.4695906,42.227754 14.6779461,42.0629859 L16.9069285,40.3350926 L15.2440853,41.2945816 C15.0159507,41.4253308 14.7257519,41.3604654 14.5749976,41.1450266 C14.4242432,40.9295878 14.4627226,40.6347282 14.6637164,40.4651928 L18.0798632,37.605021 L15.2440853,39.2424541 C15.0184666,39.3727403 14.7308652,39.3113042 14.5781717,39.1002048 C14.4254782,38.8891054 14.4571564,38.5967265 14.6515195,38.4232293 L17.3958207,35.9706372 L15.2440853,37.2076055 C15.0169517,37.3384407 14.7275708,37.2750637 14.5759141,37.0612699 C14.4242575,36.8474762 14.4600831,36.5534107 14.6586343,36.3822823 L15.0560498,36.0397529 C14.8530048,36.0646323 14.6548355,35.9653464 14.5532002,35.7878175 C14.4515649,35.6102886 14.4662783,35.3891274 14.590535,35.2266266 L15.1597234,34.5059934 C14.9585356,34.4563502 14.8076386,34.2895263 14.7783643,34.0843824 C14.7490899,33.8792385 14.847302,33.6768664 15.026574,33.572931 L16.7097454,32.6012451 C16.9206142,32.4807923 17.1872367,32.5263592 17.3461336,32.7100064 C17.5050305,32.8936536 17.5117949,33.1640573 17.3622793,33.3554197 L17.0299139,33.7762126 L19.0708609,32.596163 C19.2975922,32.4678771 19.5846118,32.5318098 19.7354586,32.7442 C19.8863054,32.9565902 19.8521243,33.2486507 19.6563118,33.4204698 L19.4184724,33.6237514 L21.1463658,32.6256389 C21.3719844,32.4953527 21.6595858,32.5567887 21.8122793,32.7678881 C21.9649728,32.9789875 21.9332946,33.2713665 21.7389316,33.4448636 L18.9946303,35.8984722 L22.6323541,33.7985735 C22.8609164,33.6648198 23.1538799,33.7290026 23.3055849,33.9460656 C23.45729,34.1631287 23.4168801,34.4603055 23.212723,34.6289788 L19.8006417,37.4850849 L22.8061598,35.7470274 C23.0371602,35.6158811 23.3301907,35.6847566 23.4785805,35.9050768 C23.6269703,36.125397 23.5806545,36.4228286 23.372299,36.5875967 L21.1362017,38.3236214 L22.8031106,37.3620995 C23.0334801,37.2325162 23.3247215,37.3011522 23.4729851,37.5199669 C23.6212486,37.7387816 23.5770314,38.0347162 23.3712826,38.200636 L20.8892146,40.1531555 L22.8031106,39.0483202 C23.0328772,38.9160288 23.325737,38.9825997 23.4757374,39.2012173 C23.6257378,39.4198348 23.5824711,39.7170326 23.3763646,39.8838075 L20.4287818,42.2530542 L22.799045,40.8849692 C23.0285078,40.753405 23.3205225,40.8198474 23.470473,41.0377401 C23.6204234,41.2556327 23.5781681,41.5521149 23.3733154,41.7194401 L20.3240918,44.1893112 L22.8061598,42.7602417 C23.0373043,42.630804 23.3291073,42.7006396 23.4766092,42.9206966 C23.6241112,43.1407535 23.577827,43.4372054 23.3702662,43.6018275 L21.3171223,45.1864073 L22.8061598,44.3275427 C23.0384891,44.192388 23.335885,44.2615108 23.4847919,44.485275 C23.6336989,44.7090393 23.5826196,45.0100595 23.3682334,45.1721776 L21.667783,46.464032 L22.8061598,45.8094654 C23.0353226,45.6785798 23.3265355,45.7448812 23.4764506,45.9620726 C23.6263656,46.179264 23.5850905,46.4750632 23.3814467,46.6429198 L20.2305823,49.2022348 L22.8061598,47.7203121 C23.0351719,47.58768 23.3276385,47.6530013 23.4784575,47.8704673 C23.6292764,48.0879334 23.5879585,48.3847438 23.3834795,48.5527502 L20.0293335,51.3173796 L22.8051434,49.7145044 C23.0319996,49.5841527 23.3207531,49.6473426 23.4724299,49.8605314 C23.6241068,50.0737202 23.5891341,50.3672307 23.3916108,50.5388112 L19.3605371,54.0291558 L22.8061598,52.0390292 C23.0365471,51.9051115 23.33125,51.971894 23.4814018,52.1920455 C23.6315537,52.4121969 23.5861548,52.710942 23.377381,52.8765493 L20.9827241,54.7894289 L22.8061598,53.7374467 C23.0284923,53.6056094 23.3143659,53.6616605 23.4704521,53.8676943 C23.6265383,54.0737281 23.6031072,54.364101 23.4160045,54.5424418 L20.9766256,56.9045737 L22.8061598,55.8485259 C23.0152159,55.7278381 23.2803237,55.7708633 23.4404815,55.951472 C23.6006392,56.1320806 23.6116492,56.4004313 23.4668249,56.5935529 L22.6242228,57.7116015 L22.6628463,57.6892406 C22.820384,57.5890942 23.0201452,57.5833777 23.183152,57.6743513 C23.3461588,57.7653248 23.4461691,57.9383425 23.4436426,58.1250001 C23.4411162,58.3116576 23.3364596,58.4819051 23.1710502,58.5684334 L20.967478,59.835894 C20.7584789,59.9554242 20.4942858,59.9118952 20.3346812,59.731633 C20.1750766,59.5513708 20.1638659,59.2838505 20.3078293,59.090867 L21.149415,57.9728183 L17.9243528,59.835894 C17.8473941,59.8815696 17.7597385,59.9061132 17.6702508,59.9070436 L17.6702508,59.9070436 Z" id="Path" fill="#6FD5D2"></path>
            <path d="M32.6236434,59.9070434 C32.4175484,59.9074135 32.2316359,59.783278 32.1529859,59.59278 C32.0743359,59.4022821 32.1185234,59.1831462 32.2648515,59.0380138 L33.1511591,58.1567882 L30.2645608,59.8236971 C30.0351009,59.9597489 29.7395019,59.8952285 29.5876027,59.6759374 C29.4357035,59.4566463 29.4792114,59.1572324 29.6872411,58.9902426 L31.1701802,57.7705532 L28.899525,59.0817193 C28.671528,59.2102843 28.3831712,59.1446484 28.2332809,58.9300686 C28.0833906,58.7154889 28.1209981,58.4221573 28.3201725,58.2523305 L31.4161509,55.6686217 L28.4573876,57.3761869 C28.22592,57.5064519 27.933181,57.4365057 27.7856038,57.2156727 C27.6380267,56.9948397 27.6853915,56.6976105 27.8942976,56.5335848 L29.8254726,55.0536949 L28.4604368,55.841411 C28.232455,55.9738844 27.9410249,55.9099943 27.7893731,55.6942941 C27.6377212,55.4785938 27.6762255,55.1827376 27.8780351,55.0130386 L31.6184161,51.8489609 L28.4573876,53.6723966 C28.2263872,53.803543 27.9333567,53.7346675 27.7849669,53.5143473 C27.6365771,53.2940271 27.6828929,52.9965954 27.8912484,52.8318273 L30.1527559,51.0703925 L28.4573876,52.0491933 C28.2262431,52.178631 27.9344401,52.1087954 27.7869382,51.8887385 C27.6394362,51.6686815 27.6857204,51.3722296 27.8932812,51.2076076 L29.9393103,49.6291261 L28.4573876,50.4849416 C28.2255915,50.6161004 27.9318569,50.5460605 27.7841848,50.3244188 C27.6365127,50.1027771 27.685001,49.804726 27.895314,49.641323 L29.6801263,48.2783201 L28.4604368,48.9898056 C28.2328717,49.1194826 27.9440219,49.0549683 27.7932562,48.8407915 C27.6424904,48.6266147 27.6791947,48.3329327 27.8780351,48.1624496 L31.6489083,44.963814 L28.4604368,46.8035122 C28.226979,46.9352689 27.9313259,46.8630323 27.784928,46.638466 C27.6385301,46.4138997 27.6917367,46.1142366 27.9064945,45.9537953 L28.3933539,45.5980525 C28.1583007,45.6965686 27.8866297,45.6057462 27.7580835,45.385675 C27.6295373,45.1656039 27.6838768,44.8843549 27.88515,44.7280074 L30.7199115,42.4553194 L28.4573876,43.7603871 C28.2305314,43.8907388 27.9417779,43.8275488 27.7901011,43.6143601 C27.6384242,43.4011713 27.6733969,43.1076608 27.8709202,42.9360803 L31.8989446,39.4508177 L28.4573876,41.4389115 C28.230254,41.5697467 27.9408731,41.5063696 27.7892165,41.2925759 C27.6375598,41.0787821 27.6733854,40.7847167 27.8719366,40.6135883 L31.8359273,37.2035399 L28.4573876,39.1519938 C28.226705,39.2823303 27.9345943,39.2135673 27.786276,38.9940138 C27.6379578,38.7744602 27.6832061,38.477796 27.890232,38.3124409 L30.2706592,36.4493653 L28.4573876,37.495249 C28.2285211,37.6254991 27.9380714,37.5593501 27.7881789,37.3428387 C27.6382864,37.1263272 27.6786092,36.8311819 27.8810843,36.6628109 L31.1732294,33.9581496 L28.4573876,35.5254505 C28.2309293,35.6533224 27.9444755,35.5895959 27.7935871,35.377777 C27.6426988,35.165958 27.6760708,34.8744049 27.8709202,34.7021601 L31.9335025,31.1803069 L28.4573876,33.1856796 C28.230254,33.3165148 27.9408731,33.2531377 27.7892165,33.039344 C27.6375598,32.8255502 27.6733854,32.5314848 27.8719366,32.3603564 L31.1529013,29.5306769 L28.4573876,31.0857809 C28.2316168,31.2144526 27.9451473,31.1520753 27.7933149,30.9411825 C27.6414826,30.7302897 27.6732063,30.4388291 27.8668546,30.2655398 L29.4219587,28.8913563 L28.4573876,29.4483478 C28.2550264,29.563485 28.0003062,29.5263861 27.8391938,29.3583105 C27.6780813,29.1902349 27.6517867,28.9341739 27.7753779,28.7368623 L28.6423738,27.3809742 C28.4159399,27.4498996 28.1719027,27.3533806 28.0538737,27.1482168 C27.9140635,26.9056455 27.9967799,26.595686 28.2388599,26.4550267 L29.9230477,25.4833407 C30.1254089,25.3682036 30.3801291,25.4053025 30.5412415,25.5733781 C30.702354,25.7414537 30.7286486,25.9975147 30.6050574,26.1948262 L29.7533076,27.527337 L33.3026039,25.4813079 C33.5283747,25.3526363 33.8148442,25.4150135 33.9666765,25.6259064 C34.1185089,25.8367992 34.0867852,26.1282597 33.8931369,26.3015491 L32.3400657,27.6726833 L35.3100095,25.9580032 C35.537143,25.827168 35.8265239,25.8905451 35.9781806,26.1043388 C36.1298372,26.3181326 36.0940116,26.612198 35.8954604,26.7833264 L32.6144958,29.6119895 L36.0194621,27.6462567 C36.2463184,27.515905 36.5350718,27.5790949 36.6867487,27.7922837 C36.8384255,28.0054725 36.8034528,28.298983 36.6059295,28.4705635 L32.5433472,31.9924167 L36.0164129,29.987044 C36.2457245,29.8536946 36.5390269,29.9191444 36.6898942,30.1373299 C36.8407615,30.3555154 36.7984403,30.6530366 36.5927162,30.8204985 L33.3005711,33.5241434 L36.0164129,31.9568425 C36.2470955,31.8265059 36.5392062,31.895269 36.6875245,32.1148225 C36.8358427,32.334376 36.7905944,32.6310402 36.5835685,32.7963954 L34.2061905,34.659471 L36.0194621,33.6125709 C36.2461934,33.484285 36.5332131,33.5482177 36.6840599,33.7606079 C36.8349066,33.972998 36.8007255,34.2650585 36.6049131,34.4368777 L32.6409224,37.8459097 L36.0164129,35.8974558 C36.2428712,35.7695839 36.529325,35.8333104 36.6802134,36.0451293 C36.8311017,36.2569483 36.7977297,36.5485014 36.6028803,36.7207462 L32.5748559,40.2070252 L36.0164129,38.2199478 C36.246328,38.0893994 36.5379347,38.1569465 36.6870335,38.3752888 C36.8361324,38.5936311 36.7929105,38.8898217 36.5876341,39.0564515 L33.753889,41.3240574 L36.0194621,40.0159405 C36.25292,39.8841839 36.5485731,39.9564205 36.694971,40.1809867 C36.8413688,40.405553 36.7881622,40.7052161 36.5734044,40.8656575 L36.0834958,41.2244494 C36.314709,41.1317064 36.579062,41.2202358 36.7077895,41.4335197 C36.8365171,41.6468036 36.7916636,41.9219546 36.6018639,42.0833141 L32.8309907,45.2819497 L36.0194621,43.441235 C36.2517915,43.3060803 36.5491874,43.3752031 36.6980943,43.5989674 C36.8470012,43.8227316 36.7959219,44.1237519 36.5815357,44.28587 L34.7967235,45.6478565 L36.0164129,44.9424694 C36.2475574,44.8130317 36.5393604,44.8828673 36.6868623,45.1029243 C36.8343643,45.3229812 36.7880801,45.6194331 36.5805193,45.7840552 L34.5344902,47.3625366 L36.0164129,46.5077376 C36.2474133,46.3765912 36.5404439,46.4454667 36.6888337,46.6657869 C36.8372234,46.8861071 36.7909076,47.1835388 36.5825521,47.3483069 L34.3240938,49.1127909 L36.0194621,48.1339902 C36.2470273,48.0043131 36.535877,48.0688274 36.6866428,48.2830043 C36.8374085,48.4971811 36.8007043,48.790863 36.6018639,48.9613462 L32.8614829,52.1254239 L36.0194621,50.3030045 C36.2514491,50.1689954 36.5476258,50.2380947 36.6963601,50.4609276 C36.8450944,50.6837606 36.7952977,50.9837866 36.5825521,51.1466231 L34.6513772,52.6265129 L36.0164129,51.8387968 C36.2448367,51.7074601 36.5357557,51.772488 36.6865196,51.9885829 C36.8372834,52.2046778 36.7978836,52.5001607 36.5957654,52.6692021 L33.4987706,55.2539273 L36.0164129,53.800464 C36.2452794,53.6702139 36.5357291,53.7363629 36.6856216,53.9528743 C36.8355141,54.1693858 36.7951913,54.4645311 36.5927162,54.6329021 L35.1128263,55.8525915 L36.0164129,55.3311743 C36.2370984,55.2085276 36.5143598,55.2664891 36.6674328,55.4672699 C36.8205059,55.6680507 36.8029699,55.9507623 36.6262576,56.1310873 L35.7389336,57.0133293 L36.0143801,56.8557861 C36.255701,56.7295474 36.5536385,56.8159817 36.6899322,57.0517697 C36.8262258,57.2875578 36.7524206,57.5888723 36.522584,57.7349789 L32.8777454,59.835894 C32.8009824,59.8820253 32.7132005,59.9066042 32.6236434,59.9070434 L32.6236434,59.9070434 Z" id="Path" fill="#3FA2FF"></path>
            <path d="M45.2057565,59.9070425 C45.0042683,59.9070425 44.8219148,59.7876608 44.7409005,59.6031771 C44.6598862,59.4186935 44.6955122,59.2037697 44.8317184,59.0552927 L46.8807967,56.8191954 L42.4218153,59.3937566 C42.1917406,59.5268299 41.8979871,59.4601448 41.7479204,59.2407756 C41.5978537,59.0214064 41.6421666,58.723456 41.8495777,58.5572529 L43.9403287,56.8832291 L41.7042314,58.1771163 C41.4725371,58.3152866 41.1732585,58.248352 41.0224993,58.0246448 C40.8717401,57.8009376 40.9220389,57.4984183 41.1370758,57.3355306 L43.4189114,55.5527512 L41.6717063,56.5610278 C41.4425435,56.6919133 41.1513306,56.625612 41.0014156,56.4084206 C40.8515005,56.1912292 40.8927757,55.8954299 41.0964195,55.7275734 L44.312334,53.0981262 L41.6696735,54.622738 C41.4419773,54.7546312 41.1512606,54.6909033 40.9996173,54.4758552 C40.847974,54.260807 40.8855636,53.9655707 41.0862554,53.795382 L44.9008341,50.5499917 L41.6706899,52.4161165 C41.4432764,52.5474647 41.1532418,52.483908 41.0015967,52.2694949 C40.8499515,52.0550818 40.8866488,51.7604417 41.0862554,51.5897769 L44.9567366,48.2823857 L41.6706899,50.1800192 C41.4373707,50.3136688 41.1403232,50.2424452 40.9929792,50.0175235 C40.8456353,49.7926017 40.8989932,49.4918311 41.1147148,49.3313186 L41.8942996,48.7570482 L41.6686571,48.886132 C41.4345913,49.022679 41.1345602,48.9515544 40.9866964,48.7244681 C40.8388326,48.4973819 40.8951548,48.1942232 41.1147148,48.0353986 L41.5720983,47.7030332 C41.340668,47.7779085 41.0886312,47.6782963 40.9709238,47.4654318 C40.8532164,47.2525673 40.9028464,46.9861428 41.0893046,46.8299389 L44.6182727,43.882356 L41.6706899,45.5848392 C41.4421164,45.7144931 41.1523951,45.6485064 41.0025135,45.4326558 C40.8526319,45.2168052 40.8920274,44.9222875 41.0933702,44.7534176 L44.4932546,41.9471154 L41.6706899,43.573368 C41.4385592,43.7054982 41.1437599,43.6353847 40.9959697,43.4128962 C40.8481796,43.1904078 40.8978413,42.8914827 41.1096328,42.7287331 L42.7653612,41.4704201 L41.6706899,42.1026258 C41.438076,42.2339761 41.1434782,42.1628131 40.9964734,41.9397622 C40.8494686,41.7167112 40.9002458,41.4179241 41.112682,41.2559581 L42.281551,40.3828637 L41.6717063,40.7345408 C41.4402387,40.8648059 41.1474997,40.7948596 40.9999226,40.5740266 C40.8523454,40.3531936 40.8997102,40.0559645 41.1086164,39.8919387 L43.0052334,38.4384755 L41.6706899,39.2028142 C41.4409233,39.3351056 41.1480635,39.2685347 40.9980631,39.0499171 C40.8480627,38.8312996 40.8913294,38.5341017 41.0974359,38.3673269 L44.130397,35.9218496 L41.6706899,37.3387222 C41.4392223,37.4689872 41.1464833,37.3990409 40.9989062,37.1782079 C40.851329,36.9573749 40.8986938,36.6601458 41.1075999,36.49612 L43.1139891,34.9501637 L41.6706899,35.7826017 C41.4403204,35.9121851 41.149079,35.8435491 41.0008154,35.6247344 C40.8525519,35.4059197 40.8967691,35.109985 41.1025179,34.9440652 L43.6272751,32.9539386 L41.6706899,34.0831677 C41.4407748,34.2137161 41.1491682,34.146169 41.0000693,33.9278267 C40.8509704,33.7094844 40.8941924,33.4132938 41.0994687,33.2466641 L43.9098365,31.0004027 L41.6706899,32.2912407 C41.4425553,32.4219899 41.1523566,32.3571245 41.0016022,32.1416857 C40.8508479,31.9262469 40.8893272,31.6313873 41.090321,31.4618518 L44.6863721,28.4482025 L41.6706899,30.191342 C41.4431248,30.321019 41.154275,30.2565047 41.0035093,30.0423279 C40.8527435,29.8281511 40.8894478,29.5344692 41.0882882,29.363986 L44.8327348,26.1927934 L41.6706899,28.0223276 C41.4438337,28.1526793 41.1550802,28.0894894 41.0034034,27.8763006 C40.8517265,27.6631118 40.8866992,27.3696013 41.0842226,27.1980208 L45.1254603,23.6934465 L41.6706899,25.6845895 C41.4412271,25.8161537 41.1492123,25.7497113 40.9992619,25.5318187 C40.8493114,25.3139261 40.8915668,25.0174438 41.0964195,24.8501186 L43.4880272,22.9057304 L41.6706899,23.9566961 C41.4480303,24.0907495 41.1601082,24.0352058 41.0032919,23.8279469 C40.8464756,23.620688 40.8713046,23.3285104 41.0608452,23.1506847 L42.9554295,21.3262325 L41.6666243,22.0692267 C41.4604271,22.1881307 41.1993263,22.1479903 41.0383662,21.9726413 C40.8774061,21.7972923 40.8597137,21.5337171 40.9957951,21.3384294 L41.7326908,20.2844145 C41.5401518,20.2990845 41.3567169,20.2002202 41.2631104,20.0313289 C41.1233002,19.7887576 41.2060166,19.4787981 41.4480966,19.3381387 L43.1322844,18.3664528 C43.3382435,18.2484158 43.5984814,18.2886859 43.759131,18.4634531 C43.9197806,18.6382204 43.9380401,18.9009218 43.8031136,19.0962337 L43.1393993,20.0455586 L46.0615719,18.3664528 C46.2842315,18.2323995 46.5721536,18.2879432 46.7289699,18.4952021 C46.8857862,18.7024609 46.8609572,18.9946386 46.6714166,19.1724643 L44.7778488,20.9959 L48.5111149,18.8340004 C48.7401284,18.7053946 49.0294116,18.7724873 49.1784359,18.9887704 C49.3274602,19.2050535 49.2871229,19.4992628 49.0853853,19.6674549 L46.6917448,21.618958 L49.2124363,20.1563471 C49.4392925,20.0259954 49.728046,20.0891853 49.8797228,20.3023741 C50.0313997,20.5155629 49.996427,20.8090734 49.7989037,20.9806539 L45.7586824,24.4842118 L49.2297152,22.4808719 C49.457697,22.3483985 49.7491271,22.4122886 49.900779,22.6279889 C50.0524308,22.8436891 50.0139266,23.1395453 49.812117,23.3092443 L46.0707196,26.4773876 L49.2327645,24.6529355 C49.460899,24.5221863 49.7510978,24.5870517 49.9018522,24.8024905 C50.0526065,25.0179293 50.0141271,25.3127889 49.8131334,25.4823243 L46.2170823,28.4949573 L49.2327645,26.754867 C49.4626796,26.6243186 49.7542862,26.6918657 49.9033851,26.910208 C50.0524839,27.1285503 50.009262,27.4247409 49.8039857,27.5913707 L46.9936179,29.8376321 L49.2297152,28.5447612 C49.4600847,28.4151779 49.7513262,28.4838139 49.8995897,28.7026286 C50.0478532,28.9214433 50.003636,29.2173779 49.7978872,29.3832977 L47.2812614,31.3764736 L49.2378465,30.2472444 C49.4693141,30.1169794 49.7620531,30.1869257 49.9096303,30.4077587 C50.0572074,30.6285916 50.0098426,30.9258208 49.8009365,31.0898466 L47.7894653,32.6327537 L49.2327645,31.7992993 C49.4625311,31.6670078 49.7553909,31.7335788 49.9053913,31.9521963 C50.0553916,32.1708139 50.012125,32.4680117 49.8060185,32.6347865 L46.7781395,35.0833131 L49.2327645,33.6664405 C49.4642321,33.5361755 49.7569711,33.6061218 49.9045482,33.8269548 C50.0521254,34.0477877 50.0047606,34.3450169 49.7958544,34.5090426 L47.9043194,35.9594567 L49.2327645,35.1930851 C49.4653784,35.0617348 49.7599762,35.1328979 49.906981,35.3559488 C50.0539857,35.5789998 50.0032086,35.8777869 49.7907724,36.0397529 L48.6158049,36.9179293 L49.2327645,36.5621865 C49.4648952,36.4300564 49.7596945,36.5001698 49.9074846,36.7226583 C50.0552748,36.9451468 50.0056131,37.2440719 49.7938216,37.4068215 L48.1411424,38.6610688 L49.2327645,38.0319123 C49.4617765,37.8992801 49.7542432,37.9646015 49.9050621,38.1820675 C50.055881,38.3995335 50.0145632,38.696344 49.8100841,38.8643504 L46.4101998,41.6747181 L49.2327645,40.0484655 C49.4607615,39.9199006 49.7491183,39.9855364 49.8990086,40.2001162 C50.0488989,40.414696 50.0112913,40.7080275 49.812117,40.8778544 L46.2800996,43.8254372 L49.2327645,42.1219376 C49.4668303,41.9853906 49.7668613,42.0565152 49.9147251,42.2836014 C50.062589,42.5106877 50.0062668,42.8138463 49.7867068,42.972671 L49.3293232,43.3050364 C49.5666298,43.2271203 49.8253781,43.3331971 49.9397016,43.555268 C50.0540251,43.7773389 49.9900301,44.0495659 49.7887396,44.1974425 L49.0132204,44.7686637 L49.2327645,44.6426291 C49.460178,44.5112809 49.7502125,44.5748376 49.9018577,44.7892507 C50.0535029,45.0036638 50.0168056,45.2983039 49.817199,45.4689687 L45.944685,48.7783927 L49.2327645,46.8797428 C49.4604607,46.7478496 49.7511774,46.8115775 49.9028207,47.0266257 C50.054464,47.2416738 50.0168744,47.5369101 49.8161826,47.7070988 L46.0016038,50.9524892 L49.2327645,49.0873807 C49.4619273,48.9564952 49.7531402,49.0227966 49.9030552,49.239988 C50.0529703,49.4571794 50.0116951,49.7529786 49.8080513,49.9208352 L46.5921368,52.5502824 L49.2347973,51.0256705 C49.4657977,50.8945242 49.7588282,50.9633997 49.907218,51.1837199 C50.0556078,51.4040401 50.009292,51.7014718 49.8009365,51.8662399 L47.5130024,53.64597 L49.2327645,52.653956 C49.4626796,52.5234076 49.7542862,52.5909547 49.9033851,52.809297 C50.0524839,53.0276393 50.009262,53.3238299 49.8039857,53.4904596 L47.7162839,55.1604178 L49.2327645,54.2842742 C49.4499926,54.1595107 49.725735,54.2116508 49.8824112,54.4071158 C50.0390874,54.6025807 50.0299589,54.8830609 49.8609045,55.0679247 L47.8108099,57.304022 L49.2337809,56.4827644 C49.4455667,56.3603946 49.7144789,56.4062498 49.8737424,56.5918912 C50.0330058,56.7775327 50.0374345,57.0502906 49.8842819,57.2410047 L49.3323724,57.9311456 C49.5292649,57.9859898 49.6741432,58.1534499 49.7000949,58.3561837 C49.7260466,58.5589176 49.6280212,58.7574714 49.4512922,58.8601424 L47.7691371,59.8318283 C47.5576118,59.9530861 47.289777,59.9070425 47.1308991,59.7220916 C46.9720212,59.5371478 46.9668751,59.2654316 47.1186361,59.0746045 L47.4113616,58.7086976 L45.4598585,59.835894 C45.3830954,59.8820253 45.2953135,59.9066042 45.2057565,59.9070425 L45.2057565,59.9070425 Z" id="Path" fill="#C384F8"></path>
            <g id="Group" transform="translate(0.328913, 0.000000)" fill="#6FD5D2">
                <path d="M41.9625683,10.6771978 C42.1099122,10.9021195 42.0565543,11.2028901 41.8408327,11.3634026 L36.7811543,15.0915867 C37.0155358,15.0295904 37.2610727,15.1417867 37.3676134,15.3595647 C37.4741541,15.5773428 37.4120277,15.8400531 37.2192261,15.987042 L34.2818073,18.2455003 C34.3062863,18.2722063 34.3277595,18.3015189 34.345841,18.3329114 C34.4861711,18.5759753 34.4028962,18.8867772 34.1598384,19.0271179 L30.54041,21.1168525 C30.4625595,21.1630482 30.3737827,21.1876109 30.2832588,21.1880011 C30.0645124,21.1880011 29.8703079,21.0480264 29.8011342,20.8405053 C29.7319605,20.6329843 29.8033393,20.4044818 29.9783364,20.273234 L30.5068685,19.8666708 L29.5402646,20.4246788 C29.3069455,20.5583284 29.0098979,20.4871048 28.8625539,20.262183 C28.71521,20.0372613 28.7685679,19.7364906 28.9842895,19.5759782 L33.9108185,15.9463857 L28.2748368,19.1988909 C28.1172992,19.2990372 27.917538,19.3047537 27.7545311,19.2137802 C27.6541428,19.1577538 27.5776475,19.07061 27.5342701,18.9683267 L24.4490776,21.2611824 C24.6814912,21.1325175 24.9737865,21.2045596 25.1197881,21.4264927 C25.2657897,21.6484258 25.216231,21.945361 25.0060691,22.1078502 L21.7373014,24.7108708 C21.7581012,24.7347454 21.7764862,24.7606205 21.7921874,24.7881178 C21.9325174,25.0311817 21.8492425,25.3419836 21.6061848,25.4823243 L18.5224033,27.2630709 C18.4451478,27.3076796 18.3575109,27.3311729 18.2683013,27.3311729 C18.0517012,27.3318733 17.8584592,27.1952138 17.7869457,26.9907586 C17.7154323,26.7863034 17.7813655,26.5589906 17.9511821,26.4245344 L19.0397549,25.5575385 L17.3484522,26.5343065 C17.1154899,26.6667484 16.8197191,26.5955399 16.6725621,26.371582 C16.5254052,26.1476242 16.5774354,25.8478844 16.7914607,25.6866223 L23.5048347,20.6970761 L15.8878741,25.0940565 C15.6668588,25.2183473 15.3880424,25.1607041 15.2344319,24.9589623 C15.0808214,24.7572204 15.0994239,24.4731162 15.2780294,24.2931271 L15.3562928,24.2148637 L15.1296338,24.3449639 C14.9181085,24.4662217 14.6502737,24.420171 14.4913958,24.2352272 C14.3325179,24.0502833 14.3273718,23.7785672 14.4791328,23.5877401 L15.331899,22.5215282 L14.0380118,23.2696044 C13.8804741,23.3697507 13.6807129,23.3754672 13.5177061,23.2844937 C13.4892648,23.2686207 13.4627413,23.2502501 13.4383454,23.2297451 C13.465102,23.4075191 13.3940947,23.5923963 13.241148,23.7066598 L8.46403101,27.1949716 C8.68698368,27.1646591 8.90332906,27.2845608 8.9957993,27.4896851 C9.08826954,27.6948095 9.0348498,27.9363215 8.86449571,28.0833121 L4.79276578,31.6122802 C4.9324047,31.8551172 4.84921184,32.1651584 4.60676313,32.3054704 L2.70608042,33.4092893 C2.62932032,33.4544371 2.54204426,33.4786221 2.45299486,33.4794245 C2.24046863,33.4801515 2.04993206,33.3485583 1.97535837,33.149544 C1.90078467,32.9505297 1.95792464,32.7261284 2.11859667,32.5870154 L4.18393746,30.7971211 L1.07881141,32.5900646 C0.845353604,32.7218212 0.549700462,32.6495846 0.403302588,32.4250183 C0.256904714,32.200452 0.310111315,31.900789 0.524869123,31.7403476 L5.01332628,28.459383 L0.752544486,30.91909 C0.516496231,31.0484904 0.220492252,30.9713804 0.0775795541,30.7432593 C-0.0653331436,30.5151383 -0.0055728606,30.21515 0.213848315,30.059209 L4.26423368,27.3149077 L3.53648565,27.7346842 C3.30097379,27.8644003 3.00517753,27.788228 2.86161196,27.5608934 C2.71804639,27.3335588 2.77639634,27.0337373 2.99474025,26.8768359 L6.33059088,24.5828034 C6.15514303,24.528616 6.02257144,24.3839982 5.98380892,24.2045109 C5.94504641,24.0250237 6.00612232,23.8385853 6.14357184,23.7168239 L11.2764316,19.164333 C11.2693873,19.1551273 11.2632597,19.1452551 11.2581362,19.1348572 C11.1184973,18.8920202 11.2016902,18.581979 11.4441389,18.441667 L13.3448216,17.350045 C13.5703266,17.2217381 13.8562741,17.2838984 14.0081616,17.4942442 C14.160049,17.70459 14.1291021,17.9955749 13.936371,18.1692697 L10.5649461,21.1564924 L15.277013,18.4355686 C15.5132329,18.3005389 15.8138956,18.3755139 15.9590565,18.605647 C16.1042173,18.83578 16.0423702,19.1394151 15.8187584,19.2944332 L14.1864073,20.4124819 L16.1419761,19.2842691 C16.3791732,19.1437334 16.6851641,19.217957 16.8316092,19.451552 C16.9780542,19.685147 16.9115343,19.9929045 16.6816886,20.1451666 L12.6302869,22.8894679 L12.6872057,22.8569428 C12.8761954,22.7502827 13.1059434,22.7773052 13.2642744,22.9106026 L13.2571687,22.8338449 L13.2571687,22.8338449 C13.2597419,22.6471874 13.3643984,22.4769398 13.5298078,22.3904116 L17.1624496,20.2915293 C17.3739749,20.1702716 17.6418097,20.2163223 17.8006876,20.4012661 C17.9595655,20.5862099 17.9647116,20.8579261 17.8129506,21.0487532 L16.959168,22.1159815 L18.255088,21.3689217 C18.4761176,21.2412907 18.7575244,21.2973981 18.9127039,21.5000383 C19.0680978,21.7030333 19.0485115,21.9898641 18.8669656,22.1698511 L18.7887022,22.2460817 L30.6064765,15.423952 C30.8394387,15.2915101 31.1352096,15.3627186 31.2823666,15.5866765 C31.4295235,15.8106343 31.3774933,16.1103741 31.163468,16.2716362 L30.641,16.659 L41.2848576,10.514702 C41.5181768,10.3810524 41.8152243,10.452276 41.9625683,10.6771978 Z M28.2456356,13.4317346 C28.3973076,13.6481059 28.3578642,13.9446079 28.1549007,14.1138023 L27.7015828,14.491906 L28.9090753,13.7956666 C29.1428982,13.6626627 29.4398645,13.7349078 29.5864591,13.9604587 C29.7330537,14.1860096 29.6784912,14.4867276 29.4620012,14.6464 L27.6792218,15.9392708 L29.8431542,14.6901056 C30.0860045,14.5520315 30.3947691,14.6358591 30.534451,14.8777882 C30.674133,15.1197173 30.5923553,15.4290311 30.3513581,15.5703148 L19.7359943,21.6992542 C19.6584548,21.7427146 19.5707678,21.7648117 19.4818923,21.7633617 C19.2642633,21.7606968 19.0724434,21.6198125 19.0048607,21.4129268 C18.937278,21.2060411 19.0089374,20.979087 19.1830684,20.8485208 L22.668331,18.3196981 C22.5114553,18.2456529 22.4031848,18.0967034 22.3811616,17.9246347 C22.3591385,17.7525659 22.4264052,17.5811494 22.5595754,17.4699811 L25.4685347,15.0356842 C25.3568263,14.797757 25.4449787,14.5139063 25.6718163,14.3811176 L27.5735154,13.2844135 C27.8017858,13.1513213 28.0939636,13.2153634 28.2456356,13.4317346 Z M46.9051546,0.201358726 C47.0612408,0.407392529 47.0378097,0.697765385 46.8507071,0.876106173 L44.5658222,3.08374407 L48.4667956,0.832400635 C48.7008614,0.695853611 49.0008925,0.766978201 49.1487563,0.994064469 C49.2966201,1.22115074 49.2402979,1.52430939 49.0207379,1.68313402 L45.0902887,4.54838781 L48.903851,2.34684836 C49.1407582,2.21404318 49.4402169,2.29098075 49.5837692,2.52153444 C49.7273215,2.75208814 49.6642273,3.05476617 49.4405143,3.20876224 L46.3699462,5.27105381 L48.903851,3.80742647 C49.1215208,3.68263803 49.3976856,3.73537801 49.5540517,3.93159718 C49.7104179,4.12781635 49.7001844,4.40878569 49.5299582,4.59310976 L47.8234094,6.43077519 L48.903851,5.80771717 C49.1206408,5.68295443 49.3959818,5.73448886 49.5529749,5.92921099 C49.709968,6.12393312 49.7019295,6.40393998 49.5340239,6.58933482 L47.8986236,8.39142597 L48.903851,7.81207349 C49.1168517,7.69037622 49.3863831,7.73820487 49.5445068,7.92575859 C49.7026305,8.1133123 49.7042069,8.38704989 49.5482536,8.57641221 L48.6700772,9.63245999 L48.8733587,9.51354026 C49.0308964,9.41339392 49.2306576,9.40767746 49.3936645,9.49865096 C49.5566713,9.58962447 49.6566816,9.76264226 49.6541551,9.94929977 C49.6516286,10.1359573 49.5469721,10.3062048 49.3815627,10.3927331 L46.70841,11.9356402 C46.4954093,12.0573375 46.2258779,12.0095088 46.0677542,11.8219551 C45.9096304,11.6344014 45.9080541,11.3606638 46.0640074,11.1713015 L46.9432002,10.1142373 L45.5913777,10.8948386 C45.3745879,11.0196013 45.099247,10.9680669 44.9422538,10.7733447 C44.7852607,10.5786226 44.7932992,10.2986157 44.9612049,10.1132209 L46.5955887,8.31214616 L45.4043587,8.99923788 C45.1866888,9.12402633 44.910524,9.07128635 44.7541579,8.87506718 C44.5977918,8.67884801 44.6080252,8.39787867 44.7782514,8.2135546 L46.4878495,6.37283994 L33.8681293,13.6625172 C33.7909862,13.7073966 33.703275,13.7309032 33.6140274,13.7306191 C33.3904026,13.7306191 33.1930215,13.5845377 33.127799,13.3706357 C33.0625764,13.1567338 33.144841,12.925333 33.3304496,12.8006033 L37.1023392,10.2687313 C36.92418,10.2676332 36.7572551,10.1815272 36.6530869,10.0369903 C36.5060858,9.81080783 36.5614136,9.5091818 36.7791215,9.3498986 L41.2604638,6.08418011 C41.0545024,6.08132228 40.8706358,5.95442518 40.794905,5.76287078 C40.7191742,5.57131639 40.7665588,5.35299435 40.9148851,5.21006934 L43.1916387,2.99836581 L39.8883132,4.90514698 C39.6798109,5.02554086 39.4154403,4.98310578 39.2550911,4.80350619 C39.0942967,4.62444532 39.0811442,4.35715107 39.2235824,4.16316923 L40.6973738,2.15881291 L38.3738654,3.5004713 C38.1652492,3.62035458 37.9011518,3.57751212 37.7411321,3.39782793 C37.5811124,3.21814374 37.5690297,2.95086685 37.7121839,2.75747714 L38.2834051,1.98703998 C38.0634193,1.96650791 37.8819031,1.80619463 37.8343426,1.5904324 C37.7867822,1.37467018 37.8840754,1.15289892 38.0750415,1.04178066 L39.763295,0.0711111393 C39.9716633,-0.0478165164 40.2348199,-0.00482160566 40.3945025,0.174238725 C40.5541851,0.353299056 40.56689,0.619642008 40.4249765,0.813088885 L39.9930032,1.39447419 L42.2911014,0.0711111393 C42.4990907,-0.0481888656 42.7621683,-0.00588448768 42.9222711,0.172606828 C43.0823739,0.351098145 43.0959388,0.617209919 42.9548157,0.81105607 L41.4810243,2.81541239 L46.2408624,0.0711111393 C46.4631949,-0.0607262174 46.7490684,-0.0046750772 46.9051546,0.201358726 Z" id="Combined-Shape"></path>
            </g>
            <path d="M6.27835142,59.8704518 C14.2225953,60.6835781 9.42921582,46.999679 10.6173966,42.1158391 C11.0524192,38.531985 0.842602125,38.7220533 1.01640787,42.1077079 C0.943226505,47.2547973 1.0458837,52.4537236 1.00929302,57.5936982 C1.18004954,60.3349502 4.36547181,59.8704518 6.27835142,59.8704518 L6.27835142,59.8704518 Z M3.67329805,40.5587023 C7.02744402,40.3859129 9.96994481,40.0647281 9.13852317,44.5104961 C8.46261194,47.8138217 10.6926108,57.61301 7.90562042,58.9882098 C0.0182953417,60.5199365 3.0085673,53.7638734 2.48410084,48.7296052 C3.00958371,46.3969491 1.19631206,41.6838658 3.67736368,40.5587023 L3.67329805,40.5587023 Z" id="Shape" fill="#262626"></path>
            <path d="M23.8266333,34.9156058 C23.6507948,31.9822527 19.9337912,32.6856069 17.9213036,32.6876397 C12.5180793,32.4843582 14.6037483,38.8775637 14.2225953,42.3079402 C14.2225953,47.4028541 14.2225953,52.4981067 14.2225953,57.5936982 C14.4553527,60.4884278 18.5687554,59.8165822 20.5832758,59.7444173 C21.9655905,59.6946133 23.5593181,59.0674896 23.7991903,57.5286481 C23.8459451,50.0011314 23.8520435,42.4451553 23.8266333,34.9156058 L23.8266333,34.9156058 Z M22.3548747,57.5601568 C22.213594,59.4740528 20.7743605,59.1142444 19.3717176,59.1142444 C17.8003511,59.1142444 15.8681597,59.3358213 15.6953703,57.199332 C15.7248462,49.7551607 15.6526812,42.299809 15.6953703,34.8627526 C15.8346182,33.0952193 16.9811263,33.3178126 18.2983909,33.3178126 C19.3717176,33.3178126 20.9644288,33.0281364 21.8029652,33.854476 C23.2940356,41.3525168 21.9188357,49.7815873 22.3548747,57.5601568 L22.3548747,57.5601568 Z" id="Shape" fill="#262626"></path>
            <path d="M31.2118529,59.8694354 C35.6433912,60.5168872 37.7646345,58.7757806 37.0419685,54.2121092 C37.0226567,45.4445749 37.0714443,36.6739914 37.0419685,27.9064571 C36.8569822,24.5248681 32.6195778,25.5148494 30.3001351,25.4558977 C24.8115325,26.7142107 28.4075836,35.0772146 27.4338649,39.2170439 L27.4338649,57.5936982 C27.6097034,59.7434009 29.5256323,59.8694354 31.2118529,59.8694354 L31.2118529,59.8694354 Z M28.9107055,28.3038726 C28.7074239,25.3928804 32.4762643,26.4031899 34.3068149,26.4052227 C36.0977256,26.892082 35.5661442,29.8721899 35.5661442,31.2697508 C34.6513772,35.4238097 37.7432899,59.758647 33.7172983,58.9902426 C32.0229464,58.9902426 29.1119543,59.6000873 28.9107055,57.2084796 C28.9096891,47.5749658 28.8243108,37.9373864 28.9107055,28.3038726 L28.9107055,28.3038726 Z" id="Shape" fill="#262626"></path>
            <path d="M50.253238,27.4124829 C50.6862277,19.5688633 50.71672,16.5125249 41.7001657,19.0220359 C40.103389,20.1797245 40.6502164,23.1506847 40.6502164,24.8623155 L40.6502164,49.3242038 C40.8697605,53.4071142 38.6519585,61.1053874 45.2860527,59.8216643 C47.8575646,60.1489476 50.9291492,59.2026719 50.253238,55.9928558 L50.253238,27.4124829 Z M47.6979886,59.0369974 C45.8501591,58.9760129 42.4126677,59.8623206 42.121975,57.199332 L42.121975,21.6697784 C41.4247192,18.3217309 45.2728394,19.1562017 47.3585084,19.1795791 C49.4004718,19.605454 48.7814794,23.2868833 48.7814794,24.7759209 L48.7814794,56.4380425 C48.7814794,57.3965151 48.9441046,58.7625673 47.6979886,59.0369974 Z" id="Shape" fill="#262626"></path>
            <path d="M50.253238,6.12483642 C51.5745682,-1.49822261 46.3065262,0.23780203 40.9510731,0.12802998 C36.1851366,0.1951129 36.8010798,5.81991406 41.5609179,4.91836028 L31.3805766,15.0844718 C26.908382,9.85098768 22.6486166,18.7374417 19.1836822,21.1900339 C14.0904623,13.6198281 10.0360113,20.1309369 5.71627787,24.5025071 C3.9507774,26.7009974 0.912734268,28.2947249 0,30.9943042 C2.27573722,38.6102484 10.8105141,25.458947 13.7865564,23.477968 C19.1033859,31.609231 23.4647921,23.5460673 28.0162666,19.4072545 C32.8950243,25.4711438 40.3818847,11.4843551 44.6853557,8.82949777 C44.8652598,14.5843991 51.8347686,12.241579 50.253238,6.12483642 Z M48.7814794,9.79305243 C47.3920498,13.35048 45.5228757,9.24419218 46.1886229,7.21239284 C46.1886229,6.75094367 44.9109982,7.29573829 44.775816,7.43092054 L32.7527272,19.4540092 C31.6346786,21.4725953 29.7583897,19.4204678 28.8629343,18.3308785 C25.6358393,17.7342471 20.7377698,29.0153581 17.867434,25.6215722 C16.4292168,24.7576255 15.1129686,21.3526591 13.2692048,22.6861863 C10.9955004,23.9566961 3.23014422,35.3303002 1.6526792,31.6163458 C1.38739674,27.8647844 10.6478889,21.8761092 13.1279241,18.3938958 C15.8569792,17.3144707 17.0604061,23.6660035 19.7020502,21.9736844 C22.2847426,19.550568 24.6438252,16.7839058 27.2590427,14.4268559 C28.5417494,13.6564187 29.7106185,15.341623 30.5339089,16.1659298 C35.3953877,14.155475 38.9314707,7.97469875 43.2623846,4.52297762 C43.5134374,4.26989206 43.0367421,4.18857943 42.8893629,4.18857943 C41.6391813,4.18857943 39.8401393,4.52907606 39.2394423,3.1000066 C38.2921501,-0.601750872 43.7116369,1.23896378 45.7708793,0.832400635 C50.6476042,0.253048148 48.2529473,6.84445319 48.7814794,9.79305243 Z" id="Shape" fill="#262626"></path>
        </g>
    </g>
</svg>