<?xml version="1.0" encoding="UTF-8"?>
<svg width="60px" height="60px" viewBox="0 0 60 60" version="1.1" xmlns="http://www.w3.org/2000/svg" xmlns:xlink="http://www.w3.org/1999/xlink">
    <title>role-skills-0</title>
    <g id="Page-1" stroke="none" stroke-width="1" fill="none" fill-rule="evenodd">
        <g id="role-skills-0" fill-rule="nonzero">
            <path d="M40.1051596,60 C39.9204315,59.9996625 39.7510234,59.89465 39.6649179,59.7271019 C39.5788124,59.5595538 39.5901226,59.3569319 39.6943097,59.2005473 L40.7044821,57.6875198 L38.7220311,58.8611385 C38.5099756,58.986669 38.2403895,58.9357592 38.0858833,58.7410056 C37.9313772,58.546252 37.9376859,58.2653029 38.1007701,58.0780445 L39.9186816,55.9884307 L37.5014477,57.42274 C37.2766195,57.5587526 36.9875175,57.4939543 36.8385688,57.2741644 C36.68962,57.0543746 36.7312562,56.7540107 36.9340359,56.5854632 L37.4236654,56.1765368 L36.7665048,56.5650169 C36.5425332,56.6948605 36.2589681,56.6286625 36.111918,56.4122044 C35.964868,56.1957462 36.002632,55.900124 36.1990931,55.7297848 L37.5533025,54.5745678 L35.9029221,55.5508795 C35.6768866,55.6855756 35.3877504,55.6184049 35.2404348,55.3969738 C35.0931192,55.1755427 35.1376606,54.875061 35.3424908,54.7084912 L36.4045181,53.8323664 L35.0991718,54.604215 C34.881039,54.7368186 34.6005654,54.6804417 34.4474275,54.4732103 C34.2942896,54.2659789 34.3172782,53.9739182 34.5008466,53.7945407 L36.8173625,51.4984192 L33.9114962,53.2159099 C33.6894621,53.346127 33.4073246,53.2829665 33.2584501,53.0697164 C33.1095756,52.8564662 33.1422642,52.5623122 33.3341124,52.3888564 L34.593587,51.2643088 L32.998053,52.2099511 C32.7786601,52.3321445 32.5049308,52.2691369 32.3575523,52.0625194 C32.2101738,51.8559018 32.2345909,51.5693855 32.4146859,51.3920983 L33.6113364,50.2849302 L31.1502253,51.7417304 C30.9343547,51.8619991 30.6651999,51.8031308 30.5160024,51.6030162 C30.366805,51.4029016 30.3820394,51.121193 30.5519,50.9392124 L32.6899155,48.7402108 L29.1428441,50.8380031 C28.9235653,50.9586321 28.6510991,50.8950368 28.5043716,50.6889796 C28.3576441,50.4829225 28.3815857,50.1975016 28.5604742,50.0201504 L30.3554499,48.3691101 L28.196493,49.6470051 C27.9709133,49.7827438 27.6813627,49.716701 27.5331997,49.4957162 C27.3850367,49.2747315 27.4286336,48.9739352 27.6330701,48.8066614 L27.8973304,48.5878858 L27.8245342,48.630823 C27.6049202,48.7563089 27.3285297,48.6945363 27.179793,48.486725 C27.0310562,48.2789136 27.0565113,47.9900855 27.2391726,47.8129703 L28.2044707,46.9082207 L27.713844,47.1975361 C27.4982904,47.323497 27.2251935,47.2678137 27.0730581,47.0668826 C26.9209228,46.8659515 26.9360441,46.5809162 27.1085383,46.3980851 L27.7966123,45.6753077 L27.7048691,45.7284681 C27.5503072,45.8291966 27.3543193,45.8349463 27.1943916,45.743444 C27.0344638,45.6519417 26.9363426,45.4779182 26.9387755,45.2901757 C26.9413002,45.1024332 27.0439798,44.9311961 27.2062647,44.8441649 L30.4212657,42.9242555 C30.6368193,42.7982946 30.9099162,42.8539779 31.0620516,43.054909 C31.2141869,43.2558402 31.1990656,43.5408754 31.0265714,43.7237066 L30.3394946,44.446484 L31.6617933,43.6644123 C31.8814073,43.5389264 32.1577978,43.600699 32.3065345,43.8085103 C32.4552713,44.0163217 32.4298162,44.3051498 32.2471549,44.482265 L31.2818568,45.3870146 L32.9242596,44.4158145 C33.1492385,44.2858511 33.4337812,44.3534966 33.5800031,44.571707 C33.726225,44.7899174 33.6857322,45.0864735 33.4866853,45.2551359 L33.2254166,45.4718668 L33.9633511,45.0353379 C34.1826299,44.9147089 34.4550961,44.9783043 34.6018236,45.1843614 C34.7485511,45.3904186 34.7246094,45.6758394 34.545721,45.8531907 L32.7507453,47.5042309 L35.4432088,45.9145296 C35.6590794,45.7942609 35.9282342,45.8531292 36.0774317,46.0532438 C36.2266291,46.2533584 36.2113947,46.535067 36.0415341,46.7170476 L33.9114962,48.9211607 L37.202285,46.970582 C37.421678,46.8483885 37.6954073,46.9113961 37.8427858,47.1180137 C37.9901643,47.3246313 37.9657472,47.6111476 37.7856521,47.7884347 L36.5890017,48.8976475 L38.5215922,47.753676 C38.7436263,47.6234589 39.0257639,47.6866194 39.1746384,47.8998695 C39.3235129,48.1131197 39.2908242,48.4072737 39.098976,48.5807295 L37.8414958,49.7052771 L39.8269384,48.5306361 C40.0450712,48.3980324 40.3255449,48.4544093 40.4786827,48.6616407 C40.6318206,48.8688721 40.6088321,49.1609328 40.4252637,49.3403103 L38.1067534,51.6374542 L41.5870118,49.5795322 C41.8127406,49.4456854 42.1009454,49.512758 42.2481774,49.7334024 C42.3954094,49.9540467 42.3519336,50.253729 42.1484403,50.4208982 L41.0894047,51.2898667 L42.1095492,50.6867003 C42.3335208,50.5568568 42.617086,50.6230547 42.764136,50.8395129 C42.911186,51.055971 42.8734221,51.3515932 42.676961,51.5219325 L41.3237487,52.6771494 L42.1095492,52.2119957 C42.3338051,52.0815881 42.6180538,52.1479584 42.7651043,52.3650637 C42.9121547,52.582169 42.8735034,52.8783986 42.6759638,53.0482501 L42.1663901,53.4796674 C42.3811706,53.3877117 42.6294362,53.4603336 42.7645433,53.6546375 C42.8996505,53.8489414 42.8856495,54.1132261 42.7308102,54.2913863 L40.9119015,56.3850893 L42.108552,55.6776467 C42.310029,55.5593296 42.5645026,55.5992476 42.7222505,55.7739144 C42.8799983,55.9485813 42.8992606,56.2117584 42.7687042,56.4086026 L41.7575345,57.9206078 L41.9360349,57.8183762 C42.1742979,57.6794996 42.4772303,57.7638144 42.6142737,58.0071498 C42.7513171,58.2504851 42.6710842,58.5615969 42.4346392,58.7037018 L40.3544618,59.9304809 C40.2789694,59.976211 40.1928457,60.0002264 40.1051596,60 Z" id="Path" fill="#C384F8"></path>
            <path d="M45.0353994,52.6530612 C44.8178229,52.652866 44.6252823,52.5112254 44.5590199,52.3026115 C44.4927576,52.0939977 44.5679488,51.8661866 44.7450563,51.738967 L46.9977187,50.1204158 L43.1631867,52.3476874 C42.9335762,52.4772146 42.6435374,52.4056288 42.4994902,52.1838776 C42.3554429,51.9621263 42.4065946,51.665961 42.6165406,51.5061617 L48.3383031,47.2521739 L40.8144107,51.6240761 C40.5843137,51.7529522 40.294368,51.6803583 40.1510582,51.4579921 C40.0077484,51.2356258 40.0600726,50.9395151 40.2707682,50.7805348 L46.9486607,45.9077484 L38.904153,50.5779639 C38.6704307,50.7143204 38.3713888,50.6394126 38.2284097,50.4086953 C38.0854305,50.1779779 38.1500929,49.8746809 38.3745271,49.7233367 L40.9085219,48.0171056 L37.876939,49.7817899 C37.6433338,49.9097486 37.3511076,49.8314932 37.211545,49.6036039 C37.0719824,49.3757146 37.1338072,49.0777515 37.3523189,48.925147 L37.8869508,48.5703961 L37.123048,49.0148426 C36.8911939,49.1452566 36.598519,49.0706981 36.4562027,48.8449648 C36.3138865,48.6192316 36.3714749,48.3209102 36.5874149,48.1652544 L40.9615847,45.1045197 L36.2560233,47.8397301 C36.0246889,47.9705528 35.7321361,47.8969495 35.5891485,47.6719511 C35.4461609,47.4469528 35.502418,47.1487325 35.7173866,46.9921575 L40.1636416,43.832657 L36.3771664,46.0327175 C36.1444847,46.1666056 35.8483256,46.0922644 35.7053391,45.8640769 C35.5623526,45.6358894 35.6232733,45.3348213 35.8435357,45.1811137 L45.3187343,38.609151 C45.319096,38.4294869 45.4144598,38.2636067 45.5690301,38.1737748 L47.922812,36.8051618 C48.1558556,36.6661451 48.4564761,36.7389579 48.6011908,36.9694707 C48.7459054,37.1999836 48.6822046,37.5045552 48.4574439,37.6567656 L46.7554323,38.8409485 L49.1923124,37.4249681 C49.423037,37.2983308 49.7117628,37.3728451 49.8534974,37.5956067 C49.995232,37.8183682 49.9417177,38.1135312 49.730949,38.2715329 L45.2826917,41.4320413 L50.8132281,38.2191265 C51.044452,38.0929912 51.3332126,38.1684736 51.4742541,38.3919196 C51.6152956,38.6153656 51.5605194,38.9105745 51.3488612,39.0677069 L46.977695,42.1274337 L52.3840847,38.9860738 C52.6185061,38.8519216 52.9163659,38.9287914 53.0577519,39.1599298 C53.1991379,39.3910681 53.1332372,39.6934058 52.9087047,39.8437245 L52.3690669,40.2014989 L53.5094147,39.5383566 C53.7436943,39.3982714 54.0462508,39.4725481 54.1901579,39.7054769 C54.3340649,39.9384057 54.2664559,40.2444163 54.0380395,40.3939916 L51.5030434,42.0992149 L54.8069482,40.1773114 C55.0376393,40.0440415 55.3315872,40.1156439 55.4762256,40.3403398 C55.620864,40.5650357 55.5656849,40.8643609 55.3505908,41.0218605 L48.6736995,45.893639 L55.5077765,41.9208316 C55.737387,41.7913044 56.0274258,41.8628901 56.1714731,42.0846414 C56.3155203,42.3063927 56.2643687,42.602558 56.0544226,42.7623573 L50.3336613,47.0183607 L55.5778594,43.9717355 C55.8090633,43.8389748 56.1030475,43.9115606 56.2469839,44.1369449 C56.3909204,44.3623292 56.3344694,44.6616871 56.1184983,44.8183002 L53.8698407,46.4308045 L55.1633695,45.6789744 C55.3923596,45.5469073 55.6838724,45.6164771 55.8295922,45.8379689 C55.975312,46.0594607 55.9251804,46.3567865 55.7150215,46.5174766 L54.2623045,47.6190186 C54.4561459,47.5966552 54.643891,47.6957444 54.7358642,47.8689567 C54.8740923,48.1099658 54.7920647,48.4181402 54.5526477,48.5572945 L47.9888901,52.3738906 C47.7599,52.5059576 47.4683872,52.4363879 47.3226674,52.214896 C47.1769476,51.9934042 47.2270792,51.6960784 47.4372381,51.5353883 L48.5685752,50.6777376 L45.2856952,52.5855317 C45.2097642,52.6301684 45.1233291,52.6534865 45.0353994,52.6530612 L45.0353994,52.6530612 Z" id="Path" fill="#D29DFF"></path>
            <path d="M28.7867287,11.2618539 C28.9289019,11.4943175 28.8604756,11.7975261 28.6321972,11.9466091 L19.1412577,18.0632062 L30.4051855,11.5684812 C30.6412205,11.4386617 30.9377388,11.5168561 31.0788281,11.7461266 C31.2199174,11.975397 31.1558359,12.274913 30.9332452,12.4265795 L17.8145456,20.9571452 L32.341741,12.5768223 C32.4959496,12.4833385 32.6883832,12.4791167 32.8465538,12.5657471 C33.0047244,12.6523774 33.1046023,12.8166988 33.1085643,12.9968129 C33.1125263,13.176927 33.0199706,13.3454702 32.865762,13.4389539 L22.353032,20.1202221 L36.2865389,12.0867685 C36.5254824,11.9430905 36.8358124,12.0200627 36.9796803,12.2586907 C37.1235483,12.4973186 37.0464744,12.8072388 36.8075309,12.9509168 L26.1342627,19.63521 L38.8824118,12.2854117 C39.1209045,12.1512307 39.4230247,12.2313133 39.5634977,12.4659462 C39.7039707,12.700579 39.6316116,13.004268 39.4003748,13.1505684 L29.9316482,19.020122 L40.6998257,12.8127741 C40.9371866,12.6843649 41.2336995,12.7651603 41.3728654,12.9961676 C41.5120314,13.2271749 41.4446008,13.5266425 41.2198081,13.6759141 L27.6814898,22.1334082 L42.4081948,13.6436472 C42.6468595,13.4996908 42.9571895,13.5762115 43.1013363,13.814561 C43.2454831,14.0529105 43.1688612,14.3628307 42.9301965,14.5067872 L26.6364898,24.7544082 L43.9540064,14.7689558 C44.1091168,14.6769131 44.3016139,14.6745032 44.4589858,14.7626341 C44.6163578,14.8507649 44.7146961,15.0160472 44.7169577,15.1962207 C44.7192192,15.3763943 44.6250604,15.5440865 44.46995,15.6361292 L38.6370609,19.2016234 L45.4917405,15.2489262 C45.7298578,15.1218295 46.0259602,15.2043352 46.1637958,15.436187 C46.3016314,15.6680389 46.232405,15.9671588 46.0066744,16.1150912 L39.3074847,20.2109728 L47.2091967,15.6552877 C47.4470847,15.5244406 47.7459972,15.6049916 47.8856853,15.8375881 C48.0253733,16.0701845 47.9557735,16.371465 47.7281693,16.519436 L32.0085484,26.3215199 L49.1073845,16.4639772 C49.3452726,16.3331302 49.6441851,16.4136812 49.7838731,16.6462776 C49.9235612,16.8788741 49.8539614,17.1801546 49.6263572,17.3281256 L33.4321893,27.4407785 L50.6693509,17.5015602 C50.9078092,17.3642425 51.2124628,17.4430078 51.3542451,17.6786331 C51.4960275,17.9142584 51.4226716,18.2198822 51.1893332,18.3657086 L35.0254556,28.49147 L51.9748599,18.718628 C52.212748,18.5877809 52.5116604,18.6683319 52.6513485,18.9009283 C52.7910365,19.1335248 52.7214367,19.4348053 52.4938325,19.5827763 L38.7380284,28.1536757 L52.9522247,19.9578792 C53.190223,19.8289959 53.487652,19.9105493 53.6263863,20.1427307 C53.7651206,20.374912 53.6957629,20.6750515 53.469178,20.8230359 L45.0030581,26.0180092 L53.6165905,21.0519293 C53.8549763,20.9068591 54.1659844,20.9822512 54.3112465,21.2203223 C54.4565085,21.4583933 54.3810167,21.7689907 54.1426308,21.9140609 L36.121962,33.292182 L54.3445657,22.7872843 C54.5830584,22.6531034 54.8851786,22.7331859 55.0256516,22.9678188 C55.1661246,23.2024517 55.0937655,23.5061406 54.8625287,23.652441 L44.8869455,29.8033218 L54.6807873,24.1566116 C54.9193577,24.024886 55.2195537,24.1061021 55.3589243,24.3400772 C55.4982949,24.5740523 55.4264956,24.8762679 55.1967309,25.0227766 L51.2590007,27.4246451 L54.8342578,25.3635959 C55.0719469,25.2244868 55.37742,25.3013732 55.5206988,25.5363704 C55.6639776,25.7713675 55.5921484,26.0776896 55.3592885,26.2247192 L37.7707603,37.445539 L54.9786412,27.5244709 C55.2153907,27.3963381 55.5111665,27.4763326 55.6508185,27.7062656 C55.7904704,27.9361985 55.7248335,28.2351212 55.5016526,28.3855942 L41.8336901,37.0361525 L56.8081713,28.4077777 C56.9270964,28.3443018 57.0605537,28.333093 57.1815369,28.3667308 L57.4240859,28.2292122 C57.6606817,28.0953783 57.9613377,28.1714209 58.1048891,28.4014025 C58.2484404,28.631384 58.183558,28.933071 57.9579699,29.0845403 L45.7070045,37.1955483 L58.7441064,29.7101689 C58.9833649,29.572972 59.2890408,29.6516679 59.431299,29.8870858 C59.5735571,30.1225037 59.4999551,30.4278585 59.2658336,30.5735565 L58.7339758,30.9040012 L59.2486115,30.6088174 C59.4848618,30.4791157 59.7818815,30.5563811 59.9240073,30.7845119 C60.0661332,31.0126426 60.0034549,31.3115259 59.7814824,31.4641454 L59.2103058,31.8372451 C59.3728039,31.8443095 59.5288072,31.9244992 59.6222315,32.0646273 C59.7701055,32.2864252 59.7088815,32.5799168 59.4832535,32.7308509 L58.1131297,33.6432512 L59.1863418,33.0533372 C59.4249555,32.9242318 59.7277946,32.9959822 59.8753128,33.2165722 C60.0228309,33.4371623 59.9633355,33.7292939 59.7399584,33.8811832 L58.8595327,34.4710972 L59.2327342,34.2656105 C59.4631362,34.1426155 59.7537388,34.2055444 59.9058509,34.4113713 C60.057963,34.6171982 60.0223947,34.8993632 59.8234648,35.0649439 L56.2027916,37.9968165 L58.6481893,36.6508294 C58.8784424,36.5263127 59.1701619,36.5883498 59.3231308,36.7943625 C59.4760997,37.0003751 59.4405937,37.2833966 59.2409818,37.4491796 L57.6821953,38.7165115 C57.8451693,38.8020543 57.9471702,38.9647053 57.9490923,39.1421064 C57.9510144,39.3195075 57.8525595,39.4841338 57.6914738,39.57287 L54.4141048,41.37899 C54.1838517,41.5035067 53.8921321,41.4414696 53.7391633,41.2354569 C53.5861944,41.0294443 53.6217004,40.7464228 53.8213123,40.5806398 L54.3512172,40.147053 L51.7738587,41.5657961 C51.6957332,41.6095969 51.6067484,41.6326531 51.5161229,41.6326531 C51.3001601,41.6323285 51.1073044,41.50365 51.0329649,41.3102771 C50.9586254,41.1169042 51.0185641,40.899837 51.1831281,40.7664627 L54.8038014,37.8355733 L49.3140277,40.8578993 C49.075414,40.9870048 48.7725749,40.9152544 48.6250568,40.6946643 C48.4775386,40.4740743 48.537034,40.1819427 48.7604111,40.0300534 L49.6454898,39.4404082 L48.2408157,40.2148931 C48.0017808,40.345718 47.697126,40.2740853 47.549252,40.0522875 C47.4238751,39.8642333 47.4488128,39.6246403 47.5968241,39.4640961 L47.0817304,39.8038453 C47.1356306,39.8408303 47.182316,39.8872572 47.2195069,39.940859 C47.368209,40.1615594 47.3189966,40.4591668 47.1070569,40.6208901 L44.7770131,42.4030753 C44.8437155,42.4460933 44.8989763,42.5045044 44.93809,42.573335 C45.07744,42.8137693 44.9949958,43.1209981 44.7537126,43.2604182 L40.3306815,45.8002085 C40.099792,45.9320076 39.8057103,45.863569 39.6576052,45.6435703 C39.5095002,45.4235716 39.5579227,45.1271023 39.7684318,44.9650295 L40.4279355,44.4613028 L36.9379351,46.4641203 C36.8627321,46.5072273 36.7775477,46.5301414 36.6907478,46.5306122 C36.4673711,46.5302208 36.2706223,46.384361 36.2064568,46.1715828 C36.1422913,45.9588047 36.2258588,45.729346 36.4121556,45.6067774 L45.1518462,39.8642925 L33.9382569,46.3019203 C33.6989983,46.4391171 33.3933224,46.3604212 33.2510643,46.1250034 C33.1088062,45.8895855 33.1824082,45.5842307 33.4165296,45.4385327 L33.9284898,45.1194082 L32.451081,45.9684532 C32.2144852,46.1022871 31.9138292,46.0262446 31.7702779,45.796263 C31.6866418,45.6622709 31.6737581,45.5039385 31.7221875,45.3651556 L28.5251717,47.3766906 C28.4978881,47.5208901 28.4090465,47.6460612 28.2818402,47.7195266 L24.6470123,49.8138511 C24.4097682,49.9441435 24.1118458,49.8643306 23.9717496,49.6329496 C23.8316535,49.4015685 23.8992715,49.1010132 24.1250106,48.9517194 L32.2054898,43.8694082 L30.1291417,45.0627525 C30.0371943,45.1105853 29.9370006,45.1276131 29.8407131,45.1173419 L21.1333454,50.1365202 C21.0567133,50.1810434 20.9695831,50.2040816 20.8809267,50.2040816 C20.6564474,50.2040816 20.4589836,50.0559056 20.3963269,49.8406326 C20.3336702,49.6253596 20.4208735,49.3946275 20.610334,49.2743886 L34.2803158,40.6228219 L18.7797943,49.5597491 C18.5431659,49.6897165 18.2460256,49.6106932 18.1054575,49.3804119 C17.9648893,49.1501306 18.0306797,48.8501521 18.2547636,48.6996341 L35.8463208,37.4828476 L16.7846777,48.4677157 C16.5461073,48.5994412 16.2459113,48.5182251 16.1065406,48.2842501 C15.96717,48.050275 16.0389694,47.7480593 16.268734,47.6015507 L20.2064642,45.2006905 L15.8648643,47.7054098 C15.6253632,47.8482524 15.3152592,47.7701516 15.1722276,47.5309668 C15.0291961,47.2917819 15.1074002,46.9820874 15.3469013,46.8392448 L25.3254898,40.6854082 L14.9359638,46.6748852 C14.6987197,46.8051776 14.4007973,46.7253648 14.2607012,46.4939837 C14.1206051,46.2626027 14.188223,45.9620474 14.4139622,45.8127535 L32.4215053,34.4356408 L13.9444636,45.089773 C13.7049624,45.2323371 13.3950845,45.1540106 13.2523318,44.9148258 C13.1095791,44.6756409 13.1880091,44.3661722 13.4275103,44.223608 L21.8794947,39.0336763 L13.4608295,43.886822 C13.2234686,44.0152312 12.9269558,43.9344358 12.7877898,43.7034285 C12.6486239,43.4724212 12.7160545,43.1729537 12.9408472,43.023682 L26.7077578,34.4527826 L11.6636091,43.1245161 C11.4246656,43.2681941 11.1143355,43.191222 10.9704676,42.952594 C10.8265996,42.713966 10.9036736,42.4040458 11.1426171,42.2603678 L27.2974076,32.1376314 L9.07581355,42.6475708 C8.83792546,42.7784179 8.53901298,42.6978668 8.39932495,42.4652704 C8.25963692,42.232674 8.32923674,41.9313934 8.5568409,41.7834225 L24.7611055,31.6677445 L7.22810938,41.7743474 C6.99022129,41.9051945 6.69130881,41.8246434 6.55162078,41.592047 C6.41193275,41.3594506 6.48153257,41.05817 6.70913674,40.9101991 L22.430777,31.1071068 L5.80648781,40.6863473 C5.56791741,40.8180729 5.26772141,40.7368568 5.12835079,40.5028817 C4.98898017,40.2689066 5.06077954,39.966691 5.29054419,39.8201823 L11.9816565,35.7293425 L4.96038066,39.7818654 C4.72181025,39.9135909 4.42161425,39.8323748 4.28224363,39.5983997 C4.14287301,39.3644247 4.21467238,39.062209 4.44443703,38.9157004 L10.268239,35.3562562 L4.27582141,38.8108329 C4.03894594,38.9372643 3.74441745,38.8563378 3.60563948,38.6266896 C3.46686152,38.3970414 3.53242683,38.0990822 3.75482941,37.9487012 L20.0641002,27.6948805 L3.50745918,37.2408458 C3.26851568,37.3845237 2.95818569,37.3075516 2.81431773,37.0689236 C2.67044977,36.8302956 2.74752371,36.5203754 2.98646719,36.3766974 L16.5272107,27.9167156 L3.07228951,35.674892 C2.8330672,35.8180131 2.52296322,35.7403638 2.37965288,35.5014574 C2.23634254,35.2625509 2.31409456,34.9528565 2.55331687,34.8097354 L11.998821,28.9553069 L2.93598347,34.1795222 C2.69862259,34.3079314 2.40210974,34.227136 2.26294378,33.9961287 C2.12377782,33.7651214 2.19120843,33.4656538 2.41600115,33.3163822 L13.090279,26.6250306 L2.47254291,32.7436444 C2.23482725,32.8793167 1.93215017,32.8010212 1.79027751,32.5671584 C1.64840485,32.3332956 1.71905559,32.0291189 1.94953157,31.8815128 L12.4733679,25.1962112 L2.02626682,31.2240744 C1.78929284,31.3616996 1.4856494,31.2853134 1.34223853,31.0519966 C1.19882765,30.8186797 1.26806285,30.5137043 1.49820711,30.3649678 L14.6034898,21.8414082 L1.99294757,29.1136164 C1.75511932,29.2589651 1.44433729,29.1842502 1.29879644,28.946736 C1.1532556,28.7092218 1.2280693,28.3988502 1.46589753,28.2535015 L10.9544898,22.1344082 L2.66942942,26.9134162 C2.43280105,27.0433835 2.1356607,26.9643602 1.99509257,26.7340789 C1.85452444,26.5037976 1.92031483,26.2038192 2.14439873,26.0533012 L6.2921412,23.3993474 L4.95735163,24.172745 C4.72431654,24.3076791 4.42625162,24.2361257 4.28008324,24.0101602 C4.13391486,23.7841946 4.19113863,23.4834253 4.4101081,23.3267468 L11.6615897,18.118665 L5.31073768,21.7799516 C5.08787471,21.9131426 4.80018591,21.8557297 4.64569303,21.6472313 C4.49120014,21.4387328 4.52032068,21.1471905 4.71301043,20.9732787 L6.68793357,19.1310395 C6.46957577,19.1094459 6.29018963,18.9494622 6.24410341,18.7352142 C6.19801718,18.5209661 6.2957858,18.3015219 6.48599869,18.1922739 L9.69676331,16.3399513 C9.91962628,16.2067602 10.2073151,16.2641731 10.361808,16.4726716 C10.5163009,16.6811701 10.4871803,16.9727123 10.2944906,17.1466242 L8.62448909,18.7014862 L19.8964942,12.2027277 C20.1289039,12.0726299 20.4225398,12.1452957 20.5672335,12.3687149 C20.7119272,12.5921341 20.6578633,12.8893875 20.4437377,13.0477176 L13.1922561,18.2557994 L24.7247572,11.6078065 C24.9613856,11.4778391 25.2585259,11.5568624 25.3990941,11.7871437 C25.5396622,12.017425 25.4738718,12.3174035 25.2497879,12.4679214 L21.1050745,15.1198586 L28.1061568,11.0864941 C28.3431994,10.9517411 28.6445556,11.0293902 28.7867287,11.2618539 Z" id="Combined-Shape" fill="#E1BDFF"></path>
            <path d="M13.9085808,14.6938776 C13.7098165,14.6938776 13.5358369,14.56271 13.4843923,14.3740922 C13.4329476,14.1854743 13.5168646,13.9864255 13.6889945,13.888781 L16.468079,12.3122416 C16.6042177,12.2272192 16.7768445,12.222366 16.9177095,12.2996008 C17.0585745,12.3768357 17.145,12.5237246 17.1428167,12.6821934 C17.1406334,12.8406622 17.0501928,12.9851992 16.9072516,13.0586601 L14.1281671,14.6360625 C14.0614055,14.6739345 13.9856727,14.6938776 13.9085808,14.6938776 Z" id="Path" fill="#F9A0E0"></path>
            <path d="M21.2379612,37.9591837 C21.0326652,37.9591837 20.8482007,37.8333333 20.7729836,37.6417083 C20.6977665,37.4500834 20.7471254,37.231803 20.8974022,37.0914914 L22.5103135,35.5886917 L21.1800362,36.3581251 C20.9538106,36.4920407 20.66284,36.4272421 20.5143509,36.2098783 C20.3658619,35.9925146 20.4106272,35.696909 20.6167656,35.5335891 L25.5733469,31.5080897 L22.4483937,33.3174605 C22.2194886,33.4480076 21.9288687,33.3778178 21.7842745,33.1570641 C21.6396804,32.9363103 21.6908045,32.6408589 21.9011024,32.4819039 L28.0391537,27.9093855 L23.6448443,30.4551281 C23.4117002,30.5906797 23.113398,30.5162141 22.9707725,30.2868585 C22.828147,30.057503 22.8926495,29.7559962 23.1165285,29.6055453 L25.9538542,27.6899767 L24.4318252,28.5706173 C24.199266,28.7060123 23.9015929,28.6323685 23.7584549,28.4040267 C23.6153169,28.1756848 23.6781159,27.874644 23.9005132,27.7230383 L28.787185,24.3717951 L25.3546302,26.3605 C25.1265421,26.4907398 24.8368769,26.4216294 24.6916605,26.202324 C24.5464442,25.9830186 24.595241,25.6883701 24.8033441,25.5279489 L30.7955842,20.9784734 L26.3922864,23.5292254 C26.1648123,23.6621855 25.8735121,23.5951416 25.7265637,23.3760066 C25.5796154,23.1568717 25.6275044,22.8609314 25.8360068,22.69968 L28.545498,20.5827362 L24.5197114,22.9100719 C24.2919521,23.0393544 24.003333,22.9703165 23.8582327,22.7518457 C23.7131323,22.533375 23.7607763,22.239588 23.9674266,22.0785228 L25.6182887,20.8131655 L21.9919847,22.917085 C21.7604243,23.0503951 21.4652958,22.9774017 21.3220457,22.7513906 C21.1787956,22.5253796 21.2381052,22.2263128 21.456678,22.0725116 L21.4976249,22.0444593 L19.9895778,22.917085 C19.7564337,23.0526366 19.4581315,22.978171 19.315506,22.7488155 C19.1728805,22.5194599 19.237383,22.2179532 19.461262,22.0675023 L19.8687343,21.7949946 L18.5434506,22.5624243 C18.3103843,22.7009494 18.0097224,22.6277877 17.8658277,22.3975347 C17.7219331,22.1672816 17.7872945,21.8639271 18.0131373,21.7138434 L22.4274209,18.7222702 L17.8892977,21.3501659 C17.65483,21.4840536 17.3567474,21.4069032 17.2161186,21.1759322 C17.0754898,20.9449612 17.1431728,20.6436995 17.3689715,20.4955738 L18.8770186,19.5177522 L18.3067571,19.8473662 C18.0734036,19.9783012 17.7786483,19.9016139 17.6381442,19.6734114 C17.4976401,19.4452088 17.5612506,19.1464777 17.7824361,18.9957798 L23.2243888,15.3890606 L19.1296914,17.7604785 C18.8952237,17.8943662 18.5971411,17.8172157 18.4565123,17.5862447 C18.3158835,17.3552737 18.3835665,17.0540121 18.6093652,16.9058864 L21.32385,15.1476108 L19.8128068,16.0222402 C19.5797794,16.1494435 19.2882761,16.0716501 19.1490587,15.8451059 C19.0098414,15.6185617 19.0715132,15.3223574 19.2894845,15.1706537 L24.00338,12.0648678 L20.6007863,14.0335353 C20.3680049,14.1644405 20.0737615,14.0886036 19.9327092,13.8613484 C19.7916569,13.6340932 19.8536523,13.3357455 20.0734692,13.1839526 L25.293709,9.67742003 L21.4396999,11.9095785 C21.2057551,12.040706 20.910342,11.9632055 20.7703406,11.7339744 C20.6303391,11.5047433 20.6956722,11.2055229 20.9183751,11.0559883 L21.8172111,10.4719001 C21.5966314,10.4857852 21.3931924,10.3525597 21.3171074,10.1443988 C21.2410225,9.93623791 21.3103932,9.70266573 21.4876379,9.57022033 L27.2681522,5.26219464 L23.1165285,7.66667409 C22.8925171,7.7972522 22.6061624,7.73427618 22.4571516,7.52166187 C22.3081409,7.30904757 22.3459745,7.01742412 22.5442695,6.85015295 L26.2175127,3.72432966 L24.2071162,4.88849846 C23.9969524,5.00936477 23.7306253,4.96147519 23.575395,4.77490558 C23.4201647,4.58833598 23.4208128,4.31690891 23.5769323,4.13108744 L25.1548888,2.2636084 C24.9737865,2.26390618 24.8058206,2.16881739 24.7124618,2.01314179 C24.5745756,1.77355529 24.6564003,1.46719991 24.8952251,1.32886701 L27.0284626,0.0935656926 C27.2386263,-0.0273006146 27.5049534,0.020588968 27.6601837,0.207158571 C27.8154141,0.393728173 27.814766,0.665155246 27.6586465,0.850976719 L26.1975386,2.57919632 L30.5399153,0.0675171652 C30.763646,-0.0624891056 31.0492998,0 31.1983022,0.212298597 C31.3473045,0.424270099 31.3103695,0.715282579 31.1131729,0.883036445 L27.4379323,4.00284853 L34.23513,0.0675171652 C34.4638308,-0.0602350246 34.7520571,0.0108627997 34.8956199,0.230442608 C35.0391826,0.450022416 34.9893489,0.743546937 34.7814226,0.903073774 L29.001907,5.21109946 L37.0215216,0.568450384 C37.2546769,0.442911417 37.5449727,0.521626436 37.6833323,0.747903327 C37.8216919,0.974180218 37.7600694,1.2694435 37.5428465,1.42103872 L37.4829241,1.46011151 L37.796518,1.27977555 C38.0285855,1.1538949 38.3182266,1.23082777 38.4577899,1.45541894 C38.5973533,1.68001011 38.5386803,1.97476082 38.3238352,2.12835643 L33.0916108,5.64290389 L38.4077265,2.56517019 C38.64108,2.43423523 38.9358353,2.51092255 39.0763394,2.73912508 C39.2168435,2.96732761 39.153233,3.26605878 38.9320475,3.41675667 L34.2201494,6.52254262 L38.3577912,4.1260781 C38.593036,3.98166276 38.9004421,4.05589793 39.044402,4.29188701 C39.1883619,4.52787609 39.1143609,4.83625481 38.8791161,4.98067018 L36.182608,6.72291591 L37.2012889,6.13281658 C37.435043,5.99685649 37.7341996,6.07208275 37.876385,6.30257704 C38.0185704,6.53307134 37.9521997,6.8352101 37.7266086,6.98440305 L32.2696752,10.5971334 L35.5054849,8.72664879 C35.7399525,8.59276108 36.0380352,8.6699115 36.178664,8.90088252 C36.3192928,9.13185353 36.2516098,9.43311514 36.0258111,9.58124086 L34.2830679,10.7113462 C34.4979265,10.6505041 34.7271527,10.7380078 34.8473372,10.9267475 C34.9896564,11.1553863 34.9261028,11.4560072 34.7035234,11.6070148 L30.3002257,14.5945805 L32.4973804,13.3222101 C32.6488435,13.227537 32.8391494,13.2211157 32.9966117,13.305365 C33.1540739,13.3896144 33.2547704,13.5517349 33.2607696,13.7306573 C33.2667688,13.9095798 33.1771593,14.0781216 33.0256962,14.1727947 L31.6604642,15.0874988 C31.876181,15.093752 32.0634852,15.2383126 32.1248089,15.4458778 C32.1861326,15.6534431 32.1075982,15.8770415 31.930115,16.0001991 L31.8871706,16.0292532 L31.8931628,16.0292532 C32.1209221,15.8999708 32.4095412,15.9690087 32.5546415,16.1874794 C32.6997418,16.4059502 32.6520979,16.6997372 32.4454476,16.8608024 L30.7885932,18.1271616 L34.2910576,16.0973802 C34.5182084,15.9654236 34.8084232,16.0324142 34.9552378,16.2506936 C35.1020525,16.4689729 35.0553416,16.7640159 34.8483359,16.9259237 L32.137846,19.0428675 L37.2252578,16.0973802 C37.453157,15.9697941 37.7405569,16.03978 37.8847818,16.2579834 C38.0290067,16.4761869 37.9814048,16.7690007 37.7755452,16.9299312 L31.7833051,21.4794067 L39.6581073,16.9189106 C39.8906664,16.7835156 40.1883396,16.8571594 40.3314776,17.0855013 C40.4746155,17.3138431 40.4118166,17.614884 40.1894193,17.7664897 L35.3057436,21.1147273 L37.9822775,19.5658418 C38.2149435,19.4328249 38.510785,19.5076049 38.6528378,19.7353397 C38.7948907,19.9630745 38.7325751,20.262676 38.511592,20.4144226 L35.2248483,22.6335568 C35.4521932,22.6009122 35.6724192,22.7280345 35.7585286,22.941616 C35.8446381,23.1551976 35.7744243,23.4001583 35.5883776,23.5352366 L29.4493276,28.1097588 L30.5718739,27.4595474 C30.797639,27.3291487 31.0853986,27.3947672 31.2327866,27.610257 C31.3801746,27.8257469 31.3376615,28.1186928 31.1351444,28.2830816 L26.0047882,32.4488423 C26.1874302,32.4244529 26.36893,32.5011156 26.4791739,32.6492156 C26.6298841,32.8542177 26.6032402,33.1400365 26.4172541,33.313453 L23.0036746,36.4983864 C23.1087413,36.7328441 23.0198473,37.0090279 22.797941,37.1375772 L21.4876379,37.896992 C21.411248,37.9392154 21.3251661,37.9606313 21.2379612,37.9591837 Z" id="Path" fill="#F5EC83"></path>
            <path d="M54.964389,27.0875843 C55.4404449,20.6801107 50.6185448,15.0942834 44.1742252,14.5879493 C41.6964657,12.3976599 38.4243694,11.3113141 35.1195566,11.5817719 C37.6429888,8.06126026 42.6237683,1.75889778 35.6401034,0.241157122 C32.0155926,0.241157122 26.375996,-1.09671813 24.2073896,2.52989386 C22.5978297,5.51951447 21.2975996,8.66372234 20.3266721,11.9142197 C16.7510914,10.7772939 12.864528,12.3005312 11.0320639,15.5569994 C8.94803524,15.4914688 6.92488177,16.2607785 5.41706361,17.6921187 C3.90924545,19.1234588 3.04317792,21.0968261 3.01340544,23.1689437 C-0.0195084687,25.4633977 -0.887070584,29.6285456 0.980019261,32.931189 C0.761430246,38.7737832 5.87132972,42.9420123 11.4661918,42.6509942 C12.3482941,45.6810421 14.6598881,48.0942637 17.6615628,49.1187403 C20.6632374,50.1432169 23.9788439,49.6505683 26.5478171,47.7983782 C26.8335079,51.6382015 29.851053,51.2521982 32.3887189,52.5941154 C34.4414223,54.1522752 35.9288443,56.7967008 37.7172074,58.6569941 C42.3075767,62.7474164 43.4340727,56.5349866 42.7335711,52.8083371 C49.3807106,54.1957258 58.1425716,48.4390224 55.2866807,41.1282011 C61.8067335,38.7687308 61.4336072,29.254053 54.964389,27.0875843 Z M24.7564039,3.93243982 C27.0439634,0.366456617 31.9454407,1.43352328 35.6929715,1.43352328 C41.4698216,2.49452707 35.0422879,10.0549369 33.776505,11.8586433 C26.3546454,21.503673 37.9642638,15.0062879 39.4232184,18.67534 C39.4069513,19.877811 35.0422879,23.2962642 34.2380837,24.1470881 C33.1359884,25.3101504 21.5873715,37.9734832 21.0088732,37.3247552 C20.5167937,36.7730332 24.4656297,29.1166278 24.838756,28.230437 C25.2617004,27.2199572 27.1771501,24.355247 26.2956772,23.0709272 C25.12038,21.3531115 21.3809828,23.0294975 19.7674909,22.4646393 C15.9355746,20.7741066 20.6825147,15.6853303 21.1471434,12.826683 C21.3403151,12.6801634 21.4450345,12.4821094 21.3199812,12.3214431 C22.2878731,9.45269094 23.2262808,6.31515118 24.7564039,3.93243982 Z M41.7544957,57.3039617 C39.9874831,62.4493248 35.0941392,52.7820646 33.1288715,51.6978198 C31.0263502,50.1821001 27.5075754,50.4428039 27.4780913,47.0829586 C28.0509025,46.5662537 28.5659568,45.9896388 29.0143146,45.3631219 C30.6376881,46.0877423 32.3780484,46.5188902 34.1536981,46.6363265 C35.6151731,49.7025264 38.4297692,51.9175823 41.7677127,52.6284717 C41.8246475,54.0684054 42.1713399,56.0519772 41.7544957,57.3039617 Z M54.6766649,44.6921634 C53.2197437,53.4742433 39.1680285,53.9289592 35.3594961,46.6676514 C40.2401479,46.5397832 44.7036693,43.9015308 47.1470358,39.7003932 C49.1376885,41.3831876 51.8146223,42.0253564 54.3584399,41.4303346 C54.6348712,42.494489 54.7422422,43.595049 54.6766649,44.6921634 L54.6766649,44.6921634 Z M58.3204929,36.9842235 C57.6657239,38.5005559 56.4219367,39.6893646 54.87187,40.2804086 C52.2286352,41.165239 49.3089858,40.4417597 47.3930756,38.4271886 C46.7674629,37.7320247 46.296319,36.9135946 46.010373,36.0252781 C45.7724668,35.2714602 44.9326783,35.7221342 45.1421171,36.385009 C45.4173696,37.2640644 45.8390491,38.0909976 46.3895995,38.8313805 C44.1809012,43.1684688 39.6559998,45.8529705 34.7667641,45.7268947 C34.6911189,45.6920409 34.6044152,45.6894849 34.5268245,45.7198213 C32.7224492,45.6228587 30.9554471,45.170498 29.3284727,44.3890194 C28.7184569,43.9403664 27.9945714,43.5978137 27.4018393,43.0976262 C26.9412773,42.7439583 26.0435373,43.5523421 26.5600174,43.9494607 C27.0282692,44.3054697 27.5186073,44.6318265 28.0281223,44.9265947 C23.4123356,51.3936654 14.4562862,49.0998762 12.3578316,41.8203798 C12.0111393,40.9695558 12.6313221,39.6266281 11.8047506,39.0678328 C10.7372229,39.1496817 11.4448413,41.0150274 11.4153572,41.7476252 C6.97507222,41.9877419 3.0543443,38.8928036 2.2844365,34.5398728 C2.86275258,35.0915133 3.52238513,35.5522061 4.24055401,35.9060415 C4.76618433,36.1627034 5.66392433,35.4644619 4.98680673,35.132014 C2.86113783,34.0685835 1.44614767,31.9816266 1.25245329,29.624248 C1.05875892,27.2668694 2.11432306,24.9793926 4.03823208,23.5872823 C4.80912511,23.0934186 5.67452102,22.7634815 6.57996481,22.6182322 C6.89132123,22.588243 7.14909769,22.3649298 7.22149815,22.0624683 C6.93682408,20.9893388 4.92173838,22.2120193 4.22530361,22.4312934 C4.54754036,18.9572454 7.5489077,16.3413823 11.0564645,16.4775465 C11.9036055,16.6848312 12.7391361,16.9364546 13.5595629,17.2313644 C14.1533116,17.5031835 14.5040708,16.3532575 13.9743737,16.1107423 C13.4330906,15.870791 12.8667271,15.6911774 12.2856464,15.575188 C13.8711409,12.9435224 17.1118597,11.7992503 20.0125139,12.8468926 C19.5295847,15.9793799 14.7440103,21.1944662 18.528142,23.4488466 C20.2636371,24.3188697 22.5898309,23.0668852 24.3558268,23.6630683 C25.6053426,24.0854489 25.067512,23.5216011 25.2972846,24.4936827 C24.9485589,27.9020311 18.7141969,34.7641994 20.3592063,38.2624804 C22.0733508,40.1935073 25.5036733,35.0158088 26.3404117,34.131639 L38.2662217,21.552176 C39.7099259,20.029383 42.2089575,17.7305414 39.0714426,16.4452111 C35.3422124,15.8227556 29.4525093,19.0259765 34.419055,12.5589058 C37.7467477,12.1315779 41.0941368,13.189626 43.562176,15.4488781 C44.4555067,16.3385727 45.1883624,17.3742285 45.728749,18.5106318 C45.9717386,19.0229451 47.1653363,18.9794945 46.8674452,18.3519865 C46.4104507,17.3906244 45.8294393,16.4925033 45.139067,15.6802779 C50.6184269,16.808772 54.3444013,21.8822707 53.7555409,27.4129588 C53.71196,27.5084028 53.739675,27.6210895 53.8226427,27.6857884 C53.7049713,28.5024195 53.4976863,29.3037898 53.2044933,30.0755731 C53.1489566,30.1979846 53.1491439,30.3382365 53.2050073,30.460501 C53.2608707,30.5827655 53.367,30.6752017 53.4962842,30.7141963 C54.5211108,30.5019956 54.4174081,28.8953327 54.7102158,28.0717917 C56.3879061,28.7656059 57.7150558,30.0998669 58.393841,31.7751553 C59.0726263,33.4504437 59.0462001,35.3264572 58.3204929,36.9822025 L58.3204929,36.9842235 Z" id="Shape" fill="#262626"></path>
        </g>
    </g>
</svg>