<?xml version="1.0" encoding="UTF-8"?>
<svg width="60px" height="60px" viewBox="0 0 60 60" version="1.1" xmlns="http://www.w3.org/2000/svg" xmlns:xlink="http://www.w3.org/1999/xlink">
    <title>role-skills-4</title>
    <g id="Page-1" stroke="none" stroke-width="1" fill="none" fill-rule="evenodd">
        <g id="role-skills-4" fill-rule="nonzero">
            <path d="M36.6837562,6.58900218 C36.8276744,6.82728852 36.751174,7.13712657 36.5128877,7.28104485 L29.2426592,11.88391 L36.9483756,7.43628823 C37.1840364,7.30650314 37.4800847,7.38467685 37.6209503,7.61388654 C37.761816,7.84309623 37.6978361,8.1425328 37.4755982,8.29415906 L25.0137894,16.4514925 L36.9483756,9.56130787 C37.1835885,9.4333164 37.477826,9.51159182 37.6183491,9.73953963 C37.7588722,9.96748744 37.6966219,10.2655271 37.4766063,10.4181706 L26.169042,17.8416264 L36.9483756,11.6147543 C37.1850052,11.4899502 37.4779153,11.5717551 37.6156347,11.8011087 C37.753354,12.0304622 37.6878988,12.3274538 37.4665255,12.4776655 L36.8032129,12.8919838 L36.9483756,12.8093218 C37.1857144,12.6736855 37.4879117,12.7519602 37.6295594,12.985761 C37.7712072,13.2195619 37.7006684,13.5236579 37.4705578,13.6712249 L32.9150721,16.5714533 L36.9473675,14.2428028 C37.1833141,14.1060003 37.4852765,14.1816926 37.6287956,14.413615 C37.7723146,14.6455375 37.7053214,14.9495482 37.4776143,15.0996655 L28.3918448,21.113834 L36.9473675,16.1742722 C37.1835066,16.0423322 37.4816904,16.120313 37.623005,16.3509643 C37.7643195,16.5816156 37.6983736,16.88269 37.473582,17.0331512 L24.6539071,25.3568168 L36.7749869,18.3597763 C37.0123257,18.22414 37.314523,18.3024147 37.4561707,18.5362156 C37.5978185,18.7700164 37.5272797,19.0741125 37.2971691,19.2216795 L25.335365,26.860863 L36.1328438,20.6269344 C36.3708518,20.4824594 36.6809155,20.5582828 36.8253906,20.7962908 C36.9698656,21.0342988 36.8940421,21.3443625 36.6560342,21.4888375 L25.5369797,28.553419 L34.5088369,23.3729275 C34.7446216,23.2449478 35.0393349,23.3240864 35.1792938,23.5529635 C35.3192527,23.7818406 35.2554048,24.0802402 35.0340434,24.2318064 L21.9290835,32.7137397 L27.2960686,29.6159288 C27.5321033,29.4817421 27.8320131,29.5586317 27.9743722,29.7898293 C28.1167313,30.021027 28.050377,30.3234423 27.8242993,30.4737996 L19.710313,35.8115506 L28.5813627,30.6905355 C28.817616,30.5606026 29.1142853,30.6396049 29.2546306,30.8698252 C29.3949759,31.1000454 29.3292898,31.3999444 29.1055611,31.5504225 L23.0682069,35.4315068 L29.6973005,31.6008262 C29.9325134,31.4728347 30.2267509,31.5511101 30.367274,31.7790579 C30.5077971,32.0070057 30.4455468,32.3050454 30.2255311,32.4576889 L20.2949958,38.9648056 L31.0813858,32.7369254 C31.3180526,32.6022081 31.6189311,32.6798366 31.7608789,32.9122386 C31.9028267,33.1446407 31.8345088,33.4477689 31.6065923,33.5968124 L22.8907859,39.2037191 L32.3273651,33.7601203 C32.5644728,33.633478 32.8592402,33.7151911 32.9973038,33.9458353 C33.1353674,34.1764796 33.0681381,34.4748838 32.844507,34.6240396 L31.7749406,35.2883603 L32.5350283,34.8508562 C32.5797603,34.8266248 32.6265965,34.809845 32.6740832,34.8001202 L34.6519834,33.1341065 C34.4080372,33.1968656 34.1552109,33.0698982 34.0598669,32.8367503 C33.9645229,32.6036024 34.0559361,32.3358609 34.2739557,32.2097028 L38.988717,29.4879034 C39.2142842,29.3613539 39.4990292,29.4260739 39.6477339,29.6376921 C39.7964386,29.8493103 39.7608361,30.1391393 39.5653352,30.3084755 L35.8042118,33.4808839 L44.2125556,28.6280164 C44.4452362,28.5002176 44.7371578,28.5747987 44.8800247,28.7985437 C45.0228916,29.0222888 44.9677264,29.3184937 44.7538913,29.4758065 L39.7871115,32.9627339 L46.8325395,28.8941479 C47.065466,28.7632916 47.3600323,28.8369138 47.504004,29.06197 C47.6479757,29.2870261 47.5913314,29.5853228 47.3748833,29.741938 L38.7054483,35.8659866 L49.4777253,29.6471791 C49.7136719,29.5103766 50.0156343,29.5860689 50.1591533,29.8179914 C50.3026724,30.0499138 50.2356792,30.3539245 50.0079721,30.5040418 L43.0280689,35.1331169 L51.1763297,30.4294444 C51.412928,30.2918557 51.7160901,30.3682216 51.8592737,30.6014766 C52.0024572,30.8347316 51.9333317,31.1396261 51.7035523,31.2883233 L45.9000712,35.0464225 L52.5120275,31.2288469 C52.7466838,31.1007312 53.0405466,31.1781188 53.1816648,31.4051934 C53.3227831,31.6322679 53.2620556,31.93002 53.0432825,32.0836935 L43.1560943,38.6523027 L54.0049849,32.3871238 C54.2430652,32.2498424 54.5472359,32.3285868 54.6887935,32.5641497 C54.8303511,32.7997125 54.7571115,33.1052553 54.5241429,33.251043 L53.4253424,33.9395575 L54.8003551,33.1462034 C55.0364942,33.0142633 55.3346781,33.0922441 55.4759926,33.3228954 C55.6173072,33.5535468 55.5513613,33.8546211 55.3265697,34.0050823 L46.2539052,39.913403 L55.8709296,34.3619404 C56.1094943,34.2183005 56.4193323,34.2952523 56.5629722,34.533817 C56.7066121,34.7723817 56.6296604,35.0822198 56.3910957,35.2258597 L53.9192986,36.7782934 L56.5402906,35.2661826 C56.7752553,35.1344664 57.0722586,35.2107731 57.2146338,35.4394364 C57.3570091,35.6680997 57.2944322,35.9682959 57.0725536,36.1210293 L44.8093353,44.3116292 L57.5352595,36.9647871 C57.7719262,36.8300698 58.0728047,36.9076982 58.2147525,37.1401003 C58.3567003,37.3725024 58.2883825,37.6756306 58.0604659,37.824674 L49.6742997,43.2450871 L58.1421199,38.3579451 C58.378736,38.2112431 58.6894768,38.2841329 58.8361788,38.520749 C58.9828807,38.7573651 58.9099909,39.0681059 58.6733748,39.2148079 L47.6137968,46.5525773 L58.6925282,40.1563488 C58.929195,40.0216316 59.2300735,40.09926 59.3720213,40.3316621 C59.5139691,40.5640642 59.4456512,40.8671923 59.2177347,41.0162358 L51.9385873,45.7264713 L58.9838616,41.660395 C59.2192923,41.5264786 59.5184677,41.602568 59.6613122,41.8326912 C59.8041566,42.0628144 59.7395938,42.3646872 59.5151165,42.5162497 L49.9605927,48.883244 L59.1189435,43.5969048 C59.3549782,43.4627181 59.654888,43.5396077 59.7972471,43.7708054 C59.9396062,44.0020031 59.8732519,44.3044184 59.6471742,44.4547757 L53.0654601,48.7794124 L59.0282168,45.3368403 C59.2649773,45.204499 59.5640121,45.2832506 59.7048775,45.5150407 C59.8457429,45.7468308 59.7779202,46.0485322 59.5514071,46.1977353 L58.9637001,46.5707227 C59.1746828,46.5179938 59.3959266,46.6045498 59.5151165,46.7864505 C59.6609558,47.0127168 59.603255,47.3136487 59.3840669,47.4699245 L51.1823781,53.2975994 L58.0372802,49.3409096 C58.2679868,49.2106363 58.5601691,49.2812158 58.7059685,49.5024378 C58.8517679,49.7236599 58.8014071,50.0199971 58.5907128,50.1806351 L52.8134416,54.508296 L56.3033932,52.4921484 C56.5344453,52.3607924 56.827791,52.4314171 56.9737414,52.6535386 C57.1196917,52.8756601 57.0680881,53.1729421 56.8558177,53.332882 L54.5291833,55.0597124 C54.6760275,55.155375 54.7626395,55.3204475 54.7579102,55.4956394 C54.7531808,55.6708313 54.6577891,55.8309905 54.5059976,55.9185913 L49.364821,58.8833365 C49.1337689,59.0146925 48.8404232,58.9440678 48.6944729,58.7219463 C48.5485225,58.4998248 48.6001262,58.2025428 48.8123966,58.0426029 L49.2035292,57.7522777 L46.005919,59.5980608 C45.930904,59.6429887 45.8453632,59.6673295 45.7579328,59.668626 C45.54098,59.668626 45.3483679,59.5297991 45.2797614,59.3239796 C45.2111549,59.1181601 45.2819484,58.8915313 45.4555107,58.7613596 L51.2327818,54.4347067 L42.4091115,59.5295118 C42.1763164,59.6623066 41.8803089,59.5897022 41.7353818,59.36426 C41.5904547,59.1388178 41.6472942,58.8393831 41.8647517,58.6827298 L50.0674485,52.855055 L39.6500135,58.8702315 C39.4126746,59.0058678 39.1104774,58.9275931 38.9688296,58.6937923 C38.8271818,58.4599915 38.8977206,58.1558954 39.1278312,58.0083284 L39.3909385,57.8409882 L38.4383087,58.3903884 C38.202274,58.5245751 37.9023641,58.4476855 37.7600051,58.2164878 C37.617646,57.9852902 37.6840003,57.6828749 37.910078,57.5325176 L44.4887679,53.2098969 L36.8878911,57.5970343 C36.6524604,57.7309506 36.353285,57.6548613 36.2104405,57.424738 C36.0675961,57.1946148 36.132159,56.8927421 36.3566362,56.7411796 L45.9091439,50.3741852 L35.2850537,56.5083145 C35.048387,56.6430318 34.7475085,56.5654034 34.6055607,56.3330013 C34.4636129,56.1005992 34.5319307,55.797471 34.7598473,55.6484276 L42.0441888,50.9336662 L34.128793,55.5032649 C33.8921769,55.6499669 33.5814362,55.5770771 33.4347342,55.340461 C33.2880322,55.1038449 33.360922,54.7931042 33.5975381,54.6464022 L44.6520758,47.3096408 L32.8505554,54.1232118 C32.6138886,54.2579291 32.3130102,54.1803007 32.1710624,53.9478986 C32.1158604,53.85752 32.092458,53.7564452 32.097875,53.657896 L32.1509522,53.6353041 C31.9616783,53.7402795 31.7265155,53.7127001 31.566666,53.5667804 C31.4068166,53.4208607 31.3579695,53.1891795 31.4453005,52.9911449 L31.4757152,52.9243942 C31.390372,52.8844247 31.315287,52.8201182 31.261893,52.7342631 C31.1228911,52.5107545 31.1798827,52.2199731 31.3877922,52.0645961 L28.6620086,53.6353041 C28.4459032,53.7590911 28.1717852,53.7064883 28.0168524,53.5114996 C27.8619195,53.3165109 27.8726227,53.0375967 28.0420432,52.855055 L30.3938795,50.3459592 L24.6861654,53.6403445 C24.4596146,53.7706043 24.171081,53.7061096 24.0215533,53.4917866 C23.8720256,53.2774636 23.9111024,52.9844035 24.1115633,52.8167481 L28.1247053,49.4901045 L20.9280662,53.6443768 C20.6949951,53.7811584 20.3955234,53.7097885 20.249196,53.482589 C20.1028687,53.2553894 20.1617609,52.9532161 20.3826982,52.7975947 L24.2133788,50.0596662 L17.9996117,53.647401 C17.7665406,53.7841826 17.4670689,53.7128127 17.3207415,53.4856132 C17.1744142,53.2584136 17.2333064,52.9562404 17.4542437,52.800619 L24.189185,47.9890825 L14.3806266,53.6514333 C14.1471768,53.7818807 13.8524876,53.7073031 13.7091918,53.4815119 C13.5658961,53.2557207 13.6238808,52.9573227 13.8413071,52.801627 L22.7436071,46.6120537 L10.5459137,53.6554656 C10.3085749,53.7911019 10.0063776,53.7128272 9.86472985,53.4790263 C9.72308209,53.2452255 9.79362083,52.9411295 10.0237315,52.7935624 L13.0227511,50.8842706 L8.21726314,53.6584898 C8.14105072,53.7040598 8.05403971,53.7284229 7.96524468,53.7290554 C7.74302643,53.7290554 7.54684858,53.5840385 7.4823134,53.3713974 C7.41777822,53.1587563 7.50011426,52.9289404 7.68500015,52.8056593 L19.532892,44.9063927 L5.25453413,53.1463883 C5.01645381,53.2836696 4.71228315,53.2049252 4.57072556,52.9693624 C4.42916797,52.7337996 4.50240757,52.4282567 4.73537611,52.282469 L9.19408669,49.4860722 L5.25453413,51.7602868 C5.01641954,51.8944322 4.7147782,51.8143708 4.5745279,51.5798001 C4.4342776,51.3452295 4.50652197,51.041621 4.73739225,50.8953594 L5.78982134,50.2421276 L5.25453413,50.5505982 C5.01722187,50.6896703 4.71223301,50.6128043 4.56918133,50.3778695 C4.42612965,50.1429346 4.49784497,49.8366937 4.73033574,49.6897031 L13.4400937,44.0858206 L5.25453413,48.8116708 C5.01887327,48.9414559 4.72282504,48.8632822 4.58195939,48.6340725 C4.44109374,48.4048628 4.50507361,48.1054262 4.72731152,47.9538 L14.6578469,41.4497076 L5.25453413,46.8791932 C5.01828087,47.0091262 4.72161156,46.9301238 4.58126627,46.6999036 C4.44092097,46.4696833 4.50660707,46.1697843 4.73033574,46.0193063 L10.7707142,42.1362058 L5.25453413,45.3207111 C5.01932118,45.4487026 4.72508374,45.3704271 4.58456062,45.1424793 C4.4440375,44.9145315 4.50628779,44.6164919 4.72630344,44.4638483 L12.843314,39.121057 L5.2595745,43.5011378 C5.02290772,43.6358551 4.72202926,43.5582266 4.58008145,43.3258246 C4.43813365,43.0934225 4.50645151,42.7902943 4.73436803,42.6412508 L17.8393279,34.1613337 L5.51058489,41.278335 C5.27421075,41.4064338 4.97890377,41.3264605 4.83947319,41.0965885 C4.70004262,40.8667165 4.76557553,40.567873 4.98840264,40.41744 L16.1104813,33.3488262 L6.24647879,39.0424272 C6.00847081,39.1869023 5.69840708,39.1110788 5.55393206,38.8730708 C5.40945704,38.6350629 5.48528049,38.3249991 5.72328847,38.1805241 L17.6871088,30.5433567 L8.44307168,35.8800996 C8.20693259,36.0120396 7.90874874,35.9340589 7.76743419,35.7034075 C7.62611965,35.4727562 7.69206553,35.1716819 7.91685714,35.0212207 L20.7375402,26.6985631 L14.6376854,30.219765 C14.4017388,30.3565675 14.0997764,30.2808751 13.9562573,30.0489527 C13.8127383,29.8170303 13.8797315,29.5130196 14.1074386,29.3629023 L23.1922,23.3477257 L13.2566243,29.0846739 C13.021017,29.2079122 12.7302003,29.1269378 12.5921874,28.8996695 C12.4541745,28.6724012 12.5164378,28.3770124 12.734442,28.2247869 L17.2909357,25.3245585 L12.2324212,28.2479726 C11.9949102,28.378785 11.6964716,28.2982553 11.557005,28.0657205 C11.4175384,27.8331858 11.4870279,27.5319851 11.7142713,27.3840533 L12.3806081,26.9677188 L11.3785827,27.5453451 C11.1430406,27.6770913 10.8455207,27.5999289 10.7036987,27.3703124 C10.5618768,27.140696 10.6260839,26.8401139 10.8493439,26.6884824 L22.1498516,19.2680509 L9.91183526,26.3346484 C9.67691652,26.4595086 9.38540672,26.3802922 9.24599112,26.1537086 C9.10657552,25.9271249 9.16726469,25.6312026 9.38461264,25.4777857 L21.8464214,17.3204522 L8.43903938,25.0624593 C8.28489514,25.1557381 8.09269631,25.1596964 7.93484231,25.072843 C7.77698832,24.9859896 7.67746094,24.8215197 7.67375119,24.6413874 C7.67004143,24.4612551 7.7627129,24.2928269 7.91685714,24.1995481 L15.1971664,19.5896264 L7.51665182,24.0251513 C7.27836547,24.1710182 6.96694775,24.0960974 6.82108088,23.857811 C6.675214,23.6195247 6.75013478,23.308107 6.98842113,23.1622401 L13.6527973,18.9192573 L6.76160452,22.8981247 C6.52594366,23.0279098 6.22989542,22.9497361 6.08902978,22.7205264 C5.94816413,22.4913167 6.01214399,22.1918802 6.2343819,22.0402539 L15.0025873,16.2944713 L6.05998513,21.4626276 C5.82420041,21.5906073 5.52948716,21.5114687 5.38952825,21.2825916 C5.24956934,21.0537145 5.31341718,20.755315 5.53477866,20.6037487 L10.3735331,17.4787198 L5.64365063,20.2105999 C5.40891026,20.3468338 5.10844517,20.2727337 4.96396465,20.0429771 C4.81948413,19.8132205 4.88287208,19.5103144 5.10735535,19.3577694 L12.9501698,14.0079216 L5.31703471,18.4142123 C5.08499341,18.5442756 4.79182304,18.4716291 4.6473587,18.2482691 C4.50289436,18.0249091 4.55687256,17.7277345 4.77065869,17.5694464 L12.1124604,12.2720184 L5.25453413,16.2287082 C5.02262852,16.3606216 4.72809713,16.2889688 4.58270453,16.0652674 C4.43731193,15.8415659 4.49142714,15.5433136 4.70614197,15.3849504 L9.21626431,12.1087105 L5.25453413,14.3950219 C5.02134188,14.5223669 4.72934086,14.4468259 4.58715963,14.2223713 C4.4449784,13.9979166 4.50144827,13.701636 4.7162227,13.5452157 L5.09525847,13.2821084 C4.87540831,13.3225616 4.65517823,13.2133777 4.55427666,13.0139048 C4.45337508,12.814432 4.49558733,12.5723305 4.6587625,12.4191972 L7.76060569,9.52602529 L5.25453413,10.9726112 C5.03263781,11.0946969 4.7546053,11.0331656 4.60494464,10.8288507 C4.45528398,10.6245358 4.48047604,10.3408925 4.66380286,10.1661522 L5.2212677,9.66211526 C5.04829594,9.74245564 4.84479214,9.71828634 4.69545011,9.59966609 C4.54610808,9.48104585 4.47650804,9.28829268 4.51561601,9.1016262 L4.83013505,7.65201603 C4.71873363,7.61067461 4.62601424,7.53048487 4.56904392,7.42620749 C4.43038011,7.18562512 4.51241835,6.8782071 4.75251336,6.73870113 L5.25655028,6.44736779 C5.42929788,6.34741129 5.64475477,6.35879871 5.8060035,6.47640773 C5.96725223,6.59401675 6.04391881,6.79569367 6.00151685,6.99071959 L5.73941765,8.20040819 L8.7737199,6.44434357 C8.99550322,6.32385244 9.27221498,6.38598223 9.42119923,6.58972138 C9.57018349,6.79346054 9.54550038,7.07598532 9.36344309,7.25080264 L8.8120267,7.75483956 L11.0872494,6.44434357 C11.3096663,6.31326457 11.5951684,6.37143459 11.7485704,6.57908534 C11.9019724,6.7867361 11.8736737,7.07672639 11.683021,7.25080264 L8.58218587,10.1379261 L14.9915193,6.43829513 C15.2256886,6.30202692 15.5256904,6.3752535 15.6707436,6.60408499 C15.8157967,6.83291648 15.7540031,7.13548018 15.5308388,7.28910945 L15.4461606,7.34757773 L17.0248043,6.44031127 C17.2567099,6.30839787 17.5512413,6.38005066 17.6966339,6.60375214 C17.8420265,6.82745363 17.7879112,7.12570587 17.5731964,7.28406908 L13.0600499,10.5643413 L20.2093095,6.43728705 C20.4415882,6.30398296 20.7375593,6.37560374 20.8831931,6.6003573 C21.028827,6.82511087 20.9732682,7.12451294 20.7566936,7.28205293 L13.4158999,12.5784729 L24.0601516,6.42922246 C24.2948919,6.29298855 24.595357,6.36708865 24.7398375,6.59684526 C24.8843181,6.82660188 24.8209301,7.12950791 24.5964468,7.28205293 L16.7536324,12.6319008 L27.5037318,6.42619824 C27.7403986,6.29148099 28.041277,6.36910942 28.1832248,6.60151149 C28.3251726,6.83391356 28.2568548,7.13704175 28.0289383,7.28608522 L23.178087,10.4161545 L30.0934735,6.42418209 C30.3291343,6.294397 30.6251826,6.37257072 30.7660482,6.60178041 C30.9069139,6.83099009 30.842934,7.13042667 30.6206961,7.28205293 L21.8504537,13.0230334 L33.2860433,6.42115787 C33.5233821,6.28552159 33.8255794,6.36379628 33.9672272,6.59759712 C34.1088749,6.83139795 34.0383362,7.135494 33.8082256,7.283061 L27.1428414,11.5270519 L35.9917135,6.41813365 C36.2299998,6.2742154 36.5398379,6.35071584 36.6837562,6.58900218 Z M40.7064748,47.8439199 L33.4538649,52.0301551 C33.5320183,52.079387 33.5974455,52.1505625 33.6398826,52.2395914 C33.6623273,52.2866784 33.6768429,52.3356163 33.6839152,52.3848444 L40.7064748,47.8439199 Z M43.6823088,43.8549717 L33.0918157,49.9644206 C33.2296142,49.9515006 33.3702743,49.9955765 33.4775535,50.0928267 C33.6111956,50.2139753 33.6677819,50.3947517 33.6331049,50.5661494 L43.6823088,43.8549717 Z M39.057266,43.3993224 L32.4505873,47.2114713 L29.3474988,49.7854701 L29.8064239,49.5185482 C29.8449469,49.4334206 29.9075365,49.3580484 29.991658,49.3036108 L39.057266,43.3993224 Z M39.1016213,40.1341712 L29.4906453,45.6785773 C29.3634393,45.756422 29.2153295,45.7711275 29.082879,45.7314954 L26.5057387,47.57174 L32.7447077,43.9709002 C32.9202303,43.8678918 33.1334114,43.8829343 33.2904821,43.9936808 L39.1016213,40.1341712 Z M28.7116047,43.693724 L24.2855873,46.7704713 L28.9201454,44.0945387 C28.8682722,44.0570429 28.822751,44.0090074 28.7870396,43.951299 C28.7373239,43.8709599 28.7128689,43.7819704 28.7116047,43.693724 Z M37.7699557,35.2913845 L30.2960963,39.6059405 C30.0634158,39.7337393 29.7714942,39.6591582 29.6286273,39.4354132 L29.6095873,39.3994713 L21.2486336,44.9709095 L32.6166823,38.4063326 C32.8204385,38.2959106 33.0679851,38.3400978 33.2217326,38.5016331 L37.7699557,35.2913845 Z M35.9181241,38.6351654 L33.3908181,40.0967347 C33.4026578,40.1723411 33.3969951,40.2493512 33.3749986,40.3217516 L35.9181241,38.6351654 Z M30.7987129,37.1306458 L28.6035403,38.50714 L30.8831322,37.1924731 C30.8532061,37.1750335 30.8248808,37.1543823 30.7987129,37.1306458 Z M34.7205324,35.2802957 L33.0745123,36.2254512 C33.1239896,36.255033 33.1688932,36.2934302 33.2066514,36.3399888 L34.7205324,35.2802957 Z" id="Combined-Shape" fill="#D4E8FA"></path>
            <path d="M21.2192063,33.8447869 C21.366188,34.0604125 21.3242859,34.3525698 21.1226244,34.5181919 L16.4370972,38.2551216 L22.9099393,34.5191999 C23.1408519,34.3859347 23.4356063,34.4555421 23.5825066,34.6780293 C23.7294069,34.9005164 23.6776376,35.198921 23.4643799,35.3589254 L17.1467812,40.0857837 L24.5057202,35.8347363 C24.7417549,35.7005496 25.0416648,35.7774392 25.1840238,36.0086368 C25.3263829,36.2398345 25.2600286,36.5422498 25.0339509,36.6926071 L24.8323361,36.8226486 L25.3444376,36.5282911 C25.5788144,36.4032192 25.8700311,36.4815322 26.0100642,36.7072891 C26.1500974,36.9330459 26.0908677,37.2287348 25.8746845,37.3831377 L23.5954295,38.8952485 L26.3172289,37.3236613 C26.5512121,37.1935353 26.8461019,37.2690476 26.9887465,37.4956165 C27.1313911,37.7221854 27.0720096,38.0207419 26.8535242,38.1754837 L21.1145598,42.1069717 L27.5874019,38.370042 C27.823541,38.238102 28.1217249,38.3160827 28.2630394,38.5467341 C28.404354,38.7773854 28.3384081,39.0784597 28.1136165,39.2289209 L26.851508,40.0464688 L28.4906361,39.1119843 C28.7243684,38.9778483 29.022265,39.051294 29.1668587,39.2787053 C29.3114524,39.5061167 29.2515865,39.8070365 29.0309637,39.9617906 L21.9331158,44.9184896 L29.4684677,40.5646187 C29.70372,40.4252353 30.0072019,40.4988503 30.1524461,40.73053 C30.2976904,40.9622096 30.231716,41.2674436 30.0037549,41.4184573 L26.3958586,43.8690848 L29.635808,41.9980997 C29.8711388,41.8617083 30.1722388,41.9366353 30.3162021,42.1674118 C30.4601653,42.3981884 30.3950578,42.7015633 30.169079,42.8529463 L29.3696765,43.3892416 L29.772906,43.1594008 C30.0013866,43.0308799 30.29024,43.0989532 30.4372878,43.3159737 C30.5843357,43.5329942 30.540481,43.8265024 30.3364193,43.9910617 L26.1851712,47.2642775 L29.9946822,45.0646603 C30.22196,44.9305425 30.5142119,44.9944381 30.6647836,45.211166 C30.8153552,45.4278939 30.7732654,45.7240734 30.5682763,45.8902728 L28.3222877,47.7461367 L30.1842001,46.6725381 C30.4106121,46.5445034 30.6972668,46.6097791 30.845919,46.8232218 C30.9945712,47.0366644 30.9563958,47.3281683 30.7577941,47.4961344 L30.387831,47.7985566 C30.595919,47.7193 30.8313713,47.784182 30.9694896,47.9588403 C31.1242317,48.1574053 31.1087401,48.4396971 30.933199,48.6201368 L30.5884377,48.9729626 C30.7542015,48.9317023 30.9295825,48.9772074 31.0543745,49.0938564 C31.1791666,49.2105054 31.2363848,49.3824218 31.206387,49.5505889 L31.0501355,50.4266051 C31.2326315,50.4943544 31.3598004,50.6611376 31.3768222,50.8550577 C31.3938441,51.0489778 31.2976758,51.235365 31.1297734,51.3338715 L30.6569868,51.6070595 C30.4872861,51.7054006 30.2759485,51.696368 30.1152575,51.583906 C29.9545666,51.471444 29.8737073,51.275978 29.9079879,51.0828611 L30.0239164,50.4376939 L27.9906315,51.6110918 C27.7729574,51.7352201 27.4971515,51.6805947 27.3432232,51.4828678 C27.189295,51.2851409 27.2039922,51.0043619 27.3777226,50.8237862 L27.671072,50.521364 L25.7789175,51.6221806 C25.5523666,51.7524405 25.263833,51.6879458 25.1143054,51.4736228 C24.9647777,51.2592997 25.0038545,50.9662397 25.2043154,50.7985843 L25.5510928,50.5112833 L23.6196233,51.6201645 C23.392924,51.7487553 23.1055783,51.6833097 22.9569256,51.4692289 C22.808273,51.2551481 22.8473454,50.9630454 23.0470374,50.7955601 L25.2910097,48.9396962 L20.639757,51.6252049 C20.411111,51.756204 20.1201479,51.6889712 19.972152,51.4709415 C19.824156,51.2529118 19.8690831,50.9576808 20.0752357,50.793544 L24.2264837,47.5243605 L17.103434,51.6352856 C16.8681032,51.7716771 16.5670031,51.6967501 16.4230399,51.4659735 C16.2790767,51.2351969 16.3441842,50.9318221 16.570163,50.780439 L17.3675494,50.2451518 L14.9522044,51.6383098 C14.7169522,51.7776932 14.4134703,51.7040782 14.268226,51.4723986 C14.1229817,51.2407189 14.1889562,50.9354849 14.4169172,50.7844713 L18.0258216,48.3338438 L12.2999622,51.6423421 C12.2236345,51.6876432 12.1366977,51.7119855 12.0479437,51.712908 C11.8276696,51.7132682 11.6326754,51.5705497 11.5664212,51.3604754 C11.500167,51.1504011 11.5780012,50.9216367 11.7586265,50.7955601 L18.8544583,45.8408772 L10.2949033,50.780439 C10.0591186,50.9084187 9.76440534,50.8292801 9.62444644,50.600403 C9.48448753,50.3715259 9.54833537,50.0731264 9.76969685,49.9215601 L11.0338214,49.1019961 L10.2949033,49.5284113 C10.0609201,49.6585373 9.76603026,49.583025 9.62338569,49.3564561 C9.48074112,49.1298872 9.54012257,48.8313308 9.75860804,48.6765889 L15.4945482,44.7451009 L10.2949033,47.7461367 C10.060247,47.8742525 9.7663843,47.7968649 9.62526602,47.5697903 C9.48414774,47.3427157 9.54487528,47.0449636 9.76364841,46.8912901 L12.0439114,45.3791794 L10.2949033,46.3872532 C10.0588686,46.5214399 9.75895876,46.4445503 9.61659968,46.2133527 C9.4742406,45.982155 9.54059488,45.6797397 9.76667263,45.5293824 L10.1880475,45.2521621 C9.9543312,45.3174997 9.70723535,45.2070174 9.60009143,44.9892733 C9.49294751,44.7715292 9.55617684,44.5083473 9.75054345,44.3630409 L16.0711664,39.6351747 L11.1215239,42.4910478 C10.8930256,42.6238674 10.6007392,42.5576325 10.4518185,42.3392862 C10.3028978,42.1209399 10.3479244,41.8246443 10.5549864,41.660395 L17.8443683,35.8478412 L17.8443683,35.8407847 C17.7050195,35.5999777 17.7871386,35.2918054 18.0278377,35.1522703 L20.557095,33.6885471 C20.7849671,33.5613765 21.0722245,33.6291613 21.2192063,33.8447869 Z M29.8065089,8.60255738 C29.951436,8.82799954 29.8945965,9.12743423 29.677139,9.28408757 L22.2315056,14.5784914 L31.9090145,8.98973001 C32.1427468,8.85559397 32.4406433,8.92903963 32.5852371,9.15645102 C32.7298308,9.38386241 32.6699649,9.68478214 32.449342,9.83953625 L24.6105599,15.3214418 L31.9080064,11.1087012 C32.1427468,10.9724673 32.4432119,11.0465674 32.5876924,11.276324 C32.7321729,11.5060806 32.6687849,11.8089867 32.4443017,11.9615317 L27.2023177,15.5452342 L31.9100225,12.8284752 C32.1449413,12.703615 32.4364511,12.7828314 32.5758667,13.0094151 C32.7152823,13.2359987 32.6545931,13.5319211 32.4372451,13.6853379 L32.0067976,13.9675986 C32.2427878,13.8887305 32.5010209,13.9938696 32.614807,14.2151482 C32.7285931,14.4364269 32.6638829,14.7076301 32.462447,14.8536955 L25.8646037,19.7327729 L31.6368345,16.4061292 C31.8691133,16.2728251 32.1650843,16.3444459 32.3107182,16.5691995 C32.456352,16.793953 32.4007932,17.0933551 32.1842186,17.2508951 L28.0783339,20.212616 L28.9755196,19.6954742 C29.2061658,19.5694648 29.4949233,19.6418322 29.638881,19.8617236 C29.7828387,20.0816151 29.7336708,20.3752142 29.5259279,20.5362077 L24.5289059,24.2207176 C24.6101064,24.4496759 24.5164381,24.7039791 24.3061216,24.8255619 L21.5792818,26.4011813 C21.5022351,26.444948 21.414852,26.4672289 21.3262553,26.4657719 C21.1093025,26.4657719 20.9166904,26.3268711 20.8480839,26.1210516 C20.7794774,25.9152321 20.8502709,25.6886033 21.0238332,25.5584316 L21.761038,25.0120189 L19.9673718,26.0473474 C19.7350931,26.1806515 19.439122,26.1090307 19.2934882,25.8842772 C19.1478543,25.6595236 19.2034131,25.3601215 19.4199877,25.2025815 L23.5208321,22.2418687 L18.6669565,25.0443139 C18.4353213,25.1803607 18.1376926,25.110836 17.9902996,24.88625 C17.8429065,24.6616639 17.8975504,24.3609471 18.1145321,24.2025723 L24.7103592,19.3234949 L17.0792402,23.7318018 C16.8440273,23.8597933 16.5497898,23.7815179 16.4092667,23.55357 C16.2687436,23.3256222 16.3309939,23.0275826 16.5510096,22.874939 L16.817141,22.6995342 L16.2344744,23.0362309 C15.999734,23.1724648 15.6992689,23.0983647 15.5547884,22.8686081 C15.4103079,22.6388514 15.4736958,22.3359454 15.6981791,22.1834004 L20.940163,18.5966737 L15.0036162,22.0241247 C14.7698839,22.1582608 14.4719873,22.0848151 14.3273936,21.8574037 C14.1827999,21.6299923 14.2426658,21.3290726 14.4632886,21.1743185 L22.2990466,15.6984614 L13.5005781,20.7801616 C13.2684011,20.9084829 12.9764985,20.834878 12.8329264,20.6118095 C12.6893543,20.388741 12.7432585,20.0925668 12.9562182,19.9343877 L20.4018516,14.6399839 L11.9793947,19.501924 C11.7465996,19.6347188 11.450592,19.5621143 11.3056649,19.3366721 C11.1607378,19.11123 11.2175773,18.8117953 11.4350348,18.655142 L17.1750073,14.5613541 L10.9471271,18.1561454 C10.718336,18.2854133 10.4286204,18.217214 10.2815183,17.9994607 C10.1344162,17.7817074 10.1792935,17.4874757 10.3846219,17.3234764 L16.010038,12.9260189 L10.3352263,16.2024983 C10.1099353,16.3286062 9.82577917,16.2640847 9.67704142,16.0530484 C9.52830367,15.8420121 9.56308297,15.5527058 9.75759996,15.3829343 L13.6054178,12.115767 L10.2949033,14.0311073 C10.0653337,14.1603042 9.77499496,14.0909314 9.62862786,13.8719092 C9.48226076,13.6528869 9.52923721,13.3580949 9.73643041,13.1954141 L10.086232,12.9262583 C9.90999713,12.9365442 9.74023663,12.8582805 9.63360688,12.7175871 C9.48252121,12.5070833 9.51565159,12.2163206 9.71022049,12.0452018 L10.0801836,11.720602 C9.96017052,11.7279951 9.84146803,11.6922413 9.74550308,11.6197946 C9.58468502,11.501978 9.50841876,11.3004454 9.55094483,11.105677 L9.86546386,9.66110718 C9.75708009,9.62050951 9.6664368,9.54307017 9.60941311,9.44235516 C9.47074929,9.20177279 9.55278753,8.89435477 9.79288255,8.7548488 L10.2969195,8.46351547 C10.4696671,8.36355896 10.685124,8.37494639 10.8463727,8.49255541 C11.0076214,8.61016443 11.084288,8.81184134 11.041886,9.00686726 L10.7797868,10.2064751 L13.8090487,8.4584751 C14.0332341,8.33047622 14.3178904,8.39255212 14.4684292,8.60226826 C14.6189681,8.8119844 14.5867209,9.10154055 14.3937315,9.27299876 L14.2142944,9.43025827 L15.9038261,8.45545087 C16.1333958,8.32625397 16.4237345,8.39562673 16.5701016,8.61464898 C16.7164687,8.83367122 16.6694923,9.12846327 16.4622991,9.29114409 L16.4008065,9.33852356 L17.936103,8.45242665 C18.161524,8.32429932 18.4473767,8.38809898 18.5969253,8.59991603 C18.7464738,8.81173307 18.7109217,9.10245325 18.5147374,9.27199068 L14.6649034,12.5401661 L21.7536786,8.44738628 C21.9824697,8.31811844 22.2721853,8.38631765 22.4192874,8.60407096 C22.5663895,8.82182427 22.5215122,9.11605595 22.3161838,9.28005527 L16.6860914,13.6792895 L25.758756,8.44234591 C25.9915511,8.30955113 26.2875586,8.38215559 26.4324857,8.60759775 C26.5774128,8.83303991 26.5205734,9.1324746 26.3031158,9.28912794 L20.5641515,13.3839239 L29.1327791,8.43730555 C29.3655743,8.30451076 29.6615818,8.37711522 29.8065089,8.60255738 Z" id="Combined-Shape" fill="#F5EC83"></path>
            <path d="M23.7229371,50.9616546 C23.868571,51.1864081 23.8130122,51.4858102 23.5964376,51.6433502 L20.4966105,53.8842983 L25.8394019,50.7985843 C26.0735147,50.670245 26.3670916,50.7467227 26.5088324,50.9729733 C26.6505733,51.1992238 26.5913031,51.4967525 26.373681,51.6514148 L26.2890028,51.708875 L27.8696626,50.8016085 C28.0975347,50.674438 28.3847921,50.7422228 28.5317739,50.9578484 C28.6787556,51.173474 28.6368535,51.4656312 28.435192,51.6312533 L23.6528897,55.4427805 L31.0985231,51.1453617 C31.3310692,51.0158423 31.6242415,51.0894737 31.7679928,51.3135017 C31.9117441,51.5375297 31.8565149,51.8347187 31.6418749,51.9921437 L29.6509291,53.4034471 L32.1650652,51.9528289 C32.3936881,51.8259276 32.6813899,51.8949286 32.8275823,52.1117238 C32.9737747,52.328519 32.9299062,52.6211092 32.7265623,52.7854979 L29.6247191,55.2119316 L33.5068115,52.9709834 C33.7293212,52.8378277 34.0165539,52.8952254 34.1708019,53.1036686 C34.3250499,53.3121118 34.2959755,53.6035768 34.1035912,53.7774425 L31.0642486,56.6333157 L35.1913029,54.2512372 C35.418733,54.1230844 35.706376,54.1897875 35.8541911,54.404958 C36.0020061,54.6201284 35.9610721,54.9125532 35.7598565,55.0788658 L35.0995682,55.614153 L36.1721587,54.9951957 C36.3967296,54.8647109 36.6836867,54.9262387 36.8350203,55.1373229 C36.9863538,55.3484071 36.9525097,55.6399283 36.7568415,55.8107274 L36.2396997,56.2653687 L37.1469661,55.7381461 C37.3421048,55.6257171 37.588148,55.6563833 37.7497197,55.8132718 C37.9112914,55.9701602 37.9491793,56.2151953 37.8425371,56.4135556 L37.0300295,57.9196179 L38.7306501,56.9387621 C38.8788469,56.8529814 39.060458,56.8483057 39.2128725,56.9263469 C39.3652871,57.004388 39.4676567,57.1544709 39.4846893,57.3248543 L39.5925532,58.4186145 L40.2115106,58.0617563 C40.3677565,57.9624311 40.5658798,57.9567615 40.72755,58.0469891 C40.8892203,58.1372167 40.9884106,58.3088158 40.9859512,58.4939428 C40.983399,58.6790698 40.8796006,58.8479214 40.7155475,58.9337402 L39.4201726,59.681731 C39.2719758,59.7675116 39.0903648,59.7721873 38.9379502,59.6941462 C38.7855357,59.616105 38.683166,59.4660221 38.6661334,59.2956387 L38.5582695,58.2018786 L35.9977619,59.6766906 C35.8026904,59.7924936 35.5540068,59.7618226 35.3929176,59.6020931 C35.229157,59.4444546 35.1911697,59.1967115 35.3001748,58.9972488 L36.1136904,57.4911865 L32.3364378,59.6766906 C32.1121365,59.8067286 31.8257724,59.7453931 31.6744101,59.5348927 C31.5230478,59.3243923 31.5560678,59.0334007 31.7507469,58.8621669 L32.2688968,58.4075256 L30.073312,59.6766906 C29.8457307,59.8071761 29.5561103,59.7412784 29.4073894,59.5251724 C29.2586684,59.3090664 29.3005773,59.0150152 29.5037503,58.849062 L30.1640386,58.3147829 L27.7990974,59.6766906 C27.5765002,59.8120556 27.2874236,59.7554777 27.1322832,59.546182 C26.9771428,59.3368864 27.007067,59.043849 27.2013096,58.8702315 L30.2416603,56.0133503 L23.9008759,59.6766906 C23.672253,59.8035919 23.3845512,59.7345909 23.2383588,59.5177957 C23.0921664,59.3010005 23.1360349,59.0084103 23.3393788,58.8440216 L26.4392058,56.4246444 L20.7990327,59.6766906 C20.5664866,59.80621 20.2733143,59.7325786 20.129563,59.5085506 C19.9858117,59.2845226 20.0410409,58.9873336 20.2556809,58.8299086 L22.2456187,57.4186052 L18.3312679,59.6766906 C18.103238,59.8061685 17.8140224,59.7391753 17.6661461,59.5226233 C17.5182698,59.3060713 17.5611373,59.0123093 17.7647305,58.8470458 L22.550057,55.0304783 L14.5015954,59.6766906 C14.2674827,59.80503 13.9739058,59.7285522 13.8321649,59.5023016 C13.690424,59.2760511 13.7496943,58.9785225 13.9673163,58.8238601 L14.0560268,58.7633757 L12.4723428,59.6766906 C12.2400641,59.8099947 11.944093,59.7383739 11.7984592,59.5136204 C11.6528253,59.2888668 11.7083841,58.9894647 11.9249587,58.8319247 L15.0247858,56.5929927 L9.68098635,59.6766906 C9.44753659,59.807138 9.15284733,59.7325604 9.00955162,59.5067692 C8.8662559,59.280978 8.9242406,58.9825801 9.14166685,58.8268844 L10.6537776,57.7774795 L7.36443267,59.6766906 C7.1303199,59.80503 6.836743,59.7285522 6.69500212,59.5023016 C6.55326123,59.2760511 6.61253151,58.9785225 6.83015354,58.8238601 L7.07914778,58.6555118 L5.3059459,59.6766906 C5.2298533,59.7226595 5.14282309,59.7473761 5.05392744,59.7482638 C4.83697462,59.7482638 4.64436254,59.6094369 4.57575603,59.4036174 C4.50714953,59.1977979 4.57794304,58.9711691 4.75150529,58.8409974 L8.63762993,55.9377447 L2.16277167,59.6766906 C1.93009112,59.8044894 1.63816952,59.7299083 1.49530262,59.5061633 C1.35243571,59.2824183 1.40760091,58.9862133 1.62143602,58.8289005 L3.60734148,57.4377586 L1.23433567,58.8047067 C1.00335159,58.9316043 0.713603194,58.8591355 0.569555738,58.6384389 C0.425508282,58.4177423 0.475797225,58.123333 0.68493543,57.9629651 L2.8553184,56.3772649 L1.22324686,57.319814 C0.99894558,57.449852 0.712581504,57.3885165 0.561219224,57.1780161 C0.409856944,56.9675157 0.442876862,56.6765241 0.63755596,56.5052903 L3.25854794,54.1917609 L1.22223878,55.3661669 C1.01681269,55.483064 0.757748683,55.4415163 0.599179701,55.2662431 C0.440610719,55.0909699 0.425131022,54.8290525 0.561950422,54.6363214 L1.83212346,52.8802568 L1.80994583,52.8923537 C1.57060368,53.0175573 1.27510911,52.9318317 1.13993297,52.697977 C1.00475683,52.4641223 1.07795691,52.1652784 1.30590891,52.0203698 L3.37044413,50.8258023 C3.57635337,50.7070996 3.83720479,50.7483689 3.99641509,50.9248371 C4.15562539,51.1013053 4.16992596,51.3650137 4.03073249,51.5576639 L2.76055946,53.3147366 L7.11241421,50.8056408 C7.33322004,50.6963634 7.60066531,50.7627179 7.74478325,50.9625348 C7.88890118,51.1623517 7.86745443,51.4370697 7.69407282,51.6120999 L5.07308084,53.9306697 L10.4914777,50.8056408 C10.7230213,50.6749646 11.0162502,50.7466088 11.1614477,50.9693338 C11.3066452,51.1920587 11.2538749,51.4892647 11.040878,51.6483906 L8.86847884,53.2340907 L13.0832356,50.8056408 C13.3165561,50.6732678 13.6126773,50.7468342 13.756923,50.9730072 C13.9011687,51.1991802 13.8429931,51.4987055 13.6245712,51.654439 L11.64169,53.0425567 L15.51975,50.8046328 C15.7504566,50.6743595 16.0426389,50.744939 16.1884383,50.966161 C16.3342377,51.1873831 16.2838769,51.4837203 16.0731826,51.6443583 L12.1900821,54.5415625 L18.6719969,50.7995924 C18.9061097,50.671253 19.1996866,50.7477308 19.3414275,50.9739814 C19.4831683,51.2002319 19.4238981,51.4977605 19.206276,51.6524229 L18.9441768,51.8308519 L20.7314918,50.7995924 C20.965661,50.6633242 21.2656629,50.7365508 21.410716,50.9653823 C21.5557691,51.1942137 21.4939756,51.4967775 21.2708113,51.6504067 L19.7587005,52.6977954 L23.0490535,50.7985843 C23.2813322,50.6652802 23.5773033,50.736901 23.7229371,50.9616546 Z M5.09185542,0.529642549 C5.24738591,0.735202018 5.22276044,1.02498391 5.03477404,1.20135154 L4.32307391,1.88381753 L6.88761375,0.401948991 C7.11179912,0.273950119 7.39645546,0.336026011 7.54699427,0.545742151 C7.69753309,0.755458291 7.66528589,1.04501444 7.47229657,1.21647265 L5.17388823,3.22455573 L10.0771594,0.401948991 C10.3050421,0.270742292 10.5955005,0.336767391 10.744271,0.553592376 C10.8930414,0.770417361 10.8501295,1.06517832 10.645713,1.23058568 L7.06402667,4.11670108 L13.5036023,0.401948991 C13.7351459,0.271272724 14.0283748,0.342916992 14.1735723,0.565641941 C14.3187698,0.78836689 14.2659995,1.08557288 14.0530026,1.24469872 L10.8967234,3.54814744 L16.3504029,0.401948991 C16.5826816,0.268644899 16.8786526,0.340265677 17.0242865,0.565019242 C17.1699204,0.789772806 17.1143615,1.08917488 16.897787,1.24671487 L13.8181214,3.4685096 L19.1357109,0.401948991 C19.3646447,0.274335581 19.653178,0.343473954 19.799413,0.560985336 C19.9456479,0.778496718 19.9007778,1.07178541 19.6961999,1.23562605 L15.1891018,4.73666649 L22.7063084,0.401948991 C22.9397582,0.271501553 23.2344474,0.346079171 23.3777431,0.571870363 C23.5210388,0.797661556 23.4630542,1.09605954 23.2456279,1.25175524 L21.744606,2.29007129 L25.0198379,0.401948991 C25.2502063,0.272663841 25.5413096,0.343173595 25.6869863,0.563542714 C25.832663,0.783911833 25.7834841,1.07936778 25.5742785,1.24066642 L21.5187974,4.2971463 L28.270876,0.401948991 C28.5051591,0.268026519 28.8033565,0.342386799 28.9473271,0.570632862 C29.0912977,0.798878925 29.0299577,1.10002432 28.8081793,1.25377138 L27.9603892,1.83442191 L30.442267,0.401948991 C30.6712008,0.274335581 30.9597341,0.343473954 31.1059691,0.560985336 C31.2522041,0.778496718 31.207334,1.07178541 31.0027561,1.23562605 L26.4896095,4.74473108 L34.0168969,0.401948991 C34.250753,0.269903317 34.5470716,0.344408678 34.6906631,0.571358514 C34.8342545,0.79830835 34.7746823,1.09798637 34.5552083,1.25276331 L33.500763,1.9735361 L36.230627,0.401948991 C36.4631662,0.264726012 36.7625365,0.335120882 36.909555,0.561594249 C37.0565735,0.788067616 36.9990143,1.09016852 36.7790192,1.24671487 L33.6015704,3.55117166 L39.056258,0.401948991 C39.2885705,0.275279163 39.5792834,0.349812617 39.7219935,0.572631341 C39.8647036,0.795450065 39.810821,1.09068882 39.5986017,1.24873101 L37.3314436,2.84753612 L40.8143387,0.837436888 C41.0486218,0.703514416 41.3468192,0.777874696 41.4907898,1.00612076 C41.6347604,1.23436682 41.5734204,1.53551222 41.3516421,1.68925928 L41.0119212,1.92111626 C41.2476637,1.79930729 41.5374749,1.88113377 41.674701,2.10824821 C41.811927,2.33536264 41.7495669,2.6299765 41.5320873,2.78201132 L40.2851,3.68927777 L40.9826871,3.28604824 C41.2022173,3.16106293 41.4803614,3.21789067 41.6332733,3.41896979 C41.7861852,3.62004891 41.7666292,3.90326458 41.5875314,4.0814185 L39.2034367,6.43123861 L40.9806709,5.40501944 C41.195037,5.28123773 41.4675603,5.33143829 41.6237499,5.52347875 C41.7799395,5.7155192 41.773562,5.99255425 41.6087009,6.177204 L40.7558705,7.13184993 C40.9577225,7.17809737 41.1107488,7.34309922 41.1416852,7.54785765 C41.1726215,7.75261607 41.0751721,7.95546154 40.8959927,8.05927786 L38.8294413,9.25283728 C38.6150753,9.376619 38.3425519,9.32641843 38.1863624,9.13437798 C38.0301728,8.94233752 38.0365503,8.66530248 38.2014113,8.48065272 L38.7669408,7.84657428 L36.2921195,9.27299876 C36.0725893,9.39798407 35.7944451,9.34115632 35.6415333,9.1400772 C35.4886214,8.93899808 35.5081774,8.65578242 35.6872752,8.4776285 L38.0693537,6.13083261 L32.626763,9.27299876 C32.3946165,9.40842616 32.0970455,9.33788476 31.9503941,9.11266049 C31.8037427,8.88743621 31.859603,8.58676331 32.0773628,8.42924095 L33.322334,7.5219745 L30.2870237,9.27299876 C30.2106959,9.31829987 30.1237591,9.34264217 30.0350052,9.34356392 C29.8142847,9.3434338 29.6193237,9.19971114 29.5539096,8.98890664 C29.4884955,8.77810214 29.5678466,8.54925852 29.7497203,8.42420059 L30.0844008,8.19435975 L28.2113996,9.27299876 C27.9790871,9.39966858 27.6883741,9.32513513 27.5456641,9.10231641 C27.402954,8.87949768 27.4568366,8.58425893 27.6690559,8.42621673 L29.9392382,6.82438741 L25.6962554,9.27299876 C25.4637162,9.41022173 25.1643459,9.33982686 25.0173274,9.1133535 C24.8703089,8.88688013 24.9278681,8.58477923 25.1478632,8.42823288 L28.3303523,6.12175994 L22.8706244,9.27299876 C22.6370437,9.40165124 22.3436728,9.32610353 22.2012844,9.10063296 C22.058896,8.87516238 22.1167675,8.57779928 22.3333211,8.42218444 L23.3817179,7.70241972 L20.6589104,9.27299876 C20.4300972,9.40672747 20.1368054,9.34041513 19.9877785,9.12125799 C19.8387517,8.90210085 19.8849011,8.60496846 20.093381,8.44133784 L24.6075357,4.92920859 L17.0822645,9.27299876 C16.8479814,9.40692123 16.549784,9.33256095 16.4058134,9.10431489 C16.2618428,8.87606882 16.3231828,8.57492342 16.5449611,8.42117636 L17.3927512,7.84052583 L14.9108734,9.27299876 C14.680505,9.40228391 14.3894017,9.33177415 14.243725,9.11140503 C14.0980483,8.89103591 14.1472272,8.59557997 14.3564328,8.43428132 L18.4119139,5.3757853 L11.6598353,9.27299876 C11.4263855,9.40344619 11.1316963,9.32886858 10.9884006,9.10307738 C10.8451048,8.87728619 10.9030895,8.57888821 11.1205158,8.42319251 L12.6215377,7.38286031 L9.34630584,9.27299876 C9.11719955,9.40306975 8.8265717,9.33475902 8.67939862,9.11624532 C8.53222554,8.89773161 8.57816163,8.60273876 8.78480871,8.43932169 L13.2929149,4.93828126 L5.77873253,9.27299876 C5.5464538,9.40630285 5.25048277,9.33468207 5.10484889,9.10992851 C4.95921502,8.88517494 5.01477387,8.58577287 5.23134843,8.42823288 L8.30698171,6.20643814 L3.26661253,9.11573924 C3.03506895,9.2464155 2.74184002,9.17477124 2.59664253,8.95204629 C2.45144505,8.72932134 2.50421538,8.43211535 2.71721229,8.27298951 L5.8724834,5.96853272 L1.94805195,8.23165848 C1.72016927,8.36286518 1.42971077,8.29684008 1.28094034,8.0800151 C1.13216991,7.86319011 1.17508177,7.56842915 1.3794983,7.40302179 L4.96622502,4.51388217 L1.2484487,6.66007137 C1.02426333,6.78807024 0.739606993,6.72599435 0.58906818,6.51627821 C0.438529366,6.30656207 0.470776563,6.01700592 0.663765879,5.84554771 L2.95612578,3.82940004 L1.22223878,4.83747387 C1.00140487,4.97042805 0.715843593,4.91533978 0.5603131,4.70978032 C0.404782607,4.50422085 0.429408079,4.21443895 0.617394483,4.03807132 L1.33010269,3.35358919 L1.21820649,3.41810591 C1.0205892,3.52700789 0.774671608,3.49130593 0.616180409,3.33070464 C0.457689211,3.17010336 0.425242634,2.92373511 0.536748576,2.72757533 L0.939978111,2.00881869 C0.729755088,1.97474854 0.563630599,1.81222915 0.524957074,1.6028041 C0.486283549,1.39337905 0.583407576,1.18224681 0.767597484,1.07534231 L1.9420035,0.401948991 C2.13796278,0.287181869 2.38674542,0.319523612 2.54684781,0.48057875 C2.70724602,0.640682646 2.74106682,0.88815195 2.62950986,1.08542305 L2.32708771,1.60962145 L4.42992973,0.401948991 C4.65076365,0.268994818 4.93632493,0.32408308 5.09185542,0.529642549 Z" id="Combined-Shape" fill="#C384F8"></path>
            <path d="M43.3456121,46.402381 C43.1568544,46.400707 42.9848496,46.29371 42.8999221,46.1251288 C42.8149946,45.9565477 42.8313813,45.7546431 42.9423826,45.6019637 L43.8597298,44.3378391 L42.6187909,45.0545796 C42.4099297,45.1767476 42.1437244,45.1332609 41.9845974,44.9509792 C41.8254705,44.7686975 41.8183253,44.4990583 41.9675752,44.308605 L42.496814,43.627147 C42.2908403,43.5867767 42.1314435,43.4229898 42.0966828,43.2159956 C42.0619221,43.0090013 42.1590744,42.802132 42.3405625,42.6966949 L44.0119489,41.7329763 C44.2205039,41.6130742 44.4847226,41.6572657 44.6429101,41.838507 C44.8010976,42.0197482 44.8091572,42.2875158 44.6621566,42.4779429 L44.3345326,42.9003258 L45.4071231,42.2813685 C45.6130324,42.1626658 45.8738838,42.203935 46.0330941,42.3804032 C46.1923044,42.5568714 46.206605,42.8205798 46.0674115,43.0132301 L45.1500643,44.2773547 L46.020032,43.7733178 C46.2593742,43.6481141 46.5548688,43.7338397 46.6900449,43.9676944 C46.825221,44.2015491 46.752021,44.500393 46.5240689,44.6453016 L43.6006548,46.3328172 C43.5235592,46.3787913 43.4353737,46.4028419 43.3456121,46.402381 L43.3456121,46.402381 Z" id="Path" fill="#BFDBF0"></path>
            <g id="Group" fill="#262626">
                <path d="M60,44.0253362 C59.7872964,30.1058527 42.047213,23.2106276 32.7507561,33.6865309 C31.8313928,33.2419704 28.4684585,29.3981848 28.1035357,30.3125078 C28.3847883,28.9264063 32.6630537,26.6894904 33.7759672,25.6572228 C38.565326,21.2216979 37.8616905,15.2881753 37.827416,9.32642667 C41.3203918,9.32642667 43.0925856,4.97557999 41.8597113,1.81123621 C41.9171715,-1.43778576 16.3816531,0.876751768 12.2666957,0.339448413 C9.01767377,0.7406618 -0.138660895,-1.96299223 0.344206473,3.3414923 C0.116381786,7.32035973 1.93696314,8.79517176 4.50956757,9.28912794 C3.73536686,20.4535457 4.77872328,23.4263554 13.9501791,29.8679472 C5.30292168,35.9335275 3.57709927,40.1200582 4.51460794,50.6856801 C0.166785478,50.1816431 -1.28786507,57.2079178 1.24240026,59.5305199 C2.54583973,60.3672212 5.53981903,59.7321347 6.95313855,59.7321347 L21.0369381,59.7321347 C27.656959,59.4004784 34.5289984,60.3904069 41.0371231,59.3964461 C50.7499145,61.5426353 59.8256032,53.7451842 60,44.0253362 Z M1.53171745,5.549174 C-0.161846593,-1.26238091 7.22531848,1.25377138 11.0630556,1.26687634 L37.1983779,1.26687634 C37.7175359,1.26687634 39.5280365,0.97453493 40.0149362,1.26687634 C42.1318912,2.53805745 40.0552591,7.93730092 38.0633052,8.40907948 L32.5390606,8.40907948 C32.3852434,8.29822643 32.1777521,8.29822643 32.0239349,8.40907948 C24.8141908,8.44637821 17.6881168,8.28911869 10.4662759,8.57742781 C10.3402666,8.20242434 9.87756075,8.28609447 9.65074414,8.59154084 C8.11880465,8.60247385 6.58746591,8.52708487 5.06400818,8.3657323 C4.94993047,8.29300488 4.80514346,8.28874644 4.68698856,8.35464349 C3.23334609,8.33347394 2.40370132,8.44436206 1.53574975,5.549174 L1.53171745,5.549174 Z M29.3676603,19.42027 C27.3394158,21.4928698 22.7930027,26.2146877 19.5439808,24.8074166 C17.2778308,23.8265607 14.4401029,20.8366137 12.6517799,19.1228882 C9.95316629,16.5361708 10.4340175,12.8728304 10.4914777,9.40707258 C17.5731964,9.21856277 24.6297133,9.38388688 31.7043755,9.33045897 C31.7416742,13.0361384 32.270913,16.457541 29.3676603,19.42027 Z M6.67289402,38.2954445 C8.4037568,35.0968262 12.1941144,32.786321 14.9390995,30.533276 C15.1738232,30.255336 15.1638673,29.8458428 14.9159138,29.5796381 C6.52168295,24.0110383 4.4581558,19.474706 5.42187439,9.42622598 C6.78458954,9.53660014 8.1536167,9.54569779 9.51767839,9.45344397 C9.46021818,13.112752 8.86747076,17.0664176 11.6578191,19.843661 C13.6275954,21.8043646 18.4935678,27.0765908 21.6377501,26.4969483 C24.9160063,25.0392736 27.5732889,22.0110198 30.3979118,19.8053542 C33.2860433,16.9474649 32.7376512,13.0895663 32.6801909,9.32642667 L36.6459534,9.32642667 C37.7346732,19.5553519 35.6267908,23.9908768 27.1156234,29.6723809 C27.0158158,29.7551156 26.9609821,29.8801544 26.9677333,30.0096187 C26.9744845,30.139083 27.0420263,30.2577403 27.1498979,30.3296451 L32.1287746,34.4173845 C30.9373357,35.8647262 30.0154434,37.5142306 29.4069752,39.2873892 C25.0571366,35.6754606 21.718396,30.587712 16.5641145,36.3135714 C10.4914777,40.2833661 8.54992751,43.3206926 9.53582372,50.7471726 C8.13258494,50.7723744 6.9279367,50.7028173 5.42288246,50.6635024 C5.3523173,46.6947157 4.77065869,41.8146303 6.67289402,38.2954445 L6.67289402,38.2954445 Z M10.4763566,50.7471726 C9.58219512,43.3821851 11.7868526,40.6180466 17.6992057,36.6724456 C21.8766636,32.6532553 25.7023038,38.0948378 29.0380202,40.5212716 C28.1763902,43.9476797 28.548995,47.568085 30.0904493,50.7471726 L10.4763566,50.7471726 Z M35.2497712,58.8117633 C24.5641885,58.5506721 13.63566,59.2220493 3.02064251,58.8117633 C0.0125501806,57.8923999 1.42788585,51.9387158 4.65977057,51.5294379 C4.89767599,51.8500053 5.35130922,51.8933525 5.41078558,51.4125013 C6.79710934,51.3215218 8.18880344,51.3552599 9.56909016,51.5133087 C9.64267955,51.872183 9.98542465,51.8157308 10.2313947,51.5697608 C17.0278285,51.8258116 23.7627698,51.5939546 30.5551713,51.6705682 C32.4683901,55.0593782 35.5579661,57.6288841 39.2387193,58.8924092 C37.924191,59.0153942 36.4392983,58.8117633 35.2497712,58.8117633 L35.2497712,58.8117633 Z M44.3526779,58.8117633 C24.5289059,58.11216 25.5450443,28.5554351 45.5059144,29.6068561 C63.5292665,31.3850984 62.5201846,58.5032927 44.3526779,58.8117633 Z" id="Shape"></path>
                <path d="M48.3587633,43.55759 L46.7065303,43.55759 C46.521715,42.5579691 45.7423743,41.7742254 44.7438106,41.5837814 L44.7438106,38.0232646 C44.7438106,37.2289024 43.8264634,37.4990662 43.8264634,38.1845564 L43.8264634,41.619064 C38.6933514,43.5434769 44.5633653,50.0868842 46.661167,44.7440929 L48.2740851,44.7440929 C48.8557437,44.7471171 49.008971,43.55759 48.3587633,43.55759 Z M42.7498405,44.0616269 C42.8304864,42.1533431 45.8224496,42.4487087 45.8224496,44.2632416 C45.6828091,45.0391636 44.9827841,45.5865127 44.1960887,45.5348922 C43.4093933,45.4832718 42.7868932,44.8491429 42.7498405,44.0616269 L42.7498405,44.0616269 Z" id="Shape"></path>
                <path d="M44.2387656,34.6764594 C44.9625626,34.7127501 44.9625626,32.5484156 44.3395729,32.458697 C43.6117436,32.4234144 43.6117436,34.588757 44.2387656,34.6764594 Z" id="Path"></path>
                <path d="M36.9443433,36.0333268 C36.585469,35.6018712 35.5169107,36.0192138 35.9483663,36.5897836 C36.3838542,36.9708355 36.831439,37.76923 37.5008,37.3841458 C38.1953629,36.9274883 37.2507977,36.4143787 36.9443433,36.0333268 L36.9443433,36.0333268 Z" id="Path"></path>
                <path d="M34.3908922,43.613034 C33.8092336,43.6583973 32.9513628,43.3973062 32.7033766,44.1120306 C32.625755,44.3438875 32.7114412,44.691673 33.0138634,44.691673 C33.595522,44.6463097 34.4533928,44.9074008 34.701379,44.1926765 C34.7790007,43.9608195 34.6933144,43.613034 34.3908922,43.613034 Z" id="Path"></path>
                <path d="M36.7145024,50.9235855 C36.4261933,51.3177424 35.4594505,51.7814563 36.0491737,52.2915417 C36.7074459,52.8298531 37.5249938,51.8792395 37.7538266,51.3157262 C37.6938608,51.1051415 37.5377091,50.9353965 37.3328496,50.8581023 C37.1279901,50.7808081 36.8986285,50.8050975 36.7145024,50.9235855 L36.7145024,50.9235855 Z" id="Path"></path>
                <path d="M44.2206202,53.784499 C43.4010562,53.8641369 43.4010562,55.9075025 44.353686,55.6897586 C45.17325,55.6101207 45.17325,53.5667551 44.2206202,53.784499 Z" id="Path"></path>
                <path d="M51.7852063,50.8056408 C51.2811694,50.4739845 50.606768,51.33992 51.0452801,51.7623029 C51.4485096,52.1393225 51.9696838,52.964935 52.4868257,52.2733963 C52.9757415,51.6514148 52.1380321,51.2260076 51.7852063,50.8056408 L51.7852063,50.8056408 Z" id="Path"></path>
                <path d="M55.5160876,43.5999291 C54.9334209,43.6331955 54.0594209,43.3983143 53.8709111,44.1523535 C53.7186919,44.9588126 54.7529757,44.6493339 55.235843,44.704778 C55.795324,44.7420767 56.2277877,43.6795669 55.5160876,43.5999291 Z" id="Path"></path>
                <path d="M51.7257299,36.0202219 C51.4414531,36.3740558 50.9525373,36.6250662 50.8184635,37.0706348 C50.811407,37.5545103 51.5402444,37.5988655 51.8144404,37.3155968 C52.0987173,36.9607548 52.5876331,36.7107525 52.7217069,36.2651838 C52.7287634,35.7853407 52.0009341,35.7369531 51.7257299,36.0202219 Z" id="Path"></path>
            </g>
        </g>
    </g>
</svg>