<?xml version="1.0" encoding="UTF-8"?>
<svg width="60px" height="60px" viewBox="0 0 60 60" version="1.1" xmlns="http://www.w3.org/2000/svg" xmlns:xlink="http://www.w3.org/1999/xlink">
    <title>role-skills-creative</title>
    <g id="Page-1" stroke="none" stroke-width="1" fill="none" fill-rule="evenodd">
        <g id="role-skills-creative" transform="translate(0.000000, 0.000000)" fill-rule="nonzero">
            <path d="M42.4384803,26.4991938 C42.2182096,26.4988291 42.0233021,26.3564701 41.9559421,26.1467513 C41.8885821,25.9370325 41.9641382,25.7078028 42.1429986,25.5792403 L47.027078,22.0903221 L44.1961397,23.7200409 C43.9653681,23.8510573 43.6726278,23.7822501 43.524385,23.5621481 C43.3761422,23.3420461 43.4224121,23.044909 43.6305613,22.8803042 L48.1876815,19.3264002 L44.3616501,21.5369285 C44.1292666,21.6681487 43.8349605,21.5970561 43.6881014,21.3742261 C43.5412422,21.1513961 43.5919691,20.8529049 43.8041949,20.6910993 L45.5425616,19.3873243 L44.0742916,20.2351842 C43.8556402,20.3615474 43.5773538,20.3079937 43.421217,20.1095061 C43.2650802,19.9110185 43.2785664,19.627947 43.4528661,19.4452022 L45.4958531,17.2976288 L43.2345548,18.6024192 C43.0144172,18.7233762 42.7389199,18.6651784 42.5865106,18.4655222 C42.4341013,18.265866 42.4505975,17.9847725 42.6253142,17.8043139 L43.5635448,16.8650679 L42.3166322,17.5849873 C42.1027479,17.7074083 41.8318367,17.6585511 41.6741918,17.469127 C41.516547,17.2797029 41.5177014,17.0044238 41.6769295,16.8163286 L43.0548288,15.2069179 L40.7194062,16.5574014 C40.4915192,16.6921985 40.1983031,16.6292354 40.0458445,16.4127656 C39.893386,16.1962958 39.9328791,15.8990074 40.136566,15.7298494 L40.2320137,15.6496328 L39.3760306,16.1441331 C39.1469461,16.2773505 38.8539342,16.2119655 38.7032164,15.9939961 C38.5524985,15.7760267 38.5947778,15.4788001 38.8002981,15.3115042 L39.5324023,14.7103867 L37.0152229,16.1593641 C36.8578413,16.2594113 36.658278,16.2651221 36.4954326,16.1742387 C36.3325872,16.0833553 36.232676,15.9105089 36.2351533,15.7240362 C36.237724,15.5375636 36.3422768,15.3674847 36.5075224,15.2810421 L44.3575885,10.7493069 C44.5863737,10.6168061 44.8785507,10.6820628 45.0292202,10.8993134 C45.1798897,11.116564 45.1386128,11.4130805 44.9343363,11.5809204 L44.2012167,12.1830533 L44.6276852,11.9373262 C44.8550249,11.8077777 45.1435885,11.8722281 45.294205,12.0861928 C45.4448214,12.3001574 45.4081535,12.5935485 45.20951,12.7638628 L45.1191393,12.8410332 C45.3335044,12.7214022 45.6027583,12.7722845 45.7586851,12.9618915 C45.9146119,13.1514985 45.9125405,13.4255101 45.753765,13.6127381 L44.3748503,15.2221489 L46.3944831,14.0574838 C46.6146208,13.9365268 46.890118,13.9947246 47.0425273,14.1943808 C47.1949366,14.394037 47.1784404,14.6751305 47.0037238,14.8555891 L46.0634624,15.7958505 L48.0323251,14.6626629 C48.2506727,14.5378709 48.527475,14.591739 48.6830885,14.7893071 C48.8387019,14.9868752 48.8262231,15.2685942 48.6537506,15.4516295 L46.611779,17.5981875 L52.3762111,14.270718 C52.6088021,14.1364842 52.905699,14.2065975 53.053667,14.4307018 C53.2016351,14.6548062 53.1494895,14.9553797 52.9346818,15.1165472 L51.1952996,16.4193068 L54.0201456,14.789588 C54.2510935,14.6558488 54.5461595,14.7237444 54.6954283,14.9449726 C54.8446972,15.1662008 54.7972054,15.4652297 54.5867394,15.6293247 L50.0286037,19.1832287 L55.5564475,15.9897921 C55.7905489,15.8574909 56.0872047,15.9306661 56.2329272,16.1566573 C56.3786498,16.3826484 56.3228918,16.6830654 56.1057795,16.8417137 L51.2318541,20.3306319 L56.4103998,17.3382448 C56.6530096,17.2003075 56.9614684,17.2840521 57.101012,17.5257415 C57.2405555,17.767431 57.1588589,18.0764385 56.9181004,18.2175822 L42.6923306,26.4301465 C42.6153829,26.4753823 42.5277396,26.4991938 42.4384803,26.4991938 L42.4384803,26.4991938 Z" id="Path" fill="#D4E8FA"></path>
            <path d="M30.4526855,59.7535806 C30.226933,59.7535806 30.0283491,59.6043697 29.965337,59.3875894 C29.902325,59.1708092 29.9900228,58.9384615 30.180558,58.8173807 L36.0942541,55.0553196 L28.1670175,59.6317324 C27.9278779,59.7657247 27.6255552,59.6856897 27.484038,59.4509248 C27.3425208,59.2161598 27.412917,58.9114485 27.6430706,58.7625491 L34.5620138,54.4044475 L25.9199349,59.3931132 C25.6813452,59.5243178 25.3817329,59.4439462 25.2408422,59.2109451 C25.0999515,58.977944 25.167953,58.6752844 25.3949725,58.5249452 L36.4435521,51.5359393 L23.5875585,58.9585215 C23.3490771,59.0918247 23.0478688,59.0125006 22.9059795,58.7790258 C22.7640901,58.5455509 22.8324058,58.2416565 23.0605653,58.0913689 L39.6918203,47.4398111 L20.999301,58.2355559 C20.7590023,58.3802399 20.4469121,58.3027288 20.3022281,58.06243 C20.1575442,57.8221312 20.2350553,57.5100411 20.475354,57.3653571 L34.3965034,48.6582925 L19.0466846,57.5196981 C18.8052643,57.6624193 18.4938561,57.5824078 18.3511349,57.3409875 C18.2084137,57.0995672 18.2884252,56.7881589 18.5298455,56.6454377 L18.5653845,56.6241143 L17.888112,57.0140283 C17.648089,57.1445579 17.3478101,57.0617286 17.2086494,56.8266046 C17.0694888,56.5914805 17.1413579,56.2883915 17.3712728,56.1407834 L17.574353,56.015889 L16.7813247,56.4738349 C16.5419766,56.6036207 16.2428606,56.5214962 16.1033394,56.2876892 C15.9638182,56.0538822 16.0335693,55.7516413 16.2614394,55.6026208 L29.7256583,47.2895318 L15.2734541,55.6340982 C15.0335305,55.7667461 14.7316319,55.6849613 14.5914708,55.449348 C14.4513097,55.2137347 14.5235163,54.9094031 14.7545841,54.7618686 L23.6992526,49.3010414 L14.0529419,54.8695012 C13.8135937,54.9992869 13.5144778,54.9171624 13.3749566,54.6833554 C13.2354354,54.4495484 13.3051865,54.1473075 13.5330565,53.998287 L27.125216,45.6476282 L12.7390129,53.952594 C12.5830227,54.0454625 12.389337,54.0480569 12.2309154,53.9593997 C12.0724937,53.8707425 11.9734041,53.704303 11.9709727,53.5227772 C11.9685412,53.3412514 12.0631373,53.1722176 12.2191275,53.079349 L25.6457766,44.8545999 L11.5215469,53.0092863 C11.2817016,53.1444068 10.9778677,53.0637635 10.836598,52.8274878 C10.6953283,52.5912121 10.7680978,52.2853969 11.0006461,52.1380721 L28.618871,41.2732801 L10.2299567,51.8821911 C9.98881675,52.025473 9.67718121,51.9461435 9.53389922,51.7050036 C9.39061723,51.4638636 9.46994678,51.1522281 9.71108672,51.0089461 L23.5987279,42.5171465 L9.16886252,50.8434357 C8.93274653,50.9592134 8.64730364,50.8755309 8.51107407,50.6505937 C8.37484451,50.4256566 8.43292411,50.1339252 8.64491554,49.978314 L31.8062152,35.5423562 L7.83259464,49.3843043 C7.59201549,49.5287078 7.27992536,49.4507421 7.1355218,49.210163 C6.99111824,48.9695838 7.06908393,48.6574937 7.30966306,48.5130901 L30.8121375,33.8750675 L6.59786687,47.8551102 C6.35882968,47.9951932 6.05162398,47.9177685 5.90753251,47.681126 C5.76344104,47.4444835 5.83567764,47.1360166 6.06985829,46.9879576 L17.8485113,39.4597737 L5.64034361,46.5056421 C5.40130642,46.6457251 5.09410072,46.5683004 4.95000925,46.3316579 C4.80591778,46.0950154 4.87815438,45.7865485 5.11233503,45.6384895 L15.8116167,38.7977322 L4.79349907,45.1602356 C4.55446188,45.3003187 4.24725618,45.2228939 4.10316471,44.9862514 C3.95907325,44.7496089 4.03130984,44.441142 4.26549049,44.2930831 L14.4540254,37.7792848 L4.03600983,43.7945211 C3.79769177,43.9331099 3.49232611,43.8561889 3.34810184,43.6212385 C3.20387756,43.386288 3.27350545,43.0791773 3.50495505,42.9293994 L16.4736582,34.4802466 L3.23384295,42.1231709 C2.99692032,42.2520926 2.70054419,42.1732483 2.55899966,41.9436436 C2.41745513,41.7140389 2.4801579,41.413833 2.70177276,41.2600799 L17.1204687,31.770141 L2.4692459,40.2304632 C2.23127541,40.3613405 1.93244973,40.2817639 1.79108432,40.0498703 C1.64971891,39.8179767 1.71588245,39.5158979 1.94123732,39.364326 L13.2629598,32.1072542 L1.94326812,38.6393296 C1.70240858,38.7831724 1.39054574,38.7045247 1.24670297,38.4636652 C1.1028602,38.2228057 1.18150781,37.9109428 1.42236734,37.7671 L2.89266817,36.8603468 L1.64677099,37.5792508 C1.40801188,37.7006342 1.1160261,37.6156605 0.97968518,37.3851155 C0.843344263,37.1545705 0.909552185,36.8577663 1.13094722,36.7070213 L1.58686232,36.427786 L1.40713632,36.5293261 C1.16627678,36.6728884 0.854641236,36.5940135 0.711078853,36.353154 C0.567516471,36.1122944 0.646391405,35.8006589 0.887250948,35.6570965 L12.8080601,28.3370698 L1.13094722,35.0803487 C0.891352976,35.206672 0.594785454,35.1226686 0.457029589,34.8894598 C0.319273724,34.6562511 0.388845288,34.3559701 0.615123447,34.2071037 L2.36262878,33.1500711 L0.971529242,33.952238 C0.7306697,34.0958004 0.419034178,34.0169254 0.275471803,33.7760659 C0.131909428,33.5352064 0.210784346,33.2235708 0.451643866,33.0800084 L13.8234613,24.8481515 L0.813126666,32.3621199 C0.573315837,32.500399 0.26693428,32.4210823 0.124347762,32.1838072 C-0.018238757,31.9465322 0.0555331916,31.6387685 0.290195088,31.4919211 L17.8424189,20.5621434 L0.743063989,30.4348885 C0.505744252,30.5590226 0.212813655,30.4774597 0.0737976091,30.2485394 C-0.0652184364,30.0196192 -0.00250257945,29.7220834 0.217086207,29.5687514 L18.088146,18.389185 L0.806018859,28.3695626 C0.565720105,28.5142466 0.25362995,28.4367355 0.108945987,28.1964367 C-0.0357379764,27.956138 0.0417731255,27.6440478 0.282071879,27.4993639 L16.8280332,17.1331338 L1.01925309,26.2595591 C0.780545945,26.3888674 0.482351316,26.3075063 0.342396029,26.0748816 C0.202440742,25.8422569 0.270253809,25.5406925 0.496321516,25.3903757 L14.0600497,16.9148226 L1.36753568,24.2409417 C1.12761214,24.3735895 0.825713477,24.2918048 0.685552368,24.0561915 C0.545391259,23.8205782 0.617597863,23.5162465 0.848665706,23.3687121 L3.96087015,21.4617888 L1.71784907,22.7574406 C1.47901793,22.8850034 1.18210798,22.8026965 1.04304085,22.5703757 C0.903973718,22.338055 0.9716917,22.0374818 1.19694829,21.8872419 L8.93938186,17.0793175 L2.27428888,20.9215954 C2.03580754,21.0548986 1.73459917,20.9755745 1.59270986,20.7420997 C1.45082055,20.5086248 1.51913625,20.2047304 1.7472957,20.0544428 L13.7361368,12.3932413 L3.23079674,18.4592477 C2.99175955,18.5993307 2.68455385,18.521906 2.54046238,18.2852635 C2.39637092,18.0486209 2.46860751,17.7401541 2.70278816,17.5920951 L11.4352378,11.9992657 L4.42897007,16.0446238 C4.19286273,16.1774043 3.89409825,16.1014364 3.75009227,15.8720032 C3.60608629,15.6425699 3.66756619,15.3404912 3.88979207,15.1855944 L14.4773796,7.96812325 L6.85171715,12.3698871 C6.62047883,12.5000231 6.32802979,12.4301461 6.1805988,12.2095319 C6.03316782,11.9889176 6.08048572,11.6919829 6.28918493,11.5281196 L12.1785114,7.01364619 C11.9316693,7.09495024 11.6632849,6.97671999 11.5566689,6.73970852 C11.4500529,6.50269704 11.5396344,6.22344135 11.7642278,6.09267737 L18.3521503,2.29000017 C18.5833886,2.15986418 18.8758376,2.22974118 19.0232686,2.45035542 C19.1706996,2.67096965 19.1233817,2.96790442 18.9146825,3.1317677 L13.0923725,7.59445564 L25.7097468,0.309967973 C25.9451587,0.182081252 26.2394269,0.259121275 26.3819715,0.485957751 C26.5245161,0.712794227 26.4662745,1.01135224 26.2489248,1.16798192 L15.6623527,8.38849932 L30.0881565,0.0601792969 C30.3257837,-0.067035495 30.6214024,0.0136131644 30.7615046,0.243877487 C30.9016068,0.474141809 30.8373529,0.773751664 30.6151497,0.926316456 L21.8857462,6.51914585 L32.7850619,0.223658878 C33.0230323,0.0927815067 33.321858,0.172358093 33.4632234,0.404251736 C33.6045888,0.636145379 33.5384253,0.938224188 33.3130704,1.08979604 L21.323214,8.75302832 L35.4047968,0.620680717 C35.5604242,0.527449372 35.7539682,0.524326297 35.9125226,0.612487924 C36.071077,0.700649552 36.1705537,0.866702033 36.1734807,1.04809501 C36.1764077,1.22948798 36.0823404,1.39866354 35.9267129,1.49189488 L28.1812332,6.30692701 L37.2670424,1.06136481 C37.506966,0.928716946 37.8088646,1.01050169 37.9490257,1.24611498 C38.0891868,1.48172828 38.0169802,1.78605993 37.7859124,1.93359437 L34.6554307,3.85168709 L38.734297,1.49697189 C38.9730042,1.36766359 39.2711988,1.44902471 39.4111541,1.68164942 C39.5511094,1.91427413 39.4832963,2.21583848 39.2572286,2.36615525 L25.697562,10.840693 L40.670667,2.19556786 C40.9104778,2.0572887 41.2168594,2.13660544 41.3594459,2.37388048 C41.5020324,2.61115552 41.4282605,2.91891924 41.1935986,3.06576662 L24.6425602,13.4370737 L42.5410359,3.10232106 C42.7810542,2.95707632 43.0933717,3.03390551 43.2386164,3.27392386 C43.3838612,3.51394222 43.307032,3.82625967 43.0670136,3.97150443 L25.2030617,15.1409168 L43.8549649,4.37258787 C44.0947757,4.23430871 44.4011573,4.31362545 44.5437438,4.55090049 C44.6863303,4.78817553 44.6125584,5.09593925 44.3778965,5.24278663 L26.8205957,16.1725643 L44.6073771,5.90279736 C44.8463373,5.77686117 45.142067,5.86007944 45.2802833,6.09215298 C45.4184996,6.32422652 45.3508036,6.62389065 45.1262471,6.77401153 L31.7554451,14.9987606 L44.8277192,7.45636108 C45.0677422,7.32583149 45.3680211,7.40866079 45.5071818,7.64378487 C45.6463424,7.87890896 45.5744733,8.18199796 45.3445584,8.32960605 L43.6183764,9.37546921 L44.6287006,8.79161356 C44.8695601,8.64805121 45.1811956,8.72692615 45.324758,8.96778568 C45.4683204,9.20864521 45.3894455,9.52028073 45.1485859,9.66384313 L33.2328538,16.9777774 L33.5912903,16.7746972 C33.8306385,16.6449115 34.1297545,16.7270359 34.2692757,16.9608429 C34.4087969,17.1946499 34.3390458,17.4968909 34.1111757,17.6459114 L32.3118849,18.7506678 C32.5097634,18.7306225 32.7017371,18.8252297 32.8063853,18.9943641 C32.9493949,19.2329556 32.8737818,19.5421997 32.6368133,19.687883 L31.1583893,20.601744 L31.6721822,20.3062623 C31.9112194,20.1661793 32.2184251,20.243604 32.3625166,20.4802465 C32.5066081,20.716889 32.4343715,21.0253559 32.2001908,21.1734149 L20.8794837,28.4274405 L31.6559358,22.2070932 C31.8936862,22.0719312 32.1957759,22.1493796 32.3391698,22.3822578 C32.4825636,22.6151359 32.415727,22.9197494 32.188006,23.0711996 L17.76931,32.5611385 L32.2966539,24.1749406 C32.5337066,24.0477057 32.828855,24.1274841 32.9695275,24.3568178 C33.1101999,24.5861516 33.0475473,24.8854038 32.8266933,25.0390469 L19.8559593,33.4892151 L33.3983641,25.6706264 C33.6368455,25.5373232 33.9380539,25.6166473 34.0799432,25.8501222 C34.2218325,26.0835971 34.1535168,26.3874914 33.9253573,26.537779 L23.7500227,33.0424386 L34.7539246,26.6890738 C34.9929618,26.5489907 35.3001675,26.6264154 35.444259,26.863058 C35.5883505,27.0997005 35.5161139,27.4081674 35.2819332,27.5562263 L24.5765592,34.4000299 L36.74208,27.3765003 C36.9811172,27.2364173 37.2883229,27.313842 37.4324144,27.5504845 C37.5765059,27.7871271 37.5042693,28.0955939 37.2700886,28.2436529 L25.5005742,35.7728522 L56.6104338,17.8083755 C56.851013,17.663972 57.1631031,17.7419377 57.3075067,17.9825168 C57.4519102,18.223096 57.3739445,18.5351861 57.1333654,18.6795897 L33.6237832,33.3196431 L57.3262916,19.6360976 C57.5661025,19.4978184 57.872484,19.5771351 58.0150705,19.8144102 C58.157657,20.0516852 58.0838851,20.3594489 57.8492232,20.5062963 L34.6858928,34.9432695 L57.9182705,21.5308361 C58.1594104,21.3875541 58.471046,21.4668836 58.6143279,21.7080236 C58.7576099,21.9491635 58.6782804,22.260799 58.4371405,22.404081 L44.5535609,30.8938498 L58.2777225,22.9686441 C58.518582,22.8248013 58.8304449,22.9034489 58.9742876,23.1443084 C59.1181304,23.385168 59.0394828,23.6970308 58.7986233,23.8408736 L41.18446,34.706681 L58.6036662,24.6542099 C58.8448062,24.5109279 59.1564417,24.5902575 59.2997237,24.8313974 C59.4430057,25.0725374 59.3636761,25.3841729 59.1225362,25.5274549 L45.6877639,33.757281 L58.8138543,26.1793424 C58.9696631,26.0864738 59.1631811,26.0837827 59.3215121,26.1722828 C59.479843,26.2607829 59.5789326,26.4270289 59.5814548,26.6083976 C59.5839769,26.7897663 59.4895485,26.9587034 59.3337396,27.051572 L45.7395494,35.4022308 L58.9489026,27.7775838 C59.1883705,27.6495972 59.4861523,27.7326805 59.6247697,27.9661557 C59.7633871,28.1996309 59.693768,28.5008451 59.4667572,28.6498133 L50.5312273,34.106579 L58.9935803,29.2204688 C59.1493891,29.1276002 59.3429071,29.1249091 59.5012381,29.2134092 C59.659569,29.3019093 59.7586586,29.4681553 59.7612301,29.649524 C59.7637029,29.8308927 59.6692744,29.9998298 59.5134656,30.0926983 L46.0502621,38.4027411 L58.9570258,30.9507123 C59.1984462,30.8079911 59.5098544,30.8880026 59.6525756,31.1294229 C59.7952968,31.3708432 59.7152853,31.6822515 59.473865,31.8249727 L58.949918,32.1417778 C59.1790725,32.0610207 59.4334461,32.1521712 59.5591587,32.3600891 C59.7012674,32.5999984 59.6232955,32.9096194 59.3845097,33.053608 L58.8321315,33.3886904 C59.0732775,33.3215358 59.3273833,33.440168 59.4307383,33.6681568 C59.5340932,33.8961456 59.4558489,34.1654432 59.2464151,34.3025514 L45.3120655,43.0258625 L58.3660624,35.4895553 C58.6050996,35.3494723 58.9123053,35.426897 59.0563967,35.6635395 C59.2004882,35.900182 59.1282516,36.2086489 58.894071,36.3567079 L42.2699238,46.9981117 L57.6938668,38.0981208 C57.9329308,37.9614986 58.2373246,38.0403423 58.3800019,38.2758425 C58.5226793,38.5113428 58.4516278,38.8176492 58.2198446,38.9662888 L47.1519724,45.9644333 L56.8998232,40.3350495 C57.1380421,40.2077329 57.4342412,40.2892259 57.5738062,40.5204821 C57.7133713,40.7517382 57.6474341,41.0517836 57.4237701,41.2032174 L50.5048269,45.5613191 L55.9798697,42.4013908 C56.217962,42.2723609 56.5154154,42.3529155 56.6558595,42.5844583 C56.7963035,42.8160012 56.7302943,43.1170168 56.5058475,43.2685433 L50.6104286,47.0255275 L54.7573268,44.6312116 C54.9973451,44.4862473 55.3094353,44.5633038 55.4543996,44.8033221 C55.599364,45.0433405 55.5223075,45.3554306 55.2822892,45.500395 L53.6474934,46.5259501 C53.8482012,46.4986449 54.0464492,46.590632 54.1551939,46.7615232 C54.299296,46.9940267 54.233293,47.2988974 54.0059299,47.4509806 L49.7412452,50.3042577 L51.0104966,49.5711381 C51.2531064,49.4332008 51.5615652,49.5169453 51.7011088,49.7586348 C51.8406523,50.0003243 51.7589557,50.3093318 51.5181972,50.4504755 L36.855805,58.9138438 C36.6177494,59.0621729 36.3045227,58.9894353 36.1561936,58.7513797 C36.0078645,58.5133241 36.0806022,58.2000974 36.3186578,58.0517683 L40.5965427,55.1923987 L33.0653126,59.5433925 C32.8252942,59.6883569 32.5132041,59.6113004 32.3682397,59.3712821 C32.2232753,59.1312637 32.3003318,58.8191735 32.5403502,58.6742092 L33.4176568,58.1198002 L30.7065358,59.6845333 C30.6294553,59.7294528 30.5418991,59.7535806 30.4526855,59.7535806 L30.4526855,59.7535806 Z" id="Path" fill="#D4E8FA"></path>
            <path d="M29.7347969,55.7285796 C29.5276574,55.7281388 29.3415275,55.6019475 29.2644822,55.4096692 C29.1874369,55.2173909 29.2349282,54.9975884 29.3844835,54.8542702 L30.4760397,53.8104378 L28.1548327,55.1507673 C27.9248373,55.2819248 27.6326641,55.2143167 27.483661,54.99546 C27.3346578,54.7766034 27.3788564,54.4799849 27.5851927,54.3140768 L28.0928933,53.9079163 L27.2064481,54.4156169 C26.9753539,54.547507 26.6816369,54.4786042 26.5333033,54.2577045 C26.3849697,54.0368048 26.4323478,53.7388576 26.6418851,53.5748647 L26.9993063,53.2986756 L26.5738532,53.5433873 C26.3478897,53.670741 26.0622651,53.6072891 25.9114783,53.3962398 C25.7606915,53.1851905 25.7932365,52.8944184 25.9869513,52.7219278 L27.9426139,51.0201155 L26.1148919,52.0741019 C25.8862521,52.204223 25.5960901,52.1381395 25.4463461,51.9218425 C25.296602,51.7055455 25.3368848,51.4106925 25.5391594,51.2424884 L26.0387368,50.8363279 C25.8157907,50.8880731 25.5857861,50.7842508 25.4771222,50.5828192 C25.3684583,50.3813876 25.408004,50.1321541 25.5736831,49.9742523 L26.5200369,49.0685145 C26.4377597,49.0249904 26.3697328,48.9587258 26.3240645,48.8776191 C26.1837028,48.6350617 26.2664188,48.3246495 26.5088675,48.1841002 L28.9214606,46.7909698 C29.1442244,46.6546476 29.43407,46.7095663 29.5915241,46.9179306 C29.7489782,47.1262948 29.7226684,47.4201219 29.5307013,47.5971983 L29.327621,47.7941861 L30.8395533,46.9219566 C31.0680467,46.7940481 31.3563383,46.8609035 31.5052129,47.0763245 C31.6540875,47.2917455 31.614701,47.5850549 31.4142703,47.7535701 L31.0213101,48.0764676 L31.998126,47.51292 C32.2244829,47.3831532 32.5123478,47.4460867 32.6639026,47.6584732 C32.8154574,47.8708597 32.781354,48.1635434 32.5850278,48.3353949 L30.6293653,50.0361918 L33.0429737,48.6430615 C33.2740679,48.5111714 33.5677849,48.5800741 33.7161185,48.8009738 C33.8644521,49.0218735 33.8170741,49.3198207 33.6075368,49.4838136 L33.2480848,49.7620335 L33.4826424,49.6269852 C33.7121708,49.4988903 34.0015163,49.5671677 34.1495663,49.7843607 C34.2976164,50.0015536 34.2554098,50.2958343 34.0522825,50.4626603 L33.5445819,50.8688207 L33.646122,50.8109429 C33.8684569,50.6841976 34.1503697,50.7427515 34.3038416,50.9475527 C34.4573136,51.152354 34.4343584,51.4393669 34.2502857,51.6171714 L33.1577141,52.6599883 L33.1698989,52.6538959 C33.3272805,52.5538488 33.5268438,52.548138 33.6896892,52.6390214 C33.8525346,52.7299048 33.9524458,52.9027512 33.9499218,53.0892238 C33.9473979,53.2756964 33.842845,53.4457753 33.6775994,53.5322179 L29.9886472,55.6645602 C29.9110773,55.7077077 29.8235508,55.7297643 29.7347969,55.7285796 L29.7347969,55.7285796 Z" id="Path" fill="#C384F8"></path>
            <path d="M15.3100085,49.4523492 C15.1037707,49.4523492 14.9180439,49.327519 14.8400683,49.1365901 C14.7620927,48.9456612 14.8073643,48.7265339 14.9546181,48.5821374 L15.5130887,48.0378824 L13.5919498,49.145685 C13.3684406,49.2686581 13.0883872,49.2066795 12.9376387,49.0008795 C12.7868902,48.7950796 12.8122654,48.5093745 12.9969248,48.3333641 L14.8246468,46.6752141 L12.1653112,48.2105006 C11.9357714,48.3473134 11.6394718,48.2827801 11.4876185,48.0629009 C11.3357653,47.8430216 11.3803442,47.5430704 11.5895788,47.3768563 L13.050741,46.1736059 L11.4047758,47.123006 C11.1806488,47.2571296 10.8913283,47.1993147 10.7359591,46.9893564 C10.58059,46.7793981 10.6098757,46.4858146 10.8036583,46.3106851 L13.2142206,44.037202 L11.0168926,45.3074688 C10.8025248,45.4310765 10.5302691,45.3821333 10.3723734,45.1916042 C10.2144777,45.0010751 10.2169412,44.724466 10.3782053,44.5367793 L11.8099208,42.8755831 C11.5909793,42.9251033 11.3650629,42.8279305 11.2504348,42.634933 C11.1109342,42.3923366 11.1940447,42.0826025 11.4362532,41.9424295 L13.8539233,40.5452375 C14.0682911,40.4216298 14.3405468,40.470573 14.4984425,40.6611021 C14.6563382,40.8516312 14.6538747,41.1282403 14.4926106,41.315927 L13.0994803,42.9314302 L16.4746736,40.9838908 C16.6988006,40.8497672 16.9881211,40.9075821 17.1434903,41.1175404 C17.2988594,41.3274987 17.2695737,41.6210822 17.0757911,41.7962117 L14.6611672,44.0686794 L17.8505421,42.2287726 C18.0787455,42.1014012 18.3663614,42.1680777 18.5152434,42.3828669 C18.6641254,42.5976561 18.6256286,42.8903789 18.4262746,43.0593707 L16.9712048,44.262621 L18.417136,43.4289767 C18.6406451,43.3060036 18.9206986,43.3679822 19.0714471,43.5737822 C19.2221955,43.7795822 19.1968204,44.0652872 19.012161,44.2412976 L17.184439,45.8994476 L18.5146145,45.1318044 C18.7360697,45.0040891 19.0179435,45.0609533 19.1725638,45.2645367 C19.327184,45.4681201 19.3063167,45.7549143 19.1238551,45.9339713 L18.1267312,46.9067256 C18.2554405,46.9424456 18.3648877,47.0274496 18.4313516,47.143314 C18.5710233,47.3856451 18.4883887,47.6952976 18.2465486,47.8358176 L15.5679204,49.3822735 C15.4899689,49.4287606 15.4007667,49.4529926 15.3100085,49.4523492 L15.3100085,49.4523492 Z" id="Path" fill="#3FA2FF"></path>
            <path d="M9.23080198,34.347238 C9.02562036,34.347238 8.84063458,34.2236441 8.76198682,34.0341342 C8.68333907,33.8446242 8.72649175,33.6264039 8.87134999,33.4810919 L9.4237282,32.9287137 L7.40307996,34.0943942 C7.176723,34.224161 6.88885817,34.1612275 6.73730335,33.948841 C6.58574853,33.7364545 6.61985196,33.4437708 6.81617811,33.2719193 L8.15346139,32.1072542 L6.09727412,33.2973043 C5.87483505,33.4312249 5.58719814,33.3757362 5.43053716,33.1686826 C5.27387617,32.961629 5.29868064,32.6697408 5.48803344,32.4920912 L8.26312471,29.8266632 L5.01993352,31.7010937 C4.79576949,31.8305344 4.51011514,31.7706039 4.35687659,31.5619838 C4.2044126,31.3534656 4.23281997,31.0637104 4.42287766,30.8887728 L6.49226515,28.9930189 L4.78639126,29.9749118 C4.56930701,30.1010153 4.29265038,30.049519 4.13547836,29.8537523 C3.97830635,29.6579855 3.98781832,29.3767378 4.15785797,29.1920375 L5.43015558,27.8039842 C5.20315072,27.7973302 5.00817631,27.6407301 4.95270722,27.420506 C4.89723812,27.2002819 4.99476817,26.9700071 5.19153631,26.856615 L7.60412938,25.4634846 C7.82121364,25.3373811 8.09787027,25.3888774 8.25504229,25.5846441 C8.4122143,25.7804109 8.40270233,26.0616586 8.23266268,26.2463589 L7.13095246,27.45164 L10.0096146,25.7904438 C10.2333434,25.664078 10.5162104,25.7247855 10.6683851,25.931826 C10.8205598,26.1388664 10.7940604,26.4269582 10.6066705,26.6027647 L8.53728302,28.4985186 L11.3804062,26.856615 C11.6028452,26.7226944 11.8904821,26.7781831 12.0471431,26.9852367 C12.2038041,27.1922903 12.1789996,27.4841785 11.9896468,27.6618281 L9.21049396,30.3282714 L12.2231891,28.5888893 C12.4499428,28.4564722 12.7402548,28.5188128 12.8926553,28.7326482 C13.0450559,28.9464836 13.0092521,29.241247 12.8100909,29.4123796 L11.4738231,30.5719677 L12.2556819,30.1211296 C12.4758196,30.0001726 12.7513168,30.0583704 12.9037261,30.2580266 C13.0561354,30.4576828 13.0396392,30.7387763 12.8649226,30.9192349 L11.8139824,31.970175 C11.9251423,32.0109387 12.0182998,32.0897089 12.0769713,32.1925479 C12.217333,32.4351053 12.134617,32.7455175 11.8921683,32.8860668 L9.48465227,34.2791972 C9.4076817,34.3242627 9.31999325,34.3477632 9.23080198,34.347238 L9.23080198,34.347238 Z" id="Path" fill="#F5EC83"></path>
            <path d="M45.6258245,49.4269516 C45.4245856,49.4272066 45.24219,49.3085782 45.1608265,49.1245208 C45.079463,48.9404633 45.1144908,48.7257218 45.2501261,48.5770604 L46.3731597,47.3474096 L43.4609893,49.0278985 C43.2372605,49.1542643 42.9543935,49.0935567 42.8022188,48.8865163 C42.6500441,48.6794759 42.6765435,48.391384 42.8639334,48.2155776 L44.9647983,46.2863155 L42.0871516,47.9475117 C41.8565537,48.0760527 41.5659232,48.0064118 41.4186253,47.7873194 C41.2713274,47.568227 41.3165236,47.2728065 41.5225885,47.107775 L42.0170889,46.7229379 L41.5093883,47.0133427 C41.2819177,47.1451053 40.9914889,47.0814404 40.8399958,46.8666053 C40.6885027,46.6517702 40.7260551,46.3568263 40.9265481,46.1868062 L42.533928,44.822107 L41.1753213,45.6059967 C40.9642047,45.7272654 40.6967217,45.6815932 40.5378062,45.4971421 C40.3788907,45.312691 40.3732865,45.0413947 40.5244492,44.8505383 L42.1917379,42.768966 L42.0993364,42.8217668 C41.9419547,42.921814 41.7423914,42.9275248 41.579546,42.8366414 C41.4167006,42.745758 41.3167894,42.5729116 41.3193134,42.3864389 C41.3218374,42.1999663 41.4263902,42.0298874 41.5916358,41.9434449 L44.0103213,40.5462529 C44.2213761,40.4261958 44.4878949,40.4723856 44.6462409,40.6564628 C44.8045868,40.84054 44.810428,41.1109686 44.660178,41.3017113 L42.996951,43.3883607 L46.8910143,41.1402626 C47.1179428,41.013238 47.4041643,41.0782286 47.5539832,41.2907988 C47.7038021,41.503369 47.66877,41.7947782 47.4728391,41.9657837 L45.8664745,43.3304828 L47.940939,42.1323095 C48.1715369,42.0037685 48.4621674,42.0734094 48.6094653,42.2925018 C48.7567632,42.5115942 48.7115669,42.8070147 48.5055021,42.9720462 L48.0110017,43.3568832 L48.4628552,43.0959251 C48.686584,42.9695593 48.969451,43.0302669 49.1216257,43.2373073 C49.2738004,43.4443478 49.247301,43.7324396 49.0599111,43.908246 L46.9590461,45.8375082 L48.7075669,44.8281995 C48.924069,44.7049727 49.1979936,44.7570301 49.3541981,44.9510871 C49.5104027,45.1451442 49.5027361,45.423866 49.3361002,45.6090429 L48.0526332,47.0143581 C48.2804095,47.0182848 48.4776833,47.1734523 48.5351587,47.3938928 C48.592634,47.6143334 48.4962375,47.8460695 48.2993756,47.9607119 L45.8796748,49.3579039 C45.8025943,49.4028234 45.7150381,49.4266387 45.6258245,49.4269516 L45.6258245,49.4269516 Z" id="Path" fill="#FF6C6C"></path>
            <path d="M50.7190765,34.3847989 C50.5091885,34.3850915 50.3207573,34.2562006 50.2449447,34.0604826 C50.1691321,33.8647646 50.2215688,33.642572 50.3768863,33.5013999 L51.3922875,32.5773849 L49.3503158,33.7552502 C49.1288605,33.8829654 48.8469868,33.8261012 48.6923665,33.6225179 C48.5377462,33.4189345 48.5586136,33.1321403 48.7410751,32.9530833 L51.4542269,30.2947632 L47.9470314,32.3184576 C47.7154649,32.4494866 47.4220213,32.379516 47.2744954,32.1580939 C47.1269696,31.9366717 47.1754099,31.6389158 47.3855146,31.4756747 L47.4687775,31.4127198 C47.2514098,31.4870062 47.0111276,31.4082931 46.8798449,31.2197936 C46.7295953,31.0005435 46.7738781,30.7025203 46.981385,30.5364286 L47.5063474,30.1180834 L47.4190229,30.167838 C47.2039561,30.2926522 46.9301381,30.2433291 46.772142,30.0513147 C46.6141458,29.8593003 46.6184737,29.5811091 46.7823664,29.3941024 L48.1744813,27.800938 C47.9320655,27.8423679 47.6948124,27.7040956 47.6113694,27.4727536 C47.5279264,27.2414116 47.6222897,26.9835283 47.8353373,26.8606766 L50.2479304,25.4675462 C50.4629972,25.342732 50.7368152,25.3920551 50.8948113,25.5840696 C51.0528074,25.776084 51.0484795,26.0542751 50.8845869,26.2412819 L49.5564422,27.7643836 L52.8219722,25.8787837 C53.0522968,25.7420708 53.3492075,25.8077995 53.5003098,26.0289509 C53.651412,26.2501023 53.6047236,26.550596 53.3936431,26.7154742 L52.8727423,27.1307733 L53.7957419,26.5976877 C54.0278411,26.4626668 54.3249425,26.5317212 54.4737019,26.7552638 C54.6224613,26.9788064 54.5714326,27.2795285 54.3572587,27.441486 L54.3227351,27.4678864 L54.4242752,27.4120394 C54.6457305,27.2843241 54.9276042,27.3411883 55.0822245,27.5447717 C55.2368448,27.7483551 55.2159774,28.0351492 55.0335159,28.2142063 L52.3223949,30.871511 L54.9624378,29.3484093 C55.1860582,29.2237722 55.467491,29.285127 55.6189412,29.4915327 C55.7703914,29.6979385 55.7444719,29.984813 55.5584783,30.1607302 L54.5430771,31.0857606 L54.6354786,31.0339752 C54.8765605,30.9078615 55.1742029,30.9942102 55.3103616,31.2297647 C55.4465202,31.4653192 55.3727881,31.7663353 55.1431792,31.9122972 L50.9800346,34.3177824 C50.9008876,34.3637454 50.8105766,34.3869381 50.7190765,34.3847989 L50.7190765,34.3847989 Z" id="Path" fill="#F5EC83"></path>
            <path d="M15.1089591,19.3132009 C14.9025363,19.3135831 14.7164314,19.1889469 14.6381947,18.9979245 C14.559958,18.8069022 14.6051668,18.5875272 14.7525533,18.4430012 L15.6176751,17.5900643 L13.3604384,18.8968855 C13.1320913,19.0264111 12.8426569,18.9604897 12.6929238,18.7448529 C12.5431906,18.529216 12.5825471,18.2349901 12.7836905,18.0662874 L13.6660741,17.3382448 L12.2627897,18.1505657 C12.0395106,18.2703788 11.7620737,18.2072136 11.6126694,18.0025502 C11.4632651,17.7978868 11.4876435,17.5143965 11.6697955,17.3382448 L14.0184183,15.2323029 L11.3245591,16.786882 C11.1044214,16.907839 10.8289242,16.8496412 10.6765149,16.649985 C10.5241056,16.4503288 10.5406018,16.1692353 10.7153184,15.9887767 L13.2477288,13.4604279 L11.0504008,14.7286639 C10.8318276,14.8535047 10.5547827,14.7993454 10.3993139,14.6013835 C10.2438451,14.4034216 10.2568984,14.1214345 10.4299907,13.9386819 L11.5895788,12.7212159 C11.4476313,12.6929428 11.3249766,12.6043795 11.253481,12.478535 C11.1139804,12.2359386 11.1970909,11.9262045 11.4392994,11.7860315 L13.8569695,10.3888395 C14.0755427,10.2639988 14.3525876,10.3181581 14.5080564,10.51612 C14.6635252,10.7140819 14.6504719,10.996069 14.4773796,11.1788216 L13.6345967,12.058159 L16.0898366,10.6416744 C16.3099742,10.5207174 16.5854715,10.5789152 16.7378808,10.7785714 C16.8902901,10.9782276 16.8737939,11.2593212 16.6990773,11.4397797 L14.1666668,13.9671131 L17.7347864,11.908895 C17.9580656,11.7890819 18.2355024,11.8522471 18.3849067,12.0569105 C18.534311,12.2615739 18.5099326,12.5450642 18.3277807,12.7212159 L15.9811887,14.8261424 L18.4496288,13.4045809 C18.678414,13.2720801 18.970591,13.3373367 19.1212605,13.5545873 C19.2719301,13.7718379 19.2306531,14.0683544 19.0263766,14.2361944 L18.1439931,14.9622062 L18.5501535,14.7317101 C18.7712794,14.6058164 19.0514453,14.6630572 19.2054686,14.8655978 C19.3594919,15.0681385 19.3397938,15.3534128 19.1593942,15.5328616 L18.1003308,16.571617 C18.33011,16.5716271 18.5312371,16.7259638 18.5907091,16.9479133 C18.6501811,17.1698628 18.5531699,17.4040865 18.3541811,17.5189862 L15.3607786,19.2451681 C15.2843827,19.2898369 15.1974554,19.3133213 15.1089591,19.3132009 L15.1089591,19.3132009 Z" id="Path" fill="#C384F8"></path>
            <path d="M30.5542256,13.0238144 C30.3508225,13.0238144 30.1670404,12.9024475 30.0872096,12.7153649 C30.0073789,12.5282824 30.0469108,12.3116123 30.1876658,12.1647761 L31.0081099,11.3118392 L28.5843474,12.7130927 C28.3603138,12.8451245 28.0727365,12.7865316 27.9182195,12.5773715 C27.7637025,12.3682115 27.7922068,12.0761133 27.9842453,11.9007718 L30.056679,9.97150967 L27.125216,11.6682449 C26.9012987,11.7978995 26.6156976,11.7384175 26.4621591,11.5301504 C26.3084633,11.3212501 26.3369222,11.0300936 26.5281601,10.8549086 L29.0362009,8.5590867 L26.2712636,10.1552973 C26.048587,10.2840108 25.7648356,10.2258717 25.6107227,10.0199561 C25.4566097,9.81404041 25.4808279,9.52540837 25.6671,9.34805338 L27.7994423,7.31725113 L26.1687081,8.25954337 C25.9479117,8.38371101 25.6693715,8.32612492 25.5159132,8.12458291 C25.3624548,7.92304091 25.3810389,7.63921804 25.5594675,7.45940729 L26.5829918,6.44400616 C26.4791044,6.40209066 26.3924857,6.32620977 26.3372647,6.22874113 C26.1969031,5.98618374 26.279619,5.67577152 26.5220677,5.53522216 L28.9346608,4.14209182 C29.1554572,4.01792418 29.4339974,4.07551027 29.5874558,4.27705228 C29.7409141,4.47859428 29.72233,4.76241715 29.5439015,4.9422279 L29.0747862,5.40626621 L30.9725709,4.3106484 C31.1968871,4.14241124 31.5151145,4.18787229 31.6833516,4.41218851 C31.8515888,4.63650474 31.8061277,4.95473213 31.5818115,5.1229693 L29.4494692,7.15377155 L32.557612,5.35854236 C32.7813408,5.23217656 33.0642078,5.29288412 33.2163825,5.49992455 C33.3685572,5.70696498 33.3420578,5.99505682 33.1546679,6.17086326 L30.6354577,8.4666852 L33.4349186,6.85118201 C33.6588544,6.72113026 33.9447838,6.78046088 34.0984879,6.98887328 C34.2521921,7.19728568 34.2244067,7.48798094 34.0340052,7.66350291 L31.9625869,9.59276505 L33.6075368,8.6443804 C33.8263367,8.51948378 34.1036303,8.57393252 34.2589565,8.77229165 C34.4142826,8.97065078 34.4006504,9.25291061 34.2269315,9.43537787 L33.0754666,10.6274588 C33.2798211,10.6727816 33.4354127,10.8388763 33.4673089,11.0457521 C33.499205,11.2526278 33.4008668,11.4578735 33.2196535,11.5626432 L30.8080759,12.9557736 C30.7311053,13.0008391 30.6434169,13.0243396 30.5542256,13.0238144 L30.5542256,13.0238144 Z" id="Path" fill="#6FD5D2"></path>
            <g id="Group" transform="translate(0.160233, 0.196617)" fill="#262626">
                <path d="M34.2311937,50.8123288 C33.8565107,44.7006294 25.2641863,45.0966358 25.1788926,51.1169491 C25.4236043,57.336281 34.2027624,56.9108279 34.2311937,50.8123288 Z M26.1343851,50.8884839 C26.2257712,46.291763 32.9588961,46.7690015 33.2909322,51.0915641 C32.9822503,55.5887757 26.0511222,55.3603104 26.1343851,50.8884839 L26.1343851,50.8884839 Z" id="Shape"></path>
                <path d="M17.9411134,41.4747 C13.7119678,37.4130955 7.13521467,43.7725528 11.3166365,48.0341913 C15.5021199,52.083611 22.0981656,45.6957225 17.9411134,41.4747 Z M12.122865,42.1763422 C15.4300265,39.0194601 20.2196736,44.0761577 17.1338695,47.3335645 C13.8155387,50.3909373 9.00253734,45.3515015 12.122865,42.1763422 Z" id="Shape"></path>
                <path d="M13.0184488,29.2929328 C12.4213929,23.7417348 3.78337556,23.9011528 3.7244823,29.6188765 C3.89506969,35.7539301 13.4489789,35.5660809 13.0184488,29.2929328 Z M8.48468277,26.1076194 C13.0844499,26.1736205 12.6386888,32.9392382 8.28160254,33.2580741 C3.80672979,32.9372074 4.00676381,26.0426338 8.48468277,26.1076194 Z" id="Shape"></path>
                <path d="M41.6314371,48.0402837 C46.1723109,52.2328749 52.0565604,45.8307709 47.937078,41.4686076 C43.4459589,37.2374312 37.5251549,43.6659357 41.6314371,48.0402837 Z M47.3745458,42.297175 C50.577121,45.6378446 45.415837,50.3137668 42.1960001,47.2127318 C39.0929342,43.8507387 44.2054789,39.1971553 47.3745458,42.297175 Z" id="Shape"></path>
                <path d="M50.8269096,34.3039373 C56.7497444,34.2216898 57.2899378,25.3105295 51.1640228,25.0474632 C45.3863904,25.0170786 44.9152443,33.9851014 50.8269096,34.3039373 Z M50.8898645,26.2061133 C55.3860607,26.1786975 55.7708977,32.8722217 51.141684,33.1626264 C46.5733943,33.0153933 46.1560645,26.4274708 50.8929107,26.2061133 L50.8898645,26.2061133 Z" id="Shape"></path>
                <path d="M11.378576,17.922471 C15.6554455,22.0500765 22.0006871,15.4702773 17.889328,11.267532 C13.5972274,7.13484943 7.26620142,13.7268335 11.378576,17.922471 Z M12.0284327,12.1092995 C15.2899011,8.89149337 20.4654006,13.9725606 17.1054383,17.2015362 C13.9475408,20.1593996 8.94973648,15.2448582 12.0284327,12.1103149 L12.0284327,12.1092995 Z" id="Shape"></path>
                <path d="M25.0519675,8.49244073 C25.3667419,14.3340434 34.3733498,14.0771469 34.3642182,8.27514489 C34.3621804,2.28630906 25.164677,2.69653112 25.0519675,8.49244073 L25.0519675,8.49244073 Z M29.6497038,4.7577954 C34.330703,4.83699668 34.1834698,12.3367494 29.4039767,11.9082501 C25.2245857,11.5010743 25.3677573,4.7628724 29.6497038,4.7577954 Z" id="Shape"></path>
                <path d="M31.2834842,21.5941614 C31.6256744,30.4464284 44.0541841,30.3266111 44.3679431,21.5017599 C44.3893939,19.139009 43.1353267,16.948229 41.0870561,15.7702478 C39.0387855,14.5922666 36.5145264,14.6100927 34.483097,15.8168845 C32.4516675,17.0236762 31.228666,19.2319491 31.2834842,21.5941614 L31.2834842,21.5941614 Z M43.4591591,21.5850228 C43.008321,28.6166756 32.1262671,28.6613533 32.2278072,21.5129293 C32.328332,14.3320126 42.9900438,14.5929707 43.4591591,21.5850228 Z" id="Shape"></path>
                <path d="M22.1793977,58.7669812 C41.6324525,64.3019327 61.9841372,46.8065713 59.4578192,26.7574761 C59.0140889,22.101862 57.0350721,11.7193855 49.9851421,14.0801931 C48.6442787,14.5313224 47.1637362,14.1955846 46.1486265,13.210199 C45.1335169,12.2248135 44.7539402,10.7548994 45.165033,9.40122474 C49.0316804,-2.95519154 23.6537602,-0.480659001 17.724833,2.12892189 C-8.02472411,13.46486 -5.01405978,51.5870798 22.1793977,58.7669812 Z M6.10965954,12.9226358 C9.65868418,7.98678941 14.6658927,4.2878473 20.4268154,2.34621773 C25.2012315,0.737822347 47.8345225,-0.83198779 44.2755416,9.12097403 C43.7238968,10.8218006 44.1560989,12.688222 45.3992143,13.9734407 C46.6423296,15.2586595 48.4933254,15.7527665 50.2115766,15.2580584 C59.8071172,12.6860474 59.5766211,33.4977088 57.1823053,38.8153645 C51.2330701,58.2877119 24.7534396,64.925389 10.1316634,50.871222 C-0.532329726,41.0184251 -2.25210891,24.7918896 6.10965954,12.9226358 Z" id="Shape"></path>
            </g>
        </g>
    </g>
</svg>