<?xml version="1.0" encoding="UTF-8"?>
<svg width="100px" height="100px" viewBox="0 0 100 100" version="1.1" xmlns="http://www.w3.org/2000/svg" xmlns:xlink="http://www.w3.org/1999/xlink">
    <title>role-fintech</title>
    <g id="Page-1" stroke="none" stroke-width="1" fill="none" fill-rule="evenodd">
        <g id="role-fintech" fill-rule="nonzero">
            <g id="Group" transform="translate(0.948978, 0.000000)" fill="#B5D85F">
                <path d="M3.71905574,53.680183 C3.49382888,53.680183 3.27196362,53.58942 3.11060706,53.4179786 C2.84336026,53.1372854 2.80302112,52.7086821 3.0148016,52.3826074 L4.09891597,50.7135755 L1.44493676,52.244782 C1.12390445,52.4279889 0.722193849,52.3842882 0.449904658,52.1321686 C0.180977063,51.8800489 0.107021974,51.4783383 0.271740126,51.1472212 L1.65335565,48.3352471 L1.26172984,48.5604739 C0.856657647,48.7941048 0.344014418,48.6545986 0.113745164,48.252888 C-0.119885685,47.8511774 0.0179397078,47.3368534 0.421331101,47.1049033 L3.20641252,45.4980609 C3.52576404,45.3098116 3.93083623,45.3585547 4.20144462,45.6106744 C4.47037222,45.862794 4.5443273,46.2645046 4.37960915,46.5956217 L2.99799363,49.4075959 L6.28899508,47.5082947 C6.62683537,47.3116414 7.05207713,47.3755117 7.31764314,47.6578857 C7.58488993,47.9385789 7.62522907,48.3671822 7.41344859,48.6932569 L6.29403747,50.4177551 C6.64868574,50.3286729 7.03694996,50.476583 7.23024167,50.8110617 C7.46387252,51.2127723 7.32604712,51.7270964 6.92265573,51.9590464 L4.14093591,53.5658888 C4.00983371,53.6432055 3.86528512,53.6785022 3.72073654,53.6785022 L3.71905574,53.680183 Z" id="Path"></path>
                <path d="M9.90439045,31.7928383 C9.68420598,31.7928383 9.46570231,31.7054369 9.30434575,31.5407187 C9.03541815,31.2650679 8.98835582,30.8448686 9.18837072,30.517113 L10.6489837,28.1152535 L7.80339361,29.7590734 C7.46891491,29.9540459 7.04535394,29.8935372 6.77642635,29.612844 C6.50917955,29.3338316 6.46547882,28.9069091 6.6738977,28.5808344 L7.82020158,26.7840619 C7.44874534,26.8983561 7.03694996,26.7504459 6.83861586,26.4025208 C6.60498501,26.0008102 6.7428104,25.4864862 7.14620179,25.2545362 L9.93128321,23.6476938 C10.2657619,23.4510405 10.6910037,23.51323 10.9582505,23.7939232 C11.2254973,24.0729355 11.269198,24.4998581 11.0607791,24.8259328 L9.93968719,26.5857278 L12.6592175,25.0141821 C12.9903346,24.8192096 13.410534,24.8797183 13.6794616,25.1536883 C13.9483892,25.4293391 13.9954515,25.8495385 13.7954366,26.177294 L12.3331428,28.5808344 L13.0474817,28.169039 C13.4475115,27.9337273 13.9635163,28.0715527 14.1954664,28.4766249 C14.4290972,28.8783355 14.2912719,29.3926595 13.8878805,29.6246096 L10.3262706,31.6819057 C10.1951684,31.7592224 10.0506198,31.7945191 9.90607124,31.7945191 L9.90439045,31.7928383 Z" id="Path"></path>
                <path d="M9.61025089,75.4297023 C9.37157765,75.4297023 9.1379468,75.3271737 8.97322865,75.1372436 C8.70934344,74.8296576 8.70093946,74.3808847 8.95305908,74.0648948 L9.92456002,72.8446358 L8.05551323,73.9237078 C7.73280011,74.1136379 7.32268553,74.0615332 7.05207713,73.8026904 C6.78146874,73.5421668 6.71759844,73.1354138 6.89240137,72.8026159 L8.23872015,70.2595693 L7.98323893,70.4074795 C7.57984754,70.6411103 7.06384272,70.5016041 6.83525426,70.0998935 C6.60162341,69.698183 6.7394488,69.1838589 7.1428402,68.9519089 L9.92792161,67.3450665 C10.2506347,67.1551364 10.6607493,67.2072411 10.9313577,67.4660839 C11.2019661,67.7266075 11.2658364,68.1333605 11.0910335,68.4661584 L9.74471469,71.0075242 L12.9315067,69.1687317 C13.277751,68.9636745 13.7248431,69.0409911 13.9887283,69.3468963 C14.2526135,69.6528014 14.2610175,70.1032551 14.0088979,70.4192451 L13.0390777,71.6378232 L13.1466488,71.5756337 C13.5466786,71.3420029 14.0626834,71.4781475 14.2946334,71.8832197 C14.5282643,72.2849303 14.3904389,72.7992543 13.9870475,73.0312043 L10.0304503,75.3154081 C9.89934805,75.3927248 9.75479947,75.4280215 9.61025089,75.4280215 L9.61025089,75.4297023 Z" id="Path"></path>
                <path d="M48.2400192,98.952463 C48.0131116,98.952463 47.7878847,98.8600191 47.6248473,98.6852162 C47.3592813,98.3994806 47.3239846,97.9658349 47.5441691,97.641441 L48.9862933,95.5051474 L46.4499699,96.969122 C46.117172,97.1657753 45.6902495,97.1052666 45.4230027,96.8212118 C45.1540751,96.5405186 45.1137359,96.113596 45.3221548,95.7875213 L46.4583739,94.0176416 C46.100364,94.1252126 45.6919303,93.9756217 45.4952769,93.632739 C45.2616461,93.2310284 45.3994715,92.7167044 45.8028629,92.4847543 L48.5879443,90.8779119 C48.922423,90.6812586 49.3476648,90.7451289 49.6165924,91.0258221 C49.8838392,91.3065153 49.9241783,91.7334378 49.7157594,92.0595125 L48.6081139,93.78233 L51.304113,92.2259115 C51.6385917,92.0275774 52.0705567,92.0914477 52.3394843,92.3805449 C52.6050503,92.6662804 52.640347,93.0999262 52.4201625,93.4243201 L50.9780383,95.5606137 L51.8150754,95.0782248 C52.2151052,94.8429132 52.7327909,94.9824193 52.9630601,95.3858107 C53.196691,95.7875213 53.0588656,96.3018454 52.6554742,96.5337954 L48.6602186,98.8398495 C48.5291164,98.9171662 48.3845678,98.952463 48.2400192,98.952463 L48.2400192,98.952463 Z" id="Path"></path>
                <path d="M20.4984569,91.8847096 C20.2547413,91.8847096 20.0177488,91.7805002 19.8513499,91.5804853 C19.5908263,91.2661761 19.5941879,90.8089992 19.8597539,90.4963709 L20.9052099,89.2727503 L19.4916592,90.0862563 C19.1521381,90.2862712 18.7235348,90.2190393 18.456288,89.9316229 C18.1890412,89.6442066 18.1554252,89.2105608 18.3756097,88.8861669 L19.4412353,87.3196637 C19.1252454,87.3616836 18.7773203,87.2104118 18.6025174,86.9061875 C18.3688865,86.5044769 18.5067119,85.9901529 18.9101033,85.7582028 L21.6951847,84.1513604 C22.0347058,83.9530263 22.4633092,84.0185774 22.730556,84.3059938 C22.9978028,84.5934102 23.0314187,85.0270559 22.8112342,85.3514498 L21.8279677,86.7969357 L24.3004208,85.3699386 C24.6517075,85.1632005 25.103842,85.2438788 25.3677272,85.5598687 C25.6282508,85.8741778 25.6248892,86.3313548 25.3593232,86.6439831 L24.3138672,87.8676036 L25.0517373,87.4423619 C25.4517671,87.2070502 25.9677719,87.3465564 26.199722,87.7499478 C26.4333528,88.1516584 26.2955274,88.6659824 25.892136,88.8979325 L20.9186563,91.7687346 C20.7875541,91.8460513 20.6430055,91.881348 20.4984569,91.881348 L20.4984569,91.8847096 Z" id="Path"></path>
                <path d="M74.9714222,92.1906147 C74.7277066,92.1906147 74.4890334,92.0864053 74.3243152,91.8863904 C74.0621108,91.5704005 74.0671532,91.1115428 74.3344,90.8005952 L75.0605045,89.9585157 L73.636869,90.7787449 C73.3141559,90.9653134 72.9057221,90.9199319 72.6351138,90.6594082 C72.3661862,90.4022462 72.2989543,89.9954932 72.4703956,89.6643761 L73.8301608,87.0456937 L73.5343404,87.2154542 C73.1292682,87.4490851 72.616625,87.3095789 72.3863557,86.9078683 C72.1527249,86.5061577 72.2905503,85.9918337 72.6939417,85.7598836 L75.4790231,84.1530412 C75.8017362,83.9631111 76.2118508,84.013535 76.4807784,84.2723778 C76.749706,84.5295399 76.8169379,84.9362928 76.6454965,85.26741 L75.2874122,87.8844116 L78.5044585,86.0271304 C78.8557452,85.8203923 79.3095605,85.9010706 79.5717649,86.2170605 C79.8339693,86.5330504 79.8289269,86.9919082 79.5616801,87.3028557 L78.8254908,88.1600624 C79.2120743,87.9869403 79.6776552,88.1314888 79.8927972,88.5079875 C80.1264281,88.9096981 79.9886027,89.4240221 79.5852113,89.6559722 L75.3916216,92.0763205 C75.2605194,92.1536372 75.1159708,92.1889339 74.9714222,92.1889339 L74.9714222,92.1906147 Z" id="Path"></path>
                <path d="M92.717282,53.1927518 C92.4870127,53.1927518 92.2617859,53.0986271 92.0970677,52.9204626 C91.8315017,52.6296846 91.8029281,52.1909965 92.0298358,51.8699642 L93.6316358,49.5874412 L91.5861053,50.767361 C91.2364994,50.9740991 90.7826841,50.8934208 90.5204797,50.5791117 C90.2599561,50.2664834 90.2599561,49.8109872 90.5238413,49.4983589 L91.2768385,48.6075363 C91.1121204,48.5386236 90.9692526,48.4176061 90.8768087,48.252888 C90.6431779,47.8511774 90.7810033,47.3368534 91.1843947,47.1049033 L93.9694761,45.4980609 C94.319082,45.2913228 94.7728973,45.3736819 95.0351017,45.6863102 C95.2956253,46.0006194 95.2956253,46.4544347 95.0317401,46.767063 L94.9174459,46.9032076 L96.0839193,46.2308886 C96.4251212,46.0308737 96.8570861,46.0997864 97.1243329,46.3905644 C97.3898989,46.6813424 97.4184725,47.1200305 97.1915648,47.4410628 L95.5880841,49.7252666 L97.3209862,48.7251921 C97.7226968,48.4898804 98.2370209,48.6293866 98.4689709,49.032778 C98.7026018,49.4344886 98.5647764,49.9488126 98.161385,50.1807627 L93.1374813,53.0818191 C93.0063791,53.1591358 92.8618306,53.1944326 92.717282,53.1944326 L92.717282,53.1927518 Z" id="Path"></path>
                <path d="M87.7589294,75.5305502 C87.5337026,75.5305502 87.3118373,75.4397871 87.1487999,75.2683458 C86.8815531,74.9859718 86.8428948,74.5573684 87.0546753,74.2312937 L88.1320665,72.5807506 L85.4915336,74.1035531 C85.1705013,74.2850793 84.7687907,74.2413785 84.4965015,73.9909397 C84.2275739,73.7388201 84.1536188,73.3387903 84.3166562,73.0076732 L85.6999525,70.1805718 L85.3016035,70.4108411 C84.8965313,70.6444719 84.3822073,70.5049657 84.1536188,70.1032551 C83.919988,69.7015445 84.0578134,69.1872205 84.4612048,68.9552705 L87.2462862,67.3484281 C87.5656377,67.1601788 87.9673483,67.2072411 88.2413183,67.4610415 C88.5102459,67.7131611 88.584201,68.1131909 88.4211636,68.444308 L87.0378673,71.2697286 L90.3339112,69.3687466 C90.6700706,69.1737741 91.0953124,69.2359636 91.36424,69.5183376 C91.6314868,69.8007116 91.6701451,70.229315 91.4583647,70.5553897 L90.3423151,72.2681223 C90.691921,72.1807208 91.0785044,72.3319926 91.2701153,72.6631097 C91.5037462,73.0648203 91.3659208,73.5791443 90.9625294,73.8110944 L88.1808096,75.4179368 C88.0497074,75.4952534 87.9051588,75.5305502 87.7606102,75.5305502 L87.7589294,75.5305502 Z" id="Path"></path>
                <path d="M87.7589294,31.8298159 C87.5370642,31.8298159 87.3151989,31.7407336 87.1538423,31.5726539 C86.8865955,31.2953223 86.841214,30.8700805 87.0496329,30.542325 L88.194256,28.7220213 L85.4310249,30.3170981 C85.1099926,30.5019859 84.699878,30.4549235 84.4326312,30.1994423 C84.1620228,29.9439611 84.0931101,29.5405697 84.2611899,29.2094526 L85.629359,26.5184959 L85.2999227,26.708426 C84.8948505,26.9420568 84.3805265,26.8025506 84.151938,26.40084 C83.9183072,25.9991294 84.0561326,25.4848054 84.459524,25.2528554 L87.2446054,23.646013 C87.5656377,23.4577637 87.9740715,23.5065068 88.2429991,23.7636688 C88.5136075,24.01915 88.5825202,24.4225414 88.4144404,24.7536585 L87.0479521,27.4412537 L90.2918912,25.5688453 C90.6246891,25.372192 91.0499309,25.4343815 91.3171777,25.7133939 C91.5844245,25.9907255 91.629806,26.4159672 91.4213871,26.7437227 L90.2616369,28.5892383 C90.6330931,28.4547745 91.0650581,28.6043655 91.2701153,28.9623754 C91.5037462,29.364086 91.3659208,29.87841 90.9625294,30.1103601 L88.1808096,31.7172024 C88.0497074,31.7945191 87.9051588,31.8298159 87.7606102,31.8298159 L87.7589294,31.8298159 Z" id="Path"></path>
                <path d="M49.1005875,8.29865125 C48.8753607,8.29865125 48.6534954,8.20788818 48.490458,8.03644684 C48.2232112,7.75407286 48.1845529,7.32546951 48.3963334,6.9993948 L49.470363,5.35389407 L46.8365533,6.87333499 C46.515521,7.05654191 46.1121296,7.01284118 45.843202,6.76072156 C45.5725936,6.51028273 45.4986385,6.11025293 45.6616759,5.77745503 L47.0449722,2.94531129 L46.6432616,3.17726134 C46.2398702,3.40921139 45.7255462,3.2730668 45.4952769,2.86967541 C45.2616461,2.46796481 45.3994715,1.95364078 45.8028629,1.72169073 L48.5879443,0.114848346 C48.905615,-0.0734009706 49.3106872,-0.0263386414 49.5812956,0.227461777 C49.851904,0.477900601 49.9258591,0.879611197 49.7628217,1.2107283 L48.3795254,4.04119124 L51.6772501,2.1385285 C52.0150903,1.943556 52.4386513,2.0057455 52.7075789,2.28811948 C52.9748257,2.57049346 53.013484,2.99909681 52.8017036,3.32517152 L51.6873348,5.03286175 C52.0453447,4.95386427 52.4235241,5.10009365 52.6117735,5.42952996 C52.8454043,5.83124055 52.7075789,6.34556458 52.3041875,6.57751463 L49.5224677,8.18435702 C49.3913655,8.2616737 49.2468169,8.29697045 49.1022683,8.29697045 L49.1005875,8.29865125 Z" id="Path"></path>
                <path d="M75.9933471,15.0218411 C75.7681202,15.0218411 75.5445742,14.9310781 75.3832176,14.7596367 C75.1159708,14.4772628 75.0773125,14.0469786 75.2907738,13.7225847 L76.3580802,12.0888495 L73.7326745,13.6032481 C73.413323,13.786455 73.0099316,13.7427543 72.7393232,13.4923154 C72.4687148,13.2401958 72.3947597,12.840166 72.5577971,12.5090489 L73.9410934,9.66682039 L73.5343404,9.90213203 C73.1292682,10.1357629 72.616625,9.99625669 72.3863557,9.5945461 C72.1527249,9.1928355 72.2905503,8.67851147 72.6939417,8.44656142 L75.4790231,6.83971904 C75.7966938,6.65315052 76.201766,6.70021285 76.4723744,6.95233247 C76.7429828,7.20277129 76.8169379,7.60280109 76.6539005,7.93391819 L75.2706042,10.7744659 L78.5716904,8.87012239 C78.9078499,8.67514988 79.3364533,8.73733939 79.6020193,9.01971336 C79.8692661,9.30208734 79.9079244,9.73237149 79.6944631,10.0567654 L78.5851368,11.7543709 C78.9313811,11.6736926 79.3146029,11.8249643 79.5028522,12.1527199 C79.7364831,12.5544304 79.5986577,13.0687545 79.1952663,13.3007045 L76.4135465,14.9075469 C76.2824443,14.9848636 76.1378957,15.0201603 75.9933471,15.0201603 L75.9933471,15.0218411 Z" id="Path"></path>
                <path d="M21.784267,14.9949484 C21.5657633,14.9949484 21.3472596,14.9092277 21.1875839,14.7461904 C20.9186563,14.4739012 20.8682324,14.0553826 21.0632049,13.7259463 L22.5002867,11.3089595 L19.5841031,12.9914378 C19.2496244,13.1880911 18.8260634,13.1242208 18.5588166,12.8468892 C18.2915698,12.5695576 18.2461883,12.1443159 18.4529264,11.8182412 L19.6160382,9.96432154 C19.2462628,10.1004661 18.8092555,9.95423676 18.6025174,9.5945461 C18.3688865,9.1928355 18.5067119,8.67851147 18.9101033,8.44656142 L21.6951847,6.83971904 C22.0296634,6.64474653 22.4532244,6.70525524 22.7204712,6.98426762 C22.987718,7.2615992 23.0330995,7.68684096 22.8246806,8.01291567 L21.676696,9.84162333 L24.4432886,8.24486573 C24.7727249,8.05157402 25.1929243,8.10872113 25.4601711,8.38101032 C25.7290987,8.65329951 25.7795226,9.07181808 25.5845501,9.40125439 L24.1474682,11.8182412 L24.7660017,11.4619121 C25.1693931,11.2249196 25.6820363,11.3661066 25.9139864,11.769498 C26.1476172,12.1712086 26.0097918,12.6855327 25.6064004,12.9174827 L22.2027856,14.8823349 C22.0716834,14.9596516 21.9271348,14.9949484 21.7825862,14.9949484 L21.784267,14.9949484 Z" id="Path"></path>
            </g>
            <path d="M51.0210663,78.8652524 C50.7437347,78.8652524 50.4731263,78.727427 50.3134506,78.478669 C50.0697349,78.1004895 50.168902,77.6012927 50.5353158,77.3390883 L61.4117563,69.6259087 L46.126584,78.4484146 C45.7315966,78.6786839 45.2290382,78.5509432 44.9886842,78.1609982 C44.7500109,77.772734 44.8659859,77.2651332 45.247527,77.0163752 L50.3235353,73.7169697 L43.1784653,77.8416467 C42.7868395,78.071916 42.2876426,77.9458562 42.0456078,77.5609535 C41.8052537,77.1777317 41.911144,76.6734925 42.2859618,76.4180113 L58.8535825,65.1633914 L39.2235488,76.4953279 C38.8302422,76.7222356 38.3293646,76.5978566 38.0890105,76.2112732 C37.8486565,75.8246897 37.9595891,75.3204505 38.3360878,75.0683309 L56.3777678,63.0371826 L35.9426322,74.8363808 C35.5476447,75.0683309 35.0383631,74.9389095 34.8013707,74.5422413 C34.5643782,74.1506155 34.6870764,73.6413338 35.0753407,73.3959374 L39.1361474,70.8478484 L34.1895604,73.7035233 C33.794573,73.9337926 33.2920145,73.8043712 33.0533413,73.416107 C32.8146681,73.0278427 32.9289623,72.5219227 33.3088225,72.2714839 L51.9488665,60.0991486 L31.7120649,71.780691 C31.3120351,72.0109603 30.8077959,71.8781773 30.5708034,71.4865515 C30.333811,71.0932449 30.45819,70.5839632 30.8464542,70.3402476 L35.5913455,67.3770016 L30.2749831,70.4461378 C29.8799957,70.6764071 29.3757564,70.5469857 29.138764,70.1587215 C28.9000907,69.7704572 29.014385,69.2628564 29.3942452,69.0140984 L50.0462038,55.555953 L28.226091,68.1535301 C27.8277419,68.3837993 27.3201411,68.2510163 27.0848295,67.8593905 C26.847837,67.4660839 26.972216,66.9568023 27.3604803,66.7130866 L34.0937549,62.5077314 L27.0411287,66.5803036 C26.6461413,66.8122537 26.1385405,66.6828323 25.8998672,66.2861641 C25.6628748,65.8945383 25.785573,65.3852566 26.1738372,65.141541 L36.5611656,58.609962 L25.8746553,64.7801695 C25.4796679,65.008758 24.9771094,64.8826982 24.7367554,64.4910724 C24.4980822,64.1028082 24.615738,63.5952073 24.997279,63.3464493 L45.1029784,50.3320345 L24.5316981,62.2085494 C24.1350299,62.4421803 23.6324715,62.3093973 23.3921174,61.9177714 C23.155125,61.5278264 23.2744616,61.0185448 23.6593642,60.7714676 L39.1714441,50.8782936 L23.5652396,59.8873681 C23.1719329,60.1176374 22.6676937,59.9898967 22.4273397,59.5982709 C22.1886664,59.2100067 22.3063222,58.7024059 22.6878633,58.4536479 L41.6506204,46.1754223 L22.7282024,57.0989251 C22.333215,57.3308751 21.827295,57.2014537 21.5886217,56.8064663 C21.3516293,56.4165213 21.4726467,55.9072397 21.8575493,55.6618433 L33.2079747,48.4680301 L22.2592599,54.7878286 C21.8625917,55.0214594 21.3566717,54.8886764 21.1196792,54.4953698 C20.8826868,54.1054248 21.0037042,53.5961432 21.3886068,53.3490659 L30.9187285,47.315003 L21.9869707,52.4716896 C21.5903025,52.7036397 21.0827017,52.5725375 20.8457092,52.1775501 C20.6087168,51.7859243 20.7330958,51.2749618 21.1196792,51.0312462 L24.4527006,48.9436958 L21.8962077,50.4194359 C21.4995395,50.651386 20.9936194,50.5202838 20.756627,50.1269772 C20.5196345,49.7336706 20.640652,49.2243889 21.0272354,48.9806733 L25.1754435,46.3670332 L21.9701628,48.2175912 C21.5734946,48.4444989 21.0759785,48.3201199 20.8356245,47.9335365 C20.5952704,47.5486338 20.7062031,47.0443946 21.0827017,46.7905942 L37.0855744,36.1057646 L22.4710404,44.5450488 C22.0861378,44.7736372 21.5835793,44.6492582 21.3398637,44.2677172 C21.0978289,43.8861762 21.2020383,43.3836177 21.5734946,43.1264557 L37.0704473,32.4113718 L23.7602121,40.0942971 C23.3753094,40.3195239 22.8744318,40.1985065 22.6340778,39.8236887 C22.3903621,39.4455092 22.4861676,38.9463124 22.8492198,38.684108 L34.6248869,30.2313775 L26.2914931,35.0418198 C25.9133136,35.2636851 25.4275632,35.1527525 25.1788051,34.791381 C24.9317279,34.4300096 25.0023214,33.9375359 25.3435233,33.6618851 L31.8364439,28.400989 C31.537262,28.4211586 31.2397608,28.259802 31.0800851,27.9807897 C30.8464542,27.5790791 30.9842796,27.064755 31.387671,26.832805 L39.736192,22.0139586 C40.1143715,21.7920934 40.600122,21.903026 40.84888,22.2643975 C41.0959572,22.6257689 41.0253637,23.1182426 40.6841618,23.3938934 L34.6837148,28.2581212 L48.4712965,20.2978644 C48.8545183,20.0709567 49.3537152,20.1919742 49.5974308,20.5684728 C49.8411465,20.9449714 49.745341,21.4458491 49.3822888,21.7080535 L37.6032601,30.1624648 L54.1086912,20.6340239 C54.5019979,20.4071162 54.9961523,20.5331761 55.2398679,20.9113555 C55.4819028,21.2928965 55.3776933,21.795455 55.0062371,22.052617 L39.512646,32.7660201 L58.6115477,21.7383078 C59.0031735,21.5080386 59.5040511,21.6340984 59.746086,22.0223626 C59.98644,22.4072652 59.8755074,22.9115045 59.4990087,23.1653049 L43.496136,33.8484536 L62.0454169,23.1400929 C62.4437659,22.9115045 62.9480052,23.0409259 63.1849976,23.4325517 C63.42199,23.8241775 63.3009726,24.3351399 62.9143892,24.5788556 L58.774585,27.1874533 L63.9917804,24.1754642 C64.3918102,23.9451949 64.8960494,24.0762971 65.1330419,24.4696037 C65.3700343,24.8629103 65.2456553,25.372192 64.8590719,25.6159076 L61.5193273,27.7085005 L65.721321,25.2831097 C66.1179892,25.0528405 66.6239092,25.1822619 66.8609017,25.5755685 C67.0978941,25.9655135 66.9768767,26.4747951 66.5919741,26.7218724 L57.0349596,32.7727433 L67.5769214,26.6865756 C67.9752704,26.4579871 68.4795096,26.5857278 68.7165021,26.9790344 C68.9534945,27.3689794 68.8324771,27.878261 68.4475745,28.1236574 L57.1173187,35.305705 L69.3417587,28.2480365 C69.7350654,28.0177672 70.2393046,28.1455078 70.4796586,28.5371336 C70.7183319,28.9253978 70.6006761,29.4329987 70.219135,29.6817567 L51.2496547,41.9650246 L71.3335038,30.3708837 C71.730172,30.1422952 72.2344112,30.2717166 72.4730844,30.6616616 C72.7100769,31.0516066 72.5907403,31.5608883 72.2058376,31.8079655 L56.692077,41.7028202 L72.874795,32.3592671 C73.2714632,32.1306786 73.7723409,32.2567384 74.0126949,32.6483642 C74.2513682,33.0366285 74.1337123,33.5442293 73.7521713,33.7929873 L53.6464719,46.8057214 L74.4278519,34.808189 C74.8262009,34.5796005 75.3321209,34.7073411 75.5691134,35.1023286 C75.8061058,35.4939544 75.6834076,36.003236 75.2951434,36.2469516 L64.9178998,42.7718074 L75.406076,36.7158941 C75.8027442,36.4822633 76.3103451,36.6167271 76.5473375,37.0100337 C76.78433,37.4033403 76.6599509,37.9126219 76.2716867,38.1563376 L69.5300081,42.3650544 L76.1826045,38.526113 C76.5775919,38.2958438 77.0818311,38.4252652 77.3188236,38.8135294 C77.5574968,39.2017936 77.4432026,39.7093944 77.0633423,39.9581525 L56.4147454,53.414617 L77.1339358,41.4523814 C77.5322848,41.2187506 78.0365241,41.3532144 78.2751973,41.746521 C78.5121898,42.1398276 78.3878108,42.6491092 77.9995465,42.8928248 L73.2361665,45.8661556 L77.5743048,43.3634481 C77.9692922,43.1314981 78.4735314,43.2626003 78.7105239,43.6508645 C78.9491971,44.0374479 78.8349029,44.5450488 78.4550426,44.7954876 L59.8267643,56.9610997 L77.9978657,46.4712427 C78.3945339,46.2426542 78.9021348,46.3703948 79.1391272,46.7653822 C79.3761197,47.157008 79.2534214,47.6662897 78.8651572,47.9116861 L74.8043505,50.4597751 L78.0970328,48.5587931 C78.4903394,48.3285239 78.9895362,48.4545837 79.2315711,48.8428479 C79.4719251,49.2277505 79.3609925,49.7336706 78.9844939,49.9857902 L60.9360906,62.0203001 L77.9003795,52.227974 C78.2936861,52.0010664 78.7912021,52.1237646 79.033237,52.5086672 C79.273591,52.891889 79.1677008,53.3961283 78.7928829,53.6516095 L62.2286238,64.9045486 L77.0952775,56.3223967 C77.4902649,56.0921274 77.9928233,56.219868 78.2331774,56.609813 C78.4718506,56.9980772 78.3558756,57.5056781 77.9743346,57.7544361 L72.8764758,61.0689687 L76.1523501,59.1780716 C76.5422951,58.9511639 77.0381304,59.0738621 77.2801652,59.4520416 C77.5238808,59.830221 77.4247138,60.3294178 77.0582999,60.5916222 L66.1818595,68.3064826 L73.7504905,63.9364092 C74.12867,63.7162247 74.6144204,63.8254766 74.8631784,64.186848 C75.1102557,64.5482195 75.0396622,65.0390124 74.7001411,65.3146631 L68.1383078,70.6495143 C68.4156393,70.6226216 68.7534796,70.7822973 68.9181978,71.0680329 C69.1518286,71.4697435 69.0140032,71.9840675 68.6106118,72.2160176 L60.2637716,77.0348639 C59.8855922,77.25841 59.3998417,77.1457966 59.1510837,76.7844251 C58.9040064,76.4230536 58.9745999,75.9322608 59.314121,75.65661 L65.4507126,70.6680031 L51.4429465,78.7543197 C51.3101635,78.8316364 51.1656149,78.8669332 51.0227471,78.8669332 L51.0210663,78.8652524 Z" id="Path" fill="#C384F8"></path>
            <path d="M49.5890268,72.1588705 C49.3133761,72.1588705 49.0427677,72.0227259 48.8830919,71.7739678 C48.6393763,71.3957884 48.7351817,70.8965916 49.0999148,70.6343871 L56.4702117,65.3465983 L45.736639,71.5420178 C45.3416516,71.7706062 44.8424548,71.6445464 44.6021007,71.257963 C44.3617467,70.8713796 44.4726793,70.3671403 44.849178,70.1150207 L49.1906778,67.2223683 L43.0507247,70.7654893 C42.6557373,70.9957586 42.1531788,70.868018 41.9145056,70.478073 C41.6758323,70.088128 41.7901266,69.5822079 42.1699868,69.3334499 L45.1836567,67.3702785 L40.8858575,69.8511355 C40.4908701,70.0830856 39.9866309,69.9519834 39.7479576,69.5603576 C39.5092844,69.1720933 39.6269402,68.6628117 40.010162,68.4157345 L41.3262265,67.5702934 L39.089085,68.8628266 C38.69914,69.0930959 38.2033048,68.9670361 37.9579083,68.585495 C37.7158735,68.203954 37.8200829,67.7013956 38.1915392,67.4442335 L53.9641427,56.5375387 L36.2250061,66.7786377 C35.8300187,67.0055454 35.3308219,66.8811664 35.0904678,66.494583 C34.8501138,66.1079995 34.9610464,65.6037603 35.3375451,65.3516407 L48.4410422,56.6232594 L34.2265379,64.8289127 C33.8315505,65.0608627 33.3256305,64.9314413 33.0869572,64.5364539 C32.8499648,64.1465089 32.9709822,63.6372273 33.3558848,63.39015 L35.1408918,62.2606541 L33.0802341,63.4489779 C32.6869274,63.6775664 32.1860498,63.5515066 31.9456958,63.166604 C31.7053417,62.7817013 31.8162744,62.2757813 32.1910922,62.0219809 L47.247676,51.9472808 L31.486838,61.0454376 C31.0901698,61.2723452 30.5943346,61.1462854 30.3539806,60.7630636 C30.1136265,60.378161 30.2211976,59.8739217 30.5976962,59.6201213 L46.4156812,48.9722693 L30.18422,58.3427152 C29.7892326,58.5696229 29.288355,58.4435631 29.0480009,58.0569797 C28.8093277,57.6703962 28.9219411,57.1644762 29.3001205,56.9140374 L41.230421,49.049586 L29.36231,55.9005165 C28.972365,56.1307857 28.4731682,56.0047259 28.2311333,55.6215041 C27.9890985,55.2399631 28.093308,54.7374046 28.466445,54.4802426 L44.6323551,43.3768945 L28.748819,52.5473255 C28.3521508,52.7742332 27.8563155,52.6481734 27.6159615,52.2649516 C27.3756074,51.8800489 27.4831785,51.3758097 27.8596771,51.1220093 L39.504242,43.2878123 L28.6412479,49.5588676 C28.2462605,49.7891369 27.7420213,49.6613963 27.503348,49.2697705 C27.2646748,48.8815062 27.3823306,48.3722246 27.7655524,48.1251474 L29.0748937,47.2797063 L28.8009237,47.4377012 C28.4143403,47.6629281 27.918505,47.5419107 27.6764702,47.1687736 C27.4310737,46.7939558 27.5251984,46.2930781 27.8865699,46.0308737 L40.6051643,36.7730412 L29.8699109,42.9701415 C29.4866891,43.1970492 28.9942154,43.0760318 28.7471382,42.7045755 C28.5017417,42.3331193 28.590824,41.8356032 28.9471531,41.5700372 L36.8687516,35.6637149 L32.1406683,38.39333 C31.760808,38.6185569 31.2700152,38.500901 31.0229379,38.136168 C30.7775415,37.7697541 30.8548582,37.2739189 31.2027833,37.0033105 L35.2400588,33.8602192 C35.1123182,33.7879449 34.9997048,33.6820547 34.9223881,33.5442293 C34.6887572,33.1425187 34.8265826,32.6281947 35.229974,32.3962446 L42.5851438,28.1505502 C42.965004,27.9270041 43.4541161,28.0429792 43.7028741,28.4077122 C43.9482705,28.7741261 43.8709538,29.2699613 43.5230288,29.5405697 L41.8254233,30.8616765 L48.4561693,27.0345007 C48.8393912,26.8109546 49.3335456,26.9286104 49.5789421,27.3000667 C49.8243385,27.6715229 49.7352562,28.169039 49.3789272,28.434605 L41.4573287,34.3409273 L53.5372201,27.3689794 C53.9204419,27.1403909 54.4196388,27.2647699 54.6616736,27.637907 C54.90707,28.0127248 54.8129454,28.5136025 54.4515739,28.7758069 L41.7380218,38.0302778 L57.9476327,28.6732782 C58.3426201,28.443009 58.8468593,28.5707496 59.0855326,28.9623754 C59.3242058,29.3506396 59.20655,29.8599212 58.8233282,30.1069985 L57.5156677,30.9507588 L59.8654226,29.5943552 C60.2587292,29.3624052 60.7579261,29.4918266 60.9982801,29.8767292 C61.2386341,30.2616318 61.1310631,30.7658711 60.7545645,31.0196715 L49.115042,38.8488261 L62.3899804,31.1843896 C62.7799254,30.9591628 63.2791223,31.081861 63.5211571,31.463402 C63.7631919,31.8449431 63.6589825,32.3475015 63.2858455,32.6046635 L47.1115314,43.713054 L64.9884933,33.3929575 C65.3801191,33.1626883 65.8826775,33.2921097 66.1247124,33.6786931 C66.3633856,34.0652765 66.2507722,34.5711966 65.8725928,34.8233162 L53.9456539,42.684406 L66.6961835,35.322513 C67.0894901,35.0922438 67.5870062,35.2183036 67.829041,35.604887 C68.0693951,35.9897896 67.961824,36.4940289 67.5853254,36.7478293 L51.762298,47.3990429 L68.393789,37.7983277 C68.7854148,37.5680584 69.2862924,37.6957991 69.5283273,38.0807017 C69.7686813,38.4656043 69.6577487,38.9715243 69.2829308,39.2253248 L54.2280279,49.298344 L69.6846414,40.3749902 C70.0813096,40.144721 70.5872297,40.2741424 70.8242221,40.667449 C71.0612146,41.057394 70.9401971,41.5666756 70.5552945,41.8137529 L68.7971804,42.9264408 L70.3031749,42.0574685 C70.6964815,41.8255184 71.1956784,41.9532591 71.4377132,42.3415233 C71.6780672,42.7264259 71.5671346,43.2323459 71.190636,43.4844656 L58.0871389,52.2128468 L70.9973443,44.7601908 C71.3856085,44.5316024 71.8848053,44.6576622 72.128521,45.0375224 C72.3705558,45.4190634 72.2663464,45.9216219 71.8948901,46.1787839 L56.1155634,57.0905211 L71.3637581,48.2881847 C71.7604263,48.0595963 72.2646656,48.1890177 72.501658,48.5789627 C72.7403312,48.9672269 72.6226754,49.4765085 72.2394536,49.7235858 L70.9435587,50.5538997 L71.3267806,50.3337153 C71.721768,50.103446 72.2243264,50.2311866 72.4629997,50.6211316 C72.7016729,51.0110766 72.5873787,51.5169967 72.2075184,51.7657547 L69.1770406,53.7406917 L71.0259178,52.6733853 C71.4192244,52.4431161 71.9184213,52.5691759 72.1604561,52.9574401 C72.4008102,53.3423427 72.2898775,53.8482628 71.9133789,54.1003824 L67.5668366,56.9980772 L70.3552796,55.3878733 C70.7401822,55.1592848 71.2376983,55.281983 71.4814139,55.6584817 C71.7251296,56.0349803 71.6293241,56.5358579 71.2645911,56.7980623 L63.8993365,62.0824896 L68.6492702,59.3411089 C69.024088,59.1192437 69.5098385,59.2284955 69.7585965,59.5865054 C70.0073545,59.9428344 69.9418034,60.4319465 69.6090055,60.7126397 L64.3800446,65.0877555 C64.659057,65.0995211 64.9263038,65.249112 65.0758948,65.5079549 C65.3095256,65.9096654 65.1717002,66.4239895 64.7683088,66.6559395 L57.4148199,70.8999531 C57.0383212,71.1201376 56.5559324,71.0125666 56.3054935,70.6545567 C56.0567355,70.2982277 56.1222866,69.8091156 56.4550845,69.5284224 L61.1075319,65.6373763 L50.0092262,72.0445762 C49.878124,72.1218929 49.7318946,72.1571897 49.5890268,72.1571897 L49.5890268,72.1588705 Z" id="Path" fill="#F5EC83"></path>
            <path d="M3.7755301,46.6578112 C3.78729569,46.6527688 3.80242286,46.6477264 3.81755004,46.6410032 C3.79738047,46.6477264 3.78561489,46.6544496 3.7755301,46.6578112 Z" id="Path" fill="#262626"></path>
            <path d="M89.2255929,30.2784398 C89.2642512,30.2733974 89.2760168,30.2649934 89.3045903,30.259951 C89.3718222,30.2347391 89.3113135,30.2128887 89.2255929,30.2784398 Z" id="Path" fill="#262626"></path>
            <path d="M76.7708836,8.44992302 C76.7372676,8.44992302 76.7036517,8.45328461 76.6700357,8.45328461 C76.6683549,8.45496541 76.6969285,8.45496541 76.7708836,8.44992302 Z" id="Path" fill="#262626"></path>
            <path d="M49.5318797,72.0832346 C88.2927503,69.9503026 73.8715079,13.2788542 38.8672198,29.9338763 C18.457296,40.2489304 26.7083308,72.6547057 49.5318797,72.0832346 Z M36.1325623,33.7240746 C66.1347972,10.616471 87.9649948,67.000503 50.4714455,70.6814495 C31.8145936,71.0579481 22.1231153,46.0392777 36.1325623,33.7240746 Z" id="Shape" fill="#262626"></path>
            <path d="M44.4962105,54.9609507 C38.2772598,53.2700684 45.770255,61.2118365 48.7839248,60.3042059 L48.7839248,63.3061102 C50.8277746,64.4961148 51.5690063,62.0942552 51.2194004,60.2168044 C59.9427393,59.5528894 59.8990385,49.1050523 51.2194004,48.8579751 L51.2194004,40.4371797 C53.1002128,40.9380574 54.7692447,42.235633 55.5071147,44.094595 C61.7260654,45.7854773 54.2330703,37.8437092 51.2194004,38.7513399 L51.2194004,35.7595204 C49.1839546,34.5728774 48.4326382,36.9629714 48.7839248,38.8387413 C40.060586,39.5026563 40.1026059,49.9504934 48.7839248,50.1975707 L48.7839248,58.618366 C46.9031125,58.1174884 45.2340806,56.8199127 44.4962105,54.9609507 L44.4962105,54.9609507 Z M55.4432444,54.1911455 C55.8936982,56.6770449 53.5069658,58.6066004 51.2194004,58.8032537 L51.2194004,50.4614559 C53.1254247,50.8951016 55.065065,52.1573805 55.4432444,54.1911455 Z M44.5617616,44.8644003 C44.1113079,42.3785008 46.4980403,40.4489453 48.7856056,40.252292 L48.7856056,48.5940899 C46.8795813,48.1604441 44.939941,46.8981652 44.5617616,44.8644003 L44.5617616,44.8644003 Z" id="Shape" fill="#262626"></path>
            <path d="M10.4382113,49.032778 L9.18433637,49.032778 C8.86498485,44.899697 3.19733577,44.9366746 0.946747955,47.4797212 C-3.23171456,53.2969612 7.69178822,55.7425215 9.08853092,50.0311717 L20.2725573,50.0311717 C20.2927269,53.5440384 20.9616843,57.050182 22.2558983,60.3663954 C14.4586788,61.2958764 8.57252609,56.5661123 10.108775,67.7266075 C4.67811835,68.9989712 6.68162893,76.7171932 12.0383305,75.1607747 C16.490763,74.7035978 17.4084784,68.0862982 12.5812281,67.4963383 L12.5812281,62.2303998 L23.0610003,62.2303998 C25.8712937,68.3266522 31.1036162,73.2278576 37.0200233,75.9070488 L37.0200233,87.6675887 L27.6714278,87.6675887 C27.3436723,83.1395203 20.4238291,83.0571613 18.8623682,86.8456788 C16.5042094,92.8494874 26.6209294,94.2058909 27.6226847,88.7164064 C41.3480768,88.8491894 39.5933243,90.5753684 39.4554989,76.8919961 C42.433872,77.9525793 45.5836865,78.5492624 48.7856056,78.6400255 L48.7856056,91.1989442 C45.7668934,91.8510937 44.1247543,95.8850076 46.7501599,97.9826428 C51.8849962,102.142617 58.7073531,92.6561956 51.2210812,90.9821214 L51.2210812,78.6148136 C54.3742572,78.4719458 57.60475,77.7929036 60.542784,76.6415573 C60.5226144,90.296356 58.1711787,89.3803214 72.3722366,88.9886956 C73.1672538,94.121851 82.0973308,92.3032282 81.4435006,87.4003419 C80.7375656,82.968079 73.6933434,83.6219092 72.4949348,87.391938 L62.9967483,87.391938 L62.9967483,75.5792933 C68.8862626,72.701768 73.6378771,67.9921735 76.5658263,62.2505693 L87.423778,62.2505693 L87.423778,67.8913257 C83.6873652,68.5249863 82.7797345,73.9707701 86.7043966,75.0565653 C91.913188,76.8819114 96.4715108,68.7552556 89.8995926,67.5988669 C91.3719712,56.1761673 85.5900279,61.4622753 77.4516066,60.3428642 C78.7693518,57.2283465 79.5626882,53.8600284 79.7341295,50.3421192 L90.867732,50.3421192 C91.9972279,56.5156884 102.599698,52.9137394 99.4011408,47.3217262 C97.4362885,44.1517422 91.9283152,45.2930036 90.9568143,48.7201497 L79.7711071,48.7201497 C79.6753016,45.1585398 78.9256659,41.7061818 77.6180055,38.5025818 C85.0706615,37.4823378 91.4341607,42.3785008 89.8827847,31.5608883 C95.2764638,30.2448239 93.4208634,22.3366717 88.0002915,23.6745865 C83.4470111,24.1721026 82.618378,30.9255468 87.4389051,31.7222448 L87.4389051,37.0302033 L76.9608137,37.0302033 C74.0916924,30.9692476 69.1938486,25.9604711 62.9849827,23.081265 L62.9849827,11.3560218 L72.3268551,11.3560218 C72.6193138,16.0202348 79.7257255,16.3816063 81.2048273,12.2418021 C83.3915448,6.12706091 73.2664208,4.41264749 72.3587902,10.3929249 C58.7897122,10.2971194 60.3730234,8.44992302 60.551188,22.0895945 C57.5677724,20.9685026 54.3675341,20.4726673 51.2210812,20.3987123 L51.2210812,7.70196814 C57.8215729,5.92032282 53.2346766,-2.42147504 47.8107431,0.975416653 C44.2945148,2.38056334 44.9214523,7.70869133 48.7856056,7.96921494 L48.7856056,20.4407322 C45.595452,20.6289815 42.4439568,21.3097045 39.4588605,22.4408812 C39.4823916,8.78608251 41.8203809,9.75422186 27.6462158,10.1324013 C26.9016225,4.84629323 17.7866578,6.63298095 18.5699095,11.7073085 C19.3279491,16.1815914 26.4343608,15.5395268 27.5470488,11.6115031 L37.0166617,11.6115031 L37.0166617,23.4930604 C31.1271474,26.268057 26.0107999,31.1390081 23.2072297,37.0621384 L12.5644201,37.0621384 L12.5644201,31.5844194 C16.4437007,30.7255319 17.1916555,25.0461173 13.1913575,23.7687112 C7.74221214,21.603844 3.74695655,30.4330732 10.1272638,31.728968 C10.5894831,33.6786931 9.10533889,37.472253 10.8735378,38.4656043 L22.5769306,38.4656043 C21.16338,41.8238377 20.4053403,45.4157019 20.3028117,49.0310972 L10.4382113,49.0310972 L10.4382113,49.032778 Z M6.21436724,51.6245677 C5.99754436,51.9456 5.72861677,52.2128468 5.39918046,52.4162233 C2.60065267,52.3792458 1.41737125,48.3268431 3.70325581,46.7317663 C3.63266232,46.783871 3.79906127,46.6662152 3.84948519,46.642684 C3.88814353,46.642684 3.92175948,46.6460456 3.91839789,46.6460456 C6.25974877,46.7603398 7.55732442,49.7656057 6.21436724,51.6245677 L6.21436724,51.6245677 Z M13.4854971,71.7084167 C13.4737315,72.6362169 13.0249586,73.6161219 12.2148142,74.1018723 C12.2383454,74.080022 12.0786696,74.1775082 12.0366497,74.1758274 C11.9559714,74.1926354 11.5677072,74.1405307 11.5794728,74.1455731 C9.13559325,73.6934385 8.33049126,70.1032551 10.3961914,68.7014701 C10.7121813,68.9619937 11.2281861,69.0040136 11.6920862,68.867869 C12.7829238,69.382193 13.4686891,70.4898386 13.4854971,71.7084167 L13.4854971,71.7084167 Z M25.1670395,89.0592891 C25.0594685,90.2274433 24.2694937,90.528306 24.2694937,90.528306 C20.8188165,90.9972485 20.1649863,87.2188158 21.9449508,85.8523275 C22.9752796,84.7782979 25.8813785,86.8977835 25.1670395,89.0592891 L25.1670395,89.0592891 Z M76.1271381,85.3648962 C78.8550724,85.3211955 80.0097803,89.3214935 77.9676114,90.8207648 C77.8197012,90.9585902 77.5743048,91.0644804 77.3961402,91.0174181 C75.0514278,90.8056376 73.8311688,87.474297 75.5926446,85.7699684 L76.1271381,85.3632154 L76.1271381,85.3648962 Z M90.3937471,73.2530696 C90.2525601,73.5909099 89.6676426,74.1590194 89.531498,74.2178474 C89.4978821,74.2396977 89.3029095,74.2733137 89.2844208,74.2733137 C86.618676,74.046406 85.5345616,70.2612501 87.6540472,68.6493653 C87.9801219,68.9888864 88.5986554,69.0510759 89.1129794,68.8645074 C90.6929291,69.6359934 91.2559962,71.7521175 90.3920663,73.2530696 L90.3937471,73.2530696 Z M93.365397,48.4814764 C93.4578409,48.1100202 93.6410478,47.8192422 93.8696363,47.5049331 C94.1083095,47.2544943 94.3805987,47.0040555 94.7251622,46.9233772 C94.7201198,46.9368236 95.3789924,46.9385044 95.3756308,46.9385044 C97.7909368,47.3805541 98.3506423,51.4363184 95.9403788,52.1624229 C94.7386086,52.4532009 92.6006342,50.2933761 93.3637162,48.4797956 L93.365397,48.4814764 Z M86.5195089,27.5471439 C86.4959778,26.3369697 87.3111645,24.832656 88.6591641,25.1099876 C91.0761509,25.5268253 91.6123253,29.6061208 89.2104657,30.2868438 C89.2155081,30.2818014 89.2188697,30.2818014 89.2239121,30.2784398 C87.7649799,30.4078612 86.5396785,28.9606946 86.5195089,27.5471439 L86.5195089,27.5471439 Z M74.8648592,10.0080223 C75.0934477,9.1961971 75.7825747,8.43983823 76.6666741,8.45160382 C76.6733973,8.44319983 76.7607988,8.44824222 76.7960955,8.44656142 C76.7809684,8.44656142 76.7792876,8.44656142 76.767522,8.44656142 C77.2683996,8.48521976 77.7322997,8.68187307 78.1104792,9.01299017 C78.1188832,9.01467097 78.3037709,9.1928355 78.3071325,9.20123949 C79.7845535,10.6063862 78.7643094,13.8284749 76.5725495,13.221707 C75.2379963,12.840166 74.4866798,11.3089595 74.8648592,10.0046607 L74.8648592,10.0080223 Z M24.3938727,13.2452382 C24.3568952,13.35449 23.918207,13.5898017 23.8761871,13.6082905 C21.1280832,14.1276569 18.2068572,8.09191316 23.2021873,8.22637695 C25.3519273,8.28520487 25.9368448,11.7459669 24.3938727,13.2452382 Z M9.55747341,26.1184661 C9.67344844,25.9083664 11.2029741,24.8797183 12.9039412,26.1638476 C15.3343743,27.9975976 13.2283351,29.9708539 11.9559714,30.2313775 C10.1054134,30.5725794 8.45991266,27.8429643 9.55579261,26.1201469 L9.55747341,26.1184661 Z M51.9202929,94.0361304 C52.5203376,95.2849629 52.0245024,97.9675157 49.8982936,97.5456355 C45.3433324,96.6430473 49.1721891,88.8945709 51.9202929,94.0361304 Z M48.1116059,5.11354003 C47.5468579,3.80083721 47.9502493,2.0091071 49.2411018,1.29308738 C49.2192514,1.30317216 49.2881641,1.28636419 49.2797601,1.28972578 C52.0665223,1.36368087 53.2010606,5.46314591 50.8630713,6.95737486 C50.8462633,6.97922523 50.7101188,6.9993948 50.7639043,7.01116038 C50.7639043,7.01116038 50.7639043,7.01116038 50.7622235,7.01116038 C49.6596203,7.00275639 48.5183588,6.16908085 48.1099251,5.11354003 L48.1116059,5.11354003 Z M38.2201127,24.2309305 C71.6326857,8.82810245 93.8713171,61.0353528 60.6049735,75.4750839 C28.1353279,88.5920274 6.89845181,39.1765816 38.2201127,24.2309305 Z" id="Shape" fill="#262626"></path>
        </g>
    </g>
</svg>