<?xml version="1.0" encoding="UTF-8"?>
<svg width="60px" height="59px" viewBox="0 0 60 59" version="1.1" xmlns="http://www.w3.org/2000/svg" xmlns:xlink="http://www.w3.org/1999/xlink">
    <title>role-skills-comm</title>
    <g id="Page-1" stroke="none" stroke-width="1" fill="none" fill-rule="evenodd">
        <g id="role-skills-comm" transform="translate(-0.000000, 0.000000)" fill-rule="nonzero">
            <path d="M45.5427509,47.0531839 C45.3165964,47.0531839 45.1186421,46.9012719 45.0601082,46.6828237 C45.0015744,46.4643754 45.0970553,46.2338465 45.292905,46.1207593 L58.493759,38.5004617 C58.7215308,38.3697183 59.0116416,38.4376087 59.1577468,38.6558451 C59.303852,38.8740815 59.2560833,39.168176 59.0484167,39.3289505 L55.132833,42.3450892 L57.5193603,40.9679391 C57.7454319,40.8352452 58.0356139,40.8998066 58.1841,41.1158342 C58.3325861,41.3318618 58.2888942,41.6259106 58.0840118,41.7894321 L56.0592613,43.4284207 C56.2194771,43.5136345 56.320902,43.6790098 56.3242235,43.860447 C56.327545,44.0418842 56.2322409,44.210861 56.0752514,44.3018817 L52.2506115,46.5095194 C52.0249922,46.63888 51.7378686,46.5735504 51.5904298,46.3593075 C51.442991,46.1450645 51.4845386,45.8535483 51.68596,45.6890257 L52.5544241,44.9894574 L49.1355338,46.9532456 C48.907762,47.083989 48.6176512,47.0160986 48.471546,46.7978622 C48.3254408,46.5796258 48.3732095,46.2855314 48.5808761,46.1247569 L52.4964598,43.1076187 L45.7925967,46.9782302 C45.7174198,47.0248947 45.6312001,47.0507606 45.5427509,47.0531839 Z" id="Path" fill="#F9F9F9"></path>
            <path d="M42.184823,58.9828312 C41.9933342,58.9828312 41.8187518,58.873171 41.7353356,58.700806 C41.6519194,58.5284409 41.6743416,58.3235643 41.7930648,58.1733219 L43.0332994,56.6002926 L40.0691286,58.3102374 C39.8498789,58.4444091 39.5646055,58.3903567 39.4096353,58.1852794 C39.254665,57.9802021 39.2805597,57.6910101 39.4694986,57.516727 L41.6861307,55.3960357 L38.776926,57.0749996 C38.5505587,57.2040881 38.2629945,57.1375466 38.1163419,56.9221423 C37.9696892,56.7067381 38.0131906,56.4147988 38.2162719,56.2515078 L39.397543,55.3150856 L37.8874748,56.1865479 C37.6644184,56.3147162 37.3805015,56.2525847 37.2313652,56.0429668 C37.0822289,55.8333489 37.1166158,55.5447546 37.3108307,55.376048 L40.7277222,52.4198722 L36.5393068,54.8383798 C36.3152748,54.9663961 36.0306141,54.9027857 35.8823839,54.6915836 C35.7341537,54.4803815 35.7711057,54.1910503 35.9676595,54.0238824 L40.3069818,50.388126 L35.1021936,53.3972691 C34.8673676,53.526404 34.5724818,53.4473002 34.4338136,53.2179747 C34.2951454,52.9886492 34.3620742,52.6907639 34.5855124,52.5427964 L38.5830456,50.0033634 L34.2217369,52.5208099 C33.9871104,52.6543658 33.6888258,52.5774066 33.5481017,52.3470081 C33.4073777,52.1166095 33.4751065,51.8160946 33.7010582,51.668336 L42.2377903,46.1437451 L33.1124215,51.4114945 C32.877795,51.5450504 32.5795104,51.4680911 32.4387863,51.2376926 C32.2980622,51.0072941 32.3657911,50.7067791 32.5917428,50.5590205 L41.3063651,44.9514809 L32.0121005,50.3161704 C31.776834,50.4540436 31.4744745,50.3778403 31.332656,50.1449308 C31.1908376,49.9120213 31.2619347,49.6084204 31.4924211,49.4626971 L40.8276605,43.473393 L30.8997868,49.2038568 C30.6654505,49.3308513 30.3726893,49.2515674 30.2344608,49.0236771 C30.0962322,48.7957868 30.1612002,48.4995197 30.3821063,48.3503835 L38.716963,43.053652 L29.875419,48.1684957 C29.6414191,48.3015256 29.3440948,48.2252989 29.2029629,47.9960943 C29.0618311,47.7668898 29.1276134,47.4670816 29.3517421,47.3180205 L43.5929541,38.0137621 L28.0985155,46.9532456 C27.8652023,47.0784734 27.5747098,46.9999535 27.4362564,46.7742375 C27.2978031,46.5485214 27.3594674,46.2539899 27.5768374,46.1027704 L43.0812698,36.0089992 L24.1259669,46.9532456 C23.8913404,47.0868015 23.5930558,47.0098423 23.4523317,46.7794437 C23.3116076,46.5490452 23.3793365,46.2485302 23.6052882,46.1007717 L41.1524601,34.8227312 L20.1374282,46.9532456 C19.9024866,47.0805141 19.6089959,47.0004364 19.4712484,46.7714813 C19.3335009,46.5425263 19.4002442,46.2457191 19.6227458,46.0977735 L34.2567153,36.9594127 L16.9453979,46.9532456 C16.7091612,47.0817161 16.4136192,47.0001934 16.2766538,46.7687784 C16.1396884,46.5373634 16.2104238,46.2390556 16.4367118,46.093776 L20.0864596,43.8781432 L14.7587473,46.9532456 C14.52338,47.0851242 14.2258264,47.0063517 14.0865416,46.7752902 C13.9472569,46.5442286 14.0165426,46.2443241 14.2430655,46.0977735 L35.4519778,32.8059757 L10.967087,46.941253 C10.7294751,47.0817228 10.4229793,47.0029735 10.2825095,46.7653615 C10.1420397,46.5277496 10.220789,46.2212538 10.458401,46.080784 L17.9108022,41.5685684 L9.04427359,46.6874097 C8.80638566,46.8276035 8.49988985,46.7484067 8.35969604,46.5105188 C8.21950222,46.2726309 8.29869895,45.9661351 8.53658688,45.8259413 L11.6576609,43.9481001 L7.66712341,46.2536773 C7.43155093,46.3814157 7.13715346,46.3005867 6.9998332,46.070468 C6.86251293,45.8403493 6.93116372,45.5428762 7.15543917,45.3962064 L27.3479786,32.9948591 L5.9331934,45.3542323 C5.69585741,45.4952541 5.38913789,45.4171759 5.24811616,45.17984 C5.10709443,44.942504 5.18517255,44.6357844 5.42250853,44.4947627 L24.0789959,33.1067901 L4.61900437,44.3418571 C4.38343188,44.4695954 4.08903442,44.3887665 3.95171415,44.1586478 C3.81439388,43.928529 3.88304468,43.6310559 4.10732012,43.4843862 L29.5526182,27.7880722 L3.33379745,42.9247316 C3.09744993,43.0513425 2.80330213,42.9688539 2.66725235,42.7378108 C2.53120257,42.5067677 2.60174815,42.2095294 2.82711012,42.0642625 L4.23224303,41.2227818 L2.76814651,42.0682601 C2.53053455,42.2087298 2.22403876,42.1299805 2.08356898,41.8923686 C1.94309919,41.6547567 2.02184847,41.3482609 2.25946041,41.2077911 L18.4954414,31.3628662 L2.13353811,40.8100365 C1.89796563,40.9377749 1.60356816,40.8569459 1.4662479,40.6268272 C1.32892763,40.3967085 1.39757842,40.0992354 1.62185387,39.9525656 L27.1451038,24.2492559 L1.58487669,39.0061497 C1.34873791,39.136705 1.05160166,39.0562104 0.913651578,38.8243139 C0.775701494,38.5924174 0.846769047,38.2928865 1.07419182,38.1476794 L21.6614877,25.5874302 L1.38500003,37.2912079 C1.14886125,37.4217633 0.851725004,37.3412687 0.71377492,37.1093722 C0.575824835,36.8774756 0.646892388,36.5779448 0.874315164,36.4327377 L22.1611793,23.4067758 L1.37300743,35.411368 C1.1351195,35.5515618 0.828623686,35.472365 0.688429871,35.2344771 C0.548236056,34.9965892 0.627432785,34.6900934 0.865320714,34.5498996 L4.66297723,32.2683075 L1.36501236,34.1671358 C1.12994875,34.2926863 0.837722525,34.2116777 0.700849161,33.9830218 C0.563975797,33.7543659 0.630625535,33.4585342 0.852328731,33.3106643 L25.5221053,18.0340912 L1.37300743,31.9764876 C1.13677075,32.1049581 0.84122871,32.0234354 0.704263301,31.7920204 C0.567297893,31.5606053 0.638033283,31.2622975 0.864321331,31.1170179 L11.986458,24.3671832 L1.37300743,30.4974003 C1.1351195,30.6375941 0.828623686,30.5583974 0.688429871,30.3205095 C0.548236056,30.0826215 0.627432785,29.7761257 0.865320714,29.6359319 L1.44596241,29.2871471 L1.37300743,29.3291212 C1.13429158,29.469591 0.826900891,29.3899468 0.686431105,29.151231 C0.545961318,28.9125152 0.625605485,28.6051245 0.864321331,28.4646547 L6.99553784,24.7509464 L1.37300743,28.0009408 C1.13539547,28.1414106 0.828899658,28.0626613 0.688429871,27.8250494 C0.547960084,27.5874374 0.626709373,27.2809416 0.864321331,27.1404718 L5.8732304,24.1023466 L1.37600558,26.7007432 C1.13894557,26.8423168 0.832002329,26.7649098 0.690428659,26.5278498 C0.548854989,26.2907898 0.626261949,25.9838466 0.863321948,25.8422729 L14.8976615,17.1476383 L1.37300743,24.9558199 C1.13616482,25.0907838 0.834855569,25.0110209 0.695809739,24.7765514 C0.556763908,24.542082 0.631296026,24.2394364 0.863321948,24.0963503 L7.11046692,20.2697117 L1.37300743,23.5816679 C1.13754401,23.7113526 0.841678204,23.6315171 0.703413942,23.400987 C0.56514968,23.1704569 0.634040102,22.8718529 0.859324414,22.7251964 L11.6596597,15.9983475 L1.37300743,21.9376824 C1.13616482,22.0726462 0.834855569,21.9928833 0.695809739,21.7584139 C0.556763908,21.5239444 0.631296026,21.2212989 0.863321948,21.0782128 L1.48094082,20.7004459 L1.37300743,20.7624076 C1.1384488,20.8988102 0.837900252,20.8231026 0.695951095,20.5918585 C0.554001938,20.3606144 0.622531458,20.0583483 0.850329965,19.9109331 L15.8700615,10.0969891 L1.37300743,18.4708217 C1.13760325,18.6148792 0.829988837,18.540828 0.685931413,18.3054238 C0.541873989,18.0700196 0.615925167,17.7624052 0.851329348,17.6183478 L11.8185616,10.4867486 L1.37300743,16.5140292 C1.1384493,16.6544957 0.834552706,16.5803767 0.691004478,16.3476918 C0.54745625,16.115007 0.617560132,15.8101591 0.848331198,15.6635541 L10.1695792,9.52334311 L1.37500619,14.602209 C1.14274284,14.7349769 0.847116174,14.6612577 0.704386742,14.4349794 C0.561657311,14.208701 0.62246848,13.9101517 0.842334898,13.7577301 L10.1745761,7.33069616 L1.37300743,12.4115608 C1.13838094,12.5451167 0.840096331,12.4681575 0.699372248,12.2377589 C0.558648166,12.0073604 0.626377058,11.7068455 0.852328731,11.5590869 L1.93066331,10.8595186 L1.37300743,11.18132 C1.14273116,11.3134749 0.849311676,11.2424715 0.704933304,11.0196556 C0.560554932,10.7968396 0.615634811,10.5000186 0.830342299,10.3438368 L6.90259519,5.96254043 L1.57588224,9.03764283 C1.34796864,9.16660483 1.05915406,9.09773805 0.913955414,8.8798088 C0.768756769,8.66187954 0.816432962,8.36882072 1.02322327,8.20815469 L5.31257637,4.93417502 L2.3973753,6.61813587 C2.17336639,6.75016177 1.88554287,6.68832925 1.73552152,6.47595121 C1.58550018,6.26357317 1.62342491,5.97163593 1.82272991,5.80463787 L4.22124982,3.75490274 C4.08207354,3.72644124 3.96190179,3.63940776 3.89145333,3.51605013 C3.75330585,3.27731905 3.83471701,2.97180355 4.07334109,2.83347134 L7.89798095,0.624834259 C8.12198987,0.492808358 8.40981339,0.554640882 8.55983473,0.76701892 C8.70985607,0.979396957 8.67193135,1.2713342 8.47262635,1.43833226 L6.61077527,3.03034985 L11.5497275,0.182107459 C11.7778288,0.0503429658 12.0690446,0.118284802 12.2152876,0.337385357 C12.3615306,0.556485913 12.312568,0.851486566 12.1033859,1.01159559 L7.81403276,4.27957896 L14.9206474,0.182107459 C15.1509236,0.0499525742 15.4443431,0.120955914 15.5887215,0.343771892 C15.7330999,0.56658787 15.67802,0.863408814 15.4633125,1.01959066 L9.38806145,5.40088702 L18.4334796,0.182107459 C18.6681061,0.0485515968 18.9663907,0.125510803 19.1071148,0.355909349 C19.2478389,0.586307894 19.18011,0.886822826 18.9541583,1.03458141 L17.8798213,1.73414971 L20.5601673,0.182107459 C20.7920073,0.0512001431 21.0857714,0.125063198 21.228125,0.350056513 C21.3704786,0.575049829 21.3114199,0.872144342 21.093838,1.02558696 L11.7605974,7.45062216 L24.3548257,0.182107459 C24.5887382,0.0464843524 24.8880974,0.121524157 25.0303792,0.351447172 C25.1726609,0.581370186 25.1062453,0.882760088 24.8805013,1.03158326 L15.5592533,7.16979545 L27.6667819,0.182107459 C27.9008852,0.0513048905 28.1964985,0.128613378 28.3365947,0.357276278 C28.476691,0.585939177 28.4113137,0.884417954 28.18846,1.03358203 L17.2212277,8.16218306 L31.048695,0.182107459 C31.2823242,0.0534412389 31.5758202,0.130941024 31.7154715,0.358174708 C31.8551227,0.585408393 31.7916944,0.882263544 31.5713724,1.03258264 L16.5506415,10.8455272 L35.0252411,0.182107459 C35.2613799,0.0515521043 35.5585161,0.132046706 35.6964662,0.363943227 C35.8344163,0.595839749 35.7633487,0.895370604 35.5359259,1.04057771 L34.9243034,1.41534644 L37.0599855,0.182107459 C37.2960133,0.0460096338 37.5975617,0.124075163 37.737899,0.35760722 C37.8782362,0.591139276 37.805628,0.894048055 37.5746679,1.03857894 L26.7683363,7.76542789 L39.9092272,0.182107459 C40.145366,0.0515521043 40.4425023,0.132046706 40.5804523,0.363943227 C40.7184024,0.595839749 40.6473349,0.895370604 40.4199121,1.04057771 L34.1727671,4.86621696 L42.2887589,0.182107459 C42.5248207,0.0491185022 42.8238616,0.128489667 42.9629028,0.361038125 C43.101944,0.593586584 43.0303225,0.894577616 42.8014425,1.03957833 L28.7760973,9.72521853 L45.3098946,0.182107459 C45.5475065,0.0413617199 45.854226,0.119887294 45.9949718,0.357499242 C46.1357175,0.59511119 46.057192,0.901830709 45.81958,1.04257648 L40.7916827,4.08869676 L47.5645033,0.182107459 C47.8021152,0.0416376961 48.108611,0.120386991 48.2490808,0.357998937 C48.3895506,0.595610883 48.3108013,0.902106679 48.0731894,1.04257648 L41.944971,4.7502885 L49.7761385,0.229078474 C49.930025,0.138388978 50.1206043,0.136685902 50.2760869,0.224610779 C50.4315696,0.312535655 50.5283341,0.476730605 50.5299303,0.655344978 C50.5315265,0.833959352 50.4377117,0.999857377 50.2838252,1.09054687 L49.6911909,1.44732671 L51.326182,0.502909497 C51.5624187,0.374438987 51.8579607,0.455961667 51.9949261,0.687376698 C52.1318915,0.91879173 52.0611561,1.21709954 51.8348681,1.36237913 L40.7197271,8.1062176 L52.9122033,1.06556229 C53.1482651,0.932573334 53.447306,1.0119445 53.5863472,1.24449296 C53.7253884,1.47704142 53.6537669,1.77803245 53.4248869,1.92303316 L28.7671029,17.1996062 L54.7900445,2.17487775 C55.0279324,2.03468393 55.3344282,2.11388066 55.474622,2.35176859 C55.6148159,2.58965652 55.5356191,2.89615233 55.2977312,3.03634615 L51.5000747,5.31793821 L55.659508,2.913422 C55.8963506,2.77845816 56.1976598,2.85822107 56.3367056,3.09269051 C56.4757515,3.32715995 56.4012194,3.62980553 56.1691934,3.77289163 L34.8723354,16.802851 L56.7758191,4.15865359 C57.0119579,4.02809823 57.3090941,4.10859283 57.4470442,4.34048935 C57.5849943,4.57238588 57.5139267,4.87191673 57.286504,5.01712384 L36.6992081,17.5793718 L57.6262943,5.49682782 C57.8633543,5.35553014 58.1700738,5.43316084 58.3113715,5.67022084 C58.4526692,5.90728084 58.3750385,6.21400035 58.1379785,6.35529807 L32.6247224,22.0526115 L58.3318589,7.20977078 C58.5694708,7.069301 58.8759667,7.14805028 59.0164364,7.38566224 C59.1569062,7.6232742 59.0781569,7.92977001 58.840545,8.0702398 L42.5855757,17.9261578 L58.6576578,8.64488519 C58.8946056,8.51529389 59.1916448,8.59742363 59.3283635,8.8303317 C59.4650821,9.06323976 59.3919998,9.36263339 59.1633458,9.50635359 L57.7732036,10.3388399 L58.7585955,9.7691914 C58.9956556,9.62761773 59.3025988,9.70502471 59.4441725,9.94208472 C59.5857461,10.1791447 59.5083392,10.486088 59.2712792,10.6276616 L33.8329768,26.3219769 L58.7775838,11.9198642 C59.0144264,11.7849004 59.3157357,11.8646633 59.4547815,12.0991328 C59.5938274,12.3336022 59.5192952,12.6362478 59.2872693,12.7793339 L40.6427746,24.1673065 L58.7775838,13.6937696 C59.0137226,13.5632142 59.3108589,13.6437088 59.4488089,13.8756054 C59.586759,14.1075019 59.5156915,14.4070327 59.2882687,14.5522398 L39.1007262,26.9525878 L58.7775838,15.5895997 C59.0144562,15.4576496 59.3133375,15.5386825 59.4511213,15.7722098 C59.5889051,16.0057371 59.5153091,16.306536 59.2852705,16.4500687 L56.1312169,18.348897 L58.7775838,16.8218393 C59.0138205,16.6933688 59.3093626,16.7748915 59.446328,17.0063065 C59.5832934,17.2377215 59.512558,17.5360293 59.2862699,17.6813089 L51.8458613,22.1875282 L58.7775838,18.189995 C59.0136117,18.0538972 59.3151601,18.1319627 59.4554973,18.3654948 C59.5958346,18.5990268 59.5232264,18.9019356 59.2922662,19.0464665 L38.0793564,32.3382643 L58.7775838,20.3876389 C59.0151958,20.2471691 59.3216916,20.3259184 59.4621614,20.5635304 C59.6026311,20.8011423 59.5238819,21.1076381 59.2862699,21.2481079 L55.646516,23.4587438 L58.7775838,21.6508594 C59.0130472,21.5211747 59.3089131,21.6010102 59.4471773,21.8315403 C59.5854416,22.0620704 59.5165512,22.3606744 59.2912668,22.5073309 L44.6572973,31.6456917 L58.7775838,23.4927228 C59.0128502,23.3548495 59.3152098,23.4310529 59.4570282,23.6639624 C59.5988467,23.8968719 59.5277496,24.2004728 59.2972631,24.3461961 L41.75209,35.625236 L58.7775838,25.7953019 C59.012988,25.6512445 59.3206024,25.7252957 59.4646598,25.9606998 C59.6087172,26.196104 59.5346661,26.5037184 59.2992619,26.6477758 L43.7948295,36.7415471 L58.7775838,28.0898859 C59.0112131,27.9612197 59.3047091,28.0387195 59.4443603,28.2659532 C59.5840116,28.4931869 59.5205833,28.790042 59.3002613,28.9403611 L45.0590494,38.2466184 L58.7775838,30.3255064 C59.0124098,30.1963715 59.3072957,30.2754752 59.4459639,30.5048007 C59.584632,30.7341263 59.5177033,31.0320115 59.294265,31.1799791 L50.9624065,36.4677161 L58.7775838,31.9624962 C59.0128502,31.824623 59.3152098,31.9008263 59.4570282,32.1337358 C59.5988467,32.3666453 59.5277496,32.6702462 59.2972631,32.8159695 L49.9630232,38.8002767 L58.7765844,33.7124164 C59.0118509,33.5745431 59.3142104,33.6507465 59.4560289,33.883656 C59.5978473,34.1165655 59.5267502,34.4201663 59.2962638,34.5658897 L50.5826408,40.17243 L58.7775838,35.4423488 C59.0113359,35.3154724 59.3035084,35.3939287 59.4422607,35.6208328 C59.5810131,35.8477368 59.5177157,36.1435638 59.2982625,36.2938234 L50.7625298,41.8174149 L58.707627,37.2302455 C58.9419634,37.1032511 59.2347245,37.1825349 59.3729531,37.4104253 C59.5111816,37.6383156 59.4462137,37.9345827 59.2253075,38.0837189 L45.4657984,46.8233258 C45.5949134,47.0342668 45.5502952,47.3079247 45.3608631,47.4669286 L41.0205415,51.1036844 L44.7902153,48.9270276 C45.0132717,48.7988593 45.2971886,48.8609908 45.4463249,49.0706087 C45.5954612,49.2802266 45.5610743,49.5688209 45.3668594,49.7375275 L41.9479692,52.6917045 L44.7862177,51.0527159 C45.012425,50.9259943 45.2979775,50.9933433 45.4437184,51.2077906 C45.5894593,51.4222379 45.5469648,51.7125315 45.3458724,51.8762077 L44.1616032,52.8166274 L44.7862177,52.45585 C45.0050453,52.3311041 45.2825109,52.3887344 45.4335619,52.5903049 C45.5846128,52.7918754 45.5620197,53.0743607 45.3808508,53.2493604 L43.1672168,55.3700517 L44.7882165,54.434629 C44.9955533,54.3161938 45.25771,54.3609974 45.4139454,54.5415686 C45.5701808,54.7221397 45.5768319,54.9880142 45.4298206,55.1761714 L44.1815908,56.7601939 C44.4237167,56.6637901 44.699275,56.7696584 44.8145677,57.003381 C44.9298603,57.2371036 44.8461673,57.5201865 44.6223189,57.6536425 L42.4366676,58.9148643 C42.3604077,58.9598703 42.2733715,58.9828312 42.184823,58.9828312 Z" id="Path" fill="#D4E8FA"></path>
            <path d="M12.4471737,29.9987423 C12.2360705,29.9984579 12.0478987,29.865572 11.9770532,29.6667114 C11.9062077,29.4678507 11.9679744,29.2459225 12.1313686,29.1122551 L13.9452493,27.6281709 L10.8471611,29.4180663 C10.6203204,29.5506422 10.329557,29.4849015 10.1818149,29.2676337 C10.0340728,29.0503659 10.0798244,28.7557951 10.286507,28.5935751 L13.305644,26.1950552 L9.38806145,28.4646547 C9.1607567,28.5962842 8.87034535,28.5294596 8.7234312,28.3117213 C8.57651704,28.0939829 8.62325968,27.7996712 8.83040557,27.6381647 L12.3842126,24.869873 L8.31472379,27.2144262 C8.08444752,27.3465811 7.79102804,27.2755777 7.64664966,27.0527617 C7.50227129,26.8299458 7.55735117,26.5331248 7.77205866,26.376943 L9.57094859,25.0717484 L7.76306421,26.1171033 C7.53146447,26.2523853 7.23437033,26.1806939 7.08995529,25.9546763 C6.94554026,25.7286587 7.00532054,25.4289407 7.225396,25.2756226 L7.61215733,25.0027909 L7.47224367,25.0847404 C7.24680947,25.2262537 6.95001613,25.1662178 6.79730598,24.9482127 C6.64459583,24.7302076 6.68957673,24.4307626 6.89959704,24.2672448 L10.5473461,21.1781511 L7.46524799,22.9610509 C7.25049108,23.0853134 6.97708271,23.0331749 6.82312758,22.8385997 C6.66917245,22.6440245 6.68130707,22.3659538 6.85162665,22.1855294 L9.00030073,19.902938 C8.76047457,20.0304986 8.46267418,19.9431076 8.32980932,19.7061788 C8.19694446,19.4692501 8.27768825,19.1695791 8.5116023,19.0314758 L11.4447923,17.3385205 C11.659328,17.214301 11.9325015,17.2661518 12.0866003,17.4603414 C12.2406992,17.6545309 12.2291274,17.9323409 12.059413,18.1130425 L9.90973952,20.395634 L14.8696788,17.5314014 C15.093842,17.401147 15.3803907,17.4639669 15.5295024,17.6760542 C15.6786141,17.8881416 15.6407548,18.1790422 15.4423254,18.3458988 L11.7955758,21.4339932 L16.7055459,18.5987428 C16.9371457,18.4634608 17.2342398,18.5351522 17.3786548,18.7611698 C17.5230699,18.9871874 17.4632896,19.2869054 17.2432141,19.4402235 L16.854454,19.7150539 L17.4590809,19.3652698 C17.6893572,19.2331149 17.9827767,19.3041182 18.1271551,19.5269342 C18.2715334,19.7497502 18.2164535,20.0465711 18.0017461,20.202753 L16.2028561,21.5019513 L18.1306665,20.3886383 C18.3577977,20.2596886 18.64592,20.3274104 18.7918244,20.5440404 C18.9377287,20.7606703 18.8921886,21.05312 18.687323,21.2151283 L15.1345154,23.9874175 L18.6823261,21.9396812 C18.9085333,21.8129596 19.1940858,21.8803085 19.3398267,22.0947559 C19.4855677,22.3092032 19.4430731,22.5994967 19.2419807,22.763173 L16.2218444,25.1616929 L18.7742693,23.6876025 C18.99974,23.5564867 19.2881296,23.6208402 19.43647,23.8353712 C19.5848103,24.0499021 19.543198,24.34244 19.3409197,24.5070968 L17.527039,25.991181 L18.2885691,25.5514524 C18.4432588,25.4607661 18.6346802,25.4599172 18.7901682,25.5492278 C18.9456563,25.6385384 19.04137,25.8043146 19.0409758,25.9836265 C19.0405816,26.1629384 18.9441399,26.3282922 18.7882607,26.4169183 L12.6970195,29.9337481 C12.6210283,29.977313 12.5347608,29.9997425 12.4471737,29.9987423 L12.4471737,29.9987423 Z" id="Path" fill="#C384F8"></path>
            <path d="M30.6599349,30.0037174 C30.453829,30.00354 30.2689699,29.8768471 30.194449,29.6846849 C30.1199281,29.4925228 30.1710364,29.2743212 30.3231427,29.1352409 L32.1979857,27.4232973 L28.376344,29.6329337 C28.1521809,29.7631882 27.8656322,29.7003683 27.7165205,29.4882809 C27.5674087,29.2761936 27.605268,28.985293 27.8036974,28.8184364 L31.4184668,25.7493303 L26.5114948,28.5825819 C26.2852738,28.7134263 25.9964406,28.6478582 25.8488875,28.4321634 C25.7013343,28.2164685 25.7449049,27.9235087 25.948842,27.7600895 L29.9553696,24.5470722 L25.315233,27.2264188 C25.0879283,27.3580483 24.7975169,27.2912237 24.6506028,27.0734854 C24.5036886,26.855747 24.5504312,26.5614353 24.7575771,26.3999288 L28.5282503,23.4457518 L24.6096684,25.7063568 C24.3841977,25.8374727 24.0958081,25.7731191 23.9474678,25.5585882 C23.7991274,25.3440572 23.8407398,25.0515194 24.0430181,24.8868625 L27.8516678,21.7557946 L24.3708158,23.7675532 C24.143511,23.8991827 23.8530997,23.8323582 23.7061855,23.6146198 C23.5592714,23.3968814 23.606014,23.1025697 23.8131599,22.9410632 L25.3781941,21.7188174 L24.6676326,22.129564 C24.4474331,22.2539364 24.1690284,22.1941865 24.0192542,21.9904121 C23.86948,21.7866377 23.8955614,21.5030905 24.0799952,21.3300573 L25.5940609,19.9389158 C25.4081699,19.8757115 25.2765206,19.709502 25.2575599,19.5140775 C25.2385992,19.318653 25.3358415,19.1302357 25.5061152,19.0324751 L28.4393052,17.3395198 C28.6595047,17.2151474 28.9379094,17.2748974 29.0876836,17.4786718 C29.2374578,17.6824461 29.2113764,17.9659934 29.0269426,18.1390265 L28.0935186,18.9984961 L31.0456968,17.2935482 C31.272828,17.1645986 31.5609504,17.2323204 31.7068547,17.4489503 C31.852759,17.6655802 31.8072189,17.9580299 31.6023533,18.1200382 L30.0443147,19.3392858 L32.6097317,17.8572004 C32.8349078,17.7267898 33.1224758,17.791017 33.2707685,18.0048405 C33.4190612,18.218664 33.3784355,18.510503 33.1773814,18.6756953 L29.3667329,21.8077626 L34.1637727,19.0394708 C34.391255,18.9048246 34.6842499,18.9706458 34.8322843,19.1896519 C34.9803186,19.408658 34.9321708,19.7050703 34.7224279,19.8659608 L30.9487566,22.8211372 L35.1341739,20.4046284 C35.3607022,20.2729538 35.6504689,20.3386177 35.7981058,20.5550817 C35.9457426,20.7715457 35.9011041,21.0652869 35.6958273,21.2281202 L31.6883003,24.4411375 L35.7068205,22.1205695 C35.9309836,21.9903151 36.2175324,22.053135 36.3666441,22.2652223 C36.5157558,22.4773097 36.4778965,22.7682103 36.2794671,22.9350669 L32.6636984,26.004173 L35.689831,24.257251 C35.9099238,24.13458 36.186917,24.194967 36.3359781,24.3981167 C36.4850392,24.6012664 36.4595286,24.8836155 36.276469,25.0567576 L34.4016259,26.7687012 L34.6724588,26.6117981 C34.8272379,26.5225367 35.0178801,26.5226296 35.1725722,26.6120415 C35.3272643,26.7014535 35.422505,26.8666009 35.422418,27.0452742 C35.422331,27.2239475 35.3269296,27.3890021 35.1721504,27.4782634 L30.9167764,29.9347475 C30.8389631,29.9805115 30.7502058,30.0043413 30.6599349,30.0037174 L30.6599349,30.0037174 Z" id="Path" fill="#C384F8"></path>
            <path d="M46.0744228,29.944742 C45.8675549,29.9450726 45.6818714,29.8179005 45.6074171,29.6248954 C45.5329627,29.4318902 45.5851335,29.2129626 45.73863,29.0742785 L49.2044913,25.9352156 L43.9817142,28.950355 C43.7542318,29.0850012 43.4612369,29.0191799 43.3132026,28.8001739 C43.1651682,28.5811678 43.213316,28.2847555 43.4230589,28.123865 L46.8109683,25.4655054 L42.7334844,27.8200525 C42.5034435,27.9489945 42.2128006,27.8769743 42.0695817,27.6555398 C41.9263627,27.4341054 41.9798756,27.1394928 42.1918187,26.9825693 L43.8328061,25.7992994 L42.0579013,26.8236673 C41.8265923,26.9548991 41.5330239,26.881967 41.3900217,26.6577438 C41.2470195,26.4335206 41.3046936,26.1365775 41.5212325,25.9821866 L42.0209241,25.6324024 L41.6461554,25.8492686 C41.4172335,25.9813849 41.1250202,25.9123776 40.9793863,25.6918085 C40.8337524,25.4712394 40.8850754,25.1754074 41.0964946,25.0167823 L43.4950145,23.2178924 L41.3683269,24.4411375 C41.139889,24.5740284 40.8474744,24.5060634 40.7010616,24.2860472 C40.5546489,24.0660309 40.6048726,23.7700527 40.8156679,23.61065 L42.5386047,22.2974604 L41.4472781,22.9280712 C41.2322991,23.0523838 40.9586498,22.9999592 40.8048364,22.8049951 C40.6510229,22.6100309 40.6637247,22.3316949 40.8346562,22.1515504 L42.95135,19.9169294 C42.7068387,20.0449804 42.4048173,19.9505707 42.2767663,19.7060595 C42.1487152,19.4615482 42.2431249,19.1595268 42.4876361,19.0314758 L45.4208261,17.3385205 C45.635583,17.214258 45.9089914,17.2663965 46.0629465,17.4609717 C46.2169016,17.6555469 46.204767,17.9336176 46.0344475,18.1140419 L43.9207518,20.3446654 L48.8177299,17.5204082 C49.0456435,17.3914462 49.3344581,17.460313 49.4796567,17.6782423 C49.6248554,17.8961715 49.5771792,18.1892303 49.3703889,18.3498964 L47.6444539,19.6700817 L50.1728937,18.2099827 C50.4018156,18.0778664 50.6940289,18.1468736 50.8396628,18.3674428 C50.9852967,18.5880119 50.9339736,18.8838439 50.7225545,19.042469 L48.3240346,20.8413589 L51.2452319,19.1543999 C51.476541,19.0231681 51.7701094,19.0961002 51.9131116,19.3203234 C52.0561138,19.5445466 51.9984397,19.8414897 51.7819008,19.9958806 L51.2822091,20.3476636 L51.8818391,20.0018769 C52.112499,19.8681416 52.4075259,19.9390593 52.5522044,20.1630174 C52.696883,20.3869755 52.6402425,20.6850729 52.4235048,20.8403595 L50.7885138,22.0196318 L52.4095135,21.0832097 C52.6368182,20.9515802 52.9272296,21.0184047 53.0741437,21.2361431 C53.2210579,21.4538814 53.1743153,21.7481932 52.9671694,21.9096997 L49.5812588,24.5670598 L52.7612964,22.7271952 C52.9812798,22.606162 53.2569154,22.6671629 53.4052858,22.8697164 C53.5536563,23.0722699 53.5286814,23.353468 53.346935,23.5267018 L49.8810737,26.6667641 L52.4025178,25.2106627 C52.6248854,25.0817457 52.9087807,25.1425525 53.0588381,25.3512381 C53.2088955,25.5599238 53.1761603,25.8484068 52.9831595,26.0181644 L51.6219994,27.22442 C51.7833232,27.3091352 51.8857446,27.4749479 51.8892801,27.6571278 C51.8928155,27.8393077 51.7969045,28.0089693 51.638989,28.0998798 L48.7067984,29.7928351 C48.4848092,29.9193515 48.203138,29.8580191 48.0538488,29.6506586 C47.9045596,29.4432982 47.9357519,29.1567195 48.1261567,28.9863328 L48.6178533,28.5496023 L46.325268,29.8737851 C46.2494041,29.9192156 46.1628433,29.943701 46.0744228,29.944742 L46.0744228,29.944742 Z" id="Path" fill="#C384F8"></path>
            <path d="M0.367627834,36.592639 C0.999238076,50.8368491 18.2256079,46.3146397 27.81569,46.9862253 C36.0226256,55.1721738 47.2037259,69.3264394 45.7915973,46.9912222 C63.6435811,49.0399579 59.4771521,28.6425449 59.7829634,17.1166574 C60.1307488,10.8525229 60.021816,3.02535293 52.8502415,0.742761487 C40.0691286,-0.789293102 26.9352333,0.598850293 14.0381919,0.146129661 C-6.14935063,-1.41690581 1.83772066,24.1093423 0.367627834,36.592639 Z M1.81873238,34.1161672 C3.56265622,23.5676765 -4.2904977,1.68817808 11.892516,1.01659251 L43.5859584,1.01659251 C50.2628382,0.105154946 58.3988176,2.68056569 58.3308595,10.6596419 C56.5429628,22.5273185 65.2345993,48.5362688 45.3388767,46.1177612 C42.0579013,47.1531223 47.7353978,61.7351239 39.9991717,57.1889293 C36.0216262,53.7520502 32.7126681,49.3147883 28.6231917,46.1177612 C18.6313575,45.7010183 0.276683954,49.7585145 1.81873238,34.1161672 Z" id="Shape" fill="#262626"></path>
            <path d="M14.3549964,29.6639146 C20.7120735,28.6995098 21.7784155,19.3182988 15.3773655,17.5393965 C4.72893653,14.7421227 3.00999726,31.630701 14.3549964,29.6639146 Z M8.56956653,20.5035674 C11.2009427,15.4356947 18.5903828,18.5947453 18.3575265,23.7615569 C17.8178595,33.5465187 4.36416163,28.457659 8.56956653,20.5035674 Z" id="Shape" fill="#262626"></path>
            <path d="M31.2675599,29.9287512 C37.6706087,28.9853334 38.7929161,19.4981878 32.4997995,17.4514508 C21.8043995,14.1784705 19.8995749,31.5477521 31.2675599,29.9287512 Z M25.5330986,20.6964483 C28.0985155,15.8674283 35.4999481,18.4318458 35.3400468,23.6326365 C34.8953213,32.9948591 21.4316295,28.6395468 25.5330986,20.6964483 L25.5330986,20.6964483 Z" id="Shape" fill="#262626"></path>
            <path d="M48.346021,29.7088869 C54.7040975,28.723495 55.7464543,19.2973117 49.3504012,17.5164107 C38.669992,14.688156 37.0140138,31.6396954 48.346021,29.7088869 Z M42.5495979,20.5145606 C45.190968,15.5036527 52.5664167,18.5877496 52.3335604,23.7605575 C51.7819008,33.4615711 38.3341992,28.4566596 42.5525961,20.51556 L42.5495979,20.5145606 Z" id="Shape" fill="#262626"></path>
        </g>
    </g>
</svg>