<?xml version="1.0" encoding="UTF-8"?>
<svg width="100px" height="100px" viewBox="0 0 100 100" version="1.1" xmlns="http://www.w3.org/2000/svg" xmlns:xlink="http://www.w3.org/1999/xlink">
    <title>role-data</title>
    <g id="Page-1" stroke="none" stroke-width="1" fill="none" fill-rule="evenodd">
        <g id="role-data" fill-rule="nonzero">
            <path d="M44.4117411,92.4540846 C44.1153293,92.4540846 43.8411869,92.2973319 43.6899095,92.0423873 C43.5393999,91.7866745 43.5340246,91.4710653 43.6768552,91.2107451 L44.1806014,90.2831148 L41.2648625,91.9609892 C40.909322,92.166788 40.4562576,92.084622 40.1959375,91.7674769 C39.9348495,91.4495637 39.9432965,90.9895882 40.2143672,90.68089 L42.3767903,88.2212875 L37.1097238,91.2629627 C36.7319139,91.4779764 36.2527406,91.3689337 36.005475,91.0110896 C35.7574413,90.6540134 35.8242492,90.167161 36.1582883,89.8891789 L37.9452054,88.4232466 L34.2462025,90.5564893 C33.8699287,90.7684313 33.3953627,90.6601566 33.1480971,90.3069197 C32.9008313,89.9536832 32.9614959,89.4706702 33.2878559,89.1896168 L38.5050088,84.8064098 L30.6777438,89.3255361 C30.2960944,89.546693 29.8092422,89.4345786 29.5627442,89.0690556 C29.3154786,88.7035322 29.394573,88.209001 29.7416665,87.93793 L36.2980471,82.8321237 L27.3550149,87.9932193 C26.9733657,88.2074651 26.4918886,88.0922793 26.2484625,87.7290596 C26.0050362,87.3658402 26.0810589,86.8759163 26.4235449,86.6048454 L36.0262085,79.1745877 L23.9984981,86.1279758 C23.6099376,86.3522044 23.1146383,86.2308753 22.8727479,85.8538335 C22.6316255,85.4767916 22.7283818,84.976117 23.0939048,84.7173327 L30.8528262,79.238324 L21.5404313,84.6067543 C21.2862544,84.7657106 20.9668055,84.7764614 20.7026459,84.6359346 C20.4377184,84.4954078 20.268011,84.224337 20.2580283,83.9248538 C20.2472777,83.6253704 20.3970192,83.342781 20.6511961,83.1838247 L25.843776,79.7052108 L19.7036003,83.2514004 C19.3150399,83.4717892 18.8228122,83.3489243 18.5824577,82.9726505 C18.3428711,82.5963765 18.4396271,82.0980056 18.8028468,81.8384535 L30.3774926,73.7178484 L17.2155852,81.3155094 C16.8285606,81.5282193 16.3432441,81.4038187 16.1051931,81.0313843 C15.8671424,80.65895 15.9592911,80.1659543 16.3148316,79.9048663 L30.2500201,70.1347993 L14.8473633,79.0256141 C14.4541955,79.2490746 13.9550566,79.1208344 13.7185415,78.7361136 C13.4812587,78.3513926 13.5918371,77.8484142 13.9681111,77.5980769 L20.2442061,73.4982272 L13.2923539,77.5089999 C12.9022575,77.7316925 12.4061904,77.6080597 12.1666037,77.2287142 C11.9270171,76.8486008 12.0291485,76.3471582 12.3977434,76.0914454 L28.3448456,65.1272849 L11.3111565,74.9610879 C10.9218283,75.1722621 10.4357439,75.0447898 10.2007646,74.6700517 C9.96501743,74.2953136 10.0610058,73.8023179 10.4203856,73.5435337 L27.0493882,62.2353513 L9.35837186,72.4477319 C8.96904351,72.6612099 8.48065535,72.5345052 8.24414032,72.1574636 C8.00839316,71.7811896 8.10745317,71.2858903 8.46913671,71.0286418 L26.8666267,58.5447954 L7.69431969,69.6164628 C7.30191972,69.8399234 6.80278097,69.7116833 6.56549809,69.3269623 C6.32898287,68.9422415 6.43879347,68.439263 6.81506747,68.1889258 L22.7045767,57.7884081 L6.37275366,67.2190606 C5.97881778,67.4432891 5.47814332,67.3142809 5.2416281,66.9272563 C5.00588113,66.5409996 5.11953121,66.0364855 5.49810877,65.7884518 L20.2687791,56.287152 L5.27388025,64.9429875 C4.87994456,65.1718235 4.37543023,65.044351 4.13737949,64.6565586 C3.89932876,64.2679981 4.01374669,63.7611802 4.39616374,63.5139146 L26.4189375,49.1241256 L4.2034193,61.9535298 C3.80718005,62.1769903 3.30496948,62.0433747 3.07152608,61.6532785 C2.83808268,61.2624145 2.95864386,60.7579001 3.34259682,60.514474 L3.58141561,60.368572 C3.18210453,60.5689954 2.69525228,60.4223253 2.47486323,60.033765 C2.25370633,59.6459724 2.37580342,59.152209 2.75207722,58.9118545 L25.3553879,44.394593 L2.83270729,57.3937044 C2.43800375,57.6156293 1.93809695,57.4827814 1.70465355,57.094989 C1.4704423,56.7071966 1.587164,56.2042181 1.96727728,55.9577204 L20.3448018,44.3830746 L2.3466229,54.7651626 C1.9511513,54.9832476 1.45431632,54.8488643 1.22240864,54.4618397 C0.990500953,54.0748151 1.10568694,53.5741404 1.48426451,53.3276427 L15.7427415,44.4498823 L1.91352396,52.4353359 C1.51728451,52.6749226 1.00125173,52.5474503 0.761665088,52.1512106 C0.5228463,51.7542033 0.649550923,51.2389386 1.04655823,50.9993519 L23.7919314,36.6663879 L1.73920927,49.3975001 C1.34373787,49.6148175 0.847670551,49.4812018 0.614995009,49.0941772 C0.383087521,48.7071526 0.499041167,48.2057101 0.876851074,47.9599802 L18.7091621,36.8675793 L1.68699167,46.6967751 C1.28998436,46.9348258 0.773951583,46.8058176 0.535900651,46.4088103 C0.297082059,46.0110351 0.426090253,45.4957702 0.823097561,45.2569514 L20.8792643,32.7761766 L1.67700894,43.8616664 C1.28384111,44.0774479 0.790077558,43.946136 0.55663416,43.5629509 C0.323190762,43.179766 0.4322335,42.680627 0.804667819,42.4302898 L30.8052161,23.2495357 L2.24372341,39.7380116 C1.85055558,39.9622401 1.34988112,39.8332319 1.1133659,39.4462073 C0.876851074,39.0599506 0.990500953,38.5554364 1.36984657,38.307403 L28.4623351,20.8859214 L3.14140557,35.5037784 C2.74516612,35.7449008 2.22913334,35.6189642 1.98801079,35.2227248 C1.74765628,34.8272532 1.872825,34.3104526 2.26906445,34.070098 L22.3091051,21.2737139 L4.26178035,31.6926613 C3.86707661,31.9138182 3.36793767,31.7817384 3.13372641,31.393946 C2.90028301,31.0061533 3.01623685,30.5024071 3.39635033,30.2566772 L12.0875094,24.8030095 L5.64093917,28.5258173 C5.2485394,28.7485102 4.74940046,28.6210377 4.51211758,28.2363169 C4.27560256,27.851596 4.38618101,27.3478498 4.76168695,27.0982802 L20.8424049,16.5510924 L7.98996342,23.9713673 C7.59986721,24.1940601 7.10380009,24.0704271 6.86421344,23.6903138 C6.6246268,23.3109682 6.72675824,22.8095257 7.09535308,22.5538131 L20.6427491,13.2752059 L12.1044034,18.2036259 C11.7204505,18.4209434 11.2343661,18.3034538 10.9917076,17.934859 C10.7490495,17.567032 10.8327512,17.0740365 11.1836842,16.8068052 L18.7321992,11.1780548 C18.4096789,11.0843703 18.1746996,10.8071562 18.1347685,10.4738851 C18.0940695,10.139846 18.2568656,9.81502191 18.5479018,9.64685047 L28.5007305,3.89830669 C28.8846835,3.68098927 29.3707679,3.79847902 29.6134261,4.16707386 C29.8560844,4.53490064 29.7723827,5.02789634 29.4214496,5.2951276 L23.6275995,9.60845507 L38.6056043,0.960298758 C38.9949326,0.743749191 39.4863924,0.869685761 39.7236753,1.24672761 C39.9609584,1.62376947 39.8618986,2.12060445 39.4986789,2.37785298 L25.9443716,11.6702826 L45.5175256,0.368243248 C45.9099254,0.145550631 46.4090643,0.273022915 46.6463472,0.657743729 C46.8828622,1.04246474 46.7722838,1.54621102 46.39601,1.79578039 L30.3222033,12.3375928 L50.761555,0.539486316 C51.1554907,0.326008374 51.6484864,0.460391958 51.879626,0.844344915 C52.1107657,1.22906573 51.9986515,1.72743662 51.6254491,1.97547028 L42.9319863,7.4306739 L53.9468288,1.07164507 C54.2033092,0.915760116 54.5227581,0.908081155 54.7861499,1.05244747 C55.0487738,1.19604592 55.2154093,1.46942023 55.2223204,1.76967149 C55.2292315,2.0691549 55.0756504,2.34944051 54.8191699,2.50532546 L34.7860404,15.2963342 L57.9529939,1.92171696 C58.3476976,1.69057714 58.8552834,1.81804962 59.0933341,2.20891368 C59.331385,2.60054579 59.2115917,3.10966727 58.825335,3.3546293 L31.7144167,20.7822541 L62.0628263,3.26708813 C62.4575301,3.0359483 62.9651158,3.16342078 63.2031666,3.55428484 C63.4412175,3.94591696 63.322192,4.45503843 62.9351675,4.70000047 L32.9461378,23.8723075 L63.9027289,6.00006533 C64.2982005,5.78197985 64.7950357,5.91636344 65.0269432,6.30338802 C65.2588508,6.6904126 65.142897,7.19108725 64.7650873,7.4375852 L44.7020094,19.9252711 L62.1595826,9.84650601 C62.5542861,9.63533183 63.044978,9.77201918 63.274582,10.1552041 C63.5041857,10.539157 63.3928394,11.0359922 63.0204051,11.2840259 L45.1819507,22.3810341 L60.4824761,13.5470445 C60.8756439,13.3366383 61.3655678,13.4710219 61.5959395,13.853439 C61.8263113,14.2350882 61.7172688,14.7311555 61.3479059,14.9814929 L38.6079081,29.312153 L58.5550321,17.8043149 C58.9520394,17.5662641 59.4680722,17.6945045 59.706891,18.0922796 C59.9449419,18.490055 59.8167016,19.0053199 59.4189262,19.2441385 L45.1596813,28.1226668 L56.9731459,21.3021263 C57.3678497,21.0809694 57.8677565,21.2130493 58.1011999,21.6008417 C58.3354111,21.9886343 58.2186894,22.4923806 57.8385759,22.7381105 L39.4802492,34.3127563 L55.1862288,25.2445554 C55.5801647,25.0203269 56.0808394,25.1493351 56.3173544,25.5363597 C56.5531015,25.9226164 56.4394513,26.4271305 56.0601058,26.675164 L33.4360619,41.1924255 L53.0929174,29.8458477 C53.4891568,29.622387 53.9913674,29.7560027 54.2248108,30.1460987 C54.4582542,30.5361951 54.3376928,31.0414771 53.9537399,31.2849032 L52.1837168,32.3768656 C52.5192916,32.3185047 52.8571702,32.4728537 53.0322528,32.764658 C53.2710716,33.1516826 53.1581893,33.6585005 52.777308,33.907302 L30.7599096,48.2932513 L49.6826473,37.3674861 C49.9383599,37.2116012 50.2585766,37.203922 50.5212005,37.3475205 C50.7845923,37.4911189 50.9512278,37.7637254 50.9581389,38.0639767 C50.9658179,38.3634601 50.8122367,38.6445135 50.5565241,38.8003985 L35.7712637,48.3101453 L47.8980339,41.309915 C48.288898,41.1018125 48.7734467,41.2338923 49.0053542,41.6109341 C49.2380297,41.987976 49.1366661,42.4802036 48.7749824,42.7359162 L32.8954561,53.136434 L46.0473806,45.5426124 C46.4382446,45.3199196 46.9350798,45.4450883 47.1738986,45.8259697 C47.4119495,46.207619 47.3075143,46.7090616 46.9366157,46.9632385 L28.5276073,59.4401738 L45.9498567,49.3752309 C46.3407207,49.1486986 46.8406275,49.2723314 47.080982,49.6547486 C47.3213365,50.0363978 47.2161335,50.540912 46.8421632,50.794321 L30.2216076,62.1078788 L45.9567678,53.022016 C46.3476318,52.7908764 46.8506103,52.9122054 47.0932685,53.2961584 C47.3359268,53.6793435 47.2291878,54.1861614 46.852914,54.4395704 L30.9042759,65.403731 L45.9567678,56.712572 C46.2124804,56.555919 46.5319292,56.5467043 46.795321,56.6895347 C47.0587126,56.8323651 47.2268841,57.1042039 47.2353311,57.4044551 C47.24301,57.7039383 47.0909648,57.984992 46.83602,58.1424127 L40.5653002,62.2338154 L45.9567678,59.1214928 C46.3453281,58.8949605 46.844467,59.0147538 47.0863574,59.3940992 C47.3290155,59.7734448 47.22842,60.2771911 46.8590573,60.5344396 L32.9138858,70.3106497 L45.9567678,62.7790285 C46.3445602,62.5609434 46.8344843,62.6838084 47.0740709,63.0577784 C47.3136576,63.4325165 47.2192051,63.9285838 46.8590573,64.1896718 L35.2844113,72.3072051 L45.9483208,66.1509034 C46.2024977,65.9919468 46.5219465,65.9804284 46.786874,66.120955 C47.0510336,66.2622497 47.2207408,66.5333207 47.2314916,66.8328039 C47.2414743,67.1322873 47.0917326,67.4141088 46.8375557,67.5730652 L41.637297,71.0739483 L45.9452491,68.586701 C46.3330416,68.3624724 46.828341,68.4830338 47.0702312,68.8600755 C47.3121217,69.2378852 47.2145976,69.737792 46.8490743,69.9973441 L39.0970641,75.4694417 L45.9452491,71.5170299 C46.3268983,71.2989447 46.8122149,71.4125947 47.0571769,71.778118 C47.3021389,72.1428733 47.2238124,72.635101 46.877487,72.9061719 L37.2740555,80.3325899 L45.9452491,75.3281471 C46.3268983,75.1069901 46.8137508,75.2198724 47.0610164,75.5846277 C47.3075143,75.9501507 47.2291878,76.4446824 46.8813265,76.7157531 L40.3272495,81.8223273 L45.9452491,78.5794606 C46.3207551,78.3644469 46.7991605,78.4711859 47.047962,78.8259585 C47.2967635,79.1799631 47.2345632,79.6660475 46.9043636,79.9463333 L41.6872109,84.3264687 L45.9567678,81.8691697 C46.3353453,81.6441732 46.8237335,81.7509121 47.0740709,82.1125959 C47.3244082,82.4750475 47.252993,82.968811 46.909739,83.2444891 L45.1251256,84.7088857 L45.9636789,84.2289446 C46.3184515,84.0254495 46.7692121,84.1076153 47.0295323,84.4239926 C47.2890846,84.7403698 47.2829413,85.1988098 47.0134063,85.5075079 L44.8494473,87.9717179 L45.9652146,87.3274448 C46.2908067,87.1393079 46.7024043,87.1915255 46.9711714,87.4549173 C47.2399386,87.718309 47.300603,88.1283707 47.1193772,88.4585703 L46.4082964,89.750188 C46.6409718,89.7977983 46.8421632,89.9444681 46.9596528,90.151035 C47.1915605,90.5518818 47.0548731,91.0640751 46.6547942,91.2967506 L44.8379289,92.3449421 C44.7081527,92.4186611 44.5607147,92.4562884 44.4117411,92.4540846 L44.4117411,92.4540846 Z" id="Path" fill="#C384F8"></path>
            <path d="M58.4897602,98.7833229 C58.1203975,98.7822975 57.7955732,98.5411749 57.6888342,98.188706 C57.5813274,97.8354695 57.7172467,97.4538201 58.0228734,97.2480213 L71.8259822,87.9847722 L53.9214879,98.3253934 C53.5290879,98.5588368 53.02227,98.435204 52.7811477,98.0474114 C52.5400251,97.6596189 52.6529073,97.1497294 53.0360923,96.9009279 L73.1106888,83.5193995 L53.6519529,94.7592383 C53.2587851,94.966573 52.7719326,94.8314216 52.5423289,94.452076 C52.3119571,94.0719625 52.4186961,93.5781991 52.7842191,93.326326 L61.4415905,87.8388702 L53.6565602,92.3249767 C53.2626245,92.5538125 52.7581104,92.4271081 52.5200595,92.0385476 C52.2820087,91.6507552 52.3971945,91.1431694 52.7796118,90.8959036 L71.4266712,78.7184517 L53.6565602,88.9769069 C53.2626245,89.2057427 52.7581104,89.0782703 52.5200595,88.6904778 C52.2820087,88.3019175 52.3971945,87.7950996 52.7796118,87.547066 L72.1431273,74.8919765 L53.6550245,85.5758514 C53.2587851,85.8046875 52.752735,85.6733755 52.516988,85.2817434 C52.2812409,84.8893436 52.4033378,84.3809898 52.7911304,84.1383316 L57.6558142,81.0989601 L53.6550245,83.3957665 C53.260321,83.6269063 52.752735,83.498666 52.5146843,83.1078019 C52.2766334,82.7169379 52.3956588,82.2078162 52.7826834,81.9628542 L68.391907,71.9209486 L53.6550245,80.4278102 C53.2610888,80.6520387 52.7604142,80.5230305 52.5238992,80.1360059 C52.288152,79.7497494 52.4018021,79.2452351 52.7811477,78.9972014 L65.6712163,70.6761731 L53.6550245,77.6111313 C53.2641605,77.8307525 52.769629,77.70328 52.533114,77.3231667 C52.2958311,76.9422854 52.4002663,76.4431464 52.7688612,76.1889695 L67.2446554,66.5049082 L53.6565602,74.3506029 C53.2641605,74.5732955 52.7650215,74.4458232 52.5277386,74.0611024 C52.2912236,73.6763814 52.4010342,73.1726351 52.777308,72.9230657 L59.772931,68.3263808 L53.6565602,71.8487653 C53.2695356,72.0699222 52.7765402,71.949361 52.5354178,71.5738551 C52.2942952,71.199117 52.3887477,70.7007461 52.7504314,70.4396579 L63.7737207,62.5939632 L53.6550245,68.4354236 C53.2733753,68.6565805 52.785755,68.5444663 52.5392573,68.1789429 C52.2927593,67.8134199 52.3710858,67.3188883 52.7189472,67.0478175 L62.0474682,59.7427286 L53.6596321,64.587447 C53.2795186,64.8009249 52.7988094,64.6880427 52.5546154,64.326359 C52.3096534,63.9654433 52.3826045,63.4770551 52.7220188,63.2029126 L57.2096609,59.6805283 L53.6596321,61.7285332 C53.2895013,61.9466187 52.8149353,61.8498624 52.5592227,61.5043049 C52.304278,61.1587471 52.3511204,60.6765022 52.6682655,60.3870017 L55.7498719,57.5234806 L53.6596321,58.7290928 C53.34863,58.9087827 52.9577659,58.8703875 52.6882309,58.6338725 C52.417928,58.3965896 52.3280831,58.0141723 52.4655383,57.682437 L53.5774661,54.998606 C53.1720117,55.0968979 52.7550388,54.8818843 52.6006897,54.4933238 C52.4463405,54.1055313 52.6006897,53.6624495 52.9639092,53.455115 L54.8560294,52.3646886 C55.1677991,52.1880701 55.5571274,52.2264655 55.8289662,52.4606768 C56.0992691,52.6979596 56.1883462,53.0811447 56.0501231,53.4128801 L54.9620005,56.0421899 L61.3363874,52.3662243 C61.706518,52.1512106 62.1787802,52.2495026 62.4321892,52.5942925 C62.6863659,52.9383143 62.6402916,53.4182555 62.3262181,53.708524 L59.226182,56.5551511 L66.5197523,52.3616169 C66.9006336,52.1435317 67.3844144,52.2556458 67.6309122,52.6180974 C67.8774099,52.9813171 67.8021552,53.4720088 67.4589012,53.7453835 L62.9704912,57.2677678 L71.4834961,52.3616169 C71.8643774,52.141996 72.3504618,52.2541101 72.5969598,52.6180974 C72.8434575,52.9820849 72.7666669,53.4750806 72.4211094,53.7469192 L63.0841413,61.0543119 L78.1581343,52.3616169 C78.5459269,52.14046 79.0381546,52.2610212 79.2792769,52.6365272 C79.5203995,53.0112653 79.425947,53.5096363 79.0642633,53.7707243 L68.040974,61.6194907 L84.0817606,52.3616169 C84.4733926,52.1481392 84.9625486,52.2786831 85.19676,52.6580287 C85.4302034,53.0373741 85.3265361,53.5334413 84.9610129,53.7876182 L77.9584788,58.3835352 L88.4012314,52.3616169 C88.7928635,52.1343168 89.294306,52.2594855 89.5338926,52.6434385 C89.7734793,53.0273914 89.6644365,53.5319056 89.2889306,53.7837787 L74.8046893,63.4732154 L94.0530189,52.3616169 C94.4461867,52.141996 94.942254,52.271772 95.1772332,52.655725 C95.4122123,53.0389101 95.3024019,53.5403526 94.9284316,53.7906898 L82.0521853,62.0909848 L97.7435748,53.0327668 C98.1367427,52.8162172 98.630506,52.9475292 98.8639494,53.3307141 C99.0973928,53.7138992 98.9883503,54.2130382 98.6159159,54.4633754 L82.9967094,64.5214072 L97.872583,55.9331474 C98.2688223,55.7043113 98.7748723,55.8356233 99.0106195,56.2272554 C99.2463666,56.6196552 99.1242696,57.128009 98.7364771,57.3706673 L93.9086526,60.3900733 L97.5992083,58.2560627 C97.9931442,58.0272269 98.4976583,58.1546992 98.7357091,58.5424916 C98.97376,58.9302842 98.858574,59.43787 98.476157,59.6851356 L79.1195525,72.3386894 L97.0102246,62.0103547 C97.4026244,61.7945732 97.8948522,61.9243493 98.1298313,62.3059984 C98.3640428,62.6876478 98.2573038,63.1860187 97.8879409,63.4378919 L79.2454891,75.6138081 L95.9236377,65.9865716 C96.3160377,65.7784691 96.8028899,65.9136205 97.0324938,66.293734 C97.2628656,66.6730794 97.1568945,67.166843 96.7906034,67.4187161 L88.102516,72.9230657 L94.8362829,69.0374618 C95.2279148,68.8147692 95.7255179,68.9414736 95.9635688,69.3246587 C96.2016197,69.7070758 96.0941127,70.2092863 95.7201427,70.4619273 L75.6555289,83.8365446 L92.5095281,74.1071765 C92.8996241,73.8906272 93.3910839,74.0180997 93.6275991,74.3966772 C93.8633461,74.7744869 93.7627506,75.27209 93.3972271,75.5278026 L79.5772244,84.8010344 L89.2689649,79.2014645 C89.6582933,78.9787717 90.1543606,79.1024047 90.3939473,79.482518 C90.6335339,79.8618636 90.5314025,80.3633061 90.1628076,80.6190187 L83.5380833,85.1734687 L84.6315813,84.543018 C84.8919014,84.3779182 85.221333,84.3679355 85.4908678,84.518445 C85.759635,84.6681867 85.9247348,84.9538477 85.9208952,85.261778 C85.9162878,85.570476 85.743509,85.8507619 85.4709024,85.9935923 L65.9361438,97.2833451 C65.5452797,97.5152526 65.0415334,97.3939236 64.799643,97.0099706 C64.5569847,96.6267855 64.6637237,96.1191998 65.0399975,95.8657907 L71.6731689,91.3067333 L58.923627,98.6709512 C58.792315,98.7477416 58.6418056,98.7869048 58.4897602,98.7833229 L58.4897602,98.7833229 Z" id="Path" fill="#F5EC83"></path>
            <path d="M57.8316648,47.1145159 C57.4592303,47.1145159 57.1313346,46.868786 57.0268994,46.5117096 C56.9216964,46.1538655 57.0652946,45.7699126 57.3793681,45.5694892 L61.3517456,43.0246489 L55.1677991,46.5938756 C54.7738634,46.8181041 54.2731887,46.6890959 54.0374416,46.3020713 C53.8009267,45.9158146 53.9145766,45.4113005 54.2939222,45.163267 L61.7118934,40.3891958 L54.9067113,44.3178024 C54.5127754,44.542031 54.0121007,44.4130228 53.7755857,44.0259982 C53.5390707,43.6389736 53.6523018,43.1344595 54.0320664,42.8864258 L62.2087286,37.5993936 L56.4594169,40.917515 C56.067785,41.1332968 55.5747893,41.0035205 55.340578,40.6218713 C55.1063666,40.2402221 55.2123377,39.741851 55.5824685,39.4899779 L62.8506979,34.7458553 L57.9860139,37.5487117 C57.5943818,37.7760119 57.0937073,37.6508434 56.8541207,37.2668904 C56.614534,36.8829375 56.7228087,36.3784233 57.0990825,36.1265502 L66.7263191,29.6408167 L59.7575729,33.6669475 C59.3697802,33.8850328 58.8798564,33.7621678 58.6402697,33.3881976 C58.4006831,33.0134595 58.4951355,32.5166243 58.8552834,32.2563044 L69.7441892,24.5749415 L61.8140248,29.1531964 C61.4239286,29.3797287 60.9240218,29.2560959 60.6836673,28.8736787 C60.4425449,28.4920295 60.5485159,27.9875153 60.9217182,27.7341063 L65.1882035,24.8168319 L63.2937796,25.908794 C62.9059871,26.1322547 62.4106877,26.0116933 62.1687974,25.6346516 C61.926907,25.2576098 62.0244311,24.7569351 62.3899543,24.4981509 L66.7885194,21.3827566 L64.8457174,22.5031312 C64.4579249,22.7273597 63.9618578,22.6060307 63.7207353,22.2289888 C63.4788448,21.851947 63.5763689,21.3512723 63.9411243,21.0924881 L65.8317086,19.7501885 C65.4608102,19.7970308 65.1045018,19.5927679 64.9570639,19.248746 C64.8096259,18.905492 64.9071498,18.506181 65.1958825,18.2688981 L69.6635592,14.6159695 L68.0041145,15.5720125 C67.6293765,15.7839545 67.1548105,15.6787513 66.906009,15.3270505 C66.6572075,14.9753497 66.7148005,14.4923367 67.0396247,14.2097473 L69.1083632,12.4366526 C68.8603295,12.4458675 68.6207428,12.3475755 68.4502678,12.1678856 C68.1853401,11.879153 68.155392,11.445286 68.3788526,11.1227655 L70.8008278,7.6118997 C70.6702839,7.53741287 70.562009,7.42990604 70.4867543,7.30012999 C70.2563825,6.89928301 70.3938378,6.38785777 70.7939167,6.15595008 L72.6391945,5.08548933 C72.9793768,4.89044113 73.4086363,4.95648114 73.6743318,5.24444591 C73.9392593,5.53241048 73.9699755,5.96550941 73.7480508,6.28879795 L71.8674491,9.00564898 L75.7376949,6.77334644 C76.112433,6.56063655 76.5869989,6.66660747 76.8358004,7.01830847 C77.0846019,7.37000948 77.0270089,7.8522542 76.7021847,8.13561163 L75.0250782,9.56929202 L77.7588232,7.99124532 C78.1374008,7.77085627 78.6219495,7.87913095 78.870751,8.23927878 C79.1195525,8.5994268 79.0496732,9.09011873 78.7102587,9.36656486 L74.2548685,13.0233327 L80.095561,9.65376157 C80.4825856,9.43798006 80.9709737,9.56084501 81.2097925,9.93327933 C81.4493792,10.3064817 81.3572305,10.8010129 81.0001541,11.062869 L79.7016253,11.9820523 L81.5906738,10.8931616 C81.9784663,10.6697011 82.4737656,10.7902623 82.715656,11.1673042 C82.9575464,11.5443458 82.8600223,12.0450207 82.4944991,12.3038049 L78.0967018,15.4207349 L83.3821983,12.3729164 C83.7715266,12.156367 84.2622184,12.2815355 84.4995015,12.6585774 C84.7367843,13.0356192 84.6384924,13.5324544 84.2745049,13.7904708 L80.005716,16.7108168 L84.9256891,13.8711009 C85.3134817,13.6530156 85.8034056,13.7758805 86.0429922,14.1498508 C86.2825789,14.5245888 86.1881266,15.020656 85.8279786,15.281744 L74.9406086,22.9615712 L86.8846171,16.0665439 C87.2762492,15.8400116 87.7776918,15.9644125 88.0172784,16.3483652 C88.256865,16.7323184 88.1485904,17.2376004 87.7723164,17.4894735 L78.1466159,23.9729032 L88.5724744,17.9540566 C88.9648744,17.738275 89.457102,17.8680511 89.6913133,18.2497005 C89.9262924,18.6305818 89.8195536,19.1289527 89.4494229,19.3815937 L82.167371,24.1341634 L89.775015,19.7440453 C90.1689509,19.5198168 90.6696253,19.648825 90.9061406,20.0358495 C91.1418875,20.4221063 91.0282374,20.9266204 90.648892,21.1746541 L82.4799088,26.4655257 L90.967573,21.5655181 C91.3630444,21.3343785 91.8706304,21.4618508 92.1086811,21.8527148 C92.3467319,22.2435791 92.2269387,22.7534686 91.8399141,22.9984307 L84.4204071,27.7725017 L92.1056095,23.3286301 C92.4987773,23.1120805 92.9917728,23.2441606 93.2259843,23.6273455 C93.4594277,24.0097627 93.3496171,24.5089015 92.9779506,24.7592389 L89.0017339,27.3063827 L92.9741111,25.0180231 C93.3649752,24.7984021 93.8595066,24.9258744 94.0960216,25.3059879 C94.3333045,25.6868692 94.2288693,26.186008 93.8602745,26.4401849 L84.2714334,32.8568067 L93.9892827,27.2457181 C94.3809148,27.0230255 94.8785178,27.1497299 95.1165685,27.5321472 C95.3538516,27.9153321 95.2463446,28.4175427 94.8731424,28.6701837 L89.5400359,32.2140695 L94.8547127,29.1462853 C95.2463446,28.9266643 95.7416441,29.0556725 95.9781591,29.4373217 C96.2139062,29.8197388 96.1071673,30.3196456 95.7355008,30.5722866 L94.6350917,31.2971897 L95.4736447,30.8103375 C95.8637411,30.5907163 96.3575045,30.7166529 96.5955554,31.0952306 C96.8328383,31.4745761 96.7314747,31.973715 96.3644156,32.2294276 L93.2428781,34.3580628 L96.018858,32.756211 C96.3989715,32.5396616 96.8812164,32.6510079 97.1277142,33.0126917 C97.3742119,33.3743754 97.301261,33.8642993 96.9603106,34.1384416 L89.7366198,39.8770025 L96.8612508,35.7640986 C97.2421321,35.5444774 97.7274487,35.6565916 97.9739464,36.0205791 C98.2204443,36.3845666 98.1444216,36.8775621 97.798864,37.1494007 L94.6565928,39.612075 L97.3035646,38.0839423 C97.6706237,37.8696965 98.1390462,37.9633811 98.3955269,38.3012597 C98.6520074,38.6391383 98.6151479,39.1160079 98.3102893,39.4108837 L95.4605904,42.1953105 L97.6414432,40.9374807 C97.9470698,40.7600944 98.3310228,40.7938822 98.6013257,41.0211824 C98.8716286,41.2484825 98.9706884,41.6209169 98.8485913,41.9526522 L97.9493734,44.3999684 C98.3663464,44.1972413 98.8685569,44.3715559 99.0712841,44.7885289 C99.2732434,45.2055017 99.0996966,45.7069442 98.6827236,45.9096713 L96.7890677,47.0016337 C96.484977,47.1744124 96.1056314,47.1406246 95.8368644,46.9163961 C95.5680972,46.6921675 95.4667336,46.3251086 95.5826875,45.994909 L96.47653,43.5591114 L90.4914712,46.9931866 C90.1251801,47.2074324 89.6567576,47.1145159 89.4002769,46.7758692 C89.1437964,46.4379906 89.1798881,45.9618891 89.4847467,45.6662452 L92.3367491,42.8848901 L85.2274763,46.9931866 C84.8465949,47.2128078 84.3605103,47.1006935 84.1140126,46.7367062 C83.8675148,46.3727187 83.9443054,45.8797232 84.2898632,45.6078844 L87.4367415,43.1398349 L80.7636392,46.998562 C80.3835258,47.2151116 79.9012808,47.1029972 79.6547829,46.7420816 C79.4082851,46.3803978 79.4820041,45.8904737 79.8221865,45.6163314 L87.0458775,39.8770025 L74.7079331,46.9931866 C74.3186047,47.2043608 73.8325203,47.0776564 73.597541,46.7029183 C73.3617941,46.3281802 73.4577823,45.8344167 73.8171622,45.5756324 L76.9402356,43.4439256 L70.7908451,46.9931866 C70.3984451,47.2128078 69.9039137,47.0845675 69.6673987,46.7021503 C69.4316515,46.3197332 69.5383905,45.8198264 69.9100569,45.5671854 L70.9935722,44.8545687 L67.2776754,46.9931866 C66.8883471,47.2012892 66.4030306,47.0715131 66.170355,46.6952391 C65.9376797,46.3197332 66.0359716,45.8275056 66.3953516,45.5710249 L71.7284581,42.0263712 L63.1279119,46.9931866 C62.7362798,47.2204868 62.2348373,47.0953181 61.9952506,46.7113653 C61.756432,46.3274122 61.8647067,45.822898 62.2402126,45.5710249 L71.8390366,39.1490279 L58.2517092,46.9931866 C58.1250048,47.0699772 57.9798706,47.1114443 57.8316648,47.1145159 L57.8316648,47.1145159 Z" id="Path" fill="#6FD5D2"></path>
            <g id="Group" transform="translate(-0.000000, 0.000000)" fill="#262626">
                <path d="M47.6592151,87.978629 C48.3910294,79.9025625 47.6592151,71.4148985 47.6592151,63.3088837 C47.6592151,58.0448886 46.5895222,51.5077056 47.7183438,46.3358592 C49.1742935,39.669668 53.8800209,32.610309 56.6828776,26.4271305 C59.6354758,19.9137525 62.588074,13.4003746 65.5414402,6.88699651 C65.5675489,6.84092216 65.5898183,6.79177618 65.60748,6.74109449 L65.6243741,6.704235 C65.6343568,6.68273364 65.6243741,6.66891123 65.6358925,6.64894578 C65.6627693,6.59058493 65.681199,6.5283846 65.6911817,6.46464836 C65.6911817,6.43930731 65.6911817,6.41780615 65.6911817,6.3924651 C65.6965571,6.32949692 65.6927176,6.26652853 65.6796633,6.2043282 C65.4323975,-1.45169367 44.0093584,-0.201543039 39.0148983,0.620116388 C28.9215429,2.32486752 19.6529185,7.25712726 12.6012384,14.677402 C-3.59389726,31.9299442 -4.25583226,58.5916376 11.063123,76.626676 C15.4593843,81.6963908 46.3092364,102.881379 47.6592151,87.978629 Z M17.6540595,12.5771794 C22.5817117,8.294568 28.3985991,5.1592083 34.6854446,3.39839989 C37.6917964,2.56752579 63.2354187,-0.396591043 63.2169989,6.55372544 L49.7463835,36.2709163 C46.2439645,43.995282 45.1934692,47.4362685 45.1934692,55.8571247 L45.1934692,76.5782979 C45.1934692,78.6616266 46.6379004,88.3341695 45.1934692,90.0151157 C42.8168005,92.7811127 32.8033074,88.6881743 30.2315903,87.6346071 C13.9496814,81.0459746 3.03697036,65.5288997 2.34278342,47.97841 C1.85439525,34.4740167 7.47930603,21.4695299 17.6540595,12.5771794 Z" id="Shape"></path>
                <path d="M92.8689079,52.5758627 L72.5485817,52.5758627 C68.6468517,52.5758627 54.1933265,49.8820488 51.9925083,54.9394771 C50.9573711,57.3169138 51.9725426,62.4065942 51.9725426,64.9560418 L51.9725426,86.3898317 C51.9725426,88.9914969 50.6770853,95.3843138 52.2259517,97.6473324 C54.5050964,100.97774 63.6577669,97.6696018 66.7163362,96.7319886 C85.5223521,90.9680869 98.7272622,74.071853 99.7746859,54.4295875 C98.7096004,51.7204155 95.3361897,52.5758627 92.8689079,52.5758627 L92.8689079,52.5758627 Z M87.0727542,82.0818796 C83.3729834,86.5810404 78.830052,90.313831 73.6996727,93.071381 C70.9805177,94.5227233 57.1259593,101.193522 54.3983574,96.0539278 C53.0307171,93.4776034 54.3983574,86.3245598 54.3983574,83.4879152 L54.3983574,63.6006879 C54.3983574,62.310606 53.4891568,54.2737028 54.2739568,53.4835274 C55.4949271,52.2541101 64.5439304,53.4835274 66.2064466,53.4835274 L85.4186848,53.4835274 C87.9497027,53.4835274 96.1294365,51.9838072 97.3442637,55.0753963 C96.8789127,64.9406837 93.2805054,74.4005167 87.0727542,82.0818796 L87.0727542,82.0818796 Z" id="Shape"></path>
                <path d="M84.4856791,12.0358056 C82.2096059,9.98933641 77.1990199,5.11083018 73.9576891,5.01023446 C70.4230181,4.90119191 69.853232,7.11352881 68.5124682,10.0546086 L59.226182,30.4225449 C57.6358488,33.9134452 53.2910372,39.889289 53.1113471,43.8432367 C52.9439435,47.5952249 55.7667659,47.1390889 58.5550321,47.1675013 C71.2454454,47.2972774 83.9458413,47.1675013 96.6347185,47.1675013 C96.9687576,47.170573 97.292814,47.0515475 97.545455,46.8326944 C103.629574,43.751088 96.7468328,29.2921873 94.6350917,25.1923378 C92.0787327,20.2270581 88.6392823,15.7685964 84.4856791,12.0358056 L84.4856791,12.0358056 Z M96.4665472,45.4834837 L69.8647504,45.4834837 C67.1809194,45.4834837 59.0196151,46.9747569 56.6813417,45.4834837 C54.3845352,44.0190871 56.9209283,40.7762204 57.9506901,38.5170413 L64.9516885,23.1589229 C66.8468803,19.003784 68.3819241,12.9703473 71.2216402,9.40342434 C73.1206715,7.01984438 70.7186618,6.77334644 74.6956466,7.65720619 C78.4583856,8.49575945 83.2885139,13.8526711 85.629859,16.4305312 C89.3388444,20.5349885 92.2684055,25.2814149 94.2741758,30.4363673 C94.9691306,32.2109979 98.9829749,43.6382057 96.4665472,45.4834837 Z" id="Shape"></path>
                <path d="M44.6766686,8.49575945 C45.2195781,8.475794 45.7601839,8.46504322 46.2992537,8.46427536 C46.8022321,8.46427536 47.5824245,8.07801864 47.6492324,7.5212869 C47.7229514,6.89928301 46.9780825,6.79024046 46.5442157,6.79176031 C46.00361,6.79176031 45.4622364,6.80483073 44.9216306,6.82556404 C44.4186522,6.84399378 43.6399957,7.19953427 43.5800989,7.76778465 C43.4994688,8.3782699 44.232051,8.51265348 44.6766686,8.49575945 Z" id="Path"></path>
                <path d="M18.3513179,21.0625397 C23.5592559,15.0721057 30.4842313,10.8301934 38.1863278,8.91350027 C39.6023463,8.5664068 39.4241921,7.83152089 37.9920476,8.18245384 C29.5450826,10.2066538 21.9228483,14.7733904 16.1543391,21.2668028 C15.6759339,21.7905145 17.9589181,21.4948708 18.3513179,21.0625397 Z" id="Path"></path>
                <path d="M13.9750222,25.3351682 C13.3499467,25.2560739 12.7348541,25.540967 12.3900644,26.0677506 C12.0544894,26.6191069 11.7258258,27.1789103 11.4048411,27.7456249 C11.1061257,28.2770158 11.6697686,28.6632725 12.1343516,28.7270086 C12.760195,28.8076389 13.3768235,28.5227457 13.7200775,27.9936586 C14.0372225,27.4269439 14.3658863,26.8679084 14.7045327,26.3165521 C15.0270532,25.7928401 14.4211755,25.395065 13.9750222,25.3351682 Z" id="Path"></path>
                <path d="M80.1331883,58.8465823 L78.4553139,58.8465823 C77.9269947,58.8465823 77.1767506,59.2558763 77.1130144,59.8333416 C77.0477425,60.4707034 77.7557516,60.638107 78.2387646,60.638107 L79.916639,60.638107 C80.4449582,60.638107 81.1944344,60.228813 81.2581704,59.6521156 C81.3242104,59.0147538 80.6162013,58.8465823 80.1331883,58.8465823 L80.1331883,58.8465823 Z" id="Path"></path>
                <path d="M66.3938157,59.0493095 C64.5569847,58.8573331 62.7024921,58.9141581 60.8802512,59.217481 C58.6287511,59.8886308 58.6808661,61.6210266 58.6808661,63.5469344 L58.6808661,69.958181 C58.6808661,70.9649057 61.1129268,70.4619273 61.1129268,69.6563941 L61.1129268,64.7663692 C61.1129268,63.9746581 60.7527789,60.8730861 61.3363874,60.4353798 C61.6366385,60.2103833 62.9082907,60.4353798 63.3160488,60.4353798 L71.1678869,60.4353798 C72.0855343,60.4353798 73.7465149,59.0493095 72.1108752,59.0493095 L66.3938157,59.0493095 Z" id="Path"></path>
                <path d="M58.6771292,76.6520168 L58.6771292,78.3291234 C58.6771292,79.4210855 61.1167662,78.944984 61.1167662,78.0611243 L61.1167662,76.3832499 C61.1167662,75.2912876 58.6771292,75.7681571 58.6771292,76.6520168 L58.6771292,76.6520168 Z" id="Path"></path>
                <path d="M75.230877,13.8995133 C74.6664661,13.9225506 74.1481297,14.2189622 73.8425031,14.694296 C73.5983091,15.2279907 73.3556508,15.7601494 73.1137604,16.2915403 C72.8879962,16.7860717 73.9277407,16.7845358 74.1488976,16.7576592 C74.7140763,16.7361579 75.2331807,16.4389782 75.5380393,15.9628766 L76.2660141,14.3671682 C76.4925464,13.8711009 75.4528017,13.8741725 75.230877,13.8995133 Z" id="Path"></path>
                <path d="M70.4790752,21.8857348 L66.2847732,31.0906231 C65.714219,32.3423098 68.163839,32.3300233 68.6069206,31.3586222 L72.8004548,22.154502 C73.3710089,20.9028153 70.921389,20.912798 70.4790752,21.8857348 L70.4790752,21.8857348 Z" id="Path"></path>
                <path d="M63.2131495,37.7667972 L62.4483152,39.4446716 C61.854724,40.7462722 64.3074154,40.8468677 64.7973394,39.7802464 L65.5606378,38.1023721 C66.1488539,36.8038431 63.6961623,36.7032474 63.2131495,37.7667972 L63.2131495,37.7667972 Z" id="Path"></path>
            </g>
        </g>
    </g>
</svg>