<?xml version="1.0" encoding="UTF-8"?>
<svg width="100px" height="99px" viewBox="0 0 100 99" version="1.1" xmlns="http://www.w3.org/2000/svg" xmlns:xlink="http://www.w3.org/1999/xlink">
    <title>role-dm</title>
    <g id="Page-1" stroke="none" stroke-width="1" fill="none" fill-rule="evenodd">
        <g id="role-dm" fill-rule="nonzero">
            <path d="M11.1246845,56.6666667 C10.7535425,56.6666667 10.4270664,56.4204441 10.3234732,56.0627208 C10.2198801,55.7049975 10.3640572,55.3215854 10.6773011,55.1217821 L25.0586753,45.9178222 L9.78921155,54.7665592 C9.3972982,54.9904808 8.89905215,54.8614499 8.66399068,54.4751605 C8.42892921,54.0888711 8.54206161,53.5850237 8.9194848,53.3372896 L28.4006964,40.7319026 L9.58889061,51.6332249 C9.19766203,51.8491942 8.70638622,51.7178797 8.47397846,51.3352168 C8.2415707,50.952554 8.35034498,50.454074 8.7208332,50.2039553 L28.0851909,37.6856985 L9.55550379,48.4194628 C9.16370462,48.6549708 8.65608447,48.5307018 8.41630563,48.1405792 C8.17652679,47.7504566 8.2936263,47.2393445 8.67909967,46.9935444 L32.2802453,31.4726486 L6.0415406,46.69194 C5.64947216,46.9119124 5.15427915,46.7810146 4.92101009,46.3957424 C4.68774104,46.0104702 4.80005351,45.5089943 5.17515253,45.2609949 L26.8315157,31.3251976 L2.74959979,45.2743995 C2.49434138,45.4291446 2.17622474,45.4354473 1.91508132,45.2909334 C1.65393791,45.1464195 1.48944163,44.8730442 1.48355663,44.5737853 C1.47767163,44.2745263 1.63129199,43.9948483 1.8865504,43.8401032 L19.748501,32.5617755 L1.47255379,43.1531155 C1.0807696,43.3511058 0.603150866,43.2109282 0.379351204,42.8322686 C0.155551542,42.4536091 0.261939824,41.9656804 0.622859126,41.715468 L3.43069099,39.9896208 L1.26054746,41.2479812 C0.867903952,41.458481 0.379777644,41.3226609 0.151148303,40.9392932 C-0.0774810375,40.5559256 0.0338487734,40.0599302 0.404175432,39.8120093 L13.8674121,31.4039498 L1.25720878,38.7044511 C0.865140337,38.9244234 0.369947328,38.7935256 0.136678269,38.4082534 C-0.0965907907,38.0229812 0.0157216859,37.5215053 0.390820702,37.2735059 L24.5077928,21.8045531 L1.25720878,35.2778904 C0.864182535,35.5033395 0.363752577,35.3732345 0.129187977,34.9846201 C-0.105376623,34.5960058 0.0114334941,34.0905496 0.392490043,33.8452696 L21.3210204,20.4406311 L1.25720878,32.0624527 C0.864058095,32.2835621 0.367033065,32.1514912 0.134375771,31.7640902 C-0.0982815234,31.3766892 0.0174513258,30.873865 0.395828726,30.6281564 L13.01104,22.6306139 L1.25720878,29.433468 C0.866328006,29.6407624 0.382212992,29.5061861 0.153265954,29.1265895 C-0.0756810844,28.7469928 0.0299585595,28.2540529 0.394159384,28.0025228 L10.2933526,21.6989916 L1.25720878,26.9418808 C0.869087575,27.1497702 0.386841181,27.0196015 0.154950318,26.6443575 C-0.0769405451,26.2691135 0.0211420824,25.7776314 0.379135314,25.5209891 L16.3146662,14.8911108 L1.25720878,23.6175304 C0.867157786,23.8365137 0.374473446,23.7082574 0.139620442,23.3265981 C-0.0952325622,22.9449389 0.0110925321,22.4453235 0.380804655,22.1932876 L10.2733205,15.6451217 L1.25887812,20.867904 C0.871856027,21.0789382 0.38807274,20.9518094 0.153726401,20.5774917 C-0.0806199369,20.203174 0.0151304163,19.7105039 0.372457949,19.452039 L9.99287118,12.8787394 L1.25720878,17.9389905 C0.871249848,18.1663434 0.375333305,18.0477153 0.133019463,17.6700733 C-0.109294378,17.2924313 -0.0117706678,16.790171 0.354095196,16.5315034 L9.32346536,10.0805211 L1.25720878,14.7553888 C0.873583304,14.9541814 0.402233496,14.8265217 0.170306455,14.4610137 C-0.0616205866,14.0955057 0.0224254661,13.6127897 0.364111243,13.3479018 L2.97996887,11.5148174 L1.25720878,12.5101119 C0.879358673,12.722575 0.402379973,12.6096568 0.158938536,12.2501114 C-0.0845029012,11.8905661 -0.0135212759,11.403856 0.322377714,11.1294341 L5.21187803,7.23706219 L1.25720878,9.52757979 C0.889220859,9.73907708 0.421722076,9.64001099 0.170310346,9.29725879 C-0.0811013841,8.9545066 -0.036516468,8.47700988 0.273966819,8.18711594 L3.37226405,5.31349656 L1.25720878,6.54002098 C0.902224796,6.74576598 0.450933942,6.66232461 0.192288541,6.34312269 C-0.0663568603,6.02392077 -0.0557959997,5.56344425 0.217209219,5.25652685 L1.62446384,3.66975276 C1.29020269,3.59288212 1.03679549,3.31862269 0.985565824,2.97828145 C0.934336157,2.63794022 1.09570956,2.30077865 1.39242541,2.12821934 L4.81958286,0.144332838 C5.17456684,-0.0614121566 5.62585769,0.0220292084 5.88450309,0.341231129 C6.14314849,0.66043305 6.13258763,1.12090957 5.85958241,1.42782697 L4.92308201,2.48176668 L9.02131461,0.110821242 C9.38930253,-0.100676052 9.85680131,-0.00160995479 10.108213,0.341142237 C10.3596248,0.683894429 10.3150399,1.16139115 10.0045566,1.45128509 L6.90458999,4.31987773 L14.1779095,0.110821242 C14.5557596,-0.101641882 15.0327383,0.0112762802 15.2761798,0.37082165 C15.5196212,0.730367019 15.4486396,1.21707713 15.1127406,1.49149901 L10.2215709,5.38387091 L19.3294964,0.110821242 C19.7154353,-0.103676646 20.2010286,0.020318192 20.4379301,0.39385658 C20.6748317,0.767394968 20.5812265,1.26147367 20.2242633,1.52165944 L17.605067,3.34636586 L23.1990293,0.110821242 C23.583897,-0.107497626 24.0716055,0.0132534764 24.3111765,0.386176292 C24.5507475,0.759099108 24.4590802,1.25483673 24.1021428,1.5166327 L15.134442,7.96258824 L28.6928311,0.110821242 C29.0798532,-0.100213002 29.5636365,0.026915778 29.7979828,0.401233485 C30.0323291,0.775551193 29.9365788,1.26822129 29.5792513,1.52668618 L19.9504913,8.10333695 L33.7492655,0.110821242 C34.1385626,-0.104896408 34.6279965,0.0236101016 34.8621939,0.403033387 C35.0963912,0.782456673 34.9931088,1.27955439 34.627339,1.5333885 L24.7498472,8.06814977 L38.4901945,0.110821242 C38.8783157,-0.0970681791 39.3605621,0.0331004858 39.5924529,0.408344486 C39.8243438,0.783588487 39.7262612,1.27507066 39.3682679,1.53171292 L23.422721,12.1632668 L44.2293895,0.110821242 C44.6208182,-0.102099444 45.1098381,0.0308289662 45.3407311,0.412913013 C45.5716241,0.79499706 45.4631035,1.29172256 45.0941082,1.5417664 L35.204931,7.8335686 L48.532951,0.110821242 C48.9251976,-0.105688142 49.4177665,0.0269383283 49.6493939,0.411428668 C49.8810212,0.795919008 49.7692253,1.29535754 49.3960004,1.54344198 L36.7841278,9.54098443 L52.9366731,0.181195594 C53.3287415,-0.0387767679 53.8239345,0.0921210599 54.0572036,0.477393251 C54.2904726,0.862665442 54.1781602,1.36414133 53.8030611,1.61214075 L32.8795388,15.0167793 L55.7845691,1.74451156 C56.1775514,1.51335138 56.6826041,1.64111496 56.9194936,2.03161427 C57.156383,2.42211358 57.0376245,2.93113492 56.6526265,3.17545672 L32.5440012,18.6377072 L57.036575,4.44554622 C57.4298864,4.22811511 57.9240921,4.36196832 58.1550448,4.74847827 C58.3859974,5.13498822 58.2709248,5.6356319 57.8946164,5.88151812 L44.4297104,14.2895776 L57.0799779,6.95891594 C57.4728335,6.75110039 57.9590194,6.88842429 58.18625,7.27138402 C58.4134805,7.65434375 58.3021868,8.14883913 57.9330112,8.39656342 L55.1301874,10.1224106 L57.0799779,8.99139425 C57.4731286,8.7702848 57.9701536,8.90235577 58.2028109,9.28975678 C58.4354682,9.67715779 58.3197353,10.1799819 57.9413579,10.4256906 L40.0560365,21.7258008 L57.0833166,11.8616625 C57.475385,11.6416901 57.970578,11.7725879 58.2038471,12.1578601 C58.4371161,12.5431323 58.3248037,13.0446082 57.9497046,13.2926076 L36.3016882,27.2133247 L57.0799779,15.1742838 C57.4694838,14.9615415 57.9567325,15.0916477 58.1894347,15.4705334 C58.4221369,15.8494191 58.3190522,16.3448086 57.9547127,16.5985266 L34.3552364,32.1143957 L57.0799779,18.9510407 C57.4699154,18.7437073 57.9532647,18.8768479 58.1831501,19.2549139 C58.4130356,19.63298 58.3100212,20.1253325 57.9480353,20.3786347 L38.5836776,32.8968914 L57.0799779,22.1731806 C57.4699154,21.9658473 57.9532647,22.0989878 58.1831501,22.4770539 C58.4130356,22.85512 58.3100212,23.3474725 57.9480353,23.6007746 L38.458477,36.2162151 L57.0799779,25.4271566 C57.4714066,25.2142359 57.9604265,25.3471644 58.1913195,25.7292484 C58.4222125,26.1113325 58.3136919,26.608058 57.9446966,26.8581018 L43.566661,36.0603861 L57.0799779,28.2304017 C57.4712065,28.0144324 57.9624823,28.1457469 58.19489,28.5284098 C58.4272978,28.9110726 58.3185235,29.4095526 57.9480353,29.6596712 L56.2119205,30.7739318 L57.0816472,30.2712579 C57.4678094,30.0477553 57.9607894,30.1682668 58.2013194,30.5449675 C58.4418493,30.9216682 58.3450309,31.4215963 57.9814221,31.6804205 L51.7330781,36.1190314 L57.0749699,33.0208843 C57.4629359,32.7982838 57.9567422,32.9218825 58.1951534,33.3012639 C58.4335645,33.6806453 58.3319873,34.1811971 57.9647287,34.4367493 L57.3420645,34.8656977 C57.657771,34.8136801 57.9759858,34.9429935 58.166719,35.2008137 C58.4177369,35.5471814 58.3680525,36.0278138 58.0515345,36.3150743 L52.5543939,41.3066265 L57.0799779,38.6826685 C57.4539445,38.4652385 57.9314157,38.5702959 58.1804735,38.9248094 C58.4295314,39.2793229 58.3677945,39.7660292 58.0381797,40.0465905 L57.2185332,40.7486584 C57.6262176,40.6161459 58.0676403,40.8150449 58.2399216,41.2088819 C58.4122029,41.602719 58.259362,42.0635212 57.8862697,42.2751117 L50.2456951,46.69194 C49.8724044,46.9049081 49.3990406,46.7988629 49.1513925,46.4467891 C48.9037444,46.0947153 48.9626177,45.611492 49.2874933,45.3296937 L50.015326,44.706378 L46.5881686,46.69194 C46.2209018,46.8922155 45.7626751,46.7889459 45.5159615,46.4502989 C45.2692478,46.1116518 45.3101223,45.6420505 45.611604,45.3514762 L51.1104138,40.3582483 L40.1678824,46.69194 C39.7810794,46.905781 39.2952656,46.7802087 39.0594746,46.4054405 C38.8236835,46.0306724 38.919517,45.5364074 39.2781235,45.2777507 L39.3933081,45.1989984 L36.8091679,46.6936156 C36.4230057,46.9171182 35.9300257,46.7966067 35.6894958,46.419906 C35.4489658,46.0432053 35.5457843,45.5432772 35.909393,45.284453 L42.152729,40.8558956 L26.9617243,49.6644186 C26.5680509,49.9054846 26.0542207,49.7805791 25.8140523,49.3854346 C25.5738839,48.99029 25.6983242,48.4745394 26.0919975,48.2334735 L27.8247737,47.1158617 L11.5420198,56.5527272 C11.4152978,56.6268519 11.2713536,56.6666667 11.1246845,56.6666667 L11.1246845,56.6666667 Z" id="Path" fill="#FF6C6C"></path>
            <path d="M30.8787167,13.3333333 C30.4808829,13.3318238 30.1332559,13.0410845 30.0301839,12.6236543 C29.9271119,12.2062242 30.0941298,11.7655166 30.4378628,11.5479185 L35.3119438,8.48283712 C35.5852636,8.29408618 35.9318391,8.28331208 36.2146476,8.4547745 C36.4974561,8.62623691 36.6709689,8.95233239 36.6665855,9.30413534 C36.6622022,9.65593828 36.4806285,9.97681253 36.1936516,10.1398968 L31.3195706,13.2049782 C31.1857312,13.2895646 31.0335568,13.3338687 30.8787167,13.3333333 Z" id="Path" fill="#FFFFFF"></path>
            <path d="M28.2931021,38.3333333 C27.9296592,38.3333333 27.6076708,38.1078889 27.4961821,37.7750628 C27.3846934,37.4422367 27.5091866,37.0782204 27.8043022,36.8741241 L29.8515702,35.4567906 L26.6191299,37.2510059 C26.2325251,37.4525849 25.749719,37.3319551 25.5138985,36.9748624 C25.278078,36.6177696 25.3696636,36.1459913 25.7235547,35.8948755 L28.4554774,34.0636162 L24.6321249,36.1863952 C24.2440291,36.3892462 23.7589037,36.2670471 23.5239073,35.9072442 C23.2889108,35.5474414 23.3849268,35.0738754 23.7432456,34.825433 L26.6475874,32.9216964 L22.7974513,35.0638027 C22.4076497,35.2814645 21.9087078,35.1630743 21.6687885,34.7959906 C21.4288692,34.428907 21.534129,33.944952 21.9068981,33.7012298 L26.8451161,30.4606901 L20.9108847,33.7576011 C20.5212226,33.9622925 20.0332444,33.8386497 19.7989083,33.4758512 C19.5645723,33.1130527 19.6654143,32.6373322 20.0287013,32.391807 L22.7823856,30.6314144 L19.3658083,32.5287085 C18.9792368,32.7408756 18.4876971,32.624875 18.2470362,32.2646846 C18.0063753,31.9044941 18.100761,31.4260854 18.4618633,31.1757993 L29.3426827,23.725135 L17.2080581,30.465522 C16.8142172,30.6985744 16.2985867,30.5803151 16.0563653,30.2013825 C15.8141439,29.8224499 15.9370558,29.326338 16.3308967,29.0932855 L17.2047102,28.5456794 L16.1082584,29.1528779 C15.7173103,29.366837 15.2205101,29.2452684 14.9833076,28.8775991 C14.7461051,28.5099297 14.8533159,28.0276256 15.226075,27.7854732 L19.2586741,25.2085033 L15.0051107,27.5648202 C14.6121943,27.7992069 14.0961891,27.6827504 13.8525809,27.3047073 C13.6089726,26.9266642 13.7300109,26.4301917 14.1229274,26.1958049 L16.6204939,24.6013048 L14.1547328,25.97032 C13.7768192,26.1787976 13.2958857,26.0735124 13.048925,25.7282384 C12.8019642,25.3829645 12.8715566,24.9131569 13.2089385,24.6480123 L19.4896823,19.7694861 L13.2290262,23.2467849 C12.84959,23.4589917 12.3642293,23.3531677 12.1169368,23.0043144 C11.8696444,22.655461 11.944414,22.1820677 12.2882538,21.9196454 L17.097576,18.2377996 L12.9126455,20.5586832 C12.5319621,20.763791 12.0513776,20.6531292 11.8084493,20.3044255 C11.565521,19.9557218 11.6417488,19.4859624 11.9835909,19.2251013 L14.0107712,17.712742 L13.2173084,18.1540481 C12.8549356,18.3435253 12.4031168,18.2507814 12.1526653,17.9355111 C11.9022139,17.6202408 11.9277872,17.1764234 12.2129251,16.8897223 L15.0251984,14.1742402 C14.6573032,14.1523733 14.3475809,13.9015184 14.2624494,13.5564631 C14.1773179,13.2114078 14.336819,12.8533853 14.6552505,12.6747658 L19.2921535,10.0977959 C19.6545263,9.9083187 20.1063452,10.0010626 20.3567966,10.3163329 C20.6072481,10.6316032 20.5816747,11.0754206 20.2965369,11.3621218 L17.8592333,13.7200492 L23.8855333,10.3764308 C24.266511,10.1672296 24.7507276,10.2765216 24.9952678,10.6269077 C25.2398079,10.9772938 25.1617013,11.4498909 24.8162618,11.7100127 L22.7857335,13.2223719 L26.00813,11.434599 C26.3872964,11.22656 26.8689679,11.3337984 27.1146118,11.6809439 C27.3602558,12.0280893 27.2873907,12.4985788 26.9472284,12.7617385 L22.1345583,16.4403631 L27.9516117,13.2191507 C28.3292743,13.0144001 28.8069242,13.1209721 29.0523807,13.4647514 C29.2978372,13.8085306 29.2298636,14.2757395 28.8957321,14.5414584 L22.6149884,19.4199846 L39.019916,10.3055641 C39.4117207,10.0869939 39.9131489,10.207928 40.1514716,10.578472 C40.3897943,10.9490159 40.2785477,11.4347359 39.9004253,11.6745794 L37.389467,13.2723007 L41.0722059,11.2316626 C41.463154,11.0177036 41.9599542,11.1392721 42.1971567,11.5069415 C42.4343592,11.8746109 42.3271484,12.356915 41.9543892,12.5990673 L37.9234642,15.1760372 L42.7193945,12.5120946 C43.1122815,12.2922682 43.6157018,12.4142785 43.8534674,12.7869516 C44.091233,13.1596246 43.9764457,13.6467567 43.594882,13.8843311 L42.7327863,14.4254948 L43.8074765,13.8279599 C44.194048,13.6157927 44.6855877,13.7317934 44.9262486,14.0919838 C45.1669095,14.4521742 45.0725238,14.930583 44.7114215,15.1808691 L33.8306021,22.6299228 L45.0462159,16.400098 C45.4365929,16.1927452 45.9273846,16.3162686 46.1622317,16.6809791 C46.3970788,17.0456895 46.2935098,17.5235114 45.9267253,17.7675026 L43.1546273,19.5391695 L45.4094679,18.2877284 C45.7992695,18.0700666 46.2982114,18.1884568 46.5381307,18.5555405 C46.77805,18.9226241 46.6727902,19.4065791 46.3000211,19.6503013 L41.368499,22.8827879 L45.3475309,20.6730362 C45.7373326,20.4553744 46.2362744,20.5737646 46.4761937,20.9408483 C46.716113,21.3079319 46.6108532,21.7918869 46.2380841,22.0356091 L43.3404382,23.9329032 L44.800142,23.1276001 C45.1878005,22.9191834 45.6771512,23.0383365 45.9151031,23.3990846 C46.1530549,23.7598327 46.0567676,24.2365851 45.6957171,24.4853411 L42.9554246,26.3166004 L43.4576163,26.0427973 C43.8439728,25.8272694 44.3381444,25.9415604 44.5804817,26.3024913 C44.822819,26.6634223 44.7279459,27.143836 44.3649092,27.3940959 L40.8914169,29.798731 C41.2454257,29.8458475 41.5292885,30.1040303 41.5980678,30.441454 C41.6668471,30.7788776 41.5053679,31.1210951 41.1960798,31.2933736 L28.718291,38.2189802 C28.5900529,38.2936935 28.4430186,38.3333333 28.2931021,38.3333333 L28.2931021,38.3333333 Z" id="Path" fill="#FFFFFF"></path>
            <path d="M89.0942638,88.3333333 C88.749757,88.3322312 88.4487271,88.1199473 88.3594713,87.81516 C88.2702154,87.5103726 88.4148457,87.1885892 88.7125034,87.0297096 L95.5169996,83.4293681 C95.753363,83.3024439 96.0458518,83.3012557 96.2834349,83.4262546 C96.5210181,83.5512535 96.6672671,83.7832734 96.6666667,84.0342379 C96.6660625,84.2852023 96.5187011,84.516631 96.2805203,84.6406718 L89.4760241,88.2396146 C89.360125,88.3013755 89.2283485,88.3337243 89.0942638,88.3333333 L89.0942638,88.3333333 Z" id="Path" fill="#C7E0EF"></path>
            <path d="M86.1368706,98.3333333 C85.8207987,98.3333333 85.5318544,98.1545454 85.3905028,97.8716367 C85.2491512,97.5887279 85.2796558,97.2501801 85.4692989,96.9971389 L85.9299234,96.3942175 L84.2309535,97.374591 C83.8789599,97.5780096 83.4317121,97.4980304 83.1719017,97.1852059 C82.9120913,96.8723814 82.915312,96.4177302 83.1795282,96.1086232 L85.3341157,93.5883786 L81.3520507,95.8898346 C80.9841536,96.1006455 80.5167703,96.0019009 80.2654206,95.660261 C80.0140709,95.3186211 80.0586448,94.842674 80.3690515,94.5537208 L83.0760545,92.0485075 L78.7485213,94.5537208 C78.3676015,94.773922 77.8812831,94.6603795 77.6370632,94.2942246 C77.3928434,93.9280697 77.4746089,93.4350726 77.8239345,93.1675028 L86.7043065,86.3700239 L75.4790891,92.8551862 C75.0900903,93.0734091 74.5983829,92.9469868 74.3626718,92.5681453 C74.1269607,92.1893038 74.2305606,91.691949 74.5978945,91.4389056 L76.6006095,90.0844202 L73.5414623,91.8631217 C73.1577524,92.0849559 72.6676943,91.9679618 72.4253781,91.5966731 C72.1830619,91.2253845 72.2730084,90.7293082 72.630227,90.4668828 L84.6748887,81.6284902 L70.0600761,90.0727292 C69.669726,90.3190084 69.1537809,90.2019859 68.9076806,89.811352 C68.6615802,89.4207181 68.7785178,88.904398 69.168868,88.6581188 L78.0675982,82.6138741 L67.4648913,88.7382856 C67.0764177,88.9686628 66.5752963,88.8479982 66.3340633,88.4659943 C66.0928303,88.0839905 66.1990168,87.5792571 66.5736831,87.3270154 L79.814967,78.1946778 L62.4764621,88.2155311 C62.0853301,88.4307995 61.5941755,88.2999112 61.3618251,87.9184901 C61.1294747,87.5370691 61.2382222,87.0402067 61.6086189,86.7908998 L67.4665602,83.0297395 L58.4877214,88.2071804 C58.0965894,88.4224488 57.6054349,88.2915604 57.3730845,87.9101394 C57.1407341,87.5287183 57.2494815,87.031856 57.6198783,86.7825491 L66.9992601,80.7600162 L54.1084514,88.2071804 C53.7183001,88.4222039 53.2281738,88.2926883 52.9949619,87.9129416 C52.76175,87.5331948 52.8676727,87.0370986 53.2356014,86.7858894 L70.3020709,75.6944749 L48.6410395,88.2071804 C48.2497073,88.4194101 47.7608082,88.2869131 47.5299722,87.906069 C47.2991362,87.5252249 47.40763,87.0301113 47.7765342,86.7808789 L65.0199101,75.7796522 L44.2333976,87.7946553 C43.841581,88.0178502 43.3434579,87.8892381 43.1084545,87.5042023 C42.873451,87.1191665 42.9865555,86.6169541 43.3638855,86.3700239 L67.2712955,71.0047156 L41.9035725,85.6652239 C41.5072311,85.9008956 40.9950221,85.7704135 40.7595216,85.3737841 C40.5240211,84.9771547 40.6544084,84.4645733 41.0507497,84.2289016 L42.4660016,83.363768 L41.3344677,84.0184637 C40.941414,84.2388556 40.4445117,84.1072132 40.2119118,83.7210694 C39.9793119,83.3349256 40.0950162,82.8337332 40.4733002,82.588822 L61.6403286,69.2059724 L41.2643726,80.9754646 C40.871614,81.1826057 40.3855481,81.0457275 40.1583736,80.6640105 C39.9311991,80.2822936 40.0424654,79.7894029 40.4115499,79.5424826 L43.0367754,77.9307953 L41.2643726,78.9529224 C40.8684921,79.1899776 40.3555359,79.060991 40.1186528,78.6648228 C39.8817698,78.2686546 40.0106626,77.7553255 40.4065431,77.5182702 L54.4038518,68.7734056 L41.2643726,76.3692124 C40.8709762,76.5826852 40.3793445,76.4476061 40.1500253,76.063038 C39.9207061,75.6784698 40.0353501,75.1813408 40.4098809,74.9362303 L46.6383245,71.0815421 L41.2643726,74.1779858 C40.8720298,74.3906734 40.3819125,74.2568498 40.1518798,73.8742263 C39.9218471,73.4916027 40.0333057,72.9955866 40.4048741,72.748344 L51.9955871,65.4565031 L41.2643726,71.656071 C40.8758845,71.8683289 40.3893764,71.7401157 40.1557463,71.3639063 C39.9221162,70.9876969 40.0226544,70.4943915 40.384847,70.2397904 L61.6703693,56.0135191 L41.2643726,67.8097335 C40.871319,68.0301254 40.3744167,67.898483 40.1418168,67.5123392 C39.9092169,67.1261954 40.0249212,66.6250031 40.4032052,66.3800918 L43.634252,64.3375078 L41.2643726,65.7070245 C40.8734296,65.9256182 40.3797677,65.7964223 40.1458126,65.4142871 C39.9118576,65.0321519 40.0210351,64.5333422 40.3931916,64.2840633 L48.3907001,59.0832404 L41.2643726,63.200141 C40.8772093,63.4189098 40.3866353,63.2954718 40.1489106,62.9194691 C39.911186,62.5434664 40.0098116,62.0469701 40.3731645,61.790541 L52.2459264,53.5901427 L41.2643726,59.9366831 C40.8755667,60.1584264 40.3811889,60.0337658 40.1438057,59.6541249 C39.9064225,59.2744839 40.0105575,58.775039 40.3798402,58.5220727 L45.5535206,55.026465 L41.2643726,57.4999456 C40.8812654,57.7195561 40.3935171,57.6025229 40.1515801,57.2329357 C39.9096431,56.8633485 39.9972562,56.3691279 40.3514684,56.1053769 L47.8065749,50.5939076 L41.2643726,54.3734394 C40.8885767,54.587464 40.411662,54.4787691 40.1655403,54.1230017 C39.9194186,53.7672342 39.9856281,53.2822569 40.3180898,53.0055929 L46.0642129,48.2707397 L41.2643726,51.0381654 C40.8914222,51.2531513 40.4162623,51.1490113 40.167244,50.7977095 C39.9182256,50.4464076 39.9770508,49.9632048 40.3030695,49.6820099 L42.6495838,47.6594677 L41.2643726,48.4594658 C40.91351,48.6610893 40.4686645,48.5817851 40.2089622,48.271314 C39.9492599,47.9608429 39.9495327,47.5086655 40.2096094,47.1985084 L41.775065,45.3413103 C41.4074175,45.320597 41.0967969,45.0611774 41.0106584,44.7029042 C40.9245199,44.344631 41.0832287,43.972208 41.4012248,43.7864079 L44.8208607,41.8106297 C45.1717233,41.6090061 45.6165689,41.6883103 45.8762711,41.9987814 C46.1359734,42.3092526 46.1357006,42.76143 45.8756239,43.071587 L44.5671834,44.6248193 L49.5022069,41.7772268 C49.8744968,41.5664299 50.3457796,41.6714828 50.5934681,42.0204784 C50.8411567,42.3694739 50.7850317,42.8493822 50.4635101,43.1317121 L48.1186647,45.1525842 L53.9599167,41.7772268 C54.3349953,41.567725 54.8077252,41.6773953 55.05243,42.0306828 C55.2971348,42.3839703 55.2338609,42.8654438 54.9061995,43.1434031 L49.1634143,47.874916 L59.7243979,41.7772268 C60.1075051,41.5576163 60.5952535,41.6746495 60.8371905,42.0442367 C61.0791275,42.4138239 60.9915144,42.9080445 60.6373022,43.1717956 L53.1788578,48.6916156 L65.1484177,41.7772268 C65.536006,41.5645985 66.0220408,41.6913043 66.2567017,42.0661485 C66.4913626,42.4409926 66.393237,42.9339279 66.0329501,43.1901671 L60.8592698,46.6857748 L69.3624638,41.7772268 C69.7485281,41.5662459 70.231954,41.6913997 70.4673439,42.0632685 C70.7027338,42.4351372 70.6092444,42.9260048 70.2536719,43.1851567 L58.379241,51.3872251 L75.01012,41.7772268 C75.3997435,41.5679495 75.8848541,41.6991698 76.1160654,42.0763804 C76.3472768,42.4535909 76.2443,42.9458039 75.881301,43.1985178 L67.8871304,48.3993407 L79.3493358,41.7772268 C79.7408762,41.5678152 80.2277135,41.7018558 80.4571049,42.0822282 C80.6864963,42.4626006 80.5781209,42.9561185 80.2105032,43.2051984 L76.987801,45.2411018 L82.9909392,41.7772268 C83.379938,41.5590038 83.8716453,41.6854262 84.1073564,42.0642677 C84.3430675,42.4431092 84.2394676,42.940464 83.8721337,43.1935074 L62.5849425,57.4181087 L89.661649,41.7772268 C90.0531894,41.5678152 90.5400267,41.7018558 90.7694181,42.0822282 C90.9988094,42.4626006 90.8904341,42.9561185 90.5228164,43.2051984 L78.9304345,50.4970393 L93.617011,42.014387 C94.0112246,41.7921395 94.5106107,41.9247824 94.7428038,42.3134111 C94.9749969,42.7020397 94.8553918,43.2050478 94.4731717,43.447369 L88.2547417,47.2886961 L95.4928874,43.1133406 C95.8870442,42.8858976 96.3906177,43.0163586 96.6249752,43.406631 C96.8593326,43.7969034 96.7380799,44.3031164 96.3523859,44.5446525 L82.3534082,53.2811664 L96.7379085,44.9722089 C97.1313049,44.758736 97.6229366,44.8938151 97.8522559,45.2783833 C98.0815751,45.6629514 97.9669311,46.1600804 97.5924003,46.4051909 L94.983864,48.0068573 L97.0683565,46.8026847 C97.4614101,46.5822928 97.9583125,46.7139352 98.1909124,47.100079 C98.4235122,47.4862228 98.307808,47.9874152 97.9295239,48.2323265 L76.7591577,61.6201865 L97.0733633,49.8840971 C97.4669565,49.6735835 97.9563953,49.8102398 98.184229,50.1942622 C98.4120628,50.5782846 98.2976357,51.0737249 97.9245172,51.3187493 L96.5042585,52.1905635 L97.0733633,51.8565351 C97.4644953,51.6412666 97.9556499,51.772155 98.1880003,52.1535761 C98.4203507,52.5349971 98.3116032,53.0318595 97.9412064,53.2811664 L74.0321275,68.6464748 L97.0733633,55.3387816 C97.4646954,55.1265519 97.9535946,55.2590489 98.1844306,55.639893 C98.4152666,56.0207371 98.3067728,56.5158506 97.9378686,56.765083 L80.6994994,67.7629695 L97.0733633,58.303284 C97.4643063,58.0846903 97.9579683,58.2138862 98.1919233,58.5960214 C98.4258784,58.9781566 98.3167008,59.4769662 97.9445443,59.7262452 L80.8780749,70.8176596 L97.0666876,61.4648632 C97.4572553,61.255619 97.9431389,61.3882708 98.1734131,61.7670119 C98.4036872,62.145753 98.2980785,62.6385544 97.9328618,62.8894945 L88.5484732,68.9153677 L97.0600119,63.9934586 C97.4528971,63.7630485 97.9578252,63.8903975 98.1946562,64.2796296 C98.4314872,64.6688616 98.312758,65.1762311 97.927855,65.41976 L92.1016234,69.1675591 L97.0733633,66.2949145 C97.4618369,66.0645373 97.9629583,66.185202 98.2041913,66.5672058 C98.4454243,66.9492096 98.3392378,67.453943 97.9645715,67.7061847 L84.7182808,76.8502133 L97.0683565,69.7120255 C97.4578313,69.4810999 97.9602646,69.6030626 98.2007255,69.9869016 C98.4411865,70.3707405 98.3319616,70.8764418 97.9545579,71.126636 L89.0608345,77.1675403 L97.0716944,72.5429166 C97.4554043,72.3210824 97.9454624,72.4380765 98.1877786,72.8093651 C98.4300948,73.1806538 98.3401483,73.67673 97.9829297,73.9391554 L85.9416059,82.7708675 L97.0733633,76.3391498 C97.4623621,76.1209268 97.9540695,76.2473492 98.1897806,76.6261907 C98.4254917,77.0050321 98.3218918,77.502387 97.9545579,77.7554304 L95.9351536,79.113256 L97.0733633,78.4568901 C97.4539697,78.2413723 97.9362782,78.3564606 98.178754,78.7206581 C98.4212297,79.0848555 98.3416125,79.5746075 97.9962811,79.8431082 L88.9373337,86.7691879 C89.307995,86.6729867 89.6965148,86.8415905 89.8796577,87.1781232 C90.0628005,87.5146558 89.9935586,87.9327382 89.7117168,88.1921491 L87.0063827,90.6973624 L88.7287176,89.7036278 C89.0807112,89.5002093 89.5279589,89.5801884 89.7877694,89.8930129 C90.0475798,90.2058375 90.0443591,90.6604887 89.7801429,90.9695956 L87.6255554,93.4898402 L88.7287176,92.8518459 C89.0728385,92.6562681 89.5069071,92.7294758 89.7679647,93.0271198 C90.0290223,93.3247638 90.045262,93.7649737 89.8068458,94.0810706 L88.9640366,95.1833644 C89.2918116,95.2686735 89.535552,95.5437784 89.5809364,95.8796468 C89.6263207,96.2155153 89.4643462,96.5455223 89.1709838,96.7148848 L86.5541029,98.2280337 C86.4266079,98.299003 86.2827479,98.335282 86.1368706,98.3333333 L86.1368706,98.3333333 Z" id="Path" fill="#D4E8FA"></path>
            <path d="M72.8624242,79.9983907 C72.5037323,79.9993927 72.1841331,79.7803199 72.0674127,79.453441 C71.9506922,79.1265621 72.062723,78.7643341 72.3460923,78.5523891 L73.7877983,77.4699074 L70.4852857,79.306895 C70.1078071,79.5139358 69.6287568,79.4087877 69.381533,79.0646292 C69.1343093,78.7204706 69.2008152,78.2513185 69.5347656,77.9836823 L75.6754273,73.1367493 L67.7091635,77.566846 C67.32457,77.7825169 66.8321427,77.6709842 66.5874866,77.3127911 C66.3428305,76.9545979 66.4312172,76.4745878 66.7888187,76.2193987 L71.7761155,72.6439778 L64.5625564,76.654007 C64.1799309,76.8670229 63.6914349,76.7571853 63.4461214,76.4029783 C63.200808,76.0487713 63.2829397,75.5718611 63.6338295,75.3130222 L70.6965124,70.1041849 L61.2986011,75.3307943 C60.9099099,75.5457747 60.4145152,75.428063 60.1740594,75.0635898 C59.9336035,74.6991166 60.033159,74.2168312 60.4000495,73.9688061 L61.5115042,73.2207628 L61.2918955,73.3419361 C60.915378,73.5471379 60.4386781,73.4425202 60.1914731,73.1004348 C59.9442681,72.7583493 60.0077529,72.2911548 60.3380226,72.0219547 L67.5415233,66.2734922 L61.2868663,69.7535901 C60.9262525,69.9545589 60.4672231,69.8698072 60.2092108,69.5546201 C59.9511985,69.239433 59.972505,68.7894635 60.2592317,68.4982345 L62.2507976,66.4754478 L61.2684259,67.0215356 C60.9770498,67.1845345 60.6127295,67.1635622 60.3435575,66.968295 C60.0743856,66.7730278 59.9526799,66.441419 60.0345938,66.1264686 L60.4989572,64.3363347 C60.335769,64.2681109 60.199904,64.1507743 60.1117083,64.0018963 C59.8813962,63.6158916 60.0186095,63.1230617 60.4184899,62.9000269 L61.2566911,62.4347213 C61.5476889,62.2731947 61.910628,62.2946411 62.1789709,62.4892198 C62.4473137,62.6837985 62.5692572,63.0139464 62.4888467,63.3281726 L62.1418315,64.6691574 L66.4434798,62.2780038 C66.8039662,62.0794425 67.2609601,62.1651542 67.5178741,62.4795125 C67.7747881,62.7938707 67.7541858,63.2421248 67.469438,63.5333595 L65.4711664,65.5545305 L75.2529739,60.1081935 C75.6302047,59.8984301 76.1112739,60.0020382 76.3599696,60.3466077 C76.6086653,60.6911772 76.5421224,61.161898 76.2068468,61.4297906 L68.9983169,67.1879469 L77.5479687,62.4331057 C77.93554,62.2262804 78.4231873,62.3458399 78.6610909,62.7060169 C78.8989946,63.0661938 78.8049934,63.5425993 78.4465203,63.7934782 L77.3384184,64.5399059 L81.0097394,62.4977315 C81.3923649,62.2847155 81.8808609,62.3945531 82.1261744,62.7487601 C82.3714878,63.1029671 82.2893561,63.5798774 81.9384663,63.8387162 L74.874107,69.0491692 L83.4421992,64.2830184 C83.8267927,64.0673476 84.31922,64.1788802 84.5638761,64.5370734 C84.8085322,64.8952666 84.7201454,65.3752766 84.362544,65.6304658 L79.3936876,69.2026554 L83.7523336,66.7791889 C84.1295706,66.5756687 84.605533,66.682045 84.8513212,67.0248097 C85.0971095,67.3675744 85.0320834,67.8342705 84.7011773,68.1024016 L78.5605156,72.9493346 L83.3919071,70.2609024 C83.7731964,70.0481047 84.2603431,70.156136 84.5067823,70.5081409 C84.7532215,70.8601457 84.6748137,71.3359422 84.3273396,71.5970403 L82.878928,72.6843689 L83.1555344,72.5324983 C83.5257082,72.3155482 84.0064355,72.4062259 84.2644303,72.741665 C84.522425,73.0771041 84.4726617,73.5467562 84.1496409,73.8250138 L82.8202539,75.0319001 L82.9023976,74.986662 C83.1622308,74.8274731 83.491705,74.8183865 83.7605587,74.9629946 C84.0294124,75.1076027 84.1943634,75.3826254 84.1901964,75.6793292 C84.1860293,75.9760331 84.0134151,76.2466523 83.7405988,76.3841944 L77.4322969,79.8852956 C77.0622687,80.098705 76.5846076,80.0067134 76.328097,79.6726406 C76.0715863,79.3385677 76.1199363,78.8714356 76.4398667,78.5927802 L77.765901,77.3891251 L73.2815248,79.8852956 C73.1548179,79.9584037 73.0100997,79.9974562 72.8624242,79.9983907 L72.8624242,79.9983907 Z" id="Path" fill="#FFFFFF"></path>
            <path d="M69.1471222,60 C68.8127994,60.0002441 68.5124006,59.7855302 68.3899101,59.4587728 C68.2674197,59.1320154 68.3478004,58.7598054 68.5925248,58.5205471 L70.780013,56.3816617 L70.737727,56.405579 C70.3958085,56.611818 69.9623028,56.5306984 69.7092208,56.21312 C69.4561387,55.8955416 69.4564046,55.433013 69.7098515,55.1157559 L71.1735983,53.2929199 C70.8826584,53.1713553 70.6840068,52.8851278 70.6628333,52.5569833 C70.6416598,52.2288388 70.8017259,51.9170725 71.0743888,51.7553824 L73.7871994,50.1119258 C74.1286831,49.9077009 74.5603415,49.9891833 74.8127668,50.305518 C75.0651921,50.6218528 75.0661636,51.0825341 74.8150749,51.4000405 L73.949838,52.478025 L76.1714803,51.1318256 C76.5303187,50.909687 76.9909362,51.0082673 77.2384287,51.3601714 C77.4859212,51.7120756 77.4402654,52.2035199 77.132674,52.4985255 L74.9451858,54.6408277 L77.0838824,53.3441711 C77.3359633,53.1758455 77.6556073,53.1662373 77.9164395,53.3191452 C78.1772717,53.4720532 78.3373012,53.7628609 78.3333333,54.0765942 C78.3292158,54.3903275 78.1617517,54.676479 77.8970751,54.8219154 L69.5520921,59.8838303 C69.4293195,59.9596446 69.2895385,59.9997421 69.1471222,60 L69.1471222,60 Z" id="Path" fill="#FFFFFF"></path>
            <path d="M60.1384666,78.3333333 C59.8454548,78.3336394 59.5734697,78.1815063 59.4208035,77.9319127 C59.2681374,77.6823191 59.2568677,77.3713598 59.3910674,77.1114116 L60.4340671,75.0849332 L55.4038187,77.9830153 C55.0398681,78.1924567 54.5768297,78.1012576 54.3198983,77.7695284 C54.0629669,77.4377993 54.09121,76.9676256 54.3860122,76.6689052 L57.5066137,73.5227513 L54.6043535,75.1989121 C54.2336308,75.4203151 53.7550732,75.3248778 53.4980811,74.9782918 C53.241089,74.6317057 53.2895298,74.1470764 53.6100606,73.8579835 L56.5778232,71.0856135 L54.6043535,72.2203744 C54.231721,72.4319656 53.759211,72.3294569 53.5082268,71.982575 C53.2572426,71.6356932 53.3083804,71.1558293 53.6268561,70.8693887 L55.7430875,68.9954409 L54.6043535,69.6491437 C54.2261664,69.8639396 53.7462169,69.754853 53.4985292,69.3978034 C53.2508414,69.0407539 53.3174722,68.5540289 53.6520494,68.2763679 L54.3003552,67.745025 C54.0092273,67.7854413 53.7181141,67.6710109 53.5328014,67.443316 C53.2716008,67.1220076 53.2844412,66.6585487 53.5630333,66.3521353 L55.4810779,64.2401727 L54.6043535,64.7430209 C54.2698198,64.936452 53.8461832,64.8769442 53.5781492,64.5988711 C53.3095034,64.3192965 53.2678397,63.8924129 53.4773763,63.566356 L53.9980364,62.7584465 C53.6879214,62.6507102 53.4691762,62.3724713 53.4381122,62.0462356 C53.4070481,61.7199999 53.5693646,61.4056226 53.8535952,61.241521 L55.8035513,60.1184932 C56.1379402,59.9286202 56.5588488,59.9898002 56.8250768,60.266974 C57.0913048,60.5441479 57.134755,60.9664189 56.9305285,61.2918058 L56.7625736,61.5666962 L59.2818967,60.1151409 C59.6384839,59.9049315 60.0957884,59.9893408 60.3534488,60.3129279 C60.6141532,60.6335323 60.6020369,61.0958664 60.3248965,61.4024324 L58.4068518,63.514395 L62.0279589,61.4225463 C62.4063866,61.2038223 62.889669,61.3115439 63.1388876,61.6701677 C63.3881061,62.0287914 63.3198311,62.5182624 62.9819426,62.7953221 L62.3554709,63.3082273 C62.7237257,63.2508447 63.0858167,63.4425627 63.2446867,63.7790443 C63.4035567,64.1155259 63.3211876,64.5162501 63.0424063,64.7631349 L60.9278545,66.6337303 L62.0615499,65.9817038 C62.4322725,65.7603009 62.9108301,65.8557381 63.1678222,66.2023241 C63.4248143,66.5489102 63.3763736,67.0335396 63.0558427,67.3226324 L60.084721,70.1000309 L62.0615499,68.9619177 C62.4253614,68.7550971 62.886248,68.8473229 63.1420423,69.1781297 C63.3978365,69.5089366 63.3703813,69.9772476 63.0776768,70.2760278 L59.9587548,73.4288863 L62.0615499,72.217022 C62.3843005,72.0238108 62.7964449,72.0684981 63.070088,72.3263741 C63.343731,72.5842501 63.4120361,72.9923292 63.237234,73.3249643 L62.1740796,75.3665282 C62.5751243,75.2469311 63.0031895,75.440328 63.1777619,75.8199849 C63.3523344,76.1996418 63.2201088,76.6496312 62.8677332,76.875073 L60.5583537,78.2059446 C60.4321799,78.2847999 60.2872691,78.3287639 60.1384666,78.3333333 L60.1384666,78.3333333 Z" id="Path" fill="#3FA2FF"></path>
            <g id="Group" transform="translate(0.000000, -0.000000)" fill="#262626">
                <path d="M47.8719179,18.6831576 C48.2347057,9.54594489 36.0563513,5.28728356 30.2201271,12.1685568 C16.464145,0.408732139 5.08126114,21.2794612 18.0983543,31.0760265 C21.6530093,33.7726306 26.7520087,39.1707716 31.5780852,37.4081133 C39.243226,33.8926624 47.6189649,27.8088605 47.8719179,18.6831576 Z M30.3748944,36.495543 C6.1180355,28.1377146 14.1559491,-0.434778773 28.9071015,14.3488598 C32.3652349,15.3732405 33.6682755,7.27849548 40.7010339,10.9550849 C52.3851315,18.7653712 40.2234187,33.3451202 30.3748944,36.495543 L30.3748944,36.495543 Z" id="Shape"></path>
                <path d="M99.4593471,53.6419988 C100.336362,44.3321376 98.4891393,40.7542044 88.5457576,41.8114705 L59.2564659,41.8114705 C61.3050521,-16.2312882 62.3401623,4.33031796 8.49945462,0.704700881 C-5.56106958,0.282123289 2.55339556,22.4370278 0.524779275,31.2618291 C0.401631116,37.6958607 -0.929700327,47.8919838 8.87721992,46.0109381 C6.40926425,69.6308879 29.5777597,41.6092252 40.7376455,46.0257365 C41.1869699,53.9938727 37.0315516,83.9590635 43.9444901,86.8217389 C51.1170383,87.7540405 58.579151,86.8316046 65.831579,87.1423717 C74.3038395,90.1744071 93.7645769,106.973922 91.1385256,87.1308618 C105.711612,88.6123498 97.42241,62.7808558 99.4593471,53.6419988 Z M34.2407481,45.1082334 C29.3347917,44.7316954 11.5082637,60.4163944 11.2603032,52.0569217 C10.6445624,48.0416125 13.4669851,44.2005959 7.58083592,45.1082334 C-1.61700018,44.6396162 4.6868542,14.7023781 2.93615335,6.96937257 C2.54840307,3.37170809 4.97142629,0.763894629 8.72245264,1.63042533 C23.2439504,1.68139773 37.7754331,1.54985606 52.2936024,1.63042533 C61.2418139,0.418597764 55.8083174,34.7822129 56.9699041,41.8114705 C51.9191655,42.2176054 44.175809,40.2872315 41.1154108,45.1000121 C38.8255207,45.0737037 36.5273098,45.0293084 34.2407481,45.1082334 Z M97.0496372,80.8941428 C96.5853354,92.4188367 86.9614732,78.8749782 88.7288157,93.8164668 C88.6223092,95.0430929 88.1996115,96.2499876 86.6902144,95.7895918 C80.5710823,92.8299044 74.6499857,89.2289514 68.4093696,86.494529 C61.1985456,83.9541307 44.9047129,91.0869773 42.8777608,81.2641037 C42.4966672,69.6555519 42.8777608,57.9532768 42.9077158,46.3496579 C45.4971554,39.142819 56.9316284,44.1562006 63.0008356,42.7322621 C108.470797,41.5862054 95.1358483,40.7246075 97.0496372,80.8941428 L97.0496372,80.8941428 Z" id="Shape"></path>
                <path d="M80.7974086,61.4753048 L76.8034143,61.4753048 C84.0408649,49.483638 73.7779636,46.0734204 70.1933537,54.3556123 C68.7405383,57.2593945 68.940238,62.5654563 64.4353452,61.4753048 C63.8445669,58.4728663 59.7523868,59.7718403 57.5140859,59.5021799 C52.9925514,59.041784 53.7347687,63.8907386 53.7697162,66.8882442 C54.4986201,70.1767858 51.7061524,76.7308491 56.2326793,77.6565736 C58.8620589,77.3507392 63.147282,78.8075631 64.3870844,75.6949585 C67.512385,75.8758283 69.3446299,79.1380616 72.6380111,78.9835001 C76.7618102,78.7352152 83.6680921,80.5669329 85.1192433,75.3282862 C85.1824816,70.5220826 89.0383503,60.7123632 80.7974086,61.4753048 L80.7974086,61.4753048 Z M62.0872094,63.4730938 C62.0272995,67.5327984 62.2020367,71.6336097 62.0256353,75.6752273 C60.725923,76.3970622 58.6224193,75.7360653 57.0547765,75.9498205 C55.6086177,76.4085721 55.8216308,61.4802376 56.745242,61.2237314 C58.8137982,61.3750043 62.8077925,60.0579434 62.0872094,63.4730938 L62.0872094,63.4730938 Z M83.6364729,66.9260624 C82.6379744,76.0945163 84.6349715,79.0936662 73.4850707,77.9032142 C70.3231585,77.2241304 68.0715442,73.9997154 64.5168892,74.6294711 C64.5302026,70.6108733 64.5168892,66.595564 64.5168892,62.5769662 C72.556467,64.1751974 70.1467571,53.303279 74.9012745,51.0884463 C79.9536773,52.9201639 75.017766,58.8937997 74.2655637,62.2020725 C77.2976711,63.3826589 84.8097088,60.7255173 83.6364729,66.9260624 Z" id="Shape"></path>
            </g>
        </g>
    </g>
</svg>