<?xml version="1.0" encoding="UTF-8"?>
<svg width="85px" height="100px" viewBox="0 0 85 100" version="1.1" xmlns="http://www.w3.org/2000/svg" xmlns:xlink="http://www.w3.org/1999/xlink">
    <title>role-pm</title>
    <g id="Page-1" stroke="none" stroke-width="1" fill="none" fill-rule="evenodd">
        <g id="role-pm" transform="translate(0.000000, 0.000000)" fill-rule="nonzero">
            <path d="M9.95146561,99.4048977 C9.57361895,99.4048977 9.24125484,99.155356 9.13802246,98.7918838 C9.03479007,98.4284116 9.18588042,98.0406324 9.50780789,97.8428151 L32.9390082,83.3893577 L5.75611679,99.0793212 C5.35828273,99.2919485 4.86357031,99.1539201 4.63328173,98.7660419 C4.40299316,98.3781637 4.51865312,97.8777489 4.89579195,97.6302643 L26.0192973,84.7017748 L3.52264601,97.6909931 C3.12481194,97.9036204 2.63009952,97.765592 2.39981095,97.3777138 C2.16952238,96.9898356 2.28518234,96.4894207 2.66232116,96.2419361 L21.6586312,84.6612889 L2.41265827,95.7729747 C2.01419715,95.9974538 1.50943031,95.863479 1.27473536,95.4709483 C1.04004041,95.0784175 1.16093419,94.570359 1.54727268,94.3256047 L34.0506828,74.2513582 L2.17986448,92.6454409 C1.78003515,92.8681664 1.27553779,92.7313867 1.04296527,92.3372037 C0.810392747,91.9430208 0.934619348,91.4352865 1.32291346,91.1930101 L4.64781596,89.1906462 L2.17986448,90.6143995 C1.7787868,90.8515058 1.26143645,90.7185807 1.02433013,90.3175031 C0.78722381,89.9164254 0.920148865,89.399075 1.32122655,89.1619687 L11.5776483,82.9591952 L2.17986448,88.3843025 C1.78140336,88.6087815 1.27663653,88.4748068 1.04194158,88.0822761 C0.807246626,87.6897453 0.928140407,87.1816868 1.3144789,86.9369325 L37.782131,64.2817115 L2.17986448,84.8367277 C1.78241344,85.0556292 1.28300603,84.9208708 1.04962253,84.531747 C0.816239031,84.1426231 0.932522786,83.6385937 1.31279199,83.3910446 L39.0439408,59.9041762 L2.17986448,81.1862513 C1.78203042,81.3988786 1.287318,81.2608502 1.05702942,80.872972 C0.826740848,80.4850938 0.942400812,79.984679 1.31953964,79.7371943 L25.2129536,65.1234803 L2.17986448,78.4214034 C1.78287399,78.6306244 1.29157077,78.4923718 1.06194856,78.1068221 C0.832326348,77.7212725 0.944791461,77.223433 1.31785272,76.9740334 L29.6866429,59.5414903 L2.17986448,75.4220748 C1.78241344,75.6409764 1.28300603,75.5062179 1.04962253,75.1170941 C0.816239031,74.7279702 0.932522786,74.2239408 1.31279199,73.9763917 L40.4929977,49.5229231 L2.17986448,71.64508 C1.78008542,71.8728926 1.27148974,71.7382566 1.03678699,71.3424833 C0.802084246,70.94671 0.927890915,70.4358587 1.31953964,70.1943362 L24.8013473,55.8404065 L2.17986448,68.9004751 C1.78140336,69.1249541 1.27663653,68.9909794 1.04194158,68.5984486 C0.807246626,68.2059179 0.928140407,67.6978593 1.3144789,67.453105 L37.3654639,45.0728506 L2.17986448,65.3798908 C1.7787868,65.6169972 1.26143645,65.4840721 1.02433013,65.0829944 C0.78722381,64.6819167 0.920148865,64.1645664 1.32122655,63.9274601 L14.6208365,55.8657102 L2.17986448,63.0553268 C1.78203042,63.2679542 1.287318,63.1299258 1.05702942,62.7420475 C0.826740848,62.3541693 0.942400812,61.8537545 1.31953964,61.6062699 L26.8593792,45.960166 L2.17986448,60.2078203 C1.78329428,60.4226434 1.28789603,60.2874761 1.05538479,59.9010108 C0.822873546,59.5145455 0.935533102,59.0135491 1.31110508,58.7638241 L41.5068315,33.6153479 L2.17986448,56.3211763 C1.78127346,56.5415475 1.27972161,56.4056764 1.04686843,56.0142461 C0.814015247,55.6228158 0.933973896,55.117222 1.31785272,54.8721193 L29.2767234,37.6656224 L2.17986448,53.3066655 C1.78018429,53.5461009 1.2620787,53.4161969 1.02264325,53.0165167 C0.7832078,52.6168365 0.913111814,52.0987309 1.31279199,51.8592954 L33.8077676,31.6163578 L2.17986448,49.8603053 C1.78203042,50.0729327 1.287318,49.9349043 1.05702942,49.5470261 C0.826740848,49.1591478 0.942400812,48.658733 1.31953964,48.4112484 L16.5725931,39.0674458 L2.17986448,47.3839193 C1.77925263,47.6219573 1.26152466,47.4901651 1.02348668,47.0895533 C0.785448713,46.6889414 0.917240877,46.1712134 1.31785272,45.9331755 L14.9042377,37.5880244 L2.17986448,44.9345239 C1.78348942,45.1524975 1.28573609,45.0189741 1.05167079,44.6318835 C0.817605491,44.2447929 0.930578069,43.7419768 1.30773126,43.4922146 L26.9487855,27.2540048 L2.17986448,41.5556402 C1.7830883,41.7675635 1.28982432,41.6308249 1.05878859,41.2448646 C0.827752863,40.8589043 0.940254451,40.3595545 1.3144789,40.1099571 L14.0675296,32.1730386 L2.17986448,39.0370814 C1.78140336,39.2615604 1.27663653,39.1275857 1.04194158,38.7350549 C0.807246626,38.3425242 0.928140407,37.8344656 1.3144789,37.5897113 L7.81752261,33.5579929 L2.17986448,36.8120452 C1.78140336,37.0365242 1.27663653,36.9025494 1.04194158,36.5100187 C0.807246626,36.117488 0.928140407,35.6094294 1.3144789,35.3646751 L5.01724957,33.0671017 L2.17986448,34.7050927 C1.78241344,34.9239943 1.28300603,34.7892359 1.04962253,34.400112 C0.816239031,34.0109882 0.932522786,33.5069587 1.31279199,33.2594096 L5.60598167,30.5738466 L2.17986448,32.5509068 C1.78488378,32.7754549 1.28301448,32.6467878 1.0447907,32.2599015 C0.806566921,31.8730151 0.917604222,31.3669532 1.29592288,31.1153451 L15.8607165,21.5741739 L2.17986448,29.4722934 C1.78366942,29.6937534 1.28326436,29.5619703 1.04754008,29.1740926 C0.811815797,28.7862149 0.925310394,28.2813476 1.30435743,28.031671 L6.09349909,24.9716136 L2.17986448,27.2253273 C1.78704978,27.4533012 1.28425128,27.3293021 1.04247748,26.9448272 C0.800703677,26.5603523 0.906777118,26.0534691 1.28242758,25.7982002 L13.126233,17.7010252 L2.17986448,24.0218824 C1.78704978,24.2498563 1.28425128,24.1258572 1.04247748,23.7413823 C0.800703677,23.3569074 0.906777118,22.8500243 1.28242758,22.5947553 L8.56988512,17.6048712 L2.17986448,21.2958335 C1.79246948,21.5274708 1.29137517,21.4130752 1.04288253,21.03627 C0.794389895,20.6594648 0.886580657,20.153814 1.25206318,19.8889493 L9.48081731,13.740157 L2.17986448,17.9574357 C1.79977783,18.1775626 1.31437685,18.0691501 1.06406575,17.7082262 C0.813754654,17.3473023 0.882329049,16.8546919 1.22169877,16.5758552 L7.13769728,11.7006811 L2.17986448,14.5633698 C1.79570244,14.779568 1.30984947,14.6634796 1.06491867,14.2969676 C0.819987863,13.9304556 0.898598277,13.4371504 1.24531553,13.1649202 L1.87622042,12.6774028 C1.53840244,12.7259031 1.20464876,12.5660482 1.03069286,12.2724283 C0.856736953,11.9788085 0.876865043,11.6092954 1.08168512,11.3363082 L3.05705845,8.69966556 C2.63781349,8.90509558 2.13141436,8.73176432 1.92598434,8.31251937 C1.72055431,7.89327442 1.89388554,7.38687529 2.31313049,7.18144524 L5.77467282,5.19088971 C6.12172851,4.98863307 6.56326646,5.05919006 6.83000804,5.35953042 C7.09674962,5.65987079 7.11467503,6.10665119 6.87285218,6.42739582 L4.91266106,9.05223006 L11.6603069,5.15209075 C12.044775,4.93140211 12.5344682,5.04599789 12.7810868,5.41437056 C13.0277054,5.78274324 12.9470741,6.27916064 12.5965428,6.55054036 L12.3300108,6.75634356 L15.1066671,5.15715148 C15.4869939,4.93271856 15.9760484,5.03964159 16.2280151,5.4023142 C16.4799817,5.76498681 16.4095486,6.2606137 16.0665197,6.53873198 L10.1420866,11.3987239 L20.9821797,5.15715148 C21.368589,4.93414537 21.8618312,5.05062641 22.1076542,5.42293661 C22.3534773,5.79524681 22.2668465,6.2945972 21.909981,6.56234874 L13.6846007,12.7060803 L26.7649122,5.15715148 C27.1569617,4.93304553 27.6559654,5.05748007 27.8968859,5.43942719 C28.1378064,5.82137432 28.0351601,6.32531124 27.664036,6.58259167 L20.3715177,11.5674151 L31.4882643,5.15715148 C31.8803138,4.93304553 32.3793175,5.05748007 32.620238,5.43942719 C32.8611585,5.82137432 32.7585122,6.32531124 32.3873881,6.58259167 L20.5418958,14.6797667 L37.0365161,5.15715148 C37.4336346,4.92442801 37.9440032,5.05305563 38.183386,5.44619582 C38.4227688,5.83933601 38.3027603,6.35179977 37.9137101,6.59777388 L33.1380637,9.65108363 L40.9299078,5.15715148 C41.3248885,4.93260339 41.8267578,5.06127047 42.0649816,5.4481568 C42.3032053,5.83504313 42.192168,6.34110512 41.8138494,6.59271314 L27.2507427,16.122076 L46.2622349,5.15715148 C46.6606387,4.92742483 47.1696381,5.05919573 47.4065207,5.45338673 C47.6434032,5.84757774 47.5208441,6.35887335 47.1309943,6.60283461 L42.831057,9.28502384 L49.9919962,5.15715148 C50.3916764,4.91771607 50.909782,5.04762011 51.1492174,5.44730029 C51.3886528,5.84698047 51.2587488,6.36508605 50.8590687,6.60452152 L47.1478634,8.90040803 L53.6424726,5.15715148 C54.0421528,4.91771607 54.5602584,5.04762011 54.7996938,5.44730029 C55.0391293,5.84698047 54.9092252,6.36508605 54.5095451,6.60452152 L48.0081883,10.6294923 L57.4936915,5.15715148 C57.8911425,4.93824993 58.3905499,5.07300837 58.6239334,5.46213221 C58.8573169,5.85125606 58.7410332,6.35528551 58.360764,6.60283461 L45.5925311,14.5448138 L61.8594183,5.15715148 C62.2565813,4.93017763 62.7622784,5.06116256 62.9993119,5.45240504 C63.2363453,5.84364753 63.1183058,6.35252206 62.7332385,6.59946079 L37.0921842,22.8359837 L67.7113142,5.15715148 C68.1114602,4.91864772 68.6291882,5.04968465 68.867692,5.44983066 C69.1061958,5.84997666 68.9751589,6.36770462 68.5750129,6.60620843 L54.9801934,14.9513595 L71.9538966,5.15715148 C72.3517306,4.94452415 72.8464431,5.08255257 73.0767316,5.47043078 C73.3070202,5.85830899 73.1913602,6.35872381 72.8142214,6.60620843 L57.5577941,15.9533849 L76.2555208,5.15715148 C76.6539246,4.92742483 77.162924,5.05919573 77.3998065,5.45338673 C77.6366891,5.84757774 77.5141299,6.35887335 77.1242802,6.60283461 L44.622557,26.8542068 L80.3176036,6.24520938 C80.7161946,6.02483815 81.2177465,6.16070921 81.4505997,6.55213951 C81.6834529,6.94356981 81.5634942,7.44916364 81.1796154,7.69426633 L53.2460484,24.8940156 L81.8678753,8.36228327 C82.266279,8.13255662 82.7752784,8.26432752 83.012161,8.65851852 C83.2490436,9.05270952 83.1264844,9.56400513 82.7366347,9.8079664 L42.5307868,34.9631902 L82.2069445,12.0566194 C82.6067235,11.8288068 83.1153192,11.9634428 83.3500219,12.3592161 C83.5847247,12.7549894 83.458918,13.2658407 83.0672693,13.5073632 L57.5274297,29.1534671 L82.2069445,14.9041259 C82.6080221,14.6670197 83.1253725,14.7999447 83.3624788,15.2010224 C83.5995851,15.6021 83.46666,16.1194504 83.0655824,16.3565567 L69.7659724,24.4183066 L82.2069445,17.2354376 C82.6054056,17.0109586 83.1101724,17.1449333 83.3448674,17.537464 C83.5795623,17.9299948 83.4586685,18.4380533 83.07233,18.6828076 L47.0095367,41.0698097 L82.2069445,20.7492742 C82.6067235,20.5214616 83.1153192,20.6560976 83.3500219,21.0518709 C83.5847247,21.4476441 83.458918,21.9584955 83.0672693,22.200018 L59.6191999,36.5387655 L82.2069445,23.4921922 C82.4654922,23.3373046 82.7870317,23.3321162 83.0504422,23.4785813 C83.3138527,23.6250465 83.4791157,23.9009136 83.4840887,24.2022663 C83.4888411,24.5036191 83.3325647,24.7846747 83.074017,24.9395623 L43.8954981,49.389657 L82.2069445,27.269187 C82.6055355,27.0488158 83.1070873,27.1846868 83.3399405,27.5761171 C83.5727937,27.9675474 83.452835,28.4731413 83.0689562,28.7182439 L54.6866708,46.1592216 L82.2069445,30.2702025 C82.6067235,30.0423899 83.1153192,30.1770259 83.3500219,30.5727992 C83.5847247,30.9685725 83.458918,31.4794238 83.0672693,31.7209463 L59.1738553,46.3329735 L82.2069445,33.0350504 C82.6043955,32.8161488 83.1038029,32.9509073 83.3371864,33.3400311 C83.5705699,33.729155 83.4542862,34.2331844 83.074017,34.4807335 L45.3327467,57.9743495 L82.2069445,36.6872137 C82.6037206,36.4752904 83.0969846,36.612029 83.3280203,36.9979893 C83.5590561,37.3839496 83.4465545,37.8832994 83.07233,38.1328968 L46.6266078,60.7746225 L82.2069445,40.2314147 C82.6080221,39.9943084 83.1253724,40.1272335 83.3624787,40.5283112 C83.599585,40.9293888 83.46666,41.4467391 83.0655824,41.6838455 L72.7568664,47.9254179 L82.2035706,42.4682593 C82.6051141,42.2316188 83.1224645,42.3652991 83.359105,42.7668426 C83.5957454,43.1683861 83.4620651,43.6857365 83.0605217,43.922377 L79.7356192,45.9247409 L82.2035706,44.4993007 C82.6037167,44.260797 83.1214446,44.3918339 83.3599484,44.7919799 C83.5984522,45.1921259 83.4674153,45.7098538 83.0672693,45.9483577 L50.5655461,66.0259779 L82.2069445,47.7584137 C82.604156,47.5517335 83.0936401,47.6914529 83.3218996,48.0766688 C83.5501591,48.4618847 83.4376315,48.9583258 83.0655824,49.2074706 L64.0827677,60.7796833 L82.2069445,50.3208322 C82.6047785,50.1082048 83.0994909,50.2462333 83.3297795,50.6341115 C83.5600681,51.0219897 83.4444081,51.5224045 83.0672693,51.7698891 L61.9572592,64.691631 L82.2001968,53.0013345 C82.597832,52.7857182 83.0947609,52.9221536 83.326551,53.3105831 C83.558341,53.6990125 83.4424618,54.201133 83.0638955,54.4487045 L59.6158261,68.9105965 L82.2069445,55.8707709 C82.6042332,55.6481661 83.1064895,55.7811303 83.3415956,56.1711512 C83.5767017,56.5611721 83.4597507,57.0673968 83.0773908,57.3147671 L53.6930799,75.8134383 L82.2018837,59.3542431 C82.5995189,59.1386268 83.0964478,59.2750622 83.3282379,59.6634917 C83.5600279,60.0519211 83.4441487,60.5540416 83.0655824,60.8016131 L68.5092233,69.7995989 L82.2001968,61.8947318 C82.5986006,61.6650051 83.1076,61.796776 83.3444826,62.190967 C83.5813651,62.585158 83.4588059,63.0964536 83.0689562,63.3404149 L64.8165741,74.7928568 L82.2069445,64.7540467 C82.6015068,64.5398854 83.0946801,64.6723159 83.3288875,65.055319 C83.5630948,65.4383222 83.4562518,65.9376642 83.0858253,66.1912953 L59.9160963,81.1811905 L82.2069445,68.3134299 C82.6011008,68.0929657 83.0989708,68.2220894 83.3362957,68.6063297 C83.5736206,68.99057 83.4661764,69.4935642 83.092573,69.7473046 L62.0989598,83.5985347 L82.2069445,71.9790885 C82.6015068,71.7649272 83.0946801,71.8973577 83.3288875,72.2803609 C83.5630948,72.663364 83.4562518,73.162706 83.0858253,73.4163371 L70.7595632,81.4055498 L82.2069445,74.7962306 C82.60055,74.5820496 83.0929271,74.7130358 83.3280786,75.0944838 C83.5632301,75.4759318 83.4590604,75.9746715 83.0908861,76.2301054 L72.5915491,83.1245126 L82.2069445,77.5728869 C82.6011008,77.3524227 83.0989708,77.4815464 83.3362957,77.8657867 C83.5736206,78.250027 83.4661764,78.7530213 83.092573,79.0067617 L75.69884,83.8988049 L82.2069445,80.14374 C82.6012995,79.9265575 83.0967068,80.0573735 83.3324315,80.4409331 C83.5681562,80.8244928 83.4610922,81.3255702 83.0891992,81.5793017 L81.6873757,82.4952946 L82.2069445,82.1967113 C82.5969455,81.9807628 83.0876497,82.1055961 83.3270448,82.4816607 C83.5664398,82.8577253 83.4718493,83.3551453 83.111129,83.6170907 L76.7649681,88.0486071 L82.2069445,84.9092649 C82.5971711,84.6842508 83.0953399,84.8055773 83.3384015,85.1848255 C83.5814631,85.5640738 83.4840887,86.0673829 83.1161897,86.3279574 L79.7153762,88.7351801 L82.2069445,87.2979315 C82.5954187,87.0713072 83.0933741,87.1893512 83.3387807,87.5662417 C83.5841873,87.9431322 83.4907106,88.4462784 83.1263112,88.7098764 L81.4933809,89.8907145 L82.2069445,89.480795 C82.5853464,89.2674183 83.0639264,89.3763528 83.3126962,89.7324865 C83.5614661,90.0886202 83.4990497,90.5754566 83.168484,90.8573147 L80.6887241,92.9271551 L82.2069445,92.051648 C82.5683283,91.8420824 83.0286695,91.9286245 83.2892759,92.2551216 C83.5498823,92.5816188 83.5322283,93.0496913 83.2477688,93.3556306 L81.6840019,95.0425421 C81.945563,94.8918732 82.2676364,94.8921907 82.5289,95.0433748 C82.7901636,95.194559 82.9509254,95.4736414 82.9506279,95.7754944 C82.9503303,96.0773474 82.7890188,96.3561124 82.5274576,96.5067812 L77.6944563,99.2868113 C77.3335613,99.4938943 76.8755712,99.4068594 76.6157977,99.0818267 C76.3560242,98.756794 76.3720883,98.2908843 76.6536319,97.9845157 L78.2157119,96.2976042 L73.0385806,99.2868113 C72.6601786,99.500188 72.1815987,99.3912535 71.9328289,99.0351198 C71.684059,98.6789861 71.7464754,98.1921497 72.0770411,97.9102916 L74.5534271,95.843825 L68.5885082,99.2868113 C68.2004372,99.5075553 67.7075681,99.3876515 67.4642681,99.0133093 C67.220968,98.638967 67.3115244,98.1398715 67.6708284,97.8748664 L69.297011,96.6940284 L64.7980181,99.2868113 C64.4088753,99.5035492 63.9182806,99.3803343 63.6777271,99.0054457 C63.4371735,98.6305572 63.5295941,98.1332409 63.8887728,97.8698057 L67.2929602,95.4592092 L60.6600243,99.2868113 C60.2700233,99.5027598 59.779319,99.3779264 59.539924,99.0018619 C59.300529,98.6257973 59.3951194,98.1283772 59.7558397,97.8664319 L66.1087483,93.4298547 L55.958602,99.2868113 C55.564247,99.5039938 55.0688397,99.3731778 54.833115,98.9896182 C54.5973903,98.6060585 54.7044543,98.1049811 55.0763473,97.8512497 L56.4764839,96.9369436 L52.4042796,99.2868113 C52.0108851,99.5039878 51.5162997,99.3746123 51.2796374,98.992623 C51.042975,98.6106337 51.1473445,98.1101742 51.5169641,97.8546235 L58.893828,92.9794493 L47.9643286,99.2868113 C47.5701722,99.5072755 47.0723022,99.3781518 46.8349773,98.9939115 C46.5976524,98.6096712 46.7050966,98.106677 47.0787001,97.8529366 L57.5932192,90.9500949 L43.1498833,99.2868113 C42.755321,99.5009726 42.2621476,99.3685421 42.0279403,98.985539 C41.7937329,98.6025358 41.9005759,98.1031939 42.2710024,97.8495627 L54.5854561,89.8654108 L38.2730222,99.2868113 C37.8796277,99.5039878 37.3850424,99.3746123 37.14838,98.992623 C36.9117176,98.6106337 37.0160871,98.1101742 37.3857068,97.8546235 L58.3877545,84.011828 L31.9234875,99.2868113 C31.5289251,99.5009726 31.0357518,99.3685421 30.8015444,98.985539 C30.5673371,98.6025358 30.6741801,98.1031939 31.0446066,97.8495627 L54.2143356,82.8579805 L25.7578261,99.2868113 C25.3605374,99.5094161 24.858281,99.3764519 24.6231749,98.986431 C24.3880688,98.5964101 24.5050198,98.0901854 24.8873797,97.8428151 L43.1448225,86.3903732 L20.8067409,99.2868113 C20.4091057,99.5024276 19.9121768,99.3659922 19.6803868,98.9775627 C19.4485967,98.5891333 19.5644759,98.0870128 19.9430422,97.8394413 L34.523018,88.8279602 L16.4022151,99.2868113 C16.00584,99.5047849 15.5080867,99.3712615 15.2740214,98.9841709 C15.0399561,98.5970804 15.1529286,98.0942642 15.5300818,97.844502 L44.8924628,79.3576393 L10.3731935,99.2868113 C10.2454666,99.3626182 10.0999865,99.4033527 9.95146561,99.4048977 L9.95146561,99.4048977 Z" id="Path" fill="#C384F8"></path>
            <path d="M16.3431732,92.6572499 C15.9661167,92.6572499 15.6345583,92.4078563 15.5310764,92.0452776 C15.4275945,91.6826989 15.57733,91.2954827 15.8978285,91.0968561 L30.732528,81.8863195 L12.2726558,92.5391655 C11.8754928,92.7661393 11.3697957,92.6351544 11.1327623,92.2439119 C10.8957288,91.8526694 11.0137684,91.3437949 11.3988356,91.0968561 L40.221405,72.8664039 L8.92919726,90.9315388 C8.53220676,91.1407598 8.04090355,91.0025072 7.81128134,90.6169576 C7.58165913,90.231408 7.69412424,89.7335684 8.0671855,89.4841688 L22.1849476,80.8168177 L8.92751035,88.4686481 C8.52875407,88.6855002 8.02989317,88.5478938 7.79870207,88.1572762 C7.56751098,87.7666587 7.68690895,87.2631293 8.06887241,87.0179042 L11.410644,84.9936105 L8.92751035,86.4257983 C8.53113529,86.6437719 8.03338195,86.5102485 7.79931666,86.1231579 C7.56525136,85.7360673 7.67822393,85.2332512 8.05537712,84.983489 L39.9110133,64.8383923 L8.92751035,82.7264015 C8.52967628,82.9390288 8.03496386,82.8010004 7.80467529,82.4131222 C7.57438671,82.0252439 7.69004668,81.5248291 8.0671855,81.2773445 L18.5867654,74.8417773 L8.92751035,80.4187066 C8.52773129,80.6465191 8.01913561,80.5118831 7.78443286,80.1161098 C7.54973011,79.7203366 7.67553678,79.2094852 8.0671855,78.9679627 L15.7763709,74.2648535 L8.92751035,78.218974 C8.53153409,78.4278213 8.04137811,78.2909289 7.81091852,77.9071284 C7.58045893,77.523328 7.6899917,77.0263421 8.06043786,76.7749778 L33.8246367,60.6919639 L8.92751035,75.0661365 C8.5298752,75.2817528 8.03294628,75.1453174 7.8011562,74.7568879 C7.56936612,74.3684584 7.6852454,73.866338 8.06381168,73.6187664 L26.1508764,62.4598471 L8.92751035,72.4041902 C8.52876181,72.6450231 8.0102786,72.5170072 7.76944567,72.1182587 C7.52861274,71.7195101 7.65662861,71.2010269 8.05537712,70.960194 L40.3968438,50.4912102 L8.92751035,68.6592467 C8.53073416,68.8711701 8.03747019,68.7344314 7.80643446,68.3484711 C7.57539873,67.9625109 7.68790032,67.4631611 8.06212477,67.2135636 L30.1066838,53.5377723 L8.92751035,65.7645067 C8.53113529,65.9824803 8.03338195,65.8489569 7.79931666,65.4618663 C7.56525136,65.0747757 7.67822393,64.5719595 8.05537712,64.3221974 L39.7355745,44.3019321 L8.92751035,62.0904135 C8.52643267,62.3275198 8.00908235,62.1945947 7.77197604,61.793517 C7.53486973,61.3924394 7.66779476,60.875089 8.06887241,60.6379827 L9.55841524,59.7354851 L8.92751035,60.098171 C8.53073416,60.3100944 8.03747019,60.1733557 7.80643446,59.7873954 C7.57539873,59.4014352 7.68790032,58.9020854 8.06212477,58.6524879 L31.7952822,43.8903257 L8.92751035,57.0920948 C8.53113529,57.3100684 8.03338195,57.176545 7.79931666,56.7894544 C7.56525136,56.4023638 7.67822393,55.8995477 8.05537712,55.6497855 L40.8776135,34.8467933 L8.92751035,53.2897964 C8.5300593,53.5086979 8.03065189,53.3739395 7.79726839,52.9848156 C7.5638849,52.5956918 7.68016865,52.0916623 8.06043786,51.8441132 L29.7456848,38.3268917 L8.92751035,50.3461359 C8.53094015,50.560959 8.0355419,50.4257917 7.80303066,50.0393264 C7.57051941,49.6528611 7.68317897,49.1518647 8.05875094,48.9021396 L28.0823901,36.338023 L8.92751035,47.3974146 C8.53113529,47.6153882 8.03338195,47.4818648 7.79931666,47.0947742 C7.56525136,46.7076836 7.67822393,46.2048675 8.05537712,45.9551053 L26.9201081,34.0033376 L8.92751035,44.398086 C8.52596684,44.6365898 8.00710602,44.50442 7.76860223,44.1028765 C7.53009844,43.701333 7.66226821,43.1824722 8.06381168,42.9439683 L10.9754209,41.1440338 L8.92751035,42.3248718 C8.53216398,42.5423017 8.03571735,42.4100991 7.80086343,42.0248484 C7.56600952,41.6395976 7.67592867,41.1377465 8.05031639,40.8859363 L23.7790789,30.756033 L8.934258,39.3322909 C8.53833419,39.562532 8.03102254,39.4347412 7.79141911,39.0444121 C7.55181568,38.654083 7.66749025,38.1438722 8.0520033,37.8950423 L22.1967559,28.6541413 L8.92751035,36.3160932 C8.53354038,36.5401889 8.0329,36.4128609 7.79386401,36.0277725 C7.55482802,35.6426842 7.66286759,35.1375301 8.03850801,34.8839053 L20.8590352,26.3211427 L8.92751035,33.2121761 C8.53158655,33.4424172 8.02427489,33.3146264 7.78467146,32.9242973 C7.54506804,32.5339682 7.66074261,32.0237574 8.04525565,31.7749275 L13.1734665,28.4179737 L8.92751035,30.8690561 C8.5390444,31.0682762 8.06275701,30.9381411 7.82956506,30.5690667 C7.59637311,30.1999922 7.68335342,29.7139683 8.03007345,29.4486766 L15.3529561,24.4419234 L8.92751035,28.1531286 C8.53837908,28.3827576 8.0374126,28.2649588 7.79139172,27.8859781 C7.54537084,27.5069974 7.64169046,27.0014616 8.00983051,26.7394968 L15.2635498,21.4830807 L8.92751035,25.1318702 C8.54840005,25.349847 8.06556774,25.2419216 7.81534799,24.8832733 C7.56512824,24.524625 7.63051938,24.0342181 7.96597081,23.7536635 L14.5702292,18.2324023 L8.92751035,21.4898283 C8.56388123,21.6998677 8.10112872,21.6104208 7.84196691,21.28 C7.58280509,20.9495793 7.60618287,20.4788415 7.89680744,20.1757243 L11.5945174,16.3076363 L8.92751035,17.8494734 C8.60976161,18.0274025 8.21369733,17.9813037 7.94530828,17.7351526 C7.67691924,17.4890015 7.59682105,17.0983913 7.74667232,16.7664762 L8.73182862,14.6038557 C8.33030472,14.6689533 7.93952001,14.4382052 7.80260476,14.0551734 C7.6656895,13.6721416 7.82165291,13.2459576 8.17346092,13.0417757 L10.1420866,11.9047974 C10.4599278,11.7208762 10.8602408,11.7637337 11.1319437,12.0107713 C11.4036465,12.2578089 11.4842931,12.6522495 11.3313592,12.9861076 L10.3782542,15.0728171 L15.8573427,11.9047974 C16.2190766,11.7023743 16.6742814,11.7928032 16.931177,12.1181203 C17.1880726,12.4434374 17.170504,12.9072047 16.8897325,13.2121537 L13.1920225,17.0819286 L22.1647046,11.9047974 C22.5438149,11.6868205 23.0266472,11.7947459 23.276867,12.1533942 C23.5270867,12.5120425 23.4616956,13.0024494 23.1262442,13.283004 L16.5219858,18.8042652 L28.4720666,11.9047974 C28.8611979,11.6751683 29.3621644,11.7929671 29.6081852,12.1719478 C29.8542061,12.5509285 29.7578865,13.0564644 29.3897464,13.3184292 L22.1360271,18.5731584 L33.6930576,11.9047974 C34.0846053,11.6870444 34.5780741,11.8134067 34.8167757,12.1925473 C35.0554772,12.5716878 34.9561082,13.0712924 34.5904945,13.3302375 L27.2726725,18.333617 L38.4062882,11.9047974 C38.8006433,11.6876149 39.2960506,11.8184308 39.5317753,12.2019905 C39.7674999,12.5855501 39.660436,13.0866275 39.2885429,13.340359 L34.1586452,16.6989997 L42.4666841,11.9047974 C42.8606541,11.6807016 43.3612945,11.8080297 43.6003305,12.193118 C43.8393665,12.5782063 43.7313269,13.0833604 43.3556865,13.3369852 L30.5351593,21.8997478 L47.842871,11.9047974 C48.237226,11.6876149 48.7326333,11.8184308 48.968358,12.2019905 C49.2040827,12.5855501 49.0970187,13.0866275 48.7251257,13.340359 L34.5753123,22.5846338 L53.0756703,11.9047974 C53.4717087,11.6793614 53.9751989,11.8092649 54.2127345,12.1981667 C54.45027,12.5870685 54.3359469,13.0943234 53.9545512,13.3437328 L38.2241018,23.4652016 L58.2595493,11.9047974 C58.6580104,11.6803183 59.1627772,11.8142931 59.3974722,12.2068238 C59.6321671,12.5993545 59.5112734,13.1074131 59.1249349,13.3521674 L56.206578,15.1571627 L61.8408623,11.9047974 C62.2380253,11.6778235 62.7437224,11.8088084 62.9807559,12.2000509 C63.2177893,12.5912934 63.0997497,13.1001679 62.7146825,13.3471067 L43.8482646,25.287066 L67.0382366,11.9047974 C67.4348068,11.6899742 67.930205,11.8251415 68.1627162,12.2116068 C68.3952275,12.5980721 68.2825679,13.0990685 67.906996,13.3487936 L47.8867307,25.9061625 L72.1445176,11.9047974 C72.5429213,11.6750707 73.0519207,11.8068416 73.2888033,12.2010326 C73.5256859,12.5952236 73.4031267,13.1065192 73.013277,13.3504805 L51.3027264,26.8744497 L75.3479624,12.9911683 C75.7451254,12.7641945 76.2508225,12.8951794 76.487856,13.2864219 C76.7248894,13.6776644 76.6068499,14.1865389 76.2217826,14.4334776 L43.4096676,35.2364698 L75.4609855,16.732738 C75.8594466,16.5082589 76.3642135,16.6422337 76.5989084,17.0347644 C76.8336034,17.4272952 76.7127096,17.9353537 76.3263711,18.180108 L52.5915268,32.9422703 L75.4592986,19.7388142 C75.8580549,19.5219621 76.3569158,19.6595685 76.5881069,20.0501861 C76.819298,20.4408036 76.6999,20.944333 76.3179365,21.1895581 L74.8840618,22.0616913 L75.4592986,21.724309 C75.8580471,21.4834761 76.3765303,21.611492 76.6173633,22.0102405 C76.8581962,22.408989 76.7301803,22.9274723 76.3314318,23.1683052 L44.6427999,43.1970051 L75.4592986,25.4000891 C75.8577597,25.17561 76.3625265,25.3095848 76.5972215,25.7021155 C76.8319164,26.0946463 76.7110227,26.6027048 76.3246842,26.8474591 L54.2801251,40.5266242 L75.4592986,28.2998899 C75.8556737,28.0819163 76.353427,28.2154397 76.5874923,28.6025303 C76.8215576,28.9896209 76.708585,29.492437 76.3314318,29.7421992 L43.9832175,50.2179306 L75.4592986,32.0448334 C75.8594446,31.8063296 76.3771726,31.9373665 76.6156764,32.3375125 C76.8541802,32.7376585 76.7231433,33.2553865 76.3229973,33.4938903 L58.2528016,44.6410013 L75.4592986,34.7067796 C75.8567496,34.4878781 76.356157,34.6226365 76.5895405,35.0117604 C76.822924,35.4008842 76.7066403,35.9049137 76.3263711,36.1524628 L50.5621723,52.2337898 L75.4592986,37.8596172 C75.8590777,37.6318046 76.3676733,37.7664406 76.6023761,38.1622139 C76.8370788,38.5579872 76.7112722,39.0688385 76.3196234,39.310361 L68.5868213,44.0337131 L75.4592986,40.0593497 C75.8590777,39.8315372 76.3676733,39.9661732 76.6023761,40.3619464 C76.8370788,40.7577197 76.7112722,41.2685711 76.3196234,41.5100936 L65.8202865,47.9321655 L75.4592986,42.3653577 C75.8580471,42.1245248 76.3765304,42.2525407 76.6173633,42.6512892 C76.8581963,43.0500377 76.7301804,43.568521 76.3314318,43.8093539 L44.4825433,63.9426423 L75.4592986,46.0613807 C75.8580549,45.8445286 76.3569158,45.982135 76.5881069,46.3727526 C76.819298,46.7633702 76.6999,47.2668995 76.3179365,47.5121246 L72.9238707,49.5735304 L75.4542379,48.1109782 C75.8528289,47.8906069 76.3543807,48.026478 76.5872339,48.4179083 C76.8200871,48.8093386 76.7001284,49.3149324 76.3162496,49.5600351 L62.2018614,58.2256993 L75.4542379,50.5738689 C75.8529864,50.333036 76.3714696,50.4610518 76.6123026,50.8598004 C76.8531355,51.2585489 76.7251196,51.7770322 76.3263711,52.0178651 L47.5004279,70.2567519 L75.4592986,54.116383 C75.8560748,53.9044597 76.3493388,54.0411983 76.5803745,54.4271586 C76.8114102,54.8131189 76.6989086,55.3124686 76.3246842,55.5620661 L61.5017931,64.767542 L75.4592986,56.7091659 C75.8577597,56.4846869 76.3625265,56.6186616 76.5972215,57.0111924 C76.8319164,57.4037231 76.7110227,57.9117816 76.3246842,58.1565359 L66.6536207,64.1535062 L75.4643593,59.069155 C75.8603356,58.8603078 76.3504916,58.9972002 76.5809512,59.3810006 C76.8114107,59.764801 76.701878,60.2617869 76.3314318,60.5131513 L66.6536207,66.5607289 L75.4643593,61.4730039 C75.8605544,61.2515439 76.3609594,61.383327 76.5966837,61.7712047 C76.832408,62.1590824 76.7189134,62.6639497 76.3398664,62.9136263 L61.6856665,72.2759849 L75.4643593,64.3205104 C75.8589216,64.1063491 76.352095,64.2387796 76.5863023,64.6217828 C76.8205097,65.004786 76.7136667,65.5041279 76.3432402,65.757759 L63.5109047,74.0404943 L75.4592986,67.1342788 C75.8536536,66.9170963 76.349061,67.0479123 76.5847856,67.4314719 C76.8205103,67.8150316 76.7134464,68.3161089 76.3415533,68.5698404 L65.6903943,75.5148549 L75.4592986,69.8755099 C75.8524888,69.6550958 76.3494942,69.7827876 76.587745,70.1654328 C76.8259958,70.5480781 76.7212797,71.0504267 76.3499878,71.3060108 L65.7544969,78.4028474 L75.4592986,72.8023013 C75.8541318,72.5733759 76.3594359,72.7000396 76.5996008,73.0881387 C76.8397656,73.4762378 76.7276592,73.9849696 76.346614,74.236176 L71.3044356,77.5830084 L75.4592986,75.1808465 C75.853455,74.9603823 76.351325,75.089506 76.5886499,75.4737463 C76.8259748,75.8579866 76.7185306,76.3609808 76.3449271,76.6147212 L75.622929,77.0904302 C75.9822344,76.9808152 76.3710809,77.1174923 76.5827816,77.4278125 C76.8303687,77.798966 76.7460882,78.2987346 76.3904737,78.5681647 L68.6779145,84.4268082 L75.4525509,80.5148605 C75.8326376,80.2947336 76.3180386,80.4031461 76.5683497,80.76407 C76.8186608,81.124994 76.7500864,81.6176043 76.4107167,81.896441 L71.4225195,86.0074443 L75.4525509,83.6811933 C75.8245811,83.4651351 76.2996028,83.5637025 76.5549554,83.9099433 C76.810308,84.2561841 76.7641475,84.7391234 76.4478287,85.0307225 L73.9495128,87.3519127 L75.4525509,86.4865271 C75.7907343,86.2853116 76.223657,86.3486661 76.4900015,86.6383491 C76.7584706,86.9245231 76.7941305,87.3580363 76.576034,87.6842343 L75.508219,89.2851132 C75.9158209,89.0935571 76.4020101,89.2560213 76.6125669,89.6541405 C76.8231237,90.0522597 76.6837581,90.5455667 76.2960067,90.7746561 L73.2325755,92.5391655 C72.8933413,92.7345708 72.4642425,92.6708673 72.1964074,92.3853374 C71.9285722,92.0998074 71.8924133,91.6675153 72.1090924,91.3414583 L73.1735336,89.7456401 L68.3405322,92.5391655 C67.9685021,92.7552237 67.4934803,92.6572499 67.2381277,92.3104155 C66.9827752,91.9641747 67.0289356,91.4812354 67.3452544,91.1896363 L69.8435703,88.8684461 L63.4822272,92.5391655 C63.1028684,92.7543494 62.6220239,92.6448326 62.3732684,92.2865897 C62.1245129,91.9283468 62.1898968,91.4395418 62.5240615,91.1592719 L67.5139456,87.0465817 L57.9963911,92.5391655 C57.6107988,92.763479 57.1172169,92.6487573 56.8700791,92.2773803 C56.6229414,91.9060033 56.7077166,91.4064061 57.063529,91.137342 L64.7676537,85.2854461 L52.1951026,92.5391655 C51.8017081,92.756342 51.3071227,92.6269664 51.0704603,92.2449771 C50.833798,91.8629879 50.9381675,91.3625284 51.3077871,91.1069776 L51.768314,90.8033336 L48.7588639,92.5391655 C48.3648939,92.7632612 47.8642535,92.6359331 47.6252176,92.2508448 C47.3861816,91.8657565 47.4942211,91.3606024 47.8698616,91.1069776 L52.9086661,87.7618322 L44.6326785,92.5391655 C44.2406942,92.7511194 43.7514626,92.6215822 43.5157267,92.2434226 C43.2799909,91.865263 43.3790952,91.3689709 43.7419892,91.1103514 L54.3476016,84.0067673 L39.5651964,92.5391655 C39.1708414,92.7563479 38.675434,92.625532 38.4397094,92.2419723 C38.2039847,91.8584127 38.3110486,91.3573353 38.6829417,91.1036038 L49.3104839,84.1720846 L34.8216014,92.5391655 C34.426446,92.759954 33.927465,92.6294609 33.6909891,92.2434888 C33.4545133,91.8575167 33.5648671,91.3536987 33.9410336,91.1019169 L46.7801167,82.8174947 L29.9379927,92.5391655 C29.5432166,92.7505106 29.0520978,92.6165269 28.8193425,92.233983 C28.5865871,91.8514391 28.6933338,91.3536897 29.0624856,91.10023 L43.7116248,81.7429321 L25.0071504,92.5391655 C24.6111742,92.7480127 24.1210182,92.6111203 23.8905586,92.2273199 C23.660099,91.8435195 23.7696318,91.3465336 24.140078,91.0951692 L33.8246367,85.0492785 L20.8506006,92.5391655 C20.4531495,92.758067 19.9537421,92.6233086 19.7203586,92.2341847 C19.4869751,91.8450609 19.6032589,91.3410314 19.9835281,91.0934823 L29.6529046,85.098199 L16.764901,92.5391655 C16.6371742,92.6149724 16.4916941,92.6557068 16.3431732,92.6572499 L16.3431732,92.6572499 Z" id="Path" fill="#F3F6FB"></path>
            <path d="M34.3863782,15.0593218 C34.0201261,15.0593218 33.6956488,14.8231966 33.5832983,14.4746022 C33.4709478,14.1260079 33.5964033,13.7447458 33.8938001,13.53098 L34.2935981,13.2442051 L31.3448768,14.941238 C30.9593782,15.1575839 30.4722457,15.0395928 30.2284702,14.6708269 C29.9846947,14.3020611 30.0669907,13.8076449 30.4170755,13.5377277 L35.0510213,10.0491947 L27.7871805,14.2428566 C27.397621,14.4650755 26.9022818,14.3435792 26.6597607,13.9663241 C26.4172396,13.589069 26.5123548,13.0879948 26.8762484,12.825851 L29.7439978,10.7813143 L27.4852234,12.0852969 C27.1312646,12.2892403 26.6820347,12.2102142 26.4189249,11.8977194 C26.1558151,11.5852246 26.1544655,11.1290988 26.4157215,10.8150525 L29.3509475,7.30121596 L27.4852234,8.37746547 C27.1531372,8.56750522 26.7347309,8.51020399 26.4659663,8.23787704 C26.1972018,7.96555008 26.1454147,7.54642555 26.3398105,7.21687039 L26.9724023,6.15242925 C26.6326649,6.07760861 26.3737151,5.80188207 26.3203409,5.45812221 C26.2669667,5.11436236 26.4301187,4.77309776 26.731174,4.59878379 L28.6981127,3.47024002 C29.0302825,3.27860895 29.4499154,3.33517443 29.7194885,3.60791896 C29.9890616,3.88066348 30.0407154,4.30092929 29.8452125,4.63083511 L29.4420407,5.30559969 L32.618495,3.47024002 C32.9724538,3.26629663 33.4216837,3.34532272 33.6847935,3.65781749 C33.9479033,3.97031226 33.9492529,4.4264381 33.6879969,4.74048435 L30.7544578,8.2492602 L44.1384134,0.521518775 C44.5279729,0.299299886 45.0233121,0.420796239 45.2658333,0.798051313 C45.5083544,1.17530639 45.4132391,1.67638059 45.0493456,1.93852441 L42.1815961,3.97631346 L46.1289689,1.69729607 C46.5157428,1.46845372 47.0140184,1.5830559 47.2619507,1.95787914 C47.509883,2.33270238 47.4203883,2.83609376 47.0584571,3.10249332 L42.4211375,6.60452152 L48.2055569,3.26443682 C48.5948998,3.03869787 49.0928912,3.15840359 49.3371017,3.53643427 C49.5813122,3.91446494 49.4857058,4.41763912 49.119863,4.67975554 L48.7234388,4.96484358 L51.3212824,3.46517928 C51.7059897,3.24749756 52.193495,3.36374141 52.4385834,3.73159562 C52.6836718,4.09944983 52.6031967,4.59411919 52.2541445,4.8653158 L49.5921982,6.88960956 L55.4963883,3.48373531 C55.8673276,3.28468684 56.3282405,3.38962473 56.5764496,3.72963722 C56.8246587,4.0696497 56.7841583,4.54061928 56.4815446,4.83326448 L51.3465861,9.46214955 L56.9032725,6.25701776 C57.2751336,6.04409015 57.7475529,6.14382621 58.0016108,6.48889638 C58.2556687,6.83396654 58.2106145,7.31469249 57.8968633,7.60654693 L55.6229067,9.71181244 L56.9032725,8.97125831 C57.2583653,8.76555748 57.7099743,8.84527739 57.9731782,9.16012252 C58.2363821,9.47496766 58.2347875,9.93355623 57.9694005,10.2465634 L57.178239,11.1811123 C57.5266478,11.124391 57.8741915,11.2871138 58.0537461,11.5910318 C58.2869324,11.9939985 58.1495143,12.5096942 57.7467282,12.7431924 L53.9224999,14.941238 C53.5674071,15.1469388 53.115798,15.0672189 52.8525941,14.7523738 C52.5893903,14.4375286 52.5909849,13.9789401 52.8563719,13.6659329 L53.5513794,12.844407 L49.9211459,14.941238 C49.5492848,15.1541656 49.0768655,15.0544295 48.8228076,14.7093594 C48.5687496,14.3642892 48.6138038,13.8835633 48.927555,13.5917088 L51.2031986,11.4881302 L45.2298451,14.941238 C44.8589058,15.1402865 44.397993,15.0353486 44.1497838,14.6953361 C43.9015747,14.3553236 43.9420751,13.884354 44.2446888,13.5917088 L49.3762735,8.97463213 L39.0220109,14.941238 C38.6373036,15.1589197 38.1497983,15.0426759 37.9047099,14.6748217 C37.6596215,14.3069674 37.7400967,13.8122981 38.0891489,13.5411015 L40.7527821,11.5168077 L34.8081061,14.941238 C34.6806708,15.0177241 34.5350026,15.0585112 34.3863782,15.0593218 L34.3863782,15.0593218 Z" id="Path" fill="#F5EC83"></path>
            <g id="Group" fill="#262626">
                <path d="M0.705503862,82.3198558 C0.705503862,88.5951664 -1.42337841,98.1279031 6.92683335,99.3762176 C16.3246171,100.779728 26.9909583,99.3762176 36.4730877,99.3762176 C49.4066379,99.3762176 62.4211599,99.8063801 75.3479624,99.3762176 C83.2106568,99.1130594 83.6813051,94.6123796 83.6813051,87.8832898 L83.6813051,47.3552418 C83.6813051,35.7627862 85.2585673,22.9405722 83.6813051,11.4375229 C82.3014115,1.38521745 65.7764268,4.8062739 58.0115733,5.04581533 C56.4039467,2.41929417 53.3793144,3.8649773 50.471079,3.38758136 C45.63133,1.66861857 43.4366582,-1.93293741 37.819243,1.30255878 C33.4079696,3.45168399 35.3715345,3.06200744 32.5898175,3.38758136 C30.5199771,3.49554369 27.1917008,2.67907854 26.274021,5.05087606 C19.0270493,4.87037654 2.39578915,1.48474522 0.705503862,10.7897489 C-0.881879828,19.5313241 0.705503862,30.0205396 0.705503862,38.8785117 L0.705503862,82.3198558 Z M73.261253,91.0496226 C54.2379523,91.4949673 34.695083,90.7527262 15.5334557,91.0496226 C8.77062758,91.0496226 9.41840159,89.6191217 9.41840159,83.1599377 L9.41840159,18.4533877 C9.41840159,15.3123585 8.78074905,14.6089164 11.2740042,13.3926533 C14.4335894,11.8491293 22.1714523,13.2374574 26.2436566,13.379158 C27.0955468,15.7711984 30.7797615,14.998593 32.6741631,15.0222097 L48.1718187,15.0222097 C50.8708771,14.9125605 56.6502357,16.6348971 58.112788,13.3774711 C62.4455963,13.0366122 66.7986823,13.041689 71.1306838,13.3926533 C75.0460053,13.9813854 74.5399318,13.9830723 74.9768419,17.4243717 C75.9889888,37.2506421 74.423535,57.4041734 74.9768419,77.2894858 C74.9684074,81.1255225 76.6654403,89.441996 73.261253,91.0496226 Z M34.9717365,4.87712418 C36.3499432,4.59709688 36.8779464,3.85148201 38.0790274,3.40445047 C45.5992787,0.597429791 44.9143927,3.86329039 49.3813342,4.84338595 C51.3128479,5.26680073 55.4727715,3.77894482 56.378643,5.91794856 C57.0281039,13.721601 56.5928807,14.5077017 48.8550179,13.5090502 L37.3300387,13.5090502 C35.381656,13.5090502 31.1019616,14.3525059 29.3239569,13.5090502 C27.6859659,12.7246363 27.3485836,8.82112319 28.0233482,6.79345561 C29.0540511,3.62712278 32.2895473,5.42030967 34.9717365,4.87712418 Z M2.70955468,14.4115478 C3.23924489,3.58832382 17.2389231,6.2620785 25.8202418,6.56403565 C25.6017077,8.2724357 25.6068115,10.002035 25.835424,11.7091156 C20.3428402,11.3430558 9.29863087,9.32550972 7.49194869,14.5701175 C7.29458005,35.7914637 7.62690161,57.2692205 7.49194869,78.5715385 C7.49194869,82.4227574 5.46765493,91.1525242 10.0358112,92.6791791 C30.351286,92.643754 51.0277598,93.1160892 71.4174587,92.6791791 C76.309502,92.4126471 76.8948602,91.0479357 76.8948602,86.2840977 L76.8948602,51.9672578 C76.8948602,40.1892419 78.3523518,27.3771493 76.8948602,15.6801052 C76.9589629,8.25769476 63.5935633,11.9368487 58.5412635,11.7310455 C58.6368239,10.011314 58.5922548,8.28665749 58.4079975,6.57415712 C66.0513933,6.3514848 80.3378466,3.52759501 81.6772543,12.8157295 C82.901952,34.9800593 81.0024897,57.6015421 81.6772543,79.8468436 C82.7433823,94.2783712 82.5038409,99.7760156 66.0699494,97.8411282 L12.3350715,97.8411282 C2.99464272,98.9764196 1.72102457,94.624188 2.70955468,85.936594 C3.00982493,62.1140302 2.12588332,38.2206162 2.70955468,14.4115478 L2.70955468,14.4115478 Z" id="Shape"></path>
                <path d="M34.9261899,20.4321348 L25.4794857,29.878839 L24.2784047,28.6777581 C23.51086,27.9102133 22.3199005,29.5212138 23.0030996,30.2094737 L24.6900111,31.8963851 C25.0661924,32.2725664 25.5334668,32.0245904 25.8472324,31.7125118 L35.9687012,21.591043 C36.7952878,20.7728909 35.8556781,19.495899 34.9261899,20.4321348 Z" id="Path"></path>
                <path d="M16.0294076,35.5856605 C17.3671284,40.091401 24.691698,38.6423441 28.1262498,38.6423441 C29.9919738,38.6423441 31.9943377,38.8447735 33.4737591,37.4480108 C35.1994695,35.8184543 34.770994,33.2998955 34.770994,31.1592048 C34.770994,30.147058 32.7467003,30.1015113 32.7467003,31.1119713 C33.3067549,35.2381568 30.8151866,37.7887669 26.6451415,37.1241238 C23.3556641,37.1241238 18.5580879,38.1784434 17.9018794,33.7199364 C17.8445244,30.7712152 17.6876416,27.5323452 17.9018794,24.6274836 C19.0658483,20.6278165 23.8499292,21.7732294 26.9943322,21.7732294 C28.2493943,21.7732294 28.2966278,20.2550091 27.0280704,20.2550091 C18.5496534,19.6460341 14.6528879,19.9496781 15.8775856,29.7556945 C15.668031,31.6970935 15.719091,33.6577998 16.0294076,35.5856605 L16.0294076,35.5856605 Z" id="Path"></path>
                <path d="M35.0223438,43.9763582 L25.492981,53.5040341 L24.2446665,52.2574065 C23.547972,51.5590252 22.3080921,53.1548434 23.0267164,53.8734677 C23.5890202,54.4357715 24.151324,54.9980754 24.7136279,55.5603792 C24.976786,55.8252243 25.5250323,55.6278557 25.7460177,55.4068703 L35.8674865,45.2854015 C36.6704563,44.4841185 35.9653273,43.0333746 35.0223438,43.9763582 L35.0223438,43.9763582 Z" id="Path"></path>
                <path d="M16.0715804,59.1906127 C17.4734038,63.7233438 24.7456792,62.2742868 28.2342121,62.2742868 C33.8246367,62.879888 35.3192402,59.8974286 34.7541249,54.7843999 C34.7541249,53.8262342 32.7618825,53.6305525 32.7618825,54.7202973 C33.2510868,59.4200326 31.5101942,61.5792793 26.5388661,60.7257021 C23.224085,60.7257021 18.7520827,61.8761757 17.8866971,57.5205703 C17.9626082,48.4686034 15.4541708,44.2715677 27.1022945,45.408546 C28.4248331,45.408546 28.0790162,43.8599613 26.9201081,43.8599613 C23.1701039,43.8599613 16.555724,42.5289881 15.9062631,47.771909 C15.6812581,51.577047 15.7365131,55.3935832 16.0715804,59.1906127 L16.0715804,59.1906127 Z" id="Path"></path>
                <path d="M35.0122224,67.5391375 L25.4406867,77.1106732 L24.1704424,75.8404288 C23.4180798,75.0880663 22.4194283,76.8390804 23.1043143,77.5273403 L24.7912258,79.2142518 C25.0712531,79.4942791 25.5233454,79.3154665 25.7578261,79.0809858 L35.8792949,68.959517 C36.6265966,68.215589 35.951832,66.6029017 35.0122224,67.5391375 Z" id="Path"></path>
                <path d="M32.9525035,78.5698516 C33.7858377,86.5776203 26.673819,83.7689127 21.4933139,84.1366594 C17.0044425,84.2699254 17.5341327,79.3357094 17.6960762,76.1440729 C17.5180925,74.6874999 17.5180925,73.2146761 17.6960762,71.7581031 C18.747022,68.1363042 23.94777,69.2142406 26.8053981,69.2142406 C27.7719983,69.2142406 28.2949409,67.2675448 27.2271259,67.2675448 C23.6609951,67.2675448 17.4548478,65.9989873 16.2368977,70.6666714 C15.9281929,83.1211387 13.3489053,87.5796457 28.4720666,86.0833553 C30.2242561,86.3692859 32.0117971,85.8478423 33.3354324,84.6646627 C34.9565543,82.8900319 34.5702516,80.3680992 34.5702516,78.161619 C34.5651908,76.8508888 32.9525035,77.5256534 32.9525035,78.5698516 L32.9525035,78.5698516 Z" id="Path"></path>
                <path d="M44.0641893,26.8322769 C45.4592651,26.4948946 49.747394,27.6993494 49.9346412,25.9888212 C49.8216181,25.4675655 49.2008347,25.3140566 48.7538032,25.3140566 L43.6930688,25.3140566 C42.3232967,25.4692525 42.9002204,26.9908466 44.0641893,26.8322769 L44.0641893,26.8322769 Z" id="Path"></path>
                <path d="M67.6438378,32.0566417 C66.1610426,32.5104209 37.7045331,30.7408508 43.7335546,33.5883573 C45.2163498,33.1345782 73.6728593,34.9041483 67.6438378,32.0566417 Z" id="Path"></path>
                <path d="M49.2598766,48.856593 C47.3165546,49.2226528 44.3492773,47.981086 42.9879398,49.619077 C42.6505575,51.4072032 47.3958394,50.1926269 48.6222241,50.5283223 C49.5736421,50.6902658 50.5385555,49.0640831 49.2598766,48.856593 L49.2598766,48.856593 Z" id="Path"></path>
                <path d="M43.8803159,57.4514069 L67.4970765,57.4514069 C68.5092233,57.4514069 68.5260925,55.4271132 67.5139456,55.4271132 L43.8971851,55.4271132 C42.8782905,55.4271132 42.8681691,57.4514069 43.8803159,57.4514069 L43.8803159,57.4514069 Z" id="Path"></path>
                <path d="M43.9275495,74.065798 L48.9882839,74.065798 C50.2551544,74.065798 50.1455051,72.5475777 48.8938168,72.5475777 L43.8330824,72.5475777 C42.5662119,72.5509515 42.6758612,74.065798 43.9275495,74.065798 L43.9275495,74.065798 Z" id="Path"></path>
                <path d="M67.714688,79.2530507 L44.0979275,79.2530507 C43.0554162,79.2530507 42.3384789,80.8573035 43.6627044,80.8573035 L67.2794649,80.8573035 C68.3219762,80.8573035 69.0389135,79.2530507 67.714688,79.2530507 Z" id="Path"></path>
                <path d="M40.5503527,8.53097442 C41.6755227,8.53097442 42.8006926,8.54953044 43.9241756,8.53097442 C44.9363225,8.51579221 44.85029,6.49318537 43.8364562,6.50668066 C42.7112863,6.52354977 41.5861163,6.50668066 40.4626333,6.50668066 C39.4572341,6.50668066 39.534832,8.53097442 40.5503527,8.53097442 Z" id="Path"></path>
            </g>
        </g>
    </g>
</svg>