<?xml version="1.0" encoding="UTF-8"?>
<svg width="60px" height="60px" viewBox="0 0 60 60" version="1.1" xmlns="http://www.w3.org/2000/svg" xmlns:xlink="http://www.w3.org/1999/xlink">
    <title>role-skills-adapt</title>
    <g id="Page-1" stroke="none" stroke-width="1" fill="none" fill-rule="evenodd">
        <g id="role-skills-adapt" fill-rule="nonzero">
            <path d="M24.544214,59.4820079 C24.3188544,59.4824592 24.1204993,59.3334622 24.0581549,59.1168974 C23.9958105,58.9003326 24.0845839,58.6686774 24.2756897,58.5492381 L35.3800796,51.5837572 L22.0386598,59.2871753 C21.8009876,59.4230021 21.4983658,59.3446175 21.356519,59.1104882 C21.2146723,58.8763589 21.2853101,58.5718357 21.515744,58.4240614 L38.8396018,47.4206204 L19.2090594,58.7521456 C18.9722272,58.878721 18.6777525,58.7977024 18.5389999,58.5677925 C18.4002473,58.3378827 18.4658006,58.0395839 18.6881625,57.8890317 L36.9972826,46.3495515 L16.8175776,57.9980566 C16.5783398,58.1343853 16.2739834,58.0538157 16.1335314,57.8169751 C15.9930794,57.5801345 16.0683653,57.2744283 16.3027377,57.1298952 L19.8712848,54.9635297 L15.5072596,57.4822072 C15.2699421,57.6107627 14.9734834,57.5298752 14.8343428,57.2986047 C14.6952023,57.0673343 14.7626206,56.7675255 14.9873722,56.6180838 L33.7638861,44.9019429 L13.5438015,56.5726567 C13.3045637,56.7089854 13.0002074,56.6284159 12.8597554,56.3915753 C12.7193034,56.1547346 12.7945893,55.8490284 13.0289616,55.7044953 L19.5906466,51.7170098 L12.3021288,55.9245641 C12.0636797,56.058898 11.7616147,55.9787242 11.6211673,55.7438239 C11.48072,55.5089237 11.5530659,55.2048888 11.7842605,55.0584217 L30.5203948,43.4492868 L4.88439636,58.2524481 C4.64594727,58.3867819 4.34388218,58.3066081 4.20343485,58.0717079 C4.06298752,57.8368077 4.13533338,57.5327727 4.366528,57.3863056 L29.0011123,42.1581491 L1.54298448,58.007142 C1.3035271,58.1501474 0.993479764,58.0719576 0.850474368,57.8325002 C0.707468973,57.5930428 0.785658745,57.2829955 1.02511612,57.1399901 L27.8109236,40.6176673 L1.03924898,56.0719497 C0.800623251,56.2017194 0.502092413,56.1193723 0.363741882,55.885617 C0.225391351,55.6518616 0.296842084,55.3505371 0.525418569,55.2037883 L14.6875537,46.6342277 L1.03924898,54.5132971 C0.801808185,54.6401173 0.506626691,54.5582895 0.368369135,54.3273212 C0.230111579,54.0963529 0.297435342,53.7975296 0.521380609,53.6481642 L9.43820573,48.1212065 L1.03924898,52.9697869 C0.800834199,53.1072611 0.496236233,53.0284061 0.354479778,52.7925123 C0.212723323,52.5566186 0.286065811,52.2506465 0.519361629,52.104654 L11.6701881,45.1260497 L1.03924898,51.2637488 C0.801294159,51.392779 0.503919473,51.3111326 0.365210495,51.0786867 C0.226501517,50.8462408 0.295846572,50.5457594 0.522390099,50.3976064 L4.53107487,47.9283939 L1.03924898,49.9473739 C0.799512826,50.0898217 0.48969146,50.010954 0.347243585,49.7712179 C0.20479571,49.5314817 0.283663439,49.2216603 0.523399589,49.0792125 L0.938299976,48.820783 C0.69670986,48.8950749 0.437416726,48.7792185 0.331578563,48.54969 C0.225740401,48.3201614 0.305992817,48.0477368 0.519361629,47.912242 L8.28536815,43.0545762 L1.03924898,47.2389122 C0.802048228,47.3693531 0.504180191,47.2894493 0.364109664,47.0578046 C0.224039138,46.82616 0.291644753,46.5252622 0.517342649,46.3757983 L8.66594588,41.2496081 L1.03924898,45.6489655 C0.802318775,45.7908524 0.495348896,45.7159839 0.350348973,45.4809459 C0.205349051,45.2459079 0.276161889,44.9379772 0.509266729,44.7898895 L13.8799617,36.0164119 L1.03924898,43.431116 C0.80288265,43.5654912 0.502551513,43.4884936 0.359992447,43.2569711 C0.217433382,43.0254486 0.283880878,42.7226085 0.510276219,42.57204 L11.2875914,35.50561 L1.03924898,41.4252593 C0.803831871,41.5552232 0.507859634,41.4778016 0.366234957,41.2492097 C0.22461028,41.0206178 0.2870676,40.7211303 0.508257239,40.5682023 L9.74105273,34.4537214 L1.03924898,39.4769436 C0.885970159,39.5719765 0.693635262,39.5780172 0.534694978,39.4927903 C0.375754693,39.4075634 0.274355832,39.2440168 0.268444636,39.0637571 C0.263032896,38.8834973 0.353968933,38.71391 0.507247749,38.6188772 L6.95990779,34.3406586 L1.03924898,37.7577822 C0.804391132,37.887865 0.508800848,37.8113328 0.366580982,37.5836198 C0.224361117,37.3559067 0.28528707,37.0567097 0.505228769,36.9027442 L4.7289349,34.0620393 L1.03924898,36.1920632 C0.805188283,36.3263877 0.506873258,36.2528388 0.362076412,36.025108 C0.217279566,35.7973771 0.277229539,35.4960347 0.498162339,35.3410631 L1.52178519,34.6273537 L1.03924898,34.9049635 C0.811347946,35.0356323 0.521320694,34.969642 0.372390833,34.7532324 C0.223460973,34.5368228 0.265428752,34.2423585 0.468887129,34.0761722 L4.34330973,30.9467532 L1.03924898,32.8506513 C0.816616837,32.979946 0.532351941,32.9209608 0.379542582,32.7137616 C0.226733224,32.5065625 0.254356807,32.2175595 0.443649879,32.0430593 L3.65685653,29.0670828 L1.03924898,30.5813178 C0.814209748,30.7103292 0.528020717,30.6477621 0.377348165,30.436612 C0.226675614,30.2254618 0.260580517,29.934482 0.455763759,29.7636309 L1.27950759,29.048912 L1.03924898,29.1862026 C0.843836135,29.2987896 0.59744729,29.2680803 0.435648626,29.1109715 C0.273849961,28.9538626 0.235908817,28.7084834 0.34270088,28.5098444 L1.12909359,27.0511313 C0.885775142,27.1329386 0.619810342,27.0190904 0.511042371,26.7865698 C0.4022744,26.5540492 0.485351789,26.2769267 0.704098298,26.1425903 L2.15877338,25.2996662 C2.35456821,25.1858699 2.60218898,25.2164098 2.76446738,25.3743684 C2.92845807,25.5322285 2.9664987,25.7803196 2.85734046,25.9800624 L2.0759952,27.4195952 L5.32251502,25.5459817 C5.54755425,25.4169704 5.83374328,25.4795375 5.98441583,25.6906876 C6.13508838,25.9018377 6.10118348,26.1928175 5.90600024,26.3636686 L5.08326589,27.0783875 L7.04268597,25.9477587 C7.26521695,25.8203375 7.54792449,25.8800221 7.69995909,26.0865207 C7.8519937,26.2930193 7.82503215,26.5806977 7.63727558,26.7553507 L4.42608791,29.7293083 L9.41801593,26.8482238 C9.64591696,26.717555 9.93594421,26.7835453 10.0848741,26.9999549 C10.2338039,27.2163645 10.1918362,27.5108288 9.98837777,27.6770151 L6.11294569,30.8114815 L11.2411549,27.8506474 C11.4752156,27.7163229 11.7735306,27.7898717 11.9183274,28.0176026 C12.0631243,28.2453335 12.0031743,28.5466759 11.7822415,28.7016475 L10.7626566,29.4082904 L16.9841434,25.816525 C17.2198049,25.679942 17.5213279,25.7549742 17.6654934,25.986075 C17.8096588,26.2171758 17.7444599,26.5209768 17.5181636,26.6725726 L13.2924385,29.5132774 L20.5547095,25.321875 C20.7909876,25.1848803 21.0933742,25.260679 21.2370949,25.4929272 C21.3808155,25.7251754 21.3137282,26.0296132 21.0857013,26.1799414 L14.6320317,30.4591695 L23.4701166,25.3612451 C23.7059897,25.2293138 24.0039275,25.3065846 24.1459487,25.5365236 C24.2879698,25.7664626 24.2236725,26.067467 24.0000989,26.2193116 L14.7713414,32.330764 L26.2472236,25.7034622 C26.4835899,25.569087 26.7839211,25.6460846 26.9264802,25.877607 C27.0690392,26.1091295 27.0025917,26.4119696 26.7761964,26.5625382 L15.9948432,33.6289681 L28.6911989,26.2990613 C28.9270719,26.16713 29.2250098,26.2444008 29.3670309,26.4743398 C29.5090521,26.7042788 29.4447548,27.0052832 29.2211811,27.1571278 L15.8535146,35.9295958 L31.0291777,27.1682321 C31.1835385,27.0750026 31.3759111,27.0712054 31.5338307,27.1582709 C31.6917503,27.2453365 31.7912251,27.4100375 31.7947839,27.5903327 C31.7983427,27.7706278 31.7054448,27.939126 31.5510841,28.0323556 L23.3923859,33.1736881 L32.5232229,27.9021314 C32.760185,27.7771519 33.0535066,27.8590718 33.1914194,28.0887476 C33.3293322,28.3184233 33.263785,28.6158321 33.0421008,28.7662548 L25.2912366,33.6118068 L33.8426263,28.6743912 C34.0823625,28.5319433 34.3921839,28.6108111 34.5346317,28.8505472 C34.6770796,29.0902834 34.5982119,29.4001047 34.3584757,29.5425526 L34.3090107,29.5718278 L34.7663097,29.3083509 C34.9212115,29.2158427 35.1136992,29.2130006 35.2712646,29.3008953 C35.42883,29.3887901 35.5275351,29.5540683 35.5301987,29.7344713 C35.5328624,29.9148743 35.4390798,30.0829946 35.2841781,30.1755028 L31.2775123,32.6426964 L35.739458,30.0664779 C35.8939992,29.9734287 36.0864422,29.9698943 36.2442958,30.0572062 C36.4021494,30.1445181 36.5014317,30.3094115 36.5047442,30.4897727 C36.5080567,30.6701338 36.414896,30.8385616 36.2603549,30.9316108 L25.1095284,37.9081962 L36.9064285,31.0971672 C37.1438693,30.970347 37.4390508,31.0521748 37.5773083,31.2831431 C37.7155659,31.5141114 37.6482421,31.8129348 37.4242968,31.9623001 L28.5044432,37.4912768 L56.6823375,21.2223361 C56.9209632,21.0925664 57.219494,21.1749135 57.3578446,21.4086688 C57.4961951,21.6424241 57.4247444,21.9437487 57.1961679,22.0904975 L43.0249473,30.6711624 L57.0861335,22.5498154 C57.3245826,22.4154816 57.6266476,22.4956554 57.767095,22.7305556 C57.9075423,22.9654558 57.8351964,23.2694907 57.6040018,23.4159578 L30.8313177,39.9372711 L57.6282296,24.4668369 C57.867687,24.3238315 58.1777343,24.4020213 58.3207397,24.6414787 C58.4637451,24.8809361 58.3855553,25.1909834 58.146098,25.3339888 L33.524637,40.551041 L58.1047089,26.3596307 C58.343158,26.2252968 58.645223,26.3054706 58.7856704,26.5403708 C58.9261177,26.7752711 58.8537718,27.079306 58.6225772,27.2257731 L39.8743291,38.8439934 L58.4741822,28.1050389 C58.71342,27.9687101 59.0177764,28.0492797 59.1582283,28.2861203 C59.2986803,28.5229609 59.2233945,28.8286671 58.9890221,28.9732003 L52.4142138,32.9657332 L58.6881941,29.3436831 C58.9260387,29.2126869 59.2248966,29.2933297 59.3645591,29.5261912 C59.5042216,29.7590526 59.4346345,30.0606764 59.2070719,30.208816 L40.4295486,41.9279854 L58.9254242,31.2556571 C59.164662,31.1193284 59.4690184,31.199898 59.6094704,31.4367386 C59.7499224,31.6735792 59.6746365,31.9792854 59.4402641,32.1238185 L55.8797929,34.2841271 L59.0041644,32.4781495 C59.2413652,32.3477087 59.5392332,32.4276124 59.6793038,32.6592571 C59.8193743,32.8909018 59.7521851,33.1917995 59.5260708,33.3412635 L41.2230077,44.8777151 L58.9900316,34.6212968 C59.2267378,34.493018 59.5224596,34.5731037 59.6620861,34.8032986 C59.8017125,35.0334936 59.7360875,35.3327568 59.5129474,35.4834012 L42.1860611,46.4868422 L58.7507825,36.922934 C58.9896823,36.7790923 59.2999556,36.8561522 59.4437973,37.095052 C59.587639,37.3339519 59.5105791,37.6442252 59.2716793,37.7880669 L48.1672894,44.7535478 L58.3631383,38.8641832 C58.600339,38.7337424 58.8982071,38.8136461 59.0382776,39.0452908 C59.1783481,39.2769355 59.1107425,39.5778332 58.8850446,39.7272972 L50.3296169,45.1119168 L57.7927765,40.8094704 C58.0288924,40.6813109 58.3240197,40.7605607 58.4641752,40.9897594 C58.6043307,41.218958 58.5403932,41.5177767 58.3187207,41.6695559 L49.8935172,47.10465 L56.8589982,43.0848609 C57.0925181,42.957337 57.3849293,43.0329841 57.5273103,43.2577541 C57.6696912,43.482524 57.613142,43.7792209 57.3980659,43.935861 L50.3225505,48.8328969 L55.7960052,45.6731932 C56.0322833,45.5361986 56.3346699,45.6119973 56.4783906,45.8442455 C56.6221112,46.0764937 56.5550239,46.3809315 56.326997,46.5312597 L55.5951167,47.0148054 L55.9393528,46.8129074 C56.1680093,46.6825135 56.4584816,46.749728 56.6066174,46.9673106 C56.7547531,47.1848932 56.7108118,47.4797849 56.5056767,47.6447272 L51.2886324,51.7836362 L55.9413718,49.0973833 C56.1700283,48.9669893 56.4605006,49.0342038 56.6086364,49.2517864 C56.7567721,49.469369 56.7128308,49.7642607 56.5076957,49.9292031 L54.7744014,51.3061474 L55.5426233,50.8639908 C55.7823016,50.7386113 56.0782113,50.8244573 56.2135774,51.0586405 C56.3489434,51.2928238 56.2756405,51.5920875 56.0473683,51.7371996 L49.3706014,55.5914324 C49.1421066,55.7194355 48.8536663,55.6514055 48.7064515,55.4347895 C48.5592367,55.2181734 48.602161,54.9249442 48.805287,54.7596127 L50.5355529,53.3846873 L45.8464719,56.089111 C45.6173372,56.2230276 45.3236334,56.1566221 45.1743971,55.9371571 C45.0251609,55.717692 45.0713752,55.4201422 45.280148,55.2562817 L50.4982018,51.1173728 L41.8620149,56.1032439 C41.6262534,56.2373483 41.3266577,56.1611521 41.1836125,55.9307056 C41.0405674,55.7002591 41.105221,55.3979622 41.3300136,55.2461868 L42.0639129,54.7596127 L40.0762271,55.9114408 C39.8420424,56.0436719 39.5453075,55.9690619 39.4015143,55.7417932 C39.2577211,55.5145246 39.3173771,55.2144256 39.5371594,55.0594312 L46.6116653,50.1684522 L32.764491,58.1626034 C32.5283751,58.2907629 32.2332478,58.2115132 32.0930923,57.9823145 C31.9529368,57.7531159 32.0168743,57.4542972 32.2385467,57.302518 L40.6677882,51.8613669 L27.9320624,59.21853 C27.6952302,59.3451054 27.4007555,59.2640867 27.2620029,59.0341769 C27.1232503,58.804267 27.1888036,58.5059683 27.4111656,58.355416 L35.9585174,52.9748344 L24.7965865,59.414371 C24.7198568,59.4586761 24.6328164,59.4820079 24.544214,59.4820079 Z" id="Path" fill="#F5EC83"></path>
            <path d="M38.1975662,31.3071413 C37.9773869,31.3071413 37.7825013,31.164743 37.7159995,30.9548468 C37.6494977,30.7449505 37.7267263,30.5161658 37.9068331,30.3895147 L46.4410615,24.3769923 L40.1902994,27.9849096 C39.9573069,28.1199974 39.6592964,28.0483625 39.5131547,27.8221395 C39.3670131,27.5959165 39.4242264,27.2948045 39.6431558,27.1379474 L46.7600603,22.0228616 L41.8922996,24.8332818 C41.6571214,24.9673109 41.3580856,24.8919618 41.214499,24.6624941 C41.0709123,24.4330264 41.1339008,24.1311451 41.3572699,23.9782438 L43.1057065,22.7910835 L42.2849912,23.2655438 C42.0493297,23.4021269 41.7478067,23.3270947 41.6036412,23.0959939 C41.4594757,22.8648931 41.5246747,22.561092 41.750971,22.4094963 L42.2284597,22.089488 C42.0376321,22.1114262 41.8503377,22.0259391 41.7418855,21.8674002 C41.5939291,21.6460009 41.6434174,21.3477455 41.8549484,21.1859944 L47.4667033,16.9027284 L42.4192533,19.817126 C42.1831411,19.9654279 41.8715119,19.8942435 41.72321,19.6581313 C41.5749081,19.4220191 41.6460924,19.1103899 41.8822047,18.962088 L42.2597539,18.706687 C42.0254402,18.75379 41.7902102,18.6300991 41.6962103,18.4103592 C41.6022105,18.1906193 41.6752117,17.935074 41.8711003,17.798146 L43.2621775,16.8290356 L42.402092,17.3257047 C42.1690995,17.4607925 41.871089,17.3891576 41.7249473,17.1629346 C41.5788056,16.9367116 41.6360189,16.6355996 41.8549484,16.4787426 L44.515964,14.567778 L40.2619732,17.0218482 C40.0308767,17.1573529 39.7341764,17.088713 39.5860713,16.8654821 C39.4379662,16.6422513 39.4900559,16.3422027 39.7047347,16.1819525 L45.7798455,11.6008869 L36.3814937,17.0218482 C36.1467608,17.1538557 35.8497356,17.0783301 35.7065679,16.8502325 C35.5634003,16.6221349 35.6245223,16.3218147 35.8454545,16.1678197 L40.5466494,12.9778313 L33.5397793,17.0218482 C33.3069065,17.1515496 33.0133224,17.0778147 32.8693692,16.853472 C32.7254159,16.6291293 32.7807227,16.3315228 32.9956642,16.1738766 L41.4117823,10.2037528 L30.7313782,16.3707272 C30.494448,16.5126141 30.1874781,16.4377456 30.0424782,16.2027076 C29.8974783,15.9676696 29.9682911,15.6597389 30.2013959,15.5116512 L33.627605,13.2604885 L30.0176688,15.3460948 C29.7836274,15.4732371 29.4910722,15.3966455 29.3493574,15.1711296 C29.2076427,14.9456136 29.2655452,14.6487937 29.4816296,14.4930758 L34.635076,10.9830791 L29.941957,13.6905312 C29.7067788,13.8245603 29.4077431,13.7492113 29.2641564,13.5197435 C29.1205698,13.2902758 29.1835582,12.9883945 29.4069273,12.8354932 L32.2748884,10.894244 L30.6072109,11.8562879 C30.3730263,11.9885191 30.0762914,11.9139091 29.9324982,11.6866404 C29.788705,11.4593717 29.8483609,11.1592727 30.0681433,11.0042784 L31.9801173,9.68285596 L30.1327506,10.7508964 C29.9016541,10.8864011 29.6049538,10.8177611 29.4568487,10.5945303 C29.3087436,10.3712995 29.3608333,10.0712508 29.5755121,9.9110007 L33.4176311,7.00064104 L29.4967719,9.26391761 C29.2636497,9.39689895 28.9672264,9.3241925 28.8220957,9.09843363 C28.676965,8.87267476 28.7338843,8.57281943 28.9516473,8.41594602 L29.5906545,7.96167552 L29.0677387,8.26452252 C28.8415922,8.39551805 28.5528542,8.33222386 28.402243,8.11863939 C28.2516318,7.90505492 28.2889656,7.61182803 28.4882914,7.44279766 L31.7025076,4.70102284 L28.3812855,6.61905383 C28.1518573,6.74930754 27.8608212,6.68090085 27.7134414,6.46208018 C27.5660615,6.2432595 27.6120622,5.94785224 27.8189995,5.7842056 L28.5852024,5.1886065 L28.4983863,5.23807151 C28.2795302,5.35832434 28.0056367,5.30046533 27.8541147,5.10197145 C27.7025926,4.90347756 27.7189928,4.62402037 27.8926923,4.44461238 L30.5012145,1.82599533 C30.4704694,1.79559286 30.4433673,1.76171527 30.4204553,1.72504633 C30.2817667,1.48386213 30.3643934,1.17593118 30.6051919,1.03657416 L32.2728694,0.0624163141 C32.4917255,-0.0578365069 32.765619,0 32.917141,0.198516384 C33.0686631,0.397010268 33.0522629,0.676467455 32.8785634,0.85587545 L31.2886167,2.46096454 L34.4533678,0.633787651 C34.6827959,0.503533935 34.9738321,0.571940624 35.1212119,0.790761301 C35.2685917,1.00958198 35.2225911,1.30498924 35.0156537,1.46863588 L34.2494508,2.06423497 L35.9716407,1.07190631 C36.1973784,0.943598979 36.4836327,1.00748827 36.6333913,1.21960288 C36.78315,1.43171749 36.7475479,1.72284607 36.551088,1.89262167 L33.3358624,4.6343965 L38.3903788,1.71596092 C38.6232516,1.58625959 38.9168357,1.65999441 39.0607889,1.88433712 C39.2047422,2.10867982 39.1494354,2.40628633 38.9344939,2.56393252 L38.2964962,3.01820302 L39.9066327,2.08846273 C40.1371836,1.95723189 40.4299763,2.02686814 40.5767606,2.24784232 C40.7235449,2.4688165 40.6742212,2.76570702 40.4638712,2.92734892 L36.6278092,5.83669908 L42.2213933,2.6063311 C42.4555779,2.47409993 42.7523128,2.54870995 42.896106,2.77597861 C43.0398992,3.00324727 42.9802433,3.30334628 42.7604609,3.45834065 L40.84243,4.78380102 L43.9970862,2.96671903 C44.2315279,2.83819936 44.5255172,2.91478459 44.6674572,3.14135297 C44.8093972,3.36792136 44.7500436,3.66586795 44.5321159,3.82074756 L41.6681928,5.75896835 L45.9080508,3.31095512 C46.1427836,3.17894759 46.4398088,3.25447324 46.5829765,3.48257085 C46.7261441,3.71066846 46.6650221,4.01098865 46.4440899,4.16498365 L41.287615,7.67498036 L48.2339157,3.66427661 C48.4708459,3.52238967 48.7778158,3.59725823 48.9228157,3.8322962 C49.0678156,4.06733417 48.9970028,4.37526493 48.7638979,4.5233526 L45.3427364,6.77148682 L50.274095,3.92472503 C50.5076164,3.79007097 50.805733,3.86267577 50.9511871,4.08962741 C51.0966413,4.31657904 51.0380929,4.61777178 50.8182101,4.77370612 L42.400073,10.7428205 L52.0538258,5.1694262 C52.2899381,5.02112431 52.6015673,5.09230865 52.7498692,5.32842087 C52.8981711,5.5645331 52.8269867,5.87616232 52.5908745,6.02446422 L47.8856416,9.21748107 L52.3617203,6.63318669 C52.5928168,6.49768199 52.8895171,6.56632193 53.0376222,6.78955276 C53.1857273,7.01278359 53.1336376,7.31283225 52.9189588,7.47308236 L46.8478859,12.0561669 L52.79782,8.62390096 C53.0308125,8.48881313 53.328823,8.56044802 53.4749647,8.78667103 C53.6211063,9.01289404 53.563893,9.31400604 53.3449635,9.47086306 L50.6819289,11.388894 L53.1491225,9.96046571 C53.3829002,9.82983502 53.6780034,9.9045174 53.8215005,10.1306258 C53.9649975,10.3567342 53.9069313,10.6555513 53.6891996,10.8114658 L52.3041794,11.7745192 L53.4701403,11.1021989 C53.705723,10.9626197 54.0096313,11.0363381 54.1550796,11.2683432 C54.3005279,11.5003483 54.2344608,11.8060111 54.0061795,11.9572369 L53.8396136,12.0692903 C54.074068,11.9799357 54.3385625,12.0763612 54.4604986,12.2956434 C54.5824347,12.5149256 54.5247888,12.7904835 54.3251783,12.9424992 L48.7073665,17.2237462 L54.3383017,13.9731884 C54.5735965,13.8412871 54.871017,13.9177011 55.0135922,14.1466856 C55.1561675,14.3756701 55.0935027,14.676288 54.8713124,14.829236 L54.7400787,14.9170616 C54.9798063,14.8330991 55.2445823,14.9403626 55.3582796,15.1675012 C55.4719769,15.3946398 55.3991712,15.6708844 55.1882923,15.8124792 L53.4378366,16.9996394 L55.0207169,16.0910984 C55.2530842,15.9608524 55.5466664,16.033601 55.6913337,16.2572748 C55.836001,16.4809485 55.781947,16.7785406 55.5678605,16.9370511 L48.454994,22.0480989 L55.622373,17.9091899 C55.8563149,17.7725399 56.1564135,17.8449563 56.302289,18.0732595 C56.4481645,18.3015628 56.3877796,18.6043119 56.1654786,18.7591805 L47.6302407,24.7727124 L56.2361429,19.8040026 C56.3926083,19.7045379 56.5910099,19.6988604 56.7529073,19.7892147 C56.9148047,19.879569 57.0141343,20.0514092 57.0116714,20.2367963 C57.0091157,20.4221834 56.9051715,20.5912722 56.7408879,20.6772115 L38.4499387,31.2384958 C38.3734389,31.2834683 38.2863059,31.3071413 38.1975662,31.3071413 L38.1975662,31.3071413 Z" id="Path" fill="#F5EC83"></path>
            <g id="Group" transform="translate(0.000000, 0.160603)" fill="#262626">
                <path d="M0.0257210215,55.6963248 C0.441630899,60.9396159 8.55692096,57.0803356 11.3633031,55.6074897 C19.2918376,60.1128436 29.9126818,60.6933003 37.5928817,55.3207946 C43.5226259,56.4998789 50.9181496,56.3302846 55.7899483,52.3932736 C58.0108263,50.2218606 56.1150041,46.6926836 57.2345285,44.476853 C63.9112953,32.9888569 56.7701631,20.366194 53.8557655,8.88122635 C53.4832637,7.37910524 53.5710893,4.77462106 51.9215826,4.05182622 C46.0134063,3.2542665 40.1749556,2.00558051 34.4574057,0.316713241 C33.3003621,-0.184173078 31.9713431,-0.0864954634 30.899963,0.578171149 C26.1846352,4.89777883 27.0578441,6.18588807 29.6007494,11.4806631 C25.953462,19.1749958 37.0709753,16.2959304 41.4117823,16.8016848 C42.1426531,22.0358905 40.1166067,26.4201055 37.4747713,30.7467796 C30.8949156,24.7120484 19.8692658,23.240212 12.1466674,27.8273346 C9.1181974,26.1606666 1.63383858,22.7657517 0.0247115315,27.3892159 C-0.051000218,36.816843 0.0761955213,46.2626408 0.0257210215,55.6963248 L0.0257210215,55.6963248 Z M1.5005859,26.7956358 C3.44890159,24.2456641 8.5730728,27.2317355 10.8888428,28.4259621 C9.54319269,28.7913975 3.48423374,36.7704064 7.51512729,34.7150848 C8.38227919,32.016718 10.6788689,30.1935791 12.640308,28.339146 C20.0257368,23.5258977 31.0332157,25.9274744 36.9457986,32.074259 C36.1997855,34.8099769 35.5012184,43.2452752 39.57552,42.9373808 C39.777418,42.8041281 40.0126292,42.5002716 39.6976683,42.3387532 C33.1884768,33.8539898 44.6512357,25.8568101 42.8836187,16.9258521 C45.4184481,17.6547039 50.2619811,9.05183016 46.491536,11.3130877 C45.6597162,14.0043881 44.6058087,15.7911854 41.6540599,16.1111937 C38.4459007,15.6841794 27.8442368,18.0857561 31.0039405,12.0267972 C33.9314615,10.6417769 37.8371782,12.0621293 40.6556743,10.3581102 C42.2708583,9.42635095 40.5971239,5.26624268 39.3958308,7.56586089 C40.4921369,9.82005205 39.5512923,10.3056167 37.354642,10.2611992 C36.5561354,9.31328807 36.4299492,6.8178288 34.9682077,6.95209097 C33.4600296,7.49115863 35.5668352,9.37486696 35.7626763,10.3954613 C34.1671245,10.4494385 32.5794406,10.6440142 31.0180733,10.9769276 C29.7057363,7.90504953 27.4454882,4.75342177 30.8000235,2.13985217 C32.459625,-0.871456483 36.1271022,2.3286268 38.6740455,2.42856631 C42.0901596,4.07504449 50.0378743,3.02012745 51.7146372,6.01023681 C54.3837287,19.408188 64.2757212,35.8265333 53.6831427,47.655737 C53.1915211,48.7792994 55.3225544,47.7687999 55.4739779,47.1085935 C56.7459353,57.7082384 39.7501618,56.5311731 33.7487438,52.5325832 C30.0570389,52.4427386 35.3699847,54.8332109 36.5460405,55.0512607 C29.5482559,60.270324 19.4775837,59.1215244 12.2910245,54.8332109 C10.581982,53.7820881 8.94160672,52.6232043 7.37985563,51.3635938 C3.61546744,51.188952 9.61789495,54.6949108 10.5930623,55.2561872 C8.35704194,56.3666262 2.76547687,59.413267 1.490491,56.085988 C1.50563335,46.3312862 1.45313987,36.5372142 1.5005859,26.7956358 Z" id="Shape"></path>
                <path d="M16.4793984,42.3841803 C19.0505695,44.7534533 37.9674025,40.298574 32.7473297,39.2820175 C25.9181299,42.8899348 16.7408563,43.2907023 10.4113541,38.2644516 C5.93628494,38.4713971 15.2821433,42.3861993 16.4793984,42.3841803 Z" id="Path"></path>
            </g>
        </g>
    </g>
</svg>