<?xml version="1.0" encoding="UTF-8"?>
<svg width="49px" height="60px" viewBox="0 0 49 60" version="1.1" xmlns="http://www.w3.org/2000/svg" xmlns:xlink="http://www.w3.org/1999/xlink">
    <title>role-skills-calc</title>
    <g id="Page-1" stroke="none" stroke-width="1" fill="none" fill-rule="evenodd">
        <g id="role-skills-calc" fill-rule="nonzero">
            <path d="M15.9607777,59.7646638 C15.734374,59.7646638 15.5352896,59.6149153 15.4731538,59.3972048 C15.4110181,59.1794943 15.5009269,58.9469901 15.6933703,58.8277248 L19.613319,56.3967488 L13.8995127,59.6937599 C13.6613919,59.8227506 13.3639299,59.7415893 13.2243184,59.5095361 C13.0847069,59.2774828 13.1523534,58.9766593 13.3778657,58.8267118 L23.1240534,52.7239493 L11.0522321,59.6937599 C10.8147248,59.8224729 10.5180021,59.7421161 10.377903,59.5111421 C10.237804,59.280168 10.3036511,58.9798919 10.5275465,58.8287377 L26.9649954,48.3856702 L7.37841972,59.6937599 C7.14041616,59.8246423 6.84153998,59.7444681 6.70099538,59.5120394 C6.56045078,59.2796107 6.62828521,58.9776946 6.85474699,58.8277248 L25.2460928,47.2350083 L3.70967187,59.6633727 C3.47091169,59.7928396 3.17253053,59.7109169 3.03335209,59.4776843 C2.89417365,59.2444517 2.9637534,58.9429533 3.19106367,58.7942988 L15.5485247,51.197499 L2.15486018,58.9340799 C1.91673945,59.0630706 1.61927738,58.9819093 1.47966592,58.7498561 C1.34005445,58.5178029 1.40770092,58.2169794 1.63321326,58.0670319 L22.7330715,44.87291 L1.20779247,57.3012744 C0.968359114,57.4314834 0.668817891,57.3488576 0.529999109,57.1143111 C0.391180328,56.8797646 0.462872887,56.5774202 0.692222995,56.4301747 L5.40325177,53.5778296 L1.13790192,56.0402057 C0.899252281,56.1716452 0.599382909,56.0907294 0.459247699,55.8570799 C0.319112488,55.6234303 0.388935114,55.3207856 0.617267903,55.1721447 L19.8381843,43.2522594 L1.13790192,54.0478183 C0.899781186,54.1768089 0.602319117,54.0956477 0.462707651,53.8635945 C0.323096185,53.6315412 0.390742659,53.3307177 0.616254997,53.1807702 L22.7573812,39.3343365 L1.13790192,51.8173979 C0.898567783,51.9497199 0.59741078,51.8681361 0.457593998,51.6331016 C0.317777216,51.3980671 0.389806433,51.0944831 0.620306623,50.9473111 L12.5543726,43.6543833 L1.13790192,50.2443539 C0.898645784,50.3791424 0.595558343,50.2986972 0.454635669,50.063002 C0.313712995,49.8273068 0.386303712,49.5222428 0.61828081,49.37528 L18.4859539,38.3345976 L1.13790192,48.3492056 C0.898567783,48.4815276 0.59741078,48.3999437 0.457593998,48.1649093 C0.317777216,47.9298748 0.389806433,47.6262908 0.620306623,47.4791188 L12.572605,40.1720103 L1.13790192,46.7731228 C0.897074669,46.9154934 0.586431469,46.8356785 0.444060894,46.5948513 C0.30169032,46.354024 0.381505206,46.0433808 0.622332437,45.9010102 L4.93326309,43.2927756 L1.13790192,45.4836927 C0.899252281,45.6151322 0.599382909,45.5342165 0.459247699,45.3005669 C0.319112488,45.0669173 0.388935114,44.7642726 0.617267903,44.6156317 L19.8513521,32.6866302 L1.13790192,43.4872537 C0.899141735,43.6167206 0.600760577,43.5347979 0.461582135,43.3015653 C0.322403693,43.0683326 0.391983447,42.7668342 0.619293717,42.6181798 L15.4816728,33.4878394 L1.13790192,41.7724028 C0.899141735,41.9018696 0.600760577,41.819947 0.461582135,41.5867143 C0.322403693,41.3534817 0.391983447,41.0519833 0.619293717,40.9033289 L15.8453063,31.5450844 L1.13790192,40.034255 C0.899781186,40.1632456 0.602319117,40.0820843 0.462707651,39.8500311 C0.323096185,39.6179779 0.390742659,39.3171544 0.616254997,39.1672069 L22.4717416,25.5122125 L1.13790192,37.8291572 C0.899252281,37.9605967 0.599382909,37.879681 0.459247699,37.6460314 C0.319112488,37.4123818 0.388935114,37.1097372 0.617267903,36.9610962 L21.4831447,23.9644911 L1.13790192,35.7101565 C0.898680218,35.848096 0.593051333,35.7689741 0.450815099,35.532282 C0.308578866,35.2955898 0.382169583,34.9885822 0.616254997,34.8420955 L22.1688825,21.3896825 L1.13790192,33.5313943 C0.899022297,33.6590665 0.601972034,33.5761873 0.463695171,33.3432857 C0.325418308,33.110384 0.394866378,32.8099098 0.62131953,32.6613075 L10.1071902,26.8877397 L1.13790192,32.0626797 C0.898468556,32.1928886 0.598927333,32.1102628 0.460108551,31.8757164 C0.321289769,31.6411699 0.392982329,31.3388255 0.622332437,31.19158 L2.0971245,30.3012351 L1.13790192,30.855295 C0.897074667,30.9976656 0.586431449,30.9178507 0.444060868,30.6770234 C0.301690288,30.4361962 0.381505188,30.125553 0.622332437,29.9831824 L7.25079348,25.9639688 L1.13790192,29.4898968 C0.899349762,29.62356 0.597769739,29.5437216 0.456600204,29.3095334 C0.315430669,29.0753452 0.385653924,28.7713824 0.61524209,28.6228488 L21.7424488,15.3861848 L1.13790192,27.2807475 C0.898567783,27.4130695 0.59741078,27.3314856 0.457593998,27.0964512 C0.317777216,26.8614167 0.389806433,26.5578327 0.620306623,26.4106607 L9.40322009,21.0422555 L1.13790192,25.8120328 C0.898567783,25.9443548 0.59741078,25.862771 0.457593998,25.6277365 C0.317777216,25.3927021 0.389806433,25.089118 0.620306623,24.941946 L7.56985908,20.6877382 L1.13790192,24.4010539 C0.898645784,24.5358424 0.595558343,24.4553972 0.454635669,24.219702 C0.313712995,23.9840068 0.386303712,23.6789428 0.61828081,23.53198 L10.2743198,17.5568437 L1.13790192,22.8300357 C0.898752906,22.9752033 0.5872027,22.8990164 0.442035055,22.6598674 C0.29686741,22.4207184 0.37305436,22.1091682 0.61220337,21.9640005 L15.501931,12.4649621 L1.13790192,20.7596545 C0.899312319,20.9056613 0.587535366,20.8306081 0.441528601,20.5920185 C0.295521837,20.3534289 0.370575053,20.0416519 0.60916465,19.8956452 L14.1659071,11.1380544 L1.13790192,18.6598991 C0.898680218,18.7978385 0.593051333,18.7187166 0.450815099,18.4820245 C0.308578866,18.2453324 0.382169583,17.9383247 0.616254997,17.7918381 L3.93149843,15.7224698 L1.13790192,17.3350172 C0.900516036,17.465573 0.602424465,17.3861919 0.461406341,17.154868 C0.320388216,16.923544 0.386389217,16.6222073 0.611190464,16.4710078 L7.55466548,12.0243477 L1.13790192,15.7336118 C0.900710851,15.8818562 0.588253657,15.8097507 0.440009242,15.5725596 C0.291764826,15.3353686 0.363870332,15.0229114 0.601061397,14.8746669 L10.3756105,8.27760601 L1.13790192,13.6125853 C0.900630753,13.7451578 0.601017383,13.6668032 0.45902536,13.4350461 C0.317033337,13.203289 0.383295367,12.9007713 0.60916465,12.7495888 L3.5465939,10.8443114 L1.13790192,12.2360452 C0.904120817,12.3715902 0.605101713,12.2997128 0.458465412,12.0727242 C0.31182911,11.8457355 0.369236068,11.5436044 0.588906518,11.3862165 L7.88183432,6.1565795 L1.13790192,10.0522184 C0.90502067,10.1867563 0.607594565,10.1158018 0.46052798,9.8906229 C0.313461396,9.66544403 0.36805173,9.36458405 0.584854891,9.20542849 L5.42654863,5.66025525 L1.13790192,8.13681198 C0.909381458,8.26557918 0.620359446,8.19855629 0.471835774,7.98235428 C0.323312102,7.76615227 0.364442358,7.47232563 0.566622571,7.30521563 L4.3396998,4.25636665 L1.13790192,6.10086964 C0.910838373,6.23061817 0.62232573,6.16614704 0.472089752,5.95208703 C0.321853775,5.73802703 0.359305813,5.44478069 0.558519318,5.27535073 L2.2034797,3.89475898 L1.13790192,4.5085804 C0.928736964,4.62936697 0.663383535,4.58563905 0.504035123,4.40412471 C0.344686712,4.22261036 0.335693023,3.95382851 0.48255132,3.76206821 L1.62207129,2.27714707 C1.37271524,2.35968926 1.10163732,2.2378973 0.997755924,1.9966499 C0.89387453,1.7554025 0.991669529,1.47477346 1.22298607,1.3503375 L3.30045759,0.155107664 C3.50956471,0.0354983078 3.77398554,0.0797353276 3.932775,0.260892966 C4.09156447,0.442050605 4.10077285,0.709988093 3.95479528,0.901619857 L2.83654635,2.36324414 L6.69470774,0.134849531 C6.92163648,0.00722412342 7.20836103,0.0724475589 7.35775279,0.285677479 C7.50714455,0.4989074 7.47052788,0.790668065 7.27307743,0.960368442 L5.63014286,2.33792147 L9.45183961,0.134849531 C9.68036007,0.00608233432 9.96938208,0.0731052212 10.1179058,0.289307233 C10.2664294,0.505509244 10.2252992,0.799335882 10.023119,0.966445882 L6.25004173,4.01225615 L12.9706773,0.134849531 C13.2035585,0.000311691788 13.5009846,0.071266195 13.6480512,0.296445067 C13.7951178,0.52162394 13.7405275,0.822483916 13.5237243,0.981639482 L8.68304347,4.52681272 L16.2950369,0.134849531 C16.5285632,0.00287334667 16.8244902,0.0758687316 16.9698548,0.301304723 C17.1152193,0.526740714 17.0595984,0.826419622 16.8430194,0.984678202 L9.54502702,6.21228937 L20.0792561,0.134849531 C20.3165272,0.00227698238 20.6161406,0.0806315847 20.7581326,0.31238868 C20.9001247,0.544145774 20.8338626,0.846663474 20.6079933,0.997845988 L17.6756286,2.89502012 L22.4626254,0.134849531 C22.6982781,0.00432645948 22.9948688,0.081117627 23.1375701,0.30960142 C23.2802713,0.538085214 23.2191391,0.838294801 22.998453,0.992781455 L13.2178265,7.58579077 L26.1283345,0.134849531 C26.3657204,0.0042936798 26.663812,0.0836747749 26.8048301,0.314998736 C26.9458482,0.546322697 26.8798472,0.847659405 26.655046,0.998858895 L19.7186613,5.4394416 L28.911802,0.134849531 C29.1499227,0.00585890207 29.4473848,0.0870201473 29.5869962,0.31907338 C29.7266077,0.551126613 29.6589612,0.851950124 29.4334489,1.00189761 L26.1101022,3.07227879 L31.2050226,0.134849531 C31.4419377,0.00625627834 31.7380638,0.0857742379 31.8786937,0.315748634 C32.0193236,0.54572303 31.9551697,0.845553095 31.732747,0.997845988 L18.1749916,9.75746261 L34.8423703,0.134849531 C35.0798777,0.00613660789 35.3766004,0.0864933107 35.5166994,0.317467368 C35.6567984,0.548441426 35.5909513,0.848717516 35.367056,0.999871801 L20.4773284,10.4948586 L38.4270469,0.134849531 C38.6649446,0.0109590167 38.9581801,0.0940337796 39.0957454,0.324294373 C39.2333106,0.554554967 39.1674935,0.852139609 38.9456551,1.00291052 L29.2815129,6.98209841 L41.1477142,0.134849531 C41.3870483,0.00252754146 41.6882053,0.0841113712 41.8280221,0.319145845 C41.9678389,0.554180318 41.8958097,0.857764332 41.6653095,1.00493633 L34.7117054,5.25914422 L43.5928708,0.134849531 C43.8322049,0.00252754146 44.1333619,0.0841113712 44.2731787,0.319145845 C44.4129955,0.554180318 44.3409663,0.857764332 44.1104661,1.00493633 L35.3427462,6.36523827 L45.5417032,0.477211975 C45.7802553,0.343548853 46.0818354,0.423387226 46.2230049,0.657575446 C46.3641744,0.891763667 46.2939512,1.19572645 46.064363,1.34426006 L24.9391821,14.5788982 L46.8949464,1.90338452 C47.1349939,1.76659439 47.4403804,1.84743663 47.5813078,2.08507884 C47.7222351,2.32272105 47.6466945,2.62946193 47.4115288,2.77448423 L40.7861065,6.79471069 L47.1674183,3.11380796 C47.406424,2.98779491 47.7022629,3.07159203 47.8396804,3.30422787 C47.9770978,3.5368637 47.9076972,3.83640702 47.6819749,3.98490767 L46.2021183,4.87930423 L47.1694441,4.32017977 C47.4088775,4.18997083 47.7084187,4.27259665 47.8472375,4.50714312 C47.9860563,4.74168959 47.9143637,5.04403401 47.6850136,5.19127948 L38.1991429,10.9648473 L47.1643796,5.7899073 C47.4021437,5.66450487 47.6964581,5.74670199 47.8348376,5.97715509 C47.9732172,6.2076082 47.9074482,6.50602358 47.6850136,6.65695538 L26.1323861,20.1093685 L47.1643796,7.96765657 C47.4030292,7.83621705 47.7028986,7.91713281 47.8430338,8.15078237 C47.983169,8.38443193 47.9133464,8.68707661 47.6850136,8.83571756 L26.8191369,21.8323227 L47.1643796,10.0876702 C47.4021437,9.96226775 47.6964581,10.0444649 47.8348376,10.274918 C47.9732172,10.5053711 47.9074482,10.8037865 47.6850136,10.9547183 L25.8295271,24.6097127 L47.1643796,12.2897292 C47.4027527,12.1641024 47.6977559,12.2471162 47.8356327,12.4786196 C47.9735094,12.7101231 47.9059797,13.009051 47.6819749,13.1588031 L32.4569752,22.5200863 L47.1643796,14.0299028 C47.4037137,13.8975808 47.7048707,13.9791647 47.8446875,14.2141991 C47.9845043,14.4492336 47.9124751,14.7528176 47.6819749,14.8999896 L32.8195958,24.0293172 L47.1643796,15.7488054 C47.402624,15.6215559 47.6988046,15.7036607 47.8375301,15.9354107 C47.9762556,16.1671607 47.9087039,16.4669955 47.6840007,16.6168664 L28.4499165,28.544855 L47.1643796,17.7411927 C47.4052069,17.5988222 47.7158501,17.6786371 47.8582206,17.9194643 C48.0005912,18.1602916 47.9207763,18.4709348 47.6799491,18.6133054 L43.3690184,21.22154 L47.1643796,19.0306229 C47.4032592,18.9029507 47.7003095,18.9858299 47.8385864,19.2187316 C47.9768632,19.4516332 47.9074151,19.7521075 47.680962,19.9007097 L35.7286637,27.2078182 L47.1643796,20.6046798 C47.4031398,20.4752129 47.7015209,20.5571356 47.8406994,20.7903682 C47.9798778,21.0236009 47.9102981,21.3250993 47.6829878,21.4737537 L29.8163276,32.5174748 L47.1643796,22.5028668 C47.4032592,22.3751947 47.7003095,22.4580739 47.8385864,22.6909755 C47.9768632,22.9238771 47.9074151,23.2243514 47.680962,23.3729537 L35.746896,30.6658815 L47.1643796,24.074898 C47.4030292,23.9434584 47.7028986,24.0243742 47.8430338,24.2580237 C47.983169,24.4916733 47.9133464,24.794318 47.6850136,24.9429589 L25.5449003,38.7873669 L47.1643796,26.3063313 C47.402624,26.1790818 47.6988046,26.2611866 47.8375301,26.4929366 C47.9762556,26.7246866 47.9087039,27.0245214 47.6840007,27.1743923 L28.4640972,39.0942776 L47.1643796,28.2936541 C47.4052069,28.1512835 47.7158501,28.2310984 47.8582206,28.4719257 C48.0005912,28.7127529 47.9207763,29.0233961 47.6799491,29.1657667 L42.9577783,32.0231764 L47.1643796,29.5922004 C47.4030292,29.4607609 47.7028986,29.5416767 47.8430338,29.7753262 C47.983169,30.0089758 47.9133464,30.3116205 47.6850136,30.4602614 L26.5821167,43.6624865 L47.1643796,31.7800788 C47.4027527,31.6544519 47.6977559,31.7374658 47.8356327,31.9689692 C47.9735094,32.2004726 47.9059797,32.4994006 47.6819749,32.6491527 L35.3538882,40.2246814 L47.1643796,33.404781 C47.4029318,33.2711179 47.7045118,33.3509563 47.8456813,33.5851445 C47.9868509,33.8193327 47.9166276,34.1232955 47.6870394,34.2718291 L29.2805,45.881765 L47.1643796,35.5572076 C47.4028563,35.4209211 47.7065023,35.499571 47.8488291,35.7344927 C47.991156,35.9694144 47.920279,36.2749683 47.6890652,36.4232428 L31.2566808,46.8612457 L47.1593151,37.6782341 C47.3974358,37.5492435 47.6948979,37.6304047 47.8345093,37.862458 C47.9741208,38.0945112 47.9064743,38.3953347 47.680962,38.5452822 L37.927684,44.6510834 L47.1593151,39.3221816 C47.3985712,39.1873931 47.7016587,39.2678383 47.8425813,39.5035335 C47.983504,39.7392287 47.9109133,40.0442927 47.6789362,40.1912555 L43.7670907,42.6151411 L47.1593151,40.6571925 C47.3985368,40.5192531 47.7041657,40.598375 47.8464019,40.8350671 C47.9886381,41.0717593 47.9150474,41.3787669 47.680962,41.5252535 L41.9864009,45.1079043 L47.1643796,42.1188168 C47.4021122,41.9805685 47.7067277,42.0573005 47.8505977,42.2916738 C47.9944676,42.526047 47.9250108,42.8324033 47.6941298,42.9818133 L37.6663541,49.5231644 L47.1643796,44.0342233 C47.4004708,43.9018756 47.6988979,43.9785481 47.8419557,44.2083076 C47.9850135,44.4380671 47.9221366,44.7397025 47.6991943,44.8931681 L38.2356076,51.2349766 L47.1643796,46.0802947 C47.4003537,45.945812 47.7004016,46.0214161 47.8444742,46.2516604 C47.9885468,46.4819048 47.9253452,46.7848078 47.7012201,46.9382266 L40.6372092,51.7171201 L47.1643796,47.9501204 C47.3992131,47.8225478 47.6927584,47.8993986 47.8349528,48.1256778 C47.9771472,48.351957 47.9190488,48.6497816 47.702233,48.8060265 L42.9263782,52.0635342 L47.1643796,49.6173647 C47.400939,49.4828063 47.7015487,49.5592605 47.845078,49.7904869 C47.9886072,50.0217134 47.9237348,50.3250333 47.6981814,50.4773224 L47.149186,50.8419688 L47.1643796,50.8338656 C47.3997859,50.699301 47.6994129,50.7740178 47.8440737,51.0033581 C47.9887345,51.2326984 47.9271004,51.5352875 47.7042588,51.6897717 L46.7835267,52.3218254 L47.1643796,52.1020247 C47.3936618,51.9694098 47.6864034,52.0358651 47.8359532,52.2544786 C47.9855029,52.4730922 47.9413427,52.7700162 47.734646,52.9356468 L44.5206933,55.5165329 L47.1643796,53.9910955 C47.3901515,53.860542 47.6781549,53.9227893 47.8298593,54.1349283 C47.9819396,54.3478281 47.9468188,54.6415252 47.7488267,54.8125628 L46.2081957,56.1414963 L47.1643796,55.5904751 C47.381223,55.4675523 47.6552706,55.5206888 47.810459,55.7157468 C47.9656475,55.9108048 47.9558314,56.1897837 47.7873172,56.373452 L46.9769919,57.2425259 C47.1728234,57.2242655 47.3610206,57.3231287 47.4571096,57.4947396 C47.5962675,57.7367401 47.5133613,58.0457133 47.2717477,58.1855419 L44.654397,59.6937599 C44.4375535,59.8166828 44.163506,59.7635463 44.0083175,59.5684883 C43.8531291,59.3734302 43.8629451,59.0944514 44.0314594,58.9107831 L44.7283391,58.1642709 L42.0795883,59.6937599 C41.8535135,59.8236626 41.5657547,59.7606903 41.4146004,59.5482359 C41.263446,59.3357815 41.2982982,59.0432821 41.4951411,58.8722926 L43.0357721,57.5423462 L39.3062499,59.6937599 C39.0772747,59.8255956 38.7854237,59.759254 38.6359401,59.5413895 C38.4864565,59.3235251 38.529574,59.027351 38.7349706,58.8611507 L41.9499362,56.2792516 L36.0345615,59.6937599 C35.7998609,59.8230292 35.5050835,59.7471193 35.3620125,59.5205678 C35.2189415,59.2940163 35.2770904,58.9952276 35.4946822,58.8388667 L36.4123756,58.2088388 L33.8385799,59.6937599 C33.6027986,59.8224899 33.3075271,59.7447313 33.1657323,59.5165681 C33.0239374,59.2884049 33.0849561,58.9892253 33.3047781,58.8348151 L33.8507347,58.4711816 L31.7317341,59.6937599 C31.4969005,59.8213325 31.2033552,59.7444817 31.0611608,59.5182025 C30.9189664,59.2919233 30.9770649,58.9940987 31.1938806,58.8378538 L35.9687225,55.5803461 L28.8439372,59.6937599 C28.6087021,59.8227146 28.3137178,59.7458701 28.1712974,59.5185349 C28.0288769,59.2911997 28.0884314,58.9922447 28.3070967,58.8368409 L35.3711076,54.0559216 L25.6056747,59.6937599 C25.370022,59.824283 25.0734313,59.7474918 24.93073,59.519008 C24.7880288,59.2905242 24.849161,58.9903147 25.0698471,58.835828 L34.5354596,52.4930066 L22.0615144,59.6937599 C21.8247237,59.8241672 21.5272562,59.7456187 21.3857152,59.5153102 C21.2441743,59.2850017 21.3084609,58.9841295 21.5317642,58.8317764 L31.5595399,52.293464 L18.735129,59.6937599 C18.4970082,59.8227506 18.1995462,59.7415893 18.0599347,59.5095361 C17.9203232,59.2774828 17.9879697,58.9766593 18.213482,58.8267118 L23.9171593,55.2470998 L16.2129914,59.6937599 C16.1367485,59.7394657 16.049668,59.7639462 15.9607777,59.7646638 L15.9607777,59.7646638 Z" id="Path" fill="#D4E8FA"></path>
            <path d="M23.4421061,19.2483986 C23.2174387,19.2487158 23.0194157,19.1009836 22.9557178,18.8855349 C22.8920199,18.6700862 22.9778745,18.438425 23.1665955,18.3165237 L25.8903015,16.5571049 L21.3474152,19.1774944 C21.1116339,19.3062243 20.8163624,19.2284657 20.6745676,19.0003025 C20.5327728,18.7721393 20.5937914,18.4729598 20.8136134,18.3185495 L28.5228458,13.1891903 L18.1506818,19.1774944 C17.9126783,19.3083767 17.6138021,19.2282025 17.4732575,18.9957738 C17.3327129,18.7633451 17.4005473,18.461429 17.6270091,18.3114592 L18.0321718,18.0521551 L16.087391,19.1774944 C15.8509207,19.3044167 15.5564973,19.2248343 15.4161705,18.9960639 C15.2758436,18.7672935 15.3383423,18.4687765 15.5586537,18.3155108 L21.2603052,14.6072596 L13.342414,19.1774944 C13.1074368,19.3101731 12.8096976,19.2353105 12.6654177,19.0072727 C12.5211378,18.7792348 12.5809957,18.4781201 12.8015219,18.3226011 L22.7978975,11.4409134 L9.39612975,19.1774944 C9.15991587,19.3078981 8.8629419,19.2302145 8.72083789,19.0008489 C8.57873389,18.7714833 8.64140259,18.4709822 8.86334085,18.3175366 L16.3517596,13.3654361 L6.49617804,19.0539197 C6.25890688,19.1864923 5.9592935,19.1081377 5.81730148,18.8763806 C5.67530946,18.6446235 5.74157149,18.3421058 5.96744077,18.1909233 L10.8537024,15.0296417 L5.44275513,18.1524328 C5.20567738,18.2898911 4.90226733,18.2138359 4.75806024,17.9808017 C4.61385316,17.7477674 4.68116753,17.4422992 4.90996624,17.2914622 L10.9934835,13.2600938 L5.18952847,16.609776 C4.95387575,16.7402991 4.65728503,16.6635079 4.51458382,16.4350241 C4.37188261,16.2065403 4.43301476,15.9063308 4.65370086,15.7518441 L9.56528516,12.4487555 L5.18952847,14.9739318 C4.95574737,15.1094768 4.65672827,15.0375995 4.51009197,14.8106108 C4.36345567,14.5836222 4.42086263,14.281491 4.64053308,14.1241031 L10.2034163,10.122109 L5.18952847,13.0169962 C4.95469497,13.1445687 4.66114964,13.067718 4.51895524,12.8414387 C4.37676085,12.6151595 4.43485932,12.317335 4.65167505,12.1610901 L5.09330234,11.8572181 C4.86278667,11.9325047 4.61125158,11.8338245 4.49342096,11.6218776 C4.37559034,11.4099307 4.42453403,11.1442012 4.61014588,10.9881442 L8.25660978,7.9099209 L5.18952847,9.68453333 C4.97505605,9.80767046 4.70301508,9.75790284 4.54602834,9.56681036 C4.38904161,9.37571788 4.39302417,9.09919076 4.55544892,8.91269847 L6.58835254,6.5982068 L5.18952847,7.40853211 C4.97678861,7.53089918 4.70692742,7.48312485 4.54912657,7.29515985 C4.39132571,7.10719485 4.39100208,6.83313767 4.54835857,6.6448005 L5.03455376,6.064405 C4.9302238,6.02237522 4.84313864,5.94635416 4.78740454,5.84865588 C4.64824663,5.60665539 4.73115291,5.29768224 4.97276645,5.15785356 L6.65013985,4.18647609 C6.86281461,4.0653898 7.1316498,4.11370126 7.28885933,4.3012582 C7.44606887,4.48881515 7.44667391,4.76195611 7.29029684,4.95020769 L7.17178677,5.09201462 L8.74483078,4.18039865 C8.9593032,4.05726151 9.23134417,4.10702913 9.38833091,4.29812162 C9.54531765,4.4892141 9.54133508,4.76574122 9.37891033,4.95223351 L7.34600671,7.27178971 L12.6931409,4.18647609 C12.9199221,4.05724579 13.2077768,4.12153785 13.3580232,4.33497688 C13.5082696,4.54841592 13.4716918,4.84108619 13.2735364,5.01098209 L9.62707246,8.08819246 L16.3851856,4.18647609 C16.6200191,4.05890354 16.9135644,4.1357543 17.0557588,4.36203352 C17.1979532,4.58831274 17.1398547,4.8861373 16.923039,5.0423822 L16.6039734,5.26015713 L18.4646829,4.18647609 C18.698464,4.05093105 18.9974831,4.12280839 19.1441194,4.34979706 C19.2907557,4.57678573 19.2333487,4.87891685 19.0136783,5.03630476 L13.4426918,9.0403247 L21.8498169,4.18647609 C22.0854696,4.05595302 22.3820603,4.13274418 22.5247615,4.36122798 C22.6674627,4.58971177 22.6063306,4.88992136 22.3856445,5.04440801 L17.4841893,8.33939331 L24.6879813,4.18647609 C24.9241952,4.05607237 25.2211691,4.13375598 25.3632731,4.36312158 C25.5053771,4.59248718 25.4427084,4.89298828 25.2207702,5.04643383 L19.1382658,9.07780225 L27.6122428,4.18647609 C27.8491578,4.05788284 28.145284,4.1374008 28.2859139,4.36737519 C28.4265437,4.59734959 28.3623898,4.89717965 28.1399671,5.04947255 L23.2557313,8.20872835 L30.2285806,4.18647609 C30.4647945,4.05607237 30.7617684,4.13375598 30.9038725,4.36312158 C31.0459765,4.59248718 30.9833078,4.89298828 30.7613695,5.04643383 L23.269912,10.0015731 L33.3463072,4.18647609 C33.5810078,4.05720684 33.8757851,4.13311672 34.0188562,4.35966823 C34.1619272,4.58621973 34.1037782,4.88500842 33.8861865,5.04136929 L23.8908238,11.923057 L37.2925915,4.18647609 C37.5290618,4.05955373 37.8234852,4.13913616 37.963812,4.36790654 C38.1041389,4.59667692 38.0416402,4.8951939 37.8213288,5.04845964 L32.122716,8.75265922 L40.0375685,4.18647609 C40.2752023,4.05947227 40.5706736,4.14076513 40.7098958,4.37145312 C40.8491181,4.60214111 40.7833429,4.90144944 40.5602283,5.05251127 L40.1550657,5.30776374 L41.8486456,4.33030883 C42.0840126,4.20304102 42.377772,4.28082166 42.5193196,4.50788774 C42.6608673,4.73495382 42.6013601,5.03295258 42.3834603,5.18824076 L34.6732149,10.3176 L42.9912043,5.51237088 C43.2297939,5.36636413 43.5415708,5.44141735 43.6875776,5.68000694 C43.8335843,5.91859653 43.7585311,6.23037347 43.5199415,6.37638024 L40.7992743,8.13681198 L43.1127531,6.80078813 C43.347322,6.66971531 43.643424,6.74465046 43.7874067,6.97152412 C43.9313894,7.19839777 43.8731267,7.4982263 43.6546581,7.65466842 L37.1285006,12.1803353 L43.1127531,8.72531074 C43.3451301,8.59009878 43.6426618,8.66002268 43.7904866,8.8845871 C43.9383113,9.10915153 43.8849068,9.41008744 43.6688388,9.57007488 L37.764606,13.9681155 L43.1127531,10.8807761 C43.3412735,10.7520089 43.6302955,10.8190318 43.7788192,11.0352338 C43.9273429,11.2514358 43.8862126,11.5452624 43.6840324,11.7123724 L39.5311152,15.0671192 L43.1127531,12.9987639 C43.3321615,12.8737818 43.6101142,12.929514 43.7643792,13.1294211 C43.9186443,13.3293282 43.9020865,13.6123293 43.7255616,13.7928827 L41.1304948,16.4173238 L43.1127531,15.2737522 C43.3187937,15.1558881 43.5790513,15.1969395 43.7388086,15.3725023 C43.8985659,15.5480651 43.9149549,15.8110302 43.7782327,16.0050708 L42.9679074,17.1456036 C43.2150392,17.0383402 43.5028912,17.1433236 43.6229413,17.384503 C43.7429915,17.6256824 43.6532169,17.9186343 43.4186509,18.0511422 L41.4718443,19.1774944 C41.2658037,19.2953584 41.005546,19.254307 40.8457888,19.0787442 C40.6860315,18.9031814 40.6696425,18.6402163 40.8063646,18.4461758 L41.6106125,17.3137461 L38.3764016,19.1774944 C38.1569093,19.3040602 37.8776589,19.2489484 37.7227081,19.0484839 C37.5677572,18.8480195 37.5847901,18.5638927 37.7625802,18.3833755 L40.357647,15.7599474 L34.434169,19.1774944 C34.2056485,19.3062615 33.9166265,19.2392387 33.7681028,19.0230367 C33.6195792,18.8068346 33.6607094,18.513008 33.8628896,18.345898 L38.0158068,14.993177 L30.7623824,19.1774944 C30.5302226,19.3094801 30.2354706,19.2385168 30.0888205,19.0153304 C29.9421705,18.7921441 29.9940215,18.4934368 30.2073096,18.3327302 L36.1105295,13.9357025 L27.0298214,19.1774944 C26.7952525,19.3085672 26.4991505,19.233632 26.3551678,19.0067584 C26.2111851,18.7798847 26.2694478,18.4800562 26.4879164,18.3236141 L33.0171126,13.7959214 L23.6983715,19.1774944 C23.6210086,19.2240437 23.5323936,19.2485617 23.4421061,19.2483986 L23.4421061,19.2483986 Z" id="Path" fill="#6FD5D2"></path>
            <path d="M9.52071726,31.4032775 C9.31221611,31.4034549 9.12491304,31.2758332 9.04879184,31.0817241 C8.97267065,30.8876151 9.02328903,30.6666908 9.17632901,30.5250874 L11.3257169,28.5387775 L6.6278559,31.2513415 C6.40079236,31.38109 6.11227972,31.3166189 5.96204374,31.1025589 C5.81180776,30.8884989 5.8492598,30.5952525 6.0484733,30.4258226 L9.97956397,27.1186824 L5.26043194,29.8434013 C5.03380181,29.974297 4.74476633,29.9109593 4.59364352,29.6972847 C4.4425207,29.4836102 4.47909165,29.1899851 4.67801062,29.0199082 L8.16342237,26.0399368 L5.18952847,27.7558007 C4.96135292,27.8912439 4.66712607,27.8250206 4.51898428,27.6048776 C4.37037987,27.3865662 4.41447159,27.0907108 4.62027494,26.9252172 L5.18648975,26.4643447 C4.98499878,26.576181 4.73340985,26.5378895 4.57431424,26.3711726 C4.41521862,26.2044556 4.38873287,25.9513514 4.50986812,25.7553101 L5.41641956,24.2957116 C5.16708781,24.4037137 4.87695497,24.2957135 4.75893222,24.0509658 C4.64090947,23.8062182 4.73705709,23.5119449 4.97681808,23.3840956 L6.65419147,22.4157569 C6.85600674,22.2980057 7.11218413,22.3336039 7.27424785,22.5019193 C7.43631157,22.6702348 7.46219251,22.9275755 7.33689055,23.1247915 L6.43641655,24.5752738 L10.1730291,22.4187956 C10.4014026,22.2883609 10.6916123,22.3544339 10.8410109,22.5708771 C10.9904096,22.7873204 10.9492766,23.0821007 10.7463343,23.249379 L10.1831582,23.7072128 L12.4115528,22.4187956 C12.6377775,22.2905155 12.9243933,22.3544276 13.0746859,22.5666669 C13.2249786,22.7789063 13.1900938,23.070482 12.9939741,23.2412758 L9.50957529,26.2212471 L14.4485081,23.3699149 C14.6759922,23.2372813 14.9671635,23.3011027 15.118313,23.5167286 C15.2694625,23.7323545 15.230155,24.0278352 15.0278907,24.1964468 L11.0968,27.502574 L14.7493413,25.3937024 C14.972727,25.2639701 15.257954,25.323155 15.4112805,25.5310554 C15.5646071,25.7389558 15.53689,26.0289369 15.3469563,26.2040277 L13.1985813,28.1923634 L14.7513671,27.2959411 C14.9659474,27.1715304 15.2390571,27.220836 15.3965887,27.4124253 C15.5543652,27.6043316 15.5496458,27.8823482 15.3854467,28.0687888 L14.63387,28.923682 L14.7017347,28.8841787 C14.8585177,28.7922653 15.0525293,28.7914049 15.2101214,28.881924 C15.3677134,28.9724432 15.4647223,29.1404626 15.4643228,29.3222009 C15.4639233,29.5039392 15.3661766,29.6715305 15.208188,29.7613558 L12.4733401,31.3384515 C12.2588677,31.4615886 11.9868267,31.411821 11.82984,31.2207285 C11.6728532,31.029636 11.6768358,30.7531089 11.8392606,30.5666166 L12.5908373,29.7107105 L9.77394392,31.332374 C9.69725028,31.3778923 9.60989671,31.4023513 9.52071726,31.4032775 L9.52071726,31.4032775 Z" id="Path" fill="#C384F8"></path>
            <path d="M22.8394267,31.4032777 C22.6284373,31.4034541 22.4394426,31.2728075 22.3650629,31.0753633 C22.2906833,30.8779191 22.3465033,30.6550476 22.5051675,30.5159713 L24.9756468,28.3503769 L20.3243795,31.0345795 C20.0910894,31.1635159 19.7977874,31.0895582 19.653527,30.8654203 C19.5092666,30.6412824 19.5634292,30.3436883 19.7774099,30.1847508 L20.1187594,29.9406403 L19.5890093,30.2445123 C19.3591213,30.3743999 19.0680168,30.3058737 18.9202095,30.0870765 C18.7724021,29.8682792 18.8174946,29.572637 19.0238074,29.4078514 L22.0250497,27.057908 L19.3702214,28.5914487 C19.1494894,28.7223295 18.8655267,28.6650119 18.712845,28.4587579 C18.5583634,28.2546033 18.580533,27.9672677 18.7645033,27.7892266 L21.2896795,25.3460958 L19.3702214,26.4542156 C19.1683611,26.5729959 18.9113859,26.5378681 18.7488094,26.3692702 C18.5862329,26.2006724 18.5604697,25.9425901 18.6865094,25.745181 L19.5910351,24.2936858 C19.3428412,24.3955284 19.0582881,24.2861592 18.9421967,24.0443021 C18.8261053,23.8024449 18.9187562,23.5120178 19.1534594,23.3820698 L20.8308328,22.4137311 C21.0326481,22.2959799 21.2888255,22.3315781 21.4508892,22.4998935 C21.6129529,22.668209 21.6388338,22.9255497 21.5135319,23.1227657 L20.6160966,24.5661577 L24.3405543,22.4187956 C24.5621209,22.2874124 24.8470097,22.3432704 25.0025583,22.5485945 C25.1581068,22.7539186 25.1347564,23.0432912 24.9482983,23.2210177 L22.4210962,25.6600968 L27.739869,22.5899768 C27.9699277,22.4574945 28.2632446,22.5251462 28.4120374,22.7450081 C28.5608302,22.9648701 28.5145947,23.2623156 28.3060838,23.4266377 L25.3028156,25.777594 L28.8176017,23.7517807 C29.0515128,23.6183493 29.3489394,23.6913019 29.4945613,23.9178248 C29.6401832,24.1443478 29.5830712,24.445218 29.3645712,24.6026223 L28.9887829,24.8710426 C29.2172614,24.7765374 29.4805828,24.8608237 29.6117164,25.0704369 C29.74285,25.28005 29.7034603,25.5537118 29.518533,25.7178325 L27.0470408,27.8834269 L28.9320601,26.7945523 C29.1554457,26.66482 29.4406727,26.7240049 29.5939993,26.9319053 C29.7473258,27.1398057 29.7196088,27.4297868 29.529675,27.6048776 L28.8702728,28.2176861 L28.9320601,28.1822344 C29.1725497,28.0564305 29.4694609,28.1425671 29.6052851,28.3775429 C29.7411093,28.6125187 29.6675583,28.9127953 29.4385134,29.0583986 L25.494255,31.332374 C25.2708693,31.4621063 24.9856423,31.4029214 24.8323158,31.195021 C24.6789892,30.9871206 24.7067063,30.6971395 24.89664,30.5220487 L25.5570552,29.9143047 L23.0916404,31.332374 C23.0153975,31.3780798 22.928317,31.4025603 22.8394267,31.4032777 L22.8394267,31.4032777 Z" id="Path" fill="#C384F8"></path>
            <path d="M7.24167733,43.5581572 C7.02532299,43.5579179 6.83301295,43.4202683 6.7630194,43.2155485 C6.69302585,43.0108288 6.76080773,42.784254 6.93172789,42.6516057 L8.86536667,41.1494652 L5.79322083,42.9220518 C5.56454846,43.0531628 5.27353961,42.9869492 5.12410569,42.7698072 C4.97467177,42.5526652 5.01678159,42.2572042 5.22092858,42.0904554 L8.99198,39.0203354 L5.18952847,41.2142912 C4.96217976,41.3445901 4.67298064,41.279948 4.52274559,41.0652514 C4.37251054,40.8505547 4.41085738,40.5567108 4.61115878,40.3877594 L7.00263136,38.3933462 L5.18952847,39.4356271 C4.96960315,39.5578513 4.69329691,39.5000895 4.54075115,39.3000003 C4.38820538,39.0999112 4.40568098,38.8181734 4.58178449,38.6384696 L5.83981454,37.3875299 L5.19256719,37.7612925 C4.97941528,37.8834907 4.70930143,37.8350734 4.55186399,37.6464478 C4.39442654,37.4578223 4.39508385,37.1834042 4.5534231,36.995535 L5.0254376,36.4394493 C4.85106909,36.3625233 4.73464906,36.1942212 4.72417214,36.0039261 C4.71369522,35.813631 4.81093546,35.6335655 4.97580517,35.5379624 L6.65317857,34.5696236 C6.86605809,34.4486271 7.1350146,34.4972608 7.29204112,34.6851452 C7.44906765,34.8730295 7.44918618,35.1463477 7.29232266,35.3343682 L7.21736757,35.4235039 L8.70127579,34.5675978 C8.92120111,34.4453737 9.19750735,34.5031354 9.35005312,34.7032246 C9.50259888,34.9033138 9.48512329,35.1850516 9.30901978,35.3647554 L8.05200264,36.6136692 L11.5971759,34.5675978 C11.8243875,34.4394757 12.111751,34.5048855 12.261125,34.7187261 C12.4104989,34.9325667 12.3730209,35.2248878 12.1745327,35.3941296 L9.78306008,37.3895557 L13.9633258,34.9788379 C14.1916992,34.8484033 14.481909,34.9144762 14.6313076,35.1309195 C14.7807062,35.3473627 14.7395732,35.642143 14.5366309,35.8094214 L10.7645666,38.8805543 L14.7513671,36.5792304 C14.9815718,36.4485359 15.2735929,36.5171741 15.4214716,36.7367353 C15.5693502,36.9562966 15.5231939,37.2527037 15.3155561,37.4169042 L13.3829303,38.9200577 L14.7513671,38.1289776 C14.9764751,37.9987399 15.2636385,38.0601699 15.4157627,38.2711051 C15.567887,38.4820402 15.5355209,38.7739116 15.3408788,38.9463932 L14.0109324,40.1294682 L14.7513671,39.7020216 C14.9697084,39.5759033 15.2475683,39.6296118 15.4031821,39.828013 C15.5587959,40.0264143 15.5447587,40.309069 15.3702531,40.4910759 L14.9195097,40.9600516 C15.1122929,40.9511306 15.2946748,41.0477542 15.3955758,41.2122654 C15.5354224,41.454492 15.4524344,41.7642233 15.2102139,41.9040806 L12.4662498,43.4872537 C12.2478876,43.6137515 11.9697157,43.5601905 11.8139379,43.3616533 C11.6582298,43.1630604 11.672484,42.8801367 11.8473638,42.6981994 L12.1725068,42.3598886 L10.2186099,43.4872537 C9.99388175,43.6151186 9.70891922,43.5531724 9.557555,43.3435512 C9.40619077,43.1339299 9.4370311,42.8439474 9.62909827,42.6708509 L10.9580318,41.4887889 L7.49490398,43.4872537 C7.41821034,43.532772 7.33085677,43.557231 7.24167733,43.5581572 L7.24167733,43.5581572 Z" id="Path" fill="#C384F8"></path>
            <path d="M23.682165,43.5581572 C23.4697419,43.5590253 23.2793502,43.4272379 23.2053583,43.228116 C23.1313664,43.0289941 23.1894998,42.8048571 23.3509445,42.6667993 L24.7214072,41.4928405 L21.2775246,43.4832021 C21.0466706,43.6157146 20.7526341,43.5469056 20.6045519,43.3257161 C20.4564697,43.1045265 20.5048848,42.8064525 20.7153614,42.6435025 L22.8971623,40.9549871 L19.80881,42.7377028 C19.5811672,42.8647613 19.294258,42.7982485 19.1457417,42.583987 C18.9972254,42.3697255 19.0356276,42.0777218 19.2344919,41.9091452 L23.0683436,38.7559668 L19.3702214,40.8881353 C19.1496387,41.0137198 18.8701612,40.9566196 18.7165162,40.7545765 C18.5628712,40.5525334 18.582521,40.2679599 18.7624774,40.0889519 L21.457822,37.4422269 L19.3702214,38.6465729 C19.1696454,38.761918 18.9164003,38.7266628 18.7549557,38.5609194 C18.5935111,38.3951759 18.5649215,38.141092 18.6854965,37.9436157 L19.6072416,36.4445138 C19.3621377,36.5459064 19.0803241,36.4410085 18.9611701,36.2040303 C18.842016,35.967052 18.9258918,35.6782835 19.1534594,35.542014 L20.8308328,34.5736753 C21.0313572,34.4593024 21.2838505,34.4950039 21.4448043,34.6604882 C21.6057581,34.8259726 21.6344386,35.0793594 21.5145448,35.2766325 L20.5968514,36.7696569 L24.4043674,34.5736753 C24.6249501,34.4480908 24.9044277,34.505191 25.0580726,34.7072341 C25.2117176,34.9092772 25.1920679,35.1938506 25.0121114,35.3728586 L22.3177797,38.0175578 L27.8766114,34.8086696 C28.1042541,34.6816111 28.3911634,34.7481239 28.5396797,34.9623854 C28.6881959,35.1766469 28.6497938,35.4686506 28.4509294,35.6372272 L24.6180907,38.7904056 L28.911802,36.3108102 C29.1428449,36.1752664 29.4394804,36.2430749 29.5886852,36.4655404 C29.73789,36.6880058 29.6880593,36.988185 29.4749781,37.1505098 L27.2850739,38.8430768 L28.933073,37.8919574 C29.1592977,37.7636773 29.4459135,37.8275894 29.5962061,38.0398288 C29.7464988,38.2520681 29.711614,38.5436439 29.5154943,38.7144376 L28.1450316,39.8904222 L28.933073,39.4356271 C29.1568193,39.2972306 29.4492736,39.353198 29.6061114,39.5644275 C29.7629493,39.7756569 29.7319362,40.0717988 29.5347396,40.2459525 L29.1386931,40.6227537 C29.3333796,40.6088566 29.5192227,40.7060909 29.6188108,40.8739546 C29.7588276,41.1159161 29.6763149,41.4255657 29.4344618,41.5657698 L26.0918699,43.4902924 C25.8680491,43.6312767 25.5734273,43.5762641 25.4155639,43.3640109 C25.2577006,43.1517576 25.2897748,42.8537649 25.4891904,42.6799671 L25.7373526,42.4449728 L23.9343787,43.4872537 C23.8581953,43.5330972 23.7710763,43.5575885 23.682165,43.5581572 L23.682165,43.5581572 Z" id="Path" fill="#C384F8"></path>
            <path d="M9.99577048,55.7130368 C9.78821665,55.7135159 9.60137911,55.5873077 9.52433385,55.3945829 C9.4472886,55.2018582 9.49563266,54.9816319 9.64631769,54.8388984 L11.5657758,53.0156665 L7.03301856,55.6330172 C6.80582211,55.7650342 6.5153959,55.7013642 6.36426646,55.486407 C6.21313701,55.2714498 6.25150859,54.9766127 6.45262305,54.8074983 L10.1831582,51.6553328 L5.3617226,54.4388003 C5.13198046,54.5704275 4.83962245,54.5028724 4.69091699,54.2837974 C4.54221154,54.0647224 4.58735402,53.768076 4.79449488,53.6031523 L7.84334387,51.1904087 L5.18952847,52.7239493 C4.97018961,52.8520335 4.68990091,52.7978362 4.53412078,52.597218 C4.37834066,52.3965998 4.3952589,52.1116211 4.57368124,51.9308434 L7.00465717,49.4380802 L5.18952847,50.4874515 C4.98482705,50.6057441 4.72551517,50.5666696 4.56476184,50.3933081 C4.4040085,50.2199467 4.38458793,49.9584274 4.51797137,49.7632232 L5.2857546,48.637884 C5.08493135,48.6595287 4.89001791,48.5616758 4.78740454,48.387696 C4.64824663,48.1456955 4.73115291,47.8367224 4.97276645,47.6968937 L6.65013985,46.7285549 C6.85460715,46.6111011 7.11308125,46.6502986 7.27353257,46.8230923 C7.43398388,46.995886 7.45395403,47.2565515 7.32169695,47.4517703 L6.60658486,48.5001287 L9.6787307,46.7285549 C9.89775934,46.6021931 10.1764317,46.6567495 10.3316407,46.8563768 C10.4868496,47.056004 10.4710306,47.3395256 10.2945779,47.5206479 L7.863602,50.0134112 L13.3798916,46.8298456 C13.6096337,46.6982184 13.9019917,46.7657735 14.0506972,46.9848485 C14.1994026,47.2039235 14.1542601,47.5005699 13.9471193,47.6654936 L10.8932058,50.0711469 L14.5872763,47.9440429 C14.8139249,47.8168867 15.100035,47.881917 15.2494526,48.0945497 C15.3988701,48.3071824 15.363097,48.5984009 15.1666589,48.7685489 L11.4361237,51.9217273 L14.7513671,50.0083466 C14.9751135,49.8699501 15.2675677,49.9259175 15.4244056,50.137147 C15.5812435,50.3483764 15.5502303,50.6445183 15.3530337,50.818672 L13.4285111,52.6419039 L14.7452897,51.881211 C14.9495759,51.7635288 15.2080465,51.8023725 15.3687189,51.9749017 C15.5293912,52.1474309 15.5497648,52.4080088 15.4178597,52.6034135 L14.6460249,53.7388818 C14.884275,53.7103342 15.1098582,53.8528987 15.1863264,54.0803426 C15.2627946,54.3077865 15.1691569,54.5576752 14.9620517,54.6788592 L13.2856912,55.646185 C13.0819354,55.7670677 12.8212851,55.7281394 12.6617408,55.5529976 C12.5009706,55.3802581 12.4808058,55.119376 12.6131212,54.9239826 L13.3343108,53.8644822 L10.2479842,55.6421334 C10.1718008,55.6879769 10.0846818,55.7124681 9.99577048,55.7130368 L9.99577048,55.7130368 Z" id="Path" fill="#C384F8"></path>
            <path d="M22.8282847,55.7130368 C22.6142866,55.7135463 22.4230637,55.5794953 22.3505702,55.3781496 C22.2780766,55.1768039 22.3399599,54.9516232 22.5051675,54.8156016 L24.1936828,53.4208291 L20.6059675,55.4901974 C20.3784702,55.6188459 20.0904412,55.5532572 19.9410763,55.3387913 C19.7917114,55.1243254 19.8300699,54.8314241 20.0296236,54.6626526 L23.93134,51.4213514 L19.4066861,54.0336376 C19.1750146,54.1663719 18.8800884,54.0964507 18.7326622,53.8738399 C18.5852361,53.6512291 18.6359547,53.3524012 18.8485745,53.1908993 L20.7244776,51.77283 L19.3671827,52.5568197 C19.1437971,52.686552 18.8585701,52.6273671 18.7052435,52.4194667 C18.551917,52.2115663 18.579634,51.9215852 18.7695678,51.7464944 L20.8085489,49.8553977 L19.3681956,50.6859812 C19.1664785,50.8017129 18.911867,50.7651933 18.7508126,50.5974283 C18.5897583,50.4296633 18.5636571,50.1737739 18.6875224,49.9769465 L19.5535575,48.6196516 C19.3071425,48.6971838 19.0418641,48.5768317 18.9379139,48.340345 C18.8339637,48.1038583 18.9246591,47.8270341 19.1483949,47.6979066 L20.8257683,46.7295679 C21.0274324,46.6148273 21.2812751,46.6517984 21.4418326,46.819295 C21.60239,46.9867917 21.6285941,47.2419707 21.5054286,47.4386025 L20.654587,48.7726005 L24.1997603,46.7265291 C24.4231459,46.5967969 24.7083729,46.6559817 24.8616995,46.8638821 C25.015026,47.0717825 24.9873089,47.3617637 24.7973752,47.5368544 L22.7604199,49.4259253 L27.348887,46.7771745 C27.5805585,46.6444402 27.8754847,46.7143614 28.0229109,46.9369722 C28.170337,47.159583 28.1196184,47.4584109 27.9069986,47.6199128 L26.0300826,49.0379821 L28.5623492,47.5783836 C28.7899861,47.4474993 29.079903,47.5123032 29.2301475,47.7276537 C29.380392,47.9430042 29.3411279,48.2374692 29.139706,48.4059283 L25.2369767,51.6522941 L28.9290214,49.5251902 C29.1568075,49.3959829 29.4455308,49.4617423 29.5948961,49.6768494 C29.7442614,49.8919565 29.7050016,50.1854596 29.5043524,50.3537478 L27.815837,51.7485202 L28.9300343,51.1063374 C29.1531053,50.9820065 29.4338468,51.0432106 29.5849249,51.2491092 C29.7360031,51.4550079 29.7101472,51.7411777 29.5246105,51.9166628 L28.9492795,52.4413484 C29.1641434,52.3285233 29.4288423,52.383975 29.5803559,52.5735525 C29.7318696,52.7631299 29.7276061,53.0335411 29.5701913,53.2182478 L29.0951381,53.7783852 C29.1948356,53.8212515 29.2777359,53.8956127 29.3311453,53.9900826 C29.4704739,54.2318184 29.3880424,54.5407102 29.1467963,54.680885 L27.4704358,55.6482108 C27.2574902,55.7704913 26.9875045,55.722395 26.829886,55.5341007 C26.6722674,55.3458064 26.672433,55.0715701 26.8302788,54.8834663 L26.9133372,54.7821756 L25.4172741,55.6421334 C25.194203,55.7664643 24.9134616,55.7052602 24.7623834,55.4993616 C24.6113053,55.2934629 24.6371611,55.0072931 24.8226979,54.8318081 L25.396003,54.3071224 L23.0815114,55.6421334 C23.0048177,55.6876517 22.9174641,55.7121107 22.8282847,55.7130368 L22.8282847,55.7130368 Z" id="Path" fill="#C384F8"></path>
            <path d="M36.7486606,31.4032796 C36.5319338,31.4039057 36.3388273,31.2665609 36.2683031,31.0616285 C36.1977789,30.8566961 36.2654695,30.6296022 36.4366854,30.496726 L37.3250045,29.8038979 L34.8768092,31.2219672 C34.6434169,31.3559104 34.3460269,31.2839462 34.1996949,31.0581152 C34.0533628,30.8322841 34.109188,30.5314467 34.3268009,30.3731514 L35.0145645,29.8768272 L33.9246769,30.5048293 C33.6944723,30.6355239 33.4024511,30.5668856 33.2545725,30.3473244 C33.1066939,30.1277631 33.1528502,29.831356 33.3604879,29.6671555 L36.4214918,27.2797346 L33.5509144,28.9307724 C33.3231282,29.0599797 33.034405,28.9942203 32.8850397,28.7791132 C32.7356743,28.5640061 32.7749341,28.2705029 32.9755834,28.1022148 L35.1310487,26.3225378 L33.5509144,27.2341538 C33.3276302,27.3620062 33.0439659,27.3021197 32.8914167,27.0949222 C32.7388675,26.8877246 32.7659203,26.5990726 32.9543124,26.4238285 L33.8659283,25.5831159 L33.5478757,25.7654391 C33.3372776,25.8864099 33.0704518,25.8408499 32.9119267,25.6568519 C32.7534015,25.4728539 32.7478111,25.2022242 32.8986025,25.0118366 L33.4536753,24.3159697 C33.2556078,24.2633339 33.1087857,24.0965161 33.0817289,23.8933679 C33.054672,23.6902197 33.1527143,23.490789 33.3301007,23.3881473 L35.008487,22.4198085 C35.2190851,22.2988377 35.4859109,22.3443978 35.644436,22.5283957 C35.8029611,22.7123937 35.8085516,22.9830235 35.6577602,23.173411 L35.3538882,23.553251 L37.3260174,22.4187956 C37.5493016,22.2909431 37.8329659,22.3508297 37.9855151,22.5580272 C38.1380643,22.7652247 38.1110115,23.0538768 37.9226194,23.2291209 L37.0110035,24.0708463 L39.8714518,22.4187956 C40.0992379,22.2895883 40.3879612,22.3553477 40.5373265,22.5704548 C40.6866918,22.7855619 40.6474321,23.079065 40.4467828,23.2473532 L38.2933433,25.0260173 L42.2224081,22.7581193 C42.4526128,22.6274248 42.7446339,22.696063 42.8925126,22.9156243 C43.0403912,23.1351855 42.9942349,23.4315926 42.7865971,23.5957931 L39.7235674,25.9852399 L43.0773013,24.0495753 C43.3106936,23.9156321 43.6080836,23.9875963 43.7544156,24.2134273 C43.9007477,24.4392584 43.8449225,24.7400958 43.6273096,24.8983911 L42.9435976,25.3916766 L43.1127531,25.2903859 C43.3429577,25.1596914 43.6349788,25.2283296 43.7828575,25.4478909 C43.9307361,25.6674521 43.8845798,25.9638592 43.6769421,26.1280597 L42.7845713,26.8239266 L43.1127531,26.6355259 C43.3212234,26.5165787 43.5845579,26.5602986 43.7434072,26.7402298 C43.9022565,26.920161 43.9129917,27.1868841 43.7691166,27.3789994 L42.3885248,29.2022314 L43.0813529,28.8021332 C43.2383479,28.7023319 43.437421,28.6966351 43.5998663,28.7872952 C43.7623117,28.8779554 43.8619775,29.0503772 43.8594597,29.2363917 C43.8569419,29.4224062 43.7526459,29.5920673 43.5878063,29.6782975 L40.7283708,31.332374 C40.5199005,31.4513212 40.256566,31.4076013 40.0977167,31.2276702 C39.9388673,31.047739 39.9281322,30.7810158 40.0720073,30.5889006 L41.4525991,28.7656686 L37.0018873,31.332374 C36.9251936,31.3778923 36.8378401,31.4023513 36.7486606,31.4032796 L36.7486606,31.4032796 Z" id="Path" fill="#C384F8"></path>
            <path d="M35.3873141,55.7130372 C35.1728324,55.7133088 34.9814367,55.5784467 34.9095294,55.3763779 C34.837622,55.1743091 34.9007975,54.9488563 35.0672356,54.8135757 L38.1150717,52.3349932 L33.8993543,54.7659691 C33.6714222,54.8935634 33.3838388,54.8268722 33.23533,54.6119804 C33.0868211,54.3970887 33.1261108,54.1044998 33.3260491,53.9363986 L38.1950913,49.9566884 L33.5509144,52.6419039 C33.3190357,52.7778672 33.0213312,52.708995 32.8727249,52.4850086 C32.7241185,52.2610222 32.7763845,51.9599581 32.9917899,51.7991656 L36.6737055,49.0015174 L33.5509144,50.8044913 C33.3213385,50.9336283 33.0311002,50.8652287 32.8833474,50.6471677 C32.7355946,50.4291068 32.7796595,50.1341915 32.9846996,49.9688433 L37.5903861,46.3284568 L33.5509144,48.6581421 C33.3175221,48.7920853 33.0201321,48.7201211 32.8738001,48.4942901 C32.727468,48.268459 32.7832932,47.9676216 33.0009061,47.8093263 L35.0621711,46.3233923 L33.5509144,47.1965178 C33.3173881,47.328494 33.021461,47.2554986 32.8760965,47.0300626 C32.7307319,46.8046266 32.7863529,46.5049477 33.0029319,46.3466891 L34.6002857,45.2041305 L33.5509144,45.8118744 C33.3217913,45.9419731 33.0311891,45.8746587 32.8826039,45.6570685 C32.7340186,45.4394784 32.7770917,45.144308 32.9816608,44.9782523 L37.8577934,41.0714714 L33.5509144,43.5510668 C33.3176549,43.6871435 33.0186573,43.6162639 32.8713029,43.3899599 C32.7239484,43.1636558 32.7800765,42.8615415 32.9988803,42.703264 L35.1118035,41.1575684 L33.5509144,42.0590553 C33.3261862,42.1869203 33.0412237,42.1249741 32.8898594,41.9153528 C32.7384952,41.7057316 32.7693355,41.4157491 32.9614027,41.2426526 L36.6828217,37.9415898 L33.5509144,39.7526669 C33.3276302,39.8805194 33.0439659,39.8206328 32.8914167,39.6134353 C32.7388675,39.4062378 32.7659203,39.1175857 32.9543124,38.9423416 L34.271091,37.7268536 L33.5478757,38.1441712 C33.3408478,38.2621365 33.0795892,38.219834 32.9203649,38.042566 C32.7611406,37.8652979 32.7470194,37.6010136 32.8864476,37.407788 L33.5569918,36.4880688 C33.3338592,36.4755067 33.1453373,36.318174 33.0930581,36.1008888 C33.0407789,35.8836035 33.1371025,35.6577366 33.3301007,35.5450527 L35.008487,34.576714 C35.2155149,34.4587487 35.4767735,34.5010511 35.6359978,34.6783192 C35.7952221,34.8555873 35.8093432,35.1198715 35.6699151,35.3130971 L35.1188939,36.0677126 L37.709909,34.5736753 C37.9331932,34.4458228 38.2168575,34.5057094 38.3694067,34.7129069 C38.5219559,34.9201044 38.4949031,35.2087565 38.306511,35.3840006 L36.9897324,36.5994885 L40.5055314,34.5736753 C40.7302596,34.4458104 41.0152221,34.5077565 41.1665863,34.7173778 C41.3179505,34.926999 41.2871102,35.2169815 41.095043,35.390078 L37.3756498,38.6901279 L42.8271134,35.5430269 C43.0603729,35.4069503 43.3593704,35.4778299 43.5067249,35.7041339 C43.6540794,35.9304379 43.5979512,36.2325522 43.3791475,36.3908298 L41.2601468,37.9355124 L43.1168047,36.8638572 C43.3463983,36.7304008 43.6400861,36.7969533 43.7897207,37.0163464 C43.9393553,37.2357395 43.8941128,37.5334555 43.6860582,37.6984923 L38.805874,41.6032473 L43.1127531,39.1175745 C43.3462793,38.9855983 43.6422064,39.0585937 43.787571,39.2840296 C43.9329355,39.5094656 43.8773145,39.8091445 43.6607355,39.9674031 L42.0633818,41.1099618 L43.1127531,40.5022178 C43.3461454,40.3682747 43.6435353,40.4402388 43.7898673,40.6660699 C43.9361994,40.8919009 43.8803742,41.1927383 43.6627614,41.3510336 L41.6065609,42.8379805 L43.1127531,41.9678937 C43.3428117,41.8354114 43.6361287,41.9030631 43.7849215,42.122925 C43.9337142,42.342787 43.8874788,42.6402325 43.6789679,42.8045546 L39.0732814,46.4439282 L43.1127531,44.1142429 C43.3440842,43.9825679 43.6378679,44.0524398 43.785149,44.2741619 C43.9324301,44.495884 43.8829394,44.7937793 43.6718775,44.9559683 L39.9899619,47.7536165 L43.1127531,45.9506426 C43.3406851,45.8230484 43.6282685,45.8897396 43.7767774,46.1046313 C43.9252862,46.3195231 43.8859965,46.6121119 43.6860582,46.7802132 L38.817016,50.7599234 L43.1127531,48.2803279 C43.3409777,48.1521651 43.6292644,48.2190266 43.7777753,48.4345647 C43.9262863,48.6501028 43.8860879,48.9432986 43.6850453,49.1109114 L40.6351834,51.5905068 L43.1127531,50.1612955 C43.3308672,50.0352428 43.60847,50.0886649 43.7642233,50.2866649 C43.9199765,50.4846649 43.9065234,50.767041 43.7326519,50.9493369 L41.7655872,53.0217439 L43.1127531,52.2438316 C43.3225033,52.1235044 43.5880588,52.1682442 43.7468049,52.3506544 C43.905551,52.5330645 43.9131988,52.8022539 43.7650649,52.9933825 L43.1816307,53.7409076 C43.3866667,53.7845515 43.5436235,53.9500028 43.5764102,54.1570525 C43.6091968,54.3641023 43.511036,54.5699518 43.3295151,54.6748075 L41.6531546,55.6421334 C41.4434044,55.7624606 41.1778488,55.7177207 41.0191027,55.5353106 C40.8603566,55.3529004 40.8527089,55.0837111 41.0008427,54.8925825 L41.3705536,54.4175292 L39.2434497,55.6421334 C39.0256385,55.7666188 38.7495162,55.7130372 38.594285,55.5158002 C38.4390539,55.3187175 38.4515021,55.0376906 38.6235508,54.8551049 L40.5896026,52.7837108 L35.6405408,55.6421334 C35.5639826,55.6879675 35.4765418,55.712451 35.3873141,55.7130372 L35.3873141,55.7130372 Z" id="Path" fill="#F5EC83"></path>
            <g id="Group" fill="#262626">
                <path d="M48.1843766,16.4821498 C47.3244189,11.8075856 50.3469323,3.2576407 46.096776,0.376934218 C32.3404909,-0.406042614 18.365418,0.31008238 4.54025532,0.0882558257 C-2.00818611,-0.00189286518 0.608151744,8.08211502 0.11790493,12.2725098 C0.219195594,26.9596561 -0.058340825,41.6538927 0.11790493,56.3339486 C0.762113553,62.5582599 13.3393753,58.7416277 17.8782099,59.7433924 C60.3341917,59.6856567 45.640968,65.7843676 48.1843766,16.4821498 Z M46.7116103,55.8254695 C46.70452,57.2536678 46.2355442,58.7244083 44.534874,58.8378538 L4.74992699,58.8378538 C-0.806878832,58.4610525 2.38782871,50.4682063 1.58965828,46.771097 C1.69803929,32.3625001 1.40530927,17.9387095 1.58965828,3.53720293 C1.71931033,0.389089098 4.80462395,0.990755641 6.9783216,0.990755641 L42.3358537,0.990755641 C48.3018738,-0.0464607573 46.4745902,6.92132402 46.7116103,10.6012138 C46.6964167,25.6763034 46.7389588,40.7524058 46.7116103,55.8254695 L46.7116103,55.8254695 Z" id="Shape"></path>
                <path d="M42.7319002,4.34752824 C30.9659766,3.6536872 18.9599942,4.27054734 7.12316725,4.08518542 C2.01609197,4.42957368 4.57064252,14.2932585 4.39743548,17.8718577 C5.01530853,19.1430555 6.29460962,19.2747334 7.52934281,19.2747334 C18.7827356,19.2230752 30.0442316,19.4185661 41.2966114,19.2747334 C42.2172967,19.233067 43.0704809,18.7797275 43.6202792,18.0400524 C44.1700775,17.3003773 44.3582421,16.3527307 44.13275,15.4591141 C43.5118383,11.9696507 45.6774327,6.84839474 42.7319002,4.34752824 Z M42.6549193,10.2477094 C42.1120013,12.6432336 43.9858786,17.0554549 41.4455087,18.2689171 L23.2131892,18.2689171 C19.776397,17.5072113 5.99377635,20.1802719 5.64229774,16.5540662 C5.58861369,13.2509776 5.58456206,9.90737279 5.64229774,6.60631005 C6.0474604,3.93628815 9.5267947,5.49211275 11.3662332,5.09606625 L39.8846196,5.09606625 C43.1542822,4.33638627 42.8899136,8.1094635 42.6549193,10.2477094 Z" id="Shape"></path>
                <path d="M6.34120332,31.3100901 C9.23001306,31.0234375 13.1752844,32.3776937 15.3702531,30.0429439 C15.9830616,27.7274393 16.8106063,22.576809 13.2786009,22.4208214 C10.3654814,22.8259841 4.71751398,20.9014615 4.1715573,25.0979337 C4.34982887,27.253399 3.25082517,30.9586115 6.34120332,31.3100901 L6.34120332,31.3100901 Z M6.32398391,23.3304116 C8.76914054,23.5471736 14.5548633,21.6793738 14.3056882,25.6418645 C14.0382809,27.133876 15.0856263,29.8454271 13.3029107,30.5240745 C9.50451076,30.3397255 4.43997756,31.9796214 5.64432355,26.1766792 C5.63925902,25.2954505 5.41236793,23.868265 6.32398391,23.3304116 L6.32398391,23.3304116 Z" id="Shape"></path>
                <path d="M18.4646829,29.7633816 C20.0124042,32.569133 24.2382507,30.7540043 26.871808,31.2280446 C30.8342988,31.2989481 30.376465,25.9609301 29.5053653,23.3881473 C28.3212774,21.9771683 26.2346897,22.6679706 24.6251811,22.5200863 C18.5588832,21.7735741 17.6746157,24.2724147 18.4646829,29.7633816 L18.4646829,29.7633816 Z M20.4398508,23.2807791 C22.8708268,23.3344632 28.7710079,21.6601285 28.4823296,25.6469291 C28.2209996,27.166289 29.2339063,29.8444142 27.5220941,30.6294168 C23.6983715,30.4876099 18.5923091,31.9958279 19.8240036,26.1817438 C19.819952,25.2225212 19.6193965,23.9685428 20.4398508,23.2757146 L20.4398508,23.2807791 Z" id="Shape"></path>
                <path d="M13.2380846,34.4835266 C10.3300297,34.8886892 4.71953979,32.9641666 4.16547986,37.1515227 C4.33564818,39.3799173 3.25386389,43.1347622 6.39387447,43.5581572 C9.27761967,43.2421303 13.4345885,44.7392063 15.4553373,42.1400879 C15.9263389,39.7445637 16.814658,34.6972499 13.2380846,34.4835266 L13.2380846,34.4835266 Z M13.0902003,42.5867797 C9.29078746,42.4176243 4.45213244,44.004849 5.64634937,38.26572 C5.64634937,37.4118397 5.43262607,36.0707513 6.3371517,35.5825303 C10.2267132,35.5926593 15.4685051,33.8261502 14.2945463,39.7941961 C14.2945463,40.7878575 14.5092825,42.5351215 13.0902003,42.5867797 Z" id="Shape"></path>
                <path d="M27.4218163,34.4946686 C24.5157872,34.9048957 18.9134005,32.9753086 18.3471857,37.1555743 C18.5183669,39.3758656 17.4284794,43.1317235 20.5755803,43.5480281 C23.4603384,43.2309883 27.6112298,44.7250256 29.638056,42.1299588 C30.1009544,39.751654 31.0176349,34.6486304 27.4218163,34.4946686 L27.4218163,34.4946686 Z M27.2800094,42.5979217 C23.4724933,42.4328179 18.6318125,44.0089006 19.8270423,38.2626813 C19.8270423,37.4098139 19.613319,36.0606222 20.5148059,35.5703754 C22.9153947,35.7901761 28.7912661,33.8980665 28.4762521,37.8261185 C28.2128964,39.2897686 29.3048097,42.2201075 27.2800094,42.5979217 L27.2800094,42.5979217 Z" id="Shape"></path>
                <path d="M13.2877171,46.7650196 C10.3796621,47.1772726 4.76106897,45.2456596 4.1715573,49.407693 C4.34780306,51.5489776 3.24778645,55.2693837 6.33310007,55.5925009 C9.22494853,55.288629 13.1540134,56.6469368 15.3651886,54.3324451 C15.9820487,52.0584697 16.8288387,46.8095875 13.2877171,46.7650196 L13.2877171,46.7650196 Z M14.3006237,49.9516239 C14.0332163,51.4517386 15.0754973,54.1663284 13.3069623,54.8682727 C10.9590447,54.3557419 6.3371517,56.3167292 5.64331065,53.1534218 C5.84589198,51.4132482 4.9798568,48.9589754 6.31081612,47.6087708 C8.764076,47.8073005 14.5538504,45.9668492 14.3016366,49.9516239 L14.3006237,49.9516239 Z" id="Shape"></path>
                <path d="M27.4694229,46.7680583 C24.561368,47.1813242 18.9458135,45.2486983 18.3532632,49.407693 C18.5295089,51.5469518 17.4284794,55.2693837 20.513793,55.5864235 C23.4066544,55.2825515 27.3326805,56.6388335 29.5458815,54.3273806 C30.1627417,52.0594826 31.0095316,46.8085746 27.4694229,46.7680583 Z M28.4823296,49.9516239 C29.4192682,56.535517 26.1111151,54.6636656 21.2977828,54.8611824 C19.0957237,54.593775 19.3823763,48.7837425 20.4874574,47.6057321 C22.944769,47.802236 28.7345433,45.9648233 28.4823296,49.9516239 L28.4823296,49.9516239 Z" id="Shape"></path>
                <path d="M34.694486,31.2817287 C41.6896192,31.6099104 46.0815824,31.9654407 43.6597226,23.3395277 C41.6339094,21.8546066 32.5177496,21.3035854 32.5339561,25.0969208 C32.709189,27.2382054 31.6091723,30.9596244 34.694486,31.2817287 Z M34.6732149,23.2979986 C37.1254619,23.5005799 42.9152363,21.6570898 42.6630225,25.6418645 C42.3956152,27.1419793 43.4378961,29.857582 41.6693611,30.5595263 C37.8557676,30.3903709 32.8003506,31.9846859 34.0016578,26.1766792 C34.0006449,25.2741794 33.7737538,23.8733295 34.6732149,23.2979986 L34.6732149,23.2979986 Z" id="Shape"></path>
                <path d="M44.1297113,38.3042104 C44.350525,36.6177209 43.8420458,34.6719272 41.811168,34.6790176 C38.9638875,34.9312313 35.1999264,33.7046014 32.9654543,35.8945055 C31.851257,40.7564574 32.8641637,46.1390433 32.5329432,51.1711635 C31.47243,56.9639765 37.1163457,55.4132165 40.8955004,55.5357782 C46.9982629,55.3544679 43.0924949,42.6536315 44.1297113,38.3042104 Z M41.7058257,54.9330987 C39.3244822,54.4610842 35.171565,56.2356967 34.0462257,53.4137388 C34.6175051,48.6986584 32.5582659,38.5766823 34.9882289,35.270555 C37.4192048,35.6878726 42.7653261,33.7643629 42.6630225,37.646834 C42.0137493,41.7399897 44.0689369,52.4717356 41.7058257,54.9330987 Z" id="Shape"></path>
                <path d="M39.6394962,46.7508389 C38.7906804,46.9108781 36.7618284,46.2778115 36.6342022,47.4102411 C37.1345781,47.7414616 41.2925598,47.5186221 39.6394962,46.7508389 Z" id="Path"></path>
                <path d="M39.6232897,42.6384379 C38.7856159,42.8045546 36.614957,42.1319846 36.6392667,43.3778598 C37.1517975,43.8012548 41.4019537,43.5439765 39.6232897,42.6384379 Z" id="Path"></path>
                <path d="M9.61694339,9.58425557 C9.85497645,9.23378987 11.2588651,8.31609646 10.2966037,8.37687086 C8.99907034,8.41232259 7.13430922,10.8260791 9.61694339,9.58425557 Z" id="Path"></path>
                <path d="M16.5016698,8.26038659 C15.4624276,8.10237316 8.92614107,14.5090077 9.51261401,15.1025709 C10.5559078,15.2615973 17.0921944,8.85496279 16.5016698,8.26038659 Z" id="Path"></path>
            </g>
        </g>
    </g>
</svg>