<?xml version="1.0" encoding="UTF-8"?>
<svg width="48px" height="45px" viewBox="0 0 48 45" version="1.1" xmlns="http://www.w3.org/2000/svg" xmlns:xlink="http://www.w3.org/1999/xlink">
    <title>programme-icon-chat</title>
    <g id="Page-1" stroke="none" stroke-width="1" fill="none" fill-rule="evenodd">
        <g id="programme-icon-chat" transform="translate(0.000000, -0.000000)" fill-rule="nonzero">
            <path d="M41.5366289,6.5136252 C37.3665699,2.31328249 31.8216488,0 25.923355,0 C20.0249675,0 14.4801401,2.31328249 10.3100811,6.5136252 C6.14208482,10.711999 3.84661628,16.2933919 3.84661628,22.229845 C3.84661628,25.7158482 4.6685896,29.176443 6.22252888,32.2661326 C5.48596879,35.2209987 3.41270588,37.6831683 0.617134039,38.8963923 C-0.00972960678,39.150288 -0.206714429,40.020359 0.249322779,40.519431 C2.07487798,42.6182897 4.71021799,43.8220442 7.47963145,43.8220442 C10.0067751,43.8220442 12.4066897,42.8271818 14.1950231,41.0660381 C17.7069034,43.2887507 21.7424201,44.4595024 25.9232613,44.4595024 C31.821555,44.4595024 37.3664762,42.14622 41.5365351,37.9458772 C45.7045315,33.7475035 48,28.1660168 48,22.2296575 C48,16.2932981 45.7046252,10.711999 41.5366289,6.5136252 Z M25.923355,42.3969279 C21.8634613,42.3969279 17.9547049,41.1791098 14.619839,38.8751093 L14.6197453,38.8752968 C14.1865849,38.5752724 13.5885049,38.6492471 13.2434767,39.0608432 C11.8054219,40.7757644 9.70459423,41.7593759 7.47972521,41.7593759 C5.75945985,41.7593759 4.10491861,41.1660775 2.77871665,40.1008031 C5.60250954,38.417947 7.63283145,35.6090616 8.3216689,32.3437639 C8.3761421,32.0855554 8.32785691,31.8300658 8.20597196,31.617986 C6.70369314,28.7452516 5.90928457,25.500018 5.90928457,22.229845 C5.90928457,11.1097189 14.8876109,2.06266829 25.923355,2.06266829 C36.9590992,2.06266829 45.9374255,11.1096252 45.9374255,22.229845 C45.9374255,33.3500648 36.9591929,42.3969279 25.923355,42.3969279 Z" id="Shape" fill="#293D56"></path>
            <g id="Group" transform="translate(15.378620, 18.121479)" fill="#C384F8">
                <path d="M20.0581365,2.06266829 L1.03133415,2.06266829 C0.461756425,2.06266829 2.66475268e-15,1.60091187 2.66475268e-15,1.03133415 C2.66475268e-15,0.461756425 0.461756425,0 1.03133415,0 L20.0581365,0 C20.6277143,0 21.0894707,0.461756425 21.0894707,1.03133415 C21.0894707,1.60091187 20.6277143,2.06266829 20.0581365,2.06266829 Z" id="Path"></path>
                <path d="M14.5251226,9.53815322 L1.03133415,9.53815322 C0.461756425,9.53815322 2.66475268e-15,9.07639679 2.66475268e-15,8.50681907 C2.66475268e-15,7.93724135 0.461756425,7.47548492 1.03133415,7.47548492 L14.5251226,7.47548492 C15.0947003,7.47548492 15.5564567,7.93724135 15.5564567,8.50681907 C15.5564567,9.07639679 15.0947003,9.53815322 14.5251226,9.53815322 Z" id="Path"></path>
            </g>
        </g>
    </g>
</svg>