<?xml version="1.0" encoding="UTF-8"?>
<svg width="48px" height="48px" viewBox="0 0 48 48" version="1.1" xmlns="http://www.w3.org/2000/svg" xmlns:xlink="http://www.w3.org/1999/xlink">
    <title>programme-icon-learn</title>
    <g id="Page-1" stroke="none" stroke-width="1" fill="none" fill-rule="evenodd">
        <g id="XMLID_1511_" transform="translate(-0.000000, 0.000000)">
            <path d="M38.730677,0 C40.5462724,0 42.0233463,1.44692956 42.0233463,3.22547193 L42.0233463,3.22547193 L42.0233463,3.66484745 L44.1712062,3.66484745 C46.2823658,3.66484745 48,5.34742794 48,7.41550258 L48,7.41550258 L48,34.4877313 C48,36.5558059 46.2823658,38.2383864 44.1712062,38.2383864 L44.1712062,38.2383864 L29.5097276,38.2383864 L29.5097276,45.0078615 L33.5563891,45.0078615 C34.1237043,45.0078615 34.5836265,45.4583975 34.5836265,46.0141348 C34.5836265,46.5698722 34.1237043,47.0204082 33.5563891,47.0204082 L33.5563891,47.0204082 L14.6302879,47.0204082 C14.0629728,47.0204082 13.6030506,46.5698722 13.6030506,46.0141348 C13.6030506,45.4583975 14.0629728,45.0078615 14.6302879,45.0078615 L14.6302879,45.0078615 L18.4902724,45.0078615 L18.4902724,38.2383864 L3.82879377,38.2383864 C1.71763424,38.2383864 -2.65416742e-15,36.5558059 -2.65416742e-15,34.4877313 L-2.65416742e-15,34.4877313 L-2.65416742e-15,7.41550258 C-2.65416742e-15,5.34742794 1.71763424,3.66484745 3.82879377,3.66484745 L3.82879377,3.66484745 L5.9766537,3.66484745 L5.9766537,3.22547193 C5.9766537,1.44692956 7.45372763,0 9.26932296,0 L9.26932296,0 Z M27.4552529,38.2383864 L20.5447471,38.2383864 L20.5447471,45.0078615 L27.4552529,45.0078615 L27.4552529,38.2383864 Z M45.9455253,32.3837052 L2.05447471,32.3837052 L2.05447471,34.4877313 C2.05447471,35.4461609 2.85039689,36.2258398 3.82879377,36.2258398 L3.82879377,36.2258398 L44.1712062,36.2258398 C45.1496031,36.2258398 45.9455253,35.4461609 45.9455253,34.4877313 L45.9455253,34.4877313 L45.9455253,32.3837052 Z M40.3586103,33.6059259 C41.5187821,33.7987835 41.340133,35.5333688 40.162652,35.5048586 C38.7224357,35.481231 38.9419892,33.3594482 40.3586103,33.6059259 Z M36.4396087,33.6058218 C37.6001578,33.7986053 37.4222494,35.5323491 36.2446656,35.5048833 C34.8045463,35.4816028 35.023083,33.360025 36.4396087,33.6058218 Z M44.1712062,5.67739411 L42.0233463,5.67739411 L42.0233463,30.3711586 L45.9455253,30.3711586 L45.9455253,7.41550258 C45.9455253,6.45707298 45.1496031,5.67739411 44.1712062,5.67739411 L44.1712062,5.67739411 Z M38.7305837,2.01254665 L9.26932296,2.01254665 C8.58658366,2.01254665 8.0311284,2.55666608 8.0311284,3.22547193 L8.0311284,3.22547193 L8.0311284,30.3711586 L39.9688716,30.3711586 L39.9688716,3.22547193 C39.9688716,2.55666608 39.4134163,2.01254665 38.7305837,2.01254665 L38.7305837,2.01254665 Z M5.9766537,5.67739411 L3.82879377,5.67739411 C2.85039689,5.67739411 2.05447471,6.45716446 2.05447471,7.41550258 L2.05447471,7.41550258 L2.05447471,30.3711586 L5.9766537,30.3711586 L5.9766537,5.67739411 Z M11.5938677,3.67838641 C12.783035,3.88256841 12.6000934,5.700081 11.3929961,5.67172239 C9.91685603,5.6454678 10.1411673,3.42178671 11.5938677,3.67838641 Z M14.8949416,5.67172239 C13.6878444,5.700081 13.5044358,3.88220249 14.6941634,3.67838641 C16.1473307,3.42206115 16.3711751,5.64555928 14.8949416,5.67172239 Z M18.5977588,3.67838641 C19.7870195,3.88238545 19.6039844,5.70017248 18.3968872,5.67172239 C16.9207471,5.6454678 17.1450584,3.42178671 18.5977588,3.67838641 Z" id="Combined-Shape" fill="#293D56" fill-rule="nonzero"></path>
            <g id="XMLID_74_" transform="translate(10.389352, 3.657776)"></g>
            <g id="XMLID_75_" transform="translate(13.889992, 3.657817)"></g>
            <g id="XMLID_77_" transform="translate(17.393244, 3.657776)"></g>
            <path d="M35.5383969,8.60473469 L27.0872218,8.60473469 C25.9164514,8.60473469 24.8211362,9.04346986 24,9.80165108 C23.1788638,9.04346986 22.0835486,8.60473469 20.9127782,8.60473469 L12.4616031,8.60473469 C11.8942879,8.60473469 11.4343658,9.05527071 11.4343658,9.61100802 L11.4343658,25.4167261 C11.4343658,25.9724634 11.8942879,26.4229994 12.4616031,26.4229994 L20.9127782,26.4229994 C21.8315019,26.4229994 22.6650584,26.9192752 23.0881868,27.7180732 C23.4372607,28.4301488 24.5628327,28.4299659 24.9118132,27.7180732 C25.3349416,26.9192752 26.1684981,26.4229994 27.0872218,26.4229994 L35.5383969,26.4229994 C36.1057121,26.4229994 36.5656342,25.9724634 36.5656342,25.4167261 L36.5656342,9.61100802 C36.5656342,9.05527071 36.1057121,8.60473469 35.5383969,8.60473469 Z M22.9727626,24.8961169 C22.3480156,24.5820681 21.6451984,24.4105443 20.9127782,24.4105443 L13.4888405,24.4105443 L13.4888405,10.6172813 L20.9127782,10.6172813 C21.7540856,10.6172813 22.5240467,11.0335126 22.9727626,11.7171381 L22.9727626,24.8961169 Z M34.5111595,24.4105443 L27.0872218,24.4105443 C26.3548016,24.4105443 25.6519844,24.5820681 25.0272374,24.8961169 L25.0272374,11.7171381 C25.4759533,11.0335126 26.2459144,10.6172813 27.0872218,10.6172813 L34.5111595,10.6172813 L34.5111595,24.4105443 Z" id="Shape" fill="#C384F8" fill-rule="nonzero"></path>
        </g>
    </g>
</svg>