<?xml version="1.0" encoding="UTF-8"?>
<svg width="609px" height="201px" viewBox="0 0 609 201" version="1.1" xmlns="http://www.w3.org/2000/svg" xmlns:xlink="http://www.w3.org/1999/xlink">
    <title>Group 232</title>
    <g id="Page-1" stroke="none" stroke-width="1" fill="none" fill-rule="evenodd">
        <g id="Group-232" transform="translate(0.610000, 0.871000)" fill="#3FA2FF">
            <g id="Group-196" transform="translate(0.000000, 0.000000)">
                <path d="M3.70145112,4.71352954 C3.70145112,5.73748681 2.87468283,6.56853149 1.84834979,6.56853149 C0.826768286,6.56853149 2.16075108e-13,5.73748681 2.16075108e-13,4.71352954 C2.16075108e-13,3.68909711 0.826768286,2.85852759 1.84834979,2.85852759 C2.87468283,2.85852759 3.70145112,3.68909711 3.70145112,4.71352954" id="Fill-333"></path>
                <path d="M43.7521976,4.71352954 C43.7521976,6.08862576 42.6403368,7.20333748 41.2623896,7.20333748 C39.889194,7.20333748 38.7773332,6.08862576 38.7773332,4.71352954 C38.7773332,3.33843332 39.889194,2.22324644 41.2623896,2.22324644 C42.6403368,2.22324644 43.7521976,3.33843332 43.7521976,4.71352954" id="Fill-334"></path>
                <path d="M63.7751951,4.71352954 C63.7751951,6.26395765 62.520788,7.52121563 60.9717853,7.52121563 C59.4227827,7.52121563 58.1636241,6.26395765 58.1636241,4.71352954 C58.1636241,3.16262627 59.4227827,1.90584345 60.9717853,1.90584345 C62.520788,1.90584345 63.7751951,3.16262627 63.7751951,4.71352954" id="Fill-335"></path>
                <path d="M103.825942,4.71352954 C103.825942,6.6150966 102.286442,8.15649678 100.385825,8.15649678 C98.4852085,8.15649678 96.9457089,6.6150966 96.9457089,4.71352954 C96.9457089,2.81196248 98.4852085,1.2705623 100.385825,1.2705623 C102.286442,1.2705623 103.825942,2.81196248 103.825942,4.71352954" id="Fill-336"></path>
                <path d="M123.848939,4.71352954 C123.848939,6.79042849 122.166893,8.47389978 120.090469,8.47389978 C118.014046,8.47389978 116.332,6.79042849 116.332,4.71352954 C116.332,2.63663059 118.014046,0.952684146 120.090469,0.952684146 C122.166893,0.952684146 123.848939,2.63663059 123.848939,4.71352954" id="Fill-337"></path>
                <path d="M163.894934,4.71352954 C163.894934,7.14109228 161.932547,9.10918093 159.504509,9.10918093 C157.081223,9.10918093 155.114085,7.14109228 155.114085,4.71352954 C155.114085,2.28549164 157.081223,0.317402997 159.504509,0.317402997 C161.932547,0.317402997 163.894934,2.28549164 163.894934,4.71352954" id="Fill-338"></path>
                <path d="M183.922683,4.71352954 C183.922683,7.31642418 181.812998,9.42705908 179.213905,9.42705908 C176.61006,9.42705908 174.500375,7.31642418 174.500375,4.71352954 C174.500375,2.11015975 176.61006,-8.64300432e-13 179.213905,-8.64300432e-13 C181.812998,-8.64300432e-13 183.922683,2.11015975 183.922683,4.71352954" id="Fill-339"></path>
                <path d="M3.70145112,20.594608 C3.70145112,21.6190404 2.87468283,22.4491347 1.84834979,22.4491347 C0.826768286,22.4491347 2.16075108e-13,21.6190404 2.16075108e-13,20.594608 C2.16075108e-13,19.5701755 0.826768286,18.739606 1.84834979,18.739606 C2.87468283,18.739606 3.70145112,19.5701755 3.70145112,20.594608" id="Fill-340"></path>
                <path d="M23.7292001,20.594608 C23.7292001,21.7943723 22.755134,22.7670129 21.5577455,22.7670129 C20.3603569,22.7670129 19.3862909,21.7943723 19.3862909,20.594608 C19.3862909,19.3948436 20.3603569,18.422203 21.5577455,18.422203 C22.755134,18.422203 23.7292001,19.3948436 23.7292001,20.594608" id="Fill-341"></path>
                <path d="M63.7751951,20.594608 C63.7751951,22.1450361 62.520788,23.402294 60.9717853,23.402294 C59.4227827,23.402294 58.1636241,22.1450361 58.1636241,20.594608 C58.1636241,19.0437047 59.4227827,17.7869219 60.9717853,17.7869219 C62.520788,17.7869219 63.7751951,19.0437047 63.7751951,20.594608" id="Fill-342"></path>
                <path d="M83.7981925,20.594608 C83.7981925,22.320368 82.4012392,23.719697 80.6764295,23.719697 C78.9516198,23.719697 77.5546665,22.320368 77.5546665,20.594608 C77.5546665,18.8683728 78.9516198,17.4690437 80.6764295,17.4690437 C82.4012392,17.4690437 83.7981925,18.8683728 83.7981925,20.594608" id="Fill-343"></path>
                <path d="M123.848939,20.594608 C123.848939,22.6715069 122.166893,24.3549782 120.090469,24.3549782 C118.014046,24.3549782 116.332,22.6715069 116.332,20.594608 C116.332,18.517709 118.014046,16.8342377 120.090469,16.8342377 C122.166893,16.8342377 123.848939,18.517709 123.848939,20.594608" id="Fill-344"></path>
                <path d="M143.871936,20.594608 C143.871936,22.8468388 142.047344,24.6728563 139.799865,24.6728563 C137.547634,24.6728563 135.723042,22.8468388 135.723042,20.594608 C135.723042,18.3419019 137.547634,16.5163596 139.799865,16.5163596 C142.047344,16.5163596 143.871936,18.3419019 143.871936,20.594608" id="Fill-345"></path>
                <path d="M183.922683,20.594608 C183.922683,23.1975026 181.812998,25.3076623 179.213905,25.3076623 C176.61006,25.3076623 174.500375,23.1975026 174.500375,20.594608 C174.500375,17.9912382 176.61006,15.8810784 179.213905,15.8810784 C181.812998,15.8810784 183.922683,17.9912382 183.922683,20.594608" id="Fill-346"></path>
                <path d="M203.94568,20.594608 C203.94568,23.3733096 201.69345,25.6255405 198.918549,25.6255405 C196.143649,25.6255405 193.891418,23.3733096 193.891418,20.594608 C193.891418,17.8159063 196.143649,15.5636754 198.918549,15.5636754 C201.69345,15.5636754 203.94568,17.8159063 203.94568,20.594608" id="Fill-347"></path>
                <path d="M23.7292001,36.4756864 C23.7292001,37.6754507 22.755134,38.6480913 21.5577455,38.6480913 C20.3603569,38.6480913 19.3862909,37.6754507 19.3862909,36.4756864 C19.3862909,35.275922 20.3603569,34.3032814 21.5577455,34.3032814 C22.755134,34.3032814 23.7292001,35.275922 23.7292001,36.4756864" id="Fill-348"></path>
                <path d="M43.7521976,36.4756864 C43.7521976,37.8507826 42.6403368,38.9654943 41.2623896,38.9654943 C39.889194,38.9654943 38.7773332,37.8507826 38.7773332,36.4756864 C38.7773332,35.100115 39.889194,33.9854033 41.2623896,33.9854033 C42.6403368,33.9854033 43.7521976,35.100115 43.7521976,36.4756864" id="Fill-349"></path>
                <path d="M83.7981925,36.4756864 C83.7981925,38.2014464 82.4012392,39.6007755 80.6764295,39.6007755 C78.9516198,39.6007755 77.5546665,38.2014464 77.5546665,36.4756864 C77.5546665,34.7494512 78.9516198,33.3501221 80.6764295,33.3501221 C82.4012392,33.3501221 83.7981925,34.7494512 83.7981925,36.4756864" id="Fill-350"></path>
                <path d="M103.825942,36.4756864 C103.825942,38.3767783 102.286442,39.9186536 100.385825,39.9186536 C98.4852085,39.9186536 96.9457089,38.3767783 96.9457089,36.4756864 C96.9457089,34.5741193 98.4852085,33.0327191 100.385825,33.0327191 C102.286442,33.0327191 103.825942,34.5741193 103.825942,36.4756864" id="Fill-351"></path>
                <path d="M143.871936,36.4756864 C143.871936,38.7279172 142.047344,40.5534596 139.799865,40.5534596 C137.547634,40.5534596 135.723042,38.7279172 135.723042,36.4756864 C135.723042,34.2234555 137.547634,32.397438 139.799865,32.397438 C142.047344,32.397438 143.871936,34.2234555 143.871936,36.4756864" id="Fill-352"></path>
                <path d="M163.894934,36.4756864 C163.894934,38.9032491 161.932547,40.8713377 159.504509,40.8713377 C157.081223,40.8713377 155.114085,38.9032491 155.114085,36.4756864 C155.114085,34.0481236 157.081223,32.0795598 159.504509,32.0795598 C161.932547,32.0795598 163.894934,34.0481236 163.894934,36.4756864" id="Fill-353"></path>
                <path d="M203.94568,36.4756864 C203.94568,39.254388 201.69345,41.5066189 198.918549,41.5066189 C196.143649,41.5066189 193.891418,39.254388 193.891418,36.4756864 C193.891418,33.6969847 196.143649,31.4447538 198.918549,31.4447538 C201.69345,31.4447538 203.94568,33.6969847 203.94568,36.4756864" id="Fill-354"></path>
                <path d="M223.968678,36.4756864 C223.968678,39.4297199 221.578652,41.824497 218.627945,41.824497 C215.672486,41.824497 213.28246,39.4297199 213.28246,36.4756864 C213.28246,33.5216528 215.672486,31.1268757 218.627945,31.1268757 C221.578652,31.1268757 223.968678,33.5216528 223.968678,36.4756864" id="Fill-355"></path>
                <path d="M43.7521976,52.3567648 C43.7521976,53.731861 42.6403368,54.8465727 41.2623896,54.8465727 C39.889194,54.8465727 38.7773332,53.731861 38.7773332,52.3567648 C38.7773332,50.9816686 39.889194,49.8669568 41.2623896,49.8669568 C42.6403368,49.8669568 43.7521976,50.9816686 43.7521976,52.3567648" id="Fill-356"></path>
                <path d="M63.7751951,52.3567648 C63.7751951,53.9071929 62.520788,55.1644509 60.9717853,55.1644509 C59.4227827,55.1644509 58.1636241,53.9071929 58.1636241,52.3567648 C58.1636241,50.8063367 59.4227827,49.5490787 60.9717853,49.5490787 C62.520788,49.5490787 63.7751951,50.8063367 63.7751951,52.3567648" id="Fill-357"></path>
                <path d="M103.825942,52.3567648 C103.825942,54.2583318 102.286442,55.799732 100.385825,55.799732 C98.4852085,55.799732 96.9457089,54.2583318 96.9457089,52.3567648 C96.9457089,50.4551977 98.4852085,48.9137975 100.385825,48.9137975 C102.286442,48.9137975 103.825942,50.4551977 103.825942,52.3567648" id="Fill-358"></path>
                <path d="M123.848939,52.3567648 C123.848939,54.4336637 122.166893,56.117135 120.090469,56.117135 C118.014046,56.117135 116.332,54.4336637 116.332,52.3567648 C116.332,50.2798658 118.014046,48.5959194 120.090469,48.5959194 C122.166893,48.5959194 123.848939,50.2798658 123.848939,52.3567648" id="Fill-359"></path>
                <path d="M163.894934,52.3567648 C163.894934,54.7843275 161.932547,56.7524162 159.504509,56.7524162 C157.081223,56.7524162 155.114085,54.7843275 155.114085,52.3567648 C155.114085,49.9287269 157.081223,47.9606382 159.504509,47.9606382 C161.932547,47.9606382 163.894934,49.9287269 163.894934,52.3567648" id="Fill-360"></path>
                <path d="M183.922683,52.3567648 C183.922683,54.9596594 181.812998,57.0702943 179.213905,57.0702943 C176.61006,57.0702943 174.500375,54.9596594 174.500375,52.3567648 C174.500375,49.753395 176.61006,47.6432352 179.213905,47.6432352 C181.812998,47.6432352 183.922683,49.753395 183.922683,52.3567648" id="Fill-361"></path>
                <path d="M223.968678,52.3567648 C223.968678,55.3107984 221.578652,57.7055755 218.627945,57.7055755 C215.672486,57.7055755 213.28246,55.3107984 213.28246,52.3567648 C213.28246,49.4027312 215.672486,47.0079541 218.627945,47.0079541 C221.578652,47.0079541 223.968678,49.4027312 223.968678,52.3567648" id="Fill-362"></path>
                <path d="M243.991675,52.3567648 C243.991675,55.4861302 241.459103,58.0229785 238.332589,58.0229785 C235.206074,58.0229785 232.668751,55.4861302 232.668751,52.3567648 C232.668751,49.2273993 235.206074,46.6900759 238.332589,46.6900759 C241.459103,46.6900759 243.991675,49.2273993 243.991675,52.3567648" id="Fill-363"></path>
                <path d="M63.7751951,68.2378432 C63.7751951,69.7882713 62.520788,71.0455293 60.9717853,71.0455293 C59.4227827,71.0455293 58.1636241,69.7882713 58.1636241,68.2378432 C58.1636241,66.6869399 59.4227827,65.4301571 60.9717853,65.4301571 C62.520788,65.4301571 63.7751951,66.6869399 63.7751951,68.2378432" id="Fill-364"></path>
                <path d="M83.7981925,68.2378432 C83.7981925,69.9636032 82.4012392,71.3629323 80.6764295,71.3629323 C78.9516198,71.3629323 77.5546665,69.9636032 77.5546665,68.2378432 C77.5546665,66.511608 78.9516198,65.1122789 80.6764295,65.1122789 C82.4012392,65.1122789 83.7981925,66.511608 83.7981925,68.2378432" id="Fill-365"></path>
                <path d="M123.848939,68.2378432 C123.848939,70.3147421 122.166893,71.9982134 120.090469,71.9982134 C118.014046,71.9982134 116.332,70.3147421 116.332,68.2378432 C116.332,66.1609442 118.014046,64.4774729 120.090469,64.4774729 C122.166893,64.4774729 123.848939,66.1609442 123.848939,68.2378432" id="Fill-366"></path>
                <path d="M143.871936,68.2378432 C143.871936,70.490074 142.047344,72.3160916 139.799865,72.3160916 C137.547634,72.3160916 135.723042,70.490074 135.723042,68.2378432 C135.723042,65.9856123 137.547634,64.1595948 139.799865,64.1595948 C142.047344,64.1595948 143.871936,65.9856123 143.871936,68.2378432" id="Fill-367"></path>
                <path d="M183.922683,68.2378432 C183.922683,70.841213 181.812998,72.9513727 179.213905,72.9513727 C176.61006,72.9513727 174.500375,70.841213 174.500375,68.2378432 C174.500375,65.6344734 176.61006,63.5243136 179.213905,63.5243136 C181.812998,63.5243136 183.922683,65.6344734 183.922683,68.2378432" id="Fill-368"></path>
                <path d="M203.94568,68.2378432 C203.94568,71.0165449 201.69345,73.2687757 198.918549,73.2687757 C196.143649,73.2687757 193.891418,71.0165449 193.891418,68.2378432 C193.891418,65.4591415 196.143649,63.2069106 198.918549,63.2069106 C201.69345,63.2069106 203.94568,65.4591415 203.94568,68.2378432" id="Fill-369"></path>
                <path d="M243.991675,68.2378432 C243.991675,71.3672087 241.459103,73.9040569 238.332589,73.9040569 C235.206074,73.9040569 232.668751,71.3672087 232.668751,68.2378432 C232.668751,65.1084777 235.206074,62.5716295 238.332589,62.5716295 C241.459103,62.5716295 243.991675,65.1084777 243.991675,68.2378432" id="Fill-370"></path>
                <path d="M264.019424,68.2378432 C264.019424,71.5425406 261.339555,74.2214599 258.037233,74.2214599 C254.739663,74.2214599 252.059793,71.5425406 252.059793,68.2378432 C252.059793,64.9331458 254.739663,62.2537513 258.037233,62.2537513 C261.339555,62.2537513 264.019424,64.9331458 264.019424,68.2378432" id="Fill-371"></path>
                <path d="M83.7981925,84.1189216 C83.7981925,85.8446816 82.4012392,87.2440107 80.6764295,87.2440107 C78.9516198,87.2440107 77.5546665,85.8446816 77.5546665,84.1189216 C77.5546665,82.3926864 78.9516198,80.9933573 80.6764295,80.9933573 C82.4012392,80.9933573 83.7981925,82.3926864 83.7981925,84.1189216" id="Fill-372"></path>
                <path d="M103.825942,84.1189216 C103.825942,86.0204886 102.286442,87.5618888 100.385825,87.5618888 C98.4852085,87.5618888 96.9457089,86.0204886 96.9457089,84.1189216 C96.9457089,82.2173545 98.4852085,80.6759543 100.385825,80.6759543 C102.286442,80.6759543 103.825942,82.2173545 103.825942,84.1189216" id="Fill-373"></path>
                <path d="M143.871936,84.1189216 C143.871936,86.3711524 142.047344,88.19717 139.799865,88.19717 C137.547634,88.19717 135.723042,86.3711524 135.723042,84.1189216 C135.723042,81.8666907 137.547634,80.0406732 139.799865,80.0406732 C142.047344,80.0406732 143.871936,81.8666907 143.871936,84.1189216" id="Fill-374"></path>
                <path d="M163.894934,84.1189216 C163.894934,86.5464843 161.932547,88.514573 159.504509,88.514573 C157.081223,88.514573 155.114085,86.5464843 155.114085,84.1189216 C155.114085,81.6913588 157.081223,79.7232702 159.504509,79.7232702 C161.932547,79.7232702 163.894934,81.6913588 163.894934,84.1189216" id="Fill-375"></path>
                <path d="M203.94568,84.1189216 C203.94568,86.8976233 201.69345,89.1498541 198.918549,89.1498541 C196.143649,89.1498541 193.891418,86.8976233 193.891418,84.1189216 C193.891418,81.3402199 196.143649,79.0879891 198.918549,79.0879891 C201.69345,79.0879891 203.94568,81.3402199 203.94568,84.1189216" id="Fill-376"></path>
                <path d="M223.968678,84.1189216 C223.968678,87.0729552 221.578652,89.4677323 218.627945,89.4677323 C215.672486,89.4677323 213.28246,87.0729552 213.28246,84.1189216 C213.28246,81.164888 215.672486,78.7701109 218.627945,78.7701109 C221.578652,78.7701109 223.968678,81.164888 223.968678,84.1189216" id="Fill-377"></path>
                <path d="M264.019424,84.1189216 C264.019424,87.423619 261.339555,90.1030134 258.037233,90.1030134 C254.739663,90.1030134 252.059793,87.423619 252.059793,84.1189216 C252.059793,80.8137491 254.739663,78.1348298 258.037233,78.1348298 C261.339555,78.1348298 264.019424,80.8137491 264.019424,84.1189216" id="Fill-378"></path>
                <path d="M284.042422,84.1189216 C284.042422,87.5989509 281.224757,90.4204164 277.746629,90.4204164 C274.2685,90.4204164 271.450836,87.5989509 271.450836,84.1189216 C271.450836,80.6384172 274.2685,77.8174268 277.746629,77.8174268 C281.224757,77.8174268 284.042422,80.6384172 284.042422,84.1189216" id="Fill-379"></path>
                <path d="M103.825942,100 C103.825942,101.901567 102.286442,103.442967 100.385825,103.442967 C98.4852085,103.442967 96.9457089,101.901567 96.9457089,100 C96.9457089,98.0984329 98.4852085,96.5570328 100.385825,96.5570328 C102.286442,96.5570328 103.825942,98.0984329 103.825942,100" id="Fill-380"></path>
                <path d="M123.848939,100 C123.848939,102.076899 122.166893,103.76037 120.090469,103.76037 C118.014046,103.76037 116.332,102.076899 116.332,100 C116.332,97.923101 118.014046,96.2396298 120.090469,96.2396298 C122.166893,96.2396298 123.848939,97.923101 123.848939,100" id="Fill-381"></path>
                <path d="M163.894934,100 C163.894934,102.427563 161.932547,104.395651 159.504509,104.395651 C157.081223,104.395651 155.114085,102.427563 155.114085,100 C155.114085,97.5719621 157.081223,95.6038735 159.504509,95.6038735 C161.932547,95.6038735 163.894934,97.5719621 163.894934,100" id="Fill-382"></path>
                <path d="M183.922683,100 C183.922683,102.602895 181.812998,104.71353 179.213905,104.71353 C176.61006,104.71353 174.500375,102.602895 174.500375,100 C174.500375,97.3966302 176.61006,95.2864705 179.213905,95.2864705 C181.812998,95.2864705 183.922683,97.3966302 183.922683,100" id="Fill-383"></path>
                <path d="M223.968678,100 C223.968678,102.954034 221.578652,105.348811 218.627945,105.348811 C215.672486,105.348811 213.28246,102.954034 213.28246,100 C213.28246,97.0459664 215.672486,94.6511893 218.627945,94.6511893 C221.578652,94.6511893 223.968678,97.0459664 223.968678,100" id="Fill-384"></path>
                <path d="M243.991675,100 C243.991675,103.129365 241.459103,105.666214 238.332589,105.666214 C235.206074,105.666214 232.668751,103.129365 232.668751,100 C232.668751,96.8706345 235.206074,94.3337863 238.332589,94.3337863 C241.459103,94.3337863 243.991675,96.8706345 243.991675,100" id="Fill-385"></path>
                <path d="M284.042422,100 C284.042422,103.480504 281.224757,106.301495 277.746629,106.301495 C274.2685,106.301495 271.450836,103.480504 271.450836,100 C271.450836,96.5199707 274.2685,93.6985052 277.746629,93.6985052 C281.224757,93.6985052 284.042422,96.5199707 284.042422,100" id="Fill-386"></path>
                <path d="M304.065419,100 C304.065419,103.655836 301.105209,106.618898 297.451273,106.618898 C293.802089,106.618898 290.837127,103.655836 290.837127,100 C290.837127,96.3441637 293.802089,93.380627 297.451273,93.380627 C301.105209,93.380627 304.065419,96.3441637 304.065419,100" id="Fill-387"></path>
                <path d="M83.7981925,115.881078 C83.7981925,117.606838 82.4012392,119.006168 80.6764295,119.006168 C78.9516198,119.006168 77.5546665,117.606838 77.5546665,115.881078 C77.5546665,114.154843 78.9516198,112.755989 80.6764295,112.755989 C82.4012392,112.755989 83.7981925,114.154843 83.7981925,115.881078" id="Fill-388"></path>
                <path d="M103.825942,115.881078 C103.825942,117.782645 102.286442,119.324046 100.385825,119.324046 C98.4852085,119.324046 96.9457089,117.782645 96.9457089,115.881078 C96.9457089,113.979511 98.4852085,112.438111 100.385825,112.438111 C102.286442,112.438111 103.825942,113.979511 103.825942,115.881078" id="Fill-389"></path>
                <path d="M143.871936,115.881078 C143.871936,118.133309 142.047344,119.959327 139.799865,119.959327 C137.547634,119.959327 135.723042,118.133309 135.723042,115.881078 C135.723042,113.628848 137.547634,111.80283 139.799865,111.80283 C142.047344,111.80283 143.871936,113.628848 143.871936,115.881078" id="Fill-390"></path>
                <path d="M163.894934,115.881078 C163.894934,118.309116 161.932547,120.27673 159.504509,120.27673 C157.081223,120.27673 155.114085,118.309116 155.114085,115.881078 C155.114085,113.453516 157.081223,111.485427 159.504509,111.485427 C161.932547,111.485427 163.894934,113.453516 163.894934,115.881078" id="Fill-391"></path>
                <path d="M203.94568,115.881078 C203.94568,118.65978 201.69345,120.912011 198.918549,120.912011 C196.143649,120.912011 193.891418,118.65978 193.891418,115.881078 C193.891418,113.102377 196.143649,110.850146 198.918549,110.850146 C201.69345,110.850146 203.94568,113.102377 203.94568,115.881078" id="Fill-392"></path>
                <path d="M223.968678,115.881078 C223.968678,118.835112 221.578652,121.229889 218.627945,121.229889 C215.672486,121.229889 213.28246,118.835112 213.28246,115.881078 C213.28246,112.927045 215.672486,110.532268 218.627945,110.532268 C221.578652,110.532268 223.968678,112.927045 223.968678,115.881078" id="Fill-393"></path>
                <path d="M264.019424,115.881078 C264.019424,119.185776 261.339555,121.864695 258.037233,121.864695 C254.739663,121.864695 252.059793,119.185776 252.059793,115.881078 C252.059793,112.576381 254.739663,109.896987 258.037233,109.896987 C261.339555,109.896987 264.019424,112.576381 264.019424,115.881078" id="Fill-394"></path>
                <path d="M284.042422,115.881078 C284.042422,119.361108 281.224757,122.182573 277.746629,122.182573 C274.2685,122.182573 271.450836,119.361108 271.450836,115.881078 C271.450836,112.400574 274.2685,109.579584 277.746629,109.579584 C281.224757,109.579584 284.042422,112.400574 284.042422,115.881078" id="Fill-395"></path>
                <path d="M63.7751951,131.762157 C63.7751951,133.312585 62.520788,134.569843 60.9717853,134.569843 C59.4227827,134.569843 58.1636241,133.312585 58.1636241,131.762157 C58.1636241,130.211254 59.4227827,128.954471 60.9717853,128.954471 C62.520788,128.954471 63.7751951,130.211254 63.7751951,131.762157" id="Fill-396"></path>
                <path d="M83.7981925,131.762157 C83.7981925,133.488392 82.4012392,134.887721 80.6764295,134.887721 C78.9516198,134.887721 77.5546665,133.488392 77.5546665,131.762157 C77.5546665,130.035922 78.9516198,128.636593 80.6764295,128.636593 C82.4012392,128.636593 83.7981925,130.035922 83.7981925,131.762157" id="Fill-397"></path>
                <path d="M123.848939,131.762157 C123.848939,133.839056 122.166893,135.523002 120.090469,135.523002 C118.014046,135.523002 116.332,133.839056 116.332,131.762157 C116.332,129.685258 118.014046,128.001311 120.090469,128.001311 C122.166893,128.001311 123.848939,129.685258 123.848939,131.762157" id="Fill-398"></path>
                <path d="M143.871936,131.762157 C143.871936,134.014388 142.047344,135.840405 139.799865,135.840405 C137.547634,135.840405 135.723042,134.014388 135.723042,131.762157 C135.723042,129.509926 137.547634,127.683908 139.799865,127.683908 C142.047344,127.683908 143.871936,129.509926 143.871936,131.762157" id="Fill-399"></path>
                <path d="M183.922683,131.762157 C183.922683,134.365527 181.812998,136.475686 179.213905,136.475686 C176.61006,136.475686 174.500375,134.365527 174.500375,131.762157 C174.500375,129.159262 176.61006,127.048627 179.213905,127.048627 C181.812998,127.048627 183.922683,129.159262 183.922683,131.762157" id="Fill-400"></path>
                <path d="M203.94568,131.762157 C203.94568,134.540859 201.69345,136.793089 198.918549,136.793089 C196.143649,136.793089 193.891418,134.540859 193.891418,131.762157 C193.891418,128.983455 196.143649,126.731224 198.918549,126.731224 C201.69345,126.731224 203.94568,128.983455 203.94568,131.762157" id="Fill-401"></path>
                <path d="M243.991675,131.762157 C243.991675,134.891522 241.459103,137.428371 238.332589,137.428371 C235.206074,137.428371 232.668751,134.891522 232.668751,131.762157 C232.668751,128.632791 235.206074,126.095943 238.332589,126.095943 C241.459103,126.095943 243.991675,128.632791 243.991675,131.762157" id="Fill-402"></path>
                <path d="M264.019424,131.762157 C264.019424,135.066854 261.339555,137.746249 258.037233,137.746249 C254.739663,137.746249 252.059793,135.066854 252.059793,131.762157 C252.059793,128.457459 254.739663,125.778065 258.037233,125.778065 C261.339555,125.778065 264.019424,128.457459 264.019424,131.762157" id="Fill-403"></path>
                <path d="M43.7521976,147.643235 C43.7521976,149.018331 42.6403368,150.133518 41.2623896,150.133518 C39.889194,150.133518 38.7773332,149.018331 38.7773332,147.643235 C38.7773332,146.268139 39.889194,145.153427 41.2623896,145.153427 C42.6403368,145.153427 43.7521976,146.268139 43.7521976,147.643235" id="Fill-404"></path>
                <path d="M63.7751951,147.643235 C63.7751951,149.194138 62.520788,150.450921 60.9717853,150.450921 C59.4227827,150.450921 58.1636241,149.194138 58.1636241,147.643235 C58.1636241,146.092807 59.4227827,144.835549 60.9717853,144.835549 C62.520788,144.835549 63.7751951,146.092807 63.7751951,147.643235" id="Fill-405"></path>
                <path d="M103.825942,147.643235 C103.825942,149.544802 102.286442,151.086202 100.385825,151.086202 C98.4852085,151.086202 96.9457089,149.544802 96.9457089,147.643235 C96.9457089,145.741668 98.4852085,144.200268 100.385825,144.200268 C102.286442,144.200268 103.825942,145.741668 103.825942,147.643235" id="Fill-406"></path>
                <path d="M123.848939,147.643235 C123.848939,149.720134 122.166893,151.403605 120.090469,151.403605 C118.014046,151.403605 116.332,149.720134 116.332,147.643235 C116.332,145.566336 118.014046,143.882865 120.090469,143.882865 C122.166893,143.882865 123.848939,145.566336 123.848939,147.643235" id="Fill-407"></path>
                <path d="M163.894934,147.643235 C163.894934,150.070798 161.932547,152.038887 159.504509,152.038887 C157.081223,152.038887 155.114085,150.070798 155.114085,147.643235 C155.114085,145.215197 157.081223,143.247584 159.504509,143.247584 C161.932547,143.247584 163.894934,145.215197 163.894934,147.643235" id="Fill-408"></path>
                <path d="M183.922683,147.643235 C183.922683,150.24613 181.812998,152.356765 179.213905,152.356765 C176.61006,152.356765 174.500375,150.24613 174.500375,147.643235 C174.500375,145.039865 176.61006,142.929706 179.213905,142.929706 C181.812998,142.929706 183.922683,145.039865 183.922683,147.643235" id="Fill-409"></path>
                <path d="M223.968678,147.643235 C223.968678,150.597269 221.578652,152.992046 218.627945,152.992046 C215.672486,152.992046 213.28246,150.597269 213.28246,147.643235 C213.28246,144.689202 215.672486,142.2949 218.627945,142.2949 C221.578652,142.2949 223.968678,144.689202 223.968678,147.643235" id="Fill-410"></path>
                <path d="M243.991675,147.643235 C243.991675,150.772601 241.459103,153.309449 238.332589,153.309449 C235.206074,153.309449 232.668751,150.772601 232.668751,147.643235 C232.668751,144.51387 235.206074,141.977022 238.332589,141.977022 C241.459103,141.977022 243.991675,144.51387 243.991675,147.643235" id="Fill-411"></path>
                <path d="M23.7292001,163.524314 C23.7292001,164.724078 22.755134,165.696719 21.5577455,165.696719 C20.3603569,165.696719 19.3862909,164.724078 19.3862909,163.524314 C19.3862909,162.324549 20.3603569,161.351909 21.5577455,161.351909 C22.755134,161.351909 23.7292001,162.324549 23.7292001,163.524314" id="Fill-412"></path>
                <path d="M43.7521976,163.524314 C43.7521976,164.89941 42.6403368,166.014122 41.2623896,166.014122 C39.889194,166.014122 38.7773332,164.89941 38.7773332,163.524314 C38.7773332,162.149217 39.889194,161.034031 41.2623896,161.034031 C42.6403368,161.034031 43.7521976,162.149217 43.7521976,163.524314" id="Fill-413"></path>
                <path d="M83.7981925,163.524314 C83.7981925,165.250549 82.4012392,166.649403 80.6764295,166.649403 C78.9516198,166.649403 77.5546665,165.250549 77.5546665,163.524314 C77.5546665,161.798078 78.9516198,160.399225 80.6764295,160.399225 C82.4012392,160.399225 83.7981925,161.798078 83.7981925,163.524314" id="Fill-414"></path>
                <path d="M103.825942,163.524314 C103.825942,165.425881 102.286442,166.967281 100.385825,166.967281 C98.4852085,166.967281 96.9457089,165.425881 96.9457089,163.524314 C96.9457089,161.622747 98.4852085,160.081346 100.385825,160.081346 C102.286442,160.081346 103.825942,161.622747 103.825942,163.524314" id="Fill-415"></path>
                <path d="M143.871936,163.524314 C143.871936,165.776544 142.047344,167.602562 139.799865,167.602562 C137.547634,167.602562 135.723042,165.776544 135.723042,163.524314 C135.723042,161.272083 137.547634,159.446065 139.799865,159.446065 C142.047344,159.446065 143.871936,161.272083 143.871936,163.524314" id="Fill-416"></path>
                <path d="M163.894934,163.524314 C163.894934,165.952352 161.932547,167.919965 159.504509,167.919965 C157.081223,167.919965 155.114085,165.952352 155.114085,163.524314 C155.114085,161.096751 157.081223,159.128662 159.504509,159.128662 C161.932547,159.128662 163.894934,161.096751 163.894934,163.524314" id="Fill-417"></path>
                <path d="M203.94568,163.524314 C203.94568,166.303015 201.69345,168.555246 198.918549,168.555246 C196.143649,168.555246 193.891418,166.303015 193.891418,163.524314 C193.891418,160.745612 196.143649,158.493381 198.918549,158.493381 C201.69345,158.493381 203.94568,160.745612 203.94568,163.524314" id="Fill-418"></path>
                <path d="M223.968678,163.524314 C223.968678,166.478347 221.578652,168.873124 218.627945,168.873124 C215.672486,168.873124 213.28246,166.478347 213.28246,163.524314 C213.28246,160.57028 215.672486,158.175503 218.627945,158.175503 C221.578652,158.175503 223.968678,160.57028 223.968678,163.524314" id="Fill-419"></path>
                <path d="M3.70145112,179.405392 C3.70145112,180.429824 2.87468283,181.260394 1.84834979,181.260394 C0.826768286,181.260394 2.16075108e-13,180.429824 2.16075108e-13,179.405392 C2.16075108e-13,178.38096 0.826768286,177.55039 1.84834979,177.55039 C2.87468283,177.55039 3.70145112,178.38096 3.70145112,179.405392" id="Fill-420"></path>
                <path d="M23.7292001,179.405392 C23.7292001,180.605156 22.755134,181.577797 21.5577455,181.577797 C20.3603569,181.577797 19.3862909,180.605156 19.3862909,179.405392 C19.3862909,178.205628 20.3603569,177.232987 21.5577455,177.232987 C22.755134,177.232987 23.7292001,178.205628 23.7292001,179.405392" id="Fill-421"></path>
                <path d="M63.7751951,179.405392 C63.7751951,180.956295 62.520788,182.213078 60.9717853,182.213078 C59.4227827,182.213078 58.1636241,180.956295 58.1636241,179.405392 C58.1636241,177.854489 59.4227827,176.597706 60.9717853,176.597706 C62.520788,176.597706 63.7751951,177.854489 63.7751951,179.405392" id="Fill-422"></path>
                <path d="M83.7981925,179.405392 C83.7981925,181.131627 82.4012392,182.530956 80.6764295,182.530956 C78.9516198,182.530956 77.5546665,181.131627 77.5546665,179.405392 C77.5546665,177.679157 78.9516198,176.279828 80.6764295,176.279828 C82.4012392,176.279828 83.7981925,177.679157 83.7981925,179.405392" id="Fill-423"></path>
                <path d="M123.848939,179.405392 C123.848939,181.482291 122.166893,183.166237 120.090469,183.166237 C118.014046,183.166237 116.332,181.482291 116.332,179.405392 C116.332,177.328493 118.014046,175.645022 120.090469,175.645022 C122.166893,175.645022 123.848939,177.328493 123.848939,179.405392" id="Fill-424"></path>
                <path d="M143.871936,179.405392 C143.871936,181.657623 142.047344,183.48364 139.799865,183.48364 C137.547634,183.48364 135.723042,181.657623 135.723042,179.405392 C135.723042,177.153161 137.547634,175.327144 139.799865,175.327144 C142.047344,175.327144 143.871936,177.153161 143.871936,179.405392" id="Fill-425"></path>
                <path d="M183.922683,179.405392 C183.922683,182.008762 181.812998,184.118922 179.213905,184.118922 C176.61006,184.118922 174.500375,182.008762 174.500375,179.405392 C174.500375,176.802497 176.61006,174.691863 179.213905,174.691863 C181.812998,174.691863 183.922683,176.802497 183.922683,179.405392" id="Fill-426"></path>
                <path d="M203.94568,179.405392 C203.94568,182.184094 201.69345,184.436325 198.918549,184.436325 C196.143649,184.436325 193.891418,182.184094 193.891418,179.405392 C193.891418,176.62669 196.143649,174.37446 198.918549,174.37446 C201.69345,174.37446 203.94568,176.62669 203.94568,179.405392" id="Fill-427"></path>
                <path d="M3.70145112,195.28647 C3.70145112,196.310903 2.87468283,197.141472 1.84834979,197.141472 C0.826768286,197.141472 2.16075108e-13,196.310903 2.16075108e-13,195.28647 C2.16075108e-13,194.262038 0.826768286,193.431944 1.84834979,193.431944 C2.87468283,193.431944 3.70145112,194.262038 3.70145112,195.28647" id="Fill-428"></path>
                <path d="M43.7521976,195.28647 C43.7521976,196.661567 42.6403368,197.776754 41.2623896,197.776754 C39.889194,197.776754 38.7773332,196.661567 38.7773332,195.28647 C38.7773332,193.911374 39.889194,192.796663 41.2623896,192.796663 C42.6403368,192.796663 43.7521976,193.911374 43.7521976,195.28647" id="Fill-429"></path>
                <path d="M63.7751951,195.28647 C63.7751951,196.837374 62.520788,198.094157 60.9717853,198.094157 C59.4227827,198.094157 58.1636241,196.837374 58.1636241,195.28647 C58.1636241,193.736042 59.4227827,192.478784 60.9717853,192.478784 C62.520788,192.478784 63.7751951,193.736042 63.7751951,195.28647" id="Fill-430"></path>
                <path d="M103.825942,195.28647 C103.825942,197.188038 102.286442,198.729438 100.385825,198.729438 C98.4852085,198.729438 96.9457089,197.188038 96.9457089,195.28647 C96.9457089,193.384903 98.4852085,191.843503 100.385825,191.843503 C102.286442,191.843503 103.825942,193.384903 103.825942,195.28647" id="Fill-431"></path>
                <path d="M123.848939,195.28647 C123.848939,197.363369 122.166893,199.046841 120.090469,199.046841 C118.014046,199.046841 116.332,197.363369 116.332,195.28647 C116.332,193.209572 118.014046,191.5261 120.090469,191.5261 C122.166893,191.5261 123.848939,193.209572 123.848939,195.28647" id="Fill-432"></path>
                <path d="M163.894934,195.28647 C163.894934,197.714033 161.932547,199.682122 159.504509,199.682122 C157.081223,199.682122 155.114085,197.714033 155.114085,195.28647 C155.114085,192.858908 157.081223,190.890819 159.504509,190.890819 C161.932547,190.890819 163.894934,192.858908 163.894934,195.28647" id="Fill-433"></path>
                <path d="M183.922683,195.28647 C183.922683,197.889365 181.812998,200 179.213905,200 C176.61006,200 174.500375,197.889365 174.500375,195.28647 C174.500375,192.683101 176.61006,190.572941 179.213905,190.572941 C181.812998,190.572941 183.922683,192.683101 183.922683,195.28647" id="Fill-434"></path>
            </g>
            <g id="Group-196" transform="translate(304.000000, 0.000000)">
                <path d="M3.70145112,4.71352954 C3.70145112,5.73748681 2.87468283,6.56853149 1.84834979,6.56853149 C0.826768286,6.56853149 2.16075108e-13,5.73748681 2.16075108e-13,4.71352954 C2.16075108e-13,3.68909711 0.826768286,2.85852759 1.84834979,2.85852759 C2.87468283,2.85852759 3.70145112,3.68909711 3.70145112,4.71352954" id="Fill-333"></path>
                <path d="M43.7521976,4.71352954 C43.7521976,6.08862576 42.6403368,7.20333748 41.2623896,7.20333748 C39.889194,7.20333748 38.7773332,6.08862576 38.7773332,4.71352954 C38.7773332,3.33843332 39.889194,2.22324644 41.2623896,2.22324644 C42.6403368,2.22324644 43.7521976,3.33843332 43.7521976,4.71352954" id="Fill-334"></path>
                <path d="M63.7751951,4.71352954 C63.7751951,6.26395765 62.520788,7.52121563 60.9717853,7.52121563 C59.4227827,7.52121563 58.1636241,6.26395765 58.1636241,4.71352954 C58.1636241,3.16262627 59.4227827,1.90584345 60.9717853,1.90584345 C62.520788,1.90584345 63.7751951,3.16262627 63.7751951,4.71352954" id="Fill-335"></path>
                <path d="M103.825942,4.71352954 C103.825942,6.6150966 102.286442,8.15649678 100.385825,8.15649678 C98.4852085,8.15649678 96.9457089,6.6150966 96.9457089,4.71352954 C96.9457089,2.81196248 98.4852085,1.2705623 100.385825,1.2705623 C102.286442,1.2705623 103.825942,2.81196248 103.825942,4.71352954" id="Fill-336"></path>
                <path d="M123.848939,4.71352954 C123.848939,6.79042849 122.166893,8.47389978 120.090469,8.47389978 C118.014046,8.47389978 116.332,6.79042849 116.332,4.71352954 C116.332,2.63663059 118.014046,0.952684146 120.090469,0.952684146 C122.166893,0.952684146 123.848939,2.63663059 123.848939,4.71352954" id="Fill-337"></path>
                <path d="M163.894934,4.71352954 C163.894934,7.14109228 161.932547,9.10918093 159.504509,9.10918093 C157.081223,9.10918093 155.114085,7.14109228 155.114085,4.71352954 C155.114085,2.28549164 157.081223,0.317402997 159.504509,0.317402997 C161.932547,0.317402997 163.894934,2.28549164 163.894934,4.71352954" id="Fill-338"></path>
                <path d="M183.922683,4.71352954 C183.922683,7.31642418 181.812998,9.42705908 179.213905,9.42705908 C176.61006,9.42705908 174.500375,7.31642418 174.500375,4.71352954 C174.500375,2.11015975 176.61006,-8.64300432e-13 179.213905,-8.64300432e-13 C181.812998,-8.64300432e-13 183.922683,2.11015975 183.922683,4.71352954" id="Fill-339"></path>
                <path d="M3.70145112,20.594608 C3.70145112,21.6190404 2.87468283,22.4491347 1.84834979,22.4491347 C0.826768286,22.4491347 2.16075108e-13,21.6190404 2.16075108e-13,20.594608 C2.16075108e-13,19.5701755 0.826768286,18.739606 1.84834979,18.739606 C2.87468283,18.739606 3.70145112,19.5701755 3.70145112,20.594608" id="Fill-340"></path>
                <path d="M23.7292001,20.594608 C23.7292001,21.7943723 22.755134,22.7670129 21.5577455,22.7670129 C20.3603569,22.7670129 19.3862909,21.7943723 19.3862909,20.594608 C19.3862909,19.3948436 20.3603569,18.422203 21.5577455,18.422203 C22.755134,18.422203 23.7292001,19.3948436 23.7292001,20.594608" id="Fill-341"></path>
                <path d="M63.7751951,20.594608 C63.7751951,22.1450361 62.520788,23.402294 60.9717853,23.402294 C59.4227827,23.402294 58.1636241,22.1450361 58.1636241,20.594608 C58.1636241,19.0437047 59.4227827,17.7869219 60.9717853,17.7869219 C62.520788,17.7869219 63.7751951,19.0437047 63.7751951,20.594608" id="Fill-342"></path>
                <path d="M83.7981925,20.594608 C83.7981925,22.320368 82.4012392,23.719697 80.6764295,23.719697 C78.9516198,23.719697 77.5546665,22.320368 77.5546665,20.594608 C77.5546665,18.8683728 78.9516198,17.4690437 80.6764295,17.4690437 C82.4012392,17.4690437 83.7981925,18.8683728 83.7981925,20.594608" id="Fill-343"></path>
                <path d="M123.848939,20.594608 C123.848939,22.6715069 122.166893,24.3549782 120.090469,24.3549782 C118.014046,24.3549782 116.332,22.6715069 116.332,20.594608 C116.332,18.517709 118.014046,16.8342377 120.090469,16.8342377 C122.166893,16.8342377 123.848939,18.517709 123.848939,20.594608" id="Fill-344"></path>
                <path d="M143.871936,20.594608 C143.871936,22.8468388 142.047344,24.6728563 139.799865,24.6728563 C137.547634,24.6728563 135.723042,22.8468388 135.723042,20.594608 C135.723042,18.3419019 137.547634,16.5163596 139.799865,16.5163596 C142.047344,16.5163596 143.871936,18.3419019 143.871936,20.594608" id="Fill-345"></path>
                <path d="M183.922683,20.594608 C183.922683,23.1975026 181.812998,25.3076623 179.213905,25.3076623 C176.61006,25.3076623 174.500375,23.1975026 174.500375,20.594608 C174.500375,17.9912382 176.61006,15.8810784 179.213905,15.8810784 C181.812998,15.8810784 183.922683,17.9912382 183.922683,20.594608" id="Fill-346"></path>
                <path d="M203.94568,20.594608 C203.94568,23.3733096 201.69345,25.6255405 198.918549,25.6255405 C196.143649,25.6255405 193.891418,23.3733096 193.891418,20.594608 C193.891418,17.8159063 196.143649,15.5636754 198.918549,15.5636754 C201.69345,15.5636754 203.94568,17.8159063 203.94568,20.594608" id="Fill-347"></path>
                <path d="M23.7292001,36.4756864 C23.7292001,37.6754507 22.755134,38.6480913 21.5577455,38.6480913 C20.3603569,38.6480913 19.3862909,37.6754507 19.3862909,36.4756864 C19.3862909,35.275922 20.3603569,34.3032814 21.5577455,34.3032814 C22.755134,34.3032814 23.7292001,35.275922 23.7292001,36.4756864" id="Fill-348"></path>
                <path d="M43.7521976,36.4756864 C43.7521976,37.8507826 42.6403368,38.9654943 41.2623896,38.9654943 C39.889194,38.9654943 38.7773332,37.8507826 38.7773332,36.4756864 C38.7773332,35.100115 39.889194,33.9854033 41.2623896,33.9854033 C42.6403368,33.9854033 43.7521976,35.100115 43.7521976,36.4756864" id="Fill-349"></path>
                <path d="M83.7981925,36.4756864 C83.7981925,38.2014464 82.4012392,39.6007755 80.6764295,39.6007755 C78.9516198,39.6007755 77.5546665,38.2014464 77.5546665,36.4756864 C77.5546665,34.7494512 78.9516198,33.3501221 80.6764295,33.3501221 C82.4012392,33.3501221 83.7981925,34.7494512 83.7981925,36.4756864" id="Fill-350"></path>
                <path d="M103.825942,36.4756864 C103.825942,38.3767783 102.286442,39.9186536 100.385825,39.9186536 C98.4852085,39.9186536 96.9457089,38.3767783 96.9457089,36.4756864 C96.9457089,34.5741193 98.4852085,33.0327191 100.385825,33.0327191 C102.286442,33.0327191 103.825942,34.5741193 103.825942,36.4756864" id="Fill-351"></path>
                <path d="M143.871936,36.4756864 C143.871936,38.7279172 142.047344,40.5534596 139.799865,40.5534596 C137.547634,40.5534596 135.723042,38.7279172 135.723042,36.4756864 C135.723042,34.2234555 137.547634,32.397438 139.799865,32.397438 C142.047344,32.397438 143.871936,34.2234555 143.871936,36.4756864" id="Fill-352"></path>
                <path d="M163.894934,36.4756864 C163.894934,38.9032491 161.932547,40.8713377 159.504509,40.8713377 C157.081223,40.8713377 155.114085,38.9032491 155.114085,36.4756864 C155.114085,34.0481236 157.081223,32.0795598 159.504509,32.0795598 C161.932547,32.0795598 163.894934,34.0481236 163.894934,36.4756864" id="Fill-353"></path>
                <path d="M203.94568,36.4756864 C203.94568,39.254388 201.69345,41.5066189 198.918549,41.5066189 C196.143649,41.5066189 193.891418,39.254388 193.891418,36.4756864 C193.891418,33.6969847 196.143649,31.4447538 198.918549,31.4447538 C201.69345,31.4447538 203.94568,33.6969847 203.94568,36.4756864" id="Fill-354"></path>
                <path d="M223.968678,36.4756864 C223.968678,39.4297199 221.578652,41.824497 218.627945,41.824497 C215.672486,41.824497 213.28246,39.4297199 213.28246,36.4756864 C213.28246,33.5216528 215.672486,31.1268757 218.627945,31.1268757 C221.578652,31.1268757 223.968678,33.5216528 223.968678,36.4756864" id="Fill-355"></path>
                <path d="M43.7521976,52.3567648 C43.7521976,53.731861 42.6403368,54.8465727 41.2623896,54.8465727 C39.889194,54.8465727 38.7773332,53.731861 38.7773332,52.3567648 C38.7773332,50.9816686 39.889194,49.8669568 41.2623896,49.8669568 C42.6403368,49.8669568 43.7521976,50.9816686 43.7521976,52.3567648" id="Fill-356"></path>
                <path d="M63.7751951,52.3567648 C63.7751951,53.9071929 62.520788,55.1644509 60.9717853,55.1644509 C59.4227827,55.1644509 58.1636241,53.9071929 58.1636241,52.3567648 C58.1636241,50.8063367 59.4227827,49.5490787 60.9717853,49.5490787 C62.520788,49.5490787 63.7751951,50.8063367 63.7751951,52.3567648" id="Fill-357"></path>
                <path d="M103.825942,52.3567648 C103.825942,54.2583318 102.286442,55.799732 100.385825,55.799732 C98.4852085,55.799732 96.9457089,54.2583318 96.9457089,52.3567648 C96.9457089,50.4551977 98.4852085,48.9137975 100.385825,48.9137975 C102.286442,48.9137975 103.825942,50.4551977 103.825942,52.3567648" id="Fill-358"></path>
                <path d="M123.848939,52.3567648 C123.848939,54.4336637 122.166893,56.117135 120.090469,56.117135 C118.014046,56.117135 116.332,54.4336637 116.332,52.3567648 C116.332,50.2798658 118.014046,48.5959194 120.090469,48.5959194 C122.166893,48.5959194 123.848939,50.2798658 123.848939,52.3567648" id="Fill-359"></path>
                <path d="M163.894934,52.3567648 C163.894934,54.7843275 161.932547,56.7524162 159.504509,56.7524162 C157.081223,56.7524162 155.114085,54.7843275 155.114085,52.3567648 C155.114085,49.9287269 157.081223,47.9606382 159.504509,47.9606382 C161.932547,47.9606382 163.894934,49.9287269 163.894934,52.3567648" id="Fill-360"></path>
                <path d="M183.922683,52.3567648 C183.922683,54.9596594 181.812998,57.0702943 179.213905,57.0702943 C176.61006,57.0702943 174.500375,54.9596594 174.500375,52.3567648 C174.500375,49.753395 176.61006,47.6432352 179.213905,47.6432352 C181.812998,47.6432352 183.922683,49.753395 183.922683,52.3567648" id="Fill-361"></path>
                <path d="M223.968678,52.3567648 C223.968678,55.3107984 221.578652,57.7055755 218.627945,57.7055755 C215.672486,57.7055755 213.28246,55.3107984 213.28246,52.3567648 C213.28246,49.4027312 215.672486,47.0079541 218.627945,47.0079541 C221.578652,47.0079541 223.968678,49.4027312 223.968678,52.3567648" id="Fill-362"></path>
                <path d="M243.991675,52.3567648 C243.991675,55.4861302 241.459103,58.0229785 238.332589,58.0229785 C235.206074,58.0229785 232.668751,55.4861302 232.668751,52.3567648 C232.668751,49.2273993 235.206074,46.6900759 238.332589,46.6900759 C241.459103,46.6900759 243.991675,49.2273993 243.991675,52.3567648" id="Fill-363"></path>
                <path d="M63.7751951,68.2378432 C63.7751951,69.7882713 62.520788,71.0455293 60.9717853,71.0455293 C59.4227827,71.0455293 58.1636241,69.7882713 58.1636241,68.2378432 C58.1636241,66.6869399 59.4227827,65.4301571 60.9717853,65.4301571 C62.520788,65.4301571 63.7751951,66.6869399 63.7751951,68.2378432" id="Fill-364"></path>
                <path d="M83.7981925,68.2378432 C83.7981925,69.9636032 82.4012392,71.3629323 80.6764295,71.3629323 C78.9516198,71.3629323 77.5546665,69.9636032 77.5546665,68.2378432 C77.5546665,66.511608 78.9516198,65.1122789 80.6764295,65.1122789 C82.4012392,65.1122789 83.7981925,66.511608 83.7981925,68.2378432" id="Fill-365"></path>
                <path d="M123.848939,68.2378432 C123.848939,70.3147421 122.166893,71.9982134 120.090469,71.9982134 C118.014046,71.9982134 116.332,70.3147421 116.332,68.2378432 C116.332,66.1609442 118.014046,64.4774729 120.090469,64.4774729 C122.166893,64.4774729 123.848939,66.1609442 123.848939,68.2378432" id="Fill-366"></path>
                <path d="M143.871936,68.2378432 C143.871936,70.490074 142.047344,72.3160916 139.799865,72.3160916 C137.547634,72.3160916 135.723042,70.490074 135.723042,68.2378432 C135.723042,65.9856123 137.547634,64.1595948 139.799865,64.1595948 C142.047344,64.1595948 143.871936,65.9856123 143.871936,68.2378432" id="Fill-367"></path>
                <path d="M183.922683,68.2378432 C183.922683,70.841213 181.812998,72.9513727 179.213905,72.9513727 C176.61006,72.9513727 174.500375,70.841213 174.500375,68.2378432 C174.500375,65.6344734 176.61006,63.5243136 179.213905,63.5243136 C181.812998,63.5243136 183.922683,65.6344734 183.922683,68.2378432" id="Fill-368"></path>
                <path d="M203.94568,68.2378432 C203.94568,71.0165449 201.69345,73.2687757 198.918549,73.2687757 C196.143649,73.2687757 193.891418,71.0165449 193.891418,68.2378432 C193.891418,65.4591415 196.143649,63.2069106 198.918549,63.2069106 C201.69345,63.2069106 203.94568,65.4591415 203.94568,68.2378432" id="Fill-369"></path>
                <path d="M243.991675,68.2378432 C243.991675,71.3672087 241.459103,73.9040569 238.332589,73.9040569 C235.206074,73.9040569 232.668751,71.3672087 232.668751,68.2378432 C232.668751,65.1084777 235.206074,62.5716295 238.332589,62.5716295 C241.459103,62.5716295 243.991675,65.1084777 243.991675,68.2378432" id="Fill-370"></path>
                <path d="M264.019424,68.2378432 C264.019424,71.5425406 261.339555,74.2214599 258.037233,74.2214599 C254.739663,74.2214599 252.059793,71.5425406 252.059793,68.2378432 C252.059793,64.9331458 254.739663,62.2537513 258.037233,62.2537513 C261.339555,62.2537513 264.019424,64.9331458 264.019424,68.2378432" id="Fill-371"></path>
                <path d="M83.7981925,84.1189216 C83.7981925,85.8446816 82.4012392,87.2440107 80.6764295,87.2440107 C78.9516198,87.2440107 77.5546665,85.8446816 77.5546665,84.1189216 C77.5546665,82.3926864 78.9516198,80.9933573 80.6764295,80.9933573 C82.4012392,80.9933573 83.7981925,82.3926864 83.7981925,84.1189216" id="Fill-372"></path>
                <path d="M103.825942,84.1189216 C103.825942,86.0204886 102.286442,87.5618888 100.385825,87.5618888 C98.4852085,87.5618888 96.9457089,86.0204886 96.9457089,84.1189216 C96.9457089,82.2173545 98.4852085,80.6759543 100.385825,80.6759543 C102.286442,80.6759543 103.825942,82.2173545 103.825942,84.1189216" id="Fill-373"></path>
                <path d="M143.871936,84.1189216 C143.871936,86.3711524 142.047344,88.19717 139.799865,88.19717 C137.547634,88.19717 135.723042,86.3711524 135.723042,84.1189216 C135.723042,81.8666907 137.547634,80.0406732 139.799865,80.0406732 C142.047344,80.0406732 143.871936,81.8666907 143.871936,84.1189216" id="Fill-374"></path>
                <path d="M163.894934,84.1189216 C163.894934,86.5464843 161.932547,88.514573 159.504509,88.514573 C157.081223,88.514573 155.114085,86.5464843 155.114085,84.1189216 C155.114085,81.6913588 157.081223,79.7232702 159.504509,79.7232702 C161.932547,79.7232702 163.894934,81.6913588 163.894934,84.1189216" id="Fill-375"></path>
                <path d="M203.94568,84.1189216 C203.94568,86.8976233 201.69345,89.1498541 198.918549,89.1498541 C196.143649,89.1498541 193.891418,86.8976233 193.891418,84.1189216 C193.891418,81.3402199 196.143649,79.0879891 198.918549,79.0879891 C201.69345,79.0879891 203.94568,81.3402199 203.94568,84.1189216" id="Fill-376"></path>
                <path d="M223.968678,84.1189216 C223.968678,87.0729552 221.578652,89.4677323 218.627945,89.4677323 C215.672486,89.4677323 213.28246,87.0729552 213.28246,84.1189216 C213.28246,81.164888 215.672486,78.7701109 218.627945,78.7701109 C221.578652,78.7701109 223.968678,81.164888 223.968678,84.1189216" id="Fill-377"></path>
                <path d="M264.019424,84.1189216 C264.019424,87.423619 261.339555,90.1030134 258.037233,90.1030134 C254.739663,90.1030134 252.059793,87.423619 252.059793,84.1189216 C252.059793,80.8137491 254.739663,78.1348298 258.037233,78.1348298 C261.339555,78.1348298 264.019424,80.8137491 264.019424,84.1189216" id="Fill-378"></path>
                <path d="M284.042422,84.1189216 C284.042422,87.5989509 281.224757,90.4204164 277.746629,90.4204164 C274.2685,90.4204164 271.450836,87.5989509 271.450836,84.1189216 C271.450836,80.6384172 274.2685,77.8174268 277.746629,77.8174268 C281.224757,77.8174268 284.042422,80.6384172 284.042422,84.1189216" id="Fill-379"></path>
                <path d="M103.825942,100 C103.825942,101.901567 102.286442,103.442967 100.385825,103.442967 C98.4852085,103.442967 96.9457089,101.901567 96.9457089,100 C96.9457089,98.0984329 98.4852085,96.5570328 100.385825,96.5570328 C102.286442,96.5570328 103.825942,98.0984329 103.825942,100" id="Fill-380"></path>
                <path d="M123.848939,100 C123.848939,102.076899 122.166893,103.76037 120.090469,103.76037 C118.014046,103.76037 116.332,102.076899 116.332,100 C116.332,97.923101 118.014046,96.2396298 120.090469,96.2396298 C122.166893,96.2396298 123.848939,97.923101 123.848939,100" id="Fill-381"></path>
                <path d="M163.894934,100 C163.894934,102.427563 161.932547,104.395651 159.504509,104.395651 C157.081223,104.395651 155.114085,102.427563 155.114085,100 C155.114085,97.5719621 157.081223,95.6038735 159.504509,95.6038735 C161.932547,95.6038735 163.894934,97.5719621 163.894934,100" id="Fill-382"></path>
                <path d="M183.922683,100 C183.922683,102.602895 181.812998,104.71353 179.213905,104.71353 C176.61006,104.71353 174.500375,102.602895 174.500375,100 C174.500375,97.3966302 176.61006,95.2864705 179.213905,95.2864705 C181.812998,95.2864705 183.922683,97.3966302 183.922683,100" id="Fill-383"></path>
                <path d="M223.968678,100 C223.968678,102.954034 221.578652,105.348811 218.627945,105.348811 C215.672486,105.348811 213.28246,102.954034 213.28246,100 C213.28246,97.0459664 215.672486,94.6511893 218.627945,94.6511893 C221.578652,94.6511893 223.968678,97.0459664 223.968678,100" id="Fill-384"></path>
                <path d="M243.991675,100 C243.991675,103.129365 241.459103,105.666214 238.332589,105.666214 C235.206074,105.666214 232.668751,103.129365 232.668751,100 C232.668751,96.8706345 235.206074,94.3337863 238.332589,94.3337863 C241.459103,94.3337863 243.991675,96.8706345 243.991675,100" id="Fill-385"></path>
                <path d="M284.042422,100 C284.042422,103.480504 281.224757,106.301495 277.746629,106.301495 C274.2685,106.301495 271.450836,103.480504 271.450836,100 C271.450836,96.5199707 274.2685,93.6985052 277.746629,93.6985052 C281.224757,93.6985052 284.042422,96.5199707 284.042422,100" id="Fill-386"></path>
                <path d="M304.065419,100 C304.065419,103.655836 301.105209,106.618898 297.451273,106.618898 C293.802089,106.618898 290.837127,103.655836 290.837127,100 C290.837127,96.3441637 293.802089,93.380627 297.451273,93.380627 C301.105209,93.380627 304.065419,96.3441637 304.065419,100" id="Fill-387"></path>
                <path d="M83.7981925,115.881078 C83.7981925,117.606838 82.4012392,119.006168 80.6764295,119.006168 C78.9516198,119.006168 77.5546665,117.606838 77.5546665,115.881078 C77.5546665,114.154843 78.9516198,112.755989 80.6764295,112.755989 C82.4012392,112.755989 83.7981925,114.154843 83.7981925,115.881078" id="Fill-388"></path>
                <path d="M103.825942,115.881078 C103.825942,117.782645 102.286442,119.324046 100.385825,119.324046 C98.4852085,119.324046 96.9457089,117.782645 96.9457089,115.881078 C96.9457089,113.979511 98.4852085,112.438111 100.385825,112.438111 C102.286442,112.438111 103.825942,113.979511 103.825942,115.881078" id="Fill-389"></path>
                <path d="M143.871936,115.881078 C143.871936,118.133309 142.047344,119.959327 139.799865,119.959327 C137.547634,119.959327 135.723042,118.133309 135.723042,115.881078 C135.723042,113.628848 137.547634,111.80283 139.799865,111.80283 C142.047344,111.80283 143.871936,113.628848 143.871936,115.881078" id="Fill-390"></path>
                <path d="M163.894934,115.881078 C163.894934,118.309116 161.932547,120.27673 159.504509,120.27673 C157.081223,120.27673 155.114085,118.309116 155.114085,115.881078 C155.114085,113.453516 157.081223,111.485427 159.504509,111.485427 C161.932547,111.485427 163.894934,113.453516 163.894934,115.881078" id="Fill-391"></path>
                <path d="M203.94568,115.881078 C203.94568,118.65978 201.69345,120.912011 198.918549,120.912011 C196.143649,120.912011 193.891418,118.65978 193.891418,115.881078 C193.891418,113.102377 196.143649,110.850146 198.918549,110.850146 C201.69345,110.850146 203.94568,113.102377 203.94568,115.881078" id="Fill-392"></path>
                <path d="M223.968678,115.881078 C223.968678,118.835112 221.578652,121.229889 218.627945,121.229889 C215.672486,121.229889 213.28246,118.835112 213.28246,115.881078 C213.28246,112.927045 215.672486,110.532268 218.627945,110.532268 C221.578652,110.532268 223.968678,112.927045 223.968678,115.881078" id="Fill-393"></path>
                <path d="M264.019424,115.881078 C264.019424,119.185776 261.339555,121.864695 258.037233,121.864695 C254.739663,121.864695 252.059793,119.185776 252.059793,115.881078 C252.059793,112.576381 254.739663,109.896987 258.037233,109.896987 C261.339555,109.896987 264.019424,112.576381 264.019424,115.881078" id="Fill-394"></path>
                <path d="M284.042422,115.881078 C284.042422,119.361108 281.224757,122.182573 277.746629,122.182573 C274.2685,122.182573 271.450836,119.361108 271.450836,115.881078 C271.450836,112.400574 274.2685,109.579584 277.746629,109.579584 C281.224757,109.579584 284.042422,112.400574 284.042422,115.881078" id="Fill-395"></path>
                <path d="M63.7751951,131.762157 C63.7751951,133.312585 62.520788,134.569843 60.9717853,134.569843 C59.4227827,134.569843 58.1636241,133.312585 58.1636241,131.762157 C58.1636241,130.211254 59.4227827,128.954471 60.9717853,128.954471 C62.520788,128.954471 63.7751951,130.211254 63.7751951,131.762157" id="Fill-396"></path>
                <path d="M83.7981925,131.762157 C83.7981925,133.488392 82.4012392,134.887721 80.6764295,134.887721 C78.9516198,134.887721 77.5546665,133.488392 77.5546665,131.762157 C77.5546665,130.035922 78.9516198,128.636593 80.6764295,128.636593 C82.4012392,128.636593 83.7981925,130.035922 83.7981925,131.762157" id="Fill-397"></path>
                <path d="M123.848939,131.762157 C123.848939,133.839056 122.166893,135.523002 120.090469,135.523002 C118.014046,135.523002 116.332,133.839056 116.332,131.762157 C116.332,129.685258 118.014046,128.001311 120.090469,128.001311 C122.166893,128.001311 123.848939,129.685258 123.848939,131.762157" id="Fill-398"></path>
                <path d="M143.871936,131.762157 C143.871936,134.014388 142.047344,135.840405 139.799865,135.840405 C137.547634,135.840405 135.723042,134.014388 135.723042,131.762157 C135.723042,129.509926 137.547634,127.683908 139.799865,127.683908 C142.047344,127.683908 143.871936,129.509926 143.871936,131.762157" id="Fill-399"></path>
                <path d="M183.922683,131.762157 C183.922683,134.365527 181.812998,136.475686 179.213905,136.475686 C176.61006,136.475686 174.500375,134.365527 174.500375,131.762157 C174.500375,129.159262 176.61006,127.048627 179.213905,127.048627 C181.812998,127.048627 183.922683,129.159262 183.922683,131.762157" id="Fill-400"></path>
                <path d="M203.94568,131.762157 C203.94568,134.540859 201.69345,136.793089 198.918549,136.793089 C196.143649,136.793089 193.891418,134.540859 193.891418,131.762157 C193.891418,128.983455 196.143649,126.731224 198.918549,126.731224 C201.69345,126.731224 203.94568,128.983455 203.94568,131.762157" id="Fill-401"></path>
                <path d="M243.991675,131.762157 C243.991675,134.891522 241.459103,137.428371 238.332589,137.428371 C235.206074,137.428371 232.668751,134.891522 232.668751,131.762157 C232.668751,128.632791 235.206074,126.095943 238.332589,126.095943 C241.459103,126.095943 243.991675,128.632791 243.991675,131.762157" id="Fill-402"></path>
                <path d="M264.019424,131.762157 C264.019424,135.066854 261.339555,137.746249 258.037233,137.746249 C254.739663,137.746249 252.059793,135.066854 252.059793,131.762157 C252.059793,128.457459 254.739663,125.778065 258.037233,125.778065 C261.339555,125.778065 264.019424,128.457459 264.019424,131.762157" id="Fill-403"></path>
                <path d="M43.7521976,147.643235 C43.7521976,149.018331 42.6403368,150.133518 41.2623896,150.133518 C39.889194,150.133518 38.7773332,149.018331 38.7773332,147.643235 C38.7773332,146.268139 39.889194,145.153427 41.2623896,145.153427 C42.6403368,145.153427 43.7521976,146.268139 43.7521976,147.643235" id="Fill-404"></path>
                <path d="M63.7751951,147.643235 C63.7751951,149.194138 62.520788,150.450921 60.9717853,150.450921 C59.4227827,150.450921 58.1636241,149.194138 58.1636241,147.643235 C58.1636241,146.092807 59.4227827,144.835549 60.9717853,144.835549 C62.520788,144.835549 63.7751951,146.092807 63.7751951,147.643235" id="Fill-405"></path>
                <path d="M103.825942,147.643235 C103.825942,149.544802 102.286442,151.086202 100.385825,151.086202 C98.4852085,151.086202 96.9457089,149.544802 96.9457089,147.643235 C96.9457089,145.741668 98.4852085,144.200268 100.385825,144.200268 C102.286442,144.200268 103.825942,145.741668 103.825942,147.643235" id="Fill-406"></path>
                <path d="M123.848939,147.643235 C123.848939,149.720134 122.166893,151.403605 120.090469,151.403605 C118.014046,151.403605 116.332,149.720134 116.332,147.643235 C116.332,145.566336 118.014046,143.882865 120.090469,143.882865 C122.166893,143.882865 123.848939,145.566336 123.848939,147.643235" id="Fill-407"></path>
                <path d="M163.894934,147.643235 C163.894934,150.070798 161.932547,152.038887 159.504509,152.038887 C157.081223,152.038887 155.114085,150.070798 155.114085,147.643235 C155.114085,145.215197 157.081223,143.247584 159.504509,143.247584 C161.932547,143.247584 163.894934,145.215197 163.894934,147.643235" id="Fill-408"></path>
                <path d="M183.922683,147.643235 C183.922683,150.24613 181.812998,152.356765 179.213905,152.356765 C176.61006,152.356765 174.500375,150.24613 174.500375,147.643235 C174.500375,145.039865 176.61006,142.929706 179.213905,142.929706 C181.812998,142.929706 183.922683,145.039865 183.922683,147.643235" id="Fill-409"></path>
                <path d="M223.968678,147.643235 C223.968678,150.597269 221.578652,152.992046 218.627945,152.992046 C215.672486,152.992046 213.28246,150.597269 213.28246,147.643235 C213.28246,144.689202 215.672486,142.2949 218.627945,142.2949 C221.578652,142.2949 223.968678,144.689202 223.968678,147.643235" id="Fill-410"></path>
                <path d="M243.991675,147.643235 C243.991675,150.772601 241.459103,153.309449 238.332589,153.309449 C235.206074,153.309449 232.668751,150.772601 232.668751,147.643235 C232.668751,144.51387 235.206074,141.977022 238.332589,141.977022 C241.459103,141.977022 243.991675,144.51387 243.991675,147.643235" id="Fill-411"></path>
                <path d="M23.7292001,163.524314 C23.7292001,164.724078 22.755134,165.696719 21.5577455,165.696719 C20.3603569,165.696719 19.3862909,164.724078 19.3862909,163.524314 C19.3862909,162.324549 20.3603569,161.351909 21.5577455,161.351909 C22.755134,161.351909 23.7292001,162.324549 23.7292001,163.524314" id="Fill-412"></path>
                <path d="M43.7521976,163.524314 C43.7521976,164.89941 42.6403368,166.014122 41.2623896,166.014122 C39.889194,166.014122 38.7773332,164.89941 38.7773332,163.524314 C38.7773332,162.149217 39.889194,161.034031 41.2623896,161.034031 C42.6403368,161.034031 43.7521976,162.149217 43.7521976,163.524314" id="Fill-413"></path>
                <path d="M83.7981925,163.524314 C83.7981925,165.250549 82.4012392,166.649403 80.6764295,166.649403 C78.9516198,166.649403 77.5546665,165.250549 77.5546665,163.524314 C77.5546665,161.798078 78.9516198,160.399225 80.6764295,160.399225 C82.4012392,160.399225 83.7981925,161.798078 83.7981925,163.524314" id="Fill-414"></path>
                <path d="M103.825942,163.524314 C103.825942,165.425881 102.286442,166.967281 100.385825,166.967281 C98.4852085,166.967281 96.9457089,165.425881 96.9457089,163.524314 C96.9457089,161.622747 98.4852085,160.081346 100.385825,160.081346 C102.286442,160.081346 103.825942,161.622747 103.825942,163.524314" id="Fill-415"></path>
                <path d="M143.871936,163.524314 C143.871936,165.776544 142.047344,167.602562 139.799865,167.602562 C137.547634,167.602562 135.723042,165.776544 135.723042,163.524314 C135.723042,161.272083 137.547634,159.446065 139.799865,159.446065 C142.047344,159.446065 143.871936,161.272083 143.871936,163.524314" id="Fill-416"></path>
                <path d="M163.894934,163.524314 C163.894934,165.952352 161.932547,167.919965 159.504509,167.919965 C157.081223,167.919965 155.114085,165.952352 155.114085,163.524314 C155.114085,161.096751 157.081223,159.128662 159.504509,159.128662 C161.932547,159.128662 163.894934,161.096751 163.894934,163.524314" id="Fill-417"></path>
                <path d="M203.94568,163.524314 C203.94568,166.303015 201.69345,168.555246 198.918549,168.555246 C196.143649,168.555246 193.891418,166.303015 193.891418,163.524314 C193.891418,160.745612 196.143649,158.493381 198.918549,158.493381 C201.69345,158.493381 203.94568,160.745612 203.94568,163.524314" id="Fill-418"></path>
                <path d="M223.968678,163.524314 C223.968678,166.478347 221.578652,168.873124 218.627945,168.873124 C215.672486,168.873124 213.28246,166.478347 213.28246,163.524314 C213.28246,160.57028 215.672486,158.175503 218.627945,158.175503 C221.578652,158.175503 223.968678,160.57028 223.968678,163.524314" id="Fill-419"></path>
                <path d="M3.70145112,179.405392 C3.70145112,180.429824 2.87468283,181.260394 1.84834979,181.260394 C0.826768286,181.260394 2.16075108e-13,180.429824 2.16075108e-13,179.405392 C2.16075108e-13,178.38096 0.826768286,177.55039 1.84834979,177.55039 C2.87468283,177.55039 3.70145112,178.38096 3.70145112,179.405392" id="Fill-420"></path>
                <path d="M23.7292001,179.405392 C23.7292001,180.605156 22.755134,181.577797 21.5577455,181.577797 C20.3603569,181.577797 19.3862909,180.605156 19.3862909,179.405392 C19.3862909,178.205628 20.3603569,177.232987 21.5577455,177.232987 C22.755134,177.232987 23.7292001,178.205628 23.7292001,179.405392" id="Fill-421"></path>
                <path d="M63.7751951,179.405392 C63.7751951,180.956295 62.520788,182.213078 60.9717853,182.213078 C59.4227827,182.213078 58.1636241,180.956295 58.1636241,179.405392 C58.1636241,177.854489 59.4227827,176.597706 60.9717853,176.597706 C62.520788,176.597706 63.7751951,177.854489 63.7751951,179.405392" id="Fill-422"></path>
                <path d="M83.7981925,179.405392 C83.7981925,181.131627 82.4012392,182.530956 80.6764295,182.530956 C78.9516198,182.530956 77.5546665,181.131627 77.5546665,179.405392 C77.5546665,177.679157 78.9516198,176.279828 80.6764295,176.279828 C82.4012392,176.279828 83.7981925,177.679157 83.7981925,179.405392" id="Fill-423"></path>
                <path d="M123.848939,179.405392 C123.848939,181.482291 122.166893,183.166237 120.090469,183.166237 C118.014046,183.166237 116.332,181.482291 116.332,179.405392 C116.332,177.328493 118.014046,175.645022 120.090469,175.645022 C122.166893,175.645022 123.848939,177.328493 123.848939,179.405392" id="Fill-424"></path>
                <path d="M143.871936,179.405392 C143.871936,181.657623 142.047344,183.48364 139.799865,183.48364 C137.547634,183.48364 135.723042,181.657623 135.723042,179.405392 C135.723042,177.153161 137.547634,175.327144 139.799865,175.327144 C142.047344,175.327144 143.871936,177.153161 143.871936,179.405392" id="Fill-425"></path>
                <path d="M183.922683,179.405392 C183.922683,182.008762 181.812998,184.118922 179.213905,184.118922 C176.61006,184.118922 174.500375,182.008762 174.500375,179.405392 C174.500375,176.802497 176.61006,174.691863 179.213905,174.691863 C181.812998,174.691863 183.922683,176.802497 183.922683,179.405392" id="Fill-426"></path>
                <path d="M203.94568,179.405392 C203.94568,182.184094 201.69345,184.436325 198.918549,184.436325 C196.143649,184.436325 193.891418,182.184094 193.891418,179.405392 C193.891418,176.62669 196.143649,174.37446 198.918549,174.37446 C201.69345,174.37446 203.94568,176.62669 203.94568,179.405392" id="Fill-427"></path>
                <path d="M3.70145112,195.28647 C3.70145112,196.310903 2.87468283,197.141472 1.84834979,197.141472 C0.826768286,197.141472 2.16075108e-13,196.310903 2.16075108e-13,195.28647 C2.16075108e-13,194.262038 0.826768286,193.431944 1.84834979,193.431944 C2.87468283,193.431944 3.70145112,194.262038 3.70145112,195.28647" id="Fill-428"></path>
                <path d="M43.7521976,195.28647 C43.7521976,196.661567 42.6403368,197.776754 41.2623896,197.776754 C39.889194,197.776754 38.7773332,196.661567 38.7773332,195.28647 C38.7773332,193.911374 39.889194,192.796663 41.2623896,192.796663 C42.6403368,192.796663 43.7521976,193.911374 43.7521976,195.28647" id="Fill-429"></path>
                <path d="M63.7751951,195.28647 C63.7751951,196.837374 62.520788,198.094157 60.9717853,198.094157 C59.4227827,198.094157 58.1636241,196.837374 58.1636241,195.28647 C58.1636241,193.736042 59.4227827,192.478784 60.9717853,192.478784 C62.520788,192.478784 63.7751951,193.736042 63.7751951,195.28647" id="Fill-430"></path>
                <path d="M103.825942,195.28647 C103.825942,197.188038 102.286442,198.729438 100.385825,198.729438 C98.4852085,198.729438 96.9457089,197.188038 96.9457089,195.28647 C96.9457089,193.384903 98.4852085,191.843503 100.385825,191.843503 C102.286442,191.843503 103.825942,193.384903 103.825942,195.28647" id="Fill-431"></path>
                <path d="M123.848939,195.28647 C123.848939,197.363369 122.166893,199.046841 120.090469,199.046841 C118.014046,199.046841 116.332,197.363369 116.332,195.28647 C116.332,193.209572 118.014046,191.5261 120.090469,191.5261 C122.166893,191.5261 123.848939,193.209572 123.848939,195.28647" id="Fill-432"></path>
                <path d="M163.894934,195.28647 C163.894934,197.714033 161.932547,199.682122 159.504509,199.682122 C157.081223,199.682122 155.114085,197.714033 155.114085,195.28647 C155.114085,192.858908 157.081223,190.890819 159.504509,190.890819 C161.932547,190.890819 163.894934,192.858908 163.894934,195.28647" id="Fill-433"></path>
                <path d="M183.922683,195.28647 C183.922683,197.889365 181.812998,200 179.213905,200 C176.61006,200 174.500375,197.889365 174.500375,195.28647 C174.500375,192.683101 176.61006,190.572941 179.213905,190.572941 C181.812998,190.572941 183.922683,192.683101 183.922683,195.28647" id="Fill-434"></path>
            </g>
        </g>
    </g>
</svg>