<?xml version="1.0" encoding="UTF-8"?>
<svg width="100px" height="100px" viewBox="0 0 100 100" version="1.1" xmlns="http://www.w3.org/2000/svg" xmlns:xlink="http://www.w3.org/1999/xlink">
    <title>icon-building</title>
    <g id="Page-1" stroke="none" stroke-width="1" fill="none" fill-rule="evenodd">
        <g id="icon-building" fill-rule="nonzero">
            <g id="Group" transform="translate(18.475781, 30.503906)" fill="#C384F8">
                <polygon id="Path" points="0 44.9802734 4.296875 44.9802734 4.296875 67.2 0 67.2"></polygon>
                <polygon id="Path" points="17.0441406 44.9802734 21.3410156 44.9802734 21.3410156 67.2 17.0441406 67.2"></polygon>
                <g transform="translate(46.189453, -0.000000)" id="Path">
                    <polygon points="0 34.8333984 26.6865234 34.8333984 26.6865234 39.1302734 0 39.1302734"></polygon>
                    <polygon points="0 17.4166016 26.6865234 17.4166016 26.6865234 21.7134766 0 21.7134766"></polygon>
                    <polygon points="0 0 26.6865234 0 26.6865234 4.296875 0 4.296875"></polygon>
                </g>
            </g>
            <path d="M97.8515625,95.5554688 L93.5001953,95.5554688 L93.5001953,84.9025391 L93.5001953,15.2355469 L93.5001953,2.1484375 C93.5001953,0.961914062 92.5382812,0 91.3517578,0 L44.1888672,0 C43.0023438,0 42.0404297,0.961914062 42.0404297,2.1484375 L42.0404297,58.4746094 L8.4140625,58.4746094 C7.22753906,58.4746094 6.265625,59.4365234 6.265625,60.6230469 L6.265625,95.5552734 L2.1484375,95.5552734 C0.961914062,95.5552734 0,96.5171875 0,97.7037109 C0,98.8902344 0.961914062,99.8521484 2.1484375,99.8521484 L8.4140625,99.8521484 L50.9132813,99.8521484 L97.8515625,99.8521484 C99.0380859,99.8521484 100,98.8902344 100,97.7037109 C100,96.5171875 99.0380859,95.5554688 97.8515625,95.5554688 Z M89.2033203,82.7541016 L66.8136719,82.7541016 L66.8136719,17.3839844 L89.2033203,17.3839844 L89.2033203,82.7541016 Z M46.3373047,4.296875 L89.2033203,4.296875 L89.2033203,13.0871094 L64.6652344,13.0871094 C63.4787109,13.0871094 62.5167969,14.0490234 62.5167969,15.2355469 L62.5167969,84.9023437 C62.5167969,86.0888672 63.4787109,87.0507812 64.6652344,87.0507812 L89.2033203,87.0507812 L89.2033203,95.5552734 L53.0617188,95.5552734 L53.0617188,60.6230469 C53.0617188,59.4365234 52.0998047,58.4746094 50.9132813,58.4746094 L46.3373047,58.4746094 L46.3373047,4.296875 Z M48.7648437,62.7714844 L48.7648437,73.3357422 L10.5625,73.3357422 L10.5625,62.7714844 L48.7648437,62.7714844 Z M10.5625,95.5554687 L10.5625,77.6326172 L48.7648437,77.6326172 L48.7648437,95.5554687 L10.5625,95.5554687 Z" id="Shape" fill="#293D56"></path>
        </g>
    </g>
</svg>