<?xml version="1.0" encoding="UTF-8"?>
<svg width="100px" height="79px" viewBox="0 0 100 79" version="1.1" xmlns="http://www.w3.org/2000/svg" xmlns:xlink="http://www.w3.org/1999/xlink">
    <title>icon-certificate</title>
    <g id="Page-1" stroke="none" stroke-width="1" fill="none" fill-rule="evenodd">
        <g id="icon-certificate" transform="translate(0.000000, -0.000000)" fill-rule="nonzero">
            <g id="Group" transform="translate(0.000000, 0.000000)" fill="#293D56">
                <path d="M89.0351991,6.9388668e-15 C88.8568795,6.9388668e-15 88.6793411,0.0224829894 88.5066855,0.0662328185 C63.3323698,6.45683286 37.4166507,6.45527036 11.4786661,0.0627172073 C11.4772989,0.0623265838 11.4759317,0.0621312721 11.4745646,0.0617406486 C11.4708536,0.0607640899 11.467338,0.0599828429 11.4636271,0.059201596 C11.452299,0.0564672317 11.4409709,0.0539281791 11.4296429,0.0513891265 C11.4202679,0.0492406974 11.4108929,0.04728758 11.401518,0.0453344627 C11.3937055,0.0437719688 11.3860883,0.0422094749 11.3782759,0.040646981 C11.2196827,0.00939710304 11.0612849,-0.0034934716 10.9054262,0.000803386613 C3.74568849,0.0738499763 4.16332008e-15,13.3989932 4.16332008e-15,26.5626137 C4.16332008e-15,39.7623668 3.76619623,53.1250099 10.9646056,53.1250099 C11.1378471,53.1250099 11.3105027,53.1041116 11.4786661,53.0625102 C22.5991305,50.3217006 33.8002586,48.7332302 44.7711142,48.3412396 C45.9568517,48.2988569 46.8838012,47.3031577 46.8416139,46.1174201 C46.7990359,44.9316826 45.8006023,44.0070768 44.6177945,44.0471157 C33.4596349,44.4459423 22.0753044,46.0486704 10.7759345,48.810769 C9.70289179,48.6187775 8.09977305,46.8299173 6.75153613,43.0963382 C5.1685345,38.7131522 4.29685822,32.8413001 4.29685822,26.5626137 C4.29685822,20.2839273 5.1685345,14.4122705 6.7511455,10.0290845 C8.06598412,6.38808312 9.6232046,4.59668387 10.6946848,4.33184116 C11.850149,4.87754215 13.5243612,6.9119092 14.9309964,10.5070123 C16.4466154,14.3808253 17.363604,19.2542438 17.5636033,24.4141846 L10.9646056,24.4141846 C9.7780868,24.4141846 8.8161765,25.3760949 8.8161765,26.5626137 C8.8161765,33.3526262 11.5032754,40.9180264 15.3591197,40.9180264 C15.5263065,40.9180264 15.6929074,40.8984952 15.8556021,40.8598235 C24.9729493,38.6945976 34.212757,37.2471423 43.3185808,36.5578871 C44.5017793,36.4684344 45.3882993,35.4366025 45.2988465,34.253404 C45.2091984,33.0702055 44.1785384,32.1829042 42.9943633,32.2731383 C35.4992754,32.8405189 27.9168831,33.9086787 20.384686,35.456329 C21.2801903,33.0395415 21.9020629,29.9467802 21.9020629,26.5624184 C21.9020629,20.093889 20.8475748,13.8361009 18.9327385,8.94139346 C18.4870372,7.80233541 18.0048125,6.7587848 17.4915332,5.81738223 C27.5047754,7.85272584 37.5312987,8.97108085 47.4121195,9.15291607 C48.2982488,13.6503594 48.95059,18.5821761 49.3531275,23.831179 C49.4394553,24.9583231 50.3810532,25.815351 51.4929629,25.815351 C51.5480408,25.815351 51.6035094,25.8132026 51.6595638,25.8089057 C52.8427623,25.7182811 53.7283057,24.6856679 53.6374858,23.5024694 C53.2470576,18.4130362 52.6273335,13.6028987 51.7919852,9.17205662 C54.9398245,9.14139268 58.0917653,9.01541661 61.2427295,8.79451904 C62.0479998,13.3616887 62.6462397,18.2548336 63.022996,23.3610637 C63.1061988,24.4907468 64.0485779,25.3514856 65.163222,25.3514856 C65.2161515,25.3514856 65.2698622,25.3495325 65.323573,25.3456263 C66.5069668,25.2583219 67.3952445,24.2282478 67.3079402,23.0450493 C66.9311839,17.9386239 66.3378268,13.0325884 65.5415409,8.43436419 C73.4844786,7.65975784 81.4074945,6.28339603 89.2297296,4.31523966 C90.3027723,4.51250451 91.902766,6.30175534 93.2484639,10.0288892 C94.8312702,14.4120752 95.7029465,20.283732 95.7029465,26.5624184 C95.7029465,29.9631863 95.4472834,33.2444235 94.9613478,36.2344509 C88.3713345,34.7123865 81.6713607,33.5674691 75.0221679,32.8280189 C73.8430709,32.6967694 72.7805751,33.5465708 72.6495209,34.7258631 C72.5184667,35.9051553 73.3680728,36.9674559 74.547365,37.09851 C81.0584724,37.8225306 87.6201655,38.9455731 94.0738513,40.4393173 C93.8252194,41.3736886 93.5498299,42.2617711 93.2486592,43.0959475 C91.902766,46.8230814 90.3029676,48.6123322 89.2299249,48.8095971 C83.5971344,47.3924151 77.8707896,46.2711305 72.2040148,45.4762117 C71.0280429,45.3111733 69.9426955,46.130506 69.7778524,47.3053061 C69.6130093,48.4804968 70.4321467,49.5666254 71.6069468,49.7314685 C77.2315343,50.5205279 82.9174495,51.6398595 88.5068808,53.0587993 C88.6795364,53.1025491 88.8570748,53.1250099 89.0353944,53.1250099 C96.2336085,53.1250099 100,39.7621715 100,26.5624184 C100,13.3626653 96.2336085,6.9388668e-15 89.0351991,6.9388668e-15 Z M15.3532603,36.0830843 C14.587443,34.8741047 13.532369,32.2430603 13.2101046,28.7110428 L17.5067676,28.7110428 C17.1889954,32.1686465 16.1618509,34.8184408 15.3532603,36.0830843 Z" id="Shape"></path>
                <path d="M65.6382202,51.1695488 C64.4517014,51.1695488 63.4897911,52.1314591 63.4897911,53.3179779 L63.4897911,71.1804082 L60.3214441,68.0120612 C59.4821895,67.1730019 58.1222339,67.1730019 57.2829794,68.0120612 L54.1146324,71.1804082 L54.1146324,53.3179779 C54.1146324,52.1314591 53.1527221,51.1695488 51.9662033,51.1695488 C50.7796845,51.1695488 49.8177741,52.1314591 49.8177741,53.3179779 L49.8177741,76.3671066 C49.8177741,77.2360486 50.3412096,78.0194439 51.1439408,78.3520598 C51.9464768,78.6846757 52.8708872,78.5008874 53.4853379,77.8864366 L58.8021141,72.5696605 L64.1188902,77.8864366 C64.5298261,78.2973725 65.0794333,78.5157311 65.6384155,78.5157311 C65.9151722,78.5157311 66.194468,78.4622156 66.4602873,78.3520598 C67.2630185,78.0194439 67.786454,77.2362439 67.786454,76.3671066 L67.786454,53.3179779 C67.7866493,52.1314591 66.8249343,51.1695488 65.6382202,51.1695488 L65.6382202,51.1695488 Z" id="Path"></path>
            </g>
            <g id="Group" transform="translate(40.987535, 20.427091)" fill="#C384F8">
                <path d="M17.8147742,35.6295483 C7.99176566,35.6295483 0,27.637978 0,17.8147742 C0,7.99157035 7.99176566,0 17.8147742,0 C27.6377827,0 35.6295483,7.99157035 35.6295483,17.8147742 C35.6295483,27.637978 27.6377827,35.6295483 17.8147742,35.6295483 Z M17.8147742,4.29685822 C10.360897,4.29685822 4.29685822,10.360897 4.29685822,17.8147742 C4.29685822,25.2686513 10.360897,31.3326901 17.8147742,31.3326901 C25.2686513,31.3326901 31.3326901,25.2686513 31.3326901,17.8147742 C31.3326901,10.360897 25.2686513,4.29685822 17.8147742,4.29685822 Z" id="Shape"></path>
                <path d="M17.8147742,25.8225554 C13.3993617,25.8225554 9.80699294,22.2301866 9.80699294,17.8147742 C9.80699294,13.3993617 13.3993617,9.80699294 17.8147742,9.80699294 C22.2301866,9.80699294 25.8225554,13.3993617 25.8225554,17.8147742 C25.8225554,22.2301866 22.2303819,25.8225554 17.8147742,25.8225554 Z M17.8147742,14.1038512 C15.7684931,14.1038512 14.1038512,15.7684931 14.1038512,17.8147742 C14.1038512,19.8610552 15.7684931,21.5256972 17.8147742,21.5256972 C19.8610552,21.5256972 21.5256972,19.8610552 21.5256972,17.8147742 C21.5256972,15.7684931 19.8610552,14.1038512 17.8147742,14.1038512 Z" id="Shape"></path>
            </g>
        </g>
    </g>
</svg>