<?xml version="1.0" encoding="UTF-8"?>
<svg width="100px" height="100px" viewBox="0 0 100 100" version="1.1" xmlns="http://www.w3.org/2000/svg" xmlns:xlink="http://www.w3.org/1999/xlink">
    <title>icon-database</title>
    <g id="Page-1" stroke="none" stroke-width="1" fill="none" fill-rule="evenodd">
        <g id="icon-database" fill-rule="nonzero">
            <g id="Group" transform="translate(27.476450, 31.121409)" fill="#C384F8">
                <path d="M22.5235496,55.26238 C21.3370261,55.26238 20.3751121,54.300466 20.3751121,53.1139425 L20.3751121,35.2182394 C20.3751121,34.031716 21.3370261,33.0698019 22.5235496,33.0698019 C23.710073,33.0698019 24.6719871,34.031716 24.6719871,35.2182394 L24.6719871,53.1139425 C24.6719871,54.300466 23.710073,55.26238 22.5235496,55.26238 L22.5235496,55.26238 Z" id="Path"></path>
                <path d="M41.1973777,61.0979269 L28.3590964,61.0979269 C27.172573,61.0979269 26.2106589,60.1360128 26.2106589,58.9494894 C26.2106589,57.762966 27.172573,56.8010519 28.3590964,56.8010519 L41.1973777,56.8010519 C42.3839011,56.8010519 43.3458152,57.762966 43.3458152,58.9494894 C43.3458152,60.1360128 42.3839011,61.0979269 41.1973777,61.0979269 Z" id="Path"></path>
                <path d="M16.6880027,61.0979269 L3.84972143,61.0979269 C2.663198,61.0979269 1.70128393,60.1360128 1.70128393,58.9494894 C1.70128393,57.762966 2.663198,56.8010519 3.84972143,56.8010519 L16.6880027,56.8010519 C17.8745261,56.8010519 18.8364402,57.762966 18.8364402,58.9494894 C18.8364402,60.1360128 17.8745261,61.0979269 16.6880027,61.0979269 Z" id="Path"></path>
                <path d="M2.09972143,4.29851284 C-0.987973879,4.24089566 -0.519809816,-0.507151218 2.51983862,0.0446065947 C5.00831518,0.478395657 4.622573,4.35691128 2.09972143,4.29851284 Z" id="Path"></path>
                <path d="M9.88097143,6.24382534 C6.79327612,6.18640347 7.26026831,1.44187222 10.2989402,1.98796597 C12.7874167,2.42351284 12.4051902,6.30046597 9.88097143,6.24382534 Z" id="Path"></path>
                <path d="M2.09972143,23.7496847 C-0.988364504,23.6948019 -0.517856691,18.9444113 2.51983862,19.4957785 C5.006948,19.931716 4.62335425,23.809255 2.09972143,23.7496847 L2.09972143,23.7496847 Z" id="Path"></path>
                <path d="M9.88097143,25.6949972 C6.7928855,25.6418722 7.26104956,20.8901144 10.2989402,21.441091 C12.7876121,21.871755 12.4049949,25.7559347 9.88097143,25.6949972 Z" id="Path"></path>
            </g>
            <path d="M82.2990234,14.7921875 C82.2990234,10.4935547 78.6947266,6.61484375 72.1503906,3.87050781 C66.1988281,1.37460938 58.3322266,0 50,0 C41.6677734,0 33.8013672,1.37460938 27.8496094,3.8703125 C21.3052734,6.61464844 17.7011719,10.4935547 17.7011719,14.7919922 L17.7011719,51.7505859 C17.7011719,56.034375 21.3480469,60.3455078 27.7068359,63.5787109 C33.9326172,66.7443359 41.85,68.4878906 50.0001953,68.4878906 C58.1503906,68.4878906 66.0677734,66.7443359 72.2935547,63.5787109 C78.6521484,60.3455078 82.2990234,56.034375 82.2990234,51.7505859 L82.2990234,14.7921875 L82.2990234,14.7921875 Z M78.0021484,51.7505859 C78.0021484,54.2826172 75.0683594,57.3472656 70.3457031,59.7486328 C64.7933594,62.571875 57.3775391,64.1912109 50,64.1912109 C42.6224609,64.1912109 35.2066406,62.5720703 29.6542969,59.7486328 C24.9318359,57.3472656 21.9980469,54.2826172 21.9980469,51.7505859 L21.9980469,40.3197266 C23.5310547,41.6916016 25.4464844,42.9775391 27.7068359,44.1269531 C33.9326172,47.2927734 41.85,49.0361328 50.0001953,49.0361328 C58.1503906,49.0361328 66.0677734,47.2927734 72.2935547,44.1269531 C74.5537109,42.9777344 76.4691406,41.6917969 78.0021484,40.3197266 L78.0021484,51.7505859 L78.0021484,51.7505859 Z M78.0019531,32.2988281 C78.0019531,34.8308594 75.0683594,37.8955078 70.3457031,40.2966797 C64.7933594,43.1199219 57.3775391,44.7392578 50,44.7392578 C42.6224609,44.7392578 35.2066406,43.1201172 29.6542969,40.2966797 C24.9318359,37.8955078 21.9980469,34.8308594 21.9980469,32.2988281 L21.9980469,22.3734375 C23.5546875,23.6095703 25.5136719,24.734375 27.8496094,25.7138672 C33.8013672,28.2097656 41.6679688,29.5841797 50,29.5841797 C58.3320312,29.5841797 66.1988281,28.2095703 72.1503906,25.7138672 C74.4863281,24.7341797 76.4453125,23.6095703 78.0019531,22.3734375 L78.0019531,32.2988281 Z M70.4886719,21.7513672 C65.0509766,24.0316406 57.7746094,25.2875 50,25.2875 C42.2253906,25.2875 34.9490234,24.0316406 29.5113281,21.7513672 C24.8066406,19.7785156 21.9980469,17.1769531 21.9980469,14.7921875 C21.9980469,12.4074219 24.8066406,9.80585938 29.5113281,7.83300781 C34.9490234,5.55273438 42.2251953,4.296875 50,4.296875 C57.7748047,4.296875 65.0509766,5.55273438 70.4886719,7.83300781 C75.1931641,9.80585938 78.0019531,12.4074219 78.0019531,14.7921875 C78.0019531,17.1769531 75.1933594,19.7785156 70.4886719,21.7513672 Z" id="Shape" fill="#293D56"></path>
            <path d="M50,98.0546875 C45.5976563,98.0546875 42.0160156,94.4730469 42.0160156,90.0707031 C42.0160156,85.6683594 45.5976563,82.0869141 50,82.0869141 C54.4023438,82.0869141 57.9839844,85.6685547 57.9839844,90.0708984 C57.9839844,94.4732422 54.4023438,98.0546875 50,98.0546875 Z M50,86.3837891 C47.9669922,86.3837891 46.3128906,88.0378906 46.3128906,90.0708984 C46.3128906,92.1039062 47.9669922,93.7578125 50,93.7578125 C52.0330078,93.7578125 53.6871094,92.1037109 53.6871094,90.0707031 C53.6871094,88.0376953 52.0330078,86.3837891 50,86.3837891 Z" id="Shape" fill="#293D56"></path>
            <path d="M31.3261719,100 L2.1484375,100 C0.961914063,100 0,99.0380859 0,97.8515625 L0,74.509375 C0,73.3228516 0.961914063,72.3609375 2.1484375,72.3609375 L11.8744141,72.3609375 C12.5121094,72.3609375 13.1166016,72.6441406 13.5248047,73.1339844 L17.7435547,78.1964844 L31.3261719,78.1964844 C32.5126953,78.1964844 33.4746094,79.1583984 33.4746094,80.3449219 L33.4746094,97.8515625 C33.4746094,99.0380859 32.5126953,100 31.3261719,100 Z M4.296875,95.703125 L29.1777344,95.703125 L29.1777344,82.4933594 L16.7373047,82.4933594 C16.0996094,82.4933594 15.4951172,82.2101562 15.0869141,81.7203125 L10.8679687,76.6578125 L4.296875,76.6578125 L4.296875,95.703125 Z" id="Shape" fill="#293D56"></path>
            <path d="M97.8515625,100 L68.6738281,100 C67.4873047,100 66.5253906,99.0380859 66.5253906,97.8515625 L66.5253906,74.509375 C66.5253906,73.3228516 67.4873047,72.3609375 68.6738281,72.3609375 L78.3998047,72.3609375 C79.0375,72.3609375 79.6419922,72.6441406 80.0503906,73.1339844 L84.2691406,78.1964844 L97.8515625,78.1964844 C99.0380859,78.1964844 100,79.1583984 100,80.3449219 L100,97.8515625 C100,99.0380859 99.0380859,100 97.8515625,100 L97.8515625,100 Z M70.8222656,95.703125 L95.703125,95.703125 L95.703125,82.4933594 L83.2626953,82.4933594 C82.625,82.4933594 82.0205078,82.2101562 81.6121094,81.7203125 L77.3933594,76.6578125 L70.8222656,76.6578125 L70.8222656,95.703125 Z" id="Shape" fill="#293D56"></path>
        </g>
    </g>
</svg>