<?xml version="1.0" encoding="UTF-8"?>
<svg width="78px" height="100px" viewBox="0 0 78 100" version="1.1" xmlns="http://www.w3.org/2000/svg" xmlns:xlink="http://www.w3.org/1999/xlink">
    <title>icon-file</title>
    <g id="Page-1" stroke="none" stroke-width="1" fill="none" fill-rule="evenodd">
        <g id="icon-file" fill-rule="nonzero">
            <path d="M75.1425781,100 L2.1484375,100 C0.961914062,100 0,99.0380859 0,97.8515625 L0,10.2587891 C0,9.07226562 0.961914062,8.11035156 2.1484375,8.11035156 L26.4796875,8.11035156 L26.4796875,12.4072266 L4.296875,12.4072266 L4.296875,95.703125 L72.9939453,95.703125 L72.9939453,12.4072266 L50.8113281,12.4072266 L50.8113281,8.11035156 L75.1425781,8.11035156 C76.3291016,8.11035156 77.2910156,9.07226562 77.2910156,10.2587891 L77.2910156,97.8515625 C77.2910156,99.0380859 76.3291016,100 75.1425781,100 Z" id="Path" fill="#293D56"></path>
            <path d="M50.8113281,20.5177734 L26.4796875,20.5177734 C25.2931641,20.5177734 24.33125,19.5558594 24.33125,18.3693359 L24.33125,2.1484375 C24.33125,0.961914062 25.2931641,0 26.4796875,0 L50.8111328,0 C51.9976562,0 52.9595703,0.961914062 52.9595703,2.1484375 L52.9595703,18.3693359 C52.9595703,19.5558594 51.9978516,20.5177734 50.8113281,20.5177734 Z M28.628125,16.2208984 L48.6626953,16.2208984 L48.6626953,4.296875 L28.628125,4.296875 L28.628125,16.2208984 Z" id="Shape" fill="#C384F8"></path>
            <path d="M58.9216797,44.0380859 L18.3693359,44.0380859 C17.1828125,44.0380859 16.2208984,43.0761719 16.2208984,41.8896484 C16.2208984,40.703125 17.1828125,39.7412109 18.3693359,39.7412109 L58.9216797,39.7412109 C60.1082031,39.7412109 61.0701172,40.703125 61.0701172,41.8896484 C61.0701172,43.0761719 60.1082031,44.0380859 58.9216797,44.0380859 Z" id="Path" fill="#C384F8"></path>
            <path d="M58.9216797,60.2587891 L18.3693359,60.2587891 C17.1828125,60.2587891 16.2208984,59.296875 16.2208984,58.1103516 C16.2208984,56.9238281 17.1828125,55.9619141 18.3693359,55.9619141 L58.9216797,55.9619141 C60.1082031,55.9619141 61.0701172,56.9238281 61.0701172,58.1103516 C61.0701172,59.296875 60.1082031,60.2587891 58.9216797,60.2587891 Z" id="Path" fill="#293D56"></path>
            <path d="M34.5902344,76.4796875 L18.3693359,76.4796875 C17.1828125,76.4796875 16.2208984,75.5177734 16.2208984,74.33125 C16.2208984,73.1447266 17.1828125,72.1828125 18.3693359,72.1828125 L34.5902344,72.1828125 C35.7767578,72.1828125 36.7386719,73.1447266 36.7386719,74.33125 C36.7386719,75.5177734 35.7767578,76.4796875 34.5902344,76.4796875 L34.5902344,76.4796875 Z" id="Path" fill="#C384F8"></path>
        </g>
    </g>
</svg>