<?xml version="1.0" encoding="UTF-8"?>
<svg width="100px" height="100px" viewBox="0 0 100 100" version="1.1" xmlns="http://www.w3.org/2000/svg" xmlns:xlink="http://www.w3.org/1999/xlink">
    <title>icon-briefcase</title>
    <g id="Page-1" stroke="none" stroke-width="1" fill="none" fill-rule="evenodd">
        <g id="icon-briefcase" fill-rule="nonzero">
            <path d="M60.9203125,52.4183594 L38.2853516,52.4183594 C37.0988281,52.4183594 36.1369141,53.3802734 36.1369141,54.5667969 L36.1369141,58.1033203 L36.1369141,62.5595703 L36.1369141,72.4367187 C36.1369141,73.6232422 37.0988281,74.5851562 38.2853516,74.5851562 L60.9205078,74.5851562 C62.1070312,74.5851562 63.0689453,73.6232422 63.0689453,72.4367187 L63.0689453,62.5703125 L63.0689453,58.1208984 L63.0689453,54.5667969 C63.0689453,53.3802734 62.1068359,52.4183594 60.9203125,52.4183594 L60.9203125,52.4183594 Z M58.771875,70.2880859 L40.4335937,70.2880859 L40.4335937,56.7150391 L58.771875,56.7150391 L58.771875,70.2880859 Z" id="Shape" fill="#C384F8"></path>
            <path d="M97.8515625,20.0541016 L79.5490234,20.0541016 L79.5490234,10.1148437 C79.5490234,4.5375 75.0115234,0 69.4341797,0 L31.9556641,0 C26.3783203,0 21.8408203,4.5375 21.8408203,10.1148437 L21.8408203,20.0541016 L2.1484375,20.0541016 C0.961914062,20.0541016 0,21.0160156 0,22.2025391 L0,50.9927734 C0,51.9601563 0.646484375,52.8082031 1.57910156,53.0644531 L4.96367188,53.9943359 L4.96367188,97.8515625 C4.96367188,99.0380859 5.92558594,100 7.11210938,100 L92.0933594,100 C93.2798828,100 94.2417969,99.0380859 94.2417969,97.8515625 L94.2417969,54.1880859 L98.409375,53.0673828 C99.3478516,52.8150391 100,51.9644531 100,50.9925781 L100,22.2025391 C100,21.0160156 99.0380859,20.0541016 97.8515625,20.0541016 L97.8515625,20.0541016 Z M26.1376953,10.1148437 C26.1376953,6.90683594 28.7476562,4.296875 31.9556641,4.296875 L69.4341797,4.296875 C72.6421875,4.296875 75.2521484,6.90683594 75.2521484,10.1148437 L75.2521484,20.0541016 L26.1376953,20.0541016 L26.1376953,10.1148437 Z M95.703125,49.3457031 L63.06875,58.1208984 L63.06875,62.5703125 L89.9449219,55.3435547 L89.9449219,95.703125 L9.26074219,95.703125 L9.26074219,55.175 L36.1369141,62.559375 L36.1369141,58.103125 L4.296875,49.3550781 L4.296875,24.3509766 L95.703125,24.3509766 L95.703125,49.3457031 Z" id="Shape" fill="#293D56"></path>
        </g>
    </g>
</svg>