<?xml version="1.0" encoding="UTF-8"?>
<svg width="100px" height="100px" viewBox="0 0 100 100" version="1.1" xmlns="http://www.w3.org/2000/svg" xmlns:xlink="http://www.w3.org/1999/xlink">
    <title>icon-skill</title>
    <g id="Page-1" stroke="none" stroke-width="1" fill="none" fill-rule="evenodd">
        <g id="icon-skill" transform="translate(0.000000, 0.000000)" fill-rule="nonzero">
            <g id="Group" transform="translate(-0.000000, 0.000000)">
                <path d="M49.4788656,31.5176467 L44.1239399,26.1629163 C45.4026699,18.9982793 43.1014247,11.6588617 37.9605321,6.51816437 C32.5505359,1.1081682 24.8574561,-1.12589872 17.3803622,0.542035334 C15.9186497,0.867966952 14.7502561,1.96664357 14.3307827,3.40882751 C13.9085753,4.86097101 14.3094966,6.42638015 15.3771228,7.49420165 L22.8987419,15.0156254 L15.0156492,22.898718 L7.49422547,15.377099 C6.42659926,14.3092775 4.86119013,13.9085515 3.40885134,14.3305636 C1.96647211,14.7498417 0.86799078,15.9184306 0.542059162,17.3801431 C-1.1258749,24.8568464 1.10799675,32.5503168 6.51799291,37.9601177 C11.6590808,43.100815 18.9979126,45.4022555 26.1627449,44.1235255 L31.9699519,49.9307326 L35.0080095,46.8926749 L29.1392875,41.0241483 C28.1816071,40.0664678 26.8064061,39.64055 25.4599121,39.8848522 C19.6611024,40.9372462 13.7160238,39.0822285 9.55624581,34.9222553 C5.26660297,30.6328078 3.45220474,24.5629417 4.66883384,18.627432 L12.0937865,26.0523847 C12.8743429,26.8329411 13.9120905,27.2627647 15.0158445,27.2627647 C16.1195986,27.2627647 17.1573461,26.8329411 17.9379025,26.0523847 L26.0527991,17.9376834 C27.6639051,16.3263821 27.6639051,13.7046734 26.0527991,12.0933721 L18.6274559,4.66841944 C24.5629655,3.45198562 30.6328316,5.26638386 34.9222791,9.5560267 C39.0822524,13.7158046 40.9374653,19.6612738 39.8848761,25.459693 C39.6405738,26.8059917 40.0664916,28.181388 41.0241721,29.1390684 L46.4406127,34.555509 L49.4788656,31.5176467 Z" id="Path" fill="#C384F8"></path>
                <g transform="translate(50.825360, 50.556818)" id="Path">
                    <path d="M42.656813,11.4827915 C37.5159204,6.34209419 30.1768934,4.04065374 23.0120611,5.31938366 L17.6926774,0 L14.6546198,3.03805762 L20.0355184,8.41895623 C20.9931988,9.37663667 22.3685951,9.8025545 23.7148938,9.55825225 C29.5135083,8.50566303 35.4587822,10.3608759 39.6185601,14.5208492 C43.9080077,18.8102967 45.7226012,24.8803581 44.5061674,30.8156725 L36.5920244,22.9015294 C35.8114679,22.120973 34.7737204,21.6911495 33.6699664,21.6911495 C32.5662123,21.6911495 31.5284648,22.120973 30.7479084,22.9015294 L22.6330118,31.0162307 C21.0219058,32.627532 21.0219058,35.2492408 22.6330118,36.860542 L30.5473501,44.7746851 C24.612231,45.9911189 18.5419744,44.1767206 14.2525268,39.8870778 C10.0925536,35.7272999 8.23734065,29.7818307 9.28992988,23.9832162 C9.53423213,22.6369175 9.1083143,21.2613259 8.15063386,20.3038408 L3.03805762,15.1912645 L-1.11006995e-14,18.2293222 L5.05125657,23.2803834 C3.77252665,30.4450205 6.07377182,37.7844381 11.2146645,42.9251354 C15.4445499,47.1550209 21.0699461,49.4431819 26.8964863,49.4431819 C28.5220434,49.4431819 30.1636139,49.2648862 31.794639,48.9010692 C33.2563515,48.5751375 34.4249404,47.4764609 34.8442185,46.0340817 C35.2664259,44.5819382 34.8653093,43.0165291 33.7976831,41.9489028 L25.7868737,33.9382887 L33.6699664,26.0551961 L41.6805805,34.0658102 C42.748402,35.1334364 44.3140064,35.5343577 45.7657593,35.1123456 C47.2081385,34.6930675 48.3066199,33.5244786 48.6327468,32.0627661 C50.3006808,24.586258 48.0666139,16.8927877 42.656813,11.4827915 L42.656813,11.4827915 Z" fill="#C384F8"></path>
                    <path d="M5.11277152,23.3418984 L5.11472438,23.3418984 L5.11277152,23.3418984 Z" fill="#33CCCC"></path>
                </g>
            </g>
            <path d="M97.9303874,13.2463381 L86.7536083,2.06975435 C85.423323,0.739469046 83.6546216,0.00675758549 81.7734357,0.00675758549 C79.8922498,0.00675758549 78.1233531,0.739273761 76.7930678,2.06955907 L13.9513429,64.911284 C13.1768403,65.6857865 12.7503366,66.7157226 12.7503366,67.8112747 C12.7503366,68.1008832 12.7821682,68.3854143 12.8403633,68.6623292 L0.442854092,93.9537634 C-0.357426176,95.5863508 -0.0437975494,97.4722236 1.24196265,98.7579838 C2.05493648,99.5707623 3.10733042,99.9951179 4.18433034,99.9951179 C4.81080645,99.9951179 5.44567984,99.8513877 6.04637825,99.5570923 L31.3426946,87.157435 C31.6215624,87.2158254 31.9051171,87.247657 32.188867,87.247657 C33.2391128,87.247657 34.2891633,86.8479074 35.0888577,86.0484083 L97.9303874,23.2068787 C100.676493,20.4609682 100.676493,15.9926391 97.9303874,13.2463381 Z M19.0865722,88.3803133 L11.6196332,80.9133742 L15.7426974,72.5022294 L27.4979123,84.2574443 L19.0865722,88.3803133 Z M4.44054501,95.5594014 L9.62108062,84.9907416 L15.0092048,90.3788658 L4.44054501,95.5594014 Z M32.188867,82.872479 L26.177196,76.860808 L52.528445,50.5093637 C53.3671966,49.6704169 53.3671966,48.3102529 52.528445,47.4713061 C51.6894982,46.6323593 50.3293342,46.6323593 49.4903874,47.4713061 L23.1393337,73.8229457 L17.1276627,67.8112747 L69.8301607,15.1085813 L75.842027,21.1202523 L68.3112296,28.6510498 C67.4724781,29.4899966 67.4724781,30.8501606 68.3112296,31.6891074 C68.730703,32.1085813 69.2804319,32.3183175 69.8301607,32.3183175 C70.3798896,32.3183175 70.9296185,32.1085813 71.3490919,31.6891074 L78.8798894,24.15831 L84.8917557,30.169981 L32.188867,82.872479 Z M94.8923297,20.1690163 L87.9294227,27.1319233 L72.8680231,12.0705237 L79.8309301,5.10761669 C80.3498039,4.58874293 81.0395525,4.30304014 81.7732404,4.30304014 C82.5069283,4.30304014 83.1966769,4.58874293 83.7155507,5.10761669 L94.8923297,16.2842005 C95.9634711,17.3553418 95.9634711,19.0980703 94.8923297,20.1690163 Z" id="Shape" fill="#293D56"></path>
        </g>
    </g>
</svg>