<?xml version="1.0" encoding="UTF-8"?>
<svg width="48px" height="48px" viewBox="0 0 48 48" version="1.1" xmlns="http://www.w3.org/2000/svg" xmlns:xlink="http://www.w3.org/1999/xlink">
    <title>programme-icon-career</title>
    <g id="Page-1" stroke="none" stroke-width="1" fill="none" fill-rule="evenodd">
        <g id="programme-icon-career" fill-rule="nonzero">
            <g id="Group" transform="translate(-0.000000, 0.000000)" fill="#C384F8">
                <path d="M41.0837317,4.62675 C41.4409192,4.62675 41.7726067,4.81153125 41.9605755,5.11509375 L43.8071692,8.09746875 L47.2142317,8.932125 C47.5611067,9.0170625 47.839263,9.2754375 47.9497005,9.61509375 C48.0600442,9.95475 47.9868255,10.3273125 47.7562005,10.5998438 L45.4903567,13.2777188 L45.7494817,16.7759063 C45.7758255,17.1320625 45.6160755,17.4765 45.3272317,17.6863125 C45.1479817,17.8164375 44.935263,17.883375 44.720763,17.883375 C44.5889505,17.883375 44.4564817,17.8580625 44.3306692,17.8066875 L41.083638,16.4792813 L37.8366067,17.8066875 C37.5060442,17.9417813 37.1291692,17.8963125 36.8402317,17.6864063 C36.551388,17.4765 36.391638,17.1320625 36.4179817,16.776 L36.677013,13.2777188 L34.411263,10.5998438 C34.180638,10.3272188 34.1074192,9.95465625 34.217763,9.61509375 C34.3282005,9.2754375 34.6063567,9.01715625 34.9532317,8.932125 L38.3602005,8.09746875 L40.206888,5.11509375 C40.3949505,4.81153125 40.726638,4.62675 41.0837317,4.62675 Z M6.91635671,4.62665625 C7.27345046,4.62665625 7.60513796,4.8114375 7.79320046,5.115 L9.63988796,8.097375 L13.0468567,8.93203125 C13.3937317,9.01696875 13.671888,9.27534375 13.7823255,9.615 C13.8926692,9.95465625 13.8194505,10.3272188 13.5888255,10.59975 L11.3230755,13.277625 L11.5821067,16.7759063 C11.6084505,17.1319688 11.4487005,17.4764063 11.1598567,17.6863125 C10.8708255,17.8962188 10.4938567,17.9415938 10.1634817,17.8065938 L6.91645046,16.4791875 L3.66932546,17.8066875 C3.54351296,17.8580625 3.41104421,17.883375 3.27923171,17.883375 C3.06463796,17.883375 2.85191921,17.8164375 2.67295046,17.6864063 C2.38410671,17.4765 2.22435671,17.1320625 2.25070046,16.776 L2.50982546,13.2778125 L0.243981708,10.59975 C0.0133567082,10.327125 -0.0598620418,9.95465625 0.0504817082,9.615 C0.160919208,9.27534375 0.439075458,9.0170625 0.785950458,8.93203125 L4.19301296,8.097375 L6.03951296,5.115 C6.22748171,4.81134375 6.55916921,4.62665625 6.91635671,4.62665625 Z M41.0837317,7.6168125 L39.891888,9.5416875 C39.7495755,9.771375 39.522888,9.9361875 39.2604817,10.0004063 L37.0614817,10.539 L38.5237942,12.2672813 C38.698263,12.4735313 38.784888,12.7400625 38.7649192,13.0095 L38.597763,15.2672813 L40.6934505,14.4105938 C40.9435755,14.3083125 41.2237005,14.3083125 41.4738255,14.4105938 L43.5694192,15.2672813 L43.402263,13.0095938 C43.3822942,12.7400625 43.4689192,12.473625 43.643388,12.267375 L45.1057005,10.5390938 L42.906888,10.0004063 C42.644388,9.93609375 42.4177005,9.771375 42.2754817,9.54159375 L41.0837317,7.6168125 Z M6.91635671,7.6168125 L5.72460671,9.54159375 C5.58229421,9.771375 5.35560671,9.93609375 5.09320046,10.0004063 L2.89438796,10.5390938 L4.35670046,12.267375 C4.53116921,12.473625 4.61779421,12.7401563 4.59782546,13.0095938 L4.43066921,15.2672813 L6.52626296,14.4105938 C6.65113796,14.3595 6.78379421,14.3339063 6.91635671,14.3339063 C7.04891921,14.3339063 7.18148171,14.3594063 7.30654421,14.4105938 L9.40223171,15.2672813 L9.23507546,13.0095 C9.21510671,12.7400625 9.30173171,12.4735313 9.47620046,12.2672813 L10.938513,10.539 L8.73970046,10.0003125 C8.47720046,9.936 8.25051296,9.77128125 8.10829421,9.54159375 L6.91635671,7.6168125 Z M23.9999505,1.17239551e-13 C24.357138,1.17239551e-13 24.6887317,0.18478125 24.8767942,0.48834375 L27.0501067,3.99825 L31.0597942,4.9805625 C31.4066692,5.0655 31.6848255,5.323875 31.795263,5.66353125 C31.9056067,6.0031875 31.832388,6.37575 31.601763,6.64828125 L28.9352317,9.79978125 L29.2401067,13.9167188 C29.2664505,14.272875 29.1067005,14.6173125 28.8178567,14.8272188 C28.6387005,14.95725 28.425888,15.0241722 28.211388,15.0241722 C28.0795755,15.0241722 27.9471067,14.9987813 27.8212942,14.9474063 L23.9999505,13.3853438 L20.1786067,14.9475 C19.8480442,15.0825938 19.4711692,15.037125 19.1822317,14.8272188 C18.893388,14.6173125 18.733638,14.272875 18.7599817,13.9167188 L19.0648567,9.79978125 L16.3983255,6.64828125 C16.1677005,6.37565625 16.0944817,6.0031875 16.2048255,5.66353125 C16.315263,5.323875 16.5934192,5.06559375 16.9402942,4.9805625 L20.9499817,3.99825 L23.1232942,0.48834375 C23.3111692,0.18478125 23.6428567,1.17239551e-13 23.9999505,1.17239551e-13 Z M23.9999505,2.99015625 L22.4815755,5.44246875 C22.339263,5.67215625 22.1125755,5.83696875 21.8501692,5.9011875 L19.0487317,6.5874375 L20.9117317,8.78934375 C21.0862005,8.99559375 21.1728255,9.262125 21.1528567,9.5315625 L20.9399505,12.4080938 L23.6098567,11.3165625 C23.7348255,11.2654688 23.867388,11.2399688 23.9999505,11.2399688 C24.132513,11.2399688 24.2650755,11.2654688 24.390138,11.3166563 L27.0600442,12.4080938 L26.847138,9.53165625 C26.8271692,9.262125 26.9137942,8.9956875 27.088263,8.7894375 L28.951263,6.58753125 L26.1498255,5.90128125 C25.8873255,5.83696875 25.660638,5.67225 25.5184192,5.4425625 L23.9999505,2.99015625 Z" id="Combined-Shape"></path>
            </g>
            <path d="M41.8218255,21.5390625 L6.17807546,21.5390625 C5.60807546,21.5390625 5.14682546,22.00125 5.14682546,22.5703125 L5.14682546,28.666875 C5.14682546,30.388125 5.71401296,31.9790625 6.67120046,33.2634375 L6.67120046,46.96875 C6.67120046,47.53875 7.13338796,48 7.70245046,48 L40.2974505,48 C40.866513,48 41.3287005,47.53875 41.3287005,46.96875 L41.3287005,33.2634375 C42.285888,31.9790625 42.8530755,30.388125 42.8530755,28.666875 L42.8530755,22.5703125 C42.8530755,22.00125 42.3918255,21.5390625 41.8218255,21.5390625 Z M7.20932546,23.6015625 L40.7905755,23.6015625 L40.7905755,28.666875 C40.7905755,31.7784375 38.2593255,34.310625 35.147763,34.310625 L27.8905755,34.310625 L27.8905755,32.4825 C27.8905755,31.9125 27.428388,31.45125 26.8593255,31.45125 L21.1405755,31.45125 C20.571513,31.45125 20.1093255,31.9125 20.1093255,32.4825 L20.1093255,34.310625 L12.852138,34.310625 C9.74057546,34.310625 7.20932546,31.7784375 7.20932546,28.666875 L7.20932546,23.6015625 Z M23.9530755,41.1384375 L24.0468255,41.1384375 C26.166513,41.1384375 27.8905755,39.4134375 27.8905755,37.2946875 L27.8905755,36.373125 L35.147763,36.373125 C36.660888,36.373125 38.074638,35.934375 39.2662005,35.176875 L39.2662005,39.624375 C35.9999505,40.08 33.4087005,42.67125 32.9530755,45.9375 L15.0468255,45.9375 C14.5912005,42.67125 11.9999505,40.08 8.73370046,39.624375 L8.73370046,35.176875 C9.92526296,35.934375 11.339013,36.373125 12.852138,36.373125 L20.1093255,36.373125 L20.1093255,37.2946875 C20.1093255,39.4134375 21.833388,41.1384375 23.9530755,41.1384375 L23.9530755,41.1384375 Z M22.1718255,37.2946875 L22.1718255,33.51375 L25.8280755,33.51375 L25.8280755,37.2946875 C25.8280755,38.27625 25.028388,39.0759375 24.0468255,39.0759375 L23.9530755,39.0759375 C22.971513,39.0759375 22.1718255,38.27625 22.1718255,37.2946875 L22.1718255,37.2946875 Z M8.73370046,45.9375 L8.73370046,41.715 C10.860888,42.13125 12.5399505,43.8103125 12.9562005,45.9375 L8.73370046,45.9375 Z M39.2662005,45.9375 L35.0437005,45.9375 C35.4599505,43.8103125 37.139013,42.13125 39.2662005,41.715 L39.2662005,45.9375 Z" id="Shape" fill="#293D56"></path>
        </g>
    </g>
</svg>