<?xml version="1.0" encoding="UTF-8"?>
<svg width="39px" height="48px" viewBox="0 0 39 48" version="1.1" xmlns="http://www.w3.org/2000/svg" xmlns:xlink="http://www.w3.org/1999/xlink">
    <title>programme-icon-resume</title>
    <g id="Page-1" stroke="none" stroke-width="1" fill="none" fill-rule="evenodd">
        <g id="programme-icon-resume" fill-rule="nonzero">
            <path d="M30.2101591,11.8955465 C29.9391591,11.3965475 29.3148028,11.2119235 28.8157103,11.48283 C28.3167113,11.7539235 28.1319938,12.3782798 28.4030873,12.8772788 C29.1880432,14.3222071 29.6030032,15.9611075 29.6030032,17.6170213 C29.6030032,23.0998403 25.1423935,27.56045 19.6595745,27.56045 C14.1767554,27.56045 9.71614576,23.0998403 9.71614576,17.6170213 C9.71614576,12.1342022 14.1767554,7.67359257 19.6595745,7.67359257 C21.9609712,7.67359257 24.2046905,8.4778989 25.977268,9.93825148 C26.4155981,10.2992732 27.063605,10.2367348 27.4247203,9.79840463 C27.7858355,9.36016799 27.7232035,8.71206759 27.2848734,8.35095237 C25.145011,6.58790989 22.4368805,5.61702128 19.6595745,5.61702128 C13.0427433,5.61702128 7.65957447,11.0001901 7.65957447,17.6170213 C7.65957447,24.2338524 13.0427433,29.6170213 19.6595745,29.6170213 C26.2764056,29.6170213 31.6595745,24.2338524 31.6595745,17.6170213 C31.6595745,15.6192492 31.1584254,13.6408276 30.2101591,11.8955465 L30.2101591,11.8955465 Z" id="Path" fill="#C384F8"></path>
            <g id="Group" transform="translate(-0.000000, 0.000000)" fill="#293D56">
                <path d="M25.8033642,0 C26.5078826,0 27.1702053,0.27309375 27.6682659,0.7689375 L27.6682659,0.7689375 L38.0361776,11.0886562 C38.5342382,11.5845 38.8085106,12.24375 38.8085106,12.9448125 L38.8085106,12.9448125 L38.8085106,45.4306875 C38.8085106,46.8474375 37.6505762,48 36.2272229,48 L36.2272229,48 L2.5812877,48 C1.15793443,48 -9.33532211e-14,46.8474375 -9.33532211e-14,45.4306875 L-9.33532211e-14,45.4306875 L-9.33532211e-14,2.5693125 C-9.33532211e-14,1.1525625 1.15802862,0 2.58138189,0 L2.58138189,0 Z M25.4305722,2.0625 L2.58138189,2.0625 C2.30061058,2.0625 2.07220721,2.28984375 2.07220721,2.5693125 L2.07220721,2.5693125 L2.07220721,45.4306875 C2.07220721,45.7101562 2.30061058,45.9375 2.58138189,45.9375 L2.58138189,45.9375 L36.2272229,45.9375 C36.5079942,45.9375 36.7364918,45.7101563 36.7364918,45.4306875 L36.7364918,45.4306875 L36.7364918,13.3159687 L27.8730283,13.3159687 C26.526249,13.3159687 25.4305722,12.225375 25.4305722,10.8848438 L25.4305722,10.8848438 L25.4305722,2.0625 Z M8.50037274,39.28125 C9.0725585,39.28125 9.53642925,39.7429688 9.53642925,40.3125 C9.53642925,40.8820312 9.0725585,41.34375 8.50037274,41.34375 L8.50037274,41.34375 L6.53177118,41.34375 C5.95958543,41.34375 5.49571467,40.8820312 5.49571467,40.3125 C5.49571467,39.7429688 5.95958543,39.28125 6.53177118,39.28125 L6.53177118,39.28125 Z M32.2768336,39.28125 C32.8490194,39.28125 33.3128901,39.7429688 33.3128901,40.3125 C33.3128901,40.8820312 32.8490194,41.34375 32.2768336,41.34375 L32.2768336,41.34375 L13.4048759,41.34375 C12.8326901,41.34375 12.3688194,40.8820312 12.3688194,40.3125 C12.3688194,39.7429688 12.8326901,39.28125 13.4048759,39.28125 L13.4048759,39.28125 Z M8.50037274,33.09375 C9.0725585,33.09375 9.53642925,33.5554687 9.53642925,34.125 C9.53642925,34.6945313 9.0725585,35.15625 8.50037274,35.15625 L8.50037274,35.15625 L6.53177118,35.15625 C5.95958543,35.15625 5.49571467,34.6945313 5.49571467,34.125 C5.49571467,33.5554687 5.95958543,33.09375 6.53177118,33.09375 L6.53177118,33.09375 Z M32.2768336,33.09375 C32.8490194,33.09375 33.3128901,33.5554687 33.3128901,34.125 C33.3128901,34.6945313 32.8490194,35.15625 32.2768336,35.15625 L32.2768336,35.15625 L13.4048759,35.15625 C12.8326901,35.15625 12.3688194,34.6945313 12.3688194,34.125 C12.3688194,33.5554687 12.8326901,33.09375 13.4048759,33.09375 L13.4048759,33.09375 Z M19.4043024,10.1334375 C21.7931662,10.1334375 23.7365256,12.067875 23.7365256,14.4454687 C23.7365256,15.6692812 23.220852,16.7746875 22.3953975,17.5603125 C23.9616324,18.5495625 25.0041878,20.2898437 25.0041878,22.2689062 C25.0604175,22.8796875 24.5940978,23.4301875 23.9681313,23.4264565 L23.9681313,23.4264565 L14.8404735,23.4264565 C14.214507,23.4301875 13.7480932,22.8796875 13.804417,22.2689062 C13.804417,20.2898437 14.8469724,18.5495625 16.4132073,17.5603125 C15.5877528,16.7746875 15.0720792,15.6691875 15.0720792,14.4454687 C15.0720792,12.067875 17.0154386,10.1334375 19.4043024,10.1334375 Z M19.4043024,18.7575 C17.7733611,18.7575 16.3972897,19.8649687 15.9952055,21.3639375 L15.9952055,21.3639375 L22.8133051,21.3639375 C22.4113151,19.864875 21.0352437,18.7575 19.4043024,18.7575 Z M19.4043024,12.1959375 C18.1580206,12.1959375 17.1441922,13.2050625 17.1441922,14.4454687 C17.1441922,15.685875 18.1581148,16.695 19.4043024,16.695 C20.65049,16.695 21.6644126,15.685875 21.6644126,14.4454687 C21.6644126,13.2050625 20.6505842,12.1959375 19.4043024,12.1959375 Z M27.5026852,3.52096875 L27.5026852,10.8848438 C27.5026852,11.0880938 27.668831,11.2534688 27.8730283,11.2534688 L27.8730283,11.2534688 L35.2713195,11.2534688 L27.5026852,3.52096875 Z" id="Combined-Shape"></path>
            </g>
        </g>
    </g>
</svg>