<?xml version="1.0" encoding="UTF-8"?>
<svg width="48px" height="48px" viewBox="0 0 48 48" version="1.1" xmlns="http://www.w3.org/2000/svg" xmlns:xlink="http://www.w3.org/1999/xlink">
    <title>programme-icon-part-time</title>
    <g id="Page-1" stroke="none" stroke-width="1" fill="none" fill-rule="evenodd">
        <g id="programme-icon-part-time" fill-rule="nonzero">
            <g id="Group" fill="#293D56">
                <path d="M43.21875,6.1805625 L34.4616563,6.1805625 L34.4616563,1.03125 C34.4616563,0.46171875 33.9999375,0 33.4304063,0 L14.5680937,0 C13.9985625,0 13.5368437,0.46171875 13.5368437,1.03125 L13.5368437,6.1805625 L4.78125,6.1805625 C2.1448125,6.1805625 0,8.32546875 0,10.9618125 L0,17.706 C0,18.2755313 0.46171875,18.73725 1.03125,18.73725 L2.06259375,18.73725 L2.06259375,37.3842188 C2.06259375,37.95375 2.5243125,38.4154688 3.09384375,38.4154688 L13.434375,38.4154688 C13.9546875,43.786875 18.4943438,48 24,48 C29.5055625,48 34.0452188,43.786875 34.5655312,38.4155625 L44.9061563,38.4155625 C45.4756875,38.4155625 45.9374063,37.9538438 45.9374063,37.3843125 L45.9374063,18.73725 L46.96875,18.73725 C47.5382812,18.73725 48,18.2755313 48,17.706 L48,10.9618125 C48,8.32546875 45.8550937,6.1805625 43.21875,6.1805625 Z M15.5993437,2.0625 L32.3991563,2.0625 L32.3991563,6.1805625 L15.5993437,6.1805625 L15.5993437,2.0625 Z M17.2693125,32.112 L17.9796562,32.8223438 C18.1810312,33.023625 18.4449375,33.1244062 18.7088437,33.1244062 C18.97275,33.1244062 19.2366562,33.0237188 19.4380312,32.8223438 C19.8407812,32.4195938 19.8406875,31.766625 19.4380312,31.363875 L18.7276875,30.653625 C19.9261875,29.71275 21.3811875,29.085 22.9686562,28.893375 L22.9686562,29.9015625 C22.9686562,30.4710938 23.430375,30.9328125 23.9999062,30.9328125 C24.5694375,30.9328125 25.0311562,30.4710938 25.0311562,29.9015625 L25.0311562,28.893375 C26.618625,29.085 28.073625,29.71275 29.272125,30.653625 L28.5617812,31.3639687 C28.1590312,31.7667187 28.1590312,32.4196875 28.5617812,32.8224375 C28.7631562,33.0237188 29.0270625,33.1245 29.2909687,33.1245 C29.554875,33.1245 29.8187812,33.0238125 30.0201562,32.8224375 L30.7305,32.1120937 C31.671375,33.3105938 32.299125,34.7656875 32.49075,36.3531563 L31.4826562,36.3531563 C30.913125,36.3531563 30.4514062,36.814875 30.4514062,37.3844062 C30.4514062,37.9539375 30.913125,38.4156562 31.4826562,38.4156562 L32.49075,38.4156562 C32.299125,40.003125 31.671375,41.458125 30.7305,42.656625 L30.0201562,41.9462813 C29.6173125,41.543625 28.9645312,41.543625 28.5616875,41.9462813 C28.1589375,42.3490313 28.1589375,43.002 28.5616875,43.40475 L29.2720312,44.1150937 C28.0735312,45.055875 26.6185312,45.6837187 25.0310625,45.8753438 L25.0310625,44.8671563 C25.0310625,44.297625 24.5693437,43.8359063 23.9998125,43.8359063 C23.4302812,43.8359063 22.9685625,44.297625 22.9685625,44.8671563 L22.9685625,45.8753438 C21.3810937,45.6837188 19.926,45.0559688 18.7275937,44.1150937 L19.4379375,43.4048438 C19.8406875,43.0020938 19.8406875,42.349125 19.4379375,41.946375 C19.0351875,41.5437187 18.3822187,41.543625 17.9795625,41.946375 L17.2692187,42.6567188 C16.3283437,41.4582188 15.7005937,40.0032188 15.5089687,38.41575 L16.5170625,38.41575 C17.0865937,38.41575 17.5483125,37.9540312 17.5483125,37.3845 C17.5483125,36.8149687 17.0865937,36.35325 16.5170625,36.35325 L15.5089687,36.35325 C15.7006875,34.7655 16.3285312,33.3104062 17.2693125,32.112 L17.2693125,32.112 Z M45.9375,16.67475 L39.7011562,16.67475 L39.7011562,18.73725 L43.8749062,18.73725 L43.8749062,36.3529688 L34.5655312,36.3529688 C34.0452187,30.9815625 29.5056562,26.7684375 24,26.7684375 C18.4943437,26.7684375 13.9546875,30.9815625 13.4344687,36.3529688 L4.12509375,36.3529688 L4.12509375,18.73725 L8.29875,18.73725 L8.29875,16.67475 L2.0625,16.67475 L2.0625,10.9618125 C2.0625,9.46275 3.28209375,8.2430625 4.78125,8.2430625 L43.21875,8.2430625 C44.7178125,8.2430625 45.9375,9.46275 45.9375,10.9618125 L45.9375,16.67475 Z" id="Shape"></path>
                <polygon id="Path" points="14.0145937 16.67475 33.9853125 16.67475 33.9853125 18.73725 14.0145937 18.73725"></polygon>
                <path d="M22.2182813,40.1972813 C22.4821875,40.1972813 22.7460938,40.0965937 22.9474687,39.8952187 L24.7291875,38.1135 C24.9225,37.9201875 25.03125,37.6577813 25.03125,37.3843125 L25.03125,33.8458125 C25.03125,33.2762813 24.5695312,32.8145625 24,32.8145625 C23.4304688,32.8145625 22.96875,33.2762813 22.96875,33.8458125 L22.96875,36.9571875 L21.4890938,38.4368438 C21.0863438,38.8395937 21.0863438,39.4925625 21.4890938,39.8953125 C21.690375,40.0965 21.9542813,40.1972813 22.2182813,40.1972813 L22.2182813,40.1972813 Z" id="Path"></path>
            </g>
            <g id="Group" transform="translate(7.267594, 14.400094)" fill="#C384F8">
                <path d="M6.747,0 L1.03125,0 C0.46171875,0 -1.33226763e-15,0.46171875 -1.33226763e-15,1.03125 L-1.33226763e-15,7.77975 C-1.33226763e-15,8.34928125 0.46171875,8.811 1.03125,8.811 L6.74709375,8.811 C7.316625,8.811 7.77834375,8.34928125 7.77834375,7.77975 L7.77834375,1.03125 C7.77825,0.461625 7.31653125,0 6.747,0 Z M5.71575,6.7485 L2.0625,6.7485 L2.0625,2.0625 L5.71584375,2.0625 L5.71584375,6.7485 L5.71575,6.7485 Z" id="Shape"></path>
                <path d="M32.4335625,0 L26.7177187,0 C26.1481875,0 25.6864687,0.46171875 25.6864687,1.03125 L25.6864687,7.77975 C25.6864687,8.34928125 26.1481875,8.811 26.7177187,8.811 L32.4335625,8.811 C33.0030937,8.811 33.4648125,8.34928125 33.4648125,7.77975 L33.4648125,1.03125 C33.4648125,0.461625 33.0031875,0 32.4335625,0 Z M31.4023125,6.7485 L27.7489687,6.7485 L27.7489687,2.0625 L31.4023125,2.0625 L31.4023125,6.7485 Z" id="Shape"></path>
            </g>
        </g>
    </g>
</svg>