<?xml version="1.0" encoding="UTF-8"?>
<svg width="48px" height="48px" viewBox="0 0 48 48" version="1.1" xmlns="http://www.w3.org/2000/svg" xmlns:xlink="http://www.w3.org/1999/xlink">
    <title>programme-icon-skill</title>
    <g id="Page-1" stroke="none" stroke-width="1" fill="none" fill-rule="evenodd">
        <g id="programme-icon-skill" fill-rule="nonzero">
            <g id="Group">
                <path d="M23.7498555,15.1284704 L21.1794912,12.5581998 C21.7932815,9.11917408 20.6886839,5.59625363 18.2210554,3.1287189 C15.6242572,0.531920738 11.9315789,-0.540431387 8.34257386,0.260176961 C7.64095186,0.416624137 7.08012294,0.943988914 6.87877571,1.63623721 C6.67611616,2.33326609 6.86855837,3.08466247 7.38101895,3.59721679 L10.9913961,7.20750019 L7.20751163,10.9913847 L3.59722823,7.38100751 C3.08476765,6.86845319 2.33337126,6.67610472 1.63624864,6.87867054 C0.943906615,7.07992403 0.416635574,7.64084668 0.260188398,8.34246868 C-0.54041995,11.9312863 0.531838438,15.6241521 3.1286366,18.2208565 C5.5963588,20.6883912 9.11899804,21.7930826 12.5581175,21.1792923 L15.3455769,23.9667516 L16.8038446,22.508484 L13.986858,19.6915912 C13.5271714,19.2319046 12.8670749,19.027464 12.2207578,19.1447291 C9.43732914,19.6498782 6.5836914,18.7594697 4.58699799,16.7626826 C2.52796943,14.7037477 1.65705827,11.790212 2.24104024,8.94116737 L5.80501753,12.5051447 C6.17968461,12.8798117 6.67780342,13.086127 7.20760537,13.086127 C7.73740731,13.086127 8.23552612,12.8798117 8.6101932,12.5051447 L12.5053436,8.61008803 C13.2786744,7.83666343 13.2786744,6.57824321 12.5053436,5.80481862 L8.94117881,2.24084133 C11.7902234,1.6569531 14.7037592,2.52786425 16.762694,4.58689282 C18.7594811,6.58358623 19.6499833,9.43741144 19.1447405,12.2206526 C19.0274754,12.866876 19.231916,13.5270662 19.6916026,13.9867528 L22.2914941,16.5866443 L23.7498555,15.1284704 Z" id="Path" fill="#C384F8"></path>
                <g transform="translate(24.396173, 24.267273)" id="Path">
                    <path d="M20.4752703,5.51173994 C18.0076418,3.04420521 14.4849088,1.9395138 11.0457893,2.55330416 L8.49248516,0 L7.0342175,1.45826766 L9.61704883,4.04109899 C10.0767354,4.5007856 10.7369257,4.70522616 11.383149,4.58796108 C14.166484,4.08271825 17.0202155,4.97322045 19.0169089,6.9700076 C21.0758437,9.02894243 21.9468486,11.9425719 21.3629603,14.7915228 L17.5641717,10.9927341 C17.1895046,10.618067 16.6913858,10.4117517 16.1615839,10.4117517 C15.6317819,10.4117517 15.1336631,10.618067 14.758996,10.9927341 L10.8638457,14.8877908 C10.0905148,15.6612154 10.0905148,16.9196356 10.8638457,17.6930602 L14.662728,21.4918488 C11.8138709,22.0757371 8.90014769,21.2048259 6.84121286,19.1457973 C4.84442571,17.1491039 3.95392351,14.2952787 4.45916634,11.5119438 C4.57643142,10.8657204 4.37199086,10.2054364 3.91230425,9.74584357 L1.45826766,7.29180698 L-5.32833575e-15,8.75007464 L2.42460315,11.1745841 C1.81081279,14.6136098 2.91541047,18.1365303 5.38303894,20.604065 C7.41338396,22.63441 10.1135741,23.7327273 12.9103134,23.7327273 C13.6905809,23.7327273 14.4785347,23.6471454 15.2614267,23.4725132 C15.9630487,23.316066 16.5239714,22.7887012 16.7252249,22.0963592 C16.9278844,21.3993303 16.7353485,20.6479339 16.2228879,20.1354734 L12.3776994,16.2903786 L16.1615839,12.5064941 L20.0066786,16.3515889 C20.5192329,16.8640495 21.2707231,17.0564917 21.9675645,16.8539259 C22.6599065,16.6526724 23.1871775,16.0917497 23.3437185,15.3901277 C24.1443268,11.8014039 23.0719747,8.1085381 20.4752703,5.51173994 L20.4752703,5.51173994 Z" fill="#C384F8"></path>
                    <path d="M2.45723048,11.2072427 L2.45823048,11.2072427 L2.45723048,11.2072427 Z" fill="#33CCCC"></path>
                </g>
            </g>
            <path d="M47.0065859,6.3582423 L41.641732,0.993482089 C41.003195,0.354945142 40.1542184,0.00324364103 39.2512491,0.00324364103 C38.3482799,0.00324364103 37.4992095,0.354851405 36.8606725,0.993388352 L6.69664458,31.1574163 C6.32488334,31.5291775 6.12016157,32.0235469 6.12016157,32.5494119 C6.12016157,32.6884239 6.13544071,32.8249988 6.16337436,32.957918 L0.212569964,45.0978065 C-0.171564564,45.8814484 -0.0210228237,46.7866673 0.596142071,47.4038322 C0.986369509,47.7939659 1.4915186,47.9976566 2.00847856,47.9976566 C2.3091871,47.9976566 2.61392632,47.9286661 2.90226156,47.7874043 L15.0444934,41.8355688 C15.17835,41.8635962 15.3144562,41.8788753 15.4506562,41.8788753 C15.9547742,41.8788753 16.4587984,41.6869955 16.8426517,41.303236 L47.0065859,11.1393018 C48.3247167,9.82126476 48.3247167,7.67646677 47.0065859,6.3582423 Z M9.16155467,42.4225504 L5.57742391,38.8384196 L7.55649475,34.8010701 L13.1989979,40.4435733 L9.16155467,42.4225504 Z M2.1314616,45.8685127 L4.6181187,40.795556 L7.2044183,43.3818556 L2.1314616,45.8685127 Z M15.4506562,39.7787899 L12.5650541,36.8931879 L25.2136536,24.2444946 C25.6162544,23.8418001 25.6162544,23.1889214 25.2136536,22.7862269 C24.8109592,22.3835325 24.1580804,22.3835325 23.755386,22.7862269 L11.1068802,35.4350139 L8.22127808,32.5494119 L33.5184772,7.25211904 L36.404173,10.1377211 L32.7893902,13.7525039 C32.3867895,14.1551984 32.3867895,14.8080771 32.7893902,15.2107716 C32.9907374,15.4121188 33.2546073,15.5127924 33.5184772,15.5127924 C33.782347,15.5127924 34.0462169,15.4121188 34.2475641,15.2107716 L37.8623469,11.5959888 L40.7480427,14.4815909 L15.4506562,39.7787899 Z M45.5483183,9.68112783 L42.2061229,13.0233232 L34.9766511,5.79385138 L38.3188464,2.45165601 C38.5679059,2.20259661 38.8989852,2.06545927 39.2511554,2.06545927 C39.6033256,2.06545927 39.9344049,2.20259661 40.1834643,2.45165601 L45.5483183,7.81641622 C46.0624661,8.33056407 46.0624661,9.16707372 45.5483183,9.68112783 Z" id="Shape" fill="#293D56"></path>
        </g>
    </g>
</svg>