<?xml version="1.0" encoding="UTF-8"?>
<svg width="551px" height="609px" viewBox="0 0 551 609" version="1.1" xmlns="http://www.w3.org/2000/svg" xmlns:xlink="http://www.w3.org/1999/xlink">
    <title>Group 141</title>
    <defs>
        <rect id="path-1" x="0" y="0" width="269" height="108" rx="30"></rect>
        <rect id="path-3" x="0" y="0" width="269" height="108" rx="30"></rect>
        <rect id="path-5" x="0" y="0" width="269" height="108" rx="30"></rect>
        <rect id="path-7" x="0" y="0" width="269" height="108" rx="30"></rect>
        <linearGradient x1="0%" y1="50%" x2="100%" y2="50%" id="linearGradient-9">
            <stop stop-color="#FFFFFF" offset="0%"></stop>
            <stop stop-color="#FFFFFF" stop-opacity="0" offset="100%"></stop>
        </linearGradient>
        <linearGradient x1="0%" y1="50%" x2="100%" y2="50%" id="linearGradient-10">
            <stop stop-color="#FFFFFF" offset="0%"></stop>
            <stop stop-color="#FFFFFF" stop-opacity="0" offset="100%"></stop>
        </linearGradient>
    </defs>
    <g id="Page-1" stroke="none" stroke-width="1" fill="none" fill-rule="evenodd">
        <g id="Group-141">
            <g id="Group-139" transform="translate(12.991979, 4.000000)">
                <g id="Group-126" transform="translate(95.008021, 0.000000)">
                    <g id="Combined-Shape">
                        <mask id="mask-2" fill="white">
                            <use xlink:href="#path-1"></use>
                        </mask>
                        <use id="Mask" fill="#FFFFFF" xlink:href="#path-1"></use>
                        <path d="M0,46.6935429 L269,-94 M0,56.6935429 L269,-84 M0,26.6935429 L269,-114 M0,36.6935429 L269,-104 M0,6.69354293 L269,-134 M0,16.6935429 L269,-124 M0,66.6935429 L269,-74 M0,76.6935429 L269,-64 M0,86.6935429 L269,-54 M0,96.6935429 L269,-44 M0,106.693543 L269,-34 M0,116.693543 L269,-24 M0,126.693543 L269,-14 M0,136.693543 L269,-4 M0,146.693543 L269,6 M0,156.693543 L269,16 M0,166.693543 L269,26 M0,176.693543 L269,36 M0,186.693543 L269,46 M0,196.693543 L269,56 M0,206.693543 L269,66 M0,216.693543 L269,76 M0,226.693543 L269,86 M0,236.693543 L269,96" stroke="#3FA2FF" stroke-width="2" stroke-linecap="round" stroke-linejoin="round" mask="url(#mask-2)"></path>
                    </g>
                    <g id="Combined-Shape" transform="translate(121.000000, 155.000000)">
                        <mask id="mask-4" fill="white">
                            <use xlink:href="#path-3"></use>
                        </mask>
                        <use id="Mask" fill="#FFFFFF" xlink:href="#path-3"></use>
                        <path d="M0,46.6935429 L269,-94 M0,56.6935429 L269,-84 M0,26.6935429 L269,-114 M0,36.6935429 L269,-104 M0,6.69354293 L269,-134 M0,16.6935429 L269,-124 M0,66.6935429 L269,-74 M0,76.6935429 L269,-64 M0,86.6935429 L269,-54 M0,96.6935429 L269,-44 M0,106.693543 L269,-34 M0,116.693543 L269,-24 M0,126.693543 L269,-14 M0,136.693543 L269,-4 M0,146.693543 L269,6 M0,156.693543 L269,16 M0,166.693543 L269,26 M0,176.693543 L269,36 M0,186.693543 L269,46 M0,196.693543 L269,56 M0,206.693543 L269,66 M0,216.693543 L269,76 M0,226.693543 L269,86 M0,236.693543 L269,96" stroke="#6FD5D2" stroke-width="2" stroke-linecap="round" stroke-linejoin="round" mask="url(#mask-4)"></path>
                    </g>
                    <g id="Combined-Shape" transform="translate(0.000000, 317.000000)">
                        <mask id="mask-6" fill="white">
                            <use xlink:href="#path-5"></use>
                        </mask>
                        <use id="Mask" fill="#FFFFFF" xlink:href="#path-5"></use>
                        <path d="M0,46.6935429 L269,-94 M0,56.6935429 L269,-84 M0,26.6935429 L269,-114 M0,36.6935429 L269,-104 M0,6.69354293 L269,-134 M0,16.6935429 L269,-124 M0,66.6935429 L269,-74 M0,76.6935429 L269,-64 M0,86.6935429 L269,-54 M0,96.6935429 L269,-44 M0,106.693543 L269,-34 M0,116.693543 L269,-24 M0,126.693543 L269,-14 M0,136.693543 L269,-4 M0,146.693543 L269,6 M0,156.693543 L269,16 M0,166.693543 L269,26 M0,176.693543 L269,36 M0,186.693543 L269,46 M0,196.693543 L269,56 M0,206.693543 L269,66 M0,216.693543 L269,76 M0,226.693543 L269,86 M0,236.693543 L269,96" stroke="#C384F8" stroke-width="2" stroke-linecap="round" stroke-linejoin="round" mask="url(#mask-6)"></path>
                    </g>
                    <g id="Combined-Shape" transform="translate(121.000000, 467.000000)">
                        <mask id="mask-8" fill="white">
                            <use xlink:href="#path-7"></use>
                        </mask>
                        <use id="Mask" fill="#FFFFFF" xlink:href="#path-7"></use>
                        <path d="M0,46.6935429 L269,-94 M0,56.6935429 L269,-84 M0,26.6935429 L269,-114 M0,36.6935429 L269,-104 M0,6.69354293 L269,-134 M0,16.6935429 L269,-124 M0,66.6935429 L269,-74 M0,76.6935429 L269,-64 M0,86.6935429 L269,-54 M0,96.6935429 L269,-44 M0,106.693543 L269,-34 M0,116.693543 L269,-24 M0,126.693543 L269,-14 M0,136.693543 L269,-4 M0,146.693543 L269,6 M0,156.693543 L269,16 M0,166.693543 L269,26 M0,176.693543 L269,36 M0,186.693543 L269,46 M0,196.693543 L269,56 M0,206.693543 L269,66 M0,216.693543 L269,76 M0,226.693543 L269,86 M0,236.693543 L269,96" stroke="#F5EC83" stroke-width="2" stroke-linecap="round" stroke-linejoin="round" mask="url(#mask-8)"></path>
                    </g>
                </g>
                <path d="M152.307568,590.218935 L161.402276,588.82635 C160.949452,586.153534 161.14548,584.163706 161.990359,582.856864 C162.772954,581.588241 164.079519,580.738785 165.551203,580.541803 C166.563209,580.364122 167.604718,580.484249 168.550428,580.887732 C169.839559,581.499817 171.082713,582.205361 172.270054,582.998783 C174.818415,584.613117 177.060973,585.723834 178.997727,586.330934 C180.957725,586.938008 183.030683,587.08169 185.054984,586.750779 C187.491094,586.412019 189.77977,585.378838 191.650338,583.773427 C193.491038,582.180776 194.786782,580.020446 195.537568,577.292439 C196.288354,574.564432 196.320699,571.2993 195.634602,567.497041 L186.519311,568.910322 C186.966255,571.40771 186.785909,573.351218 185.978275,574.740846 C185.232618,576.086982 183.896047,576.997578 182.376265,577.19487 C181.329613,577.375154 180.25325,577.236133 179.285887,576.795721 C178.024236,576.180774 176.800748,575.489625 175.622129,574.726063 C172.999278,573.036827 170.732217,571.903443 168.820946,571.32591 C166.90181,570.747083 164.87743,570.611649 162.898948,570.929718 C160.433639,571.264128 158.115794,572.303734 156.221262,573.924809 C154.392324,575.513519 153.112262,577.670891 152.381079,580.396927 C151.649895,583.122963 151.625392,586.396966 152.307568,590.218935 Z" id="Path" stroke="#5BC5C7" stroke-width="2" opacity="0.7" stroke-linecap="round" stroke-linejoin="round"></path>
                <polygon id="Path" stroke="#5BC5C7" stroke-width="2" opacity="0.7" stroke-linecap="round" stroke-linejoin="round" points="93.3602573 286.218935 102.588622 284.44515 107.488716 263.594373 107.952041 263.506271 120.268257 281.050291 129.43504 279.288254 111.154257 254.408284 101.178122 256.323031"></polygon>
                <polygon id="Path" stroke="#71AED8" stroke-width="2" opacity="0.7" stroke-linecap="round" stroke-linejoin="round" points="189.256483 261.846154 186.532298 273.211879 175.165383 270.487979 173.567194 277.158507 184.934109 279.88039 182.211942 291.246115 188.883169 292.846154 191.605336 281.480429 202.972252 284.202311 204.57044 277.531783 193.203525 274.807883 195.92771 263.444175"></polygon>
                <path d="M393.413514,304.339594 L404.626408,305.909666 C405.004381,303.953189 405.721161,302.388008 406.776745,301.214122 C407.772102,300.084022 409.055239,299.244317 410.489896,298.784178 C411.900294,298.332366 413.395273,298.207907 414.861074,298.420273 C416.388494,298.61164 417.847425,299.167257 419.114747,300.040236 C420.305357,300.864327 421.250429,301.995061 421.84967,303.312443 C422.466164,304.717577 422.66108,306.271287 422.410756,307.784949 C422.238518,309.165371 421.74449,310.486167 420.968385,311.641165 C420.196643,312.763056 419.228316,313.73639 418.110081,314.514251 C416.910183,315.352041 415.631123,316.070555 414.291176,316.659528 C412.400394,317.466649 410.622876,318.516321 409.003461,319.782065 C407.507233,320.97356 406.250911,322.642434 405.234495,324.788689 C404.218079,326.934944 403.434714,329.904876 402.884399,333.698485 L402.769832,334.51727 L413.257134,335.984628 L413.371701,335.165842 C413.702673,332.943285 414.233403,331.109088 414.963891,329.663251 C415.663018,328.246511 416.665996,327.001042 417.90151,326.0154 C419.325473,324.927657 420.882181,324.025324 422.534136,323.330136 C424.524451,322.508386 426.394905,321.422562 428.095049,320.101949 C429.69618,318.841524 431.04213,317.287742 432.060836,315.523793 C433.144966,313.590713 433.843317,311.465836 434.117169,309.26698 C434.612648,305.717932 434.187672,302.529853 432.842242,299.702744 C431.448142,296.819231 429.260346,294.392333 426.535173,292.706382 C423.677849,290.87512 420.243772,289.677756 416.232942,289.114291 C412.781251,288.580573 409.255668,288.780579 405.886647,289.701234 C402.747515,290.56878 399.919541,292.309074 397.731815,294.719597 C395.51685,297.16128 394.077416,300.367946 393.413514,304.339594 Z" id="Path" stroke="#AD84BB" stroke-width="2" opacity="0.7" stroke-linecap="round" stroke-linejoin="round"></path>
                <path d="M405.484193,354.92528 C406.695946,355.107761 407.934591,354.954479 409.065151,354.482138 C410.183995,354.011163 411.169653,353.272398 411.935205,352.330992 C413.929969,349.860519 413.957964,346.342706 412.00277,343.840861 C409.687629,340.777018 405.326121,340.165067 402.255749,342.473283 C400.74766,343.543962 399.757793,345.197077 399.5267,347.030896 C399.234101,348.876611 399.726053,350.76056 400.883881,352.228277 C401.984535,353.716902 403.64654,354.691278 405.484193,354.92528 Z" id="Path" stroke="#AD84BB" stroke-width="2" opacity="0.7" stroke-linecap="round" stroke-linejoin="round"></path>
                <g id="Group-130" transform="translate(389.798750, 107.739645)" opacity="0.7" stroke="#AE85BC" stroke-linecap="round" stroke-linejoin="round" stroke-width="2">
                    <path d="M-8.17124146e-14,5.28074596 L1.35198376,11.6500926 C1.78611641,13.5920783 2.54857931,15.4450289 3.60626973,17.1284978 C4.7347114,18.9664295 6.09282644,20.6518621 7.64752554,22.1437314 C9.14979952,23.6089034 10.8494978,24.8551989 12.696891,25.8461538 L17.2025238,21.3235932 C15.6774133,19.7910003 14.2897005,18.1265963 13.0554606,16.3496615 C11.713624,14.3705946 10.7866686,12.1383463 10.3309194,9.78855593 L8.96424016,3.35430623 L-8.17124146e-14,5.28074596 Z" id="Path"></path>
                    <path d="M26.0462611,6.43719983 L24.6795818,-6.11066753e-13 L15.7182808,1.91758932 L17.0702645,8.28988612 C17.5038747,10.2315606 18.2653128,12.0844366 19.3216114,13.7682913 C20.4499213,15.6063167 21.8080493,17.2917653 23.3628672,18.7835249 C24.87305,20.250335 26.5842309,21.4930938 28.4445627,22.4741468 L32.9501955,17.9515861 C31.4072267,16.4280885 30.0063018,14.76614 28.7649241,12.9865049 C27.4269122,11.0103396 26.5020529,8.78233784 26.0462611,6.43719983 Z" id="Path"></path>
                </g>
                <g id="Group-132" transform="translate(78.654516, 130.360947)" opacity="0.7" stroke="#AD84BB" stroke-linecap="round" stroke-linejoin="round" stroke-width="2">
                    <path d="M32.9501955,5.27719348 L31.5988145,11.6458132 C31.1643635,13.5883376 30.4022869,15.4419616 29.3455335,17.1265429 C28.217017,18.9638539 26.8595642,20.6490236 25.3060792,22.1412042 C23.8042231,23.6054282 22.1065094,24.8523996 20.2619025,25.8461538 L15.7582783,21.3241094 C17.2817809,19.7905895 18.6678891,18.1253919 19.900555,16.3477956 C21.2412048,14.3718786 22.1677478,12.142894 22.6238816,9.79628817 L23.9899516,3.36277281 L32.9501955,5.27719348 Z" id="Path"></path>
                    <path d="M6.90085675,6.43351535 L8.26692674,1.687539e-13 L17.2242329,1.91442066 L15.8728519,8.2859902 C15.4394351,10.2274431 14.6783364,12.0801076 13.6225086,13.7637701 C12.49457,15.601492 11.1370604,17.2867323 9.58305438,18.7784313 C8.07503949,20.2471777 6.36556751,21.4918127 4.50656205,22.4745316 L2.66453526e-14,17.9524871 C1.54052137,16.4270357 2.93885629,14.7633005 4.17753014,12.9820729 C5.51817666,11.0072357 6.44473701,8.77921292 6.90085675,6.43351535 L6.90085675,6.43351535 Z" id="Path"></path>
                </g>
                <polygon id="Path" stroke="#71AED8" stroke-width="2" opacity="0.7" stroke-linecap="round" stroke-linejoin="round" points="135.818798 201.853139 134.297406 210.553461 156.985864 214.526627 170.940296 134.712811 148.251838 130.739645 146.72456 139.472364 158.492542 141.534052 147.58678 203.914827"></polygon>
                <polygon id="Path" stroke="#5BC5C7" stroke-width="2" opacity="0.7" stroke-linecap="round" stroke-linejoin="round" points="71.3242703 231.568047 73.9583902 218.898552 82.5516183 228.531484 88.0227088 223.060966 78.4122871 214.445121 91.0831093 211.808338 89.0575416 204.294827 76.7718419 208.389632 80.8670751 196.102279 73.349838 194.076923 70.7157181 206.746419 62.0960312 197.137003 56.6278805 202.607521 66.2588813 211.202789 53.5880592 213.836633 55.6136268 221.353083 67.8816873 217.278855 63.8070331 229.542692"></polygon>
                <path d="M213.486375,138.810113 C214.35944,137.95402 214.981177,136.875122 215.284053,135.690609 C215.578786,134.51553 215.578786,133.28588 215.284053,132.110801 C214.509004,129.031882 211.714327,126.89266 208.539095,126.947787 C204.702593,126.952633 201.593703,130.060754 201.588855,133.896307 C201.539439,135.741688 202.264694,137.523543 203.588882,138.810113 C204.882042,140.15748 206.680539,140.901795 208.547893,140.862419 C210.405992,140.884752 212.191621,140.142691 213.486375,138.810113 L213.486375,138.810113 Z" id="Path" stroke="#AE85BC" stroke-width="2" opacity="0.7" stroke-linecap="round" stroke-linejoin="round"></path>
                <path d="M54.8398778,278.981749 C55.7132012,278.126228 56.3342021,277.047001 56.6348871,275.862234 C56.930879,274.687302 56.930879,273.457348 56.6348871,272.282416 C55.8597243,269.203486 53.0646356,267.064258 49.8889371,267.119384 C46.0530167,267.125845 42.9454527,270.233505 42.9406086,274.067927 C42.8915017,275.912677 43.6156028,277.694056 44.9379964,278.981749 C46.2328717,280.328666 48.0322998,281.072819 49.9006692,281.034061 C51.7587738,281.055011 53.5441407,280.313165 54.8398778,278.981749 Z" id="Path" stroke="#AE85BC" stroke-width="2" opacity="0.7" stroke-linecap="round" stroke-linejoin="round"></path>
                <path d="M61.8830824,330.745063 C62.7564058,329.889541 63.3774067,328.810315 63.6780917,327.625548 C63.9740835,326.450616 63.9740835,325.220661 63.6780917,324.045729 C62.9029289,320.9668 60.1078402,318.827571 56.9321417,318.882698 C53.0962213,318.889158 49.9886573,321.996818 49.9838132,325.831241 C49.9347063,327.675991 50.6588074,329.457369 51.981201,330.745063 C53.2760763,332.09198 55.0755044,332.836133 56.9438738,332.797375 C58.8019784,332.818325 60.5873453,332.076479 61.8830824,330.745063 Z" id="Path" stroke="#99C4E1" stroke-width="2" opacity="0.7" stroke-linecap="round" stroke-linejoin="round"></path>
                <path d="M193.893487,218.370712 C195.361107,219.502779 197.224829,219.983798 199.053542,219.702503 C200.249546,219.547053 201.379666,219.062857 202.319436,218.303242 C203.262871,217.546936 204.004943,216.567247 204.479188,215.451918 C204.971925,214.310799 205.146464,213.056432 204.984102,211.823227 C204.382888,208.059255 200.922864,205.450684 197.159382,205.924037 C195.322457,206.151023 193.658142,207.124173 192.553858,208.616954 C191.405512,210.057447 190.919634,211.920234 191.217147,213.74171 C191.416838,215.596013 192.389452,217.278247 193.893487,218.370712 L193.893487,218.370712 Z" id="Path" stroke="#71AED8" stroke-width="2" opacity="0.7" stroke-linecap="round" stroke-linejoin="round"></path>
                <polygon id="Path" stroke="#AD84BB" stroke-width="2" opacity="0.7" stroke-linecap="round" stroke-linejoin="round" points="71.4074341 536.071006 74.041554 523.40445 82.637722 533.034442 88.1058726 527.563925 78.4983908 518.94808 91.1692129 516.314236 89.1436453 508.797786 76.8550057 512.89259 80.9502389 500.605237 73.4330018 498.579882 70.7988819 511.249377 62.1821348 501.642901 56.7110443 507.110479 66.344985 515.705747 53.6741628 518.339591 55.6997305 525.856041 67.9648511 521.781814 63.8901969 534.04859"></polygon>
                <g id="Group-103" transform="translate(4.961974, 158.402367)" opacity="0.7" stroke="#5BC5C7" stroke-linecap="round" stroke-linejoin="round" stroke-width="2">
                    <g id="Group-131" transform="translate(0.000000, 0.000000)">
                        <path d="M1.84906553,63.9066966 C3.09469575,65.2947862 4.85802144,66.1120226 6.72606382,66.1670053 C7.9570755,66.2357837 9.18336641,65.965973 10.2708233,65.3870811 C11.3433452,64.8109546 12.256546,63.9799631 12.929393,62.9678445 C14.6954645,60.3145215 14.3905229,56.7980078 12.1938554,54.4858006 C9.57855309,51.6461698 5.15165678,51.4462248 2.2892065,54.0384479 C0.912131193,55.2854844 0.0908060316,57.0280043 0.0070867865,58.8801831 C-0.0766324586,60.732362 0.584161602,62.5413828 1.8431576,63.9066966 L1.84906553,63.9066966 Z" id="Path"></path>
                        <polygon id="Path" points="15.906991 0.556247843 3.54464216 3.12638804e-13 2.48121431 46.0714483 12.7698788 46.5364598"></polygon>
                    </g>
                </g>
                <g id="Group-129" transform="translate(13.008021, 387.952663)" opacity="0.7" stroke="#71AED8" stroke-linecap="round" stroke-linejoin="round" stroke-width="2">
                    <polygon id="Path" points="32.5960447 68.4497041 39.6987995 52.9636384 48.5138781 55.3623912 52.3128204 47.1607732 43.471217 44.7502618 49.2801504 32.0803788 58.1541731 34.4997092 61.9236434 26.2863326 53.0378319 23.8699419 60.1376395 8.38387615 51.5200233 6.03215774 44.4172685 21.5182235 30.8778264 17.8377842 37.977634 2.35171842 29.3600179 -5.47117907e-13 22.2572631 15.4919451 13.4156596 13.0843733 9.64324216 21.2948103 18.4848456 23.7053216 12.6759121 36.3752046 3.79304788 33.9558743 -6.03961325e-14 42.1604319 8.91528348 44.5856415 1.81252871 60.0717073 10.4330921 62.4234257 17.5358468 46.9373599 31.0782361 50.6236785 23.9666397 66.103865"></polygon>
                    <polygon id="Path" points="21.3141587 38.7210437 27.1113034 26.0394022 40.6684287 29.7227811 34.8594952 42.3926641"></polygon>
                </g>
                <path d="M124.096952,510.666273 C126.859153,510.615377 129.076928,510.937397 130.750278,511.632335 C132.275621,512.21641 133.599542,513.23011 134.562232,514.551075 C135.44316,515.829519 136.077655,517.261612 136.433022,518.773558 L138.890266,528.906929 C139.408301,531.05047 140.076859,532.752579 140.89594,534.013255 C141.666623,535.242832 142.889512,536.119349 144.300308,536.453369 C145.76058,536.817477 147.704677,536.704917 150.132598,536.115687 L152.217444,544.672234 C149.452153,545.376079 146.624635,545.806846 143.775432,545.958359 C141.455224,546.100728 139.132064,545.731873 136.969628,544.877779 C134.985457,544.053642 133.285716,542.634402 131.870406,540.620061 C130.455096,538.605719 129.329103,535.859246 128.492428,532.38064 L126.592316,524.534692 C125.810377,521.302741 124.550477,519.139624 122.812617,518.045341 C121.074757,516.951058 118.46308,516.82871 114.977585,517.678296 L113.760692,512.707042 L113.65513,512.275398 L112.449966,507.301207 C115.94719,506.453579 118.215791,505.143963 119.25577,503.37236 C120.29575,501.600758 120.42477,499.09996 119.64283,495.869966 L117.730989,487.991718 C116.888449,484.513112 116.634319,481.554242 116.968598,479.115108 C117.302877,476.675973 118.163988,474.635204 119.55193,472.992802 C121.079081,471.241669 122.972092,469.848251 125.096857,468.911264 C127.699311,467.738529 130.40985,466.82294 133.189929,466.177515 L135.271842,474.763425 C132.84392,475.350697 131.063054,476.133726 129.929242,477.112512 C128.820033,478.048802 128.128027,479.388263 128.005671,480.835813 C127.859058,482.329441 128.044768,484.149004 128.562803,486.294503 L131.017115,496.427874 C131.399156,497.944259 131.493646,499.51897 131.295681,501.070256 C131.043722,502.685715 130.330931,504.193839 129.24309,505.413129 C128.070181,506.79909 126.246308,508.103812 123.77147,509.327294 C123.636585,509.394831 123.478243,509.45943 123.34629,509.526967 L123.624856,510.672146 L124.096952,510.666273 Z" id="Path" stroke="#AD84BB" stroke-width="2" opacity="0.7" stroke-linecap="round" stroke-linejoin="round"></path>
                <polygon id="Rectangle" stroke="#5BC5C7" stroke-width="2" opacity="0.7" stroke-linecap="round" stroke-linejoin="round" transform="translate(182.884943, 475.752753) rotate(-77.905243) translate(-182.884943, -475.752753) " points="177.962165 454.482799 187.810922 454.482059 187.807721 497.022706 177.958965 497.023447"></polygon>
                <g id="Group-104" transform="translate(46.431740, 69.881657)" opacity="0.7" stroke="#71AED8" stroke-linecap="round" stroke-linejoin="round" stroke-width="2">
                    <path d="M13.326254,9.58828772 C14.609948,6.67602338 13.6721443,3.25792759 11.0847823,1.41859908 C9.62481824,0.29927551 7.78062005,-0.187791193 5.96178585,0.0655769267 C4.14295164,0.318945046 2.50006256,1.29177166 1.39800576,2.7679911 C-0.902848347,5.83677819 -0.301262007,10.1978874 2.74347246,12.5217486 C4.20608344,13.6646822 6.07247311,14.1516957 7.90352699,13.8682072 C9.10076155,13.7153497 10.2318072,13.2297413 11.1694212,12.4660129 C12.1103851,11.6972222 12.850701,10.7094656 13.326254,9.58828772 Z" id="Path"></path>
                    <path d="M6.46174705,39.4890548 C7.92936695,40.6211219 9.79308875,41.1021417 11.6218016,40.820846 C12.8178056,40.6653962 13.9479252,40.1812004 14.8876958,39.4215852 C15.8311308,38.6652795 16.5732021,37.68559 17.0474471,36.5702612 C17.5401849,35.4291421 17.7147241,34.1747748 17.552362,32.94157 C16.9511477,29.1775983 13.4911238,26.5690275 9.72764129,27.0423801 C7.8907168,27.2693665 6.2264017,28.2425159 5.12211751,29.7352973 C3.97377176,31.1757899 3.4878935,33.0385768 3.78540655,34.8600535 C3.98509755,36.7143562 4.95771165,38.3965905 6.46174705,39.4890548 L6.46174705,39.4890548 Z" id="Path"></path>
                </g>
                <g id="Group-128" transform="translate(411.124435, 390.964497)" opacity="0.7" stroke="#71AED8" stroke-linecap="round" stroke-linejoin="round" stroke-width="2">
                    <path d="M46.0166524,55.4356336 L37.9878603,46.0177975 C38.2082352,45.7275898 38.4286101,45.4393698 38.6450142,45.1272972 C39.8560832,43.3701492 40.8441303,41.2128061 41.6091553,38.6552679 C42.3741803,36.0977298 42.7573546,33.0889783 42.7586782,29.6290134 L34.4519359,29.6290134 C34.4519359,32.4290539 33.9886854,34.9740031 33.0621845,37.2638612 C32.7957957,37.9180947 32.4949217,38.5577158 32.1608315,39.1800271 L22.1605779,27.4524557 L25.6111319,24.9260585 C27.8903241,23.2682967 29.6711912,21.4183883 30.9537332,19.3763332 C32.2490481,17.2960082 32.9189683,14.886391 32.8835022,12.4352011 C32.8986703,10.2603238 32.3162463,8.12314222 31.1999177,6.25735504 C30.0441081,4.33600872 28.3890268,2.76483143 26.4112316,1.71143033 C24.3464582,0.570476778 21.8713772,4.65405492e-13 18.9859887,4.65405492e-13 C16.1006002,4.65405492e-13 13.5858121,0.588366293 11.4416243,1.76509888 C9.35894173,2.88090776 7.62528129,4.55196496 6.43256337,6.59328039 C5.24134793,8.63401033 4.64574021,10.9470584 4.64574021,13.5324247 C4.6269683,15.7282659 5.10622737,17.8997343 6.04740371,19.8832028 C7.02319682,21.8940435 8.23414907,23.781696 9.65480113,25.5064739 C9.85333704,25.7609026 10.0816533,26.0212944 10.2921014,26.2777108 C8.46909855,27.5187827 6.73070697,28.8800752 5.08847528,30.3525449 C3.57777485,31.6905462 2.3125542,33.2828694 1.35004416,35.0574876 C0.451338294,36.7536787 0.00132357271,38.6970101 5.68434189e-14,40.8874819 C5.68434189e-14,43.7935344 0.72796499,46.4007656 2.18389497,48.7091757 C3.63982495,51.0175858 5.70923088,52.8496048 8.39211277,54.2052325 C11.0816125,55.5595351 14.2959088,56.2366864 18.0350017,56.2366864 C20.6072568,56.2210027 23.1615742,55.8066219 25.6071612,55.008273 C27.9784664,54.2657981 30.1720195,53.0432252 32.0516367,51.4164558 L35.5557955,55.4356336 L46.0166524,55.4356336 Z" id="Path"></path>
                    <path d="M14.0730268,10.9021409 C14.5623293,10.0254481 15.2687103,9.29112607 16.1234731,8.7705888 C17.0429077,8.21519105 18.0993444,7.93209739 19.1714338,7.95382584 C20.8933337,7.95382584 22.2471033,8.48106957 23.2327426,9.53555703 C24.2183818,10.5900445 24.7112015,11.7062872 24.7112015,12.8842852 C24.7394951,14.1873246 24.3517013,15.4651269 23.6048313,16.5298369 C22.8685706,17.5657314 21.7905689,18.5485031 20.3708262,19.478152 L17.2911983,21.5857988 L16.9487975,21.1734331 C15.9629359,19.9808231 15.0896341,18.6983396 14.3402181,17.3426156 C13.7108867,16.2305841 13.370514,14.9766946 13.3505103,13.6970639 C13.3444973,12.7178734 13.593583,11.7541839 14.0730268,10.9021409 L14.0730268,10.9021409 Z" id="Path"></path>
                    <path d="M24.0309266,46.9612321 C22.2165233,47.8217888 20.2354217,48.2733468 18.2274984,48.2840237 C16.4434594,48.2840237 14.8873958,47.9319423 13.5593074,47.2277796 C12.2945532,46.5817494 11.2277594,45.6058239 10.4717006,44.403172 C9.73911019,43.2228612 9.35838248,41.857898 9.37423834,40.468613 C9.37423834,39.5244249 9.76656785,38.3780056 10.5512269,37.0293549 C11.3358859,35.6807043 12.6374655,34.3473038 14.4559658,33.0291536 L15.3426836,32.3786982 L26.7010205,45.3977521 C25.8625381,46.0024173 24.9684822,46.5259339 24.0309266,46.9612321 L24.0309266,46.9612321 Z" id="Path"></path>
                </g>
                <g id="Group-127" transform="translate(461.991828, 337.479290)" opacity="0.7" stroke="#5BC5C7" stroke-linecap="round" stroke-linejoin="round" stroke-width="2">
                    <polygon id="Rectangle" transform="translate(21.782733, 30.166322) rotate(-77.730000) translate(-21.782733, -30.166322) " points="16.8710175 8.94406081 26.6976842 8.94331172 26.6944475 51.3885838 16.8677809 51.3893329"></polygon>
                    <polygon id="Rectangle" transform="translate(25.893116, 9.273463) rotate(-77.905243) translate(-25.893116, -9.273463) " points="20.9703379 -11.9964905 30.8190943 -11.9972312 30.8158939 30.5434159 20.9671375 30.5441566"></polygon>
                </g>
                <g id="Group-133" transform="translate(406.032999, 1.952663)" opacity="0.7" stroke="#71AED8" stroke-linecap="round" stroke-linejoin="round" stroke-width="2">
                    <path d="M43.5853255,84.349791 C49.0412131,83.6928768 54.7663701,81.8937164 60.7607965,78.9523096 C63.2026963,77.756151 65.5523173,76.3796939 67.7901965,74.8343402 C69.8676478,73.4123585 71.8516077,71.8580482 73.7297898,70.1810347 C75.1645924,68.938047 76.4759241,67.5589653 77.6454565,66.0630652 L71.6618009,59.9920017 C70.9352631,60.7763768 69.8581855,61.8029278 68.4305681,63.0716546 C66.8354985,64.4732878 65.1686704,65.7908585 63.4368447,67.0190224 C61.5005613,68.3974285 59.4551573,69.6152918 57.3210023,70.660484 C52.5975275,72.9763516 48.1149264,74.3950901 43.873199,74.9166996 C39.6314716,75.438309 35.685451,75.0814183 32.0351371,73.8460275 C28.2719501,72.5399497 24.8560729,70.3911096 22.0476903,67.5631827 C19.0299147,64.6217759 16.3861788,60.8293222 14.1164826,56.1858214 C11.9975772,51.8599925 10.667876,47.6126012 10.1273788,43.4436473 C9.57347654,39.451651 9.86573912,35.3875852 10.9851243,31.516243 C12.1485963,27.63809 14.1788156,24.076187 16.9217801,21.1007216 C19.7691816,17.9436117 23.5242658,15.2208495 28.1870326,12.9324351 C31.0773949,11.4919425 34.1366255,10.4197821 37.2932341,9.74100877 C40.1869698,9.11913591 43.1573987,8.93472341 46.1056871,9.19390712 C48.9264335,9.44800661 51.6790855,10.2050753 54.2337063,11.4293762 C56.8783021,12.7183758 59.2740815,14.466075 61.310106,16.5915451 C63.6012382,19.0037112 65.4861562,21.7722803 66.8913263,24.7892457 C68.8496492,28.7287698 70.2292877,32.0623641 71.0302417,34.7900287 C71.8311958,37.5176932 72.0593404,39.7227678 71.7146756,41.4052524 C71.4247157,43.0008676 70.3769397,44.3551375 68.9064406,45.0349484 C67.6883637,45.6232297 66.5270782,45.6497024 65.4225841,45.1143664 C64.31809,44.5790303 63.4064907,43.5985614 62.6877862,42.1729596 L49.3633572,14.9531815 L41.3675248,18.8623111 L42.9361415,22.0655031 L42.5366436,22.2596359 C41.8198974,21.5713467 40.6850493,21.1703349 39.1320993,21.0566005 C37.3456874,20.9751802 35.558311,21.1949233 33.8446274,21.7066514 C31.7608,22.3012382 29.7881684,23.2332297 28.0049086,24.465691 C26.1298818,25.7300454 24.480503,27.301086 23.1257471,29.1131136 C21.699203,31.018328 20.6465959,33.1772573 20.0237636,35.4753764 C19.3485573,37.9948784 19.1493078,40.6185081 19.4362667,43.2112762 C19.7084736,45.9879642 20.5955939,48.9097615 22.0976275,51.9766683 C23.4526889,54.8557009 25.2507831,57.5038382 27.4262241,59.8243415 C29.2659923,61.7863783 31.467446,63.3735015 33.9092521,64.4982368 C36.1496152,65.5121518 38.579968,66.0365736 41.0385266,66.0365926 C43.5285314,66.0211438 45.9889236,65.4945715 48.2676756,64.4894126 C50.3167232,63.6322782 52.2088932,62.4393948 53.8665207,60.9597245 C55.2617685,59.7208057 56.4117302,58.2300459 57.2563776,56.5652628 C58.0024987,55.0298485 58.3148512,53.5826764 58.1934352,52.2237465 L58.5371208,52.0531449 C59.3846222,53.304174 60.5808549,54.2779863 61.976915,54.8533641 C63.4283872,55.4078042 65.0022748,55.560221 66.5329532,55.2945751 C68.4069179,54.969219 70.2082012,54.3128796 71.8527373,53.3561881 C74.864638,51.7384144 77.0638346,49.7666914 78.4503272,47.4410191 C79.8448618,45.0978177 80.6080397,42.43225 80.6651904,39.7051193 C80.7274543,36.6656709 80.3029939,33.6358631 79.4079471,30.7308873 C78.4195158,27.4243227 77.1528385,24.2076453 75.6215298,21.1154287 C73.4724116,16.6110955 70.514089,12.5410862 66.8942638,9.10860632 C63.4664274,5.87559164 59.3967612,3.40206785 54.9504524,1.84921446 C50.4913512,0.280464193 45.6934601,-0.290168717 40.5567792,0.137315731 C35.4200982,0.564800179 30.0591893,2.1443356 24.4740524,4.87592201 C18.5560006,7.78203188 13.7022973,11.2509309 9.91294249,15.2826191 C6.12358769,19.3143073 3.42110209,23.7558315 1.8054857,28.6071917 C0.177624985,33.5610815 -0.35853589,38.8094286 0.233931581,43.990749 C0.799886898,49.3970546 2.46446136,54.9553329 5.22765496,60.6655839 C8.10051465,66.4895692 11.4756842,71.2634724 15.3531635,74.9872933 C19.2306428,78.7111143 23.5389532,81.3652436 28.2780946,82.9496814 C33.0289859,84.5419629 38.1313963,85.0086661 43.5853255,84.349791 Z" id="Path"></path>
                    <path d="M52.7649641,45.1055421 C53.0528376,47.2821831 52.7032769,49.1980194 51.7162822,50.8530509 C50.7292874,52.5080825 49.0324006,53.9278015 46.6256218,55.1122079 C44.1483433,56.3260284 41.890397,56.6946847 39.8517829,56.2181768 C37.7816516,55.7229512 35.8985678,54.6391919 34.4291868,53.0973443 C32.8125526,51.4364631 31.4753192,49.5242883 30.4694579,47.4351363 C29.4535886,45.4493965 28.8859935,43.2643502 28.8068418,41.0346352 C28.738955,39.0326122 29.2488971,37.0534371 30.275584,35.3341889 C31.2958702,33.628173 32.8703618,32.2555165 34.9990588,31.2162195 C37.3607962,30.0573052 39.452285,29.527852 41.2735253,29.6278598 C43.1175373,29.7387904 44.8613724,30.5054751 46.1908741,31.7897938 C47.6478664,33.1310753 49.0118383,35.0920131 50.2827898,37.6726073 C51.6516575,40.4532171 52.4790489,42.9308621 52.7649641,45.1055421 Z" id="Path"></path>
                </g>
                <path d="M32.3075684,31.2189349 L41.4022759,29.8263504 C40.9494518,27.1535343 41.1454795,25.1637055 41.9903591,23.856864 C42.7729542,22.5882407 44.0795194,21.7387854 45.5512032,21.5418032 C46.5632095,21.3641218 47.6047183,21.4842488 48.5504278,21.8877318 C49.8395586,22.4998166 51.082713,23.2053614 52.2700543,23.9987835 C54.8184151,25.6131171 57.0609725,26.7238338 58.9977267,27.3309336 C60.9577254,27.938008 63.0306833,28.0816903 65.0549842,27.7507786 C67.4910945,27.4120185 69.77977,26.3788379 71.6503378,24.7734271 C73.4910384,23.1807756 74.7867818,21.0204463 75.5375681,18.2924394 C76.2883543,15.5644324 76.3206989,12.2992997 75.6346018,8.49704142 L66.5193114,9.9103225 C66.9662547,12.4077104 66.7859092,14.3512183 65.9782749,15.7408461 C65.2326183,17.0869816 63.8960467,17.9975783 62.376265,18.1948697 C61.3296129,18.3751542 60.2532496,18.2361328 59.2858875,17.7957213 C58.0242363,17.1807737 56.8007475,16.4896245 55.6221288,15.7260628 C52.9992776,14.0368273 50.7322166,12.9034429 48.8209461,12.3259096 C46.9018102,11.7470832 44.8774302,11.6116487 42.8989478,11.9297178 C40.4336395,12.264128 38.1157941,13.3037336 36.2212625,14.9248093 C34.3923236,16.5135186 33.1122624,18.6708912 32.3810789,21.3969271 C31.6498953,24.122963 31.6253919,27.3969656 32.3075684,31.2189349 Z" id="Path" stroke="#5BC5C7" stroke-width="2" opacity="0.7" stroke-linecap="round" stroke-linejoin="round"></path>
                <g id="Group-134" transform="translate(-0.000000, 70.307692)" opacity="0.7" stroke="#71AED8" stroke-linecap="round" stroke-linejoin="round" stroke-width="2">
                    <path d="M0.675095511,46.295858 L8.38134634,45.8363731 C8.80411373,44.4618458 9.35838711,42.585616 10.0441665,40.2076837 C10.7299458,37.8297514 11.3640969,35.2309129 11.9466198,32.4111683 C12.5177349,29.6943686 12.8792396,26.93707 13.0278912,24.1640043 L13.2324561,20.6295054 L3.12402922,21.236261 L3.12402922,24.8119957 C3.1255327,27.6660992 2.96551742,30.5179659 2.64476296,33.3537013 C2.32330388,36.1636279 1.97067301,38.6976672 1.58687035,40.9558193 C1.20306769,43.2139713 0.899142747,44.9939842 0.675095511,46.295858 Z" id="Path"></path>
                    <path d="M2.32622623,12.2144527 C3.69562795,13.478313 5.52123862,14.1175776 7.37313377,13.9817021 C8.58181659,13.9198034 9.74910499,13.5177732 10.7426094,12.8212083 C11.7414968,12.1303057 12.5580424,11.2041903 13.1214066,10.1232075 C14.624498,7.30839638 13.953748,3.81612383 11.5170335,1.77000853 C10.1464728,0.534511045 8.34314961,-0.0982083449 6.50765564,0.0124031918 C4.67216166,0.123014729 2.95648775,0.967797839 1.74175518,2.35909168 C-0.792068029,5.24934721 -0.530785811,9.66035938 2.32622623,12.2262343 L2.32622623,12.2144527 Z" id="Path"></path>
                </g>
                <path d="M497.185495,444.822725 C497.840356,443.484065 499.056952,442.508663 500.503007,442.16292 C501.494573,441.884361 502.54521,441.898727 503.528838,442.204294 C504.875704,442.683036 506.186289,443.258859 507.450337,443.927257 C510.14913,445.274892 512.495352,446.153613 514.489001,446.56342 C516.503851,446.968689 518.58469,446.902957 520.570125,446.371323 C522.964336,445.784851 525.142275,444.525943 526.848649,442.742166 C528.522136,440.968962 529.602439,438.690396 530.089557,435.906466 C530.576676,433.122536 530.282047,429.871663 529.205673,426.153846 L520.24898,428.479698 C520.944302,430.920809 520.959034,432.872318 520.293174,434.334226 C519.680634,435.753048 518.429272,436.793015 516.925575,437.132932 C515.90081,437.419916 514.81368,437.391084 513.805464,437.050182 C512.486655,436.570724 511.197786,436.012141 509.945837,435.37746 C507.164548,433.962838 504.79181,433.064415 502.827623,432.682191 C500.855905,432.298039 498.822983,432.367763 496.882029,432.886109 C494.459031,433.46746 492.253314,434.734236 490.526901,436.535953 C488.861271,438.309157 487.80061,440.583783 487.344918,443.359832 C486.889227,446.135881 487.197604,449.394635 488.27005,453.136095 L497.185495,450.816153 C496.47446,448.205603 496.47446,446.207794 497.185495,444.822725 Z" id="Path" stroke="#AD84BB" stroke-width="2" opacity="0.7" stroke-linecap="round" stroke-linejoin="round"></path>
                <path d="M502.71529,293.307193 C503.588614,292.451672 504.209615,291.372445 504.5103,290.187678 C504.806291,289.012746 504.806291,287.782791 504.5103,286.607859 C503.735137,283.52893 500.940048,281.389701 497.76435,281.444828 C493.928429,281.451289 490.820865,284.558948 490.816021,288.393371 C490.766914,290.238121 491.491015,292.019499 492.813409,293.307193 C494.108284,294.65411 495.907712,295.398263 497.776082,295.359505 C499.634186,295.380455 501.419553,294.638609 502.71529,293.307193 Z" id="Path" stroke="#AE85BC" stroke-width="2" opacity="0.7" stroke-linecap="round" stroke-linejoin="round"></path>
                <g id="Group-136" transform="translate(505.061583, 551.899408)" opacity="0.7" stroke="#71AED8" stroke-linecap="round" stroke-linejoin="round" stroke-width="2">
                    <path d="M-3.01980663e-14,44.6984829 L7.72918081,45.443787 C8.36397285,44.1644461 9.20546414,42.4038852 10.2536547,40.1621044 C11.3018453,37.9203236 12.3382804,35.4614069 13.3629601,32.7853544 C14.3506,30.19714 15.1366295,27.536656 15.7140417,24.8276193 L16.4605102,21.3886571 L6.30971529,20.4115458 L5.7454557,23.9326675 C5.30634286,26.7365155 4.70681574,29.5129635 3.94981711,32.2483833 C3.197471,34.9635594 2.45590067,37.4029143 1.72510614,39.566448 C0.9943116,41.7299817 0.419276221,43.44066 -3.01980663e-14,44.6984829 Z" id="Path"></path>
                    <path d="M6.89748569,11.4004085 C8.06510163,12.8545154 9.78045118,13.7649704 11.6407929,13.9180105 C12.8511154,14.0428043 14.0723244,13.82841 15.1674153,13.2988799 C16.2651903,12.7732123 17.218352,11.9887099 17.9446304,11.0130851 C19.8777009,8.48022435 19.7547703,4.93798072 17.6507452,2.54478732 C16.4816041,1.11418196 14.788257,0.209497602 12.9475139,0.0320478869 C11.1067707,-0.145401828 9.27134911,0.419105258 7.84967374,1.59995299 C4.88264347,4.04717539 4.45687437,8.42943065 6.89748569,11.4004085 L6.89748569,11.4004085 Z" id="Path"></path>
                </g>
                <g id="Group-136" transform="translate(495.061583, 107.899408)" opacity="0.7" stroke="#6FD5D2" stroke-linecap="round" stroke-linejoin="round" stroke-width="2">
                    <path d="M-3.01980663e-14,44.6984829 L7.72918081,45.443787 C8.36397285,44.1644461 9.20546414,42.4038852 10.2536547,40.1621044 C11.3018453,37.9203236 12.3382804,35.4614069 13.3629601,32.7853544 C14.3506,30.19714 15.1366295,27.536656 15.7140417,24.8276193 L16.4605102,21.3886571 L6.30971529,20.4115458 L5.7454557,23.9326675 C5.30634286,26.7365155 4.70681574,29.5129635 3.94981711,32.2483833 C3.197471,34.9635594 2.45590067,37.4029143 1.72510614,39.566448 C0.9943116,41.7299817 0.419276221,43.44066 -3.01980663e-14,44.6984829 Z" id="Path"></path>
                    <path d="M6.89748569,11.4004085 C8.06510163,12.8545154 9.78045118,13.7649704 11.6407929,13.9180105 C12.8511154,14.0428043 14.0723244,13.82841 15.1674153,13.2988799 C16.2651903,12.7732123 17.218352,11.9887099 17.9446304,11.0130851 C19.8777009,8.48022435 19.7547703,4.93798072 17.6507452,2.54478732 C16.4816041,1.11418196 14.788257,0.209497602 12.9475139,0.0320478869 C11.1067707,-0.145401828 9.27134911,0.419105258 7.84967374,1.59995299 C4.88264347,4.04717539 4.45687437,8.42943065 6.89748569,11.4004085 L6.89748569,11.4004085 Z" id="Path"></path>
                </g>
            </g>
            <rect id="Rectangle" fill="url(#linearGradient-9)" x="0" y="0" width="143" height="594"></rect>
            <rect id="Rectangle" fill="url(#linearGradient-10)" transform="translate(469.500000, 305.500000) scale(-1, 1) translate(-469.500000, -305.500000) " x="388" y="2" width="163" height="607"></rect>
        </g>
    </g>
</svg>