<?xml version="1.0" encoding="UTF-8"?>
<svg width="190px" height="200px" viewBox="0 0 190 200" version="1.1" xmlns="http://www.w3.org/2000/svg" xmlns:xlink="http://www.w3.org/1999/xlink">
    <title>course-why-resume</title>
    <g id="Page-1" stroke="none" stroke-width="1" fill="none" fill-rule="evenodd">
        <g id="course-why-resume" transform="translate(0.000000, 0.000000)" fill-rule="nonzero">
            <g id="Group" fill="#293D56">
                <path d="M138.953125,0 L8.93945312,0 C4.01015625,0 -4.16333634e-15,4.01054688 -4.16333634e-15,8.93984375 L-4.16333634e-15,174.654297 C-4.16333634e-15,179.583594 4.01054687,183.594141 8.93984375,183.594141 L109.242578,183.594141 C111.615625,183.594141 113.539453,181.670313 113.539453,179.297266 C113.539453,176.924219 111.615625,175.000391 109.242578,175.000391 L8.93945312,175.000391 C8.74882812,175.000391 8.59335937,174.845313 8.59335937,174.654297 L8.59335937,8.93984375 C8.59335937,8.74921875 8.7484375,8.59375 8.93945312,8.59375 L138.952734,8.59375 C139.143359,8.59375 139.298828,8.74882813 139.298828,8.93984375 L139.298828,110.704688 C139.298828,113.077734 141.222656,115.001562 143.595703,115.001562 C145.96875,115.001562 147.892578,113.077734 147.892578,110.704688 L147.892578,8.93984375 C147.892578,4.01054688 143.882422,0 138.953125,0 Z" id="Path"></path>
                <path d="M34.3210938,146.674219 C31.9480469,146.674219 30.0242188,148.598047 30.0242188,150.971094 C30.0242188,153.344141 31.9480469,155.267969 34.3210938,155.267969 L81.690625,155.267969 C84.0636719,155.267969 85.9875,153.344141 85.9875,150.971094 C85.9875,148.598047 84.0636719,146.674219 81.690625,146.674219 L34.3210938,146.674219 Z" id="Path"></path>
                <path d="M34.3210938,125.971094 C31.9480469,125.971094 30.0242188,127.894922 30.0242188,130.267969 C30.0242188,132.641016 31.9480469,134.564844 34.3210938,134.564844 L81.690625,134.564844 C84.0636719,134.564844 85.9875,132.641016 85.9875,130.267969 C85.9875,127.894922 84.0636719,125.971094 81.690625,125.971094 L34.3210938,125.971094 Z" id="Path"></path>
                <path d="M117.853906,109.562891 C117.853906,107.189844 115.930078,105.266016 113.557031,105.266016 L34.3210938,105.266016 C31.9480469,105.266016 30.0242188,107.189844 30.0242188,109.562891 C30.0242188,111.935937 31.9480469,113.859766 34.3210938,113.859766 L113.557031,113.859766 C115.930078,113.859766 117.853906,111.936328 117.853906,109.562891 Z" id="Path"></path>
                <path d="M86.1738281,59.8542969 C89.3542969,56.7171875 91.3300781,52.3617187 91.3300781,47.5519531 C91.3300781,38.01875 83.5742188,30.2625 74.0410156,30.2625 C64.5078125,30.2625 56.7515625,38.0183594 56.7515625,47.5519531 C56.7515625,52.3613281 58.7273437,56.7171875 61.9078125,59.8542969 C55.8019531,63.8339844 51.7542969,70.7179687 51.7542969,78.5339844 L51.7542969,79.0335937 C51.7542969,81.4066406 53.678125,83.3304687 56.0511719,83.3304687 L92.0300781,83.3304687 C94.403125,83.3304687 96.3269531,81.4066406 96.3269531,79.0335937 L96.3269531,78.5339844 C96.3269531,70.7179687 92.2796875,63.8339844 86.1738281,59.8542969 Z M65.3453125,47.5519531 C65.3453125,42.7574219 69.2460938,38.85625 74.0410156,38.85625 C78.8359375,38.85625 82.7363281,42.7570312 82.7363281,47.5519531 C82.7363281,52.346875 78.8355469,56.2476562 74.0410156,56.2476562 C69.2464844,56.2476562 65.3453125,52.346875 65.3453125,47.5519531 Z M60.8835938,74.7367187 C62.5339844,69.028125 67.8074219,64.8414062 74.040625,64.8414062 C80.2738281,64.8414062 85.5476563,69.028125 87.1976563,74.7367187 L60.8835938,74.7367187 Z" id="Shape"></path>
            </g>
            <g id="Group" transform="translate(96.687891, 106.830859)" fill="#C384F8">
                <path d="M46.584375,0 C20.8976562,0 0,20.8976563 0,46.584375 C0,72.2714844 20.8976562,93.1691406 46.584375,93.1691406 C72.2710937,93.1691406 93.1691406,72.2714844 93.1691406,46.584375 C93.1691406,20.8976563 72.2714844,0 46.584375,0 L46.584375,0 Z M46.584375,84.5753906 C25.6363281,84.5753906 8.59375,67.5328125 8.59375,46.584375 C8.59375,25.6363281 25.6363281,8.59375 46.584375,8.59375 C67.5324219,8.59375 84.5753906,25.6363281 84.5753906,46.584375 C84.5753906,67.5328125 67.5328125,84.5753906 46.584375,84.5753906 L46.584375,84.5753906 Z" id="Shape"></path>
                <path d="M66.478125,29.3949219 C64.5449219,28.0195313 61.8617187,28.4730469 60.4863281,30.4058594 L42.8652344,55.18125 L33.1320312,44.5507813 C31.5296875,42.8011719 28.8113281,42.68125 27.0613281,44.2832031 C25.3109375,45.8859375 25.1914063,48.6039063 26.79375,50.3542969 L40.1164062,64.9050781 C40.9328125,65.7964844 42.0839844,66.3 43.2851562,66.3 C43.3734375,66.3 43.4617187,66.2972656 43.55,66.2917969 C44.8453125,66.2117188 46.0351562,65.5511719 46.7871094,64.4933594 L67.4894531,35.3863281 C68.8648437,33.453125 68.4121094,30.7707031 66.478125,29.3949219 Z" id="Path"></path>
            </g>
        </g>
    </g>
</svg>