<?xml version="1.0" encoding="UTF-8"?>
<svg width="200px" height="180px" viewBox="0 0 200 180" version="1.1" xmlns="http://www.w3.org/2000/svg" xmlns:xlink="http://www.w3.org/1999/xlink">
    <title>course-why-dataset</title>
    <g id="Page-1" stroke="none" stroke-width="1" fill="none" fill-rule="evenodd">
        <g id="course-why-dataset" transform="translate(0.000000, -0.000000)" fill-rule="nonzero">
            <g id="Group" transform="translate(20.385782, -0.000000)">
                <path d="M19.3158843,89.7997068 C19.1651048,89.7997068 19.0131534,89.7918944 18.8600301,89.7754883 C8.04921613,88.6348763 1.80749056,85.2204622 0.309070179,79.627948 C-1.66239167,72.2702196 5.78283577,64.1617184 23.0701383,54.8391687 C25.1587863,53.7134003 27.7653971,54.4930789 28.8915561,56.5817269 C30.0177151,58.6703749 29.2376459,61.2769858 27.1489979,62.4031448 C10.7835599,71.228044 8.3624938,76.4799371 8.6097566,77.403364 C8.8132699,78.1611679 11.2124612,80.3267681 19.7619729,81.228711 C22.1217116,81.4779269 23.8330202,83.5927464 23.5841949,85.9528757 C23.3509944,88.1598818 21.4865626,89.7997068 19.3158843,89.7997068 Z" id="Path" fill="#293D56"></path>
                <path d="M151.061645,51.1856948 C149.994469,51.1856948 148.925732,50.7903868 148.093319,49.9950834 C146.377714,48.3552584 146.316386,45.6353676 147.956211,43.9201528 C150.352278,41.4135408 150.757351,39.8694178 150.618681,39.3526269 C150.377668,38.453809 145.408584,34.9370523 126.943952,35.4733743 C124.557651,35.5366548 122.59322,33.6749574 122.52408,31.3027188 C122.455331,28.9304803 124.322497,26.9519873 126.694736,26.8832381 C146.105842,26.3219164 156.947124,29.7675801 158.919758,37.1288242 C159.99709,41.1502626 158.39828,45.4330262 154.16825,49.8583662 C153.324119,50.740778 152.194054,51.1856948 151.061645,51.1856948 L151.061645,51.1856948 Z" id="Path" fill="#293D56"></path>
                <g transform="translate(20.852976, -0.000000)" fill="#C384F8" id="Combined-Shape">
                    <path d="M117.522876,58.3785814 C117.522876,90.7789925 91.1622397,117.139238 58.761438,117.139238 C26.3602457,117.139238 -1.42108547e-14,90.7789925 -1.42108547e-14,58.3778001 C2.95426312,-19.4701386 114.580332,-19.4486545 117.522876,58.3785814 Z M58.761438,8.21040454 C31.0988635,8.21040454 8.59365182,30.7156162 8.59365182,58.3781908 C11.1158886,124.841103 106.417144,124.822744 108.928834,58.3774095 C108.928834,30.7156162 86.423622,8.21040454 58.761438,8.21040454 Z M69.8484208,88.5532367 C75.5432776,88.7645624 75.5389807,96.9375159 69.8484208,97.1468885 C64.1535639,96.936344 64.1547358,88.7629999 69.8456864,88.5532367 L69.8484208,88.5532367 Z M54.0482106,47.7130782 C54.0482106,54.9086992 48.19359,60.7629291 40.9979691,60.7629291 C33.8023482,60.7629291 27.9481182,54.9086992 27.9481182,47.7130782 C28.6043607,30.4242133 53.3947025,30.4289007 54.0482106,47.7130782 Z M40.9979691,43.2564885 C38.5405753,43.2564885 36.54177,45.2556844 36.54177,47.7130782 C36.7655956,53.616917 45.2311239,53.6149639 45.4545588,47.7130782 C45.4545588,45.2556844 43.4549723,43.2564885 40.9979691,43.2564885 Z M86.5767453,39.5350467 C92.2716021,39.7463724 92.2673052,47.9197165 86.5767453,48.1286985 C80.8818884,47.918154 80.8830603,39.7448099 86.5740109,39.5350467 L86.5767453,39.5350467 Z"></path>
                </g>
                <path d="M28.0716436,90.2161083 C24.7451191,90.2161083 21.6615606,90.0711881 18.8596395,89.7754883 C16.4999008,89.5262724 14.7885923,87.4114528 15.0374175,85.0513235 C15.2866334,82.6911942 17.4018436,80.9822294 19.7615823,81.2291016 C48.5370348,85.7614717 130.630238,63.2945408 147.955821,43.9185903 C149.595646,42.2045474 152.315927,42.1428294 154.031142,43.783045 C155.746357,45.42287 155.807684,48.1427608 154.16825,49.8579756 C136.330954,69.8499347 60.8189257,91.4344537 28.0716436,90.2161083 Z" id="Path" fill="#293D56"></path>
            </g>
            <path d="M199.852571,142.503792 C199.238516,140.212021 196.884246,138.850318 194.590131,139.465546 L191.287825,140.350301 L188.189032,129.036368 C187.56443,126.756316 185.216019,125.408284 182.932452,126.021168 L128.190108,140.68936 L181.990275,108.204575 C184.021502,106.978026 184.674229,104.33665 183.44729,102.305423 C182.220741,100.273415 179.579365,99.621079 177.548138,100.848018 L100.000587,147.671702 L22.4971753,100.848799 C20.4655579,99.621079 17.8245725,100.273025 16.5976334,102.304642 C15.3703036,104.335869 16.0222493,106.977245 18.0534761,108.204184 L71.8364554,140.696391 L17.0675499,126.021559 C15.9570157,125.723906 14.7734355,125.88406 13.7816499,126.465304 C12.7898644,127.046937 12.0726851,128.001614 11.7902664,129.116054 L8.92779912,140.408113 L5.40987056,139.465546 C3.11614677,138.849537 0.761486171,140.211631 0.147430686,142.503792 C-0.466624798,144.795953 0.893515912,147.152177 3.18567723,147.766232 L85.05232,169.70231 C90.715146,182.521304 109.288762,182.515444 114.947291,169.70231 L196.813934,147.766232 C199.106486,147.152177 200.466626,144.795953 199.852571,142.503792 Z M182.986748,142.574494 L114.363704,160.961784 C113.116453,158.603218 111.368816,156.386446 109.239153,154.663809 L181.029349,135.427701 L182.986748,142.574494 Z M19.0507303,135.449576 L90.9807679,154.723184 C88.9436818,156.451289 87.2651854,158.675482 86.0456681,161.071939 L17.2296574,142.632697 L19.0507303,135.449576 Z M100.000196,170.790578 C97.0174177,170.790578 94.3455733,169.080832 93.0451975,166.490237 C94.279949,163.098479 97.156088,159.795782 100.000196,159.795782 C102.934538,159.795782 105.895441,162.806685 107.213786,165.916415 C106.038408,168.826148 103.197816,170.790578 100.000196,170.790578 Z" id="Shape" fill="#293D56"></path>
        </g>
    </g>
</svg>