<?xml version="1.0" encoding="UTF-8"?>
<svg width="100px" height="85px" viewBox="0 0 100 85" version="1.1" xmlns="http://www.w3.org/2000/svg" xmlns:xlink="http://www.w3.org/1999/xlink">
    <title>role-se</title>
    <g id="Page-1" stroke="none" stroke-width="1" fill="none" fill-rule="evenodd">
        <g id="role-se" fill-rule="nonzero">
            <path d="M56.2785674,84.9462366 C55.915599,84.9458071 55.5947234,84.7169664 55.4854402,84.3805975 C55.3761572,84.0442284 55.5036412,83.6778169 55.8005499,83.4749169 L56.9797708,82.6656102 L53.1156569,84.831315 C52.7364953,85.0265611 52.2667433,84.9098626 52.030514,84.5617374 C51.7942847,84.2136123 51.8689211,83.748039 52.2029266,83.4862472 L56.3435245,80.4885751 L48.5919788,84.831315 C48.2107993,85.0404883 47.7280479,84.9271623 47.4871543,84.5719571 C47.2462606,84.2167521 47.3294682,83.7409383 47.6775829,83.48301 L51.9031247,80.4076444 L44.0299926,84.831315 C43.6498404,85.0447224 43.1645019,84.9346829 42.9207741,84.579825 C42.6770464,84.224967 42.7586472,83.7471803 43.1072688,83.4878658 L48.0506697,79.8136133 L39.1065785,84.831315 C38.7223597,85.0392777 38.2379727,84.9210516 38.0004629,84.5613411 C37.7629532,84.2016307 37.8542044,83.7244492 38.2088383,83.4716797 L40.084266,82.1767889 L35.3507264,84.831315 C34.9729515,85.0416538 34.4922144,84.9337015 34.2476916,84.5836221 C34.0031688,84.2335426 34.0773986,83.7595051 34.4180093,83.4959589 L40.034299,79.1953029 L29.9876028,84.831315 C29.6125641,85.0387364 29.1366104,84.933395 28.8909846,84.5886039 C28.6453589,84.243813 28.7114349,83.7737986 29.0432267,83.5056706 L35.2957627,78.5251969 L24.0548556,84.831315 C23.6702253,85.0445369 23.1811538,84.9279597 22.9417014,84.5659784 C22.702249,84.2039972 22.7961608,83.7232101 23.1554497,83.4716797 L25.1541293,82.092621 L20.262361,84.831315 C19.8806105,85.0422267 19.3959371,84.9288282 19.154794,84.5721789 C18.913651,84.2155295 18.9989119,83.7381986 19.3496307,83.4813914 L23.2653771,80.6617667 L16.0817895,84.6953515 C15.7014016,84.9057667 15.2183204,84.7941121 14.9761397,84.4398027 C14.733959,84.0854934 14.8153386,83.6094598 15.1623969,83.3502837 L19.6860751,80.0143213 L13.4635192,83.504052 C13.0967138,83.7027314 12.6350785,83.604928 12.3866542,83.2759042 C12.1382298,82.9468804 12.1807457,82.4895843 12.4858318,82.2091612 L17.9822007,77.3371346 L11.2616405,81.108504 C10.8868481,81.318653 10.4088885,81.2148544 10.1618003,80.8696517 C9.91471212,80.524449 9.98082485,80.0528631 10.3139333,79.7844782 L12.0311322,78.4038009 L9.9774889,79.5546351 C9.63053947,79.747533 9.19149715,79.6736689 8.93146539,79.3786528 C8.67143364,79.0836369 8.66376384,78.650689 8.91319201,78.3471494 L11.0501136,75.7670796 L8.18200839,77.385693 C7.91269877,77.5368196 7.57917966,77.5295318 7.31713211,77.3667943 C7.05508456,77.2040568 6.9081735,76.9129865 6.93616477,76.6119958 L7.16268179,74.1840756 C6.81252865,74.1337829 6.53334621,73.8738863 6.46659973,73.5360788 C6.39985326,73.1982712 6.5601281,72.8563702 6.86621099,72.6836209 L7.69899415,72.2158416 C7.96803495,72.0649417 8.30113499,72.0721018 8.56304686,72.2344147 C8.82495875,72.3967278 8.97214255,72.6872108 8.94483777,72.9879203 L8.73164528,75.195709 L14.0847755,72.2061299 C14.4318244,72.011258 14.8724853,72.0842815 15.133467,72.3799127 C15.3944487,72.6755437 15.4017059,73.1099064 15.1507379,73.4136156 L13.0138163,75.9823552 L19.7643567,72.1947997 C20.1386699,71.9856481 20.6153928,72.0892039 20.8624464,72.4333316 C21.1095,72.7774592 21.0449363,73.248011 20.7137295,73.5172069 L18.9965306,74.8978841 L23.826673,72.193181 C24.1934783,71.9945016 24.6551137,72.092305 24.9035381,72.4213288 C25.1519624,72.7503526 25.1094465,73.2076487 24.8043604,73.4880718 L19.3079915,78.3584797 L30.3140538,72.185088 C30.6944417,71.9746728 31.1775231,72.0863273 31.4197037,72.4406368 C31.6618844,72.7949461 31.5805047,73.2709797 31.2334465,73.5301558 L26.7081027,76.8661181 L35.0475934,72.1867066 C35.4293438,71.9757949 35.9140173,72.0891934 36.1551603,72.4458427 C36.3963034,72.8024921 36.3110425,73.2798229 35.9603237,73.5366302 L32.049574,76.3546363 L39.4863276,72.1834694 C39.8709579,71.9702475 40.3600294,72.0868247 40.5994817,72.4488059 C40.8389342,72.8107871 40.7450224,73.2915742 40.3857335,73.5431047 L38.3870539,74.9270192 L43.2838189,72.1753763 C43.6588576,71.9679549 44.1348114,72.0732963 44.3804371,72.4180874 C44.6260628,72.7628783 44.5599868,73.2328927 44.228195,73.5010207 L37.975659,78.483113 L49.2265596,72.1705205 C49.6043345,71.9601816 50.0850716,72.0681339 50.3295944,72.4182133 C50.5741171,72.7682929 50.4998874,73.2423304 50.1592767,73.5058766 L44.5413215,77.8113884 L54.5896832,72.1753763 C54.973902,71.9674136 55.458289,72.0856397 55.6957987,72.4453502 C55.9333085,72.8050606 55.8420573,73.2822421 55.4874234,73.5350116 L53.6203235,74.8299024 L58.3472008,72.1769949 C58.727353,71.9635875 59.2126915,72.073627 59.4564193,72.4284849 C59.700147,72.7833429 59.6185462,73.2611296 59.2699246,73.5204441 L54.3231925,77.1995525 L63.2756116,72.1818507 C63.6567911,71.9726775 64.1395425,72.0860034 64.380436,72.4412086 C64.6213297,72.7964137 64.5381222,73.2722274 64.1900075,73.5301558 L59.9661313,76.6055214 L67.84426,72.185088 C68.2260105,71.9741763 68.710684,72.0875748 68.951827,72.4442241 C69.19297,72.8008734 69.1077092,73.2782043 68.7569904,73.5350116 L64.6180581,76.5326838 L72.3712693,72.1818507 C72.7572522,71.9627465 73.2523874,72.0788587 73.4930687,72.4449195 C73.7337499,72.8109804 73.6341206,73.2964074 73.267344,73.5447233 L72.0864575,74.35403 L75.9555681,72.1834694 C76.3404153,71.9733599 76.8271057,72.0915714 77.0649795,72.4529327 C77.3028532,72.814294 77.2092642,73.2932542 76.8516428,73.5447233 L75.4425737,74.5158914 L79.593165,72.1867066 C79.9604856,72.0281823 80.391902,72.1472228 80.6186941,72.4696802 C80.8454865,72.7921378 80.8029392,73.2259987 80.5175543,73.5010207 L75.3209873,77.4018792 L84.66648,72.1575715 C85.0474273,71.9454637 85.5323875,72.057197 85.7748066,72.4129266 C86.0172258,72.7686561 85.9338269,73.2461797 85.5842071,73.504258 L81.1521351,76.7414849 L89.3267346,72.1559529 C89.7058553,71.9378781 90.1941589,72.0444831 90.4408721,72.3991881 C90.6875853,72.753893 90.6073424,73.233966 90.2577862,73.4945463 L84.6814701,77.7498811 L93.3840542,72.8697615 C93.7588528,72.6658672 94.2317387,72.7724391 94.4759382,73.1158336 C94.7201377,73.4592283 94.6555319,73.9267819 94.3267648,74.1954059 L88.9736346,78.4507407 L92.4530026,76.5084045 C92.8209494,76.2402239 93.342939,76.3126917 93.6188991,76.6702659 C93.8948591,77.0278401 93.8202892,77.5351147 93.4523424,77.8032953 L89.3783672,81.5698089 C89.4394786,81.6223455 89.4907596,81.6847764 89.5299337,81.7543308 C89.7601694,82.1409826 89.6244901,82.6357992 89.2268006,82.8598438 L85.9689529,84.6694537 C85.6010371,84.8906097 85.120142,84.8011745 84.8622465,84.4636322 C84.6043512,84.1260898 84.6553475,83.6528584 84.9796065,83.3745629 L87.2247899,81.2978818 L80.9206213,84.831315 C80.5458228,85.0352093 80.0729368,84.9286374 79.8287373,84.5852429 C79.5845378,84.2418482 79.6491436,83.7742945 79.9779108,83.5056706 L85.3327065,79.2487172 L75.3776166,84.831315 C74.9993212,85.0430108 74.5170073,84.9349137 74.2723409,84.5835767 C74.0276746,84.2322398 74.1037013,83.7569252 74.446565,83.4943403 L80.0178844,79.2422427 L70.0561321,84.831315 C69.6751848,85.0434228 69.1902247,84.9316896 68.9478055,84.57596 C68.7053863,84.2202305 68.7887852,83.7427068 69.1384051,83.4846286 L73.5654804,80.2474017 L65.4042054,84.8280778 C65.0251406,85.038319 64.5433556,84.9284836 64.3000435,84.5763555 C64.0567312,84.2242275 64.1344457,83.7492808 64.4781505,83.4878658 L69.6780486,79.5853888 L60.3292247,84.831315 C59.9453918,85.0347024 59.4650681,84.9150277 59.2292787,84.557259 C58.9934893,84.19949 59.0825157,83.7254401 59.4331501,83.4716797 L60.8355569,82.5102233 L56.6999557,84.831315 C56.5727784,84.9059655 56.4271421,84.9456835 56.2785674,84.9462366 L56.2785674,84.9462366 Z" id="Path" fill="#D4E8FA"></path>
            <path d="M12.7127654,69.8924731 C12.3411493,69.8924731 12.0144781,69.6461727 11.9120299,69.2891744 C11.8095818,68.9321762 11.9561382,68.550537 12.2712687,68.3537016 L51.1562985,44.0445231 L8.80260405,68.4819076 C8.4096957,68.6917745 7.92110847,68.5555381 7.69367118,68.1726952 C7.46623387,67.7898524 7.58046181,67.2959339 7.95293116,67.0516621 L36.4502934,49.607329 L8.80260405,65.5631411 C8.4087849,65.7771781 7.91610056,65.6413581 7.68777191,65.2558115 C7.45944327,64.8702648 7.57736294,64.3732721 7.95459719,64.1312306 L20.3314989,56.6453357 L8.79593995,63.3053846 C8.40282431,63.5125244 7.91622943,63.3747789 7.69020569,62.9923731 C7.46418198,62.6099671 7.57833191,62.1175788 7.94959911,61.873474 L17.0777516,56.3672786 L8.80260405,61.1408687 C8.41052883,61.3473736 7.92530858,61.2109157 7.69852941,60.8303712 C7.47175023,60.4498268 7.58282287,59.9584501 7.95126514,59.7122882 L38.071336,41.2406425 L8.80260405,58.1288615 C8.4090764,58.3504264 7.91055926,58.218191 7.67877013,57.8307559 C7.44698101,57.4433211 7.56637798,56.941858 7.94793309,56.7002811 L47.5243634,32.1197055 L8.80093803,54.4625046 C8.40782239,54.6696445 7.9212275,54.531899 7.69520377,54.1494931 C7.46918005,53.7670871 7.58332999,53.2746989 7.95459719,53.0305941 L20.1615643,45.6545899 L8.80093803,52.2097431 C8.40620639,52.4460703 7.89451564,52.3178525 7.65804471,51.923361 C7.4215738,51.5288693 7.54986942,51.0174898 7.94460104,50.7811626 L46.5547367,26.7533711 L8.80093803,48.5367261 C8.40711887,48.7507631 7.91443453,48.6149431 7.68610589,48.2293965 C7.45777724,47.8438497 7.57569691,47.3468571 7.95293116,47.1048156 L23.4969469,37.6542062 L8.80093803,46.1307834 C8.40605912,46.3506177 7.90780809,46.2156135 7.67811513,45.8265477 C7.44842216,45.437482 7.57111068,44.9363391 7.95459719,44.6972079 L9.31573984,43.8763569 L8.80093803,44.1727291 C8.40620639,44.4090562 7.89451562,44.2808386 7.65804469,43.886347 C7.42157376,43.4918553 7.5498694,42.9804757 7.94460104,42.7441486 L34.4743874,26.2189022 L8.80093803,41.037511 C8.40856828,41.257226 7.91253052,41.125988 7.68033538,40.7410303 C7.44814022,40.3560725 7.56364318,39.8564196 7.94126899,39.6122606 L33.8263036,23.3184509 L8.80093803,37.7574369 C8.40964838,37.9760219 7.915439,37.8459497 7.68263329,37.4631074 C7.44982759,37.080265 7.56191698,36.5819518 7.93627091,36.3355165 L34.0928677,19.5921535 L8.80093803,34.1843207 C8.40741038,34.4058855 7.90889323,34.2736501 7.6771041,33.8862151 C7.44531499,33.4987802 7.56471196,32.9973172 7.94626706,32.7557402 L16.8978208,27.1962644 L8.80093803,31.8682887 C8.54529383,32.0205707 8.22777794,32.0249835 7.96799551,31.8798647 C7.70821309,31.7347459 7.54563127,31.4621428 7.54149305,31.1647419 C7.53735482,30.8673411 7.69228889,30.5903252 7.94793309,30.4380432 L8.67765216,29.9884899 C8.27648022,30.1417811 7.82445123,29.9651181 7.63375717,29.5805124 C7.44306314,29.1959069 7.57622237,28.7294503 7.94126899,28.503299 L15.8582211,23.5265774 L8.80093803,27.6008624 C8.41034693,27.8440862 7.89641845,27.724814 7.65304662,27.3344604 C7.40967478,26.9441068 7.52901956,26.4304908 7.91961066,26.187267 L26.4474777,13.7379706 L8.80093803,23.9178553 C8.41354353,24.1355833 7.92334399,24.0110142 7.68706535,23.6347992 C7.4507867,23.2585842 7.55166021,22.7632481 7.91627861,22.509255 L21.9975242,12.9487548 L8.80093803,20.5661857 C8.4121741,20.8034536 7.90480473,20.684634 7.66198684,20.2994577 C7.41916895,19.9142813 7.53096417,19.4056106 7.91294656,19.1575854 L18.2006526,12.0829484 L8.80093803,17.5075582 C8.40988688,17.7498625 7.89633134,17.6294721 7.65387963,17.2386588 C7.41142792,16.8478454 7.53189156,16.3346021 7.92294271,16.0922978 L10.445305,14.4106355 L8.80093803,15.3596925 C8.41374262,15.5808891 7.92091721,15.45807 7.68297962,15.0810812 C7.44504204,14.7040925 7.54641752,14.2066976 7.91294656,13.9527571 L10.511946,12.167864 L8.80093803,13.1552163 C8.4170552,13.3753916 7.92790926,13.2570972 7.68722282,12.8858769 C7.44653637,12.5146566 7.53835747,12.0201412 7.8962863,11.759936 L10.8351549,9.63871045 L8.80760213,10.804219 C8.44240119,11.0123854 7.97922892,10.9159537 7.727584,10.579361 C7.47593908,10.2427683 7.51470729,9.77152986 7.81798312,9.48053429 L12.4661936,5.05992683 L8.80093803,7.17116233 C8.47587049,7.35046248 8.07130904,7.29310974 7.80896032,7.03053441 C7.54661161,6.76795909 7.48981942,6.36355967 7.66970687,6.03895402 L9.33573214,3.12518262 L9.29574753,3.14849279 C8.89768415,3.37467662 8.39157857,3.23735579 8.16262165,2.84104354 C7.93366475,2.44473128 8.06770896,1.93803371 8.4627349,1.7065922 L11.1816881,0.136485669 C11.5082747,-0.053440777 11.9218693,0 12.1892488,0.266932917 C12.4566283,0.533759185 12.5108134,0.947023562 12.3212494,1.27368902 L10.6552242,4.18080037 L17.6891828,0.128160608 C18.0573224,-0.103588797 18.5419154,-0.0131594026 18.8015684,0.335741712 C19.0612216,0.684642826 19.0084661,1.17448218 18.6804679,1.46017039 L14.0305914,5.86745776 L23.9967545,0.128160608 C24.3802449,-0.0866619501 24.8647623,0.0333266233 25.1035159,0.402245164 C25.3422695,0.771163688 25.2530607,1.26200007 24.8997402,1.52344085 L21.9625377,3.63800638 L28.0551921,0.128160608 C28.4423875,-0.0930360332 28.9352129,0.0297831109 29.1731505,0.406771849 C29.4110881,0.783760588 29.3097126,1.28115548 28.9431835,1.53509594 L26.3441841,3.32165406 L31.877054,0.128160608 C32.2661461,-0.0930259432 32.7605879,0.0326491464 32.9966643,0.412738321 C33.2327408,0.792827495 33.1260389,1.29142377 32.7550494,1.54175599 L30.2360192,3.21675829 L35.5972885,0.128160608 C35.9844839,-0.0930360332 36.4773093,0.0297831109 36.7152469,0.406771849 C36.9531845,0.783760588 36.851809,1.28115548 36.4852799,1.53509594 L26.202572,8.60140783 L40.8985809,0.128160608 C41.287378,-0.102055721 41.7889371,0.0195324465 42.0289795,0.402192366 C42.2690221,0.784852286 42.1599874,1.28900026 41.7832403,1.53842596 L27.7086588,11.0922661 L46.709677,0.128160608 C47.0986041,-0.0971140144 47.5962266,0.0266411663 47.834152,0.407809502 C48.0720774,0.788977854 47.9644755,1.29005508 47.5910044,1.54009098 L29.0614713,13.9860574 L53.0888878,0.128160608 C53.4831593,-0.109545878 53.9955961,0.0171808665 54.2334472,0.411212687 C54.4712982,0.805244524 54.3444944,1.3173696 53.9502229,1.55507609 L46.0316047,6.52513759 L57.1289991,0.128160608 C57.5241908,-0.107706739 58.0358816,0.0212563502 58.2718924,0.41620774 C58.5079032,0.811159113 58.3788617,1.32253875 57.98367,1.55840611 L57.5904881,1.79983288 L60.487706,0.134820657 C60.8812337,-0.0867442184 61.3797508,0.0454912858 61.6115399,0.432926244 C61.8433291,0.820361203 61.7239321,1.32182421 61.342377,1.56340115 L52.377495,7.12121196 L64.5044929,0.128160608 C64.8957826,-0.0904244282 65.389992,0.0396478588 65.6227977,0.422490198 C65.8556035,0.805332553 65.7435139,1.30364572 65.3691601,1.55008105 L39.2125633,18.295109 L70.7021069,0.128160608 C71.0963785,-0.109086052 71.6084422,0.0180134059 71.8458333,0.412045226 C72.0832242,0.80607703 71.9560475,1.31782936 71.561776,1.55507609 L45.6800734,17.8305706 L76.373257,0.128160608 C76.766728,-0.0985837706 77.2694253,0.031476495 77.5033749,0.420550175 C77.7373247,0.809623839 77.6162829,1.31428189 77.23126,1.55507609 L50.6948095,18.0769924 L81.8078314,0.128160608 C82.0640708,-0.0232291135 82.3816603,-0.0265000133 82.6409672,0.119580018 C82.900274,0.265660065 83.0619033,0.538898029 83.0649706,0.836367781 C83.0680381,1.13383755 82.9120776,1.41034641 82.6558383,1.56173614 L81.3046918,2.37759213 L85.209855,0.128160608 C85.6036742,-0.085876364 86.0963585,0.0499436617 86.3246871,0.43549028 C86.5530157,0.821036915 86.4350961,1.31802956 86.0578619,1.56007112 L70.5255083,11.0006905 L88.9617439,0.362927332 C89.354274,0.146867537 89.8474981,0.279876556 90.077992,0.663948855 C90.3084859,1.04802114 90.1936418,1.54550736 89.8180809,1.78984281 L51.2012812,25.8226293 L91.0292813,2.84213054 C91.4253931,2.6081023 91.9363379,2.73930175 92.1705086,3.13517269 C92.4046793,3.53104363 92.2734,4.04167783 91.8772881,4.27570607 L79.7053075,11.6300651 L91.1725594,5.01330648 C91.5660871,4.79174161 92.0646042,4.92397711 92.2963933,5.31141207 C92.5281826,5.69884703 92.4087855,6.20031003 92.0272304,6.44188697 L52.4574642,31.0158024 L91.1758915,8.67633338 C91.5695474,8.45882298 92.0648894,8.59293017 92.2948595,8.97927899 C92.5248297,9.3656278 92.4063563,9.86465809 92.0272304,10.1065789 L61.8904993,28.5882146 L91.1775575,11.6883405 C91.5741293,11.4552318 92.0847013,11.5875494 92.3179518,11.9838802 C92.5512024,12.3802109 92.4188042,12.8904724 92.0222323,13.123581 L82.8907478,18.6297765 L91.1792235,13.8478614 C91.5741025,13.6280272 92.0723535,13.7630313 92.3020464,14.152097 C92.5317393,14.5411628 92.4090509,15.0423057 92.0255644,15.2814369 L79.6419986,22.7723269 L91.1825556,16.112278 C91.575464,15.902411 92.0640512,16.0386475 92.2914885,16.4214904 C92.5189258,16.8043332 92.4046978,17.2982517 92.0322285,17.5425235 L63.5132079,34.9935166 L91.1842216,19.0277144 C91.5767517,18.8116546 92.0699758,18.9446636 92.3004697,19.328736 C92.5309636,19.7128082 92.4161195,20.2102945 92.0405586,20.4546299 L53.1521968,44.7588134 L91.1858876,22.8172822 C91.5794153,22.5957174 92.0779324,22.7279528 92.3097215,23.1153879 C92.5415108,23.5028227 92.4221137,24.0042858 92.0405586,24.2458627 L62.4552819,42.6159426 L91.1875537,26.0390809 C91.582383,25.8142258 92.0846815,25.9471139 92.3164784,26.3377493 C92.5482751,26.7283848 92.4240261,27.2326043 92.0372266,27.4709914 L86.7625906,30.6711449 L91.1892197,28.1170161 C91.5834912,27.8797696 92.0955549,28.0068689 92.332946,28.4009007 C92.570337,28.7949325 92.4431603,29.3066849 92.0488887,29.5439316 L67.1201526,45.1484262 L91.1908857,31.2638893 C91.5845417,31.0463789 92.0798836,31.1804861 92.3098538,31.5668349 C92.5398239,31.9531837 92.4213505,32.452214 92.0422246,32.6941348 L87.0841334,35.727787 L91.1925518,33.3568096 C91.5877434,33.121402 92.0990613,33.2507379 92.3346121,33.6456892 C92.5701629,34.0406406 92.4407484,34.5516475 92.0455567,34.7870551 L88.7951414,36.7850698 L91.1942178,35.3997796 C91.586649,35.1597743 92.0994588,35.2831465 92.3396101,35.6753392 C92.5797615,36.0675318 92.4563142,36.5800297 92.063883,36.8200351 L68.8711452,51.8051451 L91.1958838,38.9212805 C91.5883151,38.6812751 92.1011248,38.8046474 92.3412762,39.19684 C92.5814276,39.5890326 92.4579802,40.1015306 92.065549,40.3415359 L73.9058735,52.0965222 L91.1942178,42.119769 C91.5843487,41.8756256 92.0986502,41.9937797 92.3429422,42.3836734 C92.587234,42.7735672 92.4690082,43.2875559 92.0788772,43.5316993 L72.7679783,56.5720751 L91.2025479,45.934312 C91.5924023,45.7028773 92.0958733,45.8255899 92.3353428,46.2104116 C92.5748123,46.5952334 92.4623069,47.1007938 92.0822092,47.3479074 L79.8835722,55.4848221 L91.2125441,48.9513141 C91.5983622,48.7358571 92.0853899,48.8590353 92.322212,49.2319693 C92.5590342,49.6049034 92.4632039,50.0977605 92.1038676,50.3549195 L80.5116637,58.4035886 L91.207546,52.2313882 C91.5899866,52.0124523 92.0768863,52.129126 92.3184023,52.4975781 C92.5599183,52.86603 92.4731183,53.3587326 92.1188618,53.6216734 L82.2226717,60.9327421 L91.2192082,55.7478941 C91.5960691,55.5340384 92.0740504,55.6446896 92.318443,56.0023634 C92.5628354,56.3600373 92.491989,56.8452374 92.1555144,57.1181991 L85.1015634,62.7326204 L91.2142101,59.2061245 C91.5867593,58.9944996 92.0591828,59.0998759 92.306339,59.4497292 C92.5534951,59.7995826 92.4947389,60.2797583 92.1705086,60.5597794 L88.441944,63.7382877 L91.2158761,62.138211 C91.5700399,61.9360505 92.0185854,62.0199014 92.2756863,62.3363313 C92.5327869,62.6527614 92.5228231,63.1087002 92.2521438,63.4136104 L90.222925,65.674697 L91.2225402,65.1002677 C91.5125492,64.9290595 91.877756,64.9521599 92.1438522,65.1585432 C92.4113039,65.3626399 92.5296168,65.7075094 92.4437367,66.0326746 L91.9905779,67.7676173 C92.145981,67.8374211 92.2758172,67.9537953 92.3621015,68.1006198 C92.5909879,68.4984193 92.454624,69.0063082 92.0572189,69.2361581 L91.2242062,69.7173466 C90.93302,69.8860587 90.5688537,69.8630659 90.3012282,69.6590712 C90.035052,69.4548303 89.9174966,69.1109109 90.0030097,68.7866048 L90.3362148,67.5311856 L86.531013,69.7256717 C86.1767343,69.9301191 85.7263398,69.8472039 85.468208,69.5300153 C85.2100764,69.2128265 85.2206164,68.7552541 85.4930793,68.4502723 L87.5206321,66.1908508 L81.387993,69.7290017 C81.0152325,69.9441676 80.5398281,69.8400534 80.2912618,69.4888159 C80.0426955,69.1375786 80.1028473,68.6549185 80.4300285,68.3753468 L84.1585931,65.2001685 L76.2999519,69.7323318 C75.9230909,69.9461874 75.4451096,69.8355362 75.200717,69.4778624 C74.9563246,69.1201885 75.027171,68.6349885 75.3636457,68.3620267 L82.4109325,62.7476055 L70.2955968,69.7406568 C69.913512,69.9546489 69.4308712,69.836382 69.1911685,69.4700266 C68.9514658,69.1036711 69.036585,68.6143761 69.385947,68.3503716 L79.275473,61.045963 L64.1946122,69.7456519 C63.8087941,69.9611089 63.3217664,69.8379307 63.0849443,69.4649967 C62.8481221,69.0920626 62.9439524,68.5992055 63.3032887,68.3420465 L74.8904945,60.2867174 L58.4834776,69.7506469 C58.0943856,69.9718334 57.5999438,69.8461583 57.3638673,69.4660692 C57.1277909,69.08598 57.2344928,68.5873838 57.6054823,68.3370515 L69.8007873,60.2034668 L53.2488262,69.7539769 C52.8606968,69.9750391 52.3671791,69.8507614 52.130209,69.4722865 C51.8932389,69.0938117 51.9971926,68.5959008 52.3658328,68.3437116 L71.691726,55.2866857 L46.6180456,69.7573069 C46.2256144,69.9973123 45.7128046,69.87394 45.4726533,69.4817474 C45.2325019,69.0895548 45.3559492,68.5770569 45.7483804,68.3370515 L63.8947277,56.5903902 L41.0701815,69.760637 C40.6777502,70.0006423 40.1649405,69.8772701 39.9247891,69.4850774 C39.6846377,69.0928848 39.808085,68.5803869 40.2005163,68.3403815 L63.4049163,53.3552715 L34.9508707,69.7722921 C34.555219,70.0076996 34.0435282,69.877991 33.8079773,69.4825799 C33.5724265,69.0871688 33.7022141,68.5757891 34.0978657,68.3403815 L37.3299548,66.362347 L31.413899,69.7756221 C31.1579572,69.9276067 30.8403252,69.9315859 30.5806516,69.7860609 C30.3209781,69.6405358 30.1587138,69.3676152 30.1549822,69.0701056 C30.1512505,68.7725959 30.3066183,68.4956962 30.5625601,68.3437116 L35.4923289,65.3167193 L27.7736338,69.768962 C27.3793623,70.0062088 26.8672986,69.8791092 26.6299075,69.4850774 C26.3925164,69.0910456 26.5196932,68.5792933 26.9139648,68.3420465 L51.8560291,52.7308919 L22.3307292,69.7722921 C21.9346174,70.0063203 21.4236726,69.8751209 21.1895019,69.4792499 C20.9553313,69.0833789 21.0866105,68.5727448 21.4827224,68.3387165 L26.7790167,65.1252429 L18.7221185,69.7739571 C18.3285908,69.9955219 17.8300738,69.8632865 17.5982847,69.4758514 C17.3664954,69.0884166 17.4858924,68.5869535 17.8674475,68.3453766 L47.4527243,49.9719666 L13.1292717,69.7772871 C13.003152,69.8519707 12.8593611,69.8916328 12.7127654,69.8924731 Z" id="Path" fill="#293D56"></path>
            <path d="M63.236842,66.6666667 C62.9262419,66.6665658 62.6391678,66.5105129 62.483291,66.2570316 C62.3274143,66.0035504 62.3262949,65.6909527 62.4803526,65.4364834 L63.3518842,63.9990841 C62.9956812,63.9320091 62.7209171,63.6635263 62.6623355,63.325299 C62.6037541,62.9870717 62.77364,62.6500282 63.0886816,62.4794537 L65.0478846,61.4186727 C65.3889137,61.2316638 65.8205485,61.2840785 66.1002772,61.546468 C66.3800059,61.8088575 66.4380849,62.2158012 66.2418829,62.53866 L65.5882342,63.6208211 L69.6286547,61.4186727 C69.8988199,61.2566286 70.2413955,61.2473789 70.5209399,61.3945808 C70.8004844,61.5417825 70.9719945,61.8217377 70.9677419,62.1237631 C70.963329,62.4257885 70.783851,62.7012615 70.5001863,62.8412704 L63.6708647,66.5564707 C63.5392448,66.6291775 63.3893591,66.6672304 63.236842,66.6666667 L63.236842,66.6666667 Z" id="Path" fill="#CDD0DA"></path>
            <path d="M75.7131234,76.344086 C75.348948,76.344086 75.0272237,76.103505 74.9197499,75.7505118 C74.8122762,75.3975188 74.9441553,75.014682 75.2449642,74.8064354 L76.4286433,73.9862429 L72.5953823,76.2245096 C72.2198529,76.4408264 71.7435603,76.3289018 71.5000312,75.9671118 C71.2565022,75.6053217 71.3270983,75.1145378 71.6623842,74.8384347 L79.5912082,68.3998389 L66.2287491,76.2245096 C65.8514471,76.4418172 65.3728287,76.3276916 65.1304579,75.962624 C64.8880869,75.5975565 64.9637364,75.1047164 65.3040517,74.831698 L72.7995794,68.8983543 L60.293752,76.2245096 C59.9120632,76.4482075 59.4245861,76.3302304 59.1835462,75.9558225 C58.9425063,75.5814145 59.031979,75.0811706 59.3873161,74.8165405 L65.1446783,70.5303186 L55.4179237,76.2245096 C55.040861,76.4447898 54.5601187,76.3323045 54.3162496,75.9667369 C54.0723805,75.6011695 54.1481595,75.1066028 54.489906,74.8333822 L62.0734211,68.8141456 L49.3999197,76.2245096 C49.0265816,76.4393444 48.5533683,76.3300053 48.3085609,75.9723439 C48.0637533,75.6146823 48.1280994,75.1266706 48.4569607,74.8468556 L50.6649456,73.0127905 L45.1665651,76.2245096 C44.8113978,76.4312564 44.3606764,76.3443629 44.1050256,76.0198578 C43.8493748,75.6953526 43.865184,75.230199 44.1422593,74.9243276 L48.0103833,70.6869467 L38.5475908,76.2245096 C38.1725584,76.4396832 37.6975926,76.3279917 37.4541248,75.9673734 C37.2106568,75.6067553 37.2796377,75.1171129 37.6129325,74.8401189 L39.4590071,73.3243626 L34.5234138,76.2245096 C34.157288,76.4402173 33.6898052,76.3418098 33.4385053,75.996131 C33.1872052,75.6504522 33.2326331,75.1682965 33.5439317,74.8771707 L36.9787594,71.6469257 L29.1611647,76.2245096 C28.7950389,76.4402173 28.3275561,76.3418098 28.0762562,75.996131 C27.8249561,75.6504522 27.870384,75.1682965 28.1816826,74.8771707 L31.8007857,71.4700875 L23.684366,76.2245096 C23.3110279,76.4393444 22.8378146,76.3300053 22.5930072,75.9723439 C22.3481996,75.6146823 22.4125458,75.1266706 22.741407,74.8468556 L28.5236713,69.9930672 L17.8838402,76.2245096 C17.5044597,76.4405044 17.0250582,76.3227049 16.7851517,75.9545375 C16.545245,75.5863702 16.6262349,75.0927564 16.9707637,74.8232772 L23.5382738,69.8246498 L12.5979575,76.2245096 C12.220128,76.4432665 11.7399128,76.3289823 11.4973935,75.9625917 C11.2548741,75.5962011 11.3323353,75.1020172 11.6749202,74.8300139 L18.979532,69.1038235 L6.8140331,76.2245096 C6.43212102,76.4448954 5.94707418,76.3251862 5.70763543,75.9514515 C5.46819668,75.5777167 5.55731591,75.0794312 5.91091746,74.8148563 L11.2632057,70.8688375 L3.56016058,75.3824228 C3.18658323,75.5945757 2.71523833,75.4836871 2.47183454,75.1263838 C2.22843075,74.7690803 2.292826,74.2825889 2.62052189,74.0030846 L9.81556448,68.0259524 L2.32169686,72.4165931 C1.94590679,72.6370937 1.46610755,72.5265975 1.22099772,72.1631057 C0.975887902,71.7996141 1.04826578,71.3059144 1.38703858,71.0305182 L4.72889847,68.2987885 L2.32003672,69.710126 C1.95796646,69.9219582 1.4971145,69.8276416 1.2443167,69.4899724 C0.991518892,69.1523031 1.02563623,68.676618 1.3239533,68.3796288 L3.53193822,66.1902031 L2.31837658,66.8992402 C1.97223064,67.099746 1.53446741,67.0223412 1.27559836,66.7148571 C1.0167293,66.4073731 1.0098485,65.9566311 1.25920788,65.6411625 L2.13576129,64.5413971 C1.94174736,64.4775528 1.77829987,64.3423787 1.67756292,64.1624581 C1.44920541,63.7605208 1.5843095,63.2469221 1.97970822,63.0138516 L4.68905513,61.4256759 C5.03530188,61.2231126 5.47468223,61.2996431 5.73449867,61.6077694 C5.99431511,61.9158957 6.00078127,62.3681117 5.74988397,62.6837536 L5.35809116,63.1738481 L8.38120435,61.4037816 C8.74327461,61.1919495 9.20412657,61.2862661 9.45692437,61.6239353 C9.70972218,61.9616045 9.67560484,62.4372896 9.37728777,62.7342788 L7.16930285,64.9237045 L13.1922873,61.4037816 C13.5675742,61.1845767 14.0459137,61.2948838 14.2909152,61.6571299 C14.5359167,62.0193761 14.4652476,62.5118288 14.1286057,62.7881724 L10.7817654,65.5165337 L17.8141144,61.4037816 C18.187931,61.1879588 18.6623338,61.297567 18.9071592,61.6563235 C19.1519845,62.0150797 19.0861238,62.5041316 18.7554132,62.7831199 L11.5587105,68.7619363 L24.1226427,61.4037816 C24.5045547,61.1833959 24.9896017,61.3031051 25.2290404,61.6768397 C25.4684791,62.0505745 25.3793598,62.5488601 25.0257583,62.813435 L19.6701498,66.7560855 L28.8208362,61.4037816 C29.1986657,61.1850248 29.6788809,61.299309 29.9214001,61.6656996 C30.1639195,62.0320902 30.0864583,62.5262741 29.7438735,62.7982774 L22.4392617,68.5244678 L34.6064207,61.4004133 C34.9858012,61.1844185 35.4652027,61.3022181 35.7051092,61.6703855 C35.9450159,62.0385527 35.864026,62.5321665 35.5194972,62.8016458 L28.9519872,67.8036415 L36.2565989,63.5258404 C36.6306533,63.3060708 37.1083507,63.4143074 37.3546891,63.7746454 C37.6010277,64.1349836 37.5335415,64.6267945 37.1995579,64.9051786 L31.4189538,69.7572829 L37.3489704,66.2878852 C37.7150961,66.0721776 38.182579,66.170585 38.4338789,66.5162638 C38.685179,66.8619427 38.6397511,67.3440983 38.3284524,67.6352241 L34.7076892,71.0372548 L42.538565,66.4563026 C42.9046908,66.2405949 43.3721736,66.3390024 43.6234735,66.6846812 C43.8747736,67.03036 43.8293457,67.5125157 43.5180471,67.8036415 L40.0815593,71.0355707 L47.9008141,66.4579867 C48.276101,66.2387818 48.7544405,66.3490889 48.999442,66.7113349 C49.2444435,67.0735812 49.1737744,67.5660339 48.8371325,67.8423775 L46.9910579,69.3581337 L51.9332918,66.4563026 C52.2884592,66.2495558 52.7391806,66.3364493 52.9948314,66.6609544 C53.2504822,66.9854596 53.234673,67.4506132 52.9575976,67.7564846 L49.0894737,71.9938655 L58.5522662,66.4563026 C58.9256042,66.2414678 59.3988176,66.3508069 59.643625,66.7084683 C59.8884326,67.0661299 59.8240864,67.5541416 59.4952252,67.8339566 L57.2922207,69.6730742 L71.4117032,61.4037816 C71.7884862,61.1878158 72.2656022,61.3017552 72.5078561,61.6655524 C72.7501102,62.0293496 72.6762043,62.5209179 72.3380608,62.7949091 L64.7545456,68.827619 L77.4214065,61.4037816 C77.8027223,61.1854627 78.2856242,61.3051578 78.5247417,61.677261 C78.7638592,62.0493641 78.6769547,62.5459016 78.3261823,62.8117508 L72.5654998,67.0996569 L82.2939146,61.4037816 C82.6715049,61.181958 83.1539257,61.2945714 83.3979741,61.661507 C83.6420225,62.0284425 83.5643753,62.5244203 83.2202721,62.7965932 L75.7230842,68.729937 L88.233892,61.4037816 C88.6096821,61.183281 89.0894814,61.2937771 89.3345911,61.657269 C89.579701,62.0207606 89.5073231,62.5144603 89.1685503,62.7898565 L81.2380661,69.2284524 L94.5357798,61.4408335 C94.9223603,61.2132295 95.417179,61.3370274 95.6551158,61.7208784 C95.8930524,62.1047292 95.7886623,62.6107896 95.4189738,62.8656444 L94.2336345,63.6875211 L96.5329271,62.3401822 C96.9180513,62.1195755 97.4060415,62.2440504 97.642514,62.6232121 C97.8789866,63.0023737 97.7808805,63.5030413 97.4194413,63.7616247 L96.4233579,64.4656093 L97.4543042,63.8626752 C97.837468,63.6373026 98.327556,63.7568141 98.5678906,64.1342311 C98.8082253,64.5116482 98.7141363,65.0140059 98.3540996,65.2756968 L96.8251115,66.392304 L97.6850636,65.8870519 C98.0576974,65.6766309 98.5268767,65.7869134 98.7703192,66.1421457 C99.0137617,66.497378 98.9522437,66.9819567 98.6280225,67.2630217 L95.6397723,69.7673879 L97.6800832,68.5733088 C98.0506164,68.3573179 98.5222488,68.4620227 98.7699885,68.8152735 C99.0177282,69.1685244 98.960606,69.6548673 98.6379834,69.9391736 L97.952346,70.5421078 C98.2397082,70.4872398 98.5339534,70.5933892 98.7226505,70.8199964 C98.9830728,71.1256462 98.9928263,71.5758532 98.7458924,71.8928151 L97.8145544,73.0936309 C98.1373289,73.1834915 98.375324,73.4612242 98.418134,73.7979892 C98.460944,74.1347542 98.3001921,74.4646543 98.0104508,74.6346497 L95.3226857,76.2093521 C94.9777492,76.4127595 94.5389596,76.3384352 94.2778734,76.0323768 C94.0167872,75.7263185 94.0072717,75.2751174 94.2552163,74.9580111 L94.7765,74.2843416 L91.4562219,76.227878 C91.0863388,76.4397598 90.6184623,76.334166 90.3720105,75.9831849 C90.1255587,75.632204 90.1800666,75.1491045 90.4983217,74.8636973 L90.9814221,74.4376014 L87.9251062,76.2245096 C87.5522413,76.4384154 87.0801661,76.3293601 86.8353594,75.9727648 C86.5905524,75.6161693 86.6534214,75.1291583 86.9804871,74.8485398 L89.9587765,72.3509103 L83.3364819,76.2245096 C82.9533181,76.4498822 82.4632301,76.3303707 82.2228955,75.9529537 C81.9825608,75.5755366 82.0766498,75.0731789 82.4366865,74.811488 L83.9789557,73.6881441 L79.6426725,76.2245096 C79.2586415,76.4372631 78.7777618,76.3110578 78.5436117,75.9360648 C78.3094615,75.5610719 78.4024585,75.0660805 78.7561583,74.8047513 L79.7522417,74.1058192 L76.1281582,76.2245096 C76.0026211,76.3007837 75.8594394,76.342036 75.7131234,76.344086 L75.7131234,76.344086 Z" id="Path" fill="#D4E8FA"></path>
            <path d="M19.3304139,56.9892473 C18.9612722,56.9892473 18.6366736,56.7450551 18.5353639,56.3900384 C18.434054,56.0350217 18.5806466,55.6558813 18.8944175,55.4613973 L41.7776228,41.2317513 L16.4782707,55.8346881 C16.0889823,56.0458075 15.6024844,55.9122176 15.3755599,55.5318891 C15.1486353,55.1515608 15.2620821,54.6599126 15.6327019,54.4175045 L33.964369,43.1461053 L16.3246811,53.3290151 C15.934584,53.5488123 15.4404128,53.4176318 15.2106443,53.0332877 C14.9808758,52.6489437 15.0992319,52.1514812 15.4774608,51.9118315 L40.9650841,36.0783566 L16.3246811,50.3096543 C15.9343026,50.5454644 15.4267029,50.4201183 15.1909253,50.0296862 C14.9551477,49.639254 15.0804764,49.1315843 15.4708548,48.8957742 L46.3737516,29.3326951 L16.3246811,46.6808055 C15.9360238,46.8856631 15.4550335,46.7502938 15.2302313,46.3727852 C15.0054291,45.9952767 15.1155335,45.5078201 15.4807638,45.263622 L25.9909196,38.7987544 L16.3230296,44.3799469 C15.9337411,44.5910663 15.4472433,44.4574765 15.2203187,44.077148 C14.9933941,43.6968197 15.106841,43.2051715 15.4774608,42.9627634 L24.780369,37.216398 L16.3230296,42.1022126 C15.9347837,42.3125553 15.4497844,42.180207 15.2221538,41.801802 C14.9945232,41.4233968 15.1048179,40.9328492 15.4725063,40.6883325 L29.9528718,31.6038226 L16.3230296,39.4726599 C15.9363399,39.6925248 15.4450053,39.5665412 15.2117821,39.1877237 C14.9785589,38.8089064 15.0872654,38.3133989 15.4576428,38.0670384 L37.3103112,23.7531543 L16.3230296,35.8718905 C15.9353875,36.1122617 15.4263089,35.9928317 15.1859708,35.6051362 C14.9456327,35.2174407 15.0650462,34.708292 15.4526883,34.4679208 L34.4333955,21.7991588 L16.3230296,32.2612107 C15.936169,32.4773945 15.447662,32.349623 15.21615,31.9717008 C14.984638,31.5937786 15.0926754,31.1004682 15.4609458,30.8539376 L25.0776393,24.5938844 L16.3246811,29.6498271 C15.9415606,29.8661839 15.4561094,29.7441069 15.2208672,29.3722495 C14.9856249,29.0003923 15.0832206,28.5093698 15.4427793,28.2557677 L28.593686,19.1497854 L16.3230296,26.2307479 C15.9358435,26.4743119 15.4245467,26.35784 15.1810163,25.9706006 C14.9374858,25.5833611 15.0537634,25.0719939 15.4411278,24.8284299 L23.6044999,19.1795165 L16.3230296,23.3914256 C15.939396,23.6147011 15.4479108,23.4947193 15.2102739,23.119779 C14.9726371,22.7448384 15.0738719,22.2490878 15.4394763,21.9973663 L19.6210782,19.0985818 L16.3180751,21.0046771 C15.9454802,21.2213787 15.4689103,21.1150184 15.2237749,20.7604528 C14.9786394,20.405887 15.0474047,19.9223957 15.3816737,19.6502593 L22.1379665,14.1070565 L16.3230296,17.4650217 C15.9564351,17.6767453 15.4891285,17.5769077 15.2410258,17.2338574 C14.9929231,16.890807 15.044395,16.4156722 15.3602042,16.1337281 L18.7689034,13.1011535 L16.3230296,14.5133819 C15.9583543,14.7351775 15.4847675,14.6424745 15.2306049,14.2995436 C14.9764423,13.9566126 15.0254665,13.4764709 15.3436892,13.1919986 L16.0951224,12.4801034 C15.8150941,12.546936 15.5205943,12.4608976 15.3205682,12.2538165 C15.0569367,11.9842329 15.0093636,11.5702895 15.204963,11.2479135 L15.8193216,10.2321001 C15.503042,10.1385326 15.2727704,9.86570343 15.233629,9.53816296 C15.1944875,9.21062247 15.3539847,8.8912027 15.639308,8.72572318 L17.5038532,7.65044755 C17.8303232,7.46146624 18.2433384,7.51777086 18.5073262,7.7872468 C18.7713139,8.05672273 18.8191587,8.4708592 18.6235712,8.79344407 L18.2850134,9.35338023 L21.2329437,7.65044755 C21.5977526,7.42476677 22.0745868,7.51603181 22.3303045,7.86047999 C22.586022,8.20492816 22.5354563,8.68784155 22.2139356,8.97183081 L21.576456,9.57471192 L24.8976256,7.65044755 C25.2642201,7.43872403 25.7315267,7.53856161 25.9796294,7.88161191 C26.227732,8.2246622 26.1762602,8.69979703 25.860451,8.98174119 L22.4501003,12.0242261 L30.0255379,7.65044755 C30.3976461,7.43491163 30.8728581,7.54106307 31.1179148,7.89445954 C31.3629717,8.24785599 31.2958367,8.7301924 30.9635907,9.00321367 L24.2106009,14.5480682 L36.1559116,7.65044755 C36.5395451,7.42717209 37.0310304,7.54715384 37.2686672,7.92209425 C37.5063041,8.29703467 37.4050694,8.79278533 37.0394649,9.04450689 L32.8595145,11.939988 L40.2912714,7.64549237 C40.6743919,7.42913551 41.1598432,7.55121256 41.3950854,7.92306988 C41.6303275,8.29492722 41.5327319,8.78594967 41.1731733,9.03955171 L33.0081496,14.6901169 L45.2077915,7.65044755 C45.590912,7.4340907 46.0763632,7.55616775 46.3116054,7.92802507 C46.5468476,8.2998824 46.449252,8.79090485 46.0896933,9.04450689 L32.9404381,18.1488375 L51.1251215,7.65044755 C51.5119821,7.43426382 52.0004892,7.5620353 52.2320011,7.93995752 C52.4635131,8.31787976 52.3554757,8.81119005 51.9872053,9.05772072 L42.3738149,15.3144705 L55.6452813,7.65044755 C56.0309813,7.43102559 56.5211128,7.55569807 56.7551312,7.93275496 C56.9891497,8.30981185 56.8833779,8.80443042 56.5156226,9.05276554 L37.5332639,21.7165723 L61.9044721,7.65044755 C62.2930263,7.41144467 62.8017352,7.53272337 63.0407051,7.92133112 C63.2796751,8.30993887 63.1584131,8.81871784 62.7698589,9.05772072 L40.915539,23.3666497 L68.1421934,7.65044755 C68.5330278,7.41509359 69.0406276,7.54117909 69.2759492,7.93206739 C69.5112707,8.32295569 69.3852026,8.83062537 68.9943682,9.06597937 L54.5156542,18.1504893 L72.6970346,7.65044755 C73.0887812,7.41646191 73.5960113,7.54439616 73.8299647,7.9361967 C74.0639181,8.32799723 73.9360015,8.83529717 73.5442549,9.06928283 L64.2264833,14.8206035 L76.6375173,7.65044755 C77.0277415,7.43467241 77.5187653,7.56770972 77.7467307,7.95097632 C77.974696,8.33424291 77.8572554,8.82929203 77.4814346,9.06928283 L67.0026573,15.5110262 L80.6291965,7.65044755 C81.0172513,7.43702003 81.5045563,7.56775866 81.7337084,7.94677604 C81.9628603,8.32579342 81.8522593,8.81812277 81.4830228,9.06267591 L50.5784745,28.6274068 L84.6770268,8.93384104 C85.0683174,8.69939931 85.5755474,8.82659406 85.8099569,9.21793848 C86.0443662,9.60928288 85.917189,10.1165828 85.5258986,10.3510246 L60.0415783,26.1778926 L84.7629049,11.9036499 C85.1531291,11.6878748 85.6441529,11.8209121 85.8721182,12.2041787 C86.1000836,12.5874453 85.982643,13.0824944 85.6068222,13.3224852 L67.2602916,24.6070982 L84.7662079,14.500168 C85.1546554,14.2926646 85.6375652,14.4265514 85.8637512,14.8044621 C86.0899374,15.1823727 85.9797973,15.671308 85.6134282,15.9156998 L62.7186623,30.1519527 L84.7629049,17.4220768 C85.1531291,17.2063016 85.6441529,17.339339 85.8721182,17.7226056 C86.1000836,18.1058721 85.982643,18.6009212 85.6068222,18.840912 L76.8885456,24.187559 L84.7645564,19.6403489 C85.1526112,19.4269214 85.6399161,19.55766 85.8690682,19.9366773 C86.0982202,20.3156948 85.9876191,20.8080241 85.6183827,21.0525773 L63.0952047,35.3235164 L84.7662079,22.810017 C85.155316,22.5956809 85.6442404,22.7276287 85.872725,23.108637 C86.1012096,23.4896452 85.9873666,23.9831627 85.6150797,24.2255488 L74.8803197,30.918355 L84.7711624,25.2083276 C85.159945,24.9804579 85.6596004,25.1064027 85.8939584,25.4913436 C86.1283162,25.8762844 86.0108269,26.3780602 85.6299432,26.6189042 L68.0711788,37.8853482 L84.7645564,28.2458574 C85.1535666,28.0077667 85.6619059,28.1301547 85.8999637,28.5192185 C86.1380215,28.9082823 86.0156504,29.4166916 85.6266402,29.6547823 L70.0315112,39.7963988 L84.7711624,31.2850389 C85.156699,31.0615614 85.6499834,31.1843293 85.8858346,31.5624568 C86.1216859,31.9405842 86.015022,32.437664 85.6448067,32.6857051 L69.4799096,43.587117 L84.7711624,34.7586251 C85.1599885,34.536385 85.6550706,34.6646381 85.8871284,35.0477208 C86.1191863,35.4308035 86.0036245,35.9290649 85.6266402,36.1708535 L84.9297066,36.6151686 C85.3214236,36.489081 85.7461805,36.6706896 85.925709,37.0410182 C86.1052374,37.4113466 85.9847391,37.8573579 85.6431552,38.0868592 L78.2741553,43.0222257 L84.7711624,39.2711489 C85.1531978,39.0508278 85.6409095,39.1696237 85.8788691,39.5409625 C86.1168285,39.9123011 86.0215054,40.4051131 85.6613217,40.6602531 L77.2568304,46.622995 L84.7711624,42.2839028 C85.1537057,42.0559453 85.6480744,42.1724086 85.8886696,42.5471649 C86.1292646,42.9219211 86.02942,43.419977 85.6629732,43.6730069 L81.3558572,46.7369643 L84.7711624,44.7647998 C85.1525446,44.5472156 85.6374863,44.6661779 85.8749165,45.035565 C86.112347,45.404952 86.0192282,45.8955757 85.6629732,46.1522522 L84.7926319,46.7716506 C85.1666329,46.5707001 85.6320459,46.6861378 85.868825,47.0385818 C86.1056039,47.3910256 86.0365787,47.8656087 85.7092153,48.1359789 L82.8587236,50.4847376 L84.7711624,49.3830343 C85.1020265,49.1918214 85.5208488,49.2526323 85.7836894,49.5300478 C86.04653,49.8074633 86.0847203,50.2290075 85.8760169,50.549155 L83.8066855,53.7237783 L84.7711624,53.1671456 C85.1657557,52.9427663 85.6674491,53.0789915 85.8944102,53.472142 C86.1213711,53.8652927 85.9884954,54.3679479 85.5969132,54.597543 L81.6366125,56.8719739 C81.3057484,57.0631868 80.8869261,57.002376 80.6240855,56.7249605 C80.3612449,56.447545 80.3230546,56.0260007 80.531758,55.7058532 L82.6010894,52.5312299 L75.0818029,56.8719739 C74.7104073,57.08267 74.239656,56.9754372 73.9961223,56.624666 C73.7525884,56.2738946 73.8165998,55.7952841 74.14375,55.5208595 L76.9925902,53.1721008 L70.5831127,56.8719739 C70.2027431,57.0822283 69.7245264,56.9616268 69.4893159,56.5961291 C69.2541055,56.2306313 69.3424154,55.7453497 69.6913018,55.4861732 L70.5484311,54.8733817 L67.0802779,56.8736257 C66.6988957,57.0912099 66.213954,56.9722476 65.9765238,56.6028605 C65.7390933,56.2334734 65.8322121,55.7428498 66.1884671,55.4861732 L70.4988861,52.4189123 L62.7830709,56.8785808 C62.4020966,57.0907983 61.9218,56.9701534 61.6862959,56.6030835 C61.4507917,56.2360136 61.5412724,55.7490694 61.8929116,55.4911284 L70.2957514,49.5283865 L57.5692805,56.8719739 C57.1855244,57.0795072 56.7065622,56.9526718 56.4757748,56.5823991 C56.2449872,56.2121265 56.3420113,55.7261852 56.6972877,55.4729594 L64.0613331,50.5392447 L53.0937114,56.8719739 C52.7058328,57.0888151 52.2159317,56.9597805 51.9851555,56.5799925 C51.7543793,56.2002043 51.8654917,55.7058666 52.2365821,55.4613973 L52.5966094,55.231807 L49.7543753,56.8719739 C49.3701534,57.0848156 48.8865748,56.9595935 48.6539065,56.587009 C48.4212381,56.2144245 48.5209115,55.7248781 48.8807309,55.4729594 L65.0472795,44.5715475 L43.7445612,56.8719739 C43.358484,57.0846268 42.8734758,56.9565392 42.6426991,56.5809791 C42.4119226,56.205419 42.5167391,55.7147922 42.8808258,55.4663525 L58.4809094,45.324736 L38.4878318,56.8719739 C38.100784,57.0848691 37.6147584,56.9554237 37.3848343,56.5782078 C37.1549101,56.2009919 37.262522,55.7096074 37.629051,55.463049 L55.1679973,44.2032119 L33.2211933,56.8719739 C32.8371069,57.0534137 32.3780458,56.913822 32.1599404,56.5492669 C31.941835,56.1847118 32.0358469,55.7141373 32.3772761,55.4613973 L43.1120361,48.7652876 L29.074273,56.8719739 C28.6862182,57.0854014 28.1989132,56.9546628 27.9697611,56.5756455 C27.7406092,56.196628 27.8512102,55.7042988 28.2204467,55.4597456 L50.7419732,41.1921098 L23.5764244,56.8719739 C23.1871359,57.0830933 22.700638,56.9495034 22.4737135,56.569175 C22.2467889,56.1888467 22.3602358,55.6971985 22.7308556,55.4547904 L31.4359202,50.116402 L19.7350318,56.8719739 C19.6125652,56.9453941 19.4731558,56.9858 19.3304139,56.9892473 L19.3304139,56.9892473 Z" id="Path" fill="#6FD5D2"></path>
            <path d="M34.8766906,45.1612903 C34.5909203,45.1607834 34.3268201,45.0042341 34.1827256,44.7499323 C34.0386311,44.4956305 34.0361327,44.1816799 34.1761607,43.9249773 L35.4242313,41.6315752 L32.3483412,43.4570038 C32.0029917,43.6632107 31.5631667,43.5775928 31.3146161,43.255775 C31.0660653,42.9339573 31.0838121,42.473078 31.3563264,42.1725658 L32.0439731,41.4075453 L30.8152275,42.1393762 C30.4768955,42.3419975 30.0461788,42.2646264 29.7943354,41.9559897 C29.542492,41.647353 29.5424454,41.1968197 29.7942252,40.8881279 L30.9521126,39.4609746 L29.0196163,40.6060162 C28.6710023,40.8012431 28.2363385,40.7056849 27.9953963,40.3808476 C27.7544542,40.0560102 27.7790565,39.5987251 28.0533681,39.303324 L28.298151,39.047764 L27.6539855,39.4294445 C27.3356378,39.6193126 26.932898,39.5627438 26.6754781,39.2920033 C26.4180581,39.0212627 26.3714036,38.6051827 26.5621251,38.2810839 L28.2627219,35.3952473 L25.136909,37.2605034 C24.7728629,37.4764944 24.3088509,37.3678046 24.0711878,37.0108697 C23.8335248,36.6539347 23.9020772,36.1687023 24.2286357,35.8964104 L29.435103,31.5535498 L23.1448274,35.2973379 C22.7769493,35.5214471 22.3032513,35.4103693 22.0657033,35.0442934 C21.8281554,34.6782174 21.9095151,34.1846779 22.2510478,33.9199691 L27.3914881,29.8592201 L22.7212886,32.642169 C22.3577285,32.8642996 21.8893764,32.7589578 21.6487048,32.400923 C21.4080333,32.0428885 21.4769679,31.5540377 21.8065736,31.281395 L30.4432219,23.9796805 L30.4222865,23.9415125 C30.2080086,23.550615 30.3343166,23.0549916 30.7073297,22.8230226 L34.5336725,20.5462153 C34.8972326,20.3240847 35.3655847,20.4294265 35.6062563,20.7874613 C35.8469278,21.1454959 35.7779932,21.6343466 35.4483875,21.9069893 L30.451274,26.1253889 L37.2150112,22.0945106 C37.5828893,21.8704014 38.0565873,21.9814793 38.2941352,22.3475552 C38.5316832,22.7136311 38.4503234,23.2071706 38.1087908,23.4718795 L32.9635192,27.5409258 L37.4968336,24.8426104 C37.8611272,24.6222717 38.3287285,24.7294762 38.5680001,25.088191 C38.8072718,25.4469058 38.7368663,25.9351753 38.4067173,26.2067034 L31.0213604,32.3666953 C31.0715359,32.4006774 31.1179743,32.4401842 31.159856,32.4845184 C31.4169286,32.755367 31.4633181,33.1712531 31.2725849,33.495142 L29.5719881,36.3793192 L32.7058531,34.5140631 C33.0549886,34.3163818 33.491924,34.4114951 33.7336432,34.7377953 C33.9753624,35.0640954 33.9491996,35.5234896 33.6721012,35.8184148 L33.4289288,36.0706559 L34.0730942,35.6906348 C34.4114262,35.4880136 34.8421429,35.5653847 35.0939863,35.8740213 C35.3458297,36.182658 35.3458763,36.6331914 35.0940965,36.9418831 L33.9345987,38.3690364 L35.867095,37.2239948 C36.212556,37.0152864 36.6543559,37.0998995 36.9039755,37.4225774 C37.1535949,37.7452551 37.1351645,38.2079226 36.8607202,38.5084328 L36.1730736,39.2717938 L37.1618676,38.6826782 C37.4759982,38.4955945 37.8727494,38.5481065 38.130803,38.8109216 C38.3888565,39.0737365 38.4444662,39.4819322 38.2666113,39.8078061 L37.0169303,42.1012082 L37.2053487,41.990023 C37.5901249,41.7645907 38.0793366,41.9014552 38.3006511,42.2964507 C38.5219654,42.6914464 38.3923956,43.1964605 38.0105556,43.4271331 L35.2728524,45.0501051 C35.1523413,45.1218214 35.0158497,45.1601287 34.8766906,45.1612903 L34.8766906,45.1612903 Z" id="Path" fill="#FFFFFF"></path>
            <path d="M65.2843199,45.1612903 C64.9185701,45.1612903 64.5938551,44.932 64.4781949,44.5920651 C64.3625345,44.2521302 64.4818817,43.8778263 64.7744816,43.6628327 L66.9463927,42.049495 L63.4641972,44.0191322 C63.0771773,44.2325159 62.5877099,44.1179388 62.3409571,43.756198 C62.094204,43.3944574 62.1733992,42.9075741 62.5226959,42.6388877 L67.9796649,38.5297883 L62.5651824,41.5883036 C62.1744529,41.8094482 61.6754295,41.6928177 61.4286803,41.3226831 C61.1819312,40.9525485 61.2735231,40.4580142 61.6372767,40.1964044 L65.930115,37.1062551 C65.6089043,37.0505736 65.3485824,36.819662 65.2602127,36.5120358 C65.1718429,36.2044098 65.271026,35.8743772 65.5154466,35.6627424 L69.0843145,32.5709281 C68.7791913,32.5343412 68.5180286,32.3391586 68.4013761,32.0605274 C68.2847238,31.7818961 68.3307723,31.4632663 68.5217929,31.2273126 L69.9153509,29.5024232 L67.5921878,30.8177346 C67.2379804,31.0202557 66.7866676,30.9460237 66.5193899,30.6412804 C66.2521121,30.3365372 66.2451468,29.8882528 66.5028334,29.575681 L67.8624021,27.9107299 L65.5902228,29.1960722 C65.2314389,29.3987515 64.7757688,29.3184995 64.5115012,29.0060892 C64.2472337,28.693679 64.2513568,28.2401236 64.5212619,27.9323742 L65.6242121,26.678666 L63.7819964,27.7209254 C63.4202456,27.925333 62.9605057,27.8419169 62.6974681,27.5241469 C62.4344305,27.2063766 62.4460725,26.7484549 62.7249317,26.4439079 L63.6375422,25.4449372 L62.7045382,25.9727267 C62.3549006,26.1723504 61.9100779,26.102712 61.641352,25.8062814 C61.372626,25.5098508 61.3545673,25.0688867 61.5981891,24.7523175 L62.5023023,23.5735321 C62.1597971,23.5001559 61.8984548,23.2282269 61.8442961,22.8888706 C61.7901373,22.5495141 61.9542825,22.2124103 62.25758,22.0401121 L64.9104385,20.5416561 C65.2599858,20.3439606 65.7032531,20.414439 65.9710411,20.7102893 C66.2388291,21.0061397 66.257238,21.4457179 66.0150881,21.7620653 L65.4695611,22.4979737 L67.4290396,21.3891162 C67.7912678,21.1823659 68.2532773,21.2653199 68.517123,21.5844818 C68.7809686,21.9036437 68.7677977,22.3636293 68.4861043,22.6677987 L67.5734937,23.6667694 L69.1335989,22.7843453 C69.4923828,22.581666 69.9480529,22.6619179 70.2123205,22.9743282 C70.476588,23.2867385 70.472465,23.7402938 70.2025598,24.0480432 L69.1013091,25.3017514 L70.9418253,24.261157 C71.2955011,24.0625278 71.7433281,24.1379622 72.0089761,24.4409139 C72.2746243,24.7438654 72.2832287,25.1889566 72.0294803,25.5015456 L70.6699116,27.1664967 L72.9420908,25.8811544 C73.2954335,25.6823103 73.7431154,25.757199 74.0090899,26.0596432 C74.2750643,26.3620872 74.284444,26.8069312 74.0314453,27.1198781 L72.6378873,28.8414376 L74.9593509,27.5294561 C75.3374891,27.3146832 75.8202559,27.415986 76.0754299,27.7636518 C76.330604,28.1113177 76.2749374,28.5919242 75.9467377,28.8747366 L73.0015719,31.415452 L76.9613159,29.1760927 C77.3520454,28.9549481 77.8510688,29.0715786 78.097818,29.4417132 C78.3445671,29.8118479 78.2529752,30.3063821 77.8892216,30.5679919 L75.0681164,32.5975674 L78.2970922,30.7661211 C78.6844204,30.5483054 79.1777566,30.6614093 79.4262099,31.0249865 C79.6746631,31.3885637 79.593432,31.8785187 79.240293,32.1463656 L73.7867229,36.2604599 L77.8654291,33.9528376 C78.2535579,33.7363986 78.7464701,33.8512496 78.9935792,34.2157022 C79.2406883,34.5801547 79.1576525,35.0698162 78.8035315,35.336412 L70.7633819,41.3052619 C70.9554365,41.6971419 70.8073832,42.1678188 70.4234897,42.3858152 L65.7108846,45.049737 C65.5812123,45.1230923 65.4340568,45.1615751 65.2843199,45.1612903 L65.2843199,45.1612903 Z" id="Path" fill="#FFFFFF"></path>
            <path d="M47.0689904,49.4623656 C46.7500578,49.4623656 46.4622572,49.2596142 46.3387563,48.9480784 C46.2152551,48.6365428 46.2801431,48.2769216 46.5033959,48.0356142 L47.7708346,46.6726656 L46.3449661,47.5438114 C46.0068252,47.7474965 45.5791297,47.6609397 45.3356598,47.3395483 C45.0921898,47.018157 45.1049914,46.5570352 45.3658697,46.2513601 L48.7942913,42.2884024 L46.4748785,43.7084203 C46.1315682,43.9181551 45.6947897,43.8268281 45.4524293,43.4946344 C45.210069,43.1624409 45.2367104,42.6916086 45.5147937,42.3924699 L48.6564573,39.000205 L46.9042234,40.0727717 C46.5499914,40.2925542 46.0959719,40.1892202 45.8581899,39.8346963 C45.620408,39.4801722 45.6776549,38.9919333 45.9900832,38.7098231 L46.9089763,37.8705691 C46.6123297,37.9202658 46.3142441,37.7908351 46.1358387,37.5348674 C45.8991594,37.1835379 45.9526089,36.6992969 46.259414,36.4153025 L47.3208938,35.4283398 C46.9778812,35.5507599 46.6001743,35.4112849 46.4032957,35.0895005 C46.206417,34.7677161 46.2404474,34.3454756 46.4859686,34.0637127 L50.1298547,29.9194761 L47.9419388,31.2622826 C47.6018405,31.4709146 47.168785,31.3838289 46.9244959,31.057679 C46.6802066,30.7315291 46.6985512,30.2649351 46.9675953,29.9614388 L50.5845484,25.865879 L48.4219812,27.1885434 C48.0729042,27.3974322 47.6315559,27.2970798 47.3941225,26.9548316 C47.1566891,26.6125837 47.1980351,26.1363536 47.4904138,25.8457369 L49.2458163,24.1269446 L48.7388408,24.4374686 C48.3992075,24.643582 47.9684011,24.5559949 47.7249072,24.2313262 C47.4814132,23.9066574 47.4982345,23.4422471 47.7644974,23.1383033 L50.0902473,20.494653 L49.1396683,21.0804524 C48.8144934,21.278429 48.4028387,21.2076786 48.1534123,20.9109459 C47.903986,20.6142133 47.8851523,20.172829 48.1082901,19.8534629 L49.2711651,18.1917399 C49.0550481,18.1420505 48.8690253,17.9974405 48.7594367,17.7939335 C48.653761,17.6012273 48.6247725,17.3719025 48.6788634,17.1565272 C48.7329544,16.9411522 48.8656821,16.7574156 49.047779,16.6458339 L51.4717554,15.1653898 C51.7969303,14.9674131 52.208585,15.0381636 52.4580114,15.3348963 C52.7074378,15.6316289 52.7262714,16.0730132 52.5031336,16.3923792 L51.655534,17.6025836 L53.9004847,16.2295639 C54.2401181,16.0234505 54.6709244,16.1110376 54.9144184,16.4357064 C55.1579124,16.7603751 55.1410911,17.2247854 54.8748282,17.5287292 L52.5459097,20.174058 L54.7322414,18.8312515 C55.0813184,18.6223627 55.5226666,18.7227151 55.7601001,19.0649633 C55.9975335,19.4072112 55.9561874,19.8834413 55.6638088,20.174058 L53.9036533,21.8827792 L54.4090445,21.5722552 C54.7491428,21.3636232 55.1821982,21.4507089 55.4264874,21.7768588 C55.6707767,22.1030087 55.6524321,22.5696028 55.383388,22.873099 L51.7632663,26.9804084 L53.9226649,25.657744 C54.2624141,25.4491728 54.6951067,25.5357724 54.9396266,25.8612801 C55.1841468,26.1867878 55.1666878,26.6529514 54.8985927,26.9569093 L51.2547066,31.1011458 L53.4442068,29.7583393 C53.7969597,29.54454 54.245201,29.6482413 54.4817228,29.9983699 C54.7182446,30.3484986 54.6663111,30.8314608 54.3615156,31.1162524 L53.2984514,32.1032152 C53.6579326,31.9715196 54.0550193,32.1291136 54.2443588,32.4786226 C54.4336982,32.8281316 54.3618354,33.2708809 54.0731733,33.5333041 L53.1542802,34.3725582 C53.4926955,34.313232 53.8287019,34.4914084 53.9867038,34.8139732 C54.1447056,35.136538 54.0888,35.5301943 53.8482029,35.789219 L50.704955,39.1814839 L52.4587733,38.1089172 C52.7973717,37.9028814 53.2271778,37.9889861 53.4713926,38.3117794 C53.7156073,38.6345724 53.7013785,39.0977608 53.4378696,39.403047 L50.0110324,43.3643261 L51.9803152,42.1591573 C52.3227724,41.952346 52.7566504,42.0437706 52.9983528,42.3736732 C53.2400553,42.7035755 53.2160314,43.1715659 52.9419843,43.4717507 L51.6745456,44.8380563 C52.0560385,44.6109378 52.5390817,44.7544731 52.7534528,45.1586513 C52.9678237,45.5628297 52.8323446,46.0745967 52.4508518,46.3017153 L47.4634807,49.3515646 C47.343663,49.4251062 47.2074595,49.4633552 47.0689904,49.4623656 L47.0689904,49.4623656 Z" id="Path" fill="#FFFFFF"></path>
            <g id="Group" fill="#262626">
                <path d="M99.976632,65.6319731 C99.2205098,62.863402 96.5465414,61.716755 93.3100716,61.311274 L93.3100716,15.6913388 C93.3100716,12.3677242 94.9792154,3.56014526 91.6743106,1.09402317 C89.1322046,-0.805422625 83.1616771,0.34787167 80.3475007,0.34787167 L24.4545507,0.34787167 C20.6372188,0.34787167 15.8684749,-0.434839588 12.1028865,0.34787167 C6.71822849,1.47623885 7.41593061,5.57924118 7.41593061,10.014605 L7.41593061,61.2115655 C4.61677642,61.543927 2.27997507,62.3748307 1.25512077,64.1296992 C-1.51231969,68.8708356 0.420548858,76.1362573 5.83358227,76.8308927 C5.96711377,76.8475108 6.10398356,76.854158 6.23918421,76.8707761 C8.76960624,80.141213 10.9127869,83.8503669 15.1607579,84.7145068 C17.0975869,84.9038333 19.0480807,84.9099541 20.9860699,84.7327866 L53.7196493,84.7327866 C63.1319513,84.7327866 72.6877997,85.213049 82.0950942,84.7327866 C88.3176624,84.4137196 90.5392928,81.2911836 94.1830338,76.6896391 C99.6044129,75.9999891 100,72.7976863 100,65.8745969 C100,65.8463462 99.9833086,65.8297281 99.9816394,65.8031392 C99.9879538,65.7461288 99.9862685,65.6885209 99.976632,65.6319731 Z M9.85288058,4.59378943 C11.1664968,0.367813358 17.0786042,1.93489768 20.6288731,1.93489768 L71.925001,1.93489768 C76.2564292,1.93489768 83.867725,0.427638422 87.9938485,1.93489768 C92.5923397,3.6149849 90.8731216,11.4470829 90.8731216,15.2692398 L90.8731216,61.1351224 C86.7219609,61.0337521 82.2069269,61.7283876 79.6748357,61.7283876 C73.7276763,61.7283876 66.2916406,59.7691168 62.4826544,64.3872794 C60.4529755,66.8500778 62.6712676,65.96932 59.3596863,66.7138096 C56.9527809,67.2588824 53.7580396,66.7138096 51.2910451,66.7138096 L43.4126862,66.7138096 C40.2613427,66.7138096 40.1778855,66.9298446 38.2383404,65.0420315 C36.6176017,63.4649763 38.4620057,62.6324108 35.3223461,61.7283876 C31.7937761,60.7113615 26.5359731,61.7283876 22.913931,61.7283876 C20.3734941,61.7283876 14.7885389,60.8659096 9.85454973,61.0237813 L9.85454973,21.4179269 C9.85288058,16.5986857 8.40406375,9.25515902 9.85288058,4.59378943 Z M85.2481069,83.7357022 C83.6290374,84.2591715 80.920017,83.7357022 79.2391892,83.7357022 L23.5498748,83.7357022 C21.3852112,83.9476914 19.2048774,83.9476914 17.0402139,83.7357022 C13.5667256,82.9912125 11.390162,79.9135453 9.32876942,77.1183854 C15.1841259,77.4208343 21.3616272,76.8259073 27.091798,76.8259073 L91.5474557,76.8259073 C91.7277232,76.8259073 91.8812845,76.8159365 92.0481988,76.8126129 C90.2121406,79.3219419 88.1323874,82.8117374 85.2481069,83.7357022 Z M95.1661595,75.0145373 C93.512502,75.2555138 91.8324153,75.2555138 90.1787578,75.0145373 L13.524997,75.0145373 C8.08692642,75.0145373 1.25678991,76.1944205 3.18465102,67.5879203 C4.18613732,63.1259676 6.1473813,63.5314486 10.2067391,63.5314486 L24.3427181,63.5314486 C26.6261068,63.5314486 32.8052772,62.3515654 34.7698595,63.5314486 C36.6426389,64.6564922 35.379097,67.2622061 37.9862997,68.4404275 C39.6738041,69.203197 42.841839,68.5168706 44.6361686,68.5168706 L58.6035641,68.5168706 C60.3327971,68.5168706 62.8815797,68.9339842 64.2419319,67.4965209 C65.1332547,66.5559379 64.5240173,64.1729062 65.4103326,63.5314486 C65.9745032,63.1176586 68.4147915,63.5314486 69.082449,63.5314486 L85.2314155,63.5314486 C86.6351654,63.5314486 88.9152159,63.225676 91.145192,63.2356469 C91.5848143,63.4759708 92.1117889,63.4987018 92.5706409,63.2971337 C94.9191262,63.4865798 96.9721731,64.1994951 97.551366,66.2368709 C97.5897563,69.2430804 98.5628672,73.6585025 95.1694978,75.0195227 L95.1661595,75.0145373 Z" id="Shape"></path>
                <path d="M14.0874985,36.0650969 L14.0874985,50.4480394 C14.0874985,51.9852112 13.5300044,54.9482137 14.8669886,56.1845983 C17.8614326,58.9515076 29.2466626,56.8493213 32.7151435,56.8493213 L67.7905317,56.8493213 C71.3541538,56.8493213 82.59083,58.9598166 85.7238129,56.0300502 C87.4296779,54.436377 86.6385037,50.640809 86.6385037,48.6848618 L86.6385037,12.834692 C86.6385037,10.2655379 87.1659532,8.11349737 84.4452487,6.986792 C84.2792781,6.92674578 84.1012265,6.90736588 83.926145,6.93029055 C83.8994387,6.93029055 83.8827473,6.9203197 83.856041,6.9203197 L26.9098613,6.9203197 C23.2761352,6.9203197 15.7349434,5.18705465 14.0874985,9.54763711 C13.3213614,11.5717185 14.0874985,15.4254497 14.0874985,17.5027089 L14.0874985,36.0650969 Z M16.5344633,10.5563542 C17.4791987,8.36941571 16.6095748,9.33824938 18.7394023,8.6618938 C21.4250547,7.80938663 25.7731743,8.6618938 28.5873508,8.6618938 L83.1683537,8.6618938 C86.339727,10.4151005 84.2015537,28.1050397 84.2015537,31.1611034 L84.2015537,45.1352413 C84.2015537,47.0114218 85.2180623,52.5169895 84.2015537,54.109001 C82.5491014,56.688126 72.517547,55.1160562 69.4446532,55.1160562 L25.1355614,55.1160562 C23.5482056,55.1160562 18.9263464,55.9934905 17.5743399,55.1160562 C14.5782267,53.168418 16.5344633,40.048449 16.5344633,36.6832892 L16.5344633,21.4810756 C16.5344633,18.6925629 15.4211444,13.1354792 16.5344633,10.5563542 Z" id="Shape"></path>
                <path d="M25.7064086,38.7123559 C28.1734031,40.7597026 31.0476688,44.2461744 34.3442279,44.8111889 C34.3997781,44.8155922 34.455592,44.8155922 34.5111422,44.8111889 C34.7088385,44.8289222 34.9080087,44.8211022 35.1036883,44.7879236 C38.5855223,44.2893814 41.5499217,41.3313643 38.6088903,38.0725601 C37.5189394,36.8627644 31.6635829,33.3247765 31.711988,32.5520361 C31.7620624,31.7460596 35.4742382,29.4311619 36.1185277,28.89606 C37.3081065,28.1193605 38.3718744,27.1667377 39.2732096,26.0709875 C41.529892,22.4150114 37.4254673,19.9621837 34.1889975,20.9193847 C31.7336869,21.65058 29.692324,23.9604922 27.7844926,25.5441946 C25.8766613,27.127897 21.7288389,29.4162057 20.941003,31.975389 C19.9945984,35.0314527 23.7601869,37.0970792 25.7064086,38.7123559 L25.7064086,38.7123559 Z M26.6778503,28.076789 C28.4137599,26.6376638 35.5777251,18.657665 37.2401924,23.5184514 C38.4753588,27.1295588 31.7453709,30.9085087 29.4469599,32.8146017 C29.3418038,32.9010157 29.2800455,33.0239894 29.4002239,33.1236979 L33.8952282,36.8527935 C34.6327377,37.3946556 35.3382848,37.9783627 36.0083642,38.6010149 C37.0949769,39.7393529 38.5488011,43.0579821 36.0651151,43.8091191 C32.5115079,43.016437 29.0780791,38.7987699 26.4508467,36.6184787 C25.2557398,35.6213943 23.4981313,34.5462049 23.2794735,32.8760886 C22.9756893,30.6625612 25.2290335,29.2815993 26.6778503,28.0784508 L26.6778503,28.076789 Z" id="Shape"></path>
                <path d="M68.0826319,32.3443102 C68.2211708,32.4523277 68.6451333,32.9309282 68.9172038,33.0090331 C68.478219,33.4078669 67.5818887,34.0061176 67.4466881,34.1207823 C65.8543249,35.4402573 64.1551365,36.69326 62.6445613,38.1091199 C59.9205186,40.6550087 60.6866556,44.1564368 64.3737943,44.8377778 C64.4822887,44.92253 64.7259837,44.9524425 65.1816599,44.8743376 C68.3530332,44.3325884 70.3827121,42.0825012 72.7896175,40.0866706 C74.7658837,38.4464668 78.0390748,36.6400822 79.3844047,34.3617443 C81.4291059,30.8985378 77.2445623,28.5553895 75.0145862,26.7057979 C72.78461,24.8562063 69.987125,21.4411922 67.0811456,20.701688 C64.5390395,20.0535831 60.9754175,21.6140202 60.8435551,24.5238449 C60.7116928,27.6846024 65.9561427,30.6941355 68.0826319,32.3443102 L68.0826319,32.3443102 Z M68.2161634,23.8026205 L73.3905092,28.0983925 C74.4760486,28.8233985 75.4829462,29.6587918 76.3949681,30.5911035 C78.5047659,33.3713072 76.8489752,34.9616568 74.7592072,36.6965836 L69.5848613,40.9906938 C68.5380135,42.1197613 67.2937516,43.049982 65.9127449,43.7359995 C63.0384793,43.1493815 62.8782414,40.0634053 64.5190098,38.280286 C65.2896907,37.5525685 66.1064664,36.8748211 66.9643055,36.2512193 L71.1188045,32.8046308 C71.2540051,32.6932898 71.5327522,32.4722694 71.3124252,32.2844851 C69.1675754,30.5046895 64.0700101,27.7809873 63.34894,24.8877807 C62.2556508,20.477344 66.7506551,22.5811921 68.22284,23.8026205 L68.2161634,23.8026205 Z" id="Shape"></path>
                <path d="M47.9026831,49.7866401 C48.0153927,49.7840393 48.1274183,49.7684247 48.2365119,49.7401095 C48.4234488,49.7258686 48.6088334,49.6958481 48.7906676,49.6503719 C55.3003285,48.045066 54.1319278,38.8619186 54.8112694,33.4510739 C55.3387188,29.2599958 59.8854666,14.0311933 51.267677,15.9306391 C45.7444801,17.1487439 46.6257881,26.4498796 46.0933312,30.7041064 C45.5975955,34.5694702 41.1509963,49.3678646 47.9026831,49.7866401 L47.9026831,49.7866401 Z M48.017854,33.9080709 C48.4284634,30.6409577 48.8385165,27.3755063 49.248013,24.1117166 C49.5935258,21.3630873 48.9141843,18.8421256 51.90529,18.6044871 C55.0366038,18.3535542 54.0518089,20.8163527 53.7547013,23.1877518 C53.3797003,26.179005 53.0035866,29.1730279 52.6263601,32.1698204 C52.2841856,34.8985081 52.5646018,46.8967571 49.1011284,48.7995265 C44.547704,47.8622672 47.7023858,36.4240472 48.0261997,33.9080709 L48.017854,33.9080709 Z" id="Shape"></path>
                <path d="M10.7425342,68.4769872 L9.07339042,68.4769872 C8.45630114,68.4120945 7.85165851,68.6816873 7.48937293,69.1832553 C7.24734708,69.6817976 7.7013542,70.0789695 8.19542077,70.0789695 L9.86456459,70.0789695 C10.4816539,70.1438623 11.0862965,69.8742694 11.4485821,69.3727014 C11.6906079,68.8774828 11.2366008,68.4769872 10.7425342,68.4769872 Z" id="Path"></path>
                <path d="M19.4287587,68.7794362 L17.7596149,68.7794362 C17.1568897,68.7569659 16.5613243,68.9156258 16.0504116,69.2347714 C15.7165828,69.4807189 15.6865382,69.7931386 16.2006345,69.7931386 L17.8697783,69.7931386 C18.4725035,69.8156089 19.0680689,69.656949 19.5789816,69.3378034 C19.9178178,69.0835469 19.942855,68.7794362 19.4287587,68.7794362 L19.4287587,68.7794362 Z" id="Path"></path>
            </g>
        </g>
    </g>
</svg>