<?xml version="1.0" encoding="UTF-8"?>
<svg width="100px" height="100px" viewBox="0 0 100 100" version="1.1" xmlns="http://www.w3.org/2000/svg" xmlns:xlink="http://www.w3.org/1999/xlink">
    <title>Group</title>
    <g id="Page-1" stroke="none" stroke-width="1" fill="none" fill-rule="evenodd">
        <g id="Group" fill-rule="nonzero">
            <path d="M25.2897167,99.0352796 C24.9218416,99.0350119 24.5971975,98.7947464 24.4894434,98.4430061 C24.3816892,98.0912658 24.5160483,97.7103867 24.8206491,97.5041088 L40.0569704,87.1846212 L20.5571595,98.4405688 C20.1660623,98.6504851 19.6791169,98.5188641 19.447031,98.1405019 C19.2149451,97.7621396 19.3183114,97.2684238 19.6826834,97.0149383 L28.2481932,91.4497861 L21.6041854,95.2810634 C21.2173208,95.501745 20.7254083,95.3810891 20.484565,95.0064439 C20.2437216,94.6317986 20.3381788,94.1341908 20.699555,93.8738605 L34.1500689,84.2948297 L23.1571343,90.6473454 C22.7675968,90.866411 22.2746855,90.7410767 22.0370998,90.3625503 C21.7995141,89.9840239 21.9009456,89.4856447 22.267581,89.2300911 L25.7236042,86.884753 L24.1002952,87.821213 C23.7313591,88.0268433 23.2670422,87.9256182 23.0171747,87.5850834 C22.7673073,87.2445486 22.8100702,86.7712537 23.1169285,86.4810198 L25.4622665,84.3367107 L25.2126556,84.4807815 C24.8123901,84.7083549 24.3034849,84.5701904 24.0732614,84.1714434 C23.8430379,83.7726963 23.9778237,83.2628857 24.3750348,83.0300223 L31.2971327,79.0345714 C31.6660688,78.8289411 32.1303857,78.9301661 32.3802532,79.270701 C32.6301206,79.6112358 32.5873577,80.0845307 32.2804994,80.3747646 L29.9351613,82.5207489 L44.5750968,74.0624546 C44.9634868,73.851463 45.44898,73.9785661 45.6841547,74.3528082 C45.9193293,74.7270503 45.8232405,75.219621 45.46465,75.4780337 L42.010302,77.8233718 L48.5353677,74.0624546 C48.9222323,73.841773 49.4141447,73.9624289 49.6549881,74.3370741 C49.8958314,74.7117194 49.8013742,75.2093272 49.4399981,75.4696575 L35.9894841,85.0486883 L55.0202275,74.0624546 C55.4118544,73.8467746 55.9038345,73.9766856 56.1379285,74.3575918 C56.3720224,74.738498 56.2656991,75.2361089 55.8963788,75.4880851 L47.3325443,81.0532374 L59.4411898,74.0624546 C59.8302441,73.8491771 60.3181173,73.9762698 60.5536657,74.3522584 C60.7892141,74.728247 60.6907173,75.2226873 60.3290678,75.4797089 L45.0927464,85.7891451 L65.4234772,74.0624546 C65.8155789,73.835113 66.3173874,73.9609003 66.5558908,74.3463146 C66.7943942,74.7317288 66.6830633,75.2369413 66.3046542,75.4864099 L54.5578608,83.2209999 L70.424073,74.0624546 C70.8153888,73.8551632 71.3004465,73.9882768 71.5311444,74.3662665 C71.7618424,74.7442563 71.6584639,75.2365093 71.2951986,75.4897604 L63.8554511,80.2859768 L74.6339549,74.0624546 C75.0263766,73.8431935 75.5219057,73.9727838 75.7567456,74.3560858 C75.9915856,74.7393877 75.8819951,75.2397203 75.508431,75.4897604 L67.6498731,80.5623916 L78.9091712,74.0624546 C79.3002684,73.8525383 79.7872138,73.9841593 80.0192996,74.3625216 C80.2513855,74.7408838 80.1480193,75.2345996 79.7836473,75.4880851 L70.0320665,81.8355751 L83.5043586,74.0624546 C83.8941035,73.8465831 84.3846335,73.9735877 84.6206464,74.3514759 C84.8566592,74.7293642 84.7555531,75.2258794 84.3905614,75.4813842 L70.1376067,85.0470131 L89.1666749,74.0624546 C89.557145,73.8435654 90.0507121,73.9703737 90.2873147,74.3503719 C90.5239174,74.73037 90.4199256,75.2292434 90.0512024,75.4830594 L76.2823925,84.6851609 L94.4219074,74.2132263 C94.8114449,73.9941608 95.3043562,74.1194951 95.5419419,74.4980214 C95.7795276,74.8765478 95.6780961,75.374927 95.3114607,75.6304807 L79.9964029,86.0421065 L97.2296122,76.0945225 C97.6169152,75.880068 98.1042248,76.0040378 98.3419637,76.3775007 C98.5797026,76.7509637 98.4857665,77.2449426 98.1275416,77.5050759 L83.6149246,87.6235345 L98.1895256,79.2071212 C98.5770526,78.9836638 99.0717751,79.1041509 99.3131552,79.4807756 C99.5545353,79.8574002 99.4573746,80.3572274 99.0924807,80.6159993 L88.064366,88.4326762 L98.1895256,82.5877586 C98.5779156,82.3767669 99.0634088,82.5038701 99.2985834,82.8781122 C99.5337581,83.2523543 99.4376693,83.7449249 99.0790788,84.0033376 L96.1172518,86.0136274 L98.1895256,84.8208555 C98.57103,84.6061529 99.0535218,84.7214383 99.2967582,85.0854148 C99.5399946,85.4493912 99.461928,85.9392838 99.1176093,86.2096307 L92.7701193,91.0929596 L98.1962265,87.966959 C98.5653415,87.7584766 99.0320245,87.8586339 99.2830873,88.2002159 C99.53415,88.5417979 99.4904304,89.0171011 99.1812685,89.3071522 L94.4905923,93.6175486 L98.1962265,91.4849662 C98.5407924,91.2860488 98.9777426,91.3569628 99.2417143,91.6546417 C99.5056859,91.9523205 99.5238325,92.3946157 99.2851335,92.7129182 L97.3100238,95.354774 C97.7157705,95.1880087 98.1814533,95.362546 98.3776375,95.7549143 C98.5738216,96.1472826 98.4340418,96.6245513 98.0571815,96.8490894 L94.6262869,98.8225239 C94.2822436,99.021882 93.8454536,98.9518836 93.5809362,98.6549998 C93.3161576,98.3576802 93.2972484,97.9150656 93.5357047,97.5962471 L95.5024382,94.966118 L88.7478645,98.8644049 C88.3787495,99.0728873 87.9120665,98.97273 87.6610038,98.631148 C87.409941,98.2895661 87.4536606,97.8142629 87.7628225,97.5242117 L92.4534987,93.2138154 L82.6499854,98.8711059 C82.268481,99.0858084 81.7859892,98.9705231 81.5427528,98.6065466 C81.2995164,98.2425702 81.377583,97.7526776 81.7219017,97.4823307 L88.0693917,92.5990018 L77.1970744,98.8761316 C76.8069772,99.1025285 76.307657,98.9793871 76.0675558,98.597572 C75.8274545,98.2157569 75.9327942,97.7123803 76.3058459,97.4588773 L79.2643224,95.4485875 L73.3205656,98.8794821 C72.9330385,99.1029396 72.438316,98.9824524 72.1969359,98.6058278 C71.9555558,98.2292032 72.0527165,97.7293759 72.4176104,97.470604 L83.4524261,89.6422005 L67.4555451,98.8845078 C67.067123,99.1074183 66.5720714,98.9853646 66.331782,98.6074468 C66.0914927,98.2295291 66.1909792,97.7294534 66.5576157,97.4722793 L81.0752584,87.3521454 L61.0862769,98.8895336 C60.6967394,99.1085991 60.2038282,98.9832648 59.9662425,98.6047385 C59.7286568,98.2262121 59.8300883,97.7278329 60.1967237,97.4722793 L75.5117814,87.0623286 L55.0118513,98.8962345 C54.6198402,99.1290911 54.1135841,99.0056247 53.8727899,98.6184386 C53.6319958,98.2312525 53.7451234,97.7225863 54.1273238,97.4739545 L67.8961336,88.2735282 L49.4869048,98.9012603 C49.0958263,99.1279189 48.595451,99.0034034 48.3562094,98.6198933 C48.1169678,98.2363832 48.2251651,97.7322275 48.6007021,97.4806555 L62.8536567,87.9150265 L43.8162124,98.906286 C43.4230275,99.1349342 42.9192254,99.0080275 42.6812796,98.6203987 C42.4433337,98.2327699 42.5582081,97.7260887 42.9400611,97.4789802 L52.6983428,91.1247892 L39.214324,98.9096365 C38.8197218,99.1511163 38.3040754,99.0269862 38.0625955,98.632384 C37.8211156,98.2377818 37.9452457,97.7221354 38.3398479,97.4806555 L46.1967305,92.4113747 L34.9307315,98.9146622 C34.5381201,99.1305879 34.0451079,98.9992999 33.8118786,98.6167143 C33.5786494,98.2341287 33.6878082,97.7357493 34.0596059,97.4856812 L41.4943277,92.6944905 L30.7141486,98.9180127 C30.3209646,99.153473 29.8115503,99.0292292 29.570924,98.6391854 C29.3302976,98.2491415 29.447811,97.7381326 29.8346468,97.4923822 L41.579765,89.7594674 L25.7068518,98.9213632 C25.5801735,98.9951895 25.4363355,99.0344705 25.2897167,99.0352796 L25.2897167,99.0352796 Z" id="Path" fill="#9D4CE1"></path>
            <path d="M21.3177191,99.0336043 C20.9670076,99.0336043 20.6534106,98.815166 20.5319079,98.4861741 C20.4104052,98.1571823 20.5067249,97.7873273 20.7732656,97.5593918 L25.9179322,93.1451305 L21.4668156,95.7149509 C21.0836553,95.9344795 20.5958781,95.8188371 20.3520507,95.4506622 C20.1082233,95.0824872 20.1921067,94.5882572 20.5437575,94.32115 L22.1050826,93.148481 C21.7714524,93.2211139 21.4274643,93.0813895 21.2389827,92.7966802 C20.9930415,92.4312801 21.0721109,91.9378285 21.4199088,91.6675675 L23.2425716,90.2503132 C22.8572754,90.4395695 22.3912658,90.3069132 22.1634052,89.943113 C21.9355445,89.5793127 22.0195942,89.1021353 22.3580441,88.8380846 L24.0533885,87.4978914 C23.6766503,87.6081315 23.2738877,87.4419593 23.0844857,87.0981404 C22.8950837,86.7543215 22.9698513,86.3250887 23.2643497,86.0655599 L24.9663951,84.5729198 C24.6126215,84.6505041 24.2496522,84.4880516 24.0718161,84.172537 C23.8402429,83.772358 23.9767104,83.26023 24.3767101,83.0283471 L31.3557661,78.9993913 C31.7287681,78.7860082 32.2027396,78.8895075 32.4528384,79.2389548 C32.7029372,79.588402 32.6480226,80.0704243 32.325731,80.3546617 L30.7845088,81.7049063 L32.8685092,80.5020829 C33.2487565,80.2798493 33.736156,80.3900488 33.9838124,80.7542494 C34.2314689,81.11845 34.1547767,81.6122318 33.8083197,81.8841572 L32.2352679,83.1338873 L32.8752102,82.7653342 C33.2559445,82.5491791 33.7389169,82.6626995 33.9834927,83.0258308 C34.2280685,83.3889622 34.1517308,83.8791885 33.8083197,84.1507589 L32.0057598,85.5546113 L32.8785606,85.0520388 C33.2617209,84.8325103 33.7494981,84.9481526 33.9933255,85.3163276 C34.2371529,85.6845025 34.1532696,86.1787325 33.8016187,86.4458397 L32.5250847,87.4091036 L32.8852616,87.2013737 C33.2596227,86.9857313 33.7365798,87.0901893 33.9865399,87.4425637 C34.2365001,87.7949382 34.1774524,88.2796163 33.8502007,88.5616697 L28.7005084,92.9776063 L32.8886121,90.5568824 C33.248723,90.346028 33.7091134,90.4324047 33.9683055,90.7594504 C34.2274976,91.086496 34.2064246,91.5544449 33.9188856,91.8568698 L31.3373385,94.5908639 L32.902014,93.6862335 C33.231605,93.4954599 33.6484045,93.5510292 33.9165021,93.8214889 C34.1845997,94.0919486 34.2365108,94.5092195 34.0428535,94.8371244 L33.3308758,96.0332468 C33.7069731,96.0389984 34.0331149,96.2947503 34.128379,96.658628 C34.2236431,97.0225057 34.0646648,97.4052633 33.7396348,97.5945719 L31.5299912,98.8711059 C31.2007606,99.0607677 30.7851081,99.0050702 30.5174251,98.7354218 C30.2497421,98.4657735 30.1970866,98.0497247 30.3891518,97.7218902 L30.9738111,96.7301473 L27.2279711,98.892884 C26.8679794,99.1011822 26.4096717,99.0137837 26.1516005,98.6876221 C25.8935294,98.3614605 25.9138703,97.8953375 26.1993728,97.5928966 L28.7876209,94.8471758 L21.7298285,98.9196879 C21.6048397,98.9931763 21.4627068,99.032465 21.3177191,99.0336043 Z" id="Path" fill="#7725BC"></path>
            <path d="M57.0539707,99.0235529 C56.6882231,99.0235529 56.364851,98.7859941 56.2551901,98.4370732 C56.1455293,98.0881523 56.2749385,97.7084237 56.5748516,97.4990831 L60.233579,94.9493656 L55.5780829,97.629752 C55.189858,97.8565218 54.6918464,97.7363473 54.4497671,97.3574796 C54.2076877,96.9786119 54.3078959,96.476202 54.676803,96.2191986 L61.1248075,91.6809694 L55.5780829,94.8840311 C55.1949226,95.1035597 54.7071454,94.9879173 54.463318,94.6197424 C54.2194906,94.2515674 54.303374,93.7573374 54.6550248,93.4902302 L65.4603325,85.3385051 L55.5764077,91.0343262 C55.1873534,91.2476037 54.6994802,91.120511 54.4639318,90.7445224 C54.2283833,90.3685338 54.3268801,89.8740935 54.6885297,89.6170719 L56.6988195,88.2534253 L55.5713819,88.9050943 C55.1811054,89.1275146 54.6848577,89.0024734 54.4465767,88.6216733 C54.2082957,88.2408732 54.3128636,87.7399034 54.6835039,87.4861647 L55.363652,87.0271485 C54.9723593,87.1300797 54.5634224,86.938599 54.3919159,86.5721426 C54.2204093,86.2056862 54.3353638,85.7690173 54.6650763,85.5345084 L56.7222728,84.0619711 L55.5713819,84.7320677 C55.1924363,84.9472373 54.7118108,84.8359063 54.4660664,84.4760349 C54.2203219,84.1161636 54.2915602,83.6279827 54.6298962,83.3533439 L57.6000994,80.9728258 L55.5713819,82.1454948 C55.211761,82.3537208 54.753847,82.2668047 54.4955349,81.9412895 C54.2372229,81.6157743 54.2566204,81.1500883 54.5411084,80.8471827 L56.9132504,78.3142175 L55.5730572,79.0881791 C55.2839265,79.254253 54.9238314,79.2330256 54.6562155,79.0341316 C54.3885995,78.8352377 54.2644352,78.4965604 54.3400794,78.171822 L54.8426519,76.0409148 C54.6695354,75.9723269 54.5252313,75.8463565 54.433893,75.6840884 C54.2034581,75.2842828 54.3397912,74.7734081 54.7387869,74.5415737 L55.5764077,74.0557536 C55.8656256,73.8886021 56.2265103,73.9092755 56.4947482,74.1083612 C56.7629861,74.3074468 56.8872889,74.6468787 56.8110606,74.9721107 L56.4123532,76.6691304 L60.9723605,74.044027 C61.3314897,73.8383147 61.7870256,73.9257314 62.0444968,74.2497683 C62.301968,74.5738052 62.2841811,75.0373116 62.002634,75.3406639 L59.6321673,77.8753043 L66.2929275,74.030625 C66.6711148,73.8203087 67.1472523,73.9326895 67.3914855,74.2899131 C67.6357187,74.6471368 67.5676404,75.131597 67.2344132,75.4076735 L64.2625348,77.7915422 L70.7959766,74.0205736 C71.1822047,73.8022988 71.671637,73.9230255 71.9120548,74.295873 C72.1524725,74.6687205 72.0604813,75.1643581 71.7022823,75.4261012 L69.646761,76.8969632 L74.6440063,74.0121974 C75.0349543,73.7805667 75.5392878,73.9029018 75.7806583,74.2879127 C76.0220287,74.6729235 75.9123908,75.1801688 75.5335596,75.4311269 L75.210238,75.6489083 L76.4281385,74.9469821 C76.818415,74.7245618 77.3146627,74.849603 77.5529438,75.2304031 C77.7912248,75.6112032 77.686696,76.112173 77.3160165,76.3659117 L75.2889743,77.734584 L76.4331643,77.0745388 C76.815996,76.8596896 77.2997586,76.9768644 77.5418477,77.3430792 C77.7839367,77.7092939 77.7022101,78.2002897 77.3545471,78.4683397 L66.5425385,86.6267658 L76.4264633,80.9158676 C76.8146882,80.6890978 77.3126998,80.8092723 77.5547791,81.1881399 C77.7968585,81.5670076 77.6966503,82.0694176 77.3277432,82.3264209 L70.8864397,86.8596244 L76.431489,83.6582379 C76.8204667,83.4272633 77.3225638,83.5468825 77.5656143,83.9284312 C77.8086649,84.3099798 77.7048385,84.8155788 77.3310937,85.0704665 L73.6656653,87.6319107 L76.4432157,86.0287046 C76.825024,85.8095427 77.3113296,85.9233457 77.5562421,86.28917 C77.8011546,86.6549943 77.7210811,87.1479775 77.3729747,87.4174798 L72.5868098,91.1030111 L76.4499167,88.8732647 C76.833077,88.6537361 77.3208541,88.7693785 77.5646815,89.1375534 C77.8085089,89.5057284 77.7246256,89.9999584 77.3729747,90.2670656 L76.6693733,90.7964419 C77.04576,90.7028994 77.4371393,90.8799754 77.6153528,91.2244418 C77.7935663,91.5689081 77.712001,91.9906673 77.4182063,92.2438506 L76.5303283,93.0094359 C76.8604498,92.8568515 77.2513136,92.934723 77.4977515,93.202175 C77.7441894,93.469627 77.7898878,93.8655438 77.610859,94.182105 L76.6274923,95.9494847 C77.0320995,95.8287531 77.4633123,96.028049 77.6335341,96.4144525 C77.8037559,96.800856 77.659762,97.253547 77.2975889,97.470604 L74.8550868,98.8828326 C74.5289373,99.0711551 74.1172024,99.0186481 73.8487548,98.7544989 C73.5803073,98.4903497 73.5211619,98.0795159 73.7041959,97.7503693 L74.6708102,96.0114687 L69.6836163,98.8778069 C69.3099182,99.0892474 68.836853,98.9838737 68.5882276,98.6338126 C68.3396022,98.2837515 68.3959395,97.802378 68.7186772,97.519186 L69.5931532,96.7653273 L65.9176734,98.8861831 C65.5345131,99.1057116 65.0467359,98.9900693 64.8029085,98.6218943 C64.5590811,98.2537194 64.6429645,97.7594894 64.9946153,97.4923822 L65.4837859,97.1221538 L62.4130682,98.8945593 C62.0315638,99.1092618 61.5490719,98.9939765 61.3058355,98.63 C61.0625991,98.2660236 61.1406657,97.776131 61.4849844,97.5057841 L66.2728246,93.8202528 L57.472781,98.906286 C57.3461294,98.9820153 57.2015324,99.0225025 57.0539707,99.0235529 L57.0539707,99.0235529 Z" id="Path" fill="#B46EEE"></path>
            <path d="M81.1958758,99.010151 C80.8353384,99.010151 80.515251,98.779445 80.401239,98.4374091 C80.2872271,98.0953733 80.4048734,97.7187561 80.6933034,97.5024336 L86.5566486,93.1367543 L77.3562223,98.448945 C76.9686952,98.6724025 76.4739728,98.5519154 76.2325927,98.1752907 C75.9912126,97.7986661 76.0883733,97.2988389 76.4532672,97.040067 L83.2262685,92.253902 L77.3629233,95.6412403 C76.9733858,95.8603059 76.4804745,95.7349716 76.2428888,95.3564452 C76.0053031,94.9779188 76.1067346,94.4795396 76.4733701,94.223986 L79.1755346,92.3895966 L77.3629233,93.4349473 C76.9766953,93.653222 76.4872629,93.5324953 76.2468452,93.1596478 C76.0064274,92.7868003 76.0984187,92.2911628 76.4566176,92.0294196 L83.6501046,86.8830778 L77.3562223,90.5116508 C76.9688992,90.7389579 76.4712299,90.6203537 76.2280595,90.242788 C75.9848892,89.8652223 76.0827577,89.3630634 76.4499167,89.104448 L81.9782136,85.1609295 L77.3562223,87.8262387 C76.9813691,88.0255759 76.5166605,87.9129326 76.2746862,87.5640792 C76.0327119,87.2152258 76.0900088,86.7405052 76.4080356,86.4592417 L83.4842557,80.6662566 L77.3562223,84.1993409 C76.9765278,84.41292 76.4965042,84.2997942 76.2521365,83.9391443 C76.0077689,83.5784943 76.0806476,83.0907353 76.4197623,82.8172667 L78.3663929,81.279395 L77.3612481,81.862379 C77.0002649,82.0684375 76.5427769,81.9786062 76.2865148,81.6513469 C76.0302527,81.3240876 76.0527437,80.8584063 76.3393507,80.5573659 L78.3496405,78.4616388 L77.3578976,79.0312209 C77.0687669,79.1972948 76.7086718,79.1760673 76.4410559,78.9771734 C76.1734399,78.7782795 76.0492756,78.4396022 76.1249198,78.1148638 L76.6174408,76.0392396 C76.3183422,75.9189533 76.1148193,75.6376898 76.0940867,75.3159773 C76.0733542,74.9942648 76.2390917,74.6892045 76.5202768,74.5315222 L77.3578976,74.0490527 C77.6476972,73.8810741 78.009707,73.9018989 78.2783326,74.1020012 C78.5469581,74.3021036 78.670541,74.6430025 78.5925505,74.9687603 L78.2038945,76.6021207 L82.6231816,74.0624546 C82.9841647,73.8563961 83.4416528,73.9462274 83.6979148,74.2734867 C83.9541769,74.600746 83.9316859,75.0664274 83.6450789,75.3674677 L81.6347891,77.4631948 L87.5249382,74.0624546 C87.9046327,73.8488755 88.3846563,73.9620013 88.629024,74.3226512 C88.8733917,74.6833012 88.800513,75.1710602 88.4613982,75.4445288 L86.5147676,76.9824005 L91.5739969,74.0624546 C91.9509727,73.851427 92.4266055,73.9617273 92.6722236,74.3171358 C92.9178416,74.6725442 92.8528606,75.1564556 92.5221836,75.4344774 L85.4442883,81.2257872 L96.1658338,75.0273937 C96.5531569,74.8000867 97.0508263,74.9186909 97.2939966,75.2962566 C97.5371669,75.6738223 97.4392985,76.1759812 97.0721395,76.4345966 L91.5438425,80.3797903 L97.6735512,76.8416803 C98.0597792,76.6234055 98.5492115,76.7441322 98.7896293,77.1169797 C99.0300471,77.4898272 98.9380558,77.9854648 98.5798568,78.2472079 L91.3964213,83.3868488 L98.1895256,79.4651084 C98.5804735,79.2334777 99.0848071,79.3558129 99.3261775,79.7408237 C99.5675479,80.1258346 99.45791,80.6330799 99.0790788,80.884038 L96.3618371,82.7268036 L98.1895256,81.674752 C98.5759763,81.4595135 99.0631771,81.5818759 99.3020665,81.9541711 C99.5409559,82.3264662 99.4491747,82.8203421 99.0924807,83.0819548 L92.3194794,87.869795 L98.1828246,84.4807815 C98.5671518,84.257155 99.0592381,84.3728019 99.3037248,84.7442079 C99.5482115,85.1156139 99.459886,85.6133304 99.1025322,85.8779329 L93.2391869,90.2452875 L98.1878503,87.3973769 C98.5571389,87.1859223 99.0262901,87.2849684 99.2785904,87.6276514 C99.5308907,87.9703344 99.4861482,88.4477347 99.1745676,88.7375701 L93.8372482,93.6627801 L98.192876,91.1499179 C98.540755,90.9516187 98.9803316,91.0272738 99.2418997,91.3304643 C99.5034678,91.6336547 99.5138624,92.0795732 99.2667058,92.3946223 L97.0319337,95.2140537 L97.5244547,94.9309379 C97.784108,94.7658769 98.113354,94.756455 98.3820215,94.9063974 C98.6506891,95.0563397 98.8155259,95.3415073 98.8113617,95.6491559 C98.8071976,95.9568044 98.6347029,96.2374061 98.3620754,96.3800218 L94.0701067,98.8560287 C93.7221274,99.056324 93.2809634,98.9815231 93.018456,98.6777178 C92.7559485,98.3739125 92.7459417,97.926564 92.9946017,97.6113243 L95.2293738,94.7935681 L88.1598547,98.8744564 C87.7905661,99.085911 87.321415,98.9868649 87.0691146,98.6441819 C86.8168143,98.3014989 86.8615568,97.8240986 87.1731375,97.5342632 L92.5188331,92.600677 L81.6146862,98.8945593 C81.4879657,98.9699292 81.3433161,99.0098525 81.1958758,99.010151 L81.1958758,99.010151 Z" id="Path" fill="#C384F8"></path>
            <path d="M23.2794269,92.2170467 C22.930269,92.2170467 22.6179246,91.9998821 22.4956132,91.6728482 C22.3733017,91.3458142 22.4666824,90.9772127 22.7299477,90.7478599 L28.1376272,86.045457 L22.0766035,89.5433613 C21.6920473,89.7636423 21.2024541,89.6462518 20.959602,89.2755361 C20.71675,88.9048205 20.8046945,88.4090909 21.1602464,88.1445346 L30.8766471,80.9795267 L22.066552,86.0672352 C21.6788144,86.2872158 21.186713,86.1649615 20.9470019,85.7891017 C20.7072909,85.4132419 20.8039685,84.9154835 21.1669474,84.6566818 L36.5791691,73.8379723 L22.0615263,82.2141797 C21.6655363,82.4533466 21.1506399,82.3262163 20.9114731,81.9302263 C20.6723062,81.5342363 20.7994365,81.0193399 21.1954265,80.780173 L21.9526356,80.3010539 C21.5512978,80.4609413 21.0941938,80.2893681 20.897182,79.9048914 C20.7001702,79.5204146 20.8278852,79.0491713 21.192076,78.81679 L29.0824634,73.8044674 L22.0581758,77.8585518 C21.6670787,78.0684681 21.1801333,77.9368471 20.9480474,77.5584849 C20.7159615,77.1801226 20.8193278,76.6864068 21.1836998,76.4329213 L45.0223862,60.9034327 L22.0565006,74.1696701 C21.6626738,74.3830071 21.1707027,74.2487749 20.9398,73.8649831 C20.7088972,73.4811914 20.8207774,72.9836608 21.1937512,72.7356633 L35.8253104,63.603922 L22.0548253,71.5495924 C21.6604541,71.7807059 21.1536162,71.6529681 20.9158895,71.2625476 C20.6781627,70.8721272 20.797341,70.3632086 21.1836998,70.1189361 L48.322612,52.7567333 L22.0548253,67.9226945 C21.6591208,68.1456206 21.1578459,68.0125727 20.9247745,67.6227575 C20.6917032,67.2329423 20.8117606,66.7283984 21.1954265,66.4853373 L30.0842578,61.0005967 L22.0531501,65.6359899 C21.6573165,65.8548366 21.1592344,65.7199055 20.9279921,65.3311831 C20.6967497,64.9424607 20.8158785,64.4403645 21.1971017,64.1969575 L21.9794395,63.7195136 C21.5766723,63.910474 21.0949036,63.7525531 20.8833372,63.3602179 C20.6717708,62.9678827 20.8045251,62.4785808 21.185375,62.2469764 L36.5975968,52.5892091 L22.0447739,60.995571 C21.6483213,61.2342752 21.1334249,61.1063949 20.8947207,60.7099422 C20.6560164,60.3134896 20.7838967,59.7985933 21.1803493,59.559889 L35.1736415,50.7866493 L31.2837307,53.0314729 C30.8893153,53.2568766 30.3871166,53.1267978 30.1517229,52.7382619 C29.9163293,52.349726 30.0335522,51.8443718 30.4159556,51.5991414 L39.6783659,45.7073171 L37.147076,47.1681277 C36.7537774,47.392004 36.2537703,47.2629992 36.017878,46.8767879 C35.7819857,46.4905765 35.895518,45.9868307 36.2742752,45.7391467 L43.2583569,41.2277213 L42.8730514,41.4488532 C42.4844237,41.6682899 41.9919942,41.5444751 41.7533704,41.1673244 C41.5147466,40.7901736 41.6137452,40.2921614 41.9784724,40.0349494 L52.103632,33.0341152 L50.1737538,34.1481508 C49.7862293,34.3597758 49.3009749,34.2342399 49.0646947,33.8612357 C48.8284145,33.4882316 48.9222575,32.9958653 49.2791749,32.7359222 L54.3819605,29.2011626 C54.2479155,29.1400878 54.1323471,29.0447438 54.0469122,28.9247478 C53.7967425,28.5698251 53.8592856,28.0825712 54.1909829,27.802336 L60.4513604,22.5001967 L60.4212061,22.4482642 C60.1896329,22.0480852 60.3261004,21.5359571 60.7261,21.3040742 L64.3630493,19.2066719 C64.7383377,18.9892857 65.2174965,19.093775 65.4674346,19.4487639 C65.7173728,19.8032058 65.6554177,20.2898138 65.3246379,20.5703184 L62.3912901,23.0530263 L67.6733265,20.0024116 C68.0619542,19.7829749 68.5543837,19.9067897 68.7930075,20.2839404 C69.0316313,20.6610912 68.9326327,21.1591033 68.5679054,21.4163154 L67.0484614,22.4683671 L69.105658,21.2822961 C69.4942857,21.0628594 69.9867152,21.1866742 70.225339,21.5638249 C70.4639628,21.9409757 70.3649641,22.4389878 70.0002369,22.6961999 L59.8784278,29.6920084 L71.0606648,23.2373029 C71.4530864,23.0180418 71.9486156,23.1476321 72.1834555,23.5309341 C72.4182954,23.914236 72.308705,24.4145686 71.9351408,24.6646087 L64.9493838,29.1877607 L72.595186,24.7751746 C72.9879983,24.5622969 73.4787465,24.6951985 73.7104557,25.0772054 C73.9421648,25.4592123 73.8332606,25.9558375 73.4629611,26.2058308 L64.1988756,32.0993304 L74.1665625,26.3448759 C74.4230224,26.1904613 74.7423803,26.1845961 75.0043372,26.3294895 C75.2662941,26.474383 75.4310525,26.7480225 75.4365495,27.0473305 C75.4420465,27.3466386 75.287447,27.6261433 75.0309871,27.7805578 L61.017592,36.5655242 L75.8334278,28.0117412 C76.0898877,27.8573266 76.4092456,27.8514613 76.6712025,27.9963548 C76.9331594,28.1412483 77.0979178,28.4148877 77.1034148,28.7141958 C77.1089118,29.0135039 76.9543123,29.2930085 76.6978524,29.4474231 L61.2856307,39.1051903 L77.5455246,29.723838 C77.9406065,29.5126816 78.4318965,29.6497551 78.660592,30.03495 C78.8892874,30.4201449 78.7744276,30.9170979 78.3998978,31.1628704 L77.805187,31.5280731 L78.6528592,31.0389025 C79.0477436,30.8247779 79.5412348,30.9602694 79.7714213,31.3460118 C80.0016079,31.7317541 79.8865303,32.2304009 79.5105829,32.4762598 L70.631803,37.9526242 L79.3263063,32.9268997 C79.7189177,32.710974 80.2119299,32.842262 80.4451592,33.2248476 C80.6783884,33.6074332 80.5692296,34.1058126 80.1974319,34.3558807 L53.040092,51.7331607 L77.37465,37.6845856 C77.7684767,37.4712486 78.2604478,37.6054808 78.4913506,37.9892725 C78.7222533,38.3730643 78.6103731,38.8705948 78.2373994,39.1185923 L63.6309688,48.231906 L71.1913336,43.8679019 C71.5837553,43.6486408 72.0792844,43.7782311 72.3141243,44.1615331 C72.5489643,44.544835 72.4393738,45.0451676 72.0658097,45.2952077 L48.2405252,60.8146449 L62.4582997,52.6059616 C62.851112,52.3930839 63.3418603,52.5259854 63.5735694,52.9079923 C63.8052785,53.2899992 63.6963743,53.7866244 63.3260748,54.0366178 L55.3988321,59.074069 L56.8026844,58.2649273 C57.1963174,58.0484617 57.6906273,58.1810613 57.9230733,58.5654741 C58.1555194,58.9498868 58.0433283,59.4492244 57.6687843,59.6972588 L52.7368733,62.8182337 C52.9600535,62.862994 53.1554061,62.9966563 53.2779763,63.1884621 C53.5189617,63.5661719 53.4200491,64.0666403 53.053494,64.3242758 L37.6412722,75.1396349 L43.0472765,72.01866 C43.4318327,71.798379 43.9214259,71.9157695 44.164278,72.2864851 C44.40713,72.6572008 44.3191855,73.1529303 43.9636336,73.4174866 L34.2472329,80.579144 L34.8318922,80.2440957 C35.2053432,80.0300023 35.6802719,80.133832 35.9303119,80.4842341 C36.180352,80.8346362 36.124087,81.3175152 35.8001818,81.6010413 L27.6350548,88.7007148 C27.6646915,88.7371954 27.6915697,88.7758328 27.7154664,88.8163065 C27.946758,89.216924 27.8095045,89.7291871 27.4088972,89.9604964 L23.696562,92.1031303 C23.570197,92.1777007 23.4261541,92.2170467 23.2794269,92.2170467 L23.2794269,92.2170467 Z" id="Path" fill="#EEE368"></path>
            <path d="M65.8774676,49.8485143 C65.5257001,49.8485143 65.2112389,49.6292486 65.0902733,49.2989339 C64.9693077,48.9686193 65.067614,48.5979171 65.3363646,48.3709511 L66.5710176,47.3323013 L64.867297,48.3139928 C64.4830986,48.5292995 63.9977878,48.4103061 63.7567591,48.0416999 C63.5157304,47.6730937 63.6013205,47.1807927 63.9526151,46.9151662 L66.4537507,45.0724005 L63.389734,46.8414556 C63.0087087,47.0621028 62.5218993,46.9500865 62.2756307,46.5850971 C62.0293622,46.2201077 62.1077157,45.7267602 62.4549492,45.4560309 L69.7388993,39.7602098 L61.2169458,44.6820693 C60.8332096,44.9035326 60.3433797,44.7878574 60.0992572,44.4181228 C59.8551347,44.0483883 59.9411662,43.5524924 60.2955629,43.2865931 L66.6145739,38.5473349 L59.297119,42.772294 C58.9113322,42.9973505 58.4168216,42.8801231 58.1731127,42.50584 C57.9294039,42.1315568 58.0222339,41.6318913 58.3841124,41.3701168 L63.4684703,37.6594569 L57.5816717,41.0601972 C57.1935015,41.273995 56.7059707,41.148448 56.4693462,40.7737555 C56.2327217,40.3990631 56.328894,39.9048979 56.688768,39.6462933 L57.035543,39.4067338 L56.3302663,39.8138175 C55.9427393,40.037275 55.4480168,39.9167878 55.2066367,39.5401632 C54.9652566,39.1635385 55.0624173,38.6637113 55.4273112,38.4049394 L58.3238037,36.369521 L54.8661053,38.3630584 C54.4785782,38.5865158 53.9838557,38.4660287 53.7424756,38.089404 C53.5010955,37.7127794 53.5982562,37.2129522 53.9631501,36.9541803 L57.1662118,34.6892538 L53.3751403,36.8670677 C52.9949298,37.0818881 52.5134734,36.968553 52.2690155,36.6066853 C52.0245577,36.2448176 52.0991358,35.7558563 52.4403556,35.4833182 L60.2386047,29.3904649 L51.1403682,34.642347 C50.7591015,34.8599436 50.2745178,34.7462656 50.0297922,34.3818182 C49.7850667,34.0173707 49.8632325,33.5258078 50.2089339,33.255247 L57.5381154,27.5962813 L55.5981858,28.7153426 C55.2228694,28.9264217 54.748657,28.8185489 54.5015787,28.465889 C54.2545004,28.113229 54.3150605,27.6306874 54.6416229,27.3500208 L60.4446594,22.475068 L60.4245565,22.439888 C60.1929833,22.039709 60.3294509,21.5275809 60.7294505,21.295698 L64.3663998,19.1982957 C64.7419391,18.9837052 65.2191088,19.0903337 65.4675834,19.4443665 C65.7160579,19.7983993 65.6541162,20.2833981 65.3246379,20.5636175 L63.0312323,22.4901452 L67.5192043,19.9002219 C67.9004709,19.6826253 68.3850547,19.7963033 68.6297802,20.1607507 C68.8745058,20.5251981 68.7963399,21.0167611 68.4506385,21.2873218 L61.1231322,26.9479628 L69.7757546,21.9523927 C70.1556857,21.7415051 70.6337955,21.8561726 70.8767415,22.2164481 C71.1196876,22.5767236 71.0467859,23.0629571 70.7088641,23.3361422 L62.9089397,29.432346 L72.0038258,24.1821391 C72.3913528,23.9586816 72.8860753,24.0791688 73.1274554,24.4557934 C73.3688355,24.8324181 73.2716748,25.3322453 72.9067809,25.5910172 L69.7020439,27.8609694 L73.4947907,25.6714288 C73.8818735,25.4539686 74.3713909,25.5763158 74.6106465,25.9503195 C74.8499022,26.3243232 74.7557693,26.82004 74.3960706,27.0803069 L71.5079543,29.1174006 L74.9522508,27.1288889 C75.3415881,26.9063333 75.8371398,27.029907 76.0763936,27.4092118 C76.3156474,27.7885167 76.2137111,28.2889674 75.8451545,28.544468 L75.4983795,28.780677 L76.2003057,28.3769438 C76.5860925,28.1518873 77.0806031,28.2691147 77.324312,28.6433978 C77.5680208,29.017681 77.4751908,29.5173465 77.1133123,29.7791209 L72.0289544,33.4914561 L77.915753,30.0923911 C78.2994891,29.8709277 78.7893191,29.986603 79.0334416,30.3563375 C79.277564,30.7260721 79.1915325,31.221968 78.8371358,31.4878673 L72.5214754,36.2204245 L79.2224414,32.3522919 C79.6026519,32.1374714 80.0841083,32.2508065 80.3285661,32.6126743 C80.573024,32.974542 80.4984458,33.4635033 80.1572261,33.7360414 L72.8665751,39.4435891 L78.7500232,36.0461994 C79.1351844,35.8236879 79.6270961,35.9410392 79.8703288,36.3134615 C80.1135615,36.6858837 80.0232748,37.1834746 79.6647051,37.4467013 L74.6942636,41.1020782 C74.8356901,41.1625747 74.9570852,41.2618981 75.0443891,41.3885445 C75.2945587,41.7434671 75.2320157,42.2307211 74.9003183,42.5109563 L69.8511404,46.7560183 C70.0581702,47.1540088 69.9148781,47.6444517 69.5261436,47.8683786 L66.2912523,49.7362729 C66.1656713,49.8096072 66.0228928,49.8485143 65.8774676,49.8485143 L65.8774676,49.8485143 Z" id="Path" fill="#F5EC83"></path>
            <path d="M34.9809887,80.5356709 C34.6282198,80.5348676 34.3137123,80.3132023 34.1944216,79.981214 C34.0751309,79.6492258 34.1766285,79.2780807 34.4482619,79.052999 L35.7884551,77.9423139 L33.9691429,78.9926903 C33.5891734,79.2103879 33.1056439,79.0986588 32.8597006,78.7363317 C32.6137574,78.3740046 32.6884183,77.8833826 33.0310076,77.6106161 L41.0269353,71.3217595 L31.6874639,76.7143619 C31.3051034,76.9352355 30.8169456,76.8213462 30.5718021,76.4540734 C30.3266585,76.0868006 30.4087333,75.5922983 30.7593802,75.3239115 L37.8322497,69.9246081 L29.6235664,74.6588406 C29.2392392,74.882467 28.7471529,74.7668202 28.5026662,74.3954142 C28.2581795,74.0240081 28.346505,73.5262916 28.7038588,73.2616892 L34.774934,68.7385371 L27.7573474,72.7909463 C27.3747499,73.008723 26.8888624,72.8931621 26.6452749,72.526457 C26.4016874,72.1597519 26.4835398,71.6670642 26.8326141,71.3988206 L33.5670849,66.302736 L25.7671605,70.8041099 C25.3854215,71.0160526 24.9049072,70.8992066 24.6631139,70.5356405 C24.4213205,70.1720744 24.4993631,69.6837545 24.8424272,69.4136595 L31.8298595,64.0863915 L23.7317421,68.7686915 C23.34332,68.991602 22.8482684,68.8695482 22.607979,68.4916305 C22.3676897,68.1137127 22.4671762,67.613637 22.8338126,67.3564629 L24.3850863,66.2809579 L22.3915489,67.4318488 C22.0067642,67.6490098 21.5194692,67.5299496 21.2781765,67.1598199 C21.0368839,66.7896902 21.1245789,66.2957861 21.4785423,66.0313469 L26.6717909,62.2386001 L22.0699025,64.8938579 C21.6836745,65.1121327 21.1942422,64.991406 20.9538244,64.6185585 C20.7134066,64.2457109 20.8053979,63.7500734 21.1635969,63.4883303 L23.9495235,61.488092 L22.0565006,62.5803494 C21.6772919,62.7996806 21.1931279,62.6897705 20.9457883,62.3282065 C20.6984487,61.9666426 20.771485,61.4755614 21.1133396,61.2016257 L28.3336305,55.4237177 C28.0394961,55.3414552 27.8134519,55.1056171 27.7437316,54.80826 C27.6740113,54.5109029 27.7716678,54.1991678 27.9985822,53.9947367 L32.5803677,49.8585655 C32.5431163,49.5275119 32.70559,49.2058534 32.9941523,49.0393724 L34.4449114,48.2017517 C34.8134763,48.0015166 35.2733226,48.1047654 35.5209083,48.443344 C35.7684939,48.7819227 35.7274749,49.2514292 35.4249277,49.5419449 L34.9994164,49.9255752 L35.7482493,49.4950381 C36.127458,49.2757069 36.611622,49.385617 36.8589616,49.747181 C37.1063013,50.1087449 37.0332649,50.5998261 36.6914103,50.8737618 L30.7761326,55.6079943 L37.8121468,51.5472089 C38.1983749,51.3289341 38.6878072,51.4496609 38.928225,51.8225084 C39.1686427,52.1953559 39.0766515,52.6909934 38.7184525,52.9527365 L35.9409021,54.9479492 L39.2813336,53.0197462 C39.6661183,52.8025852 40.1534133,52.9216454 40.394706,53.2917751 C40.6359987,53.6619048 40.5483037,54.1558089 40.1943403,54.4202481 L35.0061173,58.2163453 L41.0168838,54.7452449 C41.406032,54.5187911 41.9045823,54.6404808 42.1456351,55.0207585 C42.3866879,55.4010362 42.2839979,55.9038439 41.913138,56.1591488 L40.3601892,57.236329 L42.3604275,56.0820877 C42.7421665,55.870145 43.2226808,55.9869909 43.4644741,56.350557 C43.7062675,56.7141231 43.6282249,57.202443 43.2851608,57.4725381 L36.2960533,62.799806 L44.4042221,58.1191813 C44.7868196,57.9014047 45.2727071,58.0169655 45.5162946,58.3836706 C45.7598821,58.7503757 45.6780297,59.2430634 45.3289554,59.511307 L38.6011856,64.6040411 L46.3977595,60.1026672 C46.7820867,59.8790408 47.274173,59.9946876 47.5186597,60.3660937 C47.7631465,60.7374997 47.6748209,61.2352162 47.3174671,61.4998186 L41.2413662,66.0229707 L48.2773805,61.9655358 C48.659741,61.7446622 49.1478988,61.8585514 49.3930424,62.2258243 C49.6381859,62.5930971 49.5561111,63.0875994 49.2054643,63.3559862 L42.1359451,68.7536143 L50.3446285,64.0177066 C50.7251214,63.7985947 51.210237,63.9104835 51.4563246,64.2741121 C51.7024123,64.6377408 51.6259437,65.1296846 51.2810885,65.4014561 L43.2868361,71.6903127 L43.5950805,71.5110618 C43.9720501,71.2935607 44.4527861,71.4009907 44.7013096,71.7582705 C44.9498331,72.1155503 44.8833364,72.6036348 44.5482929,72.8814094 L39.4471825,77.1030179 L39.457234,77.1231208 C39.6876689,77.5229264 39.5513357,78.0338011 39.15234,78.2656355 L35.3997991,80.4283723 C35.2721915,80.5006628 35.1276355,80.5376692 34.9809887,80.5356709 L34.9809887,80.5356709 Z" id="Path" fill="#D8CC43"></path>
            <path d="M21.6544426,91.7714325 C21.2992019,91.770801 20.9829966,91.5461556 20.8654748,91.210917 C20.7479529,90.8756783 20.8546786,90.5027695 21.1317673,90.2804675 L26.1574918,86.2431355 L22.073253,88.6035508 C21.700005,88.814309 21.2278722,88.7092751 20.9791784,88.3601555 C20.7304846,88.0110359 20.7854883,87.5304987 21.1066387,87.2466052 L25.964839,83.0367233 L22.073253,85.2865726 C21.6920469,85.4972173 21.2130178,85.3805751 20.9713265,85.0182567 C20.7296352,84.6559383 20.8059363,84.1688526 21.1468445,83.8977974 L21.7114008,83.4622346 C21.4292665,83.473992 21.1587021,83.3493079 20.984346,83.1271863 C20.7300001,82.7871743 20.7703119,82.3106314 21.0781596,82.0181765 L24.2611184,78.9742627 L22.0648768,80.2424205 C21.7118967,80.4465754 21.2631878,80.3668786 21.0021008,80.053657 C20.7410138,79.7404353 20.7434198,79.2847101 21.0077994,78.9742627 L23.85571,75.6355064 L22.066552,76.6674551 C21.7114869,76.8710352 21.2612955,76.7882078 21.0019386,76.4715849 C20.7425816,76.1549619 20.7500188,75.697275 21.0195261,75.3892459 L22.0632016,74.2048501 C21.7350065,74.3828956 21.3285949,74.3222151 21.0667214,74.0560677 C20.8048479,73.7899203 20.7507541,73.3825797 20.9340888,73.0573097 L21.9392337,71.3401872 C21.6982164,71.4223515 21.4330103,71.3915852 21.2172046,71.2564251 C20.9534977,71.0896257 20.8043659,70.7900708 20.8302238,70.4791131 L21.0697833,67.585971 C21.0195252,67.536116 20.9761445,67.4797774 20.9407898,67.4184468 C20.8289082,67.226319 20.7980003,66.9975929 20.8548756,66.7826608 C20.9117509,66.5677287 21.0517427,66.3842261 21.2440085,66.2725817 L21.5522529,66.0950061 C21.8218741,65.9388157 22.1559104,65.9451982 22.4193683,66.1115741 C22.6828262,66.27795 22.8321558,66.5768174 22.8070088,66.8873953 L22.6311084,69.021653 L23.8121537,68.3415049 C24.1388921,68.1548274 24.5500165,68.2089588 24.8172986,68.473849 C25.0816356,68.7415357 25.1350765,69.1526192 24.9479674,69.4789939 L23.9629254,71.172663 L25.6683213,70.1892963 C26.0238503,69.9835008 26.4761551,70.0659047 26.7362635,70.3838612 C26.9963719,70.7018176 26.9875132,71.1614823 26.7153472,71.4691808 L25.673347,72.6418498 L27.234672,71.7405699 C27.5876522,71.5364149 28.0363611,71.6161118 28.2974481,71.9293334 C28.5585351,72.242555 28.5561291,72.6982803 28.2917494,73.0087277 L25.4438389,76.3491593 L29.5079748,74.0038212 C29.8780589,73.7262581 30.4030807,73.8012612 30.6806438,74.1713453 C30.9582069,74.5414295 30.8832038,75.0664512 30.5131197,75.3440144 L27.3184341,78.3896034 L31.4881102,75.9806061 C31.8696146,75.7659036 32.3521065,75.8811889 32.5953429,76.2451654 C32.8385793,76.6091419 32.7605127,77.0990344 32.416194,77.3693813 L32.367612,77.4095871 L32.7194127,77.2068829 C33.0926608,76.9961247 33.5647935,77.1011586 33.8134873,77.4502782 C34.0621812,77.7993978 34.0071774,78.279935 33.686027,78.5638285 L28.8278267,82.7737104 L34.8285417,79.3076357 C35.2074874,79.0924662 35.6881129,79.2037971 35.9338573,79.5636685 C36.1796018,79.9235398 36.1083635,80.4117207 35.7700275,80.6863595 L30.2082257,85.1492028 C30.5100634,85.155957 30.7885539,85.3131187 30.9503577,85.5680132 C31.1807926,85.9678188 31.0444594,86.4786935 30.6454637,86.7105279 L22.073253,91.6524903 C21.9465739,91.7283599 21.8020897,91.7693934 21.6544426,91.7714325 L21.6544426,91.7714325 Z" id="Path" fill="#AA9E17"></path>
            <path d="M10.9446238,98.9732956 C10.5840863,98.9732956 10.2639989,98.7425897 10.1499869,98.4005538 C10.035975,98.058518 10.1536214,97.6819008 10.4420513,97.4655783 L14.387245,94.4300407 L6.73641712,98.8560287 C6.35041071,99.0775567 5.85855889,98.9585356 5.61654099,98.5850346 C5.3745231,98.2115337 5.46685214,97.7139801 5.82676099,97.4521764 L11.1272251,93.6225743 L3.87510465,97.810678 C3.4884552,98.0348553 2.99390892,97.9159777 2.75138783,97.5405623 C2.50886675,97.1651468 2.60381184,96.6654535 2.96712376,96.4051504 L10.6916623,90.8601011 L2.31545482,95.6965233 C1.92880537,95.9207006 1.43425908,95.801823 1.191738,95.4264075 C0.949216916,95.050992 1.04416201,94.5512988 1.40747393,94.2909957 L10.7720739,87.5481486 L1.96867983,92.6308313 C1.58267341,92.8523593 1.09082159,92.7333382 0.848803701,92.3598373 C0.606785807,91.9863363 0.699114846,91.4887827 1.0590237,91.226979 L11.3131769,83.7956077 L1.96700459,89.1915606 C1.57592608,89.4182192 1.07555075,89.2937037 0.836309181,88.9101936 C0.59706761,88.5266835 0.705264824,88.0225278 1.08080184,87.7709558 L4.32741985,85.5931418 L1.96532935,86.9551132 C1.57408484,87.1776586 1.07690786,87.0512114 0.839525515,86.6687871 C0.602143165,86.2863628 0.709435323,85.7847033 1.08247708,85.5328331 L3.20165757,84.1139036 L1.96532935,84.824206 C1.57537182,85.0371119 1.08702365,84.9085072 0.852509876,84.5311492 C0.617996106,84.1537912 0.718914599,83.6589795 1.08247708,83.4036012 L2.6739565,82.3431733 L1.9636541,82.7519322 C1.58002883,82.9655493 1.09655494,82.8466652 0.855741198,82.4795013 C0.614927454,82.1123373 0.698519071,81.6215289 1.04729701,81.3547808 L11.7035082,73.4509915 L1.96197886,79.0747772 C1.58228434,79.2883562 1.10226072,79.1752305 0.857893054,78.8145805 C0.613525388,78.4539306 0.686404099,77.9661716 1.02551887,77.6927029 L9.17724398,71.2731775 L1.96030362,75.4378279 C1.59193047,75.6354993 1.13420618,75.5312874 0.887714162,75.1936271 C0.641222148,74.8559668 0.681442377,74.3882554 0.981962588,74.0976347 L6.14673212,69.4538653 L1.95862838,71.8712387 C1.59986533,72.0769148 1.14469107,71.9899889 0.886968737,71.6665808 C0.629246404,71.3431728 0.646113113,70.8800796 0.926679619,70.5762771 L3.08439066,68.2610933 L1.95695314,68.911087 C1.61408374,69.107677 1.18045149,69.037849 0.91662817,68.7435629 C0.651855118,68.4502184 0.628115139,68.011727 0.859669959,67.6915112 L1.64368298,66.6093052 C1.51321165,66.5350395 1.40592078,66.4260088 1.3337633,66.2943598 C1.10247164,65.8937423 1.23972516,65.3814792 1.6403325,65.1501699 L3.61711746,64.0110056 C3.95890142,63.8152595 4.39089149,63.8840791 4.65493229,64.176338 C4.91897309,64.4685969 4.94372677,64.9053334 4.71440064,65.2255557 L4.52174787,65.4919191 L7.09156832,64.0110056 C7.45033137,63.8053296 7.90550563,63.8922555 8.16322796,64.2156636 C8.42095029,64.5390716 8.40408359,65.0021647 8.12351708,65.3059673 L5.96580603,67.6144501 L12.222833,63.999279 C12.5912062,63.8016075 13.0489305,63.9058194 13.2954225,64.2434797 C13.5419145,64.58114 13.5016943,65.0488515 13.201174,65.3394722 L8.04310549,69.993293 L18.4296028,63.9959285 C18.8095722,63.7782309 19.2931017,63.88996 19.539045,64.2522871 C19.7849882,64.6146142 19.7103273,65.1052362 19.367738,65.3780027 L11.2176881,71.7975281 L23.5307131,64.6894785 C23.9146811,64.4711879 24.4021701,64.5885537 24.6447139,64.9576806 C24.8872577,65.3268075 24.8015015,65.820838 24.4487454,66.0866299 L13.79756,73.9853935 L24.4856008,67.8138038 C24.8768453,67.5912584 25.3740222,67.7177056 25.6114046,68.1001299 C25.8487869,68.4825542 25.7414948,68.9842137 25.368453,69.2360839 L23.7702726,70.2998622 L24.4856008,69.8877528 C24.8776118,69.6548962 25.3838679,69.7783627 25.6246621,70.1655487 C25.8654563,70.5527348 25.7523286,71.0614011 25.3701283,71.3100328 L23.2492725,72.7256119 L24.4856008,72.0136343 C24.8766793,71.7869756 25.3770546,71.9114911 25.6162962,72.2950012 C25.8555377,72.6785113 25.7473405,73.182667 25.3718035,73.4342391 L22.121835,75.6221044 L24.4856008,74.2584579 C24.8716072,74.0369299 25.363459,74.155951 25.6054769,74.529452 C25.8474948,74.9029529 25.7551657,75.4005065 25.3952569,75.6623102 L15.1444542,83.0886558 L24.4856008,77.6977287 C24.8712126,77.4815863 25.3584102,77.602312 25.5984846,77.9734971 C25.8385589,78.3446821 25.7488566,78.838534 25.3935816,79.101581 L16.0122293,85.8394023 L24.4772245,80.9527229 C24.8634792,80.7293155 25.3570614,80.8479225 25.5996364,81.2224368 C25.8426892,81.5976049 25.7483101,82.0975191 25.3852054,82.3582505 L17.6623421,87.8999494 L24.4772245,83.9681576 C24.863231,83.7466296 25.3550828,83.8656507 25.5971007,84.2391517 C25.8391186,84.6126526 25.7467895,85.1102062 25.3868807,85.3720099 L20.096468,89.1965863 L24.480575,86.6652964 C24.8620795,86.4505938 25.3445713,86.5658792 25.5878077,86.9298556 C25.8310441,87.2938321 25.7529775,87.7837247 25.4086588,88.0540716 L21.4584394,91.0963101 L24.4738741,89.3523837 C24.8431626,89.1409291 25.3123138,89.2399752 25.5646142,89.5826582 C25.8169145,89.9253412 25.772172,90.4027415 25.4605913,90.6925769 L22.274282,93.6493782 L24.4923017,92.3694937 C24.8473669,92.1659136 25.2975583,92.248741 25.5569152,92.5653639 C25.8162721,92.8819869 25.8088349,93.3396738 25.5393277,93.6477029 L24.0885685,95.2927901 C24.4326156,95.3576445 24.7000328,95.6296362 24.759043,95.9747337 C24.8180532,96.3198312 24.6562062,96.6652251 24.3532567,96.8407132 L20.9156611,98.8225239 C20.5605959,99.0261039 20.1104046,98.9432766 19.8510476,98.6266536 C19.5916907,98.3100307 19.5991279,97.8523438 19.8686352,97.5443146 L20.8972335,96.3716456 L16.5935381,98.8560287 C16.2242495,99.0674833 15.7550983,98.9684372 15.502798,98.6257542 C15.2504976,98.2830713 15.2952401,97.8056709 15.6068208,97.5158355 L18.8115578,94.5556838 L11.3634341,98.8560287 C11.236815,98.9318336 11.092197,98.9723267 10.9446238,98.9732956 L10.9446238,98.9732956 Z" id="Path" fill="#D4E8FA"></path>
            <path d="M1.68723926,67.1939742 C1.32670182,67.1939742 1.00661439,66.9632585 0.892602444,66.6212227 C0.778590495,66.2791868 0.896236857,65.9025696 1.18466681,65.6862471 L12.8309457,57.0285991 L1.97035507,63.2973528 C1.58282799,63.5208102 1.08810555,63.4003231 0.846725435,63.0236984 C0.60534532,62.6470738 0.702505994,62.1472466 1.0673999,61.8884747 L9.89424734,55.6247467 L1.97035507,60.1964808 C1.58474321,60.4126231 1.0975456,60.2918974 0.857471267,59.9207123 C0.617396934,59.5495273 0.70709921,59.0556754 1.06237418,58.7926284 L10.9664019,51.6577749 L1.97035507,56.8510235 C1.58025784,57.0774203 1.08093768,56.954279 0.840836453,56.5724639 C0.600735231,56.1906488 0.706074861,55.6872722 1.07912659,55.4337692 L6.36953923,51.8152476 L1.97035507,54.3532384 C1.58579885,54.5735194 1.09620567,54.4561289 0.853353629,54.0854133 C0.610501587,53.7146976 0.69844606,53.2189681 1.05399797,52.9544118 L12.4573668,44.5363233 L1.97035507,50.5889708 C1.58557036,50.8061318 1.09827542,50.6870716 0.856982726,50.3169419 C0.615690033,49.9468122 0.703385049,49.4529081 1.05734846,49.1884689 L11.9464182,41.2143194 L1.97035507,46.9771501 C1.58876815,47.1769312 1.11786953,47.0547509 0.881551384,46.6946471 C0.645233236,46.3345433 0.720539492,45.8539161 1.05567321,45.5833492 L12.2529874,37.3445115 L1.97035507,43.2748664 C1.58172732,43.4943031 1.08929788,43.3704883 0.850674079,42.9933376 C0.612050276,42.6161869 0.711048892,42.1181747 1.07577611,41.8609626 L7.63434656,37.3210582 L1.97035507,40.5894543 C1.58007856,40.8118746 1.08383087,40.6868334 0.845549833,40.3060333 C0.607268795,39.9252333 0.711797646,39.4242634 1.08247708,39.1705248 L4.79481223,36.6576625 L1.97035507,38.2876725 C1.58303196,38.5149795 1.0853626,38.3963753 0.842192293,38.0188096 C0.599021989,37.6412439 0.696890399,37.139085 1.06404942,36.8804696 L10.3180834,30.2749924 L1.97035507,35.0980127 C1.58406751,35.3059002 1.10281994,35.1805381 0.867050257,34.8106085 C0.631280577,34.4406788 0.720862712,33.9515061 1.07242563,33.6891346 L8.47699304,28.5176641 L1.97035507,32.270205 C1.5849687,32.4894219 1.09550933,32.3703476 0.853892387,31.9985951 C0.612275446,31.6268425 0.702205405,31.1311997 1.0590237,30.8680279 L11.6381737,23.161917 L1.97035507,28.7454969 C1.58193301,28.9684075 1.08688134,28.8463537 0.846591997,28.4684359 C0.606302657,28.0905182 0.705789212,27.5904425 1.07242563,27.3332684 L8.39155572,22.225457 L1.97035507,25.9327665 C1.57927656,26.1594251 1.07890123,26.0349096 0.839659664,25.6513995 C0.600418093,25.2678894 0.708615307,24.7637337 1.08415232,24.5121617 L4.18167384,22.4348622 L1.97873128,23.7063705 C1.59453288,23.9216772 1.10922212,23.8026838 0.86819339,23.4340776 C0.627164661,23.0654714 0.712754753,22.5731704 1.06404942,22.3075439 L12.2027301,14.115613 L1.983757,20.0174888 C1.59328691,20.236378 1.09971975,20.1095697 0.863117123,19.7295715 C0.626514498,19.3495733 0.730506257,18.8507 1.09922949,18.596884 L3.03078294,17.3035975 L1.983757,17.9066845 C1.59752897,18.1249593 1.10809664,18.0042325 0.867678868,17.631385 C0.6272611,17.2585375 0.719252363,16.7629 1.07745135,16.5011569 L8.29439171,11.3313616 L1.97035507,14.9817128 C1.59289548,15.1936807 1.11609947,15.0830987 0.870477846,14.7266213 C0.624856219,14.3701439 0.691340177,13.8852288 1.02384363,13.6080148 L9.08343046,7.05279483 L1.97035507,11.160487 C1.59586268,11.3870521 1.11007083,11.2870891 0.855458595,10.9310709 C0.600846356,10.5750528 0.663267215,10.0830264 0.998715003,9.80186612 L5.15498915,6.21517408 L1.97035507,8.05793973 C1.62989114,8.25321756 1.19948677,8.18589989 0.934908919,7.89599012 C0.670331063,7.60608034 0.642538193,7.17133082 0.868046167,6.85009061 L3.06093728,3.75089384 L2.94702086,3.81622826 C2.54927629,4.0242947 2.05821625,3.88183383 1.83357728,3.4932084 C1.6089383,3.10458298 1.73058396,2.60795697 2.10940011,2.36714437 L5.5402947,0.385333681 C5.88115426,0.188586924 6.31301559,0.255679634 6.57811778,0.546566832 C6.84321996,0.83745403 6.87005395,1.27367139 6.6426036,1.59485804 L4.44971248,4.68735384 L11.9698716,0.351828851 C12.3431196,0.141070659 12.8152523,0.246104506 13.0639462,0.595224107 C13.31264,0.944343708 13.2576363,1.42488092 12.9364859,1.70877446 L8.78858795,5.29044078 L17.3507472,0.351828851 C17.7282068,0.139860966 18.2050028,0.25044296 18.4506245,0.606920366 C18.6962461,0.963397772 18.6297621,1.44831291 18.2972587,1.72552688 L10.2410223,8.27404588 L22.378147,1.26651071 C22.762342,1.06676936 23.2354496,1.19278452 23.4693863,1.55716906 C23.7033229,1.9215536 23.6209658,2.40417973 23.2794269,2.67036308 L16.0557856,7.84015833 L24.0232341,3.23994519 C24.4143126,3.01328655 24.9146879,3.13780204 25.1539295,3.52131215 C25.3931711,3.90482227 25.2849739,4.40897794 24.9094369,4.66054998 L22.9661567,5.96053738 L24.4738741,5.09443752 C24.8580725,4.87913083 25.3433832,4.99812423 25.584412,5.36673044 C25.8254407,5.73533664 25.7398506,6.22763767 25.3885559,6.49326417 L14.2515505,14.6818446 L24.4889512,8.7715926 C24.8800298,8.54493397 25.3804051,8.66944945 25.6196466,9.05295957 C25.8588882,9.43646969 25.750691,9.94062535 25.375154,10.1921974 L22.274282,12.2745226 L24.487276,10.9979885 C24.8756981,10.775078 25.3707497,10.8971318 25.6110391,11.2750496 C25.8513284,11.6529673 25.7518419,12.153043 25.3852054,12.4102171 L18.0644001,17.5197037 L24.4906265,13.8090438 C24.8760128,13.5898269 25.3654722,13.7089012 25.6070892,14.0806538 C25.8487061,14.4524063 25.7587761,14.9480491 25.4019579,15.2112209 L14.8261583,22.9173318 L24.4923017,17.3371024 C24.8807238,17.1141919 25.3757755,17.2362456 25.6160648,17.6141634 C25.8563541,17.9920811 25.7568676,18.4921568 25.3902312,18.7493309 L17.9839885,23.9224767 L24.4956522,20.1632348 C24.8823309,19.9401427 25.3760252,20.0595136 25.618064,20.4346239 C25.8607696,20.8102153 25.7656359,21.31022 25.4019579,21.5704376 L16.1546248,28.1608377 L24.5006779,23.3428431 C24.8909544,23.1204228 25.3872021,23.245464 25.6254832,23.6262641 C25.8637642,24.0070642 25.7592354,24.508034 25.3885559,24.7617727 L21.6577931,27.2746349 L24.5057037,25.6328982 C24.8948518,25.4064444 25.3934021,25.5281341 25.6344549,25.9084118 C25.8755077,26.2886896 25.7728177,26.7914972 25.4019579,27.0468021 L18.8484131,31.583356 L24.5073789,28.3166351 C24.8915773,28.1013284 25.3768881,28.2203218 25.6179168,28.588928 C25.8589455,28.9575342 25.7733554,29.4498353 25.4220608,29.7154618 L14.2213961,37.9710519 L24.5073789,32.0323208 C24.8921636,31.8151598 25.3794585,31.93422 25.6207512,32.3043497 C25.8620439,32.6744794 25.7743489,33.1683835 25.4203855,33.4328226 L14.5313158,41.4052969 L24.5157551,35.6424662 C24.9003113,35.4221852 25.3899045,35.5395757 25.6327565,35.9102913 C25.8756086,36.281007 25.7876641,36.7767365 25.4321122,37.0412928 L14.04047,45.4560309 L24.5241313,39.4033833 C24.9150458,39.1646578 25.4252219,39.2842073 25.669383,39.6717501 C25.9135441,40.0592928 25.8011305,40.5710886 25.417035,40.8206376 L20.1081947,44.444185 L24.5157551,41.8978179 C24.901367,41.6816756 25.3885646,41.8024013 25.6286389,42.1735863 C25.8687132,42.5447714 25.779011,43.0386233 25.423736,43.3016703 L15.5197083,50.4415495 L24.5191056,45.2483009 C24.9055564,45.0330625 25.3927572,45.1554249 25.6316465,45.52772 C25.8705359,45.9000151 25.7787547,46.393891 25.4220608,46.6555038 L16.600239,52.920907 L24.5207808,48.3474977 C24.9047488,48.1292071 25.3922378,48.2465729 25.6347816,48.6156998 C25.8773254,48.9848267 25.7915692,49.4788572 25.4388132,49.7446491 L13.7925343,58.4006219 L24.5241313,52.2022284 C24.9064918,51.9813548 25.3946496,52.095244 25.6397932,52.4625168 C25.8849368,52.8297897 25.802862,53.324292 25.4522151,53.5926788 L18.1598889,59.1762587 L24.5258066,55.4907274 C24.9032638,55.2721233 25.3853068,55.3797858 25.6338862,55.7382129 C25.8824657,56.09664 25.8143657,56.5858424 25.4773437,56.8627502 L20.9860213,60.5700596 L24.5274818,58.5245898 C24.8970997,58.3067595 25.3715539,58.4034278 25.6264811,58.7485069 C25.8814082,59.0935859 25.8343809,59.5754988 25.5175495,59.8647829 L23.3397356,61.8901499 L24.5325075,61.2033009 C24.8549544,61.0177687 25.261133,61.0671379 25.5297467,61.3245109 C25.7984072,61.5818839 25.8650372,61.9855825 25.6934499,62.3156613 L24.723485,64.1751793 C25.1303402,64.0588803 25.5600376,64.2642914 25.7250253,64.6539523 C25.8900131,65.0436133 25.738468,65.4951304 25.3718035,65.70635 L23.0901246,67.0247651 C22.767599,67.2117637 22.360303,67.1630901 22.0909248,66.9053565 C21.8215466,66.6476229 21.7549339,66.2428737 21.927507,65.9124047 L22.8790442,64.0914172 L17.7745833,67.0364918 C17.4049654,67.254322 16.9305112,67.1576537 16.675584,66.8125746 C16.4206569,66.4674956 16.4676843,65.9855827 16.7845156,65.6962986 L18.9623295,63.6709316 L13.1190872,67.0565947 C12.7421176,67.2740958 12.2613816,67.1666658 12.0128581,66.809386 C11.7643346,66.4521062 11.8308313,65.9640217 12.1658748,65.6862471 L16.6588725,61.980613 L7.84375175,67.0683214 C7.46139122,67.2891949 6.97323342,67.1753057 6.72808986,66.8080329 C6.4829463,66.44076 6.56502109,65.9462577 6.91566796,65.6778709 L14.2063189,60.0959663 L2.10604963,67.0817233 C1.97899718,67.1559207 1.83436867,67.1946811 1.68723926,67.1939742 L1.68723926,67.1939742 Z" id="Path" fill="#4DBEBB"></path>
            <path d="M3.07433922,67.1939645 C2.71380177,67.1939645 2.39371435,66.9632585 2.2797024,66.6212227 C2.16569045,66.2791868 2.28333681,65.9025696 2.57176677,65.6862471 L12.1608491,58.6401814 L1.97035507,64.5135781 C1.58327227,64.7310383 1.09375488,64.6086911 0.854499242,64.2346874 C0.615243601,63.8606837 0.709376402,63.3649669 1.06907515,63.1047 L9.24927936,57.340194 L1.97035507,61.5484006 C1.58434865,61.7699286 1.09249684,61.6509075 0.850478942,61.2774066 C0.608461048,60.9039056 0.700790088,60.406352 1.06069894,60.1445483 L10.2477233,53.5089167 L1.97035507,58.2867055 C1.58370562,58.5108828 1.08915934,58.3920052 0.846638253,58.0165897 C0.604117168,57.6411742 0.699062264,57.141481 1.06237418,56.8811778 L5.54532042,53.6546627 L1.97035507,55.716885 C1.59265798,55.9262428 1.11770051,55.8141426 0.873474313,55.4579975 C0.629248122,55.1018523 0.695809929,54.6184058 1.02719411,54.3415117 L5.52186704,50.7112634 L1.97035507,52.7634343 C1.6184035,52.9679799 1.17034796,52.8898739 0.90836648,52.578306 C0.646385,52.2667381 0.646336685,51.8119257 0.908251963,51.5003022 L4.0912108,47.7075554 L1.97035507,48.9338322 C1.68122437,49.0999061 1.32112933,49.0786787 1.05351336,48.8797847 C0.78589738,48.6808908 0.661733074,48.3422135 0.73737733,48.0174751 L1.23994978,45.8915936 C0.940075285,45.772748 0.735089396,45.4922674 0.712920705,45.1704638 C0.690752014,44.8486603 0.85534003,44.5427201 1.13608481,44.3838763 L1.97370555,43.8997315 C2.26321424,43.7321684 2.62465998,43.7529182 2.89309102,43.9525114 C3.16152206,44.1521046 3.28546583,44.4922686 3.20835853,44.8177638 L2.80965106,46.5080825 L7.34788027,43.8913553 C7.69983184,43.6868096 8.14788738,43.7649157 8.40986886,44.0764836 C8.67185034,44.3880514 8.67189865,44.8428638 8.40998338,45.1544874 L5.23540074,48.9438836 L14.0153414,43.8762781 C14.3930385,43.6669203 14.867996,43.7790205 15.1122222,44.1351657 C15.3564484,44.4913108 15.2898866,44.9747574 14.9585024,45.2516514 L10.4621542,48.8818997 L19.1516318,43.8645514 C19.5382813,43.6403741 20.0328276,43.7592517 20.2753487,44.1346672 C20.5178697,44.5100827 20.4229246,45.0097759 20.0596127,45.270079 L15.573316,48.4949189 L23.6144752,43.8545 C24.0004816,43.632972 24.4923334,43.7519932 24.7343513,44.1254941 C24.9763692,44.498995 24.8840402,44.9965486 24.5241313,45.2583524 L15.3421327,51.8939839 L24.4923017,46.6119475 C24.8805266,46.3851777 25.3785382,46.5053522 25.6206175,46.8842199 C25.8626969,47.2630875 25.7624887,47.7654975 25.3935816,48.0225008 L17.2184032,53.7803058 L24.4990027,49.5771249 C24.8837874,49.3599639 25.3710823,49.4790241 25.612375,49.8491538 C25.8536677,50.2192835 25.7659727,50.7131877 25.4120093,50.9776268 L15.8145508,58.0303935 L24.5057037,53.004669 C24.8849123,52.7853379 25.3690764,52.895248 25.616416,53.2568119 C25.8637556,53.6183759 25.7907193,54.1094571 25.4488646,54.3833928 L18.3156863,60.0976415 L24.5140799,56.5193257 C24.8868817,56.3092134 25.3581144,56.4138984 25.6068873,56.7620944 C25.8556601,57.1102904 25.8019665,57.5900154 25.4823694,57.8745961 L21.6041854,61.2652848 L24.529157,59.5766414 C24.8735895,59.3763556 25.3114369,59.4464112 25.576183,59.7441656 C25.8403434,60.0429885 25.8571638,60.4866261 25.6163888,60.8045934 L23.5608675,63.5134589 L24.535858,62.952253 C24.8352298,62.7790243 25.2102902,62.8076187 25.4799409,63.0242294 C25.7495915,63.2408401 25.8583724,63.600916 25.7537586,63.9305941 L25.3835302,65.1032631 C25.6410414,65.2533265 25.7994158,65.528922 25.7994158,65.8269674 C25.7994158,66.1250128 25.6410414,66.4006083 25.3835302,66.5506718 L24.5459095,67.0348165 C24.2465376,67.2080453 23.8714773,67.1794509 23.6018266,66.9628402 C23.3321759,66.7462294 23.223395,66.3861536 23.3280089,66.0564755 L23.508935,65.4885686 L20.8151466,67.0431928 C20.4702628,67.2418282 20.0332255,67.1703497 19.7695937,66.8721899 C19.505962,66.5740302 19.4885404,66.131529 19.7279149,65.8135655 L21.7717095,63.1013495 L14.9216471,67.0532442 C14.5481961,67.2673377 14.0732674,67.163508 13.8232274,66.8131058 C13.5731873,66.4627037 13.6294523,65.9798247 13.9533575,65.6962986 L17.8365673,62.3173365 L9.61280677,67.0649709 C9.23359811,67.2843021 8.74943407,67.1743919 8.50209445,66.812828 C8.25475484,66.4512641 8.32779116,65.9601828 8.66964581,65.6862471 L15.8044993,59.9703232 L3.49314959,67.0783728 C3.36642911,67.1537428 3.22177945,67.1936661 3.07433922,67.1939645 L3.07433922,67.1939645 Z" id="Path" fill="#2EA09C"></path>
            <path d="M5.52186704,23.6376856 C5.15811303,23.6366456 4.83660953,23.4009516 4.72617559,23.0543648 C4.61574165,22.707778 4.74162379,22.3295323 5.03772225,22.1182416 L9.87917017,18.6789708 L1.97035507,23.2406534 C1.58579885,23.4609344 1.09620567,23.3435439 0.853353629,22.9728282 C0.610501587,22.6021126 0.69844606,22.106383 1.05399797,21.8418267 L12.2111063,13.6331434 L1.97035507,19.5417202 C1.58193301,19.7646307 1.08688134,19.6425769 0.846591997,19.2646592 C0.606302657,18.8867414 0.705789212,18.3866657 1.07242563,18.1294916 L7.34285454,13.7537608 L1.97035507,16.8613338 C1.58807452,17.074673 1.10598677,16.9576482 0.864062316,16.5927858 C0.622137863,16.2279233 0.701985805,15.7383033 1.04729701,15.4692081 L10.0634467,8.62584659 L1.97035507,13.2980951 C1.59620309,13.510257 1.12217061,13.404553 0.873602325,13.0535314 C0.625034043,12.7025098 0.68272988,12.220274 1.00709121,11.937799 L7.54053304,6.35086864 L1.97035507,9.56565707 C1.5931427,9.77411133 1.11931611,9.66230518 0.875080931,9.30721148 C0.630845755,8.95211778 0.695926716,8.46964838 1.02551887,8.19195905 L2.27859951,7.18681415 L1.97035507,7.36271451 C1.62215002,7.56078858 1.18243871,7.48458313 0.921194451,7.18088668 C0.659950193,6.87719023 0.650313256,6.43102834 0.898200514,6.11633483 L2.64547739,3.92009323 C2.24540723,3.98151444 1.85864876,3.74807301 1.72658746,3.3654655 C1.59452615,2.98285799 1.75494594,2.56055181 2.10772487,2.36211864 L5.5402947,0.385333681 C5.8886018,0.185260632 6.32990374,0.260612197 6.59208771,0.56492557 C6.85427168,0.869238942 6.86351768,1.31683226 6.61412449,1.63171335 L4.97071259,3.69226039 L10.7636977,0.351828851 C11.1418978,0.13498492 11.623196,0.244495284 11.870344,0.603625457 C12.1174921,0.962755631 12.0478469,1.45141706 11.7102091,1.72720212 L10.453778,2.74072322 L14.5932997,0.351828851 C14.9676608,0.136186523 15.4446179,0.240644508 15.6945781,0.593018944 C15.9445383,0.945393381 15.8854906,1.43007149 15.5582388,1.71212495 L9.024797,7.29738009 L20.7665646,0.519353001 C21.1491621,0.301576353 21.6350496,0.417137211 21.8786371,0.783842294 C22.1222246,1.15054738 22.0403722,1.6432351 21.6912979,1.91147868 L12.6801739,8.7431135 L23.5692437,2.45593217 C23.9576657,2.23302166 24.4527174,2.35507543 24.6930067,2.73299318 C24.9332961,3.11091093 24.8338095,3.61098662 24.4671731,3.86816075 L18.1984194,8.23886581 L24.4370188,4.63542135 C24.821575,4.41514036 25.3111682,4.53253087 25.5540202,4.90324651 C25.7968722,5.27396215 25.7089278,5.7696917 25.3533759,6.034248 L14.1979427,14.2563333 L24.4956522,8.31090119 C24.882103,8.09566274 25.3693038,8.21802516 25.6081932,8.59032029 C25.8470825,8.96261542 25.7553013,9.45649131 25.3986074,9.71810405 L20.5605099,13.1456481 L24.5006779,10.8706702 C24.8793789,10.6526277 25.3620698,10.7623498 25.6093001,11.1226748 C25.8565304,11.4829998 25.7852185,11.9728407 25.4455141,12.2477187 L19.9976288,16.6318257 L24.5107294,14.0285004 C24.8894303,13.8104579 25.3721213,13.9201801 25.6193516,14.2805051 C25.8665819,14.6408301 25.7952699,15.130671 25.4555656,15.4055489 L23.9344463,16.6284752 L24.5174303,16.2934269 C24.8761934,16.0877508 25.3313677,16.1746768 25.58909,16.4980848 C25.8468123,16.8214929 25.8299456,17.284586 25.5493791,17.5883886 L24.0064817,19.2519034 L24.5258066,18.9520352 C24.8196742,18.7818734 25.1872,18.8059736 25.4563303,19.0130534 C25.7254607,19.2201332 25.8429349,19.5692118 25.7537586,19.8968714 L25.3165205,21.5118042 C25.4685053,21.58394 25.5947761,21.7008574 25.6783727,21.8468525 C25.9085253,22.2470959 25.771407,22.7581052 25.3718035,22.9893672 L24.5341828,23.473512 C24.2406966,23.6420944 23.8745945,23.6174853 23.6063106,23.4111413 C23.3380267,23.2047972 23.2202879,22.8572718 23.307906,22.530351 L23.6077742,21.4163154 L20.0261079,23.4835634 C19.6677096,23.6892138 19.2128879,23.602781 18.9549114,23.2799969 C18.696935,22.9572128 18.712888,22.4945261 18.9924839,22.190277 L20.5387318,20.5250869 L15.3923899,23.4952901 C15.0139458,23.7093224 14.5346593,23.5982232 14.2889765,23.2395176 C14.0432937,22.880812 14.1129021,22.3937665 14.449229,22.1182416 L15.968673,20.8936401 L11.445521,23.5053415 C11.06682,23.723384 10.584129,23.6136619 10.3368988,23.2533369 C10.0896685,22.8930119 10.1609804,22.403171 10.5006848,22.128293 L15.9468949,17.7425108 L5.94737838,23.5170682 C5.81921316,23.5953676 5.67205609,23.6370814 5.52186704,23.6376856 L5.52186704,23.6376856 Z" id="Path" fill="#6FD5D2"></path>
            <path d="M13.7908591,92.2338138 C13.4692232,92.2333412 13.1762557,92.0487541 13.0370041,91.7588251 C12.8977525,91.4688961 12.9368136,91.1248371 13.1375149,90.873503 L14.7356953,88.8883418 L10.7151157,91.2001751 C10.3414176,91.4116157 9.86835238,91.3062419 9.619727,90.9561808 C9.37110162,90.6061198 9.42743885,90.1247462 9.75017657,89.8415543 L10.3030063,89.3641104 L9.45198358,89.8549562 C9.08221163,90.0762377 8.6048813,89.9808528 8.34854827,89.6344568 C8.09221524,89.2880608 8.14053176,88.8036973 8.46024062,88.514763 L10.2862538,86.8043414 L8.7014754,87.7190233 C8.35274136,87.9209198 7.90967226,87.8458892 7.64685511,87.5404309 C7.38403796,87.2349726 7.37596762,86.785668 7.6276456,86.4709684 L9.33806716,84.3300097 C9.00046984,84.3820394 8.66620006,84.2182472 8.50044642,83.9195756 C8.27001153,83.51977 8.40634466,83.0088953 8.80534037,82.7770609 L12.2395854,80.7935749 C12.5883195,80.5916784 13.0313886,80.666709 13.2942057,80.9721673 C13.5570229,81.2776256 13.5650932,81.7269303 13.3134152,82.0416299 L11.7085339,84.0519196 L15.7408402,81.7266845 C16.1106121,81.505403 16.5879424,81.6007878 16.8442755,81.9471838 C17.1006085,82.2935798 17.052292,82.7779433 16.7325831,83.0668776 L14.9149461,84.7705982 L17.2167279,83.4421317 C17.591089,83.2264894 18.0680461,83.3309474 18.3180062,83.6833218 C18.5679664,84.0356963 18.5089187,84.5203744 18.181667,84.8024278 L17.6204611,85.2848974 L17.7494547,85.2111868 C18.0980903,85.0113299 18.5395351,85.0872307 18.8013974,85.3920547 C19.0632596,85.6968787 19.0717415,86.1447208 18.8216093,86.4592417 L17.1195639,88.5834479 C17.5139745,88.535172 17.8880277,88.7706496 18.0150202,89.1471641 C18.1420127,89.5236786 17.9869931,89.9376042 17.6439145,90.138072 L14.2096694,92.1215579 C14.0826809,92.1959084 13.9380097,92.2346803 13.7908591,92.2338138 L13.7908591,92.2338138 Z" id="Path" fill="#3FA2FF"></path>
            <g id="Outer_Lines" fill="#262626">
                <path d="M98.1191654,75.4880851 C96.6177575,74.2339801 94.6748266,73.6368518 92.7282383,73.8312713 C76.3728556,73.9250848 60.0057462,73.5900365 43.6520387,73.8161941 C55.5244752,61.9085776 67.4605708,50.0579192 79.3229558,38.145277 C84.5346321,32.4494559 76.4046852,27.6415128 72.9252086,23.7231229 C69.9181501,19.4948134 64.1888242,17.1511506 60.2687591,21.6391225 C48.9106217,33.0056361 37.5022272,44.3252428 26.1759194,55.7252612 L26.1759194,6.85344109 C26.1759194,3.27345002 24.2259383,0.438941409 20.3762334,0.239587671 C13.8679202,0.891256613 1.50128745,-2.91321682 0.280036402,6.33914195 C0.26663447,27.2897121 0.26663447,48.2447495 0.280036402,69.2042543 C-0.750237117,110.988128 -1.39520509,96.4453562 45.7310134,99.0972635 C61.6642352,99.0620834 77.6075086,99.1458455 93.5357047,99.0972635 C101.829825,98.6365721 99.6855162,89.0910461 99.9016224,83.3499935 C99.8949214,80.5958964 100.313732,77.5620341 98.1191654,75.4880851 L98.1191654,75.4880851 Z M75.6709294,75.6338311 L75.6709294,97.2846522 L56.3352921,97.2846522 L56.3352921,75.6338311 L75.6709294,75.6338311 Z M41.0688163,73.9585896 C39.3098127,75.6036768 37.6362465,77.3945099 35.863841,79.0731019 L26.1725689,69.3818299 L26.1725689,58.124207 L34.3611494,49.9389771 L49.7482425,65.3260702 C46.8618014,68.2091608 43.9904375,71.1039781 41.0721668,73.9602649 L41.0688163,73.9585896 Z M26.1725689,88.8297084 L26.1725689,72.5396601 L34.2723616,80.6377775 C31.5361338,83.3349163 28.8373197,86.0661183 26.1759194,88.8313836 L26.1725689,88.8297084 Z M23.7334173,43.9952203 L2.7225385,43.9952203 L2.7225385,23.3612708 L23.7334173,23.3612708 L23.7334173,43.9952203 Z M2.7225385,45.1678893 L23.7334173,45.1678893 L23.7334173,65.6393404 L2.7225385,65.6393404 L2.7225385,45.1678893 Z M62.5521132,21.7480132 C67.9212622,17.9736941 71.7659415,27.1439661 75.7178361,29.7288637 C84.0354102,36.6777654 70.6368287,42.9632715 66.7083874,48.3659253 C61.5787979,43.2385695 56.4497669,38.1095385 51.3212943,32.9788322 C55.0771857,29.2480694 58.7945466,25.4703998 62.5521132,21.7480132 Z M46.8584509,37.4416755 L49.7750464,34.5267553 L65.1604642,49.9121732 C60.5490828,54.5257883 55.9360262,59.138845 51.3212943,63.7513432 C46.1917048,58.6228706 41.0626738,53.4938395 35.9342011,48.3642501 L46.8584509,37.4416755 Z M2.7225385,5.9253573 C2.968799,-0.281412434 10.5475915,2.30348519 14.643557,1.80426323 C28.2414922,-0.618135974 22.8003078,13.9413879 23.7334173,22.2422095 L2.7225385,22.2422095 C2.79959961,16.8110765 2.49135517,11.348114 2.7225385,5.9253573 Z M8.76345933,97.4035944 C5.60562911,97.762096 2.38078924,95.9829896 2.7225385,92.3778699 C2.66055457,83.9480547 2.74766712,75.514889 2.7225385,67.0817233 L23.7334173,67.0817233 C23.6597067,75.7427218 23.89089,84.415447 23.7334173,93.0714199 C23.2291696,100.325216 13.5714024,96.4956135 8.76345933,97.4035944 Z M24.085218,97.2142921 C25.6450224,95.6600643 26.4142017,93.4813395 26.1759194,91.2923134 L32.118001,85.3502318 L32.118001,97.2846522 C29.4426403,97.3014046 26.7706302,97.227694 24.085218,97.2142921 L24.085218,97.2142921 Z M34.5437507,97.2846522 L34.5437507,82.9228069 L41.8344017,75.6338311 L53.8827385,75.6338311 L53.8827385,97.2846522 L34.5437507,97.2846522 Z M94.2929138,97.2544979 C88.9405173,97.6129995 83.4842557,97.1104271 78.1000296,97.2846522 L78.1000296,75.6338311 C83.6434037,76.7612687 97.0302584,72.1660812 97.4356669,80.4216713 C96.569567,85.0855436 100.032291,95.6395651 94.2929138,97.2544979 Z" id="Shape"></path>
                <path d="M15.6537276,81.1922824 C10.8826398,79.6527355 4.6239376,84.7002381 7.83872603,89.5802166 C13.5211452,97.1037261 25.7236042,85.3318041 15.6537276,81.1922824 Z M16.211583,89.4830526 C11.9363667,94.8723045 6.1500826,84.526013 11.8090484,82.0131507 C11.8090484,82.0131507 12.0050516,81.9243629 11.8961609,81.9712697 C11.9548455,81.9365276 12.0207941,81.9158829 12.0888137,81.910961 C15.7090106,81.4938259 18.4999629,86.3905568 16.211583,89.4830526 L16.211583,89.4830526 Z" id="Shape"></path>
            </g>
        </g>
    </g>
</svg>