<?xml version="1.0" encoding="UTF-8"?>
<svg width="60px" height="60px" viewBox="0 0 60 60" version="1.1" xmlns="http://www.w3.org/2000/svg" xmlns:xlink="http://www.w3.org/1999/xlink">
    <title>role-skills-2</title>
    <g id="Page-1" stroke="none" stroke-width="1" fill="none" fill-rule="evenodd">
        <g id="role-skills-2" fill-rule="nonzero">
            <path d="M47.8960001,52.6155381 C47.7416328,52.6155381 47.5882678,52.5433664 47.4920389,52.4100491 C47.3406787,52.2035578 47.3697479,51.9168757 47.5581963,51.7444654 L48.533517,50.8543474 L46.8735672,51.8126276 C46.644021,51.9449424 46.3513246,51.8767803 46.2049763,51.6552531 C46.0586281,51.4347284 46.1097497,51.1380224 46.321253,50.9786432 L46.4756203,50.8623665 L45.8511344,51.2222228 C45.6205858,51.3565424 45.3248822,51.2843706 45.1795363,51.0608387 C45.0341905,50.8373069 45.0913264,50.5385961 45.3078416,50.3812216 L46.0937116,49.8168788 L44.7074129,50.6167821 C44.4788691,50.7521041 44.1851703,50.6809348 44.0378197,50.4584053 C43.8914714,50.2368782 43.9445978,49.9391698 44.1571035,49.7807929 L48.8101753,46.319557 L42.1433117,50.168716 C41.909756,50.304038 41.6150548,50.2308638 41.4697089,50.0043248 C41.3253655,49.7777858 41.3855086,49.479075 41.6050309,49.3247077 L46.1759072,46.1210848 L37.0291427,51.4026521 C36.7935822,51.5399788 36.4928667,51.4637976 36.350528,51.2302418 C36.2081893,50.9966861 36.2783563,50.6949682 36.5069001,50.5466152 L37.5423639,49.8810314 L34.8479527,51.4357308 C34.6153993,51.5730576 34.3176909,51.4978787 34.1733475,51.2703372 C34.029004,51.0417934 34.0911519,50.7430827 34.312679,50.5897177 L42.9211626,44.6445714 L32.6727769,50.5606486 C32.4372164,50.6979753 32.1375032,50.6207917 31.9951646,50.3892407 C31.8528259,50.1576897 31.9209881,49.8559718 32.1475271,49.7066164 L36.4627951,46.8929213 L31.7856661,49.5923445 C31.5521103,49.7286689 31.2554043,49.6544924 31.1110609,49.4259486 C30.9667174,49.1974048 31.0298677,48.8976916 31.2523972,48.7453291 L39.9490907,42.7871518 L31.7215134,47.5364526 C31.4859529,47.672777 31.1862397,47.5965957 31.0439011,47.3650447 C30.9015624,47.1334938 30.9697246,46.8317758 31.1962636,46.6824204 L34.6464733,44.4320658 L31.6774085,46.1461444 C31.441848,46.2814664 31.145142,46.2072899 31.0018009,45.9777437 C30.8584598,45.7481975 30.9226124,45.4474819 31.1471467,45.2961218 L37.3699537,41.1061519 L31.6252844,44.4230443 C31.3907263,44.5583663 31.0920155,44.4841898 30.9486745,44.2536412 C30.8053334,44.0230927 30.8714908,43.7223771 31.0960251,43.5720193 L35.861364,40.3954608 L31.5761676,42.8693474 C31.3406071,43.0056717 31.0439011,42.9294905 30.90056,42.7009467 C30.7572189,42.4714005 30.8213715,42.1706849 31.0459058,42.0193248 L35.9766383,38.7014299 L31.5280531,41.2695407 C31.2985069,41.4058651 30.9997961,41.3316886 30.8554526,41.1061519 C30.7101068,40.8806152 30.7692475,40.5819045 30.9877675,40.4265348 L37.9222679,35.5118404 L31.4649028,39.2397108 C31.2293423,39.3760351 30.9306315,39.3008563 30.7872905,39.0693053 C30.6449518,38.8397591 30.7121116,38.5370388 30.9376482,38.3876834 L31.6904395,37.8905004 L31.4268122,38.0418605 C31.1942588,38.1781849 30.8965504,38.1040084 30.752207,37.8744622 C30.6078635,37.6459184 30.6710138,37.3462052 30.8945457,37.1938427 L33.4065228,35.4807665 L31.3837096,36.6475428 C31.1651897,36.7768505 30.8775051,36.7167074 30.7271473,36.5062065 C30.5767896,36.2977104 30.6088659,36.0090234 30.8013238,35.838618 L34.0650899,32.9487416 L31.3185546,34.5335125 C31.0779821,34.6718417 30.7712523,34.5906485 30.6339255,34.350076 C30.494594,34.110506 30.5767896,33.8037761 30.817362,33.665447 L37.8651319,29.5967657 C38.0866591,29.4664556 38.3733412,29.5296059 38.5216942,29.738102 C38.672052,29.9465981 38.6399757,30.235285 38.4475177,30.4056905 L35.1857565,33.2935621 L44.4788691,27.9287968 C44.7144296,27.7934748 45.0091309,27.8666489 45.1534743,28.0961951 C45.2978178,28.3247389 45.2346675,28.6244521 45.0111356,28.7768146 L42.4981561,30.4908932 L45.7067909,28.6384855 C45.9403467,28.5011587 46.2400598,28.5763376 46.3844033,28.808891 C46.526742,29.0384372 46.4595822,29.3411575 46.2340455,29.4905129 L45.4822566,29.9866935 L46.7432572,29.2589619 C46.9728034,29.1236399 47.2715141,29.196814 47.4158576,29.4223507 C47.5612034,29.6478873 47.5020627,29.9465981 47.2835427,30.1019678 L40.3490423,35.0166622 L48.1155224,30.5329934 C48.3490782,30.396669 48.6467865,30.4718479 48.79113,30.7013941 C48.9344711,30.9309403 48.8703184,31.2316559 48.6457842,31.383016 L43.7140493,34.7019132 L48.8372397,31.7438747 C49.0717978,31.6065479 49.3695062,31.6817268 49.5138497,31.9132778 C49.6571908,32.142824 49.5910333,32.4445419 49.3664991,32.5948997 L44.6041673,35.7694534 L49.4456875,32.9748036 C49.6802456,32.8374769 49.9769516,32.9136581 50.1212951,33.1432043 C50.2646362,33.3727505 50.2004835,33.6734661 49.9759492,33.8248262 L43.7481303,38.0178033 L50.1192903,34.3400522 C50.3558532,34.2037278 50.654564,34.2799091 50.7969027,34.51146 C50.9392414,34.743011 50.8710792,35.0447289 50.6445401,35.1940843 L47.1943305,37.444439 L50.7076904,35.4166138 C50.9432509,35.2802894 51.2379521,35.3554683 51.3822956,35.5830098 C51.5266391,35.8115536 51.4634888,36.1112667 51.2409593,36.2636293 L42.5482753,42.2187994 L51.9576647,36.7868743 C52.1942276,36.6505499 52.4939407,36.7267312 52.635277,36.9582822 C52.7776157,37.1888308 52.7094535,37.4915511 52.4829145,37.6409065 L48.1546154,40.4626206 L53.1665411,37.5697371 C53.4010993,37.4344151 53.6978053,37.5085916 53.8411463,37.7351307 C53.9854898,37.9636745 53.9233419,38.2623852 53.7018148,38.4157502 L45.1003479,44.3558845 L55.0189489,38.6292582 C55.2545094,38.4919314 55.5552249,38.5681127 55.6975636,38.8016685 C55.8399023,39.0352242 55.7697354,39.3369421 55.5411915,39.4852951 L54.5067301,40.1508789 L55.5672536,39.5394239 C55.7967998,39.4041019 56.0955105,39.477276 56.2408564,39.7038151 C56.3851998,39.9303541 56.3250567,40.2290649 56.1055344,40.3834322 L51.5336557,43.5870551 L55.781764,41.1352211 C56.0113102,41.0019038 56.305009,41.0720708 56.4513573,41.2935979 C56.5977055,41.515125 56.5445791,41.8128334 56.3320734,41.9712103 L51.6779992,45.4324462 L54.2791887,43.9318756 C54.5087349,43.7965536 54.8044385,43.8687253 54.9507867,44.0932596 C55.0961325,44.3177939 55.0389966,44.6155023 54.8224814,44.7728767 L53.3920778,45.8003215 C53.5464451,45.8083406 53.6968029,45.8865266 53.7880199,46.0258582 C53.9343682,46.2463829 53.8832465,46.5430889 53.6717433,46.7024681 L52.4418167,47.6276696 C52.5400504,47.6587436 52.6302651,47.7208915 52.6944177,47.8101037 C52.8457779,48.0165951 52.8167087,48.3032772 52.6282603,48.4756875 L51.0946111,49.8750171 C51.2098853,49.911103 51.313131,49.9882866 51.3772837,50.1025586 C51.5166152,50.3421286 51.4344196,50.6488585 51.1938472,50.7871876 L48.1486011,52.5463735 C48.0704151,52.5924832 47.98421,52.6135333 47.8980048,52.6135333 L47.8960001,52.6155381 Z" id="Path" fill="#EBB1A5"></path>
            <path d="M11.2417826,52.6636526 C11.0733819,52.6636526 10.9079883,52.5774475 10.8137641,52.4240825 C10.6714254,52.1915292 10.7415924,51.8888089 10.9701362,51.7404559 L11.1265083,51.6402174 L10.2043139,52.1714815 C9.96875343,52.3078059 9.67004266,52.2316246 9.52670158,52.0000736 C9.38436289,51.769525 9.45252508,51.4678071 9.67806174,51.3184517 L13.8991056,48.5518687 L9.58684469,51.040791 C9.35128418,51.1781178 9.05157102,51.1019365 8.90822995,50.8683808 C8.76589126,50.6378322 8.83605822,50.3341095 9.06259726,50.1857565 L12.4606829,47.9835164 L9.00646369,49.9772604 C8.77290796,50.1145872 8.47620195,50.0394083 8.33185849,49.8108645 C8.18751503,49.5823207 8.2506653,49.2826075 8.47219241,49.130245 L18.0399586,42.5706366 L8.09629798,48.3112963 C7.86073748,48.4496255 7.55901955,48.3714394 7.41668086,48.1378837 C7.27534455,47.9053303 7.3465139,47.6016076 7.57606009,47.454257 L9.37133189,46.3105356 L7.57104817,47.3490066 C7.33849482,47.4863333 7.04078643,47.4111544 6.89644297,47.1826106 C6.75209951,46.9530644 6.81524977,46.6533513 7.03777927,46.5009887 L16.4581948,40.070688 L6.67892539,45.7161212 C6.4423625,45.8534479 6.14264934,45.7772667 6.00031065,45.5437109 C5.85797196,45.3101552 5.92813892,45.0084373 6.15668273,44.8600843 L8.89219179,43.0998959 L6.12260164,44.6987002 C5.8890459,44.836027 5.59133751,44.7598457 5.44699405,44.5313019 C5.30365298,44.3017557 5.36780563,44.0010402 5.59133751,43.84968 L13.1262666,38.7515492 L5.33272215,43.2502537 C5.09716164,43.3875805 4.79744848,43.3103968 4.65510979,43.0788459 C4.5127711,42.8472949 4.58093329,42.545577 4.80747233,42.397224 L8.59648817,39.9153183 L4.73129106,42.1476301 C4.49472817,42.2849568 4.19601739,42.2087756 4.0536787,41.9762222 C3.91033763,41.7446712 3.9795022,41.4419509 4.20704363,41.2935979 L6.59873458,39.7378962 L4.28122013,41.0760803 C4.05167393,41.2114023 3.75296316,41.1382282 3.6086197,40.9126916 C3.46327386,40.6861525 3.52241458,40.3884441 3.74193692,40.2330744 L11.708894,34.6056842 L9.62393294,35.8085464 C9.39137959,35.9448708 9.09467359,35.8706943 8.95033013,35.6431529 C8.80598666,35.4156114 8.86713216,35.1169007 9.08765689,34.9625334 L10.2524284,34.1556133 C10.090042,34.1465919 9.92264371,34.0864487 9.82140281,33.9411029 C9.67304981,33.7285972 9.71214283,33.4369032 9.91161748,33.2695049 L13.4690823,30.2954281 L12.3043108,30.9680286 C12.0647408,31.1063577 11.7570085,31.0251645 11.6196818,30.7845921 C11.4803502,30.545022 11.5625458,30.2382922 11.8031182,30.099963 L17.983825,26.5314719 C18.2073569,26.3991571 18.4970462,26.4643121 18.6453992,26.6778202 C18.7937522,26.8913282 18.7546592,27.1820199 18.5551846,27.3494182 L14.9997245,30.3214901 L19.6898845,27.6140479 C19.9234403,27.4777235 20.2191439,27.5519 20.3634874,27.7794414 C20.5078308,28.0069829 20.4466853,28.3056936 20.2261606,28.4600609 L19.6307438,28.8720412 L20.6992864,28.2555744 C20.9288326,28.1202524 21.2275434,28.1934265 21.3718868,28.4189631 C21.5172327,28.6455022 21.4580919,28.9432106 21.2385696,29.0985803 L13.2726149,34.7249681 L22.4995701,29.3992958 C22.7351306,29.2619691 23.0348438,29.3391527 23.1771825,29.5707037 C23.3205235,29.8022546 23.251359,30.104975 23.0238175,30.253328 L20.6361361,31.8060225 L23.5971818,30.0969559 C23.8327423,29.9596291 24.1334579,30.0368128 24.2747942,30.2683637 C24.4171329,30.4989123 24.3489707,30.8016326 24.1224316,30.9499856 L20.3324134,33.4318912 L24.7940297,30.8567638 C25.0295902,30.7214418 25.3262962,30.7946159 25.4696373,31.0241621 C25.6129783,31.2537083 25.5488257,31.5544239 25.3252938,31.705784 L17.7893623,36.8049173 L26.3647672,31.8551394 C26.5993253,31.718815 26.9010433,31.7939939 27.0433819,32.0275497 C27.1857206,32.2611054 27.1155537,32.5628233 26.8870099,32.7111763 L24.154508,34.4693599 L27.4683932,32.556809 C27.7029514,32.421487 27.998655,32.4956635 28.1429984,32.723205 C28.2873419,32.9517488 28.2241916,33.2524643 28.0016621,33.4048268 L18.5792418,39.8361299 L28.7444295,33.9681673 C28.9819948,33.8308405 29.2827104,33.9090266 29.4240467,34.1415799 C29.565383,34.3741333 29.4942136,34.677856 29.2646674,34.8252066 L27.4653861,35.9719352 L28.7474367,35.232175 C28.9829972,35.0958506 29.2776984,35.1710295 29.4220419,35.3985709 C29.5663854,35.6271147 29.5032351,35.9268279 29.281708,36.0791904 L19.7139418,42.6387988 L28.7524486,37.4213841 C28.9880091,37.2840573 29.2877223,37.3602386 29.4310634,37.5937944 C29.573402,37.8243429 29.5032351,38.1280656 29.276696,38.2764186 L25.8866295,40.4736469 L28.7554558,38.8177066 C28.9910163,38.6803799 29.2887247,38.7565611 29.4330681,38.9891145 C29.5754068,39.2196631 29.5072446,39.521381 29.281708,39.6707364 L25.0606641,42.4373194 L28.7584629,40.302239 C28.9940234,40.1659146 29.294739,40.2430983 29.4370777,40.4746493 C29.5794164,40.7072026 29.5092494,41.0099229 29.2807056,41.1582759 L28.8737372,41.4198984 C29.0812309,41.3577506 29.3117795,41.4389438 29.4340705,41.6293969 C29.5794164,41.8549336 29.5222804,42.152642 29.3047628,42.3090141 L26.6253873,44.2315888 L28.766482,42.9966503 C28.993021,42.8613283 29.2887247,42.9324976 29.4350729,43.1540247 C29.5814211,43.3755519 29.5302995,43.6722579 29.3177938,43.8316371 L27.1015203,45.4905845 L28.7694892,44.5282948 C28.9900139,44.4009919 29.2726865,44.4591302 29.4240467,44.6656215 C29.5744044,44.8711105 29.54734,45.1577926 29.359894,45.3312053 L26.3336933,48.1138264 L28.7745011,46.7054753 C28.9860044,46.5811795 29.255646,46.6323012 29.412018,46.8197472 C29.5673877,47.009198 29.5633782,47.2828491 29.4029966,47.467288 L28.0517814,49.0199826 L28.779513,48.5999832 C29.0180807,48.4596493 29.3258129,48.5428473 29.4641421,48.7834197 C29.6034736,49.0229898 29.521278,49.3297196 29.2807056,49.4680488 L25.9537893,51.3896211 C25.742286,51.5139168 25.4726444,51.4627952 25.3162723,51.2753492 C25.1609026,51.0858984 25.1649122,50.8122472 25.3252938,50.6278084 L26.6775114,49.0741114 L22.9075408,51.2502895 C22.6890209,51.3795972 22.4063483,51.3204565 22.2529834,51.1129628 C22.1026256,50.9074738 22.12969,50.6207917 22.317136,50.447379 L25.3433367,47.6657603 L20.331411,50.5586438 C20.1018648,50.691961 19.8091684,50.6217941 19.6628201,50.4012693 C19.5164719,50.1797422 19.5675936,49.8830362 19.7800992,49.723657 L21.9973751,48.0637072 L18.350698,50.168716 C18.1211518,50.3030356 17.8234434,50.2308638 17.6790999,50.007332 C17.5337541,49.7817953 17.5908901,49.4840869 17.8084076,49.3277148 L20.4837736,47.4081473 L11.4933812,52.5984976 C11.4141928,52.6446073 11.3279877,52.6656574 11.2427849,52.6656574 L11.2417826,52.6636526 Z" id="Path" fill="#B96857"></path>
            <g id="Group" transform="translate(17.521176, 5.227700)" fill="#FFD6CD">
                <path d="M21.7753623,0.240652466 C21.917701,0.471201048 21.8475341,0.774923747 21.6199926,0.923276748 L21.3262938,1.11272754 C21.5458161,1.03754865 21.7903981,1.11974424 21.9166986,1.32222603 C22.0600397,1.55177223 21.9938823,1.85248777 21.769348,2.00384793 L14.2725095,7.0117641 L21.241091,2.98819014 C21.4766516,2.85086338 21.7763647,2.92704465 21.9187034,3.159598 C22.0610421,3.39215135 21.9928799,3.69386928 21.7653385,3.84222228 L16.5288785,7.25133415 L21.241091,4.53086088 C21.4766516,4.39353411 21.7763647,4.46971538 21.9197058,4.70327112 C22.0620445,4.93482209 21.9918775,5.2375424 21.7643361,5.3858954 L17.5783757,8.09033052 L21.241091,5.97630025 C21.4746468,5.8379711 21.7733576,5.91515476 21.917701,6.14570334 C22.0610421,6.37524954 21.9948847,6.67696747 21.7703504,6.82732524 L13.7953742,12.1399665 L21.4245275,7.73548618 C21.6590857,7.59715703 21.9587988,7.6733383 22.1011375,7.90589165 C22.2444786,8.13543785 22.1773188,8.43715578 21.9517821,8.58751355 L14.5722227,13.4671244 L21.9938823,9.18293032 C22.23245,9.04560356 22.5321631,9.12278721 22.6734994,9.35734534 C22.8148357,9.59190346 22.742664,9.89462377 22.5131178,10.040972 L21.6420451,10.5922838 L22.5542156,10.0660316 C22.7907785,9.92870487 23.0924964,10.0068909 23.2338327,10.2404466 C23.375169,10.4740024 23.3039997,10.7767227 23.0744535,10.9230709 L20.5364143,12.536911 L23.1837135,11.0092761 C23.4172692,10.8709469 23.71598,10.9481306 23.8603234,11.1786791 C24.0036645,11.4082253 23.9375071,11.7099433 23.7119704,11.860301 L14.04998,18.2805779 L24.1460032,12.4527107 C24.3835685,12.3153839 24.684284,12.3925675 24.8256203,12.6271257 C24.9669566,12.8616838 24.8947849,13.1644041 24.6652387,13.3107523 L21.9608036,15.019819 L24.7073389,13.4340457 C24.9439018,13.2977213 25.2466221,13.3739026 25.3879584,13.6094631 C25.5292947,13.8430188 25.4561206,14.1467415 25.2245696,14.2930898 L24.0868625,15.006788 L25.0661927,14.4424452 C25.2997485,14.3051184 25.600464,14.3802973 25.7428027,14.6118483 C25.8861438,14.8423968 25.818984,15.1441148 25.5944497,15.2944725 L15.589,21.927 L25.251634,16.3489817 C25.4891993,16.2116549 25.7889124,16.289841 25.9302487,16.5223943 C26.0725874,16.7549477 26.0014181,17.057668 25.7728743,17.2050186 L24.2682942,18.1683107 L25.251634,17.6009607 C25.4871945,17.4626316 25.7869077,17.5408176 25.9292464,17.7723686 C26.071585,18.0039196 26.0034229,18.3056375 25.7768838,18.4539905 L20.7649581,21.7347971 L25.2526364,19.1446339 C25.4871945,19.0073071 25.7859053,19.082486 25.9292464,19.314037 C26.0725874,19.5455879 26.0054276,19.8463035 25.7808934,19.9966612 L19.3866785,24.2327409 L25.2536388,20.8456815 C25.4891993,20.7083547 25.7879101,20.7855383 25.9312511,21.0170893 C26.0735898,21.2466355 26.0054276,21.5493558 25.779891,21.6987112 L20.5604715,25.1208541 L25.2546412,22.411407 C25.4891993,22.2740803 25.7869077,22.3492592 25.9312511,22.5808101 C26.0745922,22.8103563 26.0084348,23.1110719 25.7849029,23.262432 L18.4905462,28.1380334 L25.2556435,24.2327409 C25.4912041,24.0964165 25.792922,24.1715954 25.9342583,24.4051511 C26.076597,24.6367021 26.00643,24.9404248 25.7788886,25.0877754 L22.9070552,26.9401831 L25.2566459,25.583956 C25.4912041,25.4496364 25.7879101,25.5228105 25.9312511,25.750352 C26.0755946,25.9788958 26.0124443,26.2796113 25.7899148,26.4319739 L16.8275893,32.5525375 L25.2566459,27.6869601 C25.4912041,27.5486309 25.7889124,27.6258146 25.9332559,27.8553608 C26.076597,28.084907 26.0114419,28.3856225 25.7869077,28.5369827 L19.0077769,33.0868088 L25.2566459,29.4782223 C25.4912041,29.3418979 25.7899148,29.4170768 25.9322535,29.646623 C26.0695932,29.8665586 26.0164501,30.1518288 25.8142632,30.3084642 C25.8582495,30.3423832 25.8987246,30.3864193 25.9312511,30.4385073 C26.0745922,30.6680535 26.0104396,30.9677666 25.7869077,31.1201292 L22.3787982,33.4296245 L25.2556435,31.7686724 C25.4871945,31.6333504 25.7869077,31.7075269 25.9302487,31.9350683 C26.0745922,32.1636121 26.0114419,32.4633253 25.7899148,32.6156878 L23.568,34.139 L25.2546412,33.1659972 C25.4821826,33.0306752 25.7768838,33.102847 25.9222297,33.3213669 C26.0685779,33.5418917 26.019461,33.8375953 25.8099625,33.9979769 L25.7408334,34.0484952 C25.8005701,34.080267 25.8547488,34.1245202 25.8991748,34.180411 C26.0545445,34.3758761 26.0405111,34.6555416 25.8691032,34.8349685 L24.0748338,36.7264693 L25.2556435,36.0448474 C25.4601301,35.9235588 25.7237574,35.9686661 25.8821343,36.1470907 C26.0395087,36.3255152 26.0495326,36.5901449 25.9061915,36.7816005 L24.9870043,37.9974936 C25.173448,37.9814555 25.3548797,38.0766821 25.4531134,38.2470875 C25.5924449,38.4866576 25.5102494,38.7933874 25.2696769,38.9317166 L23.4282954,39.9952472 C23.3501094,40.0413569 23.2639043,40.062407 23.1776991,40.062407 C23.0373652,40.062407 22.9000385,40.0032663 22.8018047,39.8930039 C22.6444302,39.7145794 22.6344064,39.4499497 22.7777475,39.2584941 L23.6167438,38.1498562 L21.5808996,39.3246516 C21.3673916,39.4509521 21.0907333,39.3978257 20.936366,39.2013582 C20.7819987,39.0058931 20.7950297,38.7262276 20.9664375,38.5468007 L22.7607069,36.6552999 L21.017,37.66 L20.7910201,37.8331025 C20.8220941,37.8551549 20.8521656,37.8832217 20.8772252,37.9142957 C21.0335973,38.1007393 21.0335973,38.3723857 20.8772252,38.5588293 L19.9259617,39.6925269 L19.9961287,39.6524315 C20.2346964,39.5110952 20.5424286,39.5942932 20.6807578,39.835868 C20.8200893,40.075438 20.7378937,40.3821679 20.4973213,40.520497 L17.9632916,41.9839793 C17.8851056,42.0300891 17.7989005,42.0511391 17.7126953,42.0511391 L17.7126953,42.0521415 C17.5683519,42.0521415 17.4270156,41.9899937 17.3287818,41.8727146 C17.1724098,41.686271 17.1724098,41.4146246 17.3287818,41.2281809 L18.2800453,40.0944833 L16.4196185,41.1680378 C16.1900723,41.3013551 15.8973759,41.2311881 15.75203,41.0126681 C15.6056818,40.7921434 15.6547986,40.4964398 15.8642971,40.3360582 L19.0258199,37.92031 L15.97878,39.6816283 C15.9652743,39.7841426 15.9200456,39.8828352 15.8442494,39.9621685 L14.1381899,41.7414021 L15.2317921,41.1098995 C15.4473049,40.9815942 15.7279728,41.0387302 15.8813377,41.2412119 C16.0337002,41.4426914 16.0126501,41.725364 15.8312184,41.9027861 L15.3811475,42.3418308 C15.5355148,42.3568666 15.681863,42.4450765 15.765061,42.58942 C15.9043925,42.82899 15.822197,43.1357199 15.5816245,43.274049 L12.6877386,44.9450251 C12.6095526,44.9911348 12.5233475,45.0121849 12.4371423,45.0121849 L12.4381447,45.0131872 C12.2867846,45.0131872 12.1364268,44.9440227 12.0391954,44.814715 C11.8868329,44.6132356 11.907883,44.330563 12.0893147,44.1531408 L12.2667369,43.9797282 L11.5901269,44.3706584 C11.3756165,44.4969589 11.0989582,44.4438325 10.9445909,44.2463626 C10.7912259,44.0498951 10.8042569,43.7702297 10.9766672,43.5908027 L12.6847315,41.8105667 L10.8112736,42.8911379 C10.5787203,43.0284647 10.2810119,42.9532858 10.1366684,42.724742 C9.99232498,42.4961981 10.0554752,42.196485 10.2770024,42.0441224 L14.5892632,39.0860839 L10.7822045,41.2833121 C10.5496511,41.4196365 10.2509403,41.34546 10.1065969,41.1159138 L10.071,41.046 L8.41757792,42.0010199 C8.33838949,42.0471296 8.25218437,42.0681797 8.16698163,42.0681797 L8.16597925,42.0681797 C7.99858093,42.0681797 7.83519215,41.9839793 7.74096795,41.8326192 C7.59762687,41.603073 7.66177952,41.3023574 7.88631379,41.1509973 L10.1256959,39.6457541 C10.1156921,39.6319064 10.1062989,39.6174203 10.0975754,39.6023122 C10.0644527,39.5453602 10.0438492,39.4846127 10.0349167,39.4232344 L6.63934668,41.384553 C6.40378617,41.5208774 6.10507539,41.4456985 5.9627367,41.2161523 C5.81939563,40.9866061 5.88455066,40.6858906 6.10908494,40.5345304 L12.8912228,35.9826995 L5.85447911,40.0453665 C5.62192576,40.1826932 5.32421737,40.1075144 5.17987391,39.8789705 C5.03553045,39.6504267 5.09868071,39.3497112 5.32121021,39.1973486 L14.2795262,33.0787897 L5.77027876,37.9914793 C5.53471825,38.1288061 5.23400271,38.0526248 5.09166402,37.8190691 C4.94932533,37.5875181 5.01949229,37.2837954 5.24703371,37.1364448 L8.11886715,35.284037 L5.76927637,36.6402641 C5.53371586,36.7755861 5.23600748,36.7014096 5.0926664,36.4708611 C4.94932533,36.2413149 5.01548274,35.9405993 5.23901463,35.7892392 L12.5333713,30.9136378 L5.76827399,34.8189303 C5.53271348,34.9552547 5.23400271,34.8790734 5.09066163,34.6475225 C4.94832294,34.4179763 5.01648513,34.115256 5.24202179,33.9659006 L10.4704627,30.5377434 L5.76827399,33.2522024 C5.53271348,33.3885267 5.23400271,33.3133479 5.09166402,33.0817969 C4.94832294,32.8522507 5.01548274,32.5505328 5.24001702,32.400175 L11.6262128,28.1701097 L5.7672716,31.5521572 C5.53171109,31.6894839 5.23099555,31.6123003 5.08965925,31.3807493 C4.94732055,31.1502007 5.01548274,30.8474804 5.24202179,30.6991274 L10.2639714,27.4113041 L5.7672716,30.0074817 C5.53171109,30.1458108 5.22999317,30.0666224 5.08865686,29.834069 C4.94631817,29.6015157 5.01748751,29.2987954 5.24603133,29.1514447 L6.73557565,28.1981765 L5.76626922,28.7575074 C5.7316771,28.777542 5.69571713,28.7929756 5.65908962,28.8040049 L2.24789737,30.7712991 C2.16971133,30.8174089 2.08250382,30.8384589 1.99730108,30.8384589 L1.99830347,30.8404637 C1.83090515,30.8404637 1.66651398,30.7562634 1.57228978,30.6039008 C1.4289487,30.3733522 1.49610851,30.0716343 1.72064278,29.9212765 L11.5460219,23.4067755 L1.00293502,29.4932581 C0.767374511,29.6315872 0.464654198,29.5544036 0.322315507,29.3178407 C0.180979202,29.0842849 0.254153318,28.7805622 0.485704286,28.634214 L1.61038042,27.9285349 L0.760357815,28.4187012 C0.523794921,28.5580327 0.223079378,28.4788443 0.0807406881,28.2442862 C-0.060595617,28.0107305 0.0115761132,27.7070078 0.241122311,27.5606595 L2.95357651,25.8465809 L0.756348274,27.1156005 C0.520787766,27.2509225 0.223079378,27.176746 0.0797383029,26.9461974 C-0.0636027725,26.7156488 0.00255464695,26.4149333 0.228091304,26.2645755 L9.88707454,19.8463035 L0.756348274,25.1178469 C0.520787766,25.2561761 0.218067453,25.1789924 0.0767311475,24.9434319 C-0.0646051576,24.7108786 0.00656418752,24.4071559 0.236110385,24.2608076 L2.774,22.646 L0.755345889,23.8117391 C0.51978538,23.9500682 0.217065067,23.8718822 0.0757287624,23.6373241 C-0.0656075427,23.402766 0.00656418752,23.1000456 0.236110385,22.9536974 L1.10317353,22.4053927 L0.754343504,22.6058698 C0.518782995,22.7421941 0.219069838,22.6670153 0.0777335326,22.4354643 C-0.0656075427,22.2059181 0.00155226181,21.9042002 0.227088919,21.7538424 L7.61065788,16.8712244 L0.753341119,20.8296433 C0.51778061,20.9649653 0.220072223,20.8907888 0.0767311475,20.6602402 C-0.0666099279,20.4296916 -0.000452508477,20.1289761 0.224081763,19.9786183 L8.19204126,14.6699866 L0.752338734,18.9652069 C0.516778225,19.1025337 0.217065067,19.0263524 0.0737239921,18.7927967 C-0.0686146982,18.5612457 0.00155226181,18.2585254 0.229093689,18.1101724 L4.42207074,15.4007254 L0.820500923,17.4796721 C0.584940415,17.6169989 0.285227257,17.5408176 0.142888567,17.3082643 C0.000549876665,17.0757109 0.0687120664,16.773993 0.296253494,16.62564 L5.53070871,13.2175305 L1.48007035,15.5560951 C1.24450984,15.6924194 0.946801451,15.6172406 0.803460376,15.386692 C0.6601193,15.1571458 0.72627672,14.8564302 0.950810992,14.7050701 L8.44764947,9.69815629 L5.11371649,11.6227358 C4.87815598,11.7590601 4.57844282,11.6838813 4.43510175,11.4503255 C4.29276306,11.2197769 4.36293002,10.9160542 4.59047144,10.7677012 L6.07299907,9.80641388 C5.9156246,9.79739241 5.76426445,9.71419445 5.67505217,9.57185576 C5.53171109,9.34230956 5.59786851,9.04159402 5.8214004,8.89023386 L6.64836814,8.33491249 C6.43385772,8.41610569 6.18526621,8.34393396 6.05295137,8.14646408 C5.90560075,7.92794412 5.95171047,7.63324289 6.15920419,7.47185888 L9.92616756,4.52685133 L6.76464482,6.35219468 C6.53810578,6.48350713 6.2464117,6.41634733 6.10006347,6.20083452 C5.95271285,5.98331695 5.9968178,5.6896181 6.20330914,5.52622932 L7.68383199,4.35143394 L6.7656472,4.88069329 C6.54812963,5.01100336 6.26345225,4.95086025 6.11108971,4.74336653 C5.96073193,4.53787757 5.98779633,4.25119542 6.17524235,4.07778279 L7.10445338,3.22174588 L6.7656472,3.41721098 C6.59624411,3.51644711 6.38173369,3.50642326 6.22235446,3.39014658 C6.06197283,3.27487229 5.98478918,3.07740242 6.0238822,2.8829397 L6.34965737,1.29415925 C6.24039739,1.25606861 6.14316603,1.17988734 6.08001577,1.07162975 C5.94168662,0.831057315 6.0238822,0.524327461 6.26445463,0.385998311 L6.76765197,0.0963090051 C6.93905983,-0.000922353694 7.15256787,0.0101038829 7.31194711,0.124375789 C7.47132634,0.239650081 7.54851,0.438122339 7.50941698,0.631582671 L7.23075391,1.99081692 L10.5245915,0.0892923091 C10.7441138,-0.0390129891 11.0277888,0.0191253492 11.179149,0.226619074 C11.3295068,0.432108028 11.3024424,0.718790179 11.1149963,0.892202808 L10.1847829,1.74823972 L13.0666402,0.0842803834 C13.2921769,-0.0490368405 13.5848733,0.0191253492 13.7312216,0.23564054 C13.8785722,0.453158116 13.8344672,0.746856963 13.6279759,0.910245741 L12.1494578,2.08403874 L15.6237247,0.0782660726 C15.8502637,-0.0560535365 16.1429602,0.0141134234 16.2893084,0.231630999 C16.4366591,0.45015096 16.3905493,0.744852192 16.1830556,0.9062362 L12.4140875,3.85224613 L18.9626696,0.0722517617 C19.1962254,-0.0650750028 19.4949361,0.011106268 19.6392796,0.240652466 C19.7826207,0.470198663 19.7164632,0.770914206 19.4929314,0.922274363 L18.7401401,1.42747647 L21.0967476,0.0682422211 C21.3323081,-0.0690845434 21.6320213,0.00709672745 21.7753623,0.240652466 Z" id="Combined-Shape"></path>
            </g>
            <path d="M26.5472013,9.2142662 C26.3818078,9.2142662 26.2194214,9.13207062 26.1241948,8.98271524 C25.9798513,8.75617619 26.0399944,8.45646304 26.2605192,8.30209572 L28.1229507,7.00099981 L24.4051043,9.1471064 C24.1755581,9.28042362 23.8828616,9.21025666 23.7375157,8.99073432 C23.5911675,8.77020959 23.6402844,8.47450597 23.8507853,8.31412435 L28.0177003,5.1465873 L23.2894496,7.87608204 C23.0649153,8.00839688 22.7772308,7.94223946 22.6278754,7.72973381 C22.4795224,7.51622577 22.5186154,7.2245317 22.7180901,7.05813576 L26.2585144,4.10510913 L23.2894496,5.81918773 C23.0769439,5.9424811 22.8042952,5.89336423 22.6479231,5.69990389 C22.4935558,5.50844833 22.5015749,5.23179003 22.6679708,5.04935594 L24.7148413,2.79298698 L23.2894496,3.6149428 C23.0969916,3.72420278 22.8554168,3.69713838 22.6950352,3.54577822 C22.5336512,3.39441807 22.491551,3.15484802 22.5907871,2.95637576 L23.1070155,1.92993337 C22.9556553,1.95198585 22.7531735,1.84473064 22.6589493,1.67933709 C22.5196178,1.43976704 22.6018134,1.13303718 22.8423858,0.994708035 L24.006155,0.323109989 C24.1966081,0.210842853 24.4401877,0.238909637 24.6005694,0.392274564 C24.7619534,0.543634721 24.8040535,0.784207155 24.7048174,0.981677028 L24.2377059,1.91088806 L26.9882508,0.323109989 C27.199754,0.197811847 27.4724028,0.247931104 27.6287749,0.442393821 C27.7841446,0.633849384 27.7761255,0.910507683 27.6097296,1.09294178 L25.5628591,3.35031312 L30.8063358,0.322107604 C31.03087,0.190795151 31.3185546,0.255950185 31.46791,0.468455835 C31.616263,0.68196387 31.5771699,0.973657947 31.3776953,1.14005388 L27.8362686,4.09308051 L34.3708173,0.321105219 C34.5983588,0.185783225 34.8920576,0.257954955 35.0384058,0.476474916 C35.1847541,0.696999648 35.1356372,0.99370565 34.9251363,1.15408727 L30.7572189,4.32262671 L37.6897145,0.321105219 C37.9222679,0.185783225 38.2189739,0.25895734 38.3633174,0.485496382 C38.5076608,0.712035425 38.4475177,1.01174858 38.226993,1.16611589 L36.3705757,2.46219988 L39.5170627,0.645878005 C39.7506184,0.510556011 40.0483268,0.584732512 40.1916679,0.811271554 C40.3360113,1.03981537 40.2738634,1.33852614 40.0523363,1.49189107 L39.2694735,2.03217666 L39.7686613,1.74449212 C39.9891861,1.61618682 40.2758682,1.67632993 40.4252236,1.88582843 C40.5755814,2.09432454 40.543505,2.38301146 40.3520495,2.55341693 L36.686327,5.80014241 L39.7686613,4.02191117 C39.9841741,3.89360587 40.2638396,3.95074182 40.4172045,4.15121885 C40.5695671,4.35069349 40.5515241,4.63236372 40.3720972,4.81078827 L38.8133883,6.36448524 L39.7676589,5.81317341 C39.9581121,5.70291105 40.1996869,5.72997545 40.361071,5.88033322 C40.522455,6.03069099 40.5655575,6.27026104 40.4673238,6.46773091 L39.9390668,7.5412854 C40.1184937,7.53025916 40.3019302,7.6224786 40.3991616,7.7908793 C40.5384931,8.03044935 40.4562975,8.3371792 40.2157251,8.47550835 L39.0529583,9.1471064 C38.8615028,9.25536399 38.619928,9.22930198 38.4595463,9.07994659 C38.2981623,8.92958882 38.2550598,8.69001877 38.3532935,8.4925489 L38.8384479,7.50720431 L35.9946813,9.14810878 C35.7781661,9.27440931 35.4985006,9.21927813 35.3461381,9.0188011 C35.1937755,8.81932646 35.2118185,8.53765623 35.3912454,8.35923168 L36.9499543,6.80653709 L32.8922993,9.14810878 C32.6727769,9.27741647 32.3860948,9.21727336 32.235737,9.00677248 C32.0853792,8.79827637 32.1174555,8.50958945 32.3089111,8.33918397 L35.9726288,5.09346088 L28.9489161,9.14810878 C28.7163628,9.28543555 28.4196567,9.21025666 28.2743109,8.98271524 C28.1299674,8.75417142 28.1921153,8.45546065 28.4136424,8.30209572 L29.1904909,7.76581967 L26.7957928,9.14810878 C26.7176068,9.1942185 26.6303993,9.21526859 26.5451965,9.21526859 L26.5472013,9.2142662 Z" id="Path" fill="#C384F8"></path>
            <path d="M1.45248926,59.0648841 C1.29311002,59.0648841 1.13673794,58.9887028 1.03950658,58.8473665 C0.892155965,58.6318537 0.934256141,58.3391573 1.13673794,58.1737637 L5.69558557,54.4759649 L1.23898122,57.0490876 C1.0114398,57.1804 0.720748105,57.1142426 0.573397489,56.8977274 C0.427049259,56.6802099 0.471154205,56.3855086 0.677645544,56.2221198 L4.39348727,53.2821242 L1.23998361,55.1024556 C1.01745411,55.2337681 0.729769572,55.1696154 0.580414185,54.9581122 C0.431058799,54.7466089 0.467144664,54.4559172 0.663612152,54.2875165 L4.67816465,50.8463283 L1.23998361,52.8300485 C1.01444695,52.961361 0.726762416,52.8972083 0.578409415,52.6826979 C0.430056414,52.4691899 0.47015182,52.1764934 0.670628848,52.0100975 L3.3931069,49.7587404 L1.24098599,51.0006956 C1.02246603,51.1310057 0.737788653,51.0698602 0.585426111,50.8623665 C0.43506834,50.6558751 0.464137509,50.3681906 0.653588301,50.1957804 L3.60561255,47.5123953 L1.24098599,48.8766415 C1.01544934,49.007954 0.727764801,48.9427989 0.5794118,48.7302933 C0.431058799,48.5177876 0.47015182,48.2250912 0.669626463,48.0586952 L1.94365798,46.996167 L1.24098599,47.4011306 C1.01745411,47.532443 0.727764801,47.4682904 0.5794118,47.2547824 C0.431058799,47.0412743 0.47015182,46.7495802 0.669626463,46.5831843 L1.40036523,45.9737341 L1.24198838,46.0649512 C1.02346842,46.1932565 0.742800579,46.1361205 0.589435652,45.9296292 C0.438075495,45.7251426 0.463135124,45.4404653 0.64957876,45.2660502 L1.97372953,44.0220903 L1.24299076,44.4440944 C1.03248988,44.5673878 0.763850666,44.5182709 0.606476199,44.3308249 C0.451106502,44.1433789 0.453111272,43.8707301 0.611488125,43.6852889 L2.28547131,41.7246235 L1.24299076,42.3260546 C1.03248988,42.449348 0.761845896,42.4002311 0.605473814,42.2107803 C0.450104117,42.0223319 0.454113657,41.7476784 0.61449528,41.5632395 L1.27205993,40.8084435 C1.04251374,40.9116892 0.760843511,40.8284912 0.631535828,40.6019522 C0.492204293,40.3623821 0.574399875,40.0556523 0.814972309,39.9173231 L3.37105442,38.4408098 C3.5815553,38.3175164 3.85219929,38.3656309 4.00857137,38.5560841 C4.16394107,38.7445325 4.15993153,39.019186 3.99954991,39.2036249 L3.34599479,39.9544114 L4.30928692,39.3980876 C4.51878541,39.2747942 4.78842701,39.3229087 4.94580148,39.5113571 C5.10117118,39.6988032 5.09916641,39.9714519 4.94078956,40.1568932 L3.26680637,42.1175585 L5.22646932,40.9868681 C5.44498928,40.8585628 5.72665951,40.9156987 5.87902205,41.1221901 C6.03038221,41.3266766 6.00532258,41.611354 5.81887894,41.785769 L4.49472817,43.029729 L5.92813892,42.2027612 C6.15267319,42.0714488 6.44136011,42.1366038 6.58971311,42.3491095 C6.73806612,42.5616151 6.6989731,42.8543116 6.49949845,43.0207075 L5.77176684,43.6281529 L6.50551276,43.204144 C6.72904465,43.0738339 7.01873396,43.1369842 7.16708696,43.3504922 C7.31543996,43.5640003 7.27634694,43.8556943 7.07687229,44.0220903 L5.79983362,45.0866233 L7.14503448,44.3107772 C7.36555921,44.1834743 7.64923421,44.242615 7.80059437,44.4491063 C7.95095214,44.6555977 7.92188297,44.9432822 7.73243218,45.1156925 L4.78040793,47.8000799 L8.06422166,45.9035672 C8.28875593,45.7722547 8.57944762,45.8364074 8.72579585,46.0509178 C8.87414885,46.2644258 8.83405345,46.5571223 8.63357642,46.7235182 L5.91310314,48.9728705 L8.85610592,47.2748301 C9.07763304,47.1435176 9.36631996,47.2066679 9.51567535,47.4191735 C9.66503073,47.6306768 9.62894487,47.9213685 9.43247738,48.0897692 L5.41592011,51.5329621 L9.83944575,48.9798872 C10.0659848,48.8455676 10.3566765,48.9147322 10.5050295,49.1312473 C10.6513777,49.3487649 10.6072728,49.6434662 10.4007814,49.8068549 L6.68694447,52.7448458 L10.6814493,50.4383576 C10.9069859,50.3060427 11.1966752,50.3722002 11.3450282,50.587713 C11.4923788,50.8032258 11.4502787,51.0959222 11.2477969,51.2613158 L6.68694447,54.960117 L11.6216865,52.1113384 C11.8602542,51.9720068 12.1679864,52.0532 12.3063156,52.2947749 C12.4456471,52.5343449 12.3634515,52.8410748 12.1228791,52.9794039 L1.70509032,58.9937148 C1.62690427,59.0398245 1.53969677,59.0608746 1.45449403,59.0608746 L1.45248926,59.0648841 Z" id="Path" fill="#6FD5D2"></path>
            <path d="M57.2793274,59.1871751 C57.1490173,59.1871751 57.020712,59.1360535 56.924483,59.0398245 C56.7641014,58.8784405 56.7330275,58.629849 56.8472994,58.4343839 L57.6782767,57.010997 L55.7737449,58.1116158 C55.5592345,58.2389188 55.2805714,58.18479 55.1262041,57.9853153 C54.9728392,57.7868431 54.9888773,57.5051728 55.1652971,57.3267483 L56.130594,56.3444108 L54.420525,57.3307578 C54.2030074,57.4570583 53.9233419,57.4009248 53.7709794,57.1994454 C53.6186168,56.9979659 53.6396669,56.714291 53.8210986,56.5378712 L55.8388999,54.5731963 L52.7415298,56.3614514 C52.5220075,56.4917614 52.2363277,56.430616 52.0849676,56.2201151 C51.9346098,56.011619 51.9666861,55.7239344 52.1581417,55.5525266 L55.039999,52.9944397 L50.9753272,55.3410233 C50.7477858,55.4743405 50.4560917,55.405176 50.3087411,55.1876584 C50.1623929,54.9691384 50.2085026,54.6744372 50.4159963,54.5120508 L53.0833432,52.4310992 L49.5088378,54.4950102 C49.2792916,54.6293299 48.9825856,54.5571581 48.8372397,54.3336262 C48.6918939,54.1100944 48.7490298,53.8113836 48.965545,53.6540091 L50.6385258,52.4511469 L48.4833978,53.6951069 C48.2548539,53.8284241 47.9611551,53.7582572 47.8158093,53.5397372 C47.669461,53.3202149 47.7175755,53.0235089 47.9280764,52.8631272 L52.6312675,49.2635622 L49.519864,51.058834 C49.2893154,51.1951584 48.991607,51.1209819 48.8472636,50.8954452 C48.7019177,50.6689062 48.7610584,50.3701954 48.9805808,50.2158281 L50.3508413,49.2485264 C50.1864501,49.2485264 50.0270709,49.1663308 49.9318443,49.0189802 C49.7864984,48.7944459 49.8436344,48.4957352 50.061152,48.3403655 L51.3181429,47.441226 C51.1868305,47.4211783 51.0645395,47.3500089 50.9833463,47.2337323 C50.8349933,47.022229 50.8720816,46.7305349 51.0695514,46.5631366 L54.4295464,43.7233795 L53.4191422,44.3057653 C53.1966127,44.4360753 52.9109329,44.3739275 52.7615775,44.1634266 C52.6112198,43.9539281 52.6453009,43.6642388 52.8387612,43.4948357 L54.3563723,42.1676778 C54.241098,42.1486324 54.1308357,42.0894917 54.0516472,41.9932627 C53.8962775,41.8048143 53.8982823,41.5321656 54.0566592,41.3467243 L55.2956072,39.9002826 C55.2695452,39.8732182 55.2454879,39.8401395 55.2264426,39.8060584 C55.0871111,39.5664883 55.1693067,39.2597585 55.4098791,39.1214293 L56.5796626,38.4458217 C56.7891611,38.321526 57.059805,38.3706428 57.2161771,38.5590912 C57.3715468,38.7475397 57.369542,39.0201884 57.2111652,39.2056297 L56.724006,39.773982 L57.8546965,39.1224317 C58.077226,38.9911192 58.3639081,39.0552719 58.5122611,39.2647704 C58.6626189,39.4742689 58.6285378,39.7639582 58.4350775,39.9333613 L57.3585158,40.8746009 L58.7839075,40.0526451 C59.0084418,39.9213327 59.2961263,39.9864877 59.4444793,40.1989933 C59.5928323,40.4104966 59.555744,40.7021907 59.3582742,40.869589 L56.0012863,43.706339 L58.8159838,42.082475 C59.04553,41.947153 59.3432384,42.0193248 59.4875819,42.2448614 C59.6329277,42.4693957 59.5757917,42.7681065 59.3582742,42.9234762 L58.9192295,43.2382251 C59.1277256,43.1710653 59.3652909,43.2532609 59.4885842,43.4467212 C59.6339301,43.6732602 59.5747894,43.971971 59.355267,44.1263383 L58.5974638,44.661612 L58.8159838,44.5353115 C59.0435252,44.4009919 59.3382265,44.4711588 59.4835723,44.6906812 C59.6299205,44.9102035 59.5818061,45.2069095 59.3713052,45.3672911 L54.6681141,48.9678586 L58.8169862,46.5721581 C59.0465324,46.4368361 59.342236,46.5090078 59.4885842,46.7335421 C59.6339301,46.9580764 59.5767941,47.2557847 59.3602789,47.4131592 L57.6812838,48.6200309 L58.8169862,47.9654734 C59.0445276,47.8321562 59.3362217,47.9013208 59.4835723,48.1188384 C59.6299205,48.3373583 59.5838108,48.6320595 59.3763171,48.7944459 L56.7119774,50.8723903 L58.8179886,49.6574995 C59.0395157,49.5281919 59.3251955,49.5893374 59.4745508,49.7988359 C59.6249086,50.007332 59.5928323,50.2950165 59.4013767,50.4664244 L56.5205218,53.0235089 L58.8179886,51.6973533 C59.0345038,51.569048 59.3141692,51.626184 59.4675342,51.8286658 C59.6198967,52.0301452 59.5988466,52.3138202 59.4174149,52.49024 L57.3976088,54.4569196 L58.8169862,53.6379709 C59.0335014,53.5126728 59.3101597,53.5668016 59.464527,53.7642715 C59.6178919,53.9627437 59.6018538,54.244414 59.425434,54.4228385 L58.4611395,55.4041736 L58.8169862,55.1986846 C59.0124513,55.0824079 59.2610428,55.1184938 59.4224268,55.2788754 C59.5828084,55.4402594 59.6138824,55.6888509 59.4996105,55.8843161 L58.6686332,57.3067006 L58.8119743,57.224505 C59.0505419,57.0841711 59.3572718,57.167369 59.4966033,57.4079415 C59.6359349,57.6485139 59.5537393,57.9542414 59.3131668,58.0925705 L57.5329308,59.1210177 C57.4547448,59.1671274 57.3685397,59.1881775 57.2823345,59.1881775 L57.2793274,59.1871751 Z" id="Path" fill="#6FD5D2"></path>
            <path d="M59.8213761,44.3167915 C60.2704447,41.5091107 59.6369372,37.5767538 55.872981,38.7505468 C50.1483595,36.4540825 50.0771901,28.9582464 43.786221,27.1339054 C45.3669824,17.4568792 39.1050824,16.9196008 39.7726709,8.98271524 C41.4135754,8.17779997 40.5946267,5.8141758 40.7810703,4.31961955 C42.2736218,-2.7201313 32.5304382,1.19618745 28.4316854,0.2549478 C25.1408549,0.18678561 21.2866841,-0.476793354 22.2800478,4.21436911 C22.5336512,5.75804223 21.5242494,8.34319351 23.2874448,9.12204677 C24.8772277,17.5751607 15.5540434,18.0703389 17.2380505,26.609658 C9.38135574,29.1857878 10.8137641,35.7433914 4.46164946,38.6392821 C-2.66731368,37.0134134 1.11167831,51.6572579 0.230581771,55.9594949 C-0.484118836,61.5387706 4.35940617,58.4173433 6.90345966,56.7884675 C8.57042616,55.3540543 12.2421629,54.8428379 12.5869834,52.498259 C17.5788614,47.6176458 23.8608091,54.1702375 28.9920187,49.9832747 C29.6525905,50.3010308 30.5356918,50.369193 31.2724449,50.1406492 C36.6582602,53.716157 42.1944334,47.3810829 47.5140913,52.5804546 C47.185309,54.7235541 50.9021531,55.2297586 52.234323,56.4636947 C63.2745929,64.9559016 59.0565562,50.7721518 59.8213761,44.3157891 L59.8213761,44.3167915 Z M23.7405229,1.70840626 C23.7525515,1.11599664 23.7214776,1.19217791 24.2427179,1.19217791 C29.0601809,1.20721369 33.9006987,1.17112782 38.7051307,1.19217791 C39.7907138,1.0979537 39.4017884,7.51121385 39.1351539,8.27603371 C34.1943976,8.26801463 29.2466245,8.28705995 24.31088,8.27603371 C22.9336029,6.81054663 24.0823362,3.71919085 23.7405229,1.70840626 L23.7405229,1.70840626 Z M2.75759471,58.2870332 C0.673636004,58.8283212 2.06995851,52.6145357 1.68303784,51.2111965 C2.3536335,47.7529678 -0.102210097,41.1412354 3.22470619,39.2286845 C11.4983932,54.6353442 15.3615855,51.4046569 2.75759471,58.2860309 L2.75759471,58.2870332 Z M23.4007143,50.4503862 C19.4924147,48.9598395 15.5951412,48.9097202 12.2181057,51.503893 C9.81338373,47.5093882 7.54799331,43.4477236 5.19840254,39.4211425 C11.1656013,37.1717902 10.9210193,29.7531378 17.2651149,27.8145249 C16.9002467,31.4010589 16.976428,38.3325522 22.2800478,35.6491672 C22.5978038,39.4441973 20.3725088,49.8248979 27.2839544,46.6774085 C27.2238113,47.6206529 27.4212811,48.6691478 28.0648124,49.3116767 C26.6093492,50.1496707 25.2180386,50.8683808 23.4007143,50.4513886 L23.4007143,50.4503862 Z M29.6495833,49.0420351 C27.0243366,47.9364043 30.7973143,31.6125622 27.2939782,34.8873545 C26.7035734,38.4608575 28.6301576,43.4477236 26.2494929,46.2774568 C20.4547044,48.7423219 26.5231441,21.5816941 22.2740334,25.8378214 C21.6355141,28.3277461 24.0642933,35.4647283 20.1409579,35.2301702 C17.2701268,33.2093617 19.305971,28.4169584 18.72559,25.3486575 C17.5267374,18.1685727 26.4960797,16.8754958 24.7489224,9.26739262 C29.2837127,9.15211832 33.7864268,9.23431391 38.31821,9.21125905 C36.9950616,14.6481961 42.6655544,17.7666162 42.328753,22.8737685 C42.1142426,29.6849756 42.7537643,36.6425309 42.0831686,43.3825686 C37.7348219,47.6096267 38.88556,36.8831033 38.7793072,34.7450158 C36.0357791,32.0095067 37.8039865,43.2191798 37.2957772,44.5904427 C37.1514337,45.5928278 36.3976401,46.6593656 35.2458996,46.3045212 C32.196644,44.2536412 34.3928698,39.1144126 33.7603648,35.9057778 C34.0490517,34.6187153 33.2140649,33.6203397 32.3028968,34.8863521 C31.5711556,37.5115988 34.4560201,51.3795972 29.6475785,49.0420351 L29.6495833,49.0420351 Z M40.8963446,49.6204113 C38.0666114,50.4373552 35.0614607,51.477831 32.4893404,49.5332038 C33.3022748,48.9267608 33.7984554,47.9173589 33.7754006,46.8548307 C35.447379,47.9103422 38.3202148,46.8227544 38.6179232,44.7949292 C47.1091277,47.3600328 42.8149098,33.0399587 43.7872234,28.4039274 C49.3574776,30.5109409 49.1740411,37.6910257 54.9999036,39.5003309 C52.648308,43.4757904 50.3849224,47.5665241 48.0383388,51.5650385 C45.8070294,50.2428925 43.6679395,48.9909134 40.897347,49.6194089 L40.8963446,49.6204113 Z M58.3699224,43.6762674 L58.3699224,57.8028812 C58.3278222,59.1581059 57.0217144,57.9301841 56.4934574,57.6214495 C43.8313283,51.4096688 50.3297912,52.3308607 56.4724073,39.2206654 C58.6586093,39.901285 58.5523565,41.7316402 58.3699224,43.6762674 Z" id="Shape" fill="#262626"></path>
        </g>
    </g>
</svg>