<?xml version="1.0" encoding="UTF-8"?>
<svg width="60px" height="60px" viewBox="0 0 60 60" version="1.1" xmlns="http://www.w3.org/2000/svg" xmlns:xlink="http://www.w3.org/1999/xlink">
    <title>role-skills-3</title>
    <g id="Page-1" stroke="none" stroke-width="1" fill="none" fill-rule="evenodd">
        <g id="role-skills-3" transform="translate(0.000000, 0.000000)" fill-rule="nonzero">
            <path d="M5.8536302,12.2598234 C6.00852826,12.4687921 5.97865073,12.7613716 5.78471157,12.9347179 L4.31824253,14.3136215 L8.09764626,12.1295187 C8.32189679,12.0028934 8.60555805,12.0659987 8.75497537,12.2757526 C8.90439269,12.4855066 8.87134601,12.7742173 8.67839618,12.9447829 L5.13149372,16.0156113 L11.8679915,12.1295187 C12.0983614,11.9964703 12.39249,12.065703 12.5393263,12.2875391 C12.6859681,12.5092907 12.6348317,12.806852 12.4225724,12.9669259 L7.76952759,16.4574644 L15.2820361,12.1295187 C15.5138744,11.9959442 15.8097016,12.0671373 15.9553839,12.2915651 C16.1014121,12.5169692 16.0447084,12.8173218 15.826552,12.9739714 L9.35476351,17.6209772 L18.8631595,12.1295187 C19.0958544,12.0006726 19.388634,12.0751547 19.5314695,12.2995344 C19.674305,12.523914 19.6178675,12.8207007 19.402643,12.9769909 L10.8413625,18.9394909 L22.6395437,12.1295187 C22.8743892,12.0017272 23.168167,12.0798803 23.3084706,12.307472 C23.4487742,12.5350637 23.3866212,12.8326378 23.1669492,12.9850429 L15.4521344,18.0638368 L25.7315087,12.1254927 C25.9663542,11.9977012 26.2601319,12.0758543 26.4004355,12.303446 C26.5407391,12.5310377 26.4785861,12.8286118 26.2589141,12.9810169 L16.0741508,19.6541052 L29.1113323,12.1295187 C29.3473371,12.00162 29.6421828,12.0814684 29.7813955,12.3109813 C29.9206083,12.5404942 29.8551778,12.8388708 29.6326988,12.9890689 L20.8097286,18.6013073 L32.0231339,12.1295187 C32.2602738,11.9989107 32.5582462,12.0793146 32.6974949,12.3114861 C32.8367436,12.5436576 32.7673627,12.8443877 32.5404744,12.9920884 L28.1118788,15.7398306 L34.365257,12.1295187 C34.6025068,12.0008709 34.8990004,12.0822753 35.0372984,12.3140325 C35.1755964,12.5457897 35.1064568,12.8453808 34.8805845,12.9930949 L31.5972733,15.0142152 L36.5956588,12.1295187 C36.8327988,11.9989107 37.1307711,12.0793146 37.2700199,12.3114861 C37.4092686,12.5436576 37.3398877,12.8443877 37.1129993,12.9920884 L27.8632735,18.7331586 L39.3041476,12.1295187 C39.5398221,12.0049997 39.8317104,12.0858379 39.9697499,12.3138566 C40.1077894,12.5418754 40.0440959,12.837978 39.8245076,12.9890689 L21.6068758,24.5366318 L43.1016683,12.1295187 C43.3387114,11.9967012 43.6383836,12.0760345 43.7786601,12.3087412 C43.9189366,12.541448 43.8491576,12.8434879 43.6210218,12.9910819 L23.9973109,25.3146556 L46.8377926,12.1295187 C47.0755352,11.9955829 47.3767053,12.0755192 47.5167365,12.3097234 C47.6567677,12.5439276 47.5846362,12.8470617 47.3541266,12.9930949 L30.8812733,23.1432152 L49.962972,12.1295187 C50.2006804,11.9924519 50.5043758,12.0710732 50.6457123,12.3062681 C50.7870487,12.5414629 50.7139235,12.8465284 50.481319,12.9920884 L26.6635267,27.8218446 L53.8500711,12.1295187 C54.0869362,12.0046866 54.3800733,12.0871753 54.5170778,12.3172142 C54.6540823,12.5472532 54.5869798,12.8442901 54.3643921,12.9930949 L32.2032972,26.6140458 L57.2429792,12.1577007 C57.4815381,12.024811 57.7825475,12.106421 57.9213123,12.341611 C58.0600772,12.576801 57.9859571,12.8797416 57.7542807,13.0242963 L46.8882733,19.5752152 L58.460843,12.892445 C58.7001468,12.7506971 59.0090502,12.8297818 59.150798,13.0690855 C59.2925459,13.3083893 59.2134612,13.6172927 58.9741575,13.7590406 L39.1119063,25.8370285 L58.8835726,14.4172909 C59.120941,14.2904264 59.4161122,14.3727814 59.5535143,14.6042096 C59.6909164,14.8356379 59.6219077,15.1342114 59.3968871,15.2818736 L36.6412733,29.1682152 L58.8805531,16.3286325 C59.1179215,16.201768 59.4130927,16.2841229 59.5504948,16.5155512 C59.6878969,16.7469795 59.6188882,17.045553 59.3938676,17.1932152 L36.7103997,31.0255309 L58.8835726,18.2248766 C59.1213927,18.0933917 59.4206446,18.1744594 59.5595769,18.4080071 C59.6985092,18.6415547 59.6269356,18.9432183 59.3978935,19.0894593 L33.6162733,34.8982152 L58.8835726,20.3083296 C59.1204377,20.1834975 59.4135747,20.2659861 59.5505793,20.4960251 C59.6875838,20.726064 59.6204813,21.0231009 59.3978935,21.1719057 L34.1347688,36.6880942 L58.8835726,22.3958085 C59.1214913,22.2664232 59.4191376,22.3485264 59.5570782,22.5815891 C59.6950188,22.8146518 59.6237798,23.1150836 59.3958806,23.2613976 L45.1106403,31.9283605 L58.8835726,23.9770184 C59.1214913,23.8476332 59.4191376,23.9297363 59.5570782,24.162799 C59.6950188,24.3958617 59.6237798,24.6962935 59.3958806,24.8426075 L46.0164894,32.9751194 L58.8835726,25.5461503 C59.120941,25.4192858 59.4161122,25.5016407 59.5535143,25.733069 C59.6909164,25.9644973 59.6219077,26.2630708 59.3968871,26.410733 L46.3023351,34.396296 L58.8835726,27.1333992 C59.1208223,27.0047514 59.4173159,27.0861558 59.5556139,27.317913 C59.6939119,27.5496702 59.6247724,27.8492613 59.3989,27.9969754 L42.419262,38.4877144 L58.8835726,28.9833444 C59.1214913,28.8539592 59.4191376,28.9360623 59.5570782,29.169125 C59.6950188,29.4021877 59.6237798,29.7026195 59.3958806,29.8489335 L55.401086,32.2725831 L58.8835726,30.2595851 C59.1207125,30.1289771 59.4186849,30.209381 59.5579336,30.4415525 C59.6971823,30.673724 59.6278014,30.9744541 59.400913,31.1221548 L43.5878073,41.0160399 L58.8865921,32.1850177 C59.1229826,32.0528832 59.4215503,32.1315118 59.5621956,32.3629398 C59.702841,32.5943678 59.6355949,32.8955978 59.408965,33.0445678 L41.5677638,44.4703444 L58.8835726,34.4737964 C59.1191165,34.3476969 59.4121435,34.4276385 59.5510174,34.6558841 C59.6898913,34.8841297 59.6262007,35.1811128 59.4059455,35.3323401 L43.7045612,45.3862585 L58.8825661,36.6236783 C59.1199345,36.4968138 59.4151057,36.5791687 59.5525078,36.810597 C59.6899099,37.0420253 59.6209012,37.3405987 59.3958806,37.4882609 L58.912761,37.7841716 C59.1520522,37.6688933 59.4397347,37.7594298 59.5698778,37.9909727 C59.7000209,38.2225156 59.6278115,38.5153363 59.404939,38.6598257 L45.9913269,47.2351972 L58.8835726,39.7931436 C59.1192386,39.6591665 59.4186799,39.735936 59.5608165,39.9667725 C59.7029532,40.197609 59.6367026,40.4995518 59.410978,40.6496742 L49.5792733,47.0922152 L58.8835726,41.7205892 C59.1191506,41.5840004 59.4206412,41.6595745 59.5639361,41.8911346 C59.7072309,42.1226947 59.6403424,42.4262305 59.412991,42.5761133 L52.2366532,47.3418861 L58.8795466,43.5041054 C59.1140279,43.3704734 59.4121777,43.4455992 59.5553389,43.6743871 C59.6985001,43.9031749 59.6356983,44.2041618 59.412991,44.35661 L53.446465,48.402736 L58.8815596,45.2654786 C59.1177878,45.1240121 59.4238481,45.1986588 59.5684184,45.4330004 C59.7129887,45.667342 59.6423857,45.9743604 59.4099715,46.1220093 L58.3853556,46.7963636 L58.8815596,46.5105179 C59.1141221,46.379866 59.4082282,46.4533732 59.551975,46.6780778 C59.6957218,46.9027823 59.639166,47.2006131 59.423056,47.3569836 L55.9144005,49.8359906 L58.8835726,48.1249423 C59.1153565,47.9897264 59.4124626,48.0601577 59.5588849,48.2850301 C59.7053072,48.5099025 59.6495341,48.8101057 59.4321145,48.9673819 L57.1523943,50.6230728 L58.8815596,49.6256323 C59.1121828,49.498933 59.4014785,49.5712886 59.545301,49.7916404 C59.6891234,50.0119922 59.638913,50.3059416 59.4301015,50.4660589 L59.0103914,50.7790801 C59.2274917,50.7236386 59.4550964,50.8184089 59.568693,51.0115465 C59.6822896,51.204684 59.6545121,51.449661 59.5005564,51.6124613 L57.5942473,53.6254593 L58.8835726,52.8816565 C59.0925811,52.7625168 59.3566824,52.807971 59.5138347,52.9901303 C59.670987,53.1722897 59.6772321,53.4402012 59.5287384,53.6294853 L58.9741575,54.3340346 C59.1712433,54.3858104 59.3176543,54.5513271 59.34499,54.7532586 C59.3723257,54.9551902 59.2751902,55.1536761 59.0989633,55.2559877 L57.4332075,56.2182007 C57.224199,56.3373405 56.9600977,56.2918863 56.8029454,56.1097269 C56.6457931,55.9275676 56.6395479,55.6596561 56.7880417,55.470372 L57.0990498,55.0768308 L55.1132273,56.2232332 C54.8969413,56.3483804 54.6215863,56.2958707 54.466535,56.0999101 C54.3114837,55.9039495 54.3237047,55.6238989 54.4952369,55.44219 L56.401546,53.429192 L51.5472014,56.2242397 C51.3160195,56.3547118 51.0232487,56.2831795 50.878278,56.0608025 C50.7333074,55.8384255 50.7859953,55.5416838 50.9986594,55.3828065 L51.2784662,55.1815067 L49.4597225,56.2312852 C49.2279386,56.366501 48.9308325,56.2960698 48.7844102,56.0711974 C48.6379879,55.846325 48.6937609,55.5461218 48.9111805,55.3888455 L51.1888877,53.7301352 L46.8488641,56.2353112 C46.6163015,56.3659631 46.3221954,56.2924559 46.1784486,56.0677513 C46.0347019,55.8430468 46.0912576,55.545216 46.3073676,55.3888455 L49.8190426,52.908832 L44.0507969,56.2393372 C43.8145687,56.3808037 43.5085083,56.306157 43.363938,56.0718154 C43.2193677,55.8374738 43.2899707,55.5304554 43.5223849,55.3828065 L44.5480074,54.7084522 L41.89085,56.2423567 C41.6563687,56.3759887 41.3582189,56.3008629 41.2150577,56.072075 C41.0718965,55.8432872 41.1346983,55.5423003 41.3574056,55.389852 L47.3239316,51.3447326 L38.8341126,56.2423567 C38.5978661,56.3888295 38.2876108,56.3160535 38.141138,56.0798071 C37.9946652,55.8435606 38.0674412,55.5333054 38.3036876,55.3868325 L45.4712733,50.6222152 L35.7320827,56.2463827 C35.6645393,56.2860462 35.5886918,56.3091277 35.5107563,56.313909 L35.4794514,56.3329416 C35.493336,56.4657487 35.4538701,56.5986294 35.369743,56.7023267 L34.8413311,57.3555446 C35.0317694,57.415426 35.1688081,57.5822126 35.1906144,57.7806491 C35.2124206,57.9790855 35.1148711,58.1716511 34.941981,58.2714587 L33.2762251,59.2336717 C33.0663659,59.3534983 32.8009614,59.3072395 32.6440159,59.1234803 C32.4870703,58.9397212 32.4828987,58.6703479 32.6340788,58.4818169 L32.8796645,58.1798672 L31.0468299,59.2336717 C30.8119844,59.3614632 30.5182066,59.2833101 30.377903,59.0557184 C30.2375994,58.8281267 30.2997524,58.5305527 30.5194244,58.3781476 L43.9732964,49.5602099 L27.2181077,59.2336717 C27.1418992,59.278902 27.0550982,59.3032063 26.9664829,59.3041267 C26.7429754,59.3041267 26.5461718,59.1569323 26.4832946,58.9424514 C26.4204175,58.7279704 26.5065348,58.4977183 26.6947282,58.3771411 L40.0962623,49.8098216 L25.4939749,58.2402572 C25.2561548,58.3717421 24.9569029,58.2906744 24.8179706,58.0571267 C24.6790383,57.8235791 24.7506119,57.5219155 24.9796539,57.3756746 L25.4426434,57.0918418 L25.2252397,57.2166477 C24.9896958,57.3427472 24.6966688,57.2628056 24.5577949,57.03456 C24.4189209,56.8063145 24.4826115,56.5093313 24.7028667,56.3581041 L40.404251,46.3041856 L23.2333782,56.2141747 C22.997494,56.3439047 22.7012881,56.2650257 22.5611621,56.0351651 C22.421036,55.8053045 22.4866195,55.5058741 22.7099987,55.3556311 L40.5451609,43.928848 L19.2637461,56.2141747 C19.0274861,56.3387838 18.7350336,56.2571067 18.5975294,56.0281114 C18.4600253,55.7991162 18.5253782,55.5025886 18.7464056,55.3526116 L34.5715893,45.4587264 L15.9412929,56.2141747 C15.702764,56.3500995 15.3993094,56.2697687 15.2592735,56.0336298 C15.1192377,55.7974909 15.1943005,55.4926905 15.4279784,55.3485856 L19.42076,52.926949 L13.7249821,56.2141747 C13.4872395,56.3481106 13.1860694,56.2681743 13.0460382,56.03397 C12.906007,55.7997658 12.9781385,55.4966317 13.2086482,55.3505986 L30.1902992,44.8598595 L10.5202893,56.2141747 C10.2824692,56.3456596 9.98321735,56.2645919 9.84428505,56.0310443 C9.70535275,55.7974966 9.77692631,55.4958331 10.0059684,55.3495921 L23.0975008,47.366042 L7.77053409,56.2141747 C7.53261538,56.3435599 7.23496906,56.2614568 7.09702844,56.0283941 C6.95908783,55.7953314 7.03032686,55.4948996 7.2582261,55.3485856 L20.6335912,47.2200997 L5.0539933,56.2141747 C4.81607459,56.3435599 4.51842827,56.2614568 4.38048765,56.0283941 C4.24254704,55.7953314 4.31378607,55.4948996 4.54168531,55.3485856 L18.8218931,46.6926942 L2.47735587,56.1276158 C2.24010609,56.2562637 1.94361249,56.1748592 1.80531449,55.943102 C1.66701649,55.7113448 1.73615608,55.4117537 1.96202839,55.2640397 L27.2171012,39.7559031 L1.15682919,54.8050761 C0.919579404,54.933724 0.623085805,54.8523195 0.484787805,54.6205624 C0.346489805,54.3888052 0.415629399,54.089214 0.641501704,53.9415 L26.4431034,38.1163163 L1.07027028,52.7649027 C0.831741324,52.9008275 0.528286727,52.8204966 0.388250877,52.5843577 C0.248215028,52.3482189 0.323277821,52.0434184 0.556955789,51.8993135 L23.2434431,38.0609588 L1.07027028,50.8626196 C0.832901809,50.9894841 0.537730685,50.9071291 0.400328561,50.6757009 C0.262926437,50.4442726 0.331935179,50.1456991 0.556955789,49.9980369 L23.2977941,36.1244548 L1.07027028,48.957317 C0.833273249,49.0806331 0.541221605,48.9972692 0.405030146,48.7674294 C0.268838686,48.5375896 0.335978477,48.2413871 0.557962288,48.0927343 L20.4262525,36.0147464 L1.07027028,47.1888982 C0.830688562,47.3300902 0.522010472,47.2503296 0.380818464,47.0107479 C0.239626457,46.7711662 0.319387073,46.4624881 0.558968787,46.3212961 L11.4182733,39.7742152 L1.07027028,45.7465852 C0.833405126,45.8714173 0.540268109,45.7889286 0.403263573,45.5588896 C0.266259036,45.3288507 0.333361564,45.0318138 0.55594929,44.883009 L22.7301287,31.2529996 L1.07027028,43.7597561 C0.833130338,43.8903642 0.535157939,43.8099603 0.395909223,43.5777888 C0.256660507,43.3456173 0.326041435,43.0448872 0.552929793,42.8971865 L24.3616635,28.0704498 L1.07027028,41.5192894 C0.831522375,41.6615931 0.522618995,41.5834097 0.380315246,41.3446618 C0.238011498,41.1059139 0.316194911,40.7970105 0.554942791,40.6547067 L17.0462733,30.4892152 L1.07027028,39.7075912 C0.832561894,39.844658 0.528866416,39.7660367 0.387529969,39.5308419 C0.246193521,39.295647 0.319318703,38.9905815 0.551923294,38.8450216 L20.1706017,26.5274868 L1.07027028,37.5546898 C0.834595804,37.6792089 0.542707435,37.5983707 0.40466797,37.3703519 C0.266628505,37.1423332 0.330322012,36.8462305 0.549910296,36.6951397 L18.7675421,25.1465702 L1.07027028,35.362535 C0.832527677,35.4964709 0.531357567,35.4165346 0.391326369,35.1823304 C0.251295172,34.9481261 0.32342668,34.644992 0.553936292,34.4989589 L9.81372705,28.7508431 L1.07027028,33.7984356 C0.833405126,33.9232677 0.540268109,33.840779 0.403263573,33.6107401 C0.266259036,33.3807011 0.333361564,33.0836642 0.55594929,32.9348595 L3.85324,30.904751 L1.07027028,32.5111234 C0.832527677,32.6450592 0.531357567,32.5651229 0.391326369,32.3309187 C0.251295172,32.0967145 0.32342668,31.7935804 0.553936292,31.6475472 L4.96542139,28.90987 L1.07027028,31.1593952 C0.833302231,31.2948196 0.531577062,31.2166672 0.39015059,30.9832316 C0.248724118,30.749796 0.31915266,30.4461751 0.548903797,30.2988386 L9.37589998,24.6825742 L1.07027028,29.4775354 C0.83497757,29.6071177 0.539391833,29.5290661 0.398746249,29.3002145 C0.258100666,29.0713629 0.321980577,28.7723941 0.543871302,28.6210048 L10.7296411,21.9499294 L1.07027028,27.5289533 C0.835096105,27.6604937 0.538041016,27.5834518 0.396440656,27.3541941 C0.254840296,27.1249364 0.318947083,26.8248239 0.541858304,26.6734292 L8.2556666,21.5906093 L1.07027028,25.7414111 C0.836903077,25.8753376 0.539471924,25.8020067 0.395104094,25.5749506 C0.250736264,25.3478945 0.310508612,25.0474448 0.530786815,24.8929325 L9.09106077,18.9304324 L1.07027028,23.5603278 C0.837968076,23.6950154 0.540840565,23.6235927 0.395131885,23.39804 C0.249423204,23.1724873 0.306467006,22.8722674 0.524747821,22.7158752 L7.00156886,18.0678628 L1.07027028,21.4899594 C0.840064387,21.6218539 0.547003823,21.5523751 0.400510298,21.3311725 C0.254016772,21.1099699 0.304414576,20.8130324 0.51568933,20.6525522 L5.16772769,17.1620137 L1.07027028,19.5222538 C0.846019751,19.6488791 0.562358489,19.5857739 0.412941166,19.37602 C0.263523843,19.166266 0.296570531,18.8775552 0.489520356,18.7069897 L4.03642282,15.6341482 L1.07027028,17.3451965 C0.849019377,17.4727057 0.56734217,17.4142933 0.41503943,17.2093191 C0.262739966,17.0045439 0.287828497,16.7181886 0.473416372,16.5430168 L1.94089191,15.1631067 L1.07027028,15.6663562 C0.864308617,15.7844931 0.60379574,15.7426012 0.445253781,15.56585 C0.286711822,15.3890988 0.273279154,15.1255813 0.413026432,14.9336249 L1.07530277,14.0277758 C0.854272861,14.0137199 0.668413412,13.8568141 0.617480166,13.6412738 C0.56654692,13.4257336 0.662513873,13.2022308 0.853872992,13.0907253 L2.52164183,12.1295187 C2.72760349,12.0113818 2.98811636,12.0532737 3.14665832,12.2300249 C3.30520028,12.4067762 3.31863295,12.6702936 3.17888567,12.86225 L2.63940221,13.5990073 L5.18785767,12.1295187 C5.41010717,11.9943652 5.69873214,12.0508547 5.8536302,12.2598234 Z" id="Combined-Shape" fill="#C384F8"></path>
            <path d="M54.9884215,46.0686674 C54.7613511,46.0678743 54.5629372,45.9151194 54.5041072,45.695801 C54.4452771,45.4764825 54.5406054,45.2449341 54.7367967,45.1306078 L54.8575766,45.0601528 C55.0980594,44.9234248 55.4038139,45.0064352 55.5421341,45.2460058 C55.6804542,45.4855763 55.5994738,45.7918747 55.3608261,45.931781 L55.2400462,46.0012294 C55.1636551,46.0456713 55.076799,46.0689487 54.9884215,46.0686674 Z" id="Path" fill="#B7B7B7"></path>
            <path d="M5.18866291,45.0246945 C5.34616672,45.1220566 5.43748112,45.2980473 5.42639793,45.4828824 L5.40526145,45.8321376 C5.56923388,45.7849961 5.74591606,45.8227487 5.87630298,45.9327875 C6.03889526,46.0744669 6.09314023,46.303996 6.01117384,46.5034724 L5.87328348,46.8386366 L6.72679463,46.3504846 C6.92919934,46.2338956 7.18522196,46.2719044 7.34502633,46.4422664 C7.50483069,46.6126284 7.52640499,46.8705563 7.39712296,47.0650988 L6.47315688,48.4540675 L10.1197027,46.3504846 C10.3419523,46.215331 10.6305772,46.2718205 10.7854753,46.4807892 C10.9403733,46.689758 10.9104958,46.9823375 10.7165566,47.1556838 L9.04174232,48.7328677 L13.1683882,46.3504846 C13.3931818,46.2230159 13.6779845,46.2865238 13.8273264,46.4974205 C13.9766682,46.7083172 13.9420041,46.9980484 13.7471251,47.1677617 L12.0612393,48.6151073 L15.9865854,46.3504846 C16.2036927,46.2266203 16.4788083,46.2808769 16.6326333,46.4778942 C16.7864583,46.6749114 16.7723672,46.9549718 16.5995433,47.1355538 L14.2845956,49.5199499 L19.7810866,46.3504846 C20.0012516,46.2199325 20.2843382,46.2754372 20.4389027,46.4794624 C20.5934673,46.6834876 20.5702646,46.9710296 20.384986,47.1476318 L18.1807532,49.2783901 L23.2535081,46.3504846 C23.4723688,46.2274055 23.748467,46.2844867 23.90058,46.4842618 C24.052693,46.6840369 24.0342718,46.9653714 23.8574075,47.1436058 L21.6098953,49.3579036 L26.3404405,46.6252588 C26.5573222,46.5014571 26.8321848,46.5554285 26.9861492,46.7520486 C27.1401136,46.9486687 27.1266008,47.2284539 26.9544049,47.4093215 L24.9061795,49.5390734 L28.0998008,47.6961737 C28.3172151,47.5706999 28.5938485,47.6246322 28.7482074,47.8225868 C28.9025663,48.0205413 28.8874426,48.3019769 28.7127587,48.4822494 L27.7062597,49.5249824 L28.9825004,48.7882251 C29.1879013,48.6695134 29.4483142,48.7103733 29.6074869,48.8862882 C29.7666596,49.0622032 29.7813584,49.325392 29.6427638,49.5179369 L29.1908457,50.1449858 L29.4927954,49.9708614 C29.6641713,49.8713805 29.8779733,49.8817286 30.0389408,49.9972951 C30.1154912,50.0522543 30.173315,50.126144 30.2086665,50.2094148 L31.38602,48.947252 C31.1750447,48.98782 30.9615811,48.8899825 30.8545885,48.7036792 C30.7163109,48.4632096 30.7986928,48.156191 31.0387779,48.0172469 L33.7392147,46.4571735 C33.9547625,46.3336016 34.228235,46.3858274 34.3830767,46.5801336 C34.5379184,46.7744399 34.5277847,47.0526701 34.359218,47.2351972 L32.7246637,48.9875119 L37.2971886,46.3504846 C37.526725,46.2206043 37.8175959,46.2899615 37.9638284,46.5094424 C38.1100609,46.7289233 38.0620452,47.0240687 37.8537826,47.1858787 L37.5790083,47.3952305 L39.3907065,46.3504846 C39.6186856,46.220477 39.9082972,46.2874923 40.055994,46.5044302 C40.2036909,46.7213681 40.1598798,47.0153861 39.9553525,47.1798397 L38.9770354,47.956857 L41.7610117,46.3464586 C41.9764833,46.2243133 42.2487972,46.2771137 42.403004,46.4709378 C42.5572107,46.6647619 42.5474567,46.9419759 42.3800085,47.1244823 L40.0207749,49.6548208 L45.7578192,46.3464586 C45.981389,46.2190413 46.2650656,46.2808105 46.4154178,46.4896473 C46.56577,46.6984842 46.5343555,46.9871033 46.3425951,47.1587033 L44.45239,48.8284851 L48.7481277,46.3504846 C48.9770509,46.2179179 49.26953,46.2852182 49.4174902,46.5045069 C49.5654504,46.7237955 49.5183749,47.0202028 49.3097541,47.1828592 L48.6464713,47.6991932 L50.9835619,46.3504846 C51.2071318,46.2230673 51.4908084,46.2848365 51.6411606,46.4936733 C51.7915128,46.7025102 51.7600983,46.9911293 51.5683379,47.1627292 L49.6881977,48.8244591 L54.8575766,45.8401896 C55.0879465,45.7071411 55.3820751,45.7763738 55.5289114,45.9982099 C55.6753358,46.2202138 55.6237501,46.5178236 55.411151,46.6775967 L54.7770567,47.1536708 L54.8575766,47.1083783 C55.0663896,46.9890999 55.3304129,47.0342225 55.4877607,47.2160793 C55.6451085,47.3979362 55.651807,47.6657037 55.5037489,47.8552006 L53.8027656,50.0141409 L54.8515376,49.4102415 C55.0905058,49.2852335 55.3855388,49.3708251 55.5205037,49.6043145 C55.6554687,49.8378039 55.582383,50.1361809 55.3547871,50.2808631 L52.0333404,52.1932112 C51.8245485,52.3140274 51.5593932,52.2696941 51.401259,52.0875288 C51.2430726,51.9051101 51.2367369,51.6360513 51.3861615,51.446389 L53.0881513,49.2874486 L48.0486109,52.1982437 C47.8186024,52.3273269 47.5279538,52.2569273 47.3825047,52.0369024 C47.2370556,51.8168776 47.2861576,51.5218832 47.4950364,51.3608366 L48.1271178,50.8847625 L45.8484041,52.2012632 C45.6243407,52.3332609 45.3366101,52.2728043 45.1846185,52.0617918 C45.0326268,51.8507793 45.0664388,51.5587165 45.2626217,51.388012 L47.1457813,49.7252757 L42.8490371,52.2052892 C42.6201139,52.3378559 42.3276348,52.2705556 42.1796746,52.0512669 C42.0317144,51.8319782 42.0787898,51.535571 42.2874106,51.3729145 L42.9517,50.8565806 L40.6085703,52.2083087 C40.3846194,52.3381436 40.0987027,52.2769039 39.9475769,52.0667323 C39.7964511,51.8565608 39.8294194,51.5660238 40.0237944,51.3950575 L41.9139995,49.7252757 L37.6061838,52.2123347 C37.390416,52.3359283 37.1167262,52.2834077 36.9620354,52.0887236 C36.8073446,51.8940396 36.8180311,51.615561 36.9871869,51.4333045 L39.3464206,48.9039725 L33.6003178,52.2183737 C33.371862,52.3518935 33.0790284,52.2856848 32.9302344,52.06687 C32.7814403,51.8480552 32.8275176,51.551387 33.0356719,51.388012 L34.0139889,50.6120013 L31.2249802,52.2223997 C31.1497272,52.2659363 31.0643207,52.2888286 30.9773814,52.2888286 C30.7607675,52.2888286 30.5684564,52.1502186 30.499957,51.9447206 C30.4314577,51.7392226 30.5021406,51.5129479 30.6754317,51.3829795 L30.9522189,51.1716147 L30.4532795,51.4585108 L30.452282,51.5254917 C30.4366153,51.6874211 30.3430413,51.833915 30.1983512,51.9154175 L29.7263032,52.1871722 C29.5549798,52.286024 29.3416371,52.2753498 29.1810364,52.1598909 C29.0204356,52.044432 28.942362,51.8456015 28.9814939,51.6517148 L29.0328254,51.40009 L27.6690192,52.1871722 C27.463858,52.3049757 27.2043427,52.2639734 27.0454931,52.0886576 C26.8866435,51.9133419 26.8713532,51.6510528 27.0087559,51.458467 L27.4606739,50.8304116 L25.1074793,52.1881787 C24.890372,52.312043 24.6152564,52.2577864 24.4614314,52.0607691 C24.3076063,51.8637518 24.3216975,51.5836915 24.4945214,51.4031095 L25.5010204,50.3613831 L22.3345745,52.1881787 C22.1176929,52.3119804 21.8428303,52.258009 21.6888659,52.0613889 C21.5349015,51.8647688 21.5484143,51.5849836 21.7206102,51.404116 L23.7688356,49.2743641 L18.7202367,52.1932112 C18.501376,52.3162903 18.2252778,52.259209 18.0731648,52.059434 C17.9210518,51.8596589 17.939473,51.5783244 18.1163373,51.40009 L20.3638495,49.1857922 L15.1431392,52.1881787 C14.9229742,52.3187308 14.6398876,52.2632261 14.4853231,52.0592009 C14.3307585,51.8551757 14.3539612,51.5676337 14.5392398,51.3910315 L16.7434726,49.2602732 L11.6717242,52.1881787 C11.4546169,52.312043 11.1795013,52.2577864 11.0256763,52.0607691 C10.8718512,51.8637518 10.8859424,51.5836915 11.0587663,51.4031095 L13.373714,49.0187134 L7.87822948,52.1881787 C7.80215564,52.2337229 7.71526793,52.2580515 7.62660473,52.2586337 C7.41589438,52.2586337 7.22748266,52.1273941 7.15448285,51.9297331 C7.08148304,51.732072 7.13935269,51.5098601 7.29949256,51.3729145 L8.98739137,49.9245625 L5.83704952,51.7433062 C5.61471863,51.8808272 5.32411445,51.8252139 5.16826873,51.6153206 C5.01242301,51.4054274 5.04323992,51.1111589 5.23918911,50.938107 L6.91400344,49.3538776 L5.11639624,50.397617 C4.91399153,50.514206 4.65796891,50.4761972 4.49816454,50.3058352 C4.33836017,50.1354732 4.31678587,49.8775453 4.44606791,49.6830027 L5.37104048,48.2930276 L5.10129875,48.449035 C4.91499085,48.556669 4.68086472,48.5339508 4.51872589,48.3925058 C4.35658705,48.2510607 4.30230837,48.022183 4.38366497,47.8229926 L4.6483742,47.1778267 C4.62723773,47.1687682 4.60610125,47.1566903 4.58597127,47.1456188 C4.42823485,47.0485011 4.33660206,46.8725816 4.347431,46.6876617 L4.40882744,45.6378833 C4.31563871,45.4246748 4.39754519,45.1754884 4.59905575,45.0591463 L4.67253018,45.0168734 C4.8329117,44.9243282 5.03115909,44.9273323 5.18866291,45.0246945 Z" id="Combined-Shape" fill="#D4E8FA"></path>
            <path d="M13.5680089,6.24454705 C13.7159691,6.46383573 13.6688937,6.76024299 13.4602729,6.92289942 L10.8727558,8.93771914 L15.8104481,6.09052475 C16.0398417,5.95885044 16.3320181,6.02722424 16.4791636,6.24701451 C16.626309,6.46680478 16.5782002,6.76299318 16.369055,6.92491242 L11.1352602,10.9609734 L19.5687153,6.09052475 C19.8034349,5.96094596 20.0985302,6.03813815 20.2397353,6.26605278 C20.3809403,6.49396741 20.3186681,6.79256755 20.0981338,6.9450424 L19.1389402,7.57813026 L21.7175907,6.09052475 C21.9524362,5.96273323 22.2462139,6.04088636 22.3865175,6.26847807 C22.5268211,6.49606977 22.4646681,6.79364378 22.2449961,6.94604889 L19.8022231,8.5483953 L24.0637398,6.09052475 C24.2987143,5.9644053 24.5912751,6.04348429 24.7307142,6.27080747 C24.8701533,6.49813065 24.80805,6.79475921 24.5891323,6.94705539 L21.0120349,9.27307457 L26.1451797,6.30994153 C26.3821213,6.17108662 26.6866337,6.24783254 26.8294619,6.48240039 C26.9722901,6.71696825 26.9006868,7.02273074 26.6685592,7.16949167 L23.8855895,8.9469689 L27.4254465,6.90377594 C27.6604097,6.76759755 27.9610393,6.84240748 28.1047777,7.07282355 C28.248516,7.30323961 28.1835102,7.60614052 27.9578844,7.75728708 L17.3584435,14.8822935 L28.8154216,8.26858857 C29.0519195,8.1385342 29.348905,8.2182012 29.4885605,8.44915954 C29.628216,8.68011789 29.5608107,8.98012412 29.3357816,9.12914522 L26.353525,11.0133113 L29.3518855,9.28213306 C29.5876557,9.15039917 29.8853737,9.2282581 30.0264675,9.4585491 C30.1675613,9.6888401 30.1017185,9.98944407 29.877278,10.1396702 L20.8459625,16.0216503 L29.6850367,10.9217199 C29.9227451,10.7846531 30.2264406,10.8632744 30.367777,11.0984693 C30.5091135,11.3336641 30.4359883,11.6387296 30.2033837,11.7842896 L29.4716589,12.2412401 L40.1254508,6.09052475 C40.3624939,5.95770718 40.6621661,6.03704049 40.8024426,6.26974724 C40.9427191,6.50245399 40.8729401,6.8044939 40.6448043,6.95208789 L28.428926,14.6105387 L43.1922532,6.09052475 C43.4283837,5.96432435 43.7219859,6.04510296 43.8603274,6.27433161 C43.9986689,6.50356027 43.9333098,6.80097518 43.7116067,6.95108139 L27.2784976,17.2978911 L46.6958762,6.09052475 C46.9330162,5.95991671 47.2309886,6.04032059 47.3702373,6.27249209 C47.509486,6.50466359 47.4401051,6.80539374 47.2132167,6.95309439 L31.7654701,16.5450298 L49.8754066,6.09052475 C50.1121438,5.96408029 50.4064507,6.04566567 50.5442987,6.27594961 C50.6821466,6.50623356 50.6150223,6.80417157 50.3917405,6.95309439 L31.8288796,18.4754949 L53.2270482,6.12172622 C53.464298,5.99307835 53.7607916,6.07448279 53.8990896,6.30623998 C54.0373876,6.53799718 53.968248,6.83758832 53.7423757,6.98530236 L34.8433441,18.6355282 L54.6522508,7.19767364 C54.8899934,7.06373779 55.1911635,7.14367409 55.3311947,7.37787831 C55.4712259,7.61208254 55.3990944,7.91521665 55.1685848,8.06124978 L31.4866699,22.7812976 L54.8575766,9.28615906 C55.0968804,9.14468913 55.4055584,9.22399913 55.5470284,9.4633029 C55.6884983,9.70260666 55.6091883,10.0112847 55.3698846,10.1527547 L43.2969291,17.4901324 L54.8575766,10.82107 C55.0947165,10.690462 55.3926889,10.7708659 55.5319376,11.0030374 C55.6711864,11.2352089 55.6018054,11.535939 55.3749171,11.6836397 L30.4897558,27.1847191 L54.8575766,13.1179007 C55.0961355,12.9850111 55.3971449,13.066621 55.5359097,13.301811 C55.6746745,13.5370011 55.6005545,13.8399417 55.3688781,13.9844964 L51.0298609,16.6013938 L54.8545571,14.387096 C55.0914222,14.2622639 55.3845593,14.3447526 55.5215638,14.5747915 C55.6585683,14.8048304 55.5914658,15.1018673 55.3688781,15.2506721 L35.5750688,27.4444074 L54.8575766,16.3125285 C55.0950703,16.1873127 55.3890378,16.2705797 55.5255859,16.5017439 C55.662134,16.732908 55.5931724,17.0305564 55.3688781,17.1781177 L51.7337558,19.3707191 L54.8575766,17.5646133 C55.0944417,17.4397812 55.3875787,17.5222699 55.5245833,17.7523088 C55.6615878,17.9823477 55.5944853,18.2793847 55.3718976,18.4281894 L39.7510332,28.0322028 L54.8575766,19.312902 C55.0948264,19.1842542 55.39132,19.2656586 55.529618,19.4974158 C55.667916,19.729173 55.5987764,20.0287642 55.3729041,20.1764782 L39.8184686,29.8016281 L54.8575766,21.1195677 C55.095285,20.9825009 55.3989804,21.0611223 55.5403169,21.2963171 C55.6816533,21.5315119 55.6085282,21.8365774 55.3759236,21.9821374 L38.6328128,32.4799219 L54.8575766,23.1134423 C55.0944417,22.9886102 55.3875787,23.0710988 55.5245833,23.3011378 C55.6615878,23.5311767 55.5944853,23.8282136 55.3718976,23.9770184 L49.386248,27.6517462 L54.8575766,24.4943589 C55.0944417,24.3695268 55.3875787,24.4520155 55.5245833,24.6820544 C55.6615878,24.9120933 55.5944853,25.2091303 55.3718976,25.357935 L51.6166498,27.6628177 L54.8555636,25.7937491 C55.0928134,25.6651012 55.389307,25.7465056 55.527605,25.9782628 C55.665903,26.21002 55.5967634,26.5096112 55.3708911,26.6573252 L52.1249318,28.6572387 L54.8555636,27.0810613 C55.0925316,26.9456369 55.3942568,27.0237893 55.5356833,27.2572249 C55.6771097,27.4906605 55.6066812,27.7942815 55.3769301,27.9416179 L44.944568,34.5744463 L54.8575766,28.8524995 C55.0948264,28.7238517 55.39132,28.8052561 55.529618,29.0370133 C55.667916,29.2687705 55.5987764,29.5683616 55.3729041,29.7160757 L54.965272,29.9677004 C55.1856181,29.9025396 55.4221182,29.994903 55.5399829,30.1921497 C55.6807498,30.4276921 55.606877,30.7325852 55.3739106,30.8775755 L54.7408227,31.2711166 L54.8575766,31.2046877 C55.092993,31.0769079 55.3872458,31.1559228 55.5269861,31.3844424 C55.6667263,31.612962 55.6029782,31.9108953 55.3819626,32.0622248 L45.8624951,38.2199857 L54.8575766,33.0274574 C55.0926395,32.8937502 55.3913476,32.9697207 55.5339689,33.1994844 C55.6765902,33.4292481 55.6121281,33.7306493 55.3880016,33.881975 L54.9990375,34.1401592 C55.2026866,34.0964737 55.4198269,34.1831153 55.5339951,34.3700356 C55.6757212,34.6020746 55.60751,34.9047292 55.3799496,35.0535398 L53.7302977,36.1204288 L54.8585831,35.4692239 C55.0919503,35.3352974 55.3893814,35.4086284 55.5337493,35.6356845 C55.6781171,35.8627406 55.6183447,36.1631902 55.3980665,36.3177026 L49.4516705,40.4755499 L54.8585831,37.355403 C55.0884508,37.224561 55.3803761,37.2939909 55.5267255,37.5143104 C55.6730748,37.7346299 55.6238973,38.0306407 55.4141705,38.1918037 L50.0122904,42.2922806 L54.8585831,39.4952199 C55.0899911,39.3615331 55.3855357,39.4320388 55.531672,39.6557932 C55.6778082,39.8795476 55.6235632,40.1785043 55.4081315,40.3366531 L53.5237558,41.7177191 L54.8575766,40.9486045 C55.0872539,40.8204284 55.3768962,40.8907379 55.5222465,41.1099503 C55.6675967,41.3291627 55.6196234,41.6233305 55.4121575,41.7850051 L54.7901411,42.2570531 L54.8575766,42.2188062 C55.0757843,42.0989097 55.3488662,42.1565972 55.4999393,42.354503 C55.6510124,42.5524088 55.6346609,42.831038 55.461476,43.0099144 L54.0926373,44.3817725 L54.8545571,43.9419325 C55.0657473,43.8202492 55.3337812,43.8674003 55.4907661,44.0538509 C55.6477511,44.2403015 55.6485564,44.5124499 55.4926774,44.6998262 L55.0004994,45.2886281 C55.107013,45.3297815 55.1959462,45.4066197 55.2521242,45.5060319 C55.3905714,45.7462384 55.3086613,46.0531762 55.0689414,46.1924642 L53.3991595,47.1556838 C53.188033,47.2760973 52.9210156,47.2284127 52.7646176,47.0423657 C52.6082195,46.8563188 52.6071373,46.5850791 52.7620457,46.39779 L52.9009425,46.2307112 L51.2905441,47.1576968 C51.0723364,47.2775933 50.7992545,47.2199057 50.6481814,47.0219999 C50.4971083,46.8240942 50.5134599,46.545465 50.6866447,46.3665885 L52.0544769,44.9957369 L48.3143266,47.1556838 C48.0844589,47.2865258 47.7925336,47.2170958 47.6461842,46.9967764 C47.4998348,46.7764569 47.5490124,46.4804461 47.7587392,46.3192831 L48.3787425,45.8492481 L46.1151263,47.1576968 C45.8837963,47.2916531 45.588102,47.221376 45.4417785,46.9976634 C45.2953484,46.7737339 45.3497372,46.4743743 45.5655779,46.3162636 L47.4567895,44.9283015 L43.5918333,47.1556838 C43.3619656,47.2865258 43.0700403,47.2170958 42.9236909,46.9967764 C42.7773416,46.7764569 42.8265191,46.4804461 43.0362459,46.3192831 L48.4371195,42.2238387 L39.881878,47.1556838 C39.6491832,47.2845298 39.3564035,47.2100478 39.213568,46.9856681 C39.0707325,46.7612885 39.1271701,46.4645018 39.3423946,46.3082116 L45.2877841,42.1513708 L36.6198148,47.1556838 C36.3840446,47.2874176 36.0863266,47.2095587 35.9452328,46.9792677 C35.9249673,46.9461907 35.9089709,46.9116631 35.8971004,46.8763389 L30.6492627,50.3764805 C30.6075019,50.4345832 30.5540109,50.4832738 30.4922489,50.5194034 L30.0433504,50.7790801 C29.9668474,50.8244814 29.8796766,50.848792 29.7907191,50.8495351 C29.5690341,50.8495351 29.3735713,50.7041494 29.3094032,50.4919545 C29.2452351,50.2797595 29.3274769,50.0505674 29.5119189,49.927582 L33.6156006,47.1922059 C33.5542569,47.1311506 33.5082106,47.0538707 33.4846303,46.9658693 C33.4256797,46.7458657 33.5218404,46.5136954 33.7190847,46.399803 L41.8077558,41.7287191 L41.8324731,41.7135437 L29.1354883,49.0438759 C28.9000719,49.1716556 28.605819,49.0926407 28.4660788,48.8641211 C28.3263385,48.6356016 28.3900866,48.3376682 28.6111023,48.1863387 L38.1366088,42.0225389 L27.8934685,47.9377335 C27.6549985,48.0805931 27.3458698,48.0030856 27.2030102,47.7646156 C27.0601506,47.5261457 27.1376581,47.217017 27.376128,47.0741573 L27.9971379,46.6896747 L26.7500856,47.408315 C26.512343,47.5422509 26.2111729,47.4623146 26.0711417,47.2281103 C25.9311105,46.9939061 26.003242,46.690772 26.2337517,46.5447389 L26.2770311,46.5185699 L25.1698822,47.1576968 C24.9334917,47.2898313 24.634924,47.2112027 24.4942787,46.9797747 C24.3536333,46.7483467 24.4213501,46.4471166 24.6475092,46.2981466 L35.0798713,39.6612922 L22.0940213,47.1556838 C21.8562787,47.2896196 21.5551086,47.2096833 21.4150774,46.9754791 C21.2750462,46.7412749 21.3471777,46.4381407 21.5776873,46.2921076 L24.8246531,44.2932006 L19.8636195,47.1556838 C19.6263697,47.2843316 19.3298761,47.2029272 19.1915781,46.97117 C19.0532801,46.7394128 19.1224197,46.4398217 19.348292,46.2921076 L23.1055528,43.9852119 L17.6130878,47.1556838 C17.375838,47.2843316 17.0793444,47.2029272 16.9410464,46.97117 C16.8027484,46.7394128 16.871888,46.4398217 17.0977603,46.2921076 L23.0773708,42.6264383 L15.2216461,47.1556838 C14.9846031,47.2885013 14.6849308,47.209168 14.5446543,46.9764613 C14.4043779,46.7437545 14.4741569,46.4417146 14.7022927,46.2941206 L31.442384,35.8003621 L11.7693546,47.1556838 C11.5326173,47.2821282 11.2383104,47.2005428 11.1004625,46.9702589 C10.9626146,46.7399749 11.0297389,46.4420369 11.2530206,46.2931141 L26.8114821,36.6649447 L8.63914272,47.1556838 C8.40189294,47.2843316 8.10539934,47.2029272 7.96710134,46.97117 C7.82880334,46.7394128 7.89794293,46.4398217 8.12381523,46.2921076 L23.7416601,36.6921202 L6.08867427,46.885942 C5.85011532,47.0188317 5.54910599,46.9372217 5.41034115,46.7020317 C5.2715763,46.4668417 5.34569634,46.1639011 5.57737278,46.0193464 L9.22391864,43.8211526 L5.31769604,46.0767168 C5.08044625,46.2053647 4.78395265,46.1239603 4.64565465,45.8922031 C4.50735665,45.6604459 4.57649624,45.3608547 4.80236855,45.2131407 L24.5941648,33.0234314 L5.09626626,44.2811226 C4.85770731,44.4140123 4.55669798,44.3324023 4.41793314,44.0972123 C4.27916829,43.8620223 4.35328833,43.5590817 4.58496477,43.414527 L8.92297544,40.7976296 L5.09626626,43.0089079 C4.85912632,43.1395159 4.56115392,43.059112 4.4219052,42.8269406 C4.28265649,42.5947691 4.35203742,42.2940389 4.57892577,42.1463383 L29.4736719,26.6341757 L5.09626626,40.7070447 C4.85834755,40.8364299 4.56070123,40.7543268 4.42276061,40.5212641 C4.28482,40.2882013 4.35605903,39.9877696 4.58395827,39.8414556 L16.6507558,32.5067191 L5.09626626,39.1781727 C4.85852366,39.3121086 4.55735355,39.2321723 4.41732235,38.997968 C4.27729115,38.7637638 4.34942266,38.4606297 4.57993227,38.3145966 L28.2658731,23.5945488 L5.09626626,36.9719269 C4.85901647,37.1005748 4.56252287,37.0191704 4.42422487,36.7874132 C4.28592687,36.555656 4.35506647,36.2560648 4.58093877,36.1083508 L23.4719184,24.4631574 L5.09626626,35.0776958 C4.85852366,35.2116317 4.55735355,35.1316954 4.41732235,34.8974911 C4.27729115,34.6632869 4.34942266,34.3601528 4.57993227,34.2141197 L23.1508452,22.6796412 L5.09626626,33.1029448 C4.85852366,33.2368806 4.55735355,33.1569443 4.41732235,32.9227401 C4.27729115,32.6885359 4.34942266,32.3854018 4.57993227,32.2393686 L20.0246594,22.6494462 L5.09626626,31.2670906 C4.86013576,31.393291 4.56653355,31.3125124 4.42819205,31.0832837 C4.28985054,30.8540551 4.35520965,30.5566402 4.57691278,30.406534 L21.0087558,20.0577191 L5.09626626,29.2400016 C4.85855787,29.3770685 4.5548624,29.2984471 4.41352595,29.0632523 C4.2721895,28.8280575 4.34531468,28.522992 4.57791927,28.377432 L16.7917846,20.7230071 L5.09626626,27.4735959 C4.85912632,27.6042039 4.56115392,27.5238001 4.4219052,27.2916286 C4.28265649,27.0594571 4.35203742,26.7587269 4.57892577,26.6110263 L5.28775584,26.1667191 L5.09727276,26.2768686 C4.86229833,26.402988 4.5697375,26.3239091 4.43029837,26.0965859 C4.29085924,25.8692627 4.35296256,25.5726341 4.57188028,25.420338 L13.6021893,19.5393643 L5.09626626,24.4490664 C4.85835217,24.5927598 4.54899816,24.5163789 4.40530472,24.2784648 C4.26161129,24.0405507 4.3379922,23.7311967 4.57590628,23.5875033 L7.5601758,21.7023307 L5.09626626,23.1235072 C4.86210427,23.2532046 4.56738978,23.1768992 4.4255913,22.9498608 C4.28379281,22.7228224 4.34453825,22.424512 4.56382829,22.2710026 L15.1672952,15.1429767 L5.09626626,20.9565149 C4.86072237,21.0826144 4.56769537,21.0026728 4.42882145,20.7744272 C4.28994754,20.5461816 4.35363814,20.2491985 4.57389328,20.0979713 L7.3558565,18.318481 L5.09626626,19.6269297 C4.86049607,19.7586636 4.56277805,19.6808047 4.42168427,19.4505137 C4.28059049,19.2202227 4.34643335,18.9196187 4.57087378,18.7693926 L8.15300371,16.4393474 L5.09626626,18.1997142 C4.86060026,18.3336912 4.56115897,18.2569218 4.41902229,18.0260853 C4.2768856,17.7952488 4.34313623,17.4933059 4.56886078,17.3431835 L7.00056236,15.7468761 L5.09626626,16.845973 C4.86184646,16.9722174 4.56965737,16.8940235 4.42962444,16.6675703 C4.28959151,16.441117 4.35017765,16.1447759 4.56785428,15.9914554 L5.52402833,15.359374 L5.09626626,15.6059662 C4.86687264,15.7376406 4.57469623,15.6692668 4.42755075,15.4494765 C4.28040528,15.2296862 4.32851411,14.9334978 4.53765931,14.7715786 L9.77749308,10.7324981 L5.09626626,13.4379674 C4.86751789,13.5678352 4.57734406,13.4996312 4.4304009,13.2814589 C4.28345774,13.0632865 4.32932207,12.7687545 4.53564632,12.6055927 L7.12939423,10.5825298 L5.09626626,11.7540946 C4.87482941,11.8743975 4.59854994,11.8123648 4.44979843,11.6089439 C4.30104692,11.405523 4.32569147,11.1234396 4.50746434,10.9488954 L6.27487658,9.35862699 L5.09626626,10.0390203 C4.89582525,10.1540199 4.64282442,10.1177314 4.48278886,9.95102765 C4.32275329,9.78432394 4.29681721,9.53005321 4.41989893,9.33447101 L5.28649457,7.97569737 C5.06122212,8.04696845 4.81670144,7.95192359 4.69869915,7.74722209 C4.56025196,7.50701557 4.64216204,7.20007781 4.88188197,7.06078978 L6.5516638,6.09052475 C6.75205221,5.97651004 7.0042891,6.01324729 7.16383088,6.17968432 C7.32337266,6.34612136 7.34941097,6.5996861 7.22702463,6.79507405 L6.37451998,8.13371771 L9.91840294,6.09052475 C10.1398398,5.97022186 10.4161193,6.03225458 10.5648708,6.23567545 C10.7136223,6.43909632 10.6889777,6.72117973 10.5072049,6.89572394 L8.73979262,8.48800536 L12.8986465,6.09052475 C13.1275696,5.95795805 13.4200487,6.02525836 13.5680089,6.24454705 Z" id="Combined-Shape" fill="#F3F6FB"></path>
            <path d="M30.0312724,11.6121782 C29.8335218,11.611881 29.6542739,11.4957973 29.573115,11.3154681 C29.491956,11.1351389 29.5239305,10.9239924 29.6548417,10.7757776 L31.5671898,8.61381773 L31.5430339,8.62790872 C31.387032,8.72707875 31.1892183,8.73273947 31.0278006,8.64265286 C30.8663829,8.55256625 30.7673476,8.38123519 30.7698494,8.1963974 C30.7723513,8.0115596 30.8759875,7.84297178 31.0397844,7.75728708 L33.7402212,6.19721364 C33.9537584,6.07494171 34.2244,6.12501443 34.3800554,6.31559247 C34.5357108,6.50617051 34.5307285,6.78136017 34.3682765,6.96617887 L32.4559284,9.12813872 L37.7209247,6.09052475 C37.8769265,5.99135472 38.0747403,5.98569399 38.236158,6.0757806 C38.3975757,6.16586721 38.496611,6.33719827 38.4941554,6.52203607 C38.4916073,6.70687387 38.387971,6.87546168 38.2241742,6.96114638 L30.2788711,11.5447428 C30.2035523,11.5882398 30.118246,11.6114737 30.0312724,11.6121782 Z" id="Path" fill="#D8D8D8"></path>
            <path d="M24.2398771,32.1588487 C24.0195015,32.1588487 23.8248451,32.0152207 23.7595331,31.8047455 C23.6942212,31.5942703 23.7734483,31.3657842 23.9550379,31.2409216 L30.4449435,26.7861571 L24.1835132,30.4015015 C23.9472162,30.5360083 23.6468077,30.4585011 23.5050817,30.2264621 C23.3633556,29.9944231 23.4315668,29.6917685 23.6591272,29.5429578 L24.901147,28.7377586 L24.0254929,29.2410081 C23.7926649,29.3681542 23.5011201,29.2927312 23.3591609,29.0686272 C23.2172018,28.8445232 23.2735835,28.5487055 23.4880224,28.3925295 L32.3019341,22.3082431 L23.5162044,27.3799915 C23.2816067,27.511502 22.9850674,27.4353145 22.8429146,27.2070084 C22.7007618,26.9787024 22.7632409,26.6789751 22.9847729,26.5264803 L30.1782212,21.7103827 L22.8710385,25.9286199 C22.6370012,26.0602364 22.340856,25.9849345 22.1981125,25.7575127 C22.055369,25.5300909 22.1163099,25.2306605 22.3365875,25.0771218 L31.3205976,18.9676729 L21.9249295,24.3886765 C21.6892635,24.5226535 21.3898222,24.4458841 21.2476855,24.2150476 C21.1055488,23.9842111 21.1717994,23.6822683 21.397524,23.5321458 L27.0087559,19.867483 L21.0583338,23.3016576 C20.8232709,23.4353647 20.5245628,23.3593942 20.3819415,23.1296305 C20.2393203,22.8998668 20.3037823,22.5984656 20.5279089,22.4471399 L28.4792509,17.1680527 L19.9934579,22.0676898 C19.7564898,22.2031142 19.4547647,22.1249618 19.3133382,21.8915262 C19.1719117,21.6580906 19.2423403,21.3544696 19.4720914,21.2071332 L22.1554177,19.4960849 L19.3211166,21.1316457 C19.0848195,21.2661525 18.7844111,21.1886454 18.642685,20.9566064 C18.500959,20.7245674 18.5691701,20.4219127 18.7967306,20.2731021 L23.8996805,16.9748049 L18.6568272,20.0013474 C18.421864,20.1375258 18.1212344,20.0627158 17.977496,19.8322998 C17.8337577,19.6018837 17.8987635,19.2989828 18.1243893,19.1478362 L27.368076,12.9377374 L17.9462389,18.372832 C17.7100102,18.5102058 17.4073217,18.4339591 17.2643619,18.2010685 C17.121402,17.9681779 17.1904195,17.6637597 17.41984,17.5152948 L23.4739314,13.5567343 L17.5355873,16.9858764 C17.3020966,17.1177158 17.0062409,17.0433268 16.8628737,16.8167315 C16.7195065,16.5901362 16.7789857,16.2909264 16.9981169,16.1363912 L26.7279427,9.42203642 L17.2155207,14.9134949 C16.9810393,15.0471269 16.6828896,14.9720011 16.5397283,14.7432133 C16.3965671,14.5144254 16.4593689,14.2134386 16.6820762,14.0609903 L23.6651662,9.3415165 L17.2104882,13.0655628 C16.9742417,13.2120356 16.6639864,13.1392596 16.5175136,12.9030132 C16.3710408,12.6667667 16.4438167,12.3565115 16.6800632,12.2100386 L20.3286221,9.79444105 L17.415814,11.4823399 C17.1809493,11.6257682 16.8744313,11.5539418 16.7277372,11.3211029 C16.5810432,11.088264 16.6485822,10.7807729 16.87935,10.6308417 L20.9717749,7.83982 L17.9291284,9.59616075 C17.6980839,9.7285074 17.4039322,9.65797821 17.2580247,9.43524917 C17.1121172,9.21252014 17.164955,8.91468171 17.3785735,8.75573409 L21.8484355,5.46548887 L19.2073822,6.99637384 C18.9790934,7.12716836 18.6885848,7.0600406 18.5408201,6.84235147 C18.3930553,6.62466234 18.4379122,6.32989257 18.6437427,6.16601217 L21.1620032,4.17817666 C21.0691998,4.13551822 20.9918573,4.06520688 20.9405734,3.97687686 C20.8022958,3.73640726 20.8846777,3.42938867 21.1247628,3.29044454 L25.5271894,0.748028082 C25.7554782,0.617233569 26.0459867,0.684361326 26.1937515,0.902050456 C26.3415162,1.11973959 26.2966593,1.41450936 26.0908288,1.57838975 L24.7511786,2.62716171 L29.1868197,0.0666282622 C29.4178643,-0.0657183893 29.7120159,0.0048108039 29.8579234,0.227539838 C30.003831,0.450268872 29.9509932,0.7481073 29.7373747,0.907054923 L25.2685191,4.19730014 L32.0774848,0.265915063 C32.3118585,0.129893975 32.6118542,0.203878315 32.756109,0.433275997 C32.9003638,0.662673679 32.8370749,0.965106505 32.6129423,1.11741321 L28.5134719,3.91447392 L33.9797679,0.756080074 C34.2144875,0.626501288 34.5095828,0.703693477 34.6507879,0.931608108 C34.7919929,1.15952274 34.7297207,1.45812287 34.5091864,1.61059772 L30.8666665,4.02619531 L35.4583149,1.37507696 C35.6931997,1.23591131 35.9962075,1.30941129 36.1412249,1.540729 C36.2862422,1.77204672 36.2203708,2.0768039 35.9927659,2.22758161 L29.0147084,6.9440359 L37.0566354,2.30206253 C37.2901261,2.17022314 37.5859818,2.24461211 37.729349,2.4712074 C37.8727161,2.69780269 37.813237,2.99701254 37.5941058,3.15154768 L27.8632735,9.86590248 L38.6851507,3.61856322 C38.9230648,3.47292424 39.233996,3.54772798 39.379635,3.78564206 C39.525274,4.02355615 39.4504703,4.33448735 39.2125562,4.48012636 L33.1624907,8.43566741 L39.6815847,4.67236766 C39.9157467,4.54267028 40.2104612,4.61897567 40.3522597,4.84601407 C40.4940582,5.07305248 40.4333127,5.37136294 40.2140227,5.52487231 L30.9673164,11.7369841 L40.7303567,6.10058974 C40.9657731,5.97280997 41.2600259,6.0518249 41.3997662,6.28034447 C41.5395064,6.50886405 41.4757583,6.80679739 41.2547427,6.95812688 L36.1447473,10.2614566 L41.378542,7.2419596 C41.6155101,7.10653521 41.9172353,7.18468762 42.0586617,7.41812321 C42.2000882,7.65155879 42.1296597,7.95517977 41.8999085,8.10251624 L39.2175887,9.81356453 L41.8536096,8.28469256 C42.0883292,8.15511377 42.3834245,8.23230596 42.5246295,8.46022059 C42.6658346,8.68813522 42.6035623,8.98673536 42.383028,9.13921021 L34.445777,14.4122584 L42.3639046,9.8417465 C42.6001333,9.70437273 42.9028217,9.78061935 43.0457816,10.01351 C43.1887414,10.2464006 43.119724,10.5508188 42.8903035,10.6992836 L37.2760521,14.3659595 L42.6487438,11.2639296 C42.8827811,11.1323132 43.1789263,11.2076151 43.3216698,11.4350368 C43.4644132,11.6624586 43.4034723,11.961889 43.1831947,12.1154277 L34.1981782,18.2258831 L42.7745561,13.2749146 C43.0091538,13.1434041 43.3056931,13.2195916 43.4478459,13.4478977 C43.5899987,13.6762037 43.5275196,13.9759309 43.3059876,14.1284257 L36.1024743,18.9525754 L42.6064708,15.1983342 C42.8399616,15.0664948 43.1358173,15.1408837 43.2791844,15.367479 C43.4225516,15.5940743 43.3630724,15.8932842 43.1439413,16.0478193 L34.3330491,22.1300927 L41.9260775,17.7467896 C42.1618477,17.6150557 42.4595657,17.6929146 42.6006595,17.9232056 C42.7417533,18.1534966 42.6759104,18.4541006 42.45147,18.6043268 L41.1772422,19.4276429 C41.4145304,19.3242725 41.6915333,19.4177475 41.8176719,19.6437567 C41.9438105,19.8697659 41.8779464,20.1545993 41.6653943,20.3022906 L35.1654237,24.7620876 L38.5875203,22.7893496 C38.8168723,22.6620127 39.1055692,22.7322147 39.2508407,22.9506482 C39.3961122,23.1690817 39.3492235,23.4624684 39.1431078,23.6247437 L34.365257,27.2662571 L36.6691332,25.9356654 C36.8896222,25.802919 37.1747373,25.8579212 37.3300248,26.0631595 C37.4853124,26.2683978 37.4607254,26.557727 37.2730326,26.7338191 L34.7688631,29.1393517 L35.914259,28.4780819 C36.1307687,28.3528842 36.4063664,28.405682 36.561275,28.6020344 C36.7161836,28.7983867 36.7033914,29.0787045 36.5312429,29.2601316 L36.0823443,29.7311731 C36.2338949,29.7537589 36.3669004,29.8441581 36.4436775,29.9767589 C36.5826394,30.2174532 36.5001764,30.5252252 36.2594881,30.6641977 L33.8328191,32.0652443 C33.6163858,32.1889422 33.3420102,32.1355463 33.187761,31.9397104 C33.0335119,31.7438744 33.0458813,31.4646253 33.2168417,31.2831946 L33.397005,31.0919598 L31.7040737,32.0702768 C31.4835848,32.2030233 31.1984696,32.1480211 31.0431821,31.9427827 C30.8878946,31.7375444 30.9124816,31.4482152 31.1001743,31.2721231 L33.6003178,28.867597 L28.0333719,32.0813483 C27.8040199,32.2086852 27.5153229,32.1384832 27.3700515,31.9200497 C27.22478,31.7016161 27.2716686,31.4082295 27.4777844,31.2459541 L32.2596611,27.6024278 L24.4844564,32.0904068 C24.4102296,32.134009 24.3259538,32.1575924 24.2398771,32.1588487 Z" id="Path" fill="#F5EC83"></path>
            <path d="M26.9307257,31.3833043 C27.0856237,31.592273 27.0557462,31.8848525 26.861807,32.0581988 L26.1944982,32.6892737 L28.6775312,31.2529996 C28.8874516,31.1319434 29.1538364,31.1776797 29.3113564,31.3618227 C29.4688763,31.5459657 29.4727966,31.8162199 29.3206841,32.0048544 L27.8169746,33.8628515 L32.3411876,31.2529996 C32.5672458,31.1251649 32.8534527,31.1903387 33.0018727,31.4034479 C33.1502927,31.6165571 33.1121769,31.9076055 32.9138855,32.0753093 L32.6773582,32.2766091 L34.443764,31.2529996 C34.6682556,31.1222456 34.9553805,31.1838623 35.1064569,31.3952128 C35.2575333,31.6065632 35.2229021,31.8981759 35.0265269,32.0682638 L34.4226275,32.5906368 L36.4909829,31.3959225 C36.6991526,31.2773799 36.9620287,31.3220075 37.1194136,31.5026091 C37.2767985,31.6832108 37.285062,31.9497201 37.1391683,32.1397252 L35.7481867,33.930287 L37.6957622,32.8070341 C37.9040856,32.6836719 38.1709807,32.7282961 38.3278436,32.9127165 C38.48603,33.0951352 38.4923657,33.364194 38.3429411,33.5538563 L37.8326461,34.1980157 C38.0315967,34.2477161 38.1804934,34.4131615 38.2090293,34.6162309 C38.2375652,34.8193003 38.1400324,35.0193747 37.9624844,35.1219818 L37.1198669,35.6077037 C37.2941719,35.5802322 37.4759507,35.6459107 37.5916956,35.7909201 C37.7471869,35.9857253 37.7366537,36.2650017 37.5669303,36.4475409 L36.5191649,37.5808588 L37.7138792,36.891407 C37.9241996,36.7705805 38.1907822,36.8169702 38.3479237,37.001741 C38.5050652,37.1865117 38.5080485,37.4570842 38.3550191,37.6452747 L37.872906,38.2350832 C38.0606231,38.2977947 38.1941538,38.4647108 38.2141265,38.6616156 C38.2340992,38.8585204 38.1368051,39.0488498 37.9655039,39.1479777 L36.2997481,40.1101908 C36.0894278,40.2310173 35.8228451,40.1846276 35.6657036,39.9998568 C35.6181351,39.9439247 35.5846928,39.8801302 35.565428,39.8131386 L34.1146388,41.2716906 L34.8191881,40.869091 C34.9751899,40.769921 35.1730037,40.7642603 35.3344214,40.8543469 C35.4958391,40.9444335 35.5948744,41.1157646 35.5923725,41.3006023 C35.5898707,41.4854401 35.4862344,41.654028 35.3224376,41.7397127 L31.3216041,44.0546604 C31.2462248,44.0939206 31.1619634,44.1129921 31.0770248,44.1100178 C30.873642,44.1099747 30.6902781,43.9875164 30.6123198,43.7996678 C30.5343616,43.6118193 30.5771359,43.3955122 30.7207242,43.2514742 L32.9279765,41.0371764 L28.1390543,43.8010226 C27.910913,43.9336347 27.6190831,43.8675033 27.4703951,43.6494981 C27.3217071,43.4314928 27.3666634,43.1356602 27.5734018,42.9716674 L28.1481127,42.5157234 L26.892002,43.2404027 C26.6808118,43.3620859 26.4127779,43.3149348 26.2557929,43.1284842 C26.098808,42.9420336 26.0980027,42.6698852 26.2538816,42.4825089 L27.854215,40.5621088 L25.3641365,41.9983829 C25.1606021,42.1146476 24.9037504,42.0749973 24.744751,41.902768 C24.5857516,41.7305387 24.5667131,41.4713427 24.6988407,41.2777296 L25.3903055,40.2712306 L24.5126384,40.7744801 C24.3471352,40.8703432 24.1415962,40.8641029 23.9822134,40.7583761 C23.8221303,40.6520221 23.7366001,40.4637777 23.7617901,40.2732436 L23.86244,39.5072979 C23.6655494,39.4653879 23.5132761,39.3104411 23.4738586,39.1143892 L22.7754211,39.5173629 C22.5546967,39.644948 22.273433,39.5873186 22.1206712,39.3832082 C21.9679093,39.1790979 21.9919152,38.8929963 22.1765542,38.7171962 L22.6636997,38.2521936 L22.2429831,38.4947599 C22.0327258,38.6143522 21.7671284,38.5674401 21.6105621,38.3830562 C21.4539958,38.1986722 21.4507568,37.9289831 21.6028498,37.7408922 L22.0829498,37.1530967 C21.8952328,37.0903852 21.7617021,36.9234691 21.7417294,36.7265643 C21.7217567,36.5296595 21.8190508,36.3393301 21.9903519,36.2402022 L22.8349831,35.7538451 C22.6497873,35.7896247 22.4534293,35.7189714 22.3351043,35.5593425 C22.1802063,35.3503738 22.2100838,35.0577943 22.404023,34.884448 L23.0723383,34.2513601 L22.3003536,34.6962327 C22.0943548,34.8143456 21.8338249,34.7723923 21.6753177,34.5955828 C21.5162399,34.419339 21.5019767,34.1558897 21.6410967,33.9635014 L22.2309052,33.1462242 C22.0058529,33.1406059 21.8119088,32.9862053 21.7559883,32.7681388 C21.7000679,32.5500724 21.7957761,32.321394 21.9903519,32.2081672 L23.6581207,31.2459541 C23.8641195,31.1278412 24.1246494,31.1697945 24.2831566,31.346604 C24.4422345,31.5228479 24.4564976,31.7862971 24.3173776,31.9786854 L23.8332516,32.6500202 L26.2649531,31.2529996 C26.4872026,31.1178461 26.7758276,31.1743356 26.9307257,31.3833043 Z M31.7835871,38.2360897 L30.4613102,38.9991792 C30.4522084,39.0125612 30.4423913,39.0256088 30.431859,39.0382694 L28.8315256,40.9576629 L30.5813915,39.9484043 C30.5646099,39.9221359 30.5501179,39.8940576 30.5382447,39.8643918 C30.4617813,39.6733442 30.5093358,39.4549913 30.6583212,39.3130436 L31.7835871,38.2360897 Z M29.3015606,37.8586525 L27.5489094,38.8710809 C27.5341657,38.9185395 27.5121739,38.9644164 27.4828169,39.0070679 L26.7913521,40.0135669 L27.8645169,39.3932326 C27.8793029,39.3712028 27.8960021,39.3500975 27.914605,39.3301541 L29.3015606,37.8586525 Z M26.2599206,37.5043649 L24.8029223,38.3452627 L24.823641,38.3632607 C24.9351757,38.4729253 24.9907571,38.6300511 24.9695889,38.7886576 L24.9209223,39.1542627 L26.2599206,37.5043649 Z M30.3986445,34.7475641 L28.8595316,35.6373935 C28.8807311,35.7737075 28.84574,35.9171149 28.7540251,36.0308504 L27.2513221,37.8848215 L30.3249223,36.1092627 L30.2992625,36.1230225 C30.2437478,36.1439229 30.1846831,36.1547245 30.1248768,36.1546503 C29.9146069,36.1549503 29.7263147,36.024489 29.6527299,35.8275149 C29.579145,35.6305408 29.6357807,35.4085802 29.7947451,35.2709436 L30.3986445,34.7475641 Z M34.7678566,33.5498303 L31.8039223,35.2602627 L31.8489125,35.2403273 C32.0484392,35.1691866 32.2760514,35.2305582 32.4118479,35.4016839 C32.567044,35.5972561 32.5553898,35.8770441 32.384467,36.0590323 L30.9985179,37.5295274 L33.5154401,36.0780841 C33.4714097,36.0515825 33.4308708,36.0179554 33.3956232,35.9775082 C33.2382383,35.7969065 33.2299748,35.5303972 33.3758685,35.340392 L34.7678566,33.5498303 Z M35.6134632,35.9026586 L35.6042308,35.9286392 C35.5788163,35.9832673 35.5431831,36.0340944 35.4975684,36.0781558 L34.371296,37.1551097 L36.1243034,36.144565 C35.9570011,36.1704811 35.7827042,36.1107469 35.6665445,35.9764938 C35.6463717,35.9531788 35.628675,35.9284517 35.6134632,35.9026586 Z M27.7495391,35.0625983 L26.5782602,35.7367187 C26.5692803,35.8654401 26.511062,35.9903679 26.4068695,36.0811753 L25.919724,36.5451713 L27.3383712,35.7237675 C27.3129723,35.5559168 27.3734479,35.3802311 27.5109989,35.2638981 L27.7495391,35.0625983 Z M26.8336251,33.4753494 L23.8094133,35.2216531 C23.9843841,35.1871178 24.1698552,35.2475636 24.2905418,35.3896929 C24.4471081,35.5740768 24.450347,35.8437659 24.2982541,36.0318569 L24.1221168,36.2482541 L25.2224602,35.6127707 C25.229259,35.5131077 25.2656761,35.414961 25.3319286,35.3323401 L26.8336251,33.4753494 Z" id="Combined-Shape" fill="#D4E8FA"></path>
            <path d="M55.8681016,12.0852328 C55.6668018,9.85986349 56.7679117,6.31598052 53.408218,6.17104467 C49.4828719,6.07039477 45.5575259,6.20123964 41.6321798,6.17104467 C36.5352689,-2.20000748 23.5906853,-1.41795776 18.5833528,6.17104467 L10.4286979,6.17104467 C5.19490316,5.86909497 3.52512133,6.44581889 4.06661778,12.1003302 C-1.03633212,11.871855 0.150330195,15.7901556 0.057732287,19.409526 C0.057732287,30.5481148 0.057732287,41.6843552 0.057732287,52.8182471 C-0.594479062,57.4481425 4.92717443,56.1266093 7.82488503,56.2514152 L24.2227667,56.2514152 C24.0295189,59.8083826 27.394245,59.3715621 29.9517589,59.2709122 C32.402584,59.472212 35.7713361,59.4842899 35.7200047,56.2514152 L56.3602796,56.2514152 C58.1548673,56.2514152 59.8518246,55.4824499 59.8971171,53.463413 C60.1588068,40.6919472 59.8306881,27.8983385 59.8971171,15.1228467 C60.2644892,12.5824433 57.9938275,11.827569 55.8681016,12.0852328 Z M49.0681944,6.81419753 C51.0258349,6.82929501 54.5103344,6.05932328 54.410691,9.01138483 C54.5042954,14.2008937 54.410691,19.401474 54.410691,24.5919893 L54.410691,44.8759635 C54.2365667,46.8215261 52.5778564,46.401816 51.1788228,46.401816 C45.890677,46.444089 40.5964923,46.3102246 35.3093531,46.401816 C33.5717695,46.4220768 31.9147418,47.1376692 30.7086462,48.388645 L30.7086462,44.1281348 C33.29449,43.8737423 35.5500726,42.2637071 36.6308863,39.900839 C38.8099566,39.5988893 39.6272338,36.4103005 37.40891,35.5527633 C38.3190724,35.152635 38.8452956,34.189408 38.6902447,33.20734 C38.5351937,32.225272 37.7378112,31.4710187 36.7486467,31.37076 C36.6983217,21.3248935 48.3656581,19.2062132 42.0146494,6.81218453 L49.0681944,6.81419753 Z M54.410691,49.8923545 C54.2748137,51.874151 52.6805193,51.46048 51.2774597,51.46048 L30.7217307,51.46048 C30.936115,46.3514911 36.4517295,47.0550339 40.1224313,47.1013328 C44.8449246,46.8275651 49.8240751,47.7052322 54.4278015,46.6655187 C54.4519575,47.7454922 54.483159,48.8315046 54.410691,49.895374 L54.410691,49.8923545 Z M28.0273329,18.8801075 L32.2465767,18.8801075 C31.5789734,19.3343559 31.2115735,20.1160024 31.2878143,20.9198823 C31.3640552,21.7237623 31.8718473,22.4224046 32.6129423,22.7430506 C30.1218573,24.0404278 31.6628072,28.861558 31.2612141,31.3174156 L28.7057132,31.3174156 C28.7117522,29.0477603 28.7832136,26.7670336 28.7057132,24.4993914 C28.6826947,23.6336138 28.2069841,22.8434375 27.4526219,22.4179514 C28.0825382,22.0956382 28.5215265,21.4928526 28.6349845,20.7944204 C28.7484425,20.0959881 28.5228332,19.3852409 28.0273329,18.8801075 Z M28.5003874,31.9937829 C30.8062766,31.9937829 33.1121658,31.9937829 35.418055,31.9937829 C37.7058272,31.8377755 38.0661538,35.8305571 35.4955554,35.3333466 C31.8097561,35.3393856 28.1239568,35.3252946 24.4381574,35.3333466 C22.7271092,35.368574 21.889702,32.6590787 23.6138348,32.0380688 C24.8286791,31.9182955 26.0978743,32.0310234 27.3278161,31.9947894 C27.6662009,32.2815914 28.1624954,32.2811654 28.5003874,31.9937829 L28.5003874,31.9937829 Z M22.9052595,36.6166328 C23.1263481,36.2245806 23.5497609,35.9908661 23.9993239,36.0127334 C26.7963846,36.0449413 29.5944518,36.0177659 32.3915125,36.0268244 C33.8006111,36.1878642 35.4613344,35.6020818 36.6822177,36.4616319 C37.0986827,36.8297148 37.3238574,37.3681072 37.2934501,37.9230878 C37.2630429,38.4780684 36.980396,38.9886373 36.5262104,39.3090176 C36.2422807,39.2145351 35.9329715,39.2321791 35.6616277,39.358336 C31.9567049,39.358336 28.2507756,39.39457 24.5458528,39.358336 C24.3656574,39.2465809 24.1486535,39.2104136 23.9419534,39.2576861 C23.4160374,39.0926092 22.9931427,38.6982897 22.7917348,38.1851884 C22.5903269,37.672087 22.6320659,37.0953847 22.9052595,36.6166328 L22.9052595,36.6166328 Z M27.7807406,40.0558398 L35.1402613,40.0558398 C33.3094396,44.3525841 26.8708655,44.1603427 24.929329,40.0558398 L27.7807406,40.0558398 Z M22.1523982,3.60145273 C31.0478364,-3.96440021 44.6094038,5.2420461 42.0679938,16.2762946 C41.0312999,21.912689 34.7678566,25.1334857 35.3013011,31.3174156 L32.7186247,31.3174156 C32.7689496,28.8645775 32.6099228,26.3855705 32.7820341,23.9478299 C32.8837129,23.5380904 33.1322728,23.179935 33.4805444,22.9413309 C36.2846506,23.3680865 38.2443042,19.4507924 35.1593847,18.328546 C32.6199878,18.0980578 29.9879929,18.354715 27.418401,18.2641301 C26.1381343,18.1745517 24.6223468,18.2339351 23.7537381,19.3058566 C23.2185198,19.9361924 23.0841525,20.8143193 23.4063918,21.5758597 C23.7286311,22.3374001 24.4524797,22.8523803 25.2775776,22.90711 C25.4332132,23.0805454 25.6600631,23.1726219 25.8925485,23.1567217 C26.663011,23.2587591 27.2349739,23.9215784 27.2231402,24.6986782 C27.2291792,26.904924 27.2231402,29.1121763 27.2231402,31.3194286 C26.3706355,31.3194286 25.5120919,31.3053376 24.6636132,31.3194286 C25.2403371,25.5823843 20.2672256,22.4773349 18.361923,17.7075362 C16.5988332,12.6736281 18.1036175,7.0736409 22.1523982,3.60145273 Z M33.5067134,18.9737119 C34.1770417,18.6093593 34.9550654,19.5665398 35.1452938,20.0929388 C35.4222643,20.7887194 35.2353484,21.5834138 34.6772717,22.0827873 C33.9998979,22.5860368 33.1443738,21.7677531 32.8957685,21.1688862 C32.5117315,20.3882504 32.7746088,19.4437113 33.5067134,18.9737119 Z M26.5618703,19.2897526 C26.96915,19.6405723 27.2083974,20.1477655 27.2201053,20.6851798 C27.2318133,21.2225941 27.0148815,21.7397255 26.6232668,22.1079498 C26.2059848,22.1859011 25.774691,22.1273129 25.393325,21.9408709 C24.9474111,21.5522365 24.6864132,20.9933207 24.6746777,20.401934 C24.6733023,19.9043509 24.8750633,19.4277589 25.2332917,19.0824138 C25.669609,18.8274946 26.2250874,18.9150245 26.5618703,19.2917656 L26.5618703,19.2897526 Z M6.68250867,6.81419753 C10.4739904,6.67530066 14.331901,6.89874344 18.1435127,6.81419753 C15.0412811,11.8982555 15.7045605,18.4261263 19.7659891,22.7823041 C21.9673318,25.1581791 23.1918354,28.2767639 23.1951312,31.5156959 C21.0603468,31.9806984 20.336674,34.9891239 22.5912318,35.7882841 C21.6446904,36.16558 21.0852864,37.1477387 21.243613,38.1543296 C21.4019396,39.1609206 22.2358405,39.9239265 23.2525016,39.9924304 C24.2914834,42.4112685 26.6160185,44.0283703 29.2451966,44.1613492 L29.2451966,48.0444224 C27.6438567,46.0656453 24.7823801,46.1240223 22.4110685,46.2327242 L9.67885618,46.2327242 C8.12582823,46.2297047 5.72029563,46.7530842 5.54315181,44.5448254 L5.54315181,10.7667191 C5.54315181,9.63944021 5.14759771,7.04871179 6.68250867,6.81419753 Z M5.54315181,46.954384 C11.6113343,47.7827326 17.9613364,47.0278584 24.1110453,47.2754571 C26.7098257,47.2754571 28.905,48.7852056 29.1888327,51.4614865 C21.923923,51.428272 14.6509612,51.5148309 7.39108397,51.4614865 C4.97347338,51.2692451 5.6588992,48.6181268 5.54315181,46.954384 Z M58.4336675,38.4997924 L58.4336675,52.6330513 C58.4336675,53.7633497 58.5765904,55.2147212 57.1000563,55.3717351 C49.8532636,55.5086189 42.5531264,55.2861826 35.2862036,55.3717351 C35.0375984,55.3717351 34.2797046,55.5066059 34.2797046,55.8951145 C34.6541223,59.0394174 32.2063167,58.411362 30.0040969,58.391232 C27.7022337,58.4747715 25.387286,58.8119486 25.6761512,55.7280357 C25.6761512,55.4794304 25.4527084,55.3717351 25.2212137,55.3717351 C17.840221,55.3663671 10.4592284,55.3663671 3.07823577,55.3717351 C1.91975543,55.2439097 1.53728581,54.3068591 1.52017533,53.3104251 C1.33699251,43.1800127 1.52017533,33.0304769 1.52017533,22.8980515 C1.53024032,20.1160882 1.50407134,17.3311055 1.52017533,14.5511553 C1.64095521,12.9025099 2.82862402,12.9407569 4.07768927,12.9649129 C4.09882575,23.825037 4.07768927,34.6861677 4.08574127,45.5462919 C4.12398823,49.2290717 3.01281334,52.6189603 8.13589322,52.1066523 L29.3398076,52.1066523 C29.6820747,52.3790523 30.1670922,52.3790523 30.5093594,52.1066523 L48.1945532,52.1066523 C51.0550234,52.0704183 56.45791,53.0215599 55.8681016,48.5617629 L55.8681016,12.9578674 C57.5419094,12.817964 58.7175002,13.6744947 58.4336675,15.5204138 L58.4336675,38.4997924 Z" id="Shape" fill="#262626"></path>
            <path d="M21.6531747,13.4691689 C21.6843762,9.02950181 25.1286158,4.99545384 29.7122122,4.96425237 C30.3503325,5.09912324 31.2813441,4.17012467 30.2416307,3.99600034 C20.5258959,3.67492716 18.2461756,16.9194474 21.6531747,13.4691689 Z" id="Path" fill="#262626"></path>
        </g>
    </g>
</svg>