<?xml version="1.0" encoding="UTF-8"?>
<svg width="100px" height="100px" viewBox="0 0 100 100" version="1.1" xmlns="http://www.w3.org/2000/svg" xmlns:xlink="http://www.w3.org/1999/xlink">
    <title>role-business</title>
    <g id="Page-1" stroke="none" stroke-width="1" fill="none" fill-rule="evenodd">
        <g id="role-business" fill-rule="nonzero">
            <path d="M5.29493109,99.231793 C4.93004607,99.2311846 4.60717605,98.9953627 4.4955922,98.6479573 C4.38400836,98.3005519 4.50916929,97.920826 4.80545684,97.7078585 L17.7269044,88.4414885 L2.09232289,97.4690086 C1.6988995,97.6825517 1.2071497,97.5505034 0.973618417,97.1686058 C0.740087134,96.7867082 0.846621742,96.2888077 1.21597895,96.0359087 L2.76009362,95.0367757 L2.2083838,95.3546816 C1.81746597,95.5781407 1.31990262,95.4540653 1.07967755,95.0732207 C0.839452489,94.6923761 0.941802558,94.1898938 1.31185535,93.933356 L11.5521278,86.9276506 L2.75672953,92.0057357 C2.36762929,92.2301003 1.87089853,92.1091241 1.62853853,91.7309705 C1.38617854,91.352817 1.48373363,90.8509607 1.85010883,90.5911383 L13.6395421,82.2364351 L4.03676359,87.7871741 C3.65269828,87.9986605 3.17059665,87.8796138 2.92912025,87.5136604 C2.68764386,87.1477071 2.76781785,86.6576395 3.11332246,86.3877151 L14.1828417,78.0733808 L6.66579542,82.4029573 C6.27861818,82.619977 5.78944279,82.4987612 5.54839388,82.1260694 C5.30734497,81.7533775 5.39741139,81.2575208 5.75412859,80.993406 L9.48826211,78.3021386 C9.1094936,78.5062723 8.63773648,78.3915991 8.39493473,78.0363759 C8.14816087,77.673846 8.22137999,77.1825457 8.56313894,76.9077257 L14.5932599,72.0298035 C14.5053491,71.9636419 14.4320509,71.880036 14.3779586,71.7842254 C14.145728,71.3819815 14.2835387,70.8676389 14.6857723,70.6353906 L20.4770433,67.2931729 C20.8565265,67.0793409 21.3364791,67.1906397 21.5831189,67.5496668 C21.8297587,67.9086938 21.7614574,68.3966251 21.4257151,68.6741295 L17.9993952,71.4528631 L23.0539318,68.53452 C23.4411091,68.3175002 23.9302845,68.438716 24.1713334,68.8114079 C24.4123823,69.1840997 24.3223159,69.6799565 23.9655987,69.9440713 L20.224737,72.6302925 L25.4037447,69.6396216 C25.78781,69.4281352 26.2699116,69.547182 26.511388,69.9131353 C26.7528644,70.2790886 26.6726904,70.7691562 26.3271858,71.0390807 L15.2593486,79.358461 L28.4616972,71.7354461 C28.8507975,71.5110815 29.3475283,71.6320578 29.5898882,72.0102113 C29.8322482,72.3883649 29.7346931,72.8902212 29.368318,73.1500436 L17.5721565,81.5097929 L29.7736901,74.4654005 C30.1661915,74.2257058 30.6784387,74.3457406 30.923591,74.7348567 C31.1687432,75.1239727 31.0558733,75.637846 30.6702186,75.8884081 L20.4383563,82.8907495 L30.9157967,76.8353978 C31.3092201,76.6218547 31.8009699,76.753903 32.0345012,77.1358006 C32.2680325,77.5176982 32.1614979,78.0155987 31.7921407,78.2684977 L30.2446619,79.277723 L31.686172,78.4367019 C32.0739679,78.2175411 32.5653871,78.3387579 32.8067808,78.713119 C33.0481746,79.0874801 32.9558099,79.5851296 32.5961568,79.8479353 L19.6730272,89.1143053 L28.6820448,83.9151131 C29.0717907,83.7004474 29.5613007,83.8265041 29.7988858,84.2027176 C30.0364708,84.5789311 29.9399081,85.0751024 29.5785732,85.3347567 L25.1800331,88.3624325 C25.4755982,88.4855469 25.6756184,88.7658073 25.6959686,89.0853409 C25.7163188,89.4048746 25.5534684,89.7082452 25.2759095,89.8678602 L11.0088282,98.1098666 C10.6179104,98.3333257 10.120347,98.2092503 9.88012194,97.8284057 C9.63989687,97.4475611 9.74224694,96.9450788 10.1122997,96.688541 L11.0660176,96.0325446 L5.71544163,99.1190919 C5.58777832,99.1933623 5.442626,99.2322631 5.29493109,99.231793 L5.29493109,99.231793 Z" id="Path" fill="#F5EC83"></path>
            <path d="M35.199958,82.3760454 C34.8754173,82.3765008 34.5795745,82.1901832 34.4397785,81.8972943 C34.2999824,81.6044053 34.3411824,81.257217 34.5456436,81.0051803 L36.6952934,78.3492358 L32.9729342,80.4988856 C32.6153655,80.7031138 32.1625078,80.6184053 31.9029353,80.2987388 C31.6433628,79.9790723 31.6534224,79.5184701 31.926704,79.2104413 L35.2605115,75.4897641 L30.6348957,78.159165 C30.254399,78.3824993 29.7659995,78.2738374 29.5160855,77.9102457 C29.2661715,77.5466539 29.3397085,77.0517462 29.6845419,76.7765264 L30.1437394,76.4081591 L29.3430873,76.8673566 C28.9626034,77.0833997 28.4800268,76.9716168 28.2332847,76.6102845 C27.9865427,76.2489523 28.0580702,75.7587897 28.3977796,75.483036 L29.3363592,74.7328452 L27.9907255,75.5099487 C27.6201121,75.7192774 27.1515346,75.6187135 26.8994526,75.2757449 C26.6473707,74.9327762 26.6912677,74.4555435 27.0016847,74.164315 L31.5886136,69.9592096 L25.7872503,73.3081555 C25.4044359,73.5266354 24.917885,73.412496 24.672166,73.0465691 C24.4264469,72.6806422 24.5049301,72.1870837 24.8520349,71.9154246 L26.9293569,70.3107565 L24.3036891,71.8245944 C23.9195385,72.0432551 23.4316785,71.9272251 23.1871022,71.5590314 C22.9425259,71.1908377 23.0247105,70.6961499 23.3752019,70.4268174 L25.4138369,68.8793386 L22.8419945,70.3628998 C22.4668283,70.5814133 21.9869907,70.4784407 21.7345146,70.1252358 C21.4820385,69.7720309 21.5399136,69.2846933 21.8680921,69.0004456 L25.3431912,65.9727698 L20.9698816,68.495833 C20.6114793,68.7023154 20.1561401,68.6175363 19.8960675,68.2959006 C19.635995,67.974265 19.6484049,67.5112668 19.9253335,67.2040247 L23.1565364,63.624639 L19.0994508,65.9677237 C18.7348271,66.1806201 18.2688709,66.0901659 18.0103864,65.7563079 C17.751902,65.42245 17.7810236,64.9486893 18.0784512,64.6490027 L19.228968,63.4715732 C18.8731141,63.5425188 18.5111865,63.3814374 18.3257114,63.0695651 C18.0931982,62.6677616 18.2302197,62.1535545 18.6318431,61.9207303 L23.6224621,59.0393922 C23.9869529,58.8292158 24.4506788,58.920735 24.7079916,59.2536281 C24.9653044,59.5865212 24.9370194,60.0583447 24.6417796,60.3581132 L23.5972314,61.4194818 L26.9377671,59.510364 C27.2956923,59.3061779 27.7488444,59.3913972 28.0081428,59.7116578 C28.2674411,60.0319184 28.2565068,60.4928843 27.9823152,60.8004903 L24.7494303,64.3798759 L31.9822114,60.2033653 C32.3573776,59.9848518 32.8372153,60.0878243 33.0896914,60.4410293 C33.3421675,60.7942342 33.2842923,61.2815718 32.9561138,61.5658195 L29.4843789,64.5934953 L36.1099428,60.7702135 C36.494422,60.5465475 36.9865792,60.6609381 37.2330036,61.0312431 C37.479428,61.4015481 37.3948974,61.8997031 37.0401121,62.1679905 L34.9913848,63.7238795 L36.8988205,62.6221419 C37.2821788,62.4020903 37.7704585,62.5163553 38.0163653,62.8836646 C38.262272,63.250974 38.1818734,63.7459585 37.8323539,64.0165548 L35.7651241,65.6144948 L37.3916589,64.6759153 C37.7620927,64.4694503 38.2282945,64.5710863 38.4791763,64.9130035 C38.7300581,65.2549208 38.6871216,65.730137 38.3790176,66.021549 L33.7904067,70.2266543 L38.1216652,67.7271398 C38.5024132,67.5069182 38.9885427,67.6172745 39.2368864,67.9803062 C39.4852301,68.3433379 39.4118973,68.8364127 39.0686549,69.1114604 L38.1267113,69.8633332 L38.5724524,69.6076628 C38.9519356,69.3938308 39.4318883,69.5051297 39.678528,69.8641567 C39.9251678,70.2231838 39.8568665,70.711115 39.5211242,70.9886194 L39.0535165,71.3670789 C39.4154485,71.1900611 39.8520778,71.2945931 40.0946062,71.6163229 C40.3371347,71.9380527 40.3174219,72.3865875 40.0476034,72.6857999 L36.7154779,76.3980669 L39.7818407,74.6268765 C40.1326557,74.4245696 40.577833,74.5010032 40.8410774,74.8087396 C41.1043217,75.1164759 41.1108732,75.5681196 40.8566657,75.883362 L38.6700109,78.5746294 C39.0777028,78.4497892 39.5143093,78.6497901 39.6860424,79.0400535 C39.8577754,79.4303168 39.7102901,79.8873439 39.3428277,80.1036057 L35.6120583,82.2566196 C35.4876437,82.3321115 35.3454591,82.373316 35.199958,82.3760454 L35.199958,82.3760454 Z" id="Path" fill="#C0DAF0"></path>
            <path d="M21.3903922,53.732559 C21.0464948,53.732559 20.7372021,53.523307 20.609418,53.2040318 C20.4816338,52.8847566 20.5611059,52.5198494 20.8100876,52.282629 L24.4954419,48.7907095 L19.4863205,51.6821399 C19.1029622,51.9021916 18.6146825,51.7879266 18.3687758,51.4206172 C18.122869,51.0533079 18.2032676,50.5583234 18.5527871,50.287727 L23.5181755,46.4493069 L17.3484449,50.006826 C16.9593447,50.2311906 16.4626139,50.1102143 16.2202539,49.7320608 C15.977894,49.3539072 16.075449,48.852051 16.4418242,48.5922286 L21.4021665,45.1003091 L15.4124145,48.5636338 C15.0233142,48.7879984 14.5265835,48.6670222 14.2842235,48.2888686 C14.0418635,47.9107151 14.1394186,47.4088588 14.5057938,47.1490364 L26.2918629,38.8094716 L12.6673217,46.6780646 C12.2706531,46.9200603 11.7529135,46.7946731 11.5109178,46.3980046 C11.2689221,46.001336 11.3943092,45.4835964 11.7909778,45.2416007 L12.0062792,45.1053552 L11.0391049,45.6621112 C10.6515315,45.8845384 10.1576831,45.7650341 9.91468269,45.390017 C9.67168232,45.0149999 9.76438617,44.5154264 10.1257561,44.2525599 L22.7915333,35.1005687 L8.85245018,43.14073 C8.46181654,43.3548733 7.97196284,43.2272647 7.7354582,42.8497498 C7.49895356,42.4722348 7.59785019,41.9757874 7.96096786,41.7177224 L11.4612975,39.3628634 L10.3511497,40.0020394 C9.96293066,40.2271268 9.46637678,40.1077666 9.22287118,39.7308271 C8.97936558,39.3538877 9.07469611,38.8521659 9.43948288,38.5908061 L15.1180571,34.5068078 C15.0355559,34.4404798 14.9659902,34.3595098 14.912848,34.2679578 C14.6806174,33.865714 14.8184281,33.3513714 15.2206617,33.1191231 L24.4954419,27.7550907 C24.883661,27.5300034 25.3802149,27.6493636 25.6237205,28.0263031 C25.8672261,28.4032425 25.7718955,28.9049643 25.4071088,29.1663241 L24.0463367,30.1452726 L31.4708706,25.8594293 C31.8621977,25.6426815 32.354719,25.7702016 32.5916899,26.1496239 C32.8286609,26.5290462 32.7271443,27.027577 32.3606709,27.284119 L28.8737976,29.6389779 L36.1889988,25.4153702 C36.5765722,25.1929429 37.0704207,25.3124472 37.313421,25.6874643 C37.5564214,26.0624815 37.4637175,26.5620549 37.1023476,26.8249215 L24.4332064,35.9785947 L42.1114691,25.7719631 C42.5081376,25.5299674 43.0258773,25.6553545 43.267873,26.0520231 C43.5098687,26.4486917 43.3844816,26.9664314 42.987813,27.2084271 L41.5446209,28.1335502 C41.8632968,28.1010803 42.1736626,28.2481639 42.3503191,28.5153738 C42.5929703,28.8937657 42.4951751,29.3960773 42.1282895,29.6557983 L30.3405383,37.9970452 L36.7827596,34.2797321 C37.1725605,34.0520418 37.6725938,34.1727041 37.9156558,34.5531098 C38.1587179,34.9335155 38.0581029,35.437965 37.6876983,35.6960116 L32.7374483,39.184567 L33.5061416,38.7405079 C33.888956,38.5220279 34.3755069,38.6361674 34.6212259,39.0020943 C34.8669449,39.3680212 34.7884617,39.8615797 34.441357,40.1332387 L29.4742866,43.9733409 L29.7905105,43.7899983 C30.159381,43.5767805 30.6294236,43.6730896 30.8847163,44.014195 C31.140009,44.3553004 31.0998908,44.833428 30.7913256,45.1272218 L26.2632682,49.4282035 C26.5805733,49.5287947 26.8086934,49.8070648 26.8450929,50.1379367 C26.8814925,50.4688085 26.7193214,50.790015 26.4314724,50.9571798 L21.8041745,53.6232166 C21.6783112,53.695535 21.5355508,53.7332563 21.3903922,53.732559 Z" id="Path" fill="#C384F8"></path>
            <path d="M56.9672651,92.3303719 C56.6100107,92.3299135 56.2920313,92.1038043 56.1742988,91.7665062 C56.0565662,91.4292082 56.1647765,91.0543392 56.44415,90.8316703 L57.9344393,89.6424666 L55.9496296,90.7963475 C55.5649139,91.0167672 55.0751566,90.9006554 54.8303394,90.5309858 C54.5855222,90.1613163 54.669746,89.66508 55.0228244,89.3968884 L58.1329203,87.062214 L54.8327536,88.9662856 C54.4458028,89.1863924 53.9543565,89.0668347 53.7117587,88.693573 C53.4691609,88.3203114 53.5594559,87.8226565 53.9177227,87.5584164 L58.0067671,84.5727916 L53.5947706,87.1177213 C53.2098205,87.3350915 52.7222938,87.2173246 52.4790172,86.8482001 C52.2357407,86.4790755 52.3197712,85.984616 52.6713295,85.7165803 L61.116863,79.3836917 L51.8740416,84.7191293 C51.4827145,84.9358771 50.9901932,84.808357 50.7532222,84.4289347 C50.5162513,84.0495124 50.6177679,83.5509816 50.9842413,83.2944396 L53.0682915,81.8882524 L50.7386631,83.2338861 C50.3519384,83.4573009 49.8580298,83.3394732 49.6138097,82.965539 C49.3695896,82.5916049 49.4602428,82.0919941 49.8202681,81.8276989 L60.9385666,73.688297 L48.7269407,80.7360535 C48.3360229,80.9595126 47.8384596,80.8354372 47.5982345,80.4545926 C47.3580094,80.073748 47.4603595,79.5712657 47.8304123,79.3147279 L55.9042145,73.7639889 L47.100406,78.8538484 C46.7065654,79.0777483 46.2061448,78.9494526 45.9686087,78.5636831 C45.7310725,78.1779135 45.8417893,77.6733123 46.2190159,77.4224305 L50.8362216,74.3947547 C50.470371,74.3951703 50.1462196,74.1590259 50.0344524,73.8106656 C49.9226852,73.4623054 50.0489446,73.081652 50.3467473,72.8691425 L69.6767754,59.0057513 C69.6779814,58.7064937 69.8381176,58.4304188 70.0972859,58.2807912 L73.177105,56.5028727 C73.564901,56.2837118 74.0563201,56.4049286 74.2977139,56.7792897 C74.5391076,57.1536508 74.4467429,57.6513003 74.0870898,57.914106 L65.2345021,64.2537228 L73.5219237,59.4683129 C73.9157642,59.244413 74.4161849,59.3727087 74.653721,59.7584782 C74.8912572,60.1442478 74.7805404,60.648849 74.4033137,60.8997308 L71.3756379,62.8912686 L73.6060258,61.6028244 C73.9969436,61.3793653 74.494507,61.5034407 74.734732,61.8842853 C74.9749571,62.2651299 74.872607,62.7676122 74.5025542,63.02415 L66.428752,68.574889 L73.493329,64.4942548 C73.8800537,64.27084 74.3739622,64.3886677 74.6181824,64.7626018 C74.8624025,65.1365359 74.7717493,65.6361468 74.411724,65.900442 L63.2951076,74.0415259 L72.976942,68.4520999 C73.3682691,68.2353521 73.8607904,68.3628722 74.0977614,68.7422945 C74.3347323,69.1217168 74.2332157,69.6202476 73.8667423,69.8767896 L71.7843742,71.2846588 L72.4100938,70.9230198 C72.7953877,70.7006574 73.2872062,70.8168022 73.5323197,71.1880377 C73.7774331,71.5592732 73.6910524,72.0571822 73.335217,72.3241609 L64.8896835,78.6570495 L70.9870862,75.1365353 C71.374037,74.9164285 71.8654834,75.0359862 72.1080811,75.4092479 C72.3506789,75.7825096 72.2603839,76.2801644 71.9021171,76.5444046 L67.8097086,79.5199371 L69.3100902,78.6553674 C69.6948059,78.4349477 70.1845632,78.5510595 70.4293804,78.9207291 C70.6741976,79.2903986 70.5899738,79.7866349 70.2368954,80.0548265 L66.9787798,82.5021978 C67.3648911,82.3841748 67.7803916,82.5571821 67.9686384,82.9143577 C68.1568852,83.2715334 68.0647554,83.7120834 67.7491551,83.9638924 L63.712254,87.185003 C63.8126298,87.2546763 63.8959973,87.3460931 63.9561501,87.4524477 C64.1886634,87.8542512 64.0516419,88.3684583 63.6500185,88.6012825 L57.3776834,92.2227192 C57.2525279,92.2935877 57.1110919,92.3303719 56.9672651,92.3303719 L56.9672651,92.3303719 Z" id="Path" fill="#C384F8"></path>
            <path d="M42.6160817,78.1810358 C42.2460075,78.1810358 41.9193638,77.9392874 41.8114277,77.5853033 C41.7034916,77.2313193 41.8396304,76.8483768 42.146792,76.641963 L53.0800658,69.2897569 L40.5724005,76.5090817 C40.1777837,76.7199854 39.6871212,76.5849897 39.4559275,76.2019071 C39.2247338,75.8188245 39.3339607,75.3217903 39.7044668,75.0709357 L41.5934001,73.8766858 L39.2772281,75.2223194 C38.881024,75.4647796 38.3632843,75.3401455 38.1208242,74.9439415 C37.878364,74.5477374 38.002998,74.0299977 38.3992021,73.7875375 L53.6687805,63.9173143 L37.3782025,73.3232939 C36.9834216,73.5528704 36.4775743,73.4254484 36.2386625,73.036246 C35.9997507,72.6470436 36.1150914,72.1383057 36.4984945,71.890194 L59.4011801,56.9873008 L35.0923073,71.0256244 C34.6961654,71.2475866 34.1953588,71.1150062 33.9609314,70.7261111 C33.7265039,70.337216 33.8431173,69.8324526 34.2243736,69.5857963 L50.6629712,59.2513295 L33.3211169,69.2662083 C32.922126,69.5040236 32.4058924,69.373365 32.1680771,68.974374 C31.9302617,68.575383 32.0609204,68.0591495 32.4599114,67.8213341 L38.6952415,63.9862781 L31.9401604,67.8852517 C31.5443158,68.0938688 31.0544307,67.9560152 30.8254713,67.5715785 C30.596512,67.1871418 30.7086524,66.6907393 31.0806368,66.4420596 L39.1376186,61.4850814 L30.5171527,66.4571979 C30.119899,66.6862615 29.6123688,66.554871 29.37617,66.1618178 C29.1399712,65.7687646 29.2621766,65.2589449 29.650901,65.0156878 L47.5057782,53.8755229 L28.7594187,64.6994639 C28.3634022,64.9257826 27.8591648,64.7951758 27.6228155,64.4050626 C27.3864663,64.0149495 27.5041651,63.5075438 27.8881209,63.2613179 L53.2264034,47.1809952 L26.6064048,62.5380398 C26.2097191,62.7500534 25.7164347,62.6124234 25.4868108,62.2256648 C25.257187,61.8389062 25.3725131,61.3399359 25.7485633,61.0931656 L29.9536686,58.5179591 L25.2792736,61.2092265 C24.8842186,61.4149603 24.3972689,61.2770055 24.1688267,60.8946327 C23.9403846,60.5122598 24.0496811,60.018088 24.418068,59.7677164 L37.1107578,51.9411744 L23.8394455,59.6028763 C23.4423124,59.8453364 22.9238197,59.7199493 22.6813596,59.3228163 C22.4388994,58.9256832 22.5642865,58.4071905 22.9614195,58.1647303 L46.4864606,43.2954779 L23.0673882,56.8190966 C22.673183,57.0358988 22.1781694,56.9040779 21.9439934,56.5199392 C21.7098174,56.1358004 21.8194192,55.6353979 22.1927263,55.3843147 L48.737033,38.4007353 L24.7712968,52.2372138 C24.5146973,52.3937576 24.1940744,52.4015158 23.9302037,52.2575659 C23.666333,52.113616 23.4993028,51.8398276 23.4920317,51.5393339 C23.4847606,51.2388403 23.6383533,50.9572936 23.8949529,50.8007499 L48.0440316,35.272137 L27.691322,47.0245653 C27.2958965,47.2387683 26.8019282,47.1039912 26.5700881,46.7186415 C26.338248,46.3332917 26.4505824,45.8337414 26.8250703,45.5847372 L33.9888877,41.1172334 L30.0764577,43.3762159 C29.682443,43.5963671 29.1849023,43.4662508 28.949109,43.0813928 C28.7133157,42.6965348 28.8233511,42.1941711 29.1984317,41.9431161 L47.0953599,30.3252511 L34.3572549,37.6791393 C33.9622035,37.89996 33.4632428,37.7685573 33.228199,37.3817993 C32.9931551,36.9950412 33.1063221,36.4916312 33.484275,36.2426753 L40.831435,31.5531419 L38.4563915,32.9340984 C38.2009938,33.092445 37.8805197,33.1025102 37.6156887,32.9605026 C37.3508577,32.818495 37.1819039,32.5459889 37.1724706,32.2456347 C37.1630373,31.9452805 37.3145576,31.6627092 37.5699553,31.5043626 L48.2290563,24.4397857 L45.1004579,26.246299 C44.7102525,26.4666265 44.2158241,26.342309 43.9762316,25.9636273 C43.7366391,25.5849455 43.8360396,25.0849116 44.2022474,24.8266554 L55.6687286,16.8907807 C55.4182268,16.7346034 55.2679465,16.4585245 55.2727682,16.1633649 C55.2775899,15.8682052 55.4368078,15.5971822 55.6922772,15.4492706 L68.1797579,8.24003804 C68.5692852,8.02237731 69.060995,8.14681532 69.300094,8.52356381 C69.539193,8.9003123 69.4424414,9.39821032 69.0796504,9.65799955 L62.0773091,14.4871425 L70.8542049,9.42083161 C71.2478984,9.19256706 71.7517439,9.31886506 71.9912155,9.70584391 C72.2306871,10.0928228 72.1189043,10.6000861 71.738959,10.8505674 L61.0798581,17.9151443 L72.6657642,11.2357551 C73.0608157,11.0149343 73.5597763,11.146337 73.7948201,11.5330951 C74.029864,11.9198532 73.916697,12.4232631 73.5387441,12.672219 L66.1915841,17.3583884 L74.1829662,12.749593 C74.5769809,12.5294418 75.0745216,12.6595582 75.3103149,13.0444161 C75.5461082,13.4292741 75.4360728,13.9316378 75.0609922,14.1826929 L57.1707922,25.7887835 L76.2266474,14.788228 C76.6239012,14.5591645 77.1314313,14.690555 77.3676301,15.0836082 C77.6038289,15.4766613 77.4816235,15.9864811 77.0928991,16.2297381 L69.9105792,20.7090163 L77.6681575,16.2297381 C78.0641297,15.9976864 78.5730251,16.1259428 78.8117169,16.5179481 C79.0504087,16.9099535 78.9307466,17.420938 78.5428194,17.6662021 L54.4004688,33.1880868 L79.9035915,18.4685362 C80.2995637,18.2364845 80.8084591,18.3647408 81.0471509,18.7567462 C81.2858427,19.1487516 81.1661806,19.6597361 80.7782534,19.9050002 L54.2255364,36.8868974 L82.1844406,20.7392931 C82.5796715,20.5219486 83.0759881,20.6550866 83.3093777,21.0410599 C83.5427674,21.4270331 83.4301209,21.9283978 83.0540564,22.1774391 L59.5441536,37.029871 L84.2264397,22.7812922 C84.6220706,22.5699806 85.1139108,22.7063245 85.3442796,23.0911707 C85.5746484,23.4760169 85.4624716,23.9739253 85.0893273,24.2228023 L72.3697248,32.0930774 L85.7907389,24.3556836 C86.1901944,24.1183328 86.7064279,24.2497446 86.9437787,24.6492 C87.1811296,25.0486555 87.0497179,25.564889 86.6502624,25.8022398 L82.4855261,28.3505337 L87.1145061,25.6794508 C87.5089129,25.4657089 88.0016534,25.59915 88.2343031,25.9827076 C88.4669529,26.3662653 88.3576066,26.8649065 87.9858039,27.1159147 L62.6475213,43.1945554 L89.2658379,27.8274186 C89.6612634,27.6132155 90.1552317,27.7479926 90.3870718,28.1333424 C90.6189119,28.5186921 90.5065775,29.0182424 90.1320896,29.2672466 L72.2772125,40.4040475 L90.545872,29.8576434 C90.9423594,29.6426495 91.4378539,29.7786911 91.6689749,30.1659993 C91.9000959,30.5533076 91.7845511,31.0539786 91.4070776,31.3008355 L83.3332754,36.2645418 L90.3356167,32.2276408 C90.7346077,31.9898255 91.2508412,32.1204841 91.4886565,32.5194751 C91.7264719,32.9184661 91.5958132,33.4346996 91.1968223,33.6725149 L84.9732664,37.4957967 L88.6216158,35.3898799 C89.0177577,35.1679177 89.5185643,35.3004981 89.7529917,35.6893932 C89.9874192,36.0782883 89.8708058,36.5830517 89.4895495,36.829708 L73.0728184,47.1490364 L86.0413632,39.6622669 C86.4361441,39.4326905 86.9419914,39.5601124 87.1809032,39.9493148 C87.419815,40.3385172 87.3044744,40.8472552 86.9210712,41.0953668 L63.9998832,56.0016241 L81.8295297,45.7142545 C82.2229531,45.5007113 82.7147029,45.6327596 82.9482342,46.0146572 C83.1817655,46.3965548 83.0752309,46.8944554 82.7058737,47.1473544 L67.4547977,57.0074853 L77.3115646,51.3087266 C77.7067955,51.0913822 78.203112,51.2245202 78.4365017,51.6104934 C78.6698913,51.9964666 78.5572449,52.4978314 78.1811804,52.7468726 L73.8701064,55.4734629 C74.2401806,55.4733753 74.5668243,55.7152071 74.6747604,56.0691911 C74.7826965,56.4231751 74.6465577,56.8061176 74.3393961,57.0125314 L63.4279889,64.3546453 L65.6819253,63.0527447 C66.0838156,62.8242474 66.5947868,62.9629728 66.8259449,63.3633386 C67.0571029,63.7637043 66.92177,64.2755845 66.5229464,64.5093932 L43.0365922,78.0683347 C42.9089289,78.1426051 42.7637766,78.1810358 42.6160817,78.1810358 L42.6160817,78.1810358 Z" id="Path" fill="#D4E8FA"></path>
            <path d="M62.4069893,46.1297189 C62.0586284,46.1297189 61.7463642,45.9148341 61.62176,45.5895202 C61.4971558,45.2642062 61.5860067,44.8957458 61.8451873,44.6629782 L67.7558833,39.3477251 L59.1085047,44.3417081 C58.7194045,44.5660727 58.2226737,44.4450964 57.9803137,44.0669429 C57.7379537,43.6887894 57.8355088,43.1869331 58.201884,42.9271107 L58.7300452,42.5536973 L57.7325943,43.1289558 C57.348529,43.3404422 56.8664273,43.2213954 56.6249509,42.8554421 C56.3834745,42.4894888 56.4636485,41.9994212 56.8091531,41.7294967 L61.3321644,38.3334537 L56.3314532,41.2198379 C55.9438798,41.4422652 55.4500313,41.3227609 55.2070309,40.9477438 C54.9640306,40.5727266 55.0567344,40.0731532 55.4181043,39.8102866 L58.0656386,37.8927586 L55.5223909,39.3611814 C55.1341719,39.5862687 54.637618,39.4669086 54.3941124,39.0899691 C54.1506068,38.7130296 54.2459373,38.2113079 54.6107241,37.9499481 L56.0404599,36.9255844 L55.125429,37.4537456 C54.748404,37.6759558 54.263974,37.5718867 54.0114761,37.2144375 C53.7589781,36.8569882 53.8228085,36.3656344 54.1582548,36.0845633 L59.5407895,31.4976345 L55.3895096,33.8928625 C55.0226623,34.1044265 54.5557301,34.0102293 54.299597,33.6729874 C54.0434639,33.3357455 54.0780314,32.8606624 54.3802843,32.5640492 L57.2767609,29.7382184 C56.907698,29.7125663 56.5987371,29.4487546 56.5155779,29.0882689 C56.4324186,28.7277832 56.5945918,28.3552872 56.9151218,28.1705552 L61.8031362,25.3480885 C62.1699834,25.1365244 62.6369157,25.2307216 62.8930488,25.5679635 C63.1491819,25.9052054 63.1146144,26.3802885 62.8123615,26.6769017 L60.3229391,29.0990424 L66.6793763,25.4305085 C67.0561882,25.2122399 67.5372921,25.3177026 67.7882449,25.6735833 C68.0391977,26.0294641 67.9769911,26.5180474 67.6448685,26.7996908 L62.2623337,31.3883017 L69.8903947,26.9847155 C70.2786138,26.7596281 70.7751677,26.8789883 71.0186733,27.2559278 C71.2621789,27.6328672 71.1668483,28.134589 70.8020616,28.3959488 L69.3891462,29.4051741 L71.338633,28.2798879 C71.7262064,28.0574606 72.2200549,28.1769649 72.4630553,28.5519821 C72.7060556,28.9269992 72.6133518,29.4265726 72.2519819,29.6894392 L69.5926733,31.6153774 L72.5497033,29.9064226 C72.9340892,29.6907013 73.4198156,29.8083517 73.6628874,30.1760531 C73.9059593,30.5437545 73.8239008,31.0367435 73.4748265,31.3058817 L68.9619075,34.6968786 L73.5034212,32.0695288 C73.8925214,31.8451642 74.3892522,31.9661405 74.6316122,32.344294 C74.8739722,32.7224475 74.7764171,33.2243038 74.4100419,33.4841262 L73.8818807,33.8592216 C74.255782,33.6543623 74.7238236,33.7616928 74.9711031,34.1090001 C75.2183825,34.4563075 75.1666608,34.9337043 74.8507369,35.2199937 L68.9366768,40.5335648 L73.4580061,37.9263995 C73.8289623,37.7109649 74.3026129,37.8092478 74.5572284,38.1544891 C74.8118439,38.4997305 74.7658166,38.9812758 74.4504109,39.2720332 L71.9290298,41.6184819 C72.2429503,41.7228881 72.4665007,42.0016359 72.5002455,42.3307378 C72.5339902,42.6598397 72.37166,42.978154 72.0854597,43.1440941 L67.1923992,45.9682429 C66.8216115,46.1805558 66.3505558,46.0811077 66.0972312,45.7370336 C65.8439067,45.3929595 65.8888308,44.9136212 66.2016764,44.6226092 L67.7945702,43.1508223 L62.8308639,46.0102939 C62.7030194,46.0878107 62.5564974,46.1290927 62.4069893,46.1297189 L62.4069893,46.1297189 Z" id="Path" fill="#6FD5D2"></path>
            <path d="M90.6282921,31.9988912 C90.3926583,31.9999288 90.1676609,31.900881 90.0093006,31.7263922 C89.7428453,31.4362491 89.7134845,31.0000312 89.9386548,30.6767979 L90.744353,29.522917 L89.4390883,30.2764719 C89.0846752,30.4814556 88.6341448,30.4014353 88.3719979,30.0869421 C88.109851,29.7724489 88.1122668,29.3148737 88.3777197,29.003166 L91.7098451,25.0974642 L86.9866709,27.8240545 C86.6153978,28.0462343 86.1361298,27.9504622 85.8787562,27.60266 C85.6213826,27.2548578 85.6698952,26.768528 85.9909019,26.4784208 L91.0454385,21.7316979 L84.6133094,25.4456469 C84.2362456,25.6611085 83.7571388,25.5540472 83.5076556,25.1985771 C83.2581723,24.8431071 83.3203655,24.3561395 83.6511813,24.0747826 L90.1993713,18.5442281 L82.281999,23.1143365 C81.8952743,23.3377513 81.4013658,23.2199236 81.1571456,22.8459895 C80.9129255,22.4720554 81.0035787,21.9724445 81.363604,21.7081493 L85.67636,18.540864 L80.6302337,21.457525 C80.2484797,21.6732175 79.7650688,21.5594224 79.5196186,21.1960856 C79.2741684,20.8327489 79.3490493,20.3418027 79.6916542,20.0681582 L88.9967112,12.7966902 L78.2013649,19.0286562 C77.813208,19.2264682 77.3382475,19.0951195 77.1068792,18.7259799 C76.8755109,18.3568402 76.9643357,17.8721238 77.3115646,17.6090127 L78.3073335,16.9361958 L76.9112385,17.743576 C76.5203207,17.9670351 76.0227574,17.8429597 75.7825323,17.4621151 C75.5423072,17.0812705 75.6446573,16.5787882 76.0147101,16.3222504 L80.4788499,13.2542056 L75.3620778,16.2078716 C74.9805658,16.4264529 74.4950734,16.3142703 74.2481318,15.9504723 C74.0011901,15.5866743 74.0761541,15.0940607 74.4201342,14.8201868 L83.2575835,7.8548504 L72.9618036,13.7991873 C72.5826862,13.9931297 72.1184353,13.8730953 71.8808354,13.5196975 C71.6432354,13.1662998 71.7072777,12.6910781 72.0299523,12.4131845 L75.8549161,9.48306717 L71.2780795,12.1238733 C70.9690441,12.3021798 70.5811351,12.2660904 70.3102966,12.033835 C70.039458,11.8015796 69.9446398,11.4237102 70.0737373,11.0910994 L70.9904503,8.73624047 L69.0258251,9.86993686 C68.6264659,10.0788479 68.1334124,9.93580875 67.9078615,9.54560571 C67.6823106,9.15540266 67.8044501,8.6567606 68.184804,8.41497042 L72.2217051,6.081978 C72.5306585,5.90493896 72.9176202,5.94165429 73.187765,6.17363879 C73.4579098,6.40562329 73.5526816,6.78259236 73.4243652,7.11475186 L72.5076523,9.46961083 L86.1893829,1.56401286 C86.572436,1.34843873 87.0568866,1.46419207 87.3011104,1.8296461 C87.5453342,2.19510012 87.4669507,2.68698139 87.1212342,2.95842578 L83.3029986,5.88686111 L92.5727328,0.53460308 C92.9542447,0.316021758 93.4397371,0.428204398 93.6866787,0.792002364 C93.9336204,1.15580033 93.8586564,1.64841401 93.5146763,1.92228783 L84.675545,8.88089609 L97.9451753,1.22087627 C98.3349212,1.00621055 98.8244312,1.13226721 99.0620163,1.50848073 C99.2996014,1.88469425 99.2030387,2.38086551 98.8417037,2.64051982 L94.3775639,5.71529282 L98.7054583,3.21746027 C99.0981244,2.98988151 99.600531,3.11490247 99.8407438,3.49996944 C100.080957,3.88503641 99.9723201,4.39123869 99.5952586,4.64383199 L98.5944436,5.31664883 C98.9789676,5.11027451 99.4574598,5.23230206 99.6961876,5.5976213 C99.9349154,5.96294054 99.8545556,6.4501651 99.5111565,6.71947196 L90.2044174,13.989258 L98.0696464,9.44774429 C98.4563712,9.22432951 98.9502797,9.34215721 99.1944998,9.71609133 C99.43872,10.0900254 99.3480667,10.5896363 98.9880414,10.8539315 L94.6736034,14.0245809 L97.533075,12.3728155 C97.9103595,12.1535868 98.3926439,12.2593178 98.6436109,12.6162778 C98.8945778,12.9732378 98.8308576,13.4628469 98.4968851,13.7436799 L91.945331,19.2742344 L96.5003011,16.6435205 C96.8715742,16.4213407 97.3508422,16.5171128 97.6082158,16.864915 C97.8655894,17.2127171 97.8170768,17.6990469 97.49607,17.9891542 L92.4499437,22.732513 L95.1058882,21.1984906 C95.4603012,20.9935068 95.9108317,21.0735272 96.1729786,21.3880203 C96.4351254,21.7025135 96.4327097,22.1600887 96.1672568,22.4717964 L92.8267211,26.3741342 L93.1849961,26.167243 C93.5262295,25.9704701 93.9583223,26.036898 94.2246934,26.3270811 C94.4910645,26.6172642 94.5203434,27.0534518 94.2951439,27.3766313 L92.6719732,29.6961674 C92.7302255,29.7514189 92.7800921,29.8148855 92.8199929,29.8845561 C93.0522235,30.2867999 92.9144128,30.8011426 92.5121792,31.0333908 L91.0488026,31.8744119 C90.9224801,31.9531939 90.7771438,31.9962134 90.6282921,31.9988912 L90.6282921,31.9988912 Z" id="Path" fill="#C384F8"></path>
            <g id="Group" transform="translate(-0.000000, -0.000000)" fill="#262626">
                <path d="M66.0849847,46.0251169 C76.6986705,44.4557716 78.5320964,28.7185855 68.1152095,25.3208604 C50.3831215,19.872726 47.2612513,48.6945178 66.0849847,46.0251169 Z M56.6201337,30.7437642 C60.8504696,22.8179817 73.0385468,27.0029025 72.7795123,35.566179 C72.0394138,50.9450901 49.8499141,43.8283699 56.6201337,30.7370361 L56.6201337,30.7437642 Z" id="Shape"></path>
                <path d="M0.150615518,94.46793 C-2.50364695,108.169845 30.7856487,88.6531104 32.0875493,81.1797973 C35.3742596,84.1452375 39.7677536,81.1797973 40.6323233,77.4338895 C41.8757323,77.9167817 43.2377216,78.0048793 44.532979,77.6861958 C49.1501846,81.7886965 51.3587059,88.5757365 56.1979411,92.0256049 C69.9637738,88.917191 76.6280247,69.3550411 74.4211854,56.3612657 C87.9750809,42.0538155 99.0614205,23.5833109 100,3.45431282 C94.7015673,-9.42508371 48.5547417,17.2470582 42.7247837,25.6808174 C29.1692062,23.7397408 14.1653905,30.0137579 6.77617944,41.5542489 C8.45822156,47.5389548 17.5160184,49.4598469 21.3880794,54.5396141 C20.8266973,56.1122219 21.0392387,57.8574298 21.9616557,59.2493321 C18.0139029,60.2955623 14.7288746,64.5258982 18.6379405,67.790742 C9.04189018,73.0757183 1.34486543,83.4825129 0.150615518,94.46793 Z M62.2852515,87.2687897 C60.7192703,88.2881073 59.5939841,91.270368 57.5873079,90.8683599 C53.8363539,86.518599 51.0374359,81.0872849 46.8794277,76.9074103 C56.3179743,72.3339339 64.8885749,66.1527198 72.207618,58.6404328 C73.4075601,69.1954005 69.7579972,79.7253172 62.2835695,87.2738359 L62.2852515,87.2687897 Z M90.2424736,1.84628055 C105.364032,-2.60944903 93.1019453,23.4992088 90.7319479,29.936384 L69.2976851,8.51557757 C75.8898716,5.21655454 82.9564711,2.96638855 90.2424736,1.84628055 L90.2424736,1.84628055 Z M67.1867223,9.58367432 L89.6857177,32.0776236 C79.7768076,50.7213785 64.2818355,67.5552561 45.0325455,76.5710018 C39.8737223,76.9595536 37.2379623,70.4382763 33.4264548,67.7234603 C28.4391999,62.6033241 19.5479253,57.3116195 25.8959522,49.6179589 C35.6198061,32.6536544 49.9312748,18.7759372 67.1867223,9.57862819 L67.1867223,9.58367432 Z M9.95355701,39.6669977 C17.9466212,30.5503294 29.2650826,24.9642675 41.5019391,26.8498367 C33.63009,34.1750501 27.1101149,42.8296324 22.2408747,52.416877 C19.5967045,48.2386843 6.9864347,44.9687944 9.95355701,39.6669977 L9.95355701,39.6669977 Z M20.7556315,61.8060361 C21.5613297,61.404028 22.3956226,61.0524812 23.2265514,60.6975703 C28.4274256,65.7924759 33.3776756,71.1834209 38.6878826,76.1723579 C36.946969,82.5809384 33.7309045,80.3623248 30.5434346,76.379249 C28.1885757,72.3894451 16.0358213,66.4703389 20.7556315,61.8060361 Z M19.4099978,68.5560711 L30.6998645,79.8459379 C32.0892313,81.1915716 13.6792803,99.0901818 2.54247942,97.4182319 C1.95544672,85.8693307 9.77862463,74.5239566 19.4083158,68.5644813 L19.4099978,68.5560711 Z" id="Shape"></path>
            </g>
        </g>
    </g>
</svg>