<?xml version="1.0" encoding="UTF-8"?>
<svg width="841px" height="773px" viewBox="0 0 841 773" version="1.1" xmlns="http://www.w3.org/2000/svg" xmlns:xlink="http://www.w3.org/1999/xlink">
    <title>Group 109</title>
    <g id="Page-1" stroke="none" stroke-width="1" fill="none" fill-rule="evenodd">
        <g id="Group-109" transform="translate(1.000000, 0.000000)">
            <g id="Group-108" transform="translate(23.000000, 661.000000)" stroke-width="10">
                <path d="M0,112 L0,90 C-6.08718376e-15,40.2943725 40.2943725,-1.80985863e-12 90,-1.8189894e-12 L817,-1.8189894e-12 L817,-1.8189894e-12" id="Path-12" stroke="#C384F8"></path>
                <path d="M20,112 L20,90 C20,51.3400675 51.3400675,20 90,20 L817,20 L817,20" id="Path-12" stroke="#3FA2FF"></path>
                <path d="M40,112 L40,90 C40,62.3857625 62.3857625,40 90,40 L817,40 L817,40" id="Path-12" stroke="#F5EC83"></path>
                <path d="M60,112 L60,90 C60,73.4314575 73.4314575,60 90,60 L817,60 L817,60" id="Path-12" stroke="#6FD5D2"></path>
            </g>
            <g id="Group-108" transform="translate(606.000000, 56.000000) scale(1, -1) translate(-606.000000, -56.000000) translate(372.000000, -0.000000)" stroke-width="10">
                <path d="M0,112 L0,90 C-6.08718376e-15,40.2943725 40.2943725,-1.80985863e-12 90,-1.8189894e-12 L468,-1.8189894e-12 L468,-1.8189894e-12" id="Path-12" stroke="#C384F8"></path>
                <path d="M20,112 L20,90 C20,51.3400675 51.3400675,20 90,20 L467.595436,20 L467.595436,20" id="Path-12" stroke="#3FA2FF"></path>
                <path d="M40,112 L40,90 C40,62.3857625 62.3857625,40 90,40 L467.595436,40 L467.595436,40" id="Path-12" stroke="#F5EC83"></path>
                <path d="M60,112 L60,90 C60,73.4314575 73.4314575,60 90,60 L467.595436,60 L467.595436,60" id="Path-12" stroke="#6FD5D2"></path>
            </g>
            <polygon id="bg-4" stroke="#C384F8" stroke-linecap="round" stroke-linejoin="round" points="27.1368982 325 29.3849773 314.187799 36.7213423 322.407982 41.3881135 317.740845 33.1861377 310.383831 44 308.135576 42.2712874 301.719517 31.7835973 305.214851 35.2811667 294.726339 28.8656108 293 26.6175318 303.812201 19.2610946 295.612091 14.5943233 300.279228 22.8138623 307.616169 12 309.864424 13.7287126 316.280483 24.1988396 312.802713 20.7213423 323.273661"></polygon>
            <path d="M726.014768,406.544382 C728.534056,404.311649 732.430239,404.483866 734.732009,406.929696 C736.665332,408.921245 736.933716,411.950088 735.379368,414.235448 C734.787184,415.107205 733.983462,415.822955 733.039518,416.319184 C732.082429,416.817795 731.003151,417.050188 729.919718,416.990948 C728.275623,416.94359 726.723692,416.239688 725.627392,415.044099 L725.627392,415.044099 C724.51413,413.868128 723.932555,412.309982 724.006237,410.714664 C724.07992,409.119346 724.802781,407.618479 726.014768,406.544382 Z M727.119697,360 L738,360.479107 L735.238977,400.082772 L726.183757,399.682248 L727.119697,360 Z" id="bg-10" stroke="#6FD5D2" stroke-linecap="round" stroke-linejoin="round"></path>
            <path d="M41.5025979,566.950712 C44.0762046,567.416145 46.1361106,568.347012 47.6823158,569.743313 C49.2008131,571.095742 50.3053351,572.846744 50.8691316,574.795382 C51.4097226,576.674778 51.5302574,578.647398 51.2244138,580.575017 L51.1523474,580.98734 L50.6420486,583.909416 C50.2969849,585.968042 49.4682241,587.916497 48.2232325,589.596167 C47.0068407,591.229565 45.3573543,592.493676 43.4595936,593.246858 C41.5153554,594.035556 39.2734428,594.204805 36.733856,593.754603 C34.1942692,593.304402 32.1437187,592.373535 30.5822045,590.962003 C29.057011,589.608875 27.9462711,587.85519 27.3775283,585.902317 C26.8382312,584.030917 26.7162704,582.066623 27.0180535,580.14648 L27.0892095,579.735747 L27.5995083,576.81367 C27.9393202,574.745994 28.7712935,572.789192 30.0259788,571.10661 C31.2521623,569.472877 32.9101101,568.209931 34.8151327,567.458457 C36.7712779,566.678221 39.000433,566.508973 41.5025979,566.950712 Z M36.4531917,574.290175 C35.6026306,575.284534 35.0165659,576.473335 34.7460358,577.747536 L34.6850065,578.067802 L34.1747077,580.989878 C33.9158018,582.363405 34.0312128,583.780855 34.5089534,585.095002 C34.9648203,586.403293 36.0704676,587.213993 37.8258953,587.527103 C39.5813231,587.840213 40.8970434,587.463635 41.7730562,586.397369 C42.5885873,585.394196 43.1494986,584.212358 43.4107545,582.951718 L43.4697996,582.634974 L43.9979588,579.712898 C44.2563235,578.335333 44.1686775,576.915595 43.7428094,575.579849 C43.3226635,574.268172 42.2059597,573.452394 40.3926981,573.132515 C38.6900012,572.82956 37.3768324,573.215446 36.4531917,574.290175 Z M48.2002691,537.021645 L55,538.225002 L6.79973093,586.864495 L3.55271368e-15,585.661138 L48.2002691,537.021645 Z M18.8887085,530.240702 C21.4453053,530.692596 23.4984072,531.619232 25.0480145,533.02061 C26.5767794,534.367733 27.6868739,536.121433 28.2475877,538.075217 C28.7746681,539.956614 28.8858866,541.927584 28.5756656,543.852833 L28.5027371,544.264637 L27.9924383,547.186713 C27.650207,549.248274 26.8250874,551.200737 25.5838282,552.886158 C24.3764023,554.516236 22.7264424,555.769533 20.8278438,556.498768 C18.8768015,557.270541 16.6408425,557.43302 14.1199666,556.986203 C11.5616688,556.536002 9.50601534,555.613598 7.95300612,554.21899 C6.42379086,552.874631 5.30904683,551.126373 4.73812396,549.177076 C4.19097748,547.307196 4.06539875,545.341968 4.3681625,543.421335 L4.43959918,543.010505 L4.94989794,540.088429 C5.29681355,538.01758 6.13764003,536.059664 7.40188347,534.378829 C8.6340338,532.749873 10.2963539,531.493112 12.2037948,530.748448 C14.158239,529.96652 16.3865436,529.797271 18.8887085,530.240702 Z M13.8290963,537.582704 C12.9956113,538.581197 12.4200606,539.765298 12.1500793,541.031874 L12.0889775,541.350177 L11.5786788,544.272253 C11.3133931,545.649227 11.4226202,547.071717 11.895064,548.392609 C12.3662399,549.69413 13.4718872,550.498907 15.2120059,550.806939 C16.9521247,551.114971 18.2584895,550.736701 19.1311004,549.672128 C19.9466314,548.668954 20.5075428,547.487116 20.7687987,546.226476 L20.8278438,545.909733 L21.3432455,542.987656 C21.6003422,541.610014 21.5127153,540.190585 21.0880961,538.854607 C20.6730531,537.542931 19.5674058,536.727999 17.7711542,536.409812 C16.0497464,536.105164 14.7357271,536.496128 13.8290963,537.582704 Z" id="bg-16" stroke="#6FD5D2" stroke-linecap="round" stroke-linejoin="round"></path>
            <polygon id="bg-22" stroke="#FFE15E" stroke-linecap="round" stroke-linejoin="round" points="779 525 771.069826 526.5613 766.859047 544.914328 766.460901 544.991876 755.877256 529.549483 748 531.100443 763.709153 553 772.281905 551.314623"></polygon>
            <path d="M750.825283,251.75871 C755.554951,251.192154 760.520762,249.640465 765.722717,247.103645 C767.842442,246.072993 769.881693,244.885827 771.823376,243.552097 C773.624334,242.325089 775.344563,240.9846 776.973515,239.538847 C778.218217,238.466819 779.355817,237.277429 780.370416,235.987299 L775.182052,230.748765 C774.553468,231.42525 773.619087,232.310601 772.378908,233.404816 C770.995666,234.61426 769.549635,235.750626 768.046777,236.809228 C766.362677,237.993058 764.583947,239.037496 762.72845,239.932054 C758.630764,241.931069 754.742039,243.155507 751.062276,243.60537 C747.382513,244.055233 743.95928,243.747432 740.792577,242.681967 C737.529201,241.552956 734.566427,239.700031 732.128316,237.263319 C729.512048,234.716352 727.218567,231.445545 725.247872,227.450899 C723.411389,223.716699 722.257853,220.052685 721.787264,216.458857 C721.309495,213.015864 721.562996,209.511376 722.531372,206.172051 C723.540806,202.828129 725.302063,199.75701 727.681511,197.191707 C730.149976,194.467162 733.407568,192.118067 737.454288,190.144421 C739.96134,188.901755 742.615417,187.977869 745.354056,187.394507 C747.864156,186.856374 750.441193,186.696463 752.998993,186.920122 C755.44494,187.140802 757.831803,187.793671 760.047625,188.848105 C762.341384,189.961667 764.419588,191.469708 766.18651,193.302762 C768.173172,195.382934 769.808274,197.769698 771.028303,200.370343 C772.727178,203.7663 773.923186,206.641362 774.616327,208.995532 C775.309468,211.349701 775.509085,213.258235 775.21518,214.721135 C774.963512,216.097989 774.053384,217.266257 772.776445,217.851571 C771.718046,218.369082 770.710613,218.392759 769.754147,217.922602 C768.79768,217.452445 768.006854,216.606838 767.381668,215.385782 L755.81233,191.889753 L748.901307,195.261187 L750.259558,198.023784 L749.912987,198.191214 C749.291199,197.600135 748.30755,197.252591 746.959493,197.156192 C745.409657,197.083438 743.858656,197.273007 742.372531,197.716829 C740.564553,198.22903 738.85317,199.032872 737.306486,200.096366 C735.679926,201.18586 734.249047,202.539965 733.07374,204.102005 C731.835851,205.745538 730.923464,207.608573 730.38527,209.591684 C729.798271,211.76442 729.625401,214.027407 729.875608,216.263522 C730.111751,218.656589 730.881342,221.176497 732.184379,223.823246 C733.361461,226.304627 734.921192,228.587451 736.807017,230.588945 C738.40277,232.282535 740.313695,233.651541 742.433691,234.619953 C744.375939,235.495614 746.483743,235.947968 748.615896,235.94671 C750.775968,235.93541 752.910636,235.48208 754.887293,234.614879 C756.664392,233.87472 758.305731,232.846007 759.744376,231.570695 C760.954419,230.501857 761.951972,229.216221 762.685128,227.780685 C763.3324,226.453083 763.60337,225.204122 763.49804,224.033802 L763.796193,223.889203 C764.530775,224.968139 765.568798,225.807343 766.780266,226.301719 C768.039178,226.781008 769.404855,226.912489 770.732699,226.682242 C772.359205,226.403083 773.922787,225.837853 775.350241,225.013014 C777.959712,223.617763 779.866699,221.917248 781.071202,219.911469 C782.280584,217.89026 782.943435,215.591668 782.995177,213.239632 C783.047194,210.617357 782.678136,208.003642 781.901951,205.497256 C781.043823,202.646093 779.945863,199.871989 778.619725,197.204391 C776.755333,193.327555 774.191695,189.824468 771.056334,186.869386 C768.081915,184.075841 764.549715,181.937381 760.6898,180.593292 C756.821462,179.240322 752.659218,178.749024 748.20307,179.1194 C743.746921,179.489776 739.096251,180.851202 734.25106,183.20368 C729.115361,185.710059 724.9047,188.702661 721.619076,192.181487 C718.333452,195.660313 715.982209,199.490066 714.565347,203.670746 C713.15474,207.943571 712.689648,212.469669 713.202,216.938316 C713.694674,221.602682 715.142965,226.396427 717.546873,231.31955 C720.040821,236.342454 722.968832,240.459713 726.330905,243.671327 C729.692979,246.882942 733.430503,249.172845 737.543479,250.541036 C741.666649,251.909228 746.093916,252.315119 750.825283,251.75871 Z M758.786211,217.912455 C759.035945,219.793084 758.732696,221.4454 757.876463,222.869401 C757.02023,224.293403 755.544757,225.517842 753.450045,226.542717 C751.302667,227.589578 749.348961,227.907526 747.588926,227.496561 C745.792373,227.072615 744.158142,226.138448 742.884742,224.807532 C741.4814,223.374881 740.321239,221.724738 739.449617,219.921616 C738.568335,218.209012 738.075937,216.324516 738.007272,214.401495 C737.948728,212.675687 738.391103,210.969655 739.281428,209.487675 C740.166542,208.016319 741.533287,206.83247 743.381663,205.936126 C745.430506,204.936619 747.244055,204.480837 748.82231,204.56878 C750.421737,204.663541 751.934571,205.323883 753.088184,206.430806 C754.352147,207.587596 755.535414,209.283883 756.637983,211.519668 C757.825497,213.897514 758.541573,216.024215 758.786211,217.899771 L758.786211,217.912455 Z" id="bg-5" stroke="#3FA2FF" stroke-linecap="round" stroke-linejoin="round"></path>
            <polygon id="bg-9" stroke="#3FA2FF" stroke-linecap="round" stroke-linejoin="round" points="89.3286219 466.109393 88 473.585771 107.813685 477 120 408.414229 100.186315 405 98.8525538 412.504218 109.129457 414.275872 99.6055252 467.881046"></polygon>
            <path d="M372.993035,183.000909 C375.730379,182.953085 378.140048,184.796752 378.809383,187.451069 C379.063539,188.464481 379.063539,189.524956 378.809383,190.538368 C378.549785,191.560558 378.013414,192.491424 377.2592,193.228691 C376.144855,194.379566 374.605084,195.019906 373.003151,194.998641 C371.391953,195.033625 369.839887,194.391606 368.724342,193.228691 C367.582601,192.119222 366.957989,190.582209 367.002197,188.990926 C367.002197,185.682731 369.684387,183.000909 372.993035,183.000909 Z M370.993006,163.000898 C373.731102,162.953365 376.141035,164.797897 376.809382,167.452678 C377.063539,168.465883 377.063539,169.526142 376.809382,170.539347 C376.550131,171.560903 376.014702,172.491456 375.26172,173.229122 C374.144532,174.377125 372.605184,175.016775 371.003121,174.998711 C369.392091,175.032752 367.840379,174.391013 366.724291,173.229122 C365.583071,172.119525 364.958553,170.583066 365.002138,168.992221 C365.003532,165.684869 367.68451,163.003687 370.993006,163.000898 Z" id="bg-17" stroke="#C384F8" stroke-linecap="round" stroke-linejoin="round"></path>
            <polygon id="bg-21" stroke="#3FA2FF" stroke-linecap="round" stroke-linejoin="round" points="629.591343 545.380093 626.501513 536 596 564.638837 598.503607 572.248276 640 577 636.91273 567.622477 608.03933 565.119406 607.888294 564.659396"></polygon>
            <polygon id="bg-19" stroke="#3FA2FF" stroke-linecap="round" stroke-linejoin="round" points="257.171254 549.912505 258.722768 564.635273 244 566.186787 244.909949 574.828746 259.635273 573.274676 261.189343 588 269.828746 587.087495 268.277232 572.364727 283 570.813213 282.087495 562.171254 267.364727 563.722768 265.813213 549"></polygon>
            <path d="M412.793601,536.959139 L448.42731,544.730346 L446.633709,553 L411,545.228793 L412.793601,536.959139 Z M416.262616,519 L452,526.679102 L450.227657,534.972817 L414.490272,527.293715 L416.262616,519 Z" id="bg-20" stroke="#6FD5D2" stroke-linecap="round" stroke-linejoin="round"></path>
            <path d="M149.408423,215.824061 L149.232057,218.877897 C149.103896,221.273849 148.792223,223.656177 148.299833,226.003515 C147.797609,228.439797 147.250872,230.685215 146.659625,232.739768 C146.068377,234.794321 145.590507,236.415398 145.226016,237.603001 L145.226016,237.603001 L138.582037,238 C138.7752,236.87517 139.03723,235.337225 139.368128,233.386163 C139.699025,231.435101 140.003047,229.24567 140.280195,226.817871 C140.556735,224.367772 140.694692,221.903736 140.693396,219.437767 L140.693396,219.437767 L140.693396,216.348303 L149.408423,215.824061 Z M143.610605,198.010716 C145.193085,197.915147 146.747828,198.461822 147.929464,199.529302 C150.030288,201.297162 150.608578,204.314514 149.312681,206.746534 C148.826974,207.680512 148.122986,208.480683 147.26179,209.077629 C146.405236,209.679467 145.398853,210.026824 144.356781,210.080305 C142.760161,210.197703 141.186203,209.645373 140.005567,208.553387 L140.005567,208.553387 L140.005567,208.563566 C137.542381,206.34663 137.317115,202.535479 139.501662,200.038275 C140.54895,198.836185 142.028126,198.106286 143.610605,198.010716 Z" id="bg-14" stroke="#6FD5D2" stroke-linecap="round" stroke-linejoin="round"></path>
            <polygon id="bg-1" stroke="#FFE15E" stroke-linecap="round" stroke-linejoin="round" points="243.251959 66.1548514 240.470263 59 222 66.3446217 247.529737 132 266 124.652814 263.20816 117.469753 253.625634 121.280545 233.671969 69.9656432"></polygon>
            <path d="M612.969823,221.357894 C610.587582,221.337608 608.677915,221.633443 607.240821,222.245397 C605.931551,222.762162 604.79933,223.648122 603.980824,224.796336 C603.230272,225.906743 602.694479,227.148848 602.401368,228.457921 L600.364501,237.226454 C599.933204,239.085984 599.369655,240.56093 598.673852,241.651292 C598.017605,242.721699 596.966857,243.488975 595.749963,243.786371 C594.494822,244.114325 592.818493,244.029801 590.720975,243.532799 L589,250.939648 C591.389961,251.52349 593.830883,251.872529 596.288241,251.981831 C598.28587,252.084941 600.281794,251.74827 602.136019,250.995434 C603.839304,250.265146 605.293246,249.026022 606.497845,247.278063 C607.702443,245.530104 608.653486,243.149905 609.350974,240.137465 L610.927902,233.346796 C611.578217,230.550738 612.646351,228.672612 614.132303,227.712418 C615.618255,226.752224 617.871612,226.626283 620.892374,227.334595 L621.903226,223.023865 L621.989148,222.648577 L623,218.337847 C619.977553,217.631225 618.012289,216.518888 617.104207,215.000834 C616.196125,213.482781 616.058818,211.326571 616.692285,208.532203 L618.274268,201.716177 C618.97344,198.703738 619.169714,196.146883 618.863089,194.045613 C618.556464,191.944343 617.798325,190.187932 616.588673,188.776379 C615.260775,187.278552 613.621794,186.09101 611.787127,185.297366 C609.535741,184.304339 607.192866,183.53488 604.792032,183 L603.066003,190.432206 C605.160151,190.922446 606.700857,191.588497 607.688122,192.430357 C608.65053,193.229596 609.256901,194.379873 609.373718,195.627905 C609.511868,196.921124 609.366979,198.494118 608.939052,200.346887 L606.904712,209.125562 C606.586754,210.438939 606.517319,211.800532 606.700015,213.139613 C606.929343,214.532122 607.555091,215.828381 608.501858,216.872199 C609.51271,218.055536 611.094693,219.167874 613.247807,220.209211 L613.616768,220.376569 L613.386799,221.370573 L612.969823,221.357894 Z" id="bg-6" stroke="#C384F8" stroke-linecap="round" stroke-linejoin="round"></path>
            <path d="M67.0000004,141.188635 L58.9757522,131.812425 C59.1960568,131.5235 59.4163614,131.236554 59.6307119,130.925861 C60.8413949,129.177799 61.8297885,127.029991 62.5958929,124.482438 C63.3619972,121.934884 63.7443878,118.940091 63.7430646,115.498058 L55.43897,115.498058 C55.43897,118.284403 54.9758673,120.818103 54.0496617,123.09916 C53.7810932,123.749832 53.4796914,124.386544 53.1466112,125.006856 L43.1515299,113.33112 L46.5989994,110.81391 C48.8774651,109.163476 50.6577645,107.321744 51.9398977,105.288715 C53.2220308,103.255685 53.8624358,100.952861 53.8611127,98.3802407 C53.8763069,96.2158614 53.2947866,94.0889259 52.1800496,92.2316792 C51.026359,90.3197153 49.3748056,88.7550415 47.4008288,87.7038682 C45.3353903,86.5692769 42.8610983,86.0013216 39.9779527,86.0000001 C37.094807,85.998683 34.5808204,86.5844488 32.435993,87.7572996 C30.3545203,88.8682184 28.6220649,90.5319227 27.4305134,92.5641408 C26.2396776,94.5958509 25.6442598,96.8986755 25.6442598,99.4726147 C25.6240528,101.662296 26.1039036,103.827847 27.0474612,105.805217 C28.0211045,107.809591 29.2310739,109.691001 30.6517241,111.409571 C30.8501967,111.662875 31.0784402,111.922116 31.2888212,112.177399 C29.4668605,113.412319 27.7284477,114.765543 26.084869,116.228286 C24.575268,117.561722 23.3105602,119.147539 22.3476295,120.914412 C21.4492101,122.600467 21.0000004,124.535209 21.0000004,126.718638 C21.0000004,129.611846 21.7277333,132.207553 23.1831992,134.50576 C24.6386651,136.803968 26.708073,138.627229 29.3914229,139.975546 C32.0787422,141.325182 35.292014,142 39.0312382,142 C41.6021244,141.983702 44.1549694,141.570483 46.5989994,140.775037 C48.9697282,140.036261 51.1626634,138.819046 53.0414208,137.199096 L56.5464473,141.200509 L67.0000004,141.188635 Z M34.8829182,96.7021411 C35.3566301,95.8018568 36.0405039,95.0477743 36.8680315,94.5132295 C37.7581704,93.9428862 38.7809461,93.6521746 39.8188757,93.6744877 C41.4859111,93.6744877 42.7965458,94.2159194 43.7507798,95.2987829 C44.7050139,96.3816463 45.1815647,97.5286087 45.1802147,98.73967 C45.2070781,100.076751 44.8324004,101.387913 44.1110127,102.481277 C43.3982114,103.545047 42.3539192,104.554265 40.9781359,105.50893 L37.9985498,107.673293 L37.6670588,107.243694 C36.7119883,106.018313 35.8658758,104.700641 35.1396799,103.307744 C34.5302466,102.165857 34.2007082,100.878182 34.1815647,99.5640919 C34.1776095,98.5611379 34.4193778,97.5745066 34.8829182,96.7021411 L34.8829182,96.7021411 Z M45.315101,132.971264 C43.5346708,133.838462 41.5901874,134.293479 39.6193308,134.304097 C37.8715877,134.304097 36.3455634,133.949209 35.041258,133.239432 C33.8004765,132.589499 32.7533472,131.608511 32.010016,130.399657 C31.2912619,129.212172 30.917725,127.838913 30.9332814,126.441183 C30.9332814,125.491256 31.318201,124.337869 32.0880402,122.981021 C32.8578795,121.624173 34.1348764,120.282667 35.9190308,118.956505 L36.7909518,118.304097 L47.9328145,131.398281 C47.1107044,132.006381 46.2342045,132.533069 45.315101,132.971264 Z" id="bg-23" stroke="#3FA2FF" stroke-linecap="round" stroke-linejoin="round" transform="translate(44.000000, 113.999999) rotate(20.000000) translate(-44.000000, -113.999999) "></path>
        </g>
    </g>
</svg>