<?xml version="1.0" encoding="UTF-8"?>
<svg width="175px" height="200px" viewBox="0 0 175 200" version="1.1" xmlns="http://www.w3.org/2000/svg" xmlns:xlink="http://www.w3.org/1999/xlink">
    <title>course-why-tool</title>
    <g id="Page-1" stroke="none" stroke-width="1" fill="none" fill-rule="evenodd">
        <g id="course-why-tool" fill-rule="nonzero">
            <g id="Group" transform="translate(18.202734, 134.367578)" fill="#C384F8">
                <path d="M15.1113281,7.10542736e-13 L12.3820313,1.65429688 C13.2554688,4.14882813 14.3,6.59882813 15.4953125,8.95234375 C17.6960938,13.2851563 16.86875,18.5027344 13.4367188,21.9351563 L13.4367188,21.9351563 L9.90507813,25.4667969 C8.89257813,26.4785156 8.89296875,28.1261719 9.90507813,29.1386719 L9.90507813,29.1386719 L21.6582031,40.8910156 C22.6699219,41.903125 24.3167969,41.9039063 25.3296875,40.8910156 L25.3296875,40.8910156 L28.8609375,37.3597656 C31.0125,35.2082031 33.8664063,34.0800781 36.7628906,34.0800781 C38.4878906,34.0800781 40.2277344,34.4796875 41.8449219,35.3011719 C44.5699219,36.6851563 47.4257813,37.8675781 50.3316406,38.8164063 C54.9453125,40.3222656 58.0457031,44.5949219 58.0457031,49.4484375 L58.0457031,49.4484375 L58.0457031,54.4421875 C58.0457031,55.8738281 59.2101563,57.0382813 60.6417969,57.0382813 L60.6417969,57.0382813 L77.2628906,57.0382813 C78.6945313,57.0382813 79.8589844,55.8738281 79.8589844,54.4421875 L79.8589844,54.4421875 L79.8589844,49.4484375 C79.8589844,44.5949219 82.959375,40.321875 87.5734375,38.8160156 C90.478125,37.8679688 93.3335938,36.6855469 96.0605469,35.3007813 C100.392188,33.1007813 105.609766,33.9277344 109.042578,37.3589844 L109.042578,37.3589844 L112.574609,40.8910156 C113.064844,41.3816406 113.717188,41.6515625 114.410156,41.6515625 C115.103516,41.6515625 115.755469,41.3816406 116.245703,40.8914063 L116.245703,40.8914063 L127.998828,29.1382813 C128.489453,28.6480469 128.759375,27.9957031 128.759375,27.3023438 C128.759375,26.6089844 128.489453,25.9570313 127.999219,25.4667969 L127.999219,25.4667969 L124.467188,21.9351563 C124.467188,21.9351563 124.467188,21.9347656 124.466797,21.9347656 C121.035156,18.5027344 120.207813,13.2855469 122.408594,8.95234375 C123.603906,6.5984375 124.648828,4.14921875 125.521875,1.65429688 L125.521875,1.65429688 L122.737891,7.10542736e-13 L137.903906,7.10542736e-13 C137.380469,0.671875 136.659375,1.19570313 135.79375,1.46289063 C134.989063,1.71132813 134.353516,2.33515625 134.093359,3.13164063 C133.008594,6.45625 131.655078,9.7234375 130.070703,12.8429688 C129.558984,13.8515625 129.748828,15.0632813 130.544141,15.8585938 L130.544141,15.8585938 L134.075391,19.3898438 C136.189063,21.503125 137.353125,24.3128906 137.353125,27.3023438 C137.353125,30.2917969 136.188672,33.1015625 134.075391,35.2152344 L134.075391,35.2152344 L122.322266,46.9679688 C120.208984,49.0816406 117.398828,50.2457031 114.409766,50.2457031 C111.420703,50.2457031 108.610938,49.08125 106.497266,46.9679688 L106.497266,46.9679688 L102.965625,43.4363281 C102.170703,42.640625 100.958594,42.4511719 99.9507813,42.9636719 C96.8300781,44.5484375 93.5628906,45.9015625 90.2394531,46.9859375 C89.1707031,47.3351563 88.4523438,48.3246094 88.4523438,49.4488281 L88.4523438,49.4488281 L88.4523438,54.4425781 C88.4523438,60.6125 83.4328125,65.6324219 77.2625,65.6324219 L77.2625,65.6324219 L60.6414063,65.6324219 C54.4714844,65.6324219 49.4515625,60.6128906 49.4515625,54.4425781 L49.4515625,54.4425781 L49.4515625,49.4488281 C49.4515625,48.325 48.7332031,47.3355469 47.6648438,46.9863281 C44.3394531,45.9007813 41.071875,44.5472656 37.9535156,42.9636719 C36.9441406,42.4511719 35.7324219,42.6417969 34.9375,43.4367188 L34.9375,43.4367188 L31.4066406,46.9675781 C29.2929688,49.0816406 26.4828125,50.2457031 23.4941406,50.2457031 C20.5046875,50.2457031 17.6949219,49.08125 15.58125,46.9679688 L15.58125,46.9679688 L3.828125,35.2152344 C-0.534765625,30.8515625 -0.534375,23.7527344 3.828125,19.3898438 L3.828125,19.3898438 L7.35976563,15.8582031 C8.1546875,15.0632813 8.3453125,13.8515625 7.8328125,12.8433594 C6.2484375,9.7234375 4.89492188,6.45625 3.81015625,3.13203125 C3.55,2.33515625 2.91484375,1.71171875 2.10976563,1.46289063 C1.24453125,1.19570313 0.5234375,0.671875 8.52651283e-14,7.10542736e-13 L8.52651283e-14,7.10542736e-13 L15.1113281,7.10542736e-13 Z M40.1199219,3.55271368e-15 C46.3003906,9.803125 57.1453125,15.921875 68.9515625,15.921875 C80.7585937,15.921875 91.603125,9.80351562 97.7835937,3.55271368e-15 L97.7835937,3.55271368e-15 L109.120703,3.55271368e-15 L106.753125,1.65429688 C99.4226563,15.6316406 84.8808594,24.515625 68.9519531,24.515625 C53.0230469,24.515625 38.4816406,15.6316406 31.1507812,1.65429688 L31.1507812,1.65429688 L29.7644531,3.55271368e-15 Z" id="Combined-Shape"></path>
            </g>
            <g id="Group" transform="translate(-0.000000, -0.000000)" fill="#293D56">
                <path d="M76.9585937,-1.44950718e-12 C82.9910156,-1.44950718e-12 87.8992187,4.9078125 87.8988281,10.940625 L87.8988281,10.940625 L87.8988281,35.9679687 L99.4589844,35.9679687 L99.4589844,29.096875 C99.4589844,24.6933594 102.081641,20.7449219 106.140234,19.0371094 L106.140234,19.0371094 L140.894141,4.4140625 C144.272266,2.99296875 148.111719,3.3546875 151.164844,5.38242187 C154.217578,7.40976562 156.040234,10.8085937 156.040234,14.4734375 L156.040234,14.4734375 L156.040234,127.428125 L170.0125,127.428125 C172.385547,127.428125 174.308984,129.351953 174.308984,131.725 C174.308984,134.098047 172.385156,136.021875 170.012109,136.021875 L170.012109,136.021875 L4.296875,136.021875 C1.92382812,136.021875 -8.52651283e-14,134.098047 -8.52651283e-14,131.725 C-8.52651283e-14,129.351953 1.92382812,127.428125 4.296875,127.428125 L4.296875,127.428125 L18.2691406,127.428125 L18.2691406,10.940625 C18.2691406,4.9078125 23.1769531,-1.44950718e-12 29.2097656,-1.44950718e-12 L29.2097656,-1.44950718e-12 Z M76.9585937,8.59375 L29.2097656,8.59375 C27.915625,8.59375 26.8628906,9.646875 26.8628906,10.940625 L26.8628906,10.940625 L26.8628906,127.428125 L79.3054687,127.428125 L79.3054687,10.940625 C79.3054687,9.64648437 78.2523437,8.59375 76.9585937,8.59375 L76.9585937,8.59375 Z M146.410547,12.5402344 C146.098828,12.3332031 145.261719,11.8996094 144.227344,12.334375 L144.227344,12.334375 L109.473437,26.9578125 C108.610547,27.3210937 108.053125,28.1605469 108.053125,29.0964844 L108.053125,29.0964844 L108.053125,35.9671875 L117.187891,35.9671875 C123.205469,35.9671875 128.101172,40.8628906 128.101172,46.8804687 L128.101172,46.8804687 L128.101172,127.427344 L147.446875,127.427344 L147.446875,14.4726562 C147.446875,13.3496094 146.722266,12.7472656 146.410547,12.5402344 Z M119.507031,98.040625 L87.8992187,98.040625 L87.8992187,127.427734 L119.507031,127.427734 L119.507031,98.040625 Z M43.3699219,21.5261719 C45.7429688,21.5261719 47.6667969,23.45 47.6667969,25.8230469 L47.6667969,25.8230469 L47.6667969,109.28125 C47.6667969,111.654297 45.7429688,113.578125 43.3699219,113.578125 C40.996875,113.578125 39.0730469,111.654297 39.0730469,109.28125 L39.0730469,109.28125 L39.0730469,25.8230469 C39.0730469,23.45 40.996875,21.5261719 43.3699219,21.5261719 Z M62.7976563,21.5261719 C65.1707031,21.5261719 67.0945313,23.45 67.0945313,25.8230469 L67.0945313,25.8230469 L67.0945313,109.28125 C67.0945313,111.654297 65.1707031,113.578125 62.7976563,113.578125 C60.4246094,113.578125 58.5007813,111.654297 58.5007813,109.28125 L58.5007813,109.28125 L58.5007813,25.8230469 C58.5007813,23.45 60.4246094,21.5261719 62.7976563,21.5261719 Z M117.187109,44.5613281 L87.8988281,44.5613281 L87.8988281,89.446875 L119.506641,89.446875 L119.506641,46.8808594 C119.506641,45.6019531 118.466016,44.5613281 117.187109,44.5613281 L117.187109,44.5613281 Z" id="Combined-Shape"></path>
            </g>
        </g>
    </g>
</svg>